<svg xmlns="http://www.w3.org/2000/svg" xmlns:xlink="http://www.w3.org/1999/xlink" width="973.05" height="369.626" viewBox="0 0 973.05 369.626">
  <defs>
    <radialGradient id="radial-gradient" cx="0.5" cy="0.5" r="0.5" gradientTransform="translate(0)" gradientUnits="objectBoundingBox">
      <stop offset="0" stop-color="#737577"/>
      <stop offset="0.147" stop-color="#8f9092"/>
      <stop offset="0.424" stop-color="#bfc0c1"/>
      <stop offset="0.669" stop-color="#e1e2e2"/>
      <stop offset="0.869" stop-color="#f7f7f7"/>
      <stop offset="1" stop-color="#fff"/>
    </radialGradient>
    <linearGradient id="linear-gradient" x1="0.165" y1="0.937" x2="0.834" y2="0.064" gradientUnits="objectBoundingBox">
      <stop offset="0" stop-color="#f2f2f2"/>
      <stop offset="0.307" stop-color="#f7f7f7"/>
      <stop offset="1" stop-color="#fff"/>
    </linearGradient>
    <linearGradient id="linear-gradient-3" x1="-29.879" y1="-16.428" x2="-29.211" y2="-17.301" xlink:href="#linear-gradient"/>
    <radialGradient id="radial-gradient-3" cx="0.5" cy="0.5" r="0.5" xlink:href="#radial-gradient"/>
    <linearGradient id="linear-gradient-6" x1="-32.287" y1="-15.391" x2="-31.618" y2="-16.264" xlink:href="#linear-gradient"/>
    <radialGradient id="radial-gradient-5" cx="0.5" cy="0.5" r="0.5" xlink:href="#radial-gradient"/>
    <linearGradient id="linear-gradient-8" x1="-34.684" y1="-16.428" x2="-34.016" y2="-17.301" xlink:href="#linear-gradient"/>
    <linearGradient id="linear-gradient-11" x1="-37.091" y1="-15.391" x2="-36.422" y2="-16.264" xlink:href="#linear-gradient"/>
  </defs>
  <g id="Group_2627" data-name="Group 2627" transform="translate(-473 -5005)">
    <g id="Group_2626" data-name="Group 2626">
      <g id="Group_357" data-name="Group 357" transform="translate(473 5005)">
        <path id="Path_1016" data-name="Path 1016" d="M286.748,242.667A134.123,134.123,0,1,1,152.624,108.55,134.125,134.125,0,0,1,286.748,242.667Z" transform="translate(-18.503 -108.55)" fill="url(#radial-gradient)" style="mix-blend-mode: multiply;isolation: isolate"/>
        <path id="Path_1017" data-name="Path 1017" d="M230.57,212.326a99.494,99.494,0,1,1-99.5-99.484A99.5,99.5,0,0,1,230.57,212.326Z" transform="translate(21.186 -95.526)" fill="url(#linear-gradient)"/>
        <path id="Path_1018" data-name="Path 1018" d="M32.02,211a97.725,97.725,0,1,1,97.725,97.729A97.724,97.724,0,0,1,32.02,211Z" transform="translate(22.515 -94.2)" fill="#bebebe"/>
      </g>
      <g id="Group_358" data-name="Group 358" transform="translate(473 5106.388)">
        <path id="Path_1019" data-name="Path 1019" d="M286.748,267.8A134.123,134.123,0,1,1,152.624,133.68,134.127,134.127,0,0,1,286.748,267.8Z" transform="translate(-18.503 -133.68)" fill="url(#radial-gradient)" style="mix-blend-mode: multiply;isolation: isolate"/>
        <path id="Path_1020" data-name="Path 1020" d="M230.57,237.459a99.494,99.494,0,1,1-99.5-99.488A99.5,99.5,0,0,1,230.57,237.459Z" transform="translate(21.186 -120.659)" fill="url(#linear-gradient)"/>
        <path id="Path_1021" data-name="Path 1021" d="M32.02,236.133a97.725,97.725,0,1,1,97.725,97.729A97.727,97.727,0,0,1,32.02,236.133Z" transform="translate(22.515 -119.333)" fill="url(#linear-gradient-3)"/>
      </g>
      <g id="Group_360" data-name="Group 360" transform="translate(708.319 5106.389)">
        <path id="Path_1023" data-name="Path 1023" d="M345.074,267.8A134.123,134.123,0,1,1,210.954,133.68,134.126,134.126,0,0,1,345.074,267.8Z" transform="translate(-76.829 -133.68)" fill="url(#radial-gradient-3)" style="mix-blend-mode: multiply;isolation: isolate"/>
        <path id="Path_1024" data-name="Path 1024" d="M288.889,237.459A99.49,99.49,0,1,1,189.4,137.971,99.5,99.5,0,0,1,288.889,237.459Z" transform="translate(-37.137 -120.659)" fill="url(#linear-gradient)"/>
        <path id="Path_1025" data-name="Path 1025" d="M90.346,236.133a97.727,97.727,0,1,1,97.729,97.729A97.726,97.726,0,0,1,90.346,236.133Z" transform="translate(-35.811 -119.333)" fill="#707070"/>
      </g>
      <g id="Group_361" data-name="Group 361" transform="translate(708.319 5005)">
        <path id="Path_1026" data-name="Path 1026" d="M345.074,242.671A134.123,134.123,0,1,1,210.954,108.55,134.12,134.12,0,0,1,345.074,242.671Z" transform="translate(-76.829 -108.55)" fill="url(#radial-gradient-3)" style="mix-blend-mode: multiply;isolation: isolate"/>
        <path id="Path_1027" data-name="Path 1027" d="M288.889,212.326A99.49,99.49,0,1,1,189.4,112.842,99.494,99.494,0,0,1,288.889,212.326Z" transform="translate(-37.137 -95.526)" fill="url(#linear-gradient)"/>
        <path id="Path_1028" data-name="Path 1028" d="M90.346,211a97.727,97.727,0,1,1,97.729,97.733A97.725,97.725,0,0,1,90.346,211Z" transform="translate(-35.811 -94.2)" fill="url(#linear-gradient-6)"/>
      </g>
      <path id="Path_1029" data-name="Path 1029" d="M403.11,242.667A134.121,134.121,0,1,1,268.994,108.55,134.118,134.118,0,0,1,403.11,242.667Z" transform="translate(807.616 4896.45)" fill="url(#radial-gradient-5)" style="mix-blend-mode: multiply;isolation: isolate"/>
      <path id="Path_1030" data-name="Path 1030" d="M346.933,212.326a99.492,99.492,0,1,1-99.492-99.484A99.495,99.495,0,0,1,346.933,212.326Z" transform="translate(847.308 4909.474)" fill="none"/>
      <path id="Path_1031" data-name="Path 1031" d="M148.387,211a97.723,97.723,0,1,1,97.725,97.729A97.721,97.721,0,0,1,148.387,211Z" transform="translate(847.637 4922.8)" fill="#bebebe"/>
      <g id="Group_363" data-name="Group 363" transform="translate(942.485 5106.389)">
        <path id="Path_1032" data-name="Path 1032" d="M403.11,267.8A134.121,134.121,0,1,1,268.994,133.68,134.12,134.12,0,0,1,403.11,267.8Z" transform="translate(-134.869 -133.68)" fill="url(#radial-gradient-5)" style="mix-blend-mode: multiply;isolation: isolate"/>
        <path id="Path_1033" data-name="Path 1033" d="M346.933,237.459a99.492,99.492,0,1,1-99.492-99.488A99.5,99.5,0,0,1,346.933,237.459Z" transform="translate(-95.177 -120.659)" fill="url(#linear-gradient)"/>
        <path id="Path_1034" data-name="Path 1034" d="M148.387,236.133a97.723,97.723,0,1,1,97.725,97.729A97.725,97.725,0,0,1,148.387,236.133Z" transform="translate(-93.848 -119.333)" fill="url(#linear-gradient-8)"/>
      </g>
      <g id="Group_364" data-name="Group 364" transform="translate(1177.804 5106.389)">
        <path id="Path_1035" data-name="Path 1035" d="M461.44,267.8A134.123,134.123,0,1,1,327.32,133.68,134.124,134.124,0,0,1,461.44,267.8Z" transform="translate(-193.195 -133.68)" fill="url(#radial-gradient)" style="mix-blend-mode: multiply;isolation: isolate"/>
        <path id="Path_1036" data-name="Path 1036" d="M405.263,237.459a99.494,99.494,0,1,1-99.5-99.488A99.5,99.5,0,0,1,405.263,237.459Z" transform="translate(-153.503 -120.659)" fill="url(#linear-gradient)"/>
        <path id="Path_1037" data-name="Path 1037" d="M206.713,236.133a97.727,97.727,0,1,1,97.725,97.729A97.722,97.722,0,0,1,206.713,236.133Z" transform="translate(-152.174 -119.333)" fill="#707070"/>
      </g>
      <g id="Group_365" data-name="Group 365" transform="translate(1177.804 5005)">
        <path id="Path_1038" data-name="Path 1038" d="M461.44,242.671A134.123,134.123,0,1,1,327.32,108.55,134.118,134.118,0,0,1,461.44,242.671Z" transform="translate(-193.195 -108.55)" fill="url(#radial-gradient)" style="mix-blend-mode: multiply;isolation: isolate"/>
        <path id="Path_1039" data-name="Path 1039" d="M405.263,212.326a99.494,99.494,0,1,1-99.5-99.484A99.5,99.5,0,0,1,405.263,212.326Z" transform="translate(-153.503 -95.526)" fill="url(#linear-gradient)"/>
        <path id="Path_1040" data-name="Path 1040" d="M206.713,211a97.727,97.727,0,1,1,97.725,97.733A97.721,97.721,0,0,1,206.713,211Z" transform="translate(-152.174 -94.2)" fill="url(#linear-gradient-11)"/>
      </g>
      <g id="request" transform="translate(592.525 5050.297)">
        <path id="Path_1005" data-name="Path 1005" d="M35.314,45.85a3.61,3.61,0,0,0-2.572-1.066,3.651,3.651,0,0,0-2.654,1.149l-1.9,2.032a2.6,2.6,0,0,1-3.631.059l-1.917-1.918a2.526,2.526,0,0,1,.059-3.63l2.033-1.906a3.653,3.653,0,0,0,1.148-2.653,3.61,3.61,0,0,0-1.065-2.572L23.3,33.837h4.564v-5a4.945,4.945,0,0,0-3.546-4.766l-6.406-1.922v-.518a6.992,6.992,0,0,0,2.32-2.757,3.972,3.972,0,0,0,3.651-3.947V9.952a9.952,9.952,0,1,0-19.9,0v4.976h0a3.973,3.973,0,0,0,3.651,3.947,6.992,6.992,0,0,0,2.32,2.757v.518L3.546,24.072A4.943,4.943,0,0,0,0,28.837v5H10.922a7.725,7.725,0,0,0-.928,9.014A49.2,49.2,0,0,0,26.648,59.9l1.091.671a7.617,7.617,0,0,0,9.845-1.61l2.1-2.52a4.839,4.839,0,0,0-.3-6.52ZM23.885,37.918a1.655,1.655,0,0,1-.519,1.2l-.9.846-7.237-7.237.264-.22a2.849,2.849,0,0,1,3.84.173L23.4,36.752A1.636,1.636,0,0,1,23.885,37.918ZM20.859,16.664a7.048,7.048,0,0,0,.041-.741V13.214a1.973,1.973,0,0,1-.041,3.45ZM13.933,1.99a7.971,7.971,0,0,1,7.962,7.962V11.5a3.937,3.937,0,0,0-1.99-.553H18.738a5.759,5.759,0,0,1-4.1-1.7l-.7-.7-.7.7a5.761,5.761,0,0,1-4.1,1.7H7.962a3.928,3.928,0,0,0-1.99.554V9.952A7.971,7.971,0,0,1,13.933,1.99ZM5.971,14.929a1.984,1.984,0,0,1,1-1.714v2.708a7.019,7.019,0,0,0,.041.741A1.982,1.982,0,0,1,5.971,14.929Zm2.986.994V12.938h.171a7.727,7.727,0,0,0,4.805-1.657,7.727,7.727,0,0,0,4.805,1.657h.171v2.986a4.976,4.976,0,1,1-9.952,0Zm4.976,6.966a6.925,6.925,0,0,0,1.99-.294v.294a1.99,1.99,0,0,1-3.981,0V22.6A6.925,6.925,0,0,0,13.933,22.89ZM1.99,28.837a2.966,2.966,0,0,1,2.128-2.859l6.061-1.818a3.954,3.954,0,0,0,7.508,0l6.061,1.818a2.966,2.966,0,0,1,2.128,2.859v3.009H21.312l-.572-.572a4.843,4.843,0,0,0-6.523-.3l-1.041.869H1.99ZM31.731,59.713a5.624,5.624,0,0,1-2.95-.835l-1.09-.671A47.207,47.207,0,0,1,11.713,41.848a5.726,5.726,0,0,1-.765-2.919,5.61,5.61,0,0,1,2.025-4.323l.718-.6,7.352,7.352a4.471,4.471,0,0,0,.185,6.156l1.917,1.918a4.474,4.474,0,0,0,6.156.185l7.352,7.351-.6.719A5.61,5.61,0,0,1,31.731,59.713Zm6.421-4.543-.221.264L30.7,48.2l.845-.9a1.7,1.7,0,0,1,2.367-.038l4.072,4.071a2.851,2.851,0,0,1,.174,3.841Zm0,0" fill="#fff"/>
        <path id="Path_1006" data-name="Path 1006" d="M354.986,144A2.99,2.99,0,0,0,352,146.986v1h1.99v-1a1,1,0,1,1,1.99,0v.17a.991.991,0,0,1-.292.7l-1.7,1.7v2.4h1.99v-1.578l1.116-1.116a2.964,2.964,0,0,0,.875-2.112v-.17A2.99,2.99,0,0,0,354.986,144Zm0,0" transform="translate(-308.211 -126.086)" fill="#fff"/>
        <path id="Path_1007" data-name="Path 1007" d="M368,224h1.99v1.99H368Zm0,0" transform="translate(-322.22 -196.134)" fill="#fff"/>
        <path id="Path_1008" data-name="Path 1008" d="M282.871,112H258.986A2.99,2.99,0,0,0,256,114.986v13.933a2.99,2.99,0,0,0,2.986,2.986h5.971v6.966l9.288-6.966h8.626a2.99,2.99,0,0,0,2.986-2.986V114.986A2.99,2.99,0,0,0,282.871,112Zm1,16.919a1,1,0,0,1-1,1h-9.288l-6.635,4.976v-4.976h-7.962a1,1,0,0,1-1-1V114.986a1,1,0,0,1,1-1h23.885a1,1,0,0,1,1,1Zm0,0" transform="translate(-224.153 -98.067)" fill="#fff"/>
      </g>
      <g id="technician_2_" data-name="technician (2)" transform="translate(829.598 5236.101)">
        <ellipse id="Ellipse_89" data-name="Ellipse 89" cx="1" cy="1.5" rx="1" ry="1.5" transform="translate(25.927 18.899)" fill="#fff"/>
        <ellipse id="Ellipse_90" data-name="Ellipse 90" cx="1" cy="1.5" rx="1" ry="1.5" transform="translate(32.927 18.899)" fill="#fff"/>
        <path id="Path_1009" data-name="Path 1009" d="M33.6,27.934H28V29.8h5.6A2.8,2.8,0,0,0,36.4,27H34.537A.935.935,0,0,1,33.6,27.934Z" transform="translate(-1.257 -1.72)" fill="#fff"/>
        <path id="Path_1010" data-name="Path 1010" d="M50.015,22.2a.656.656,0,0,1-.465-.5,19.486,19.486,0,0,0-2.388-5.776.678.678,0,0,1,0-.727,2.489,2.489,0,0,0-.374-3.046L44.547,9.906a2.485,2.485,0,0,0-2.556-.595,12.128,12.128,0,0,0-23.024,0,2.485,2.485,0,0,0-2.556.595l-2.239,2.239a2.5,2.5,0,0,0-.349,3.088.662.662,0,0,1-.026.686A19.476,19.476,0,0,0,11.408,21.7a.676.676,0,0,1-.518.515A2.487,2.487,0,0,0,9,24.63V27.8a2.507,2.507,0,0,0,1.942,2.433.656.656,0,0,1,.465.5,19.493,19.493,0,0,0,2.387,5.775.728.728,0,0,1,.037.116,15.761,15.761,0,0,0-2.964,9.2v.934a8.413,8.413,0,0,0,5.6,7.914V58.9H44.486V54.673a8.411,8.411,0,0,0,5.6-7.914v-.934a15.771,15.771,0,0,0-2.964-9.2.808.808,0,0,1,.036-.114,19.475,19.475,0,0,0,2.388-5.776.676.676,0,0,1,.518-.515A2.49,2.49,0,0,0,51.957,27.8V24.63A2.508,2.508,0,0,0,50.015,22.2ZM37.172,30.236a5.584,5.584,0,0,0,1.711-4.022,3.739,3.739,0,0,0,3.735-3.735v-3.24a13.989,13.989,0,0,1,.336,13.348A15.79,15.79,0,0,0,37.172,30.236ZM39.817,53.3H36.082a1.868,1.868,0,0,1,0-3.735h.934v-.934a.935.935,0,0,1,.934-.934h.161a.941.941,0,0,1,.66.274l1.047,1.047Zm-4.669-5.475a3.72,3.72,0,0,0,0,7.21v2H25.809V40.222h9.339ZM23.942,45.278l-5.33-5.33a.933.933,0,0,1,0-1.32.947.947,0,0,1,1.32,0l4.009,4.009Zm-5.6-2.962,5.377,5.377H20.206a1.87,1.87,0,0,1-1.868-1.868ZM18,32.586a13.989,13.989,0,0,1,.336-13.348v3.24a3.739,3.739,0,0,0,3.735,3.735,5.584,5.584,0,0,0,1.711,4.022A15.79,15.79,0,0,0,18,32.586Zm1.27-18.512H41.685a.934.934,0,0,1,0,1.868H19.272a.934.934,0,1,1,0-1.868Zm11.206,22.04,1.792,2.24H28.686Zm0-2.816L29,31.817H31.96Zm2.8-3.349h-5.6a3.739,3.739,0,0,1-3.735-3.735v-8.4H37.016v8.4A3.739,3.739,0,0,1,33.28,29.949Zm-11.206-5.6a1.868,1.868,0,1,1,0-3.735Zm0-5.6a3.7,3.7,0,0,0-1.868.519V17.809h1.868Zm16.809,1.868a1.868,1.868,0,0,1,0,3.735Zm1.868-1.348a3.7,3.7,0,0,0-1.868-.519v-.934h1.868ZM29.227,34.688l-1.783,2.228L27,32.46Zm2.5,0,2.228-2.228-.445,4.456ZM40.7,12.206H37.016V8.471H35.148v3.735H33.28V3.266A10.287,10.287,0,0,1,40.7,12.206ZM31.412,2.915v9.291H29.545V2.915c.308-.028.618-.048.934-.048S31.1,2.887,31.412,2.915Zm-3.735.35v8.941H25.809V8.471H23.942v3.735H20.254A10.287,10.287,0,0,1,27.677,3.266ZM13.226,30.3a2.538,2.538,0,0,0-1.885-1.9.625.625,0,0,1-.473-.607V24.63a.645.645,0,0,1,.527-.621,2.518,2.518,0,0,0,1.831-1.886A17.576,17.576,0,0,1,15.384,16.9a2.538,2.538,0,0,0,.014-2.671.626.626,0,0,1,.094-.765l2.239-2.239a.624.624,0,0,1,.765-.094l.021.012a12.2,12.2,0,0,0-.139,1.221,2.776,2.776,0,0,0-.911,4.767A15.833,15.833,0,0,0,16.5,33.72a15.852,15.852,0,0,0-1.378,1.331A17.561,17.561,0,0,1,13.226,30.3Zm-.49,16.455v-.934a14.02,14.02,0,0,1,12.333-13.9l.642,6.427h-1.77V40l-2.689-2.689a2.867,2.867,0,0,0-3.961,0,2.785,2.785,0,0,0-.821,1.981v6.537a3.739,3.739,0,0,0,3.735,3.735h3.735V53.3H19.272a6.545,6.545,0,0,1-6.537-6.537Zm5.6,8.35a8.344,8.344,0,0,0,.934.055h4.669v1.868h-5.6Zm24.28,1.923h-5.6V55.164h4.669a8.344,8.344,0,0,0,.934-.055Zm5.6-10.272A6.545,6.545,0,0,1,41.685,53.3V49.428a3.731,3.731,0,0,0,2.8-3.6V39.288H42.619v6.537A1.87,1.87,0,0,1,41.1,47.659l-1.013-1.013a2.781,2.781,0,0,0-1.981-.821h-.161a2.788,2.788,0,0,0-.934.163V38.354h-1.77l.642-6.427a14.02,14.02,0,0,1,12.333,13.9ZM50.09,27.8a.645.645,0,0,1-.527.621,2.518,2.518,0,0,0-1.831,1.886,17.583,17.583,0,0,1-1.89,4.747,16.121,16.121,0,0,0-1.378-1.331,15.838,15.838,0,0,0-.973-16.589,2.775,2.775,0,0,0-.911-4.766,12.2,12.2,0,0,0-.139-1.221l.021-.012a.625.625,0,0,1,.765.094l2.239,2.239a.641.641,0,0,1,.068.807,2.518,2.518,0,0,0,.039,2.628,17.616,17.616,0,0,1,2.158,5.222,2.538,2.538,0,0,0,1.885,1.9.625.625,0,0,1,.474.607Z" transform="translate(0)" fill="#fff"/>
      </g>
      <g id="technician_3_" data-name="technician (3)" transform="translate(1068.525 5030.752)">
        <path id="Path_1011" data-name="Path 1011" d="M114.853,184.058a3.7,3.7,0,0,0,2.624-1.085.97.97,0,0,0-1.371-1.371,1.775,1.775,0,0,1-2.507,0,.97.97,0,1,0-1.386,1.356l.015.015a3.7,3.7,0,0,0,2.624,1.085Z" transform="translate(-98.371 -141.761)" fill="#fff"/>
        <path id="Path_1012" data-name="Path 1012" d="M160,364h1.939v1.939H160Z" transform="translate(-140.61 -302.311)" fill="#fff"/>
        <path id="Path_1013" data-name="Path 1013" d="M57.2,63.629h-3.85l.225-.13a.97.97,0,0,0,.485-.84V58.781a.97.97,0,0,0-.485-.84l-.225-.13H57.2a.97.97,0,0,0,.9-1.323,11.62,11.62,0,0,0-19.8-3.174c-.165.2-.324.406-.476.618H32.684a6.814,6.814,0,0,0-6.344-4.846L23.7,48.207l-2.369-1.579V44.7a8.733,8.733,0,0,0,3.823-6.282h.055a3.878,3.878,0,0,0,0-7.756V24.848A4.853,4.853,0,0,0,20.36,20H12.6a4.853,4.853,0,0,0-4.848,4.848v5.817a3.878,3.878,0,0,0,0,7.756h.055A8.733,8.733,0,0,0,11.634,44.7v1.925L9.266,48.207l-2.65.883A6.793,6.793,0,0,0,0,55.873V70.415a2.912,2.912,0,0,0,2.909,2.909H30.055a2.912,2.912,0,0,0,2.909-2.909V67.507h4.869A11.623,11.623,0,0,0,58.1,64.951a.969.969,0,0,0-.9-1.323Zm-7.468-5.667,2.389,1.379V60.98l-3.808-2.2Zm-2.389,2.5,3.808,2.2-1.419.82L47.344,62.1ZM35.683,61.69h-2.72V59.751h2.72c-.029.326-.043.648-.043.97S35.655,61.363,35.683,61.69Zm-4.659-5.817v.97H27.146V51.121A4.865,4.865,0,0,1,31.024,55.873Zm-16.253,9.7L11.1,63.731a.97.97,0,0,0-.867,0L7.756,64.969V50.755L9.2,50.272l3.5,7a.969.969,0,0,0,1.552.252l1.253-1.253v9.293Zm2.68-9.293L18.7,57.528a.969.969,0,0,0,1.553-.251l3.5-7,1.448.482V65.568H17.451Zm1.673-1.069-1.434-1.434,3-5.242,1.332.888ZM16.482,33.574a6.837,6.837,0,0,1-6.148-3.8l-.039-.078H22.669l-.039.078A6.837,6.837,0,0,1,16.482,33.574Zm10.665.97a1.941,1.941,0,0,1-1.939,1.939V32.6A1.941,1.941,0,0,1,27.146,34.544ZM9.7,24.849A2.912,2.912,0,0,1,12.6,21.94H20.36a2.912,2.912,0,0,1,2.909,2.909v2.909H9.7Zm-3.878,9.7A1.941,1.941,0,0,1,7.756,32.6v3.878A1.941,1.941,0,0,1,5.817,34.544ZM9.7,37.452V32.326a8.737,8.737,0,0,0,2.773,2.228.969.969,0,1,0,.933.409,8.792,8.792,0,0,0,1.767.452l-.576,1.73a.97.97,0,0,0,.92,1.276h1.939a.97.97,0,0,0,0-1.939h-.594l.333-1a8.816,8.816,0,0,0,2.371-.521.97.97,0,1,0,.933-.409,8.735,8.735,0,0,0,2.774-2.227v5.126a6.79,6.79,0,0,1-3.457,5.91.977.977,0,0,0-.129.073,6.772,6.772,0,0,1-6.4,0,.977.977,0,0,0-.129-.073A6.79,6.79,0,0,1,9.7,37.452Zm6.787,8.726a8.686,8.686,0,0,0,2.909-.5v1.212l-2.909,5.09-2.909-5.09V45.677a8.686,8.686,0,0,0,2.909.5Zm-4.2,2.352,3,5.242-1.434,1.434-2.894-5.787Zm-6.46,2.593v5.719H1.939v-.97A4.856,4.856,0,0,1,5.817,51.123ZM1.939,70.415V58.781H5.817v7.756c0,.006,0,.011,0,.017,0,.021,0,.042,0,.063s0,.023,0,.034.005.036.008.055,0,.027.008.04.007.03.011.044.008.031.013.047l0,.007L7.38,71.385H2.908A.971.971,0,0,1,1.939,70.415Zm29.085,0a.971.971,0,0,1-.97.97H9.424L7.972,67.028l2.692-1.346L14.109,67.4a.969.969,0,0,0,.434.1H26.177a.97.97,0,0,0,.97-.969V58.781h3.878Zm16.25,0a9.67,9.67,0,0,1-8.12-4.408.97.97,0,0,0-.812-.44h-5.38V63.629h3.831a.97.97,0,0,0,.954-1.145,9.31,9.31,0,0,1,0-3.527.97.97,0,0,0-.954-1.145H32.963V55.873h5.38a.97.97,0,0,0,.812-.44,9.817,9.817,0,0,1,.649-.882,9.682,9.682,0,0,1,15.861,1.322H49.733a.971.971,0,0,0-.485.13L45.89,57.942a.97.97,0,0,0-.485.84v3.878a.97.97,0,0,0,.485.84l3.358,1.939a.971.971,0,0,0,.485.13h5.932a9.623,9.623,0,0,1-8.39,4.847Z" fill="#fff"/>
        <path id="Path_1014" data-name="Path 1014" d="M332.168,307.369a5.82,5.82,0,0,1,0-11.152.97.97,0,0,0-.553-1.859,7.759,7.759,0,0,0,0,14.87.97.97,0,1,0,.553-1.859Z" transform="translate(-286.556 -241.073)" fill="#fff"/>
      </g>
      <g id="Group_356" data-name="Group 356" transform="translate(326.525 283)">
        <g id="check" transform="translate(991 4951.71)">
          <path id="Path_1003" data-name="Path 1003" d="M14,28A14,14,0,1,1,21.38,2.1a.824.824,0,0,1-.869,1.4A12.334,12.334,0,1,0,25.7,10.006a.824.824,0,1,1,1.559-.533A14.011,14.011,0,0,1,14,28Z" fill="#fff"/>
          <path id="Path_1004" data-name="Path 1004" d="M114.838,73.751a.822.822,0,0,1-.564-.224l-6.589-6.19a.823.823,0,1,1,1.128-1.2l5.955,5.594,10.821-12.846a.823.823,0,1,1,1.259,1.061L115.467,73.459a.824.824,0,0,1-.582.292Z" transform="translate(-100.836 -54.999)" fill="#fff" stroke="#fff" stroke-width="1"/>
        </g>
        <g id="solar-panel_2_" data-name="solar-panel (2)" transform="translate(980 4925.663)">
          <path id="Path_1015" data-name="Path 1015" d="M49.367,66.151c0-.012-.007-.024-.011-.036a.67.67,0,0,0-.086-.166s0-.007-.005-.01l-7.725-10.4A.675.675,0,0,0,41,55.262H8.4a.675.675,0,0,0-.542.273L.133,65.94s0,.007-.005.01a.67.67,0,0,0-.086.166c0,.012-.008.024-.011.036A.668.668,0,0,0,0,66.343v2.682a2.222,2.222,0,0,0,2.219,2.219H20.743v4.176H18.308a.675.675,0,0,0-.437.161l-3.862,3.28a.675.675,0,0,0-.238.514v3.28a.675.675,0,0,0,.675.675H34.952a.675.675,0,0,0,.675-.675v-3.28a.675.675,0,0,0-.238-.514l-3.862-3.28a.675.675,0,0,0-.437-.161H28.655V71.243H47.179A2.222,2.222,0,0,0,49.4,69.024V66.343A.667.667,0,0,0,49.367,66.151Zm-35.635-.484,1.844-4.42h8.361v4.42Zm-11.714,0L5.3,61.248h8.814l-1.844,4.419Zm21.92-9.054V59.9h-7.8l1.37-3.284Zm7.778,0,1.37,3.284h-7.8V56.613Zm-6.429,4.635h8.361l1.844,4.419h-10.2Zm11.668,4.42-1.844-4.42H44.1l3.28,4.419ZM43.1,59.9H34.548l-1.37-3.284h7.48ZM8.74,56.613h7.306L14.675,59.9H6.3ZM34.277,79.688v2.294H15.121V79.688l3.435-2.919H30.842ZM27.3,75.419h-5.21V71.243H27.3Zm19.875-5.526H2.219a.869.869,0,0,1-.868-.868V67.017h46.7v2.007a.869.869,0,0,1-.868.868Z" fill="#fff"/>
        </g>
      </g>
      <text id="Customer_Request" data-name="Customer
Request" transform="translate(573 5202)" fill="#21232a" font-size="20" font-family="HelveticaNeue-Bold, Helvetica Neue" font-weight="700"><tspan x="5.97" y="20">Customer</tspan><tspan x="13.37" y="45">Request</tspan></text>
      <text id="Request_received_by_cluster_in-charge" data-name="Request received by cluster
in-charge" transform="translate(797 5069)" fill="#21232a" font-size="20" font-family="HelveticaNeue-Bold, Helvetica Neue" font-weight="700"><tspan x="25.37" y="20">Request </tspan><tspan x="10.36" y="45">received by </tspan><tspan x="32.23" y="70">cluster</tspan><tspan x="19.55" y="95">in-charge</tspan></text>
      <text id="Technician_received_request" data-name="Technician 
received request" transform="translate(1030 5190)" fill="#21232a" font-size="20" font-family="HelveticaNeue-Bold, Helvetica Neue" font-weight="700"><tspan x="14.09" y="20">Technician </tspan><tspan x="24.44" y="45">received </tspan><tspan x="28.88" y="70">request</tspan></text>
      <text id="Task_Complete" data-name="Task 
Complete" transform="translate(1266 5098)" fill="#21232a" font-size="20" font-family="HelveticaNeue-Bold, Helvetica Neue" font-weight="700"><tspan x="43.15" y="20">Task </tspan><tspan x="18.73" y="45">Complete</tspan></text>
    </g>
  </g>
</svg>
