<svg xmlns="http://www.w3.org/2000/svg" width="1302.74" height="361.341" viewBox="0 0 1302.74 361.341">
  <g id="Group_2635" data-name="Group 2635" transform="translate(-316.351 -1897)">
    <text id="Technician" transform="translate(723 1934)" fill="#21232a" font-size="20" font-family="HelveticaNeue-Bold, Helvetica Neue" font-weight="700"><tspan x="0.09" y="20">Technician</tspan></text>
    <text id="Main_Purpose" data-name="Main
Purpose" transform="translate(380.5 2024)" fill="#21232a" font-size="20" font-family="HelveticaNeue-Bold, Helvetica Neue" font-weight="700"><tspan x="21.18" y="20">Main</tspan><tspan x="4.68" y="45">Purpose</tspan></text>
    <text id="Example_Use_Case" data-name="Example
Use Case" transform="translate(381 2151)" fill="#21232a" font-size="20" font-family="HelveticaNeue-Bold, Helvetica Neue" font-weight="700"><tspan x="10.42" y="20">Example</tspan><tspan x="5.94" y="45">Use Case</tspan></text>
    <text id="CSA" transform="translate(874 1934)" fill="#21232a" font-size="20" font-family="HelveticaNeue-Bold, Helvetica Neue" font-weight="700"><tspan x="64.25" y="20">CSA</tspan></text>
    <line id="Line_73" data-name="Line 73" y2="339.872" transform="translate(681.5 1918.468)" fill="none" stroke="#707070" stroke-width="1" opacity="0.2"/>
    <text id="Operator" transform="translate(540 1934)" fill="#21232a" font-size="20" font-family="HelveticaNeue-Bold, Helvetica Neue" font-weight="700"><tspan x="7.22" y="20">Operator</tspan></text>
    <line id="Line_74" data-name="Line 74" y2="339.872" transform="translate(497.5 1918.468)" fill="none" stroke="#707070" stroke-width="1" opacity="0.2"/>
    <line id="Line_75" data-name="Line 75" x1="1078.5" transform="translate(361 2119.5)" fill="none" stroke="#707070" stroke-width="1" opacity="0.2"/>
    <text id="Validating_the_activeness_of_a_customer" data-name="Validating the activeness of a customer" transform="translate(517 2024)" fill="#707070" font-size="14" font-family="HelveticaNeue, Helvetica Neue"><tspan x="31.36" y="13">Validating the </tspan><tspan x="26.572" y="29">activeness of a </tspan><tspan x="44.065" y="45">customer</tspan></text>
    <text id="Reviewing_meter_reading_data_for_a_specific_consumer" data-name="Reviewing meter reading data for a specific consumer" transform="translate(701 2024)" fill="#707070" font-size="14" font-family="HelveticaNeue, Helvetica Neue"><tspan x="20.392" y="13">Reviewing meter </tspan><tspan x="17.27" y="29">reading data for a </tspan><tspan x="15.324" y="45">specific consumer</tspan></text>
    <text id="Reviewing_the_meter_reading_data_to_check_for_overload_on_electrical_apparatus_" data-name="Reviewing the meter reading data to check for overload on electrical apparatus " transform="translate(887 2024)" fill="#707070" font-size="14" font-family="HelveticaNeue, Helvetica Neue"><tspan x="8.59" y="13">Reviewing the meter </tspan><tspan x="4.425" y="29">reading data to check </tspan><tspan x="25.187" y="45">for overload on </tspan><tspan x="11.054" y="61">electrical apparatus </tspan></text>
    <text id="Prioritising_which_customers_or_ex-customers_the_sales_team_should_approach_for_settling_arrears" data-name="Prioritising which customers (or ex-customers) the sales team should approach for settling arrears" transform="translate(513 2151)" fill="#707070" font-size="14" font-family="HelveticaNeue, Helvetica Neue"><tspan x="23.604" y="13">Prioritising which </tspan><tspan x="21.903" y="29">customers (or ex-</tspan><tspan x="12.432" y="45">customers) the sales </tspan><tspan x="6.713" y="61">team should approach </tspan><tspan x="20.356" y="77">for settling arrears</tspan></text>
    <text id="Reviewing_the_meter_reading_data_to_check_for_overload_on_electrical_apparatus_2" data-name="Reviewing the meter reading data to check for overload on electrical apparatus " transform="translate(701 2151)" fill="#707070" font-size="14" font-family="HelveticaNeue, Helvetica Neue"><tspan x="8.59" y="13">Reviewing the meter </tspan><tspan x="4.425" y="29">reading data to check </tspan><tspan x="25.187" y="45">for overload on </tspan><tspan x="11.054" y="61">electrical apparatus </tspan></text>
    <text id="Prioritising_which_customers_or_ex-customers_the_sales_team_should_approach_for_settling_arrears-2" data-name="Prioritising which customers (or ex-customers) the sales team should approach for settling arrears" transform="translate(881 2151)" fill="#707070" font-size="14" font-family="HelveticaNeue, Helvetica Neue"><tspan x="24.604" y="13">Prioritising which </tspan><tspan x="22.903" y="29">customers (or ex-</tspan><tspan x="13.432" y="45">customers) the sales </tspan><tspan x="7.713" y="61">team should approach </tspan><tspan x="21.356" y="77">for settling arrears</tspan></text>
    <line id="Line_85" data-name="Line 85" y2="339.872" transform="translate(866.5 1918.468)" fill="none" stroke="#707070" stroke-width="1" opacity="0.2"/>
    <line id="Line_86" data-name="Line 86" y2="339.872" transform="translate(1050.5 1918.468)" fill="none" stroke="#707070" stroke-width="1" opacity="0.2"/>
    <text id="Cluster_In-charge" data-name="Cluster
In-charge" transform="translate(1092 1934)" fill="#21232a" font-size="20" font-family="HelveticaNeue-Bold, Helvetica Neue" font-weight="700"><tspan x="16.56" y="20">Cluster</tspan><tspan x="5.18" y="45">In-charge</tspan></text>
    <text id="State_In-carge" data-name="State
In-carge" transform="translate(1243 1934)" fill="#21232a" font-size="20" font-family="HelveticaNeue-Bold, Helvetica Neue" font-weight="700"><tspan x="59.99" y="20">State</tspan><tspan x="45.11" y="45">In-carge</tspan></text>
    <text id="Summary_of_collections_in_a_specified_time_interval" data-name="Summary of collections in a specified time interval" transform="translate(1077 2024)" fill="#707070" font-size="14" font-family="HelveticaNeue, Helvetica Neue"><tspan x="28.004" y="13">Summary of </tspan><tspan x="19.331" y="29">collections in a </tspan><tspan x="22.306" y="45">specified time </tspan><tspan x="43.446" y="61">interval</tspan></text>
    <text id="View_customers_with_high_outstanding_accounts" data-name="View customers with high outstanding accounts" transform="translate(1246 2024)" fill="#707070" font-size="14" font-family="HelveticaNeue, Helvetica Neue"><tspan x="2.144" y="13">View customers with high </tspan><tspan x="14.184" y="29">outstanding accounts</tspan></text>
    <text id="Comparing_different_plants_collection_performance_for_the_current_month_" data-name="Comparing different plants’ collection performance for the current month " transform="translate(1061 2151)" fill="#707070" font-size="14" font-family="HelveticaNeue, Helvetica Neue"><tspan x="19.742" y="13">Comparing different </tspan><tspan x="28.975" y="29">plants’ collection </tspan><tspan x="20.029" y="45">performance for the </tspan><tspan x="38.033" y="61">current month </tspan></text>
    <text id="Confirming_a_customer_s_balance_when_collecting_payment_and_resolving_confusion_about_when_past_bills_were_paid" data-name="Confirming a customer’s balance when collecting payment, and resolving confusion about when past bills were paid" transform="translate(1246 2151)" fill="#707070" font-size="14" font-family="HelveticaNeue, Helvetica Neue"><tspan x="5.63" y="13">Confirming a customer’s </tspan><tspan x="6.554" y="29">balance when collecting </tspan><tspan x="9.123" y="45">payment, and resolving </tspan><tspan x="12.637" y="61">confusion about when </tspan><tspan x="21.59" y="77">past bills were paid</tspan></text>
    <line id="Line_87" data-name="Line 87" y2="339.872" transform="translate(1234.5 1918.468)" fill="none" stroke="#707070" stroke-width="1" opacity="0.2"/>
    <g id="Group_713" data-name="Group 713" transform="translate(-1281.149 -71)" opacity="0.215">
      <circle id="Ellipse_133" data-name="Ellipse 133" cx="1.262" cy="1.262" r="1.262" transform="translate(1601.787 1975.63)" fill="#f86b75"/>
      <circle id="Ellipse_134" data-name="Ellipse 134" cx="1.262" cy="1.262" r="1.262" transform="translate(1605.573 1975.63)" fill="#fad375"/>
      <circle id="Ellipse_135" data-name="Ellipse 135" cx="1.262" cy="1.262" r="1.262" transform="translate(1609.36 1975.63)" fill="#8bcc55"/>
      <rect id="Rectangle_389" data-name="Rectangle 389" width="86.672" height="26.927" transform="translate(1625.979 1996.457)" fill="#00b0ff"/>
      <rect id="Rectangle_390" data-name="Rectangle 390" width="153.149" height="90.88" transform="translate(1598 1972.685)" fill="none" stroke="#3f3d56" stroke-miterlimit="10" stroke-width="1"/>
      <line id="Line_194" data-name="Line 194" x2="153.149" transform="translate(1598 1979.568)" fill="none" stroke="#3f3d56" stroke-miterlimit="10" stroke-width="1"/>
      <circle id="Ellipse_136" data-name="Ellipse 136" cx="1.262" cy="1.262" r="1.262" transform="translate(1602.208 1974.789)" fill="none" stroke="#3f3d56" stroke-miterlimit="10" stroke-width="1"/>
      <circle id="Ellipse_137" data-name="Ellipse 137" cx="1.262" cy="1.262" r="1.262" transform="translate(1605.994 1974.789)" fill="none" stroke="#3f3d56" stroke-miterlimit="10" stroke-width="1"/>
      <circle id="Ellipse_138" data-name="Ellipse 138" cx="1.262" cy="1.262" r="1.262" transform="translate(1609.781 1974.789)" fill="none" stroke="#3f3d56" stroke-miterlimit="10" stroke-width="1"/>
      <rect id="Rectangle_391" data-name="Rectangle 391" width="86.672" height="26.927" transform="translate(1631.238 1991.197)" fill="none" stroke="#3f3d56" stroke-miterlimit="10" stroke-width="1"/>
      <rect id="Rectangle_392" data-name="Rectangle 392" width="116.124" height="3.482" transform="translate(1615.04 2035.165)" fill="#f2f2f2"/>
      <rect id="Rectangle_393" data-name="Rectangle 393" width="116.124" height="3.482" transform="translate(1615.04 2043.521)" fill="#f2f2f2"/>
      <rect id="Rectangle_394" data-name="Rectangle 394" width="116.124" height="3.482" transform="translate(1615.04 2051.878)" fill="#f2f2f2"/>
      <rect id="Rectangle_395" data-name="Rectangle 395" width="116.124" height="3.482" transform="translate(1616.302 2033.482)" fill="none" stroke="#3f3d56" stroke-miterlimit="10" stroke-width="1"/>
      <rect id="Rectangle_396" data-name="Rectangle 396" width="116.124" height="3.482" transform="translate(1616.302 2041.839)" fill="none" stroke="#3f3d56" stroke-miterlimit="10" stroke-width="1"/>
      <rect id="Rectangle_397" data-name="Rectangle 397" width="116.124" height="3.482" transform="translate(1616.302 2050.195)" fill="none" stroke="#3f3d56" stroke-miterlimit="10" stroke-width="1"/>
      <path id="Path_2392" data-name="Path 2392" d="M184.882,10.671l-5.6,3.1,5.977-2.108Z" transform="translate(1493.941 1962.151)" fill="#79758c"/>
      <ellipse id="Ellipse_157" data-name="Ellipse 157" cx="1.564" cy="3.15" rx="1.564" ry="3.15" transform="translate(1677.916 1970.369) rotate(-17.994)" fill="#3f3d56"/>
      <ellipse id="Ellipse_158" data-name="Ellipse 158" cx="1.18" cy="2.224" rx="1.18" ry="2.224" transform="translate(1683.441 1968.729) rotate(-17.994)" fill="#3f3d56"/>
      <path id="Path_2393" data-name="Path 2393" d="M197.145,4.641,200.862,3.3l.79,2.188-3.6,2.43Z" transform="translate(1483.591 1966.422)" fill="#3f3d56"/>
    </g>
    <g id="Group_711" data-name="Group 711" transform="translate(-342 -19)">
      <line id="Line_196" data-name="Line 196" x2="153.149" transform="translate(1757.881 2064.136)" fill="none" stroke="#3f3d56" stroke-miterlimit="10" stroke-width="1"/>
      <g id="Group_710" data-name="Group 710">
        <ellipse id="Ellipse_128" data-name="Ellipse 128" cx="63.532" cy="14.305" rx="63.532" ry="14.305" transform="translate(1814.891 2224.918)" fill="#00b0ff"/>
        <ellipse id="Ellipse_129" data-name="Ellipse 129" cx="63.532" cy="14.305" rx="63.532" ry="14.305" transform="translate(1820.781 2220.711)" fill="none" stroke="#3f3d56" stroke-miterlimit="10" stroke-width="1"/>
        <circle id="Ellipse_130" data-name="Ellipse 130" cx="12.622" cy="12.622" r="12.622" transform="translate(1768.82 2083.76)" fill="#00b0ff"/>
        <circle id="Ellipse_131" data-name="Ellipse 131" cx="12.622" cy="12.622" r="12.622" transform="translate(1819.729 2083.76)" fill="#00b0ff"/>
        <circle id="Ellipse_132" data-name="Ellipse 132" cx="12.622" cy="12.622" r="12.622" transform="translate(1870.639 2083.76)" fill="#00b0ff"/>
        <circle id="Ellipse_145" data-name="Ellipse 145" cx="1.262" cy="1.262" r="1.262" transform="translate(1761.667 2060.199)" fill="#f86b75"/>
        <circle id="Ellipse_146" data-name="Ellipse 146" cx="1.262" cy="1.262" r="1.262" transform="translate(1765.454 2060.199)" fill="#fad375"/>
        <circle id="Ellipse_147" data-name="Ellipse 147" cx="1.262" cy="1.262" r="1.262" transform="translate(1769.241 2060.199)" fill="#8bcc55"/>
        <rect id="Rectangle_400" data-name="Rectangle 400" width="153.149" height="90.88" transform="translate(1757.881 2057.253)" fill="none" stroke="#3f3d56" stroke-miterlimit="10" stroke-width="1"/>
        <circle id="Ellipse_148" data-name="Ellipse 148" cx="1.262" cy="1.262" r="1.262" transform="translate(1762.088 2059.357)" fill="none" stroke="#3f3d56" stroke-miterlimit="10" stroke-width="1"/>
        <circle id="Ellipse_149" data-name="Ellipse 149" cx="1.262" cy="1.262" r="1.262" transform="translate(1765.875 2059.357)" fill="none" stroke="#3f3d56" stroke-miterlimit="10" stroke-width="1"/>
        <circle id="Ellipse_150" data-name="Ellipse 150" cx="1.262" cy="1.262" r="1.262" transform="translate(1769.662 2059.357)" fill="none" stroke="#3f3d56" stroke-miterlimit="10" stroke-width="1"/>
        <circle id="Ellipse_151" data-name="Ellipse 151" cx="12.622" cy="12.622" r="12.622" transform="translate(1770.924 2081.656)" fill="none" stroke="#3f3d56" stroke-miterlimit="10" stroke-width="1"/>
        <circle id="Ellipse_152" data-name="Ellipse 152" cx="12.622" cy="12.622" r="12.622" transform="translate(1821.833 2081.656)" fill="none" stroke="#3f3d56" stroke-miterlimit="10" stroke-width="1"/>
        <circle id="Ellipse_153" data-name="Ellipse 153" cx="12.622" cy="12.622" r="12.622" transform="translate(1872.743 2081.656)" fill="none" stroke="#3f3d56" stroke-miterlimit="10" stroke-width="1"/>
        <rect id="Rectangle_401" data-name="Rectangle 401" width="34.501" height="3.366" transform="translate(1764.402 2117.63)" fill="#f2f2f2"/>
        <rect id="Rectangle_402" data-name="Rectangle 402" width="34.501" height="3.366" transform="translate(1815.732 2117.63)" fill="#f2f2f2"/>
        <rect id="Rectangle_403" data-name="Rectangle 403" width="34.501" height="3.366" transform="translate(1867.063 2117.63)" fill="#f2f2f2"/>
        <rect id="Rectangle_404" data-name="Rectangle 404" width="34.501" height="3.366" transform="translate(1766.085 2116.367)" fill="none" stroke="#3f3d56" stroke-miterlimit="10" stroke-width="1"/>
        <rect id="Rectangle_405" data-name="Rectangle 405" width="34.501" height="3.366" transform="translate(1817.416 2116.367)" fill="none" stroke="#3f3d56" stroke-miterlimit="10" stroke-width="1"/>
        <rect id="Rectangle_406" data-name="Rectangle 406" width="34.501" height="3.366" transform="translate(1868.746 2116.367)" fill="none" stroke="#3f3d56" stroke-miterlimit="10" stroke-width="1"/>
        <path id="Path_2380" data-name="Path 2380" d="M584.532,204.492l-11.806,6.541,12.59-4.441Z" transform="translate(1266.032 1849.878)" fill="#79758c"/>
        <ellipse id="Ellipse_154" data-name="Ellipse 154" cx="3.294" cy="6.636" rx="3.294" ry="6.636" transform="translate(1848.653 2049.202) rotate(-17.994)" fill="#3f3d56"/>
        <ellipse id="Ellipse_155" data-name="Ellipse 155" cx="2.485" cy="4.686" rx="2.485" ry="4.686" transform="translate(1860.292 2045.747) rotate(-17.994)" fill="#3f3d56"/>
        <path id="Path_2381" data-name="Path 2381" d="M610.365,191.788l7.831-2.827,1.664,4.61-7.579,5.12Z" transform="translate(1244.229 1858.875)" fill="#3f3d56"/>
        <path id="Path_2382" data-name="Path 2382" d="M785.384,325.18l2.1-4.628s5.049-13.464.421-10.939-6.311,9.256-6.311,9.256l-1.262,4.207Z" transform="translate(1068.461 1742.434)" fill="#a0616a"/>
        <path id="Path_2383" data-name="Path 2383" d="M913.695,510.684s-7.153,13.884-9.256,14.305-2.1-12.622-2.1-12.622,4.207-3.787,5.89-3.366S913.695,510.684,913.695,510.684Z" transform="translate(997.792 1626.772)" fill="#a0616a"/>
        <path id="Path_2384" data-name="Path 2384" d="M889.709,721.046a5.354,5.354,0,0,1,2.1,6.732c-1.683,4.628-2.524,3.366-3.366,7.153s-8.415,3.366-8.836,1.683-1.262-8.415.841-10.939S889.709,721.046,889.709,721.046Z" transform="translate(1011.259 1503.924)" fill="#55536e"/>
        <path id="Path_2385" data-name="Path 2385" d="M811.845,721.046a5.354,5.354,0,0,0-2.1,6.732c1.683,4.628,2.524,3.366,3.366,7.153s8.415,3.366,8.836,1.683,1.262-8.415-.842-10.939S811.845,721.046,811.845,721.046Z" transform="translate(1051.677 1503.924)" fill="#55536e"/>
        <path id="Path_2386" data-name="Path 2386" d="M847.132,508.567s3.366,2.1,4.207,15.147a201.168,201.168,0,0,1-.842,31.135,30.122,30.122,0,0,0,1.262,10.939c.841,2.524-2.1,21.878-2.1,21.878a9.859,9.859,0,0,1,0,8.415c-2.1,4.628-8.415,9.256-10.1,4.628a11.413,11.413,0,0,0-1.262-4.628c-1.262-2.524.841-12.622.841-12.622s-1.683-15.988-1.262-20.2-5.049-29.031-5.89-33.238-.421-7.573-.842-6.311S823.15,559.9,823.15,559.9s.841,22.3.421,25.244,1.683,8.836.421,10.939-3.787,9.677-8.415,5.049-3.787-6.311-4.207-8.415,0-4.628,0-7.994-3.366-22.3-1.683-25.244.841-6.732.421-13.464-.841-39.129,3.366-45.019S847.132,508.567,847.132,508.567Z" transform="translate(1051.732 1632.256)" fill="#3f3d56"/>
        <circle id="Ellipse_156" data-name="Ellipse 156" cx="10.098" cy="10.098" r="10.098" transform="translate(1878.458 2041.738)" fill="#a0616a"/>
        <path id="Path_2387" data-name="Path 2387" d="M867.744,314.75s-.421,15.147,1.683,17.671-18.092-2.1-18.092-2.1,4.628-9.677,1.683-15.988S867.744,314.75,867.744,314.75Z" transform="translate(1027.334 1741.083)" fill="#a0616a"/>
        <path id="Path_2388" data-name="Path 2388" d="M847.2,349.916s-.841-3.366-5.89-4.207-11.02-1.683-12.873,0-2.695,3.787-3.957,3.787h-5.89L809.335,365.9s4.628,5.47,3.366,15.567-3.366,28.61-3.366,28.61a92.561,92.561,0,0,1,8.836,14.305c4.207,8.415,33.238,7.573,31.555-7.153,0,0-2.1-3.787-1.262-7.153S851.83,384,851.83,384l9.677-25.665S848.043,351.6,847.2,349.916Z" transform="translate(1051.663 1721.905)" fill="#55536e"/>
        <path id="Path_2389" data-name="Path 2389" d="M915.329,376.046h2.945s1.683,9.677,1.262,15.567-.421,19.775-.421,19.775,1.683,3.366,1.262,6.311-1.262,10.939-1.262,10.939-.421,11.36-8.415,5.47c0,0-2.524-1.262-1.262-6.732s-.841-11.36-.841-11.36,1.262-3.787.841-6.311-2.1-10.518-2.1-10.518Z" transform="translate(994.896 1703.769)" fill="#55536e"/>
        <path id="Path_2390" data-name="Path 2390" d="M797.734,346.61l-2.1-1.262a11.229,11.229,0,0,0-7.153,0c-4.207,1.262-6.311.841-7.994.421s-.421-4.628-.421-4.628-3.366-5.89-6.732-2.524-3.366,10.1-3.366,10.1-2.1,4.207,5.47,6.732,10.939,6.311,10.939,6.311h8.415Z" transform="translate(1074.624 1726.053)" fill="#55536e"/>
        <path id="Path_2391" data-name="Path 2391" d="M857.455,299.587a1.951,1.951,0,0,0-1.21-1.738,5.517,5.517,0,0,0-1.438-.284,5.527,5.527,0,0,1-3.741-1.8c-1.111-1.457-.807-3.5-1.7-5.078a17.608,17.608,0,0,0-1.358-1.784c-1.554-2.08-1.828-4.736-1.97-7.262a3.119,3.119,0,0,1,.171-1.517,5.834,5.834,0,0,1,.96-1.185,3.935,3.935,0,0,0,.952-2.626c-.045-1.957,2.754-3.271,4.737-3.947a20.2,20.2,0,0,1,6.245-.812,9.364,9.364,0,0,1,3.584.441,8.247,8.247,0,0,1,1.8,1.07c2.339,1.712,4.536,3.818,5.322,6.482a14.019,14.019,0,0,1,.426,3.723,2.437,2.437,0,0,1-.167,1.146c-.281.564-.943.87-1.37,1.349-.8.894-.657,2.188-.758,3.345a7.661,7.661,0,0,1-3.763,5.795,4.8,4.8,0,0,0-1.177.814,5.168,5.168,0,0,0-.649,1.133A5.9,5.9,0,0,1,857.455,299.587Z" transform="translate(1030.417 1764.302)" fill="#3f3d56"/>
      </g>
    </g>
    <g id="Group_712" data-name="Group 712" transform="translate(-168 -222)">
      <circle id="Ellipse_139" data-name="Ellipse 139" cx="1.262" cy="1.262" r="1.262" transform="translate(1637.129 2132.987)" fill="#f86b75"/>
      <circle id="Ellipse_140" data-name="Ellipse 140" cx="1.262" cy="1.262" r="1.262" transform="translate(1640.916 2132.987)" fill="#fad375"/>
      <circle id="Ellipse_141" data-name="Ellipse 141" cx="1.262" cy="1.262" r="1.262" transform="translate(1644.702 2132.987)" fill="#8bcc55"/>
      <rect id="Rectangle_398" data-name="Rectangle 398" width="86.672" height="26.927" transform="translate(1661.321 2153.813)" fill="#00b0ff"/>
      <path id="Path_2379" data-name="Path 2379" d="M237.74,386.624v9.645c0,18.092-.091,78.956-.091,78.956H84.5v-90.88H238.039" transform="translate(1548.842 1745.697)" fill="none" stroke="#3f3d56" stroke-miterlimit="10" stroke-width="1"/>
      <line id="Line_195" data-name="Line 195" x2="124.749" transform="translate(1662.342 2136.924)" fill="none" stroke="#3f3d56" stroke-miterlimit="10" stroke-width="1"/>
      <circle id="Ellipse_142" data-name="Ellipse 142" cx="1.262" cy="1.262" r="1.262" transform="translate(1637.549 2132.145)" fill="none" stroke="#3f3d56" stroke-miterlimit="10" stroke-width="1"/>
      <circle id="Ellipse_143" data-name="Ellipse 143" cx="1.262" cy="1.262" r="1.262" transform="translate(1641.336 2132.145)" fill="none" stroke="#3f3d56" stroke-miterlimit="10" stroke-width="1"/>
      <circle id="Ellipse_144" data-name="Ellipse 144" cx="1.262" cy="1.262" r="1.262" transform="translate(1645.123 2132.145)" fill="none" stroke="#3f3d56" stroke-miterlimit="10" stroke-width="1"/>
      <rect id="Rectangle_399" data-name="Rectangle 399" width="86.672" height="26.927" transform="translate(1666.581 2148.554)" fill="none" stroke="#3f3d56" stroke-miterlimit="10" stroke-width="1"/>
      <rect id="Rectangle_407" data-name="Rectangle 407" width="26.507" height="22.72" transform="translate(1639.022 2191.259)" fill="#f2f2f2"/>
      <rect id="Rectangle_408" data-name="Rectangle 408" width="26.507" height="22.72" transform="translate(1688.038 2191.469)" fill="#f2f2f2"/>
      <rect id="Rectangle_409" data-name="Rectangle 409" width="26.507" height="22.72" transform="translate(1737.054 2191.68)" fill="#f2f2f2"/>
      <rect id="Rectangle_410" data-name="Rectangle 410" width="26.507" height="22.72" transform="translate(1642.809 2187.052)" fill="none" stroke="#3f3d56" stroke-miterlimit="10" stroke-width="1"/>
      <rect id="Rectangle_411" data-name="Rectangle 411" width="26.507" height="22.72" transform="translate(1691.825 2187.262)" fill="none" stroke="#3f3d56" stroke-miterlimit="10" stroke-width="1"/>
      <rect id="Rectangle_412" data-name="Rectangle 412" width="26.507" height="22.72" transform="translate(1740.841 2187.472)" fill="none" stroke="#3f3d56" stroke-miterlimit="10" stroke-width="1"/>
      <path id="Path_2394" data-name="Path 2394" d="M274.882,382.671l-5.6,3.1,5.977-2.108Z" transform="translate(1441.808 1746.666)" fill="#79758c"/>
      <ellipse id="Ellipse_159" data-name="Ellipse 159" cx="1.564" cy="3.15" rx="1.564" ry="3.15" transform="translate(1715.782 2126.884) rotate(-17.994)" fill="#3f3d56"/>
      <ellipse id="Ellipse_160" data-name="Ellipse 160" cx="1.18" cy="2.224" rx="1.18" ry="2.224" transform="translate(1721.308 2125.244) rotate(-17.994)" fill="#3f3d56"/>
      <path id="Path_2395" data-name="Path 2395" d="M287.145,376.641l3.717-1.342.79,2.188-3.6,2.43Z" transform="translate(1431.458 1750.937)" fill="#3f3d56"/>
    </g>
  </g>
</svg>
