<svg xmlns="http://www.w3.org/2000/svg" width="1343" height="323.696" viewBox="0 0 1343 323.696">
  <g id="Group_2655" data-name="Group 2655" transform="translate(-323 -5346.306)">
    <text id="Cluster_In-charge" data-name="Cluster In-charge" transform="translate(1178 5364)" fill="#21232a" font-size="20" font-family="HelveticaNeue-Bold, Helvetica Neue" font-weight="700"><tspan x="1.96" y="20">Cluster In-charge</tspan></text>
    <text id="State_In-carge" data-name="State In-carge" transform="translate(1427 5364)" fill="#21232a" font-size="20" font-family="HelveticaNeue-Bold, Helvetica Neue" font-weight="700"><tspan x="17.32" y="20">State In-carge</tspan></text>
    <line id="Line_171" data-name="Line 171" y2="323.696" transform="translate(1384.5 5346.306)" fill="none" stroke="#707070" stroke-width="1" opacity="0.2"/>
    <line id="Line_172" data-name="Line 172" y2="323.696" transform="translate(1143.5 5346.306)" fill="none" stroke="#707070" stroke-width="1" opacity="0.2"/>
    <text id="To_assess_the_number_of_consumers_who_are_yet_to_undergo_the_meter_reading" data-name="To assess the number of consumers who are yet to undergo the meter reading" transform="translate(953 5445)" fill="#707070" font-size="14" font-family="HelveticaNeue, Helvetica Neue"><tspan x="2.033" y="13">To assess the number </tspan><tspan x="1.011" y="29">of consumers who are </tspan><tspan x="13.254" y="45">yet to undergo the </tspan><tspan x="27.191" y="61">meter reading</tspan></text>
    <text id="To_conduct_a_review_on_the_consumers_whose_meter_readings_are_still_pending" data-name="To conduct a review on the consumers whose meter readings are still pending" transform="translate(1183 5445)" fill="#707070" font-size="14" font-family="HelveticaNeue, Helvetica Neue"><tspan x="8.029" y="13">To conduct a review on </tspan><tspan x="11.655" y="29">the consumers whose </tspan><tspan x="9.709" y="45">meter readings are still </tspan><tspan x="55.083" y="61">pending</tspan></text>
    <text id="Same_as_Cluster_In-charge" data-name="Same as Cluster In-charge" transform="translate(1430 5445)" fill="#707070" font-size="14" font-family="HelveticaNeue, Helvetica Neue"><tspan x="20.155" y="13">Same as Cluster In-</tspan><tspan x="60.678" y="29">charge</tspan></text>
    <text id="Assessing_the_number_of_completed_reading_reviews_in_a_month" data-name="Assessing the number of completed reading reviews in a month" transform="translate(952 5579)" fill="#707070" font-size="14" font-family="HelveticaNeue, Helvetica Neue"><tspan x="3.497" y="13">Assessing the number </tspan><tspan x="6.353" y="29">of completed reading </tspan><tspan x="14.396" y="45">reviews in a month</tspan></text>
    <text id="Assessing_the_number_of_pending_reviews_within_the_cluster" data-name="Assessing the number of pending reviews within the cluster" transform="translate(1182 5579)" fill="#707070" font-size="14" font-family="HelveticaNeue, Helvetica Neue"><tspan x="3.461" y="13">Assessing the number of </tspan><tspan x="9.705" y="29">pending reviews within </tspan><tspan x="48.198" y="45">the cluster</tspan></text>
    <text id="Assessing_the_number_of_pending_reviews_at_a_plant_" data-name="Assessing the number of pending reviews at a plant " transform="translate(1430 5579)" fill="#707070" font-size="14" font-family="HelveticaNeue, Helvetica Neue"><tspan x="4.961" y="13">Assessing the number of </tspan><tspan x="0.432" y="29">pending reviews at a plant </tspan></text>
    <text id="Main_Purpose" data-name="Main
Purpose" transform="translate(732 5443)" fill="#21232a" font-size="20" font-family="HelveticaNeue-Bold, Helvetica Neue" font-weight="700"><tspan x="27.18" y="20">Main</tspan><tspan x="10.68" y="45">Purpose</tspan></text>
    <text id="Example_Use_Case" data-name="Example
Use Case" transform="translate(713 5575)" fill="#21232a" font-size="20" font-family="HelveticaNeue-Bold, Helvetica Neue" font-weight="700"><tspan x="27.92" y="20">Example</tspan><tspan x="23.44" y="45">Use Case</tspan></text>
    <line id="Line_174" data-name="Line 174" x1="1010" transform="translate(656 5532.5)" fill="none" stroke="#707070" stroke-width="1" opacity="0.2"/>
    <text id="CSA" transform="translate(966 5364)" fill="#21232a" font-size="20" font-family="HelveticaNeue-Bold, Helvetica Neue" font-weight="700"><tspan x="36.75" y="20">CSA</tspan></text>
    <line id="Line_173" data-name="Line 173" y2="323.696" transform="translate(902.5 5346.306)" fill="none" stroke="#707070" stroke-width="1" opacity="0.2"/>
    <g id="Group_1901" data-name="Group 1901" transform="translate(-1245 72.38)">
      <circle id="Ellipse_323" data-name="Ellipse 323" cx="87.282" cy="87.282" r="87.282" transform="translate(1698.923 5344.264)" fill="#f2f2f2"/>
      <path id="Path_3887" data-name="Path 3887" d="M473.389,291.273c-1.009,0-2.028-.016-3.028-.047l.023-.727c1.436.045,2.9.057,4.346.037l.01.727Q474.065,291.273,473.389,291.273Zm5.725-.169-.043-.726c1.439-.085,2.9-.2,4.331-.354l.076.723C482.033,290.9,480.564,291.019,479.115,291.1Zm-13.126-.113c-1.451-.111-2.917-.257-4.357-.434l.089-.722c1.43.175,2.884.32,4.324.43Zm21.832-.8-.109-.719c1.429-.217,2.87-.469,4.28-.749l.142.713C490.713,289.719,489.262,289.973,487.821,290.191Zm-30.522-.266c-1.433-.243-2.88-.522-4.3-.83l.154-.711c1.409.306,2.844.583,4.267.824Zm39.108-1.441-.175-.706c1.4-.347,2.814-.731,4.194-1.14l.207.7C499.243,287.749,497.822,288.135,496.408,288.484Zm-47.664-.417c-1.406-.374-2.82-.785-4.2-1.223l.219-.693c1.374.434,2.777.842,4.172,1.213Zm56.057-2.073-.239-.687c1.361-.473,2.731-.985,4.071-1.521l.27.675c-1.35.54-2.73,1.056-4.1,1.533Zm-64.417-.57c-1.365-.5-2.739-1.043-4.083-1.609l.282-.67c1.334.562,2.7,1.1,4.051,1.6Zm72.536-2.679-.3-.662c1.307-.594,2.622-1.228,3.906-1.885l.331.648c-1.294.662-2.619,1.3-3.936,1.9ZM432.3,282.02c-1.312-.625-2.63-1.29-3.915-1.977l.343-.641c1.276.682,2.583,1.342,3.885,1.962Zm88.4-3.253-.36-.631c1.254-.716,2.506-1.468,3.72-2.236l.388.614C523.227,277.289,521.966,278.047,520.7,278.768Zm-96.137-.879c-1.248-.743-2.5-1.526-3.715-2.327l.4-.607c1.207.8,2.448,1.572,3.687,2.309Zm103.527-3.8-.416-.6c1.181-.825,2.359-1.689,3.5-2.567l.443.577c-1.152.885-2.339,1.756-3.529,2.587Zm-110.846-1.024c-1.174-.853-2.346-1.746-3.485-2.655l.454-.568c1.13.9,2.294,1.789,3.459,2.635Zm117.783-4.308-.469-.556c1.1-.929,2.2-1.9,3.256-2.876l.494.534C537.242,266.85,536.139,267.825,535.03,268.761ZM410.4,267.6c-1.093-.957-2.179-1.953-3.228-2.96l.5-.525c1.041,1,2.119,1.988,3.2,2.938Zm131.055-4.786-.518-.511c1.015-1.028,2.018-2.092,2.982-3.162l.541.486C543.49,260.709,542.479,261.781,541.456,262.816Zm-137.372-1.277c-1-1.055-1.994-2.145-2.944-3.24l.549-.477c.943,1.087,1.926,2.169,2.922,3.215Zm143.234-5.229-.562-.462c.917-1.115,1.819-2.266,2.683-3.422l.582.435C549.151,254.027,548.242,255.187,547.318,256.31ZM398.347,254.93c-.9-1.138-1.788-2.313-2.636-3.493l.59-.425c.842,1.17,1.722,2.336,2.616,3.466Zm154.218-5.635-.6-.408c.811-1.194,1.605-2.423,2.361-3.654l.62.381C554.182,246.853,553.382,248.091,552.565,249.294Zm-159.328-1.465c-.792-1.215-1.568-2.465-2.305-3.716l.626-.369c.732,1.242,1.5,2.483,2.288,3.688Zm163.915-6-.636-.352c.7-1.264,1.376-2.561,2.017-3.857l.652.322C558.54,239.245,557.856,240.552,557.152,241.825ZM388.8,240.3c-.678-1.282-1.336-2.6-1.955-3.909l.658-.31c.614,1.3,1.267,2.607,1.94,3.879Zm172.237-6.333-.666-.292c.58-1.323,1.136-2.679,1.654-4.028l.679.261C562.181,231.264,561.62,232.629,561.036,233.963Zm-175.964-1.569c-.558-1.338-1.091-2.707-1.587-4.069l.684-.249c.491,1.352,1.021,2.71,1.574,4.038Zm179.109-6.624-.69-.229c.454-1.368.882-2.765,1.273-4.155l.7.2C565.07,222.983,564.638,224.392,564.181,225.77Zm-182.1-1.594c-.433-1.386-.839-2.8-1.208-4.209l.7-.185c.366,1.4.77,2.8,1.2,4.177Zm184.467-6.835-.708-.165c.326-1.4.623-2.833.885-4.254l.715.131C567.18,214.487,566.879,215.929,566.551,217.342Zm-186.689-1.634c-.3-1.42-.578-2.868-.816-4.3l.717-.119c.236,1.424.509,2.86.81,4.269Zm188.274-6.976-.721-.1c.2-1.424.361-2.877.491-4.317l.724.065C568.5,205.833,568.333,207.3,568.136,208.732Zm-189.707-1.661c-.172-1.44-.312-2.906-.419-4.358l.725-.053c.105,1.441.245,2.9.415,4.325Zm190.5-7.058-.726-.033c.065-1.441.1-2.9.1-4.344h.727C569.025,197.089,568.992,198.561,568.927,200.013ZM377.79,198.34c-.025-.892-.037-1.8-.038-2.7q0-.839.014-1.676l.727.013q-.014.83-.014,1.663c0,.9.013,1.8.037,2.684Zm190.5-3.718c-.015-1.442-.063-2.9-.143-4.344l.726-.04c.081,1.452.129,2.924.144,4.377Zm-189.626-4.99-.726-.045c.091-1.453.216-2.921.372-4.362l.723.078C378.881,186.733,378.757,188.189,378.667,189.632Zm189.143-3.685c-.145-1.434-.326-2.884-.537-4.312l.719-.106c.212,1.438.395,2.9.541,4.345ZM379.6,180.994l-.719-.111c.223-1.439.482-2.889.77-4.311l.713.144C380.081,178.128,379.824,179.567,379.6,180.994Zm186.936-3.642c-.277-1.419-.59-2.847-.93-4.245l.707-.172c.343,1.408.658,2.847.938,4.277Zm-185.213-4.873-.705-.177c.353-1.409.744-2.829,1.163-4.222l.7.209C382.064,169.672,381.676,171.081,381.325,172.479Zm183.158-3.569c-.406-1.385-.849-2.778-1.317-4.141l.687-.236c.472,1.373.919,2.777,1.328,4.173Zm-180.654-4.764-.686-.241c.483-1.375,1.005-2.756,1.551-4.106l.674.273C384.826,161.412,384.308,162.783,383.829,164.147Zm177.83-3.453c-.531-1.338-1.1-2.682-1.689-3.993l.663-.3c.595,1.321,1.167,2.675,1.7,4.023Zm-174.566-4.619-.661-.3c.607-1.323,1.254-2.649,1.922-3.943l.646.333C388.337,153.446,387.7,154.762,387.093,156.075ZM558.1,152.789c-.651-1.284-1.341-2.57-2.05-3.824l.633-.358c.715,1.263,1.409,2.559,2.065,3.853Zm-167.015-4.447-.63-.363c.725-1.26,1.491-2.521,2.274-3.748l.613.391C392.564,145.841,391.8,147.092,391.085,148.342Zm162.742-3.1c-.768-1.223-1.573-2.442-2.392-3.623l.6-.414c.825,1.189,1.636,2.417,2.41,3.65Zm-158.061-4.227-.594-.419c.838-1.189,1.715-2.374,2.606-3.523l.575.446C397.468,138.656,396.6,139.832,395.766,141.012Zm153.114-2.906c-.876-1.148-1.789-2.289-2.713-3.392l.557-.467c.931,1.111,1.851,2.261,2.734,3.417Zm-147.786-3.963-.554-.472c.941-1.105,1.921-2.205,2.915-3.269l.532.5C403,131.954,402.028,133.045,401.094,134.142ZM543.3,131.448c-.977-1.063-1.99-2.117-3.012-3.132l.513-.516c1.029,1.023,2.05,2.085,3.034,3.156Zm-136.278-3.66-.509-.52c1.04-1.017,2.116-2.023,3.2-2.99l.484.543C409.123,125.781,408.055,126.779,407.023,127.789Zm130.116-2.465c-1.071-.971-2.176-1.929-3.285-2.847l.464-.56c1.118.925,2.232,1.89,3.31,2.868ZM413.5,122l-.459-.564c1.125-.916,2.287-1.819,3.455-2.685l.433.584c-1.159.859-2.313,1.756-3.429,2.665Zm116.939-2.221c-1.155-.87-2.344-1.723-3.533-2.537l.411-.6c1.2.819,2.4,1.679,3.56,2.556Zm-109.963-2.949-.406-.6c1.2-.81,2.443-1.6,3.684-2.358l.378.621C422.9,115.242,421.673,116.029,420.478,116.833Zm102.785-1.96c-1.229-.761-2.491-1.5-3.751-2.2l.354-.635c1.27.707,2.542,1.455,3.78,2.221Zm-95.371-2.549-.349-.638c1.274-.7,2.58-1.373,3.881-2.01l.32.653c-1.292.632-2.588,1.3-3.852,1.995Zm87.771-1.685c-1.294-.645-2.62-1.268-3.94-1.851l.294-.665c1.331.588,2.667,1.216,3.97,1.865Zm-79.981-2.125-.289-.667c1.331-.577,2.693-1.13,4.047-1.645l.258.68c-1.344.51-2.695,1.059-4.016,1.632Zm72.019-1.394c-1.347-.522-2.725-1.02-4.1-1.481l.231-.69c1.382.464,2.771.966,4.128,1.492Zm-63.907-1.686-.227-.691c1.382-.453,2.792-.88,4.191-1.268l.194.7c-1.388.385-2.787.808-4.159,1.258Zm55.659-1.081c-1.387-.4-2.8-.764-4.2-1.094l.167-.708c1.414.333,2.84.7,4.238,1.1Zm-47.288-1.242L452,102.4c1.417-.324,2.86-.619,4.29-.876l.129.716C455,102.5,453.571,102.788,452.165,103.109ZM491,102.358c-1.416-.266-2.859-.5-4.288-.7l.1-.72c1.44.2,2.894.441,4.321.708Zm-30.282-.791-.1-.721c1.44-.192,2.9-.354,4.352-.48l.063.724C463.6,101.215,462.144,101.376,460.715,101.566Zm21.679-.417c-1.433-.135-2.891-.239-4.334-.309l.036-.727c1.454.07,2.923.175,4.367.311Zm-13.023-.338-.031-.727c1.337-.056,2.7-.084,4.049-.085h.329l0,.727h-.327C472.049,100.728,470.7,100.756,469.37,100.811Z" transform="translate(1318.975 5228.647)" fill="#3f3d56"/>
      <path id="Path_3888" data-name="Path 3888" d="M304.816,194.017c-3.048,11.267-13.488,18.246-13.488,18.246s-5.5-11.29-2.45-22.557,13.488-18.246,13.488-18.246S307.864,182.75,304.816,194.017Z" transform="translate(1376.117 5183.173)" fill="#a2a2a2"/>
      <path id="Path_3889" data-name="Path 3889" d="M256.455,194.017c3.048,11.267,13.488,18.246,13.488,18.246s5.5-11.29,2.45-22.557-13.488-18.246-13.488-18.246S253.407,182.75,256.455,194.017Z" transform="translate(1396.75 5183.173)" fill="#a2a2a2"/>
      <path id="Path_3890" data-name="Path 3890" d="M233.8,211.387c8.364,8.142,9.386,20.658,9.386,20.658s-12.539-.685-20.9-8.827-9.386-20.658-9.386-20.658S225.438,203.245,233.8,211.387Z" transform="translate(1423.881 5163.381)" fill="#3f3d56"/>
      <path id="Path_3891" data-name="Path 3891" d="M305.578,211.387c-8.364,8.142-9.386,20.658-9.386,20.658s12.539-.685,20.9-8.827,9.386-20.658,9.386-20.658S313.942,203.245,305.578,211.387Z" transform="translate(1370.876 5163.381)" fill="#3f3d56"/>
      <rect id="Rectangle_621" data-name="Rectangle 621" width="232.469" height="114.269" transform="translate(1578.405 5442.583)" fill="#a2a2a2"/>
      <rect id="Rectangle_622" data-name="Rectangle 622" width="1.616" transform="translate(1616.49 5470.338)" fill="#fff"/>
      <path id="Path_3892" data-name="Path 3892" d="M337.69,487.727h-4.4V487h4.4Zm-8.8,0h-4.4V487h4.4Zm-8.8,0h-4.4V487h4.4Zm-8.8,0h-4.4V487h4.4Zm-8.8,0h-4.4V487h4.4Zm-8.8,0h-4.4V487h4.4Zm-8.8,0h-4.4V487h4.4Zm-8.8,0h-4.4V487h4.4Zm-8.8,0h-4.4V487h4.4Zm-8.8,0h-4.4V487h4.4Zm-8.8,0h-4.4V487h4.4Zm-8.8,0h-4.4V487h4.4Zm-8.8,0h-4.4V487h4.4Zm-8.8,0h-4.4V487h4.4Zm-8.8,0h-4.4V487h4.4Zm-8.8,0h-4.4V487h4.4Zm-8.8,0h-4.4V487h4.4Zm-8.8,0h-4.4V487h4.4Zm-8.8,0h-4.4V487h4.4Z" transform="translate(1448.091 4982.374)" fill="#fff"/>
      <rect id="Rectangle_623" data-name="Rectangle 623" width="1.616" transform="translate(1791.054 5470.338)" fill="#fff"/>
      <rect id="Rectangle_624" data-name="Rectangle 624" width="1.616" transform="translate(1616.49 5484.886)" fill="#fff"/>
      <path id="Path_3893" data-name="Path 3893" d="M337.69,529.727h-4.4V529h4.4Zm-8.8,0h-4.4V529h4.4Zm-8.8,0h-4.4V529h4.4Zm-8.8,0h-4.4V529h4.4Zm-8.8,0h-4.4V529h4.4Zm-8.8,0h-4.4V529h4.4Zm-8.8,0h-4.4V529h4.4Zm-8.8,0h-4.4V529h4.4Zm-8.8,0h-4.4V529h4.4Zm-8.8,0h-4.4V529h4.4Zm-8.8,0h-4.4V529h4.4Zm-8.8,0h-4.4V529h4.4Zm-8.8,0h-4.4V529h4.4Zm-8.8,0h-4.4V529h4.4Zm-8.8,0h-4.4V529h4.4Zm-8.8,0h-4.4V529h4.4Zm-8.8,0h-4.4V529h4.4Zm-8.8,0h-4.4V529h4.4Zm-8.8,0h-4.4V529h4.4Z" transform="translate(1448.091 4955.647)" fill="#fff"/>
      <rect id="Rectangle_625" data-name="Rectangle 625" width="1.616" transform="translate(1791.054 5484.886)" fill="#fff"/>
      <rect id="Rectangle_626" data-name="Rectangle 626" width="1.616" height="1.616" transform="translate(1616.49 5499.433)" fill="#fff"/>
      <path id="Path_3894" data-name="Path 3894" d="M337.69,571.727h-4.4V571h4.4Zm-8.8,0h-4.4V571h4.4Zm-8.8,0h-4.4V571h4.4Zm-8.8,0h-4.4V571h4.4Zm-8.8,0h-4.4V571h4.4Zm-8.8,0h-4.4V571h4.4Zm-8.8,0h-4.4V571h4.4Zm-8.8,0h-4.4V571h4.4Zm-8.8,0h-4.4V571h4.4Zm-8.8,0h-4.4V571h4.4Zm-8.8,0h-4.4V571h4.4Zm-8.8,0h-4.4V571h4.4Zm-8.8,0h-4.4V571h4.4Zm-8.8,0h-4.4V571h4.4Zm-8.8,0h-4.4V571h4.4Zm-8.8,0h-4.4V571h4.4Zm-8.8,0h-4.4V571h4.4Zm-8.8,0h-4.4V571h4.4Zm-8.8,0h-4.4V571h4.4Z" transform="translate(1448.091 4928.919)" fill="#fff"/>
      <rect id="Rectangle_627" data-name="Rectangle 627" width="1.616" height="1.616" transform="translate(1791.054 5499.433)" fill="#fff"/>
      <rect id="Rectangle_628" data-name="Rectangle 628" width="1.616" transform="translate(1616.49 5515.596)" fill="#fff"/>
      <path id="Path_3895" data-name="Path 3895" d="M337.69,613.727h-4.4V613h4.4Zm-8.8,0h-4.4V613h4.4Zm-8.8,0h-4.4V613h4.4Zm-8.8,0h-4.4V613h4.4Zm-8.8,0h-4.4V613h4.4Zm-8.8,0h-4.4V613h4.4Zm-8.8,0h-4.4V613h4.4Zm-8.8,0h-4.4V613h4.4Zm-8.8,0h-4.4V613h4.4Zm-8.8,0h-4.4V613h4.4Zm-8.8,0h-4.4V613h4.4Zm-8.8,0h-4.4V613h4.4Zm-8.8,0h-4.4V613h4.4Zm-8.8,0h-4.4V613h4.4Zm-8.8,0h-4.4V613h4.4Zm-8.8,0h-4.4V613h4.4Zm-8.8,0h-4.4V613h4.4Zm-8.8,0h-4.4V613h4.4Zm-8.8,0h-4.4V613h4.4Z" transform="translate(1448.091 4902.193)" fill="#fff"/>
      <rect id="Rectangle_629" data-name="Rectangle 629" width="1.616" transform="translate(1791.054 5515.596)" fill="#fff"/>
      <rect id="Rectangle_630" data-name="Rectangle 630" width="1.616" height="1.616" transform="translate(1616.49 5530.143)" fill="#fff"/>
      <path id="Path_3896" data-name="Path 3896" d="M337.69,655.727h-4.4V655h4.4Zm-8.8,0h-4.4V655h4.4Zm-8.8,0h-4.4V655h4.4Zm-8.8,0h-4.4V655h4.4Zm-8.8,0h-4.4V655h4.4Zm-8.8,0h-4.4V655h4.4Zm-8.8,0h-4.4V655h4.4Zm-8.8,0h-4.4V655h4.4Zm-8.8,0h-4.4V655h4.4Zm-8.8,0h-4.4V655h4.4Zm-8.8,0h-4.4V655h4.4Zm-8.8,0h-4.4V655h4.4Zm-8.8,0h-4.4V655h4.4Zm-8.8,0h-4.4V655h4.4Zm-8.8,0h-4.4V655h4.4Zm-8.8,0h-4.4V655h4.4Zm-8.8,0h-4.4V655h4.4Zm-8.8,0h-4.4V655h4.4Zm-8.8,0h-4.4V655h4.4Z" transform="translate(1448.091 4875.465)" fill="#fff"/>
      <rect id="Rectangle_631" data-name="Rectangle 631" width="1.616" height="1.616" transform="translate(1791.054 5530.143)" fill="#fff"/>
      <circle id="Ellipse_324" data-name="Ellipse 324" cx="4.849" cy="4.849" r="4.849" transform="translate(1611.641 5525.294)" fill="#3f3d56"/>
      <circle id="Ellipse_325" data-name="Ellipse 325" cx="4.849" cy="4.849" r="4.849" transform="translate(1645.584 5510.747)" fill="#3f3d56"/>
      <circle id="Ellipse_326" data-name="Ellipse 326" cx="4.849" cy="4.849" r="4.849" transform="translate(1681.144 5494.583)" fill="#3f3d56"/>
      <circle id="Ellipse_327" data-name="Ellipse 327" cx="4.849" cy="4.849" r="4.849" transform="translate(1716.703 5480.036)" fill="#3f3d56"/>
      <ellipse id="Ellipse_328" data-name="Ellipse 328" cx="5.657" cy="4.849" rx="5.657" ry="4.849" transform="translate(1742.564 5494.583)" fill="#3f3d56"/>
      <ellipse id="Ellipse_329" data-name="Ellipse 329" cx="4.849" cy="5.657" rx="4.849" ry="5.657" transform="translate(1770.042 5463.874)" fill="#3f3d56"/>
      <circle id="Ellipse_330" data-name="Ellipse 330" cx="3.233" cy="3.233" r="3.233" transform="translate(1597.094 5467.106)" fill="#fff"/>
      <circle id="Ellipse_331" data-name="Ellipse 331" cx="3.233" cy="3.233" r="3.233" transform="translate(1597.094 5481.653)" fill="#fff"/>
      <circle id="Ellipse_332" data-name="Ellipse 332" cx="3.233" cy="3.233" r="3.233" transform="translate(1597.094 5497.816)" fill="#fff"/>
      <circle id="Ellipse_333" data-name="Ellipse 333" cx="3.233" cy="3.233" r="3.233" transform="translate(1597.094 5512.363)" fill="#fff"/>
      <ellipse id="Ellipse_334" data-name="Ellipse 334" cx="3.233" cy="2.425" rx="3.233" ry="2.425" transform="translate(1597.094 5528.526)" fill="#fff"/>
      <path id="Path_3897" data-name="Path 3897" d="M568.727,250.455H568V185h30.182v.727H568.727Z" transform="translate(1206.546 5210.92)" fill="#3f3d56"/>
      <ellipse id="Ellipse_335" data-name="Ellipse 335" cx="9.698" cy="8.89" rx="9.698" ry="8.89" transform="translate(1781.356 5405.685)" fill="#fff"/>
      <path id="Path_3898" data-name="Path 3898" d="M619.753,321a12,12,0,1,1,12-12A12,12,0,0,1,619.753,321Zm0-23.273A11.273,11.273,0,1,0,631.026,309,11.273,11.273,0,0,0,619.753,297.727Z" transform="translate(1172.61 5103.283)" fill="#3f3d56"/>
      <path id="Path_3899" data-name="Path 3899" d="M228.727,291.909H228V181h30.182v.727H228.727Z" transform="translate(1422.909 5213.465)" fill="#3f3d56"/>
      <ellipse id="Ellipse_336" data-name="Ellipse 336" cx="9.698" cy="8.89" rx="9.698" ry="8.89" transform="translate(1658.515 5404.069)" fill="#f2f2f2"/>
      <path id="Path_3900" data-name="Path 3900" d="M279.753,317a12,12,0,1,1,12-12A12,12,0,0,1,279.753,317Zm0-23.273A11.273,11.273,0,1,0,291.025,305,11.273,11.273,0,0,0,279.753,293.727Z" transform="translate(1388.975 5105.829)" fill="#3f3d56"/>
      <path id="Path_3901" data-name="Path 3901" d="M90.682,324.409h-.727V214.227H60.5V213.5H90.682Z" transform="translate(1529.5 5192.783)" fill="#3f3d56"/>
      <circle id="Ellipse_337" data-name="Ellipse 337" cx="9.455" cy="9.455" r="9.455" transform="translate(1594 5415.01)" fill="#f2f2f2"/>
      <path id="Path_3902" data-name="Path 3902" d="M97.253,349.5a12,12,0,1,1,12-12A12,12,0,0,1,97.253,349.5Zm0-23.273A11.273,11.273,0,1,0,108.525,337.5,11.273,11.273,0,0,0,97.253,326.227Z" transform="translate(1505.111 5085.147)" fill="#3f3d56"/>
      <rect id="Rectangle_632" data-name="Rectangle 632" width="265.079" transform="translate(1568 5557.621)" fill="#3f3d56"/>
      <path id="Path_3903" data-name="Path 3903" d="M288.244,350.465H273.225a52.528,52.528,0,0,1,0-17.908h15.019A32.223,32.223,0,0,0,288.244,350.465Z" transform="translate(1385.981 5080.656)" fill="#9da5a5"/>
      <path id="Path_3904" data-name="Path 3904" d="M97.632,377.442h15.02a52.531,52.531,0,0,0,0-17.908H97.632A32.223,32.223,0,0,1,97.632,377.442Z" transform="translate(1497.234 5063.489)" fill="#a2a2a2"/>
      <path id="Path_3905" data-name="Path 3905" d="M617.632,347.442h15.019a52.525,52.525,0,0,0,0-17.908H617.632a32.223,32.223,0,0,1,0,17.908Z" transform="translate(1166.324 5082.579)" fill="#a2a2a2"/>
    </g>
  </g>
</svg>
