<svg xmlns="http://www.w3.org/2000/svg" width="1326" height="381.054" viewBox="0 0 1326 381.054">
  <g id="Group_2659" data-name="Group 2659" transform="translate(-277 -3094.474)">
    <g id="Group_516" data-name="Group 516" transform="translate(4 2213)">
      <text id="Main_Purpose" data-name="Main
Purpose" transform="translate(680 998)" fill="#21232a" font-size="20" font-family="HelveticaNeue-Bold, Helvetica Neue" font-weight="700"><tspan x="21.18" y="20">Main</tspan><tspan x="4.68" y="45">Purpose</tspan></text>
      <text id="Example_Use_Case" data-name="Example
Use Case" transform="translate(673 1135)" fill="#21232a" font-size="20" font-family="HelveticaNeue-Bold, Helvetica Neue" font-weight="700"><tspan x="10.42" y="20">Example</tspan><tspan x="5.94" y="45">Use Case</tspan></text>
      <line id="Line_158" data-name="Line 158" y2="381.054" transform="translate(791.5 881.474)" fill="none" stroke="#707070" stroke-width="1" opacity="0.2"/>
      <line id="Line_159" data-name="Line 159" x1="601.5" transform="translate(655 1083.5)" fill="none" stroke="#707070" stroke-width="1" opacity="0.2"/>
      <text id="To_view_pending_meter_change_requests_and_assign_to_field_agents" data-name="To view pending meter change requests and assign to field agents" transform="translate(832 998)" fill="#707070" font-size="14" font-family="HelveticaNeue, Helvetica Neue"><tspan x="1.842" y="13">To view pending meter </tspan><tspan x="6.756" y="28">change requests and </tspan><tspan x="5.993" y="43">assign to field agents</tspan></text>
      <text id="To_view_and_acknowledge_meter_changes" data-name="To view and acknowledge meter changes" transform="translate(1052 998)" fill="#707070" font-size="14" font-family="HelveticaNeue, Helvetica Neue"><tspan x="40.928" y="13">To view and </tspan><tspan x="16.421" y="28">acknowledge meter </tspan><tspan x="51.421" y="43">changes</tspan></text>
      <text id="Contacting_the_agent_who_worked_on_a_particular_meter_assignment" data-name="Contacting the agent who worked on a particular meter assignment" transform="translate(832 1135)" fill="#707070" font-size="14" font-family="HelveticaNeue, Helvetica Neue"><tspan x="6.763" y="13">Contacting the agent </tspan><tspan x="18.579" y="28">who worked on a </tspan><tspan x="23.234" y="43">particular meter </tspan><tspan x="36.45" y="58">assignment</tspan></text>
      <text id="Checking_the_number_of_pending_meter_assignments" data-name="Checking the number of pending meter assignments" transform="translate(1061 1135)" fill="#707070" font-size="14" font-family="HelveticaNeue, Helvetica Neue"><tspan x="2.195" y="13">Checking the number </tspan><tspan x="16.076" y="28">of pending meter </tspan><tspan x="29.95" y="43">assignments</tspan></text>
      <line id="Line_157" data-name="Line 157" y2="381.054" transform="translate(1016.5 881.474)" fill="none" stroke="#707070" stroke-width="1" opacity="0.2"/>
      <text id="State_In-charge" data-name="State In-charge" transform="translate(1038 908)" fill="#21232a" font-size="20" font-family="HelveticaNeue-Bold, Helvetica Neue" font-weight="700"><tspan x="18.39" y="20">State In-charge</tspan></text>
      <text id="Cluster_In-charge" data-name="Cluster In-charge" transform="translate(812 908)" fill="#21232a" font-size="20" font-family="HelveticaNeue-Bold, Helvetica Neue" font-weight="700"><tspan x="8.96" y="20">Cluster In-charge</tspan></text>
    </g>
    <g id="Group_1992" data-name="Group 1992" transform="translate(276.92 3071.89)">
      <g id="Group_1953" data-name="Group 1953" transform="translate(62.08 50.11)">
        <g id="Group_1937" data-name="Group 1937" transform="translate(120.104 0)">
          <g id="Group_1936" data-name="Group 1936">
            <path id="Path_4064" data-name="Path 4064" d="M207.23,50.11" transform="translate(-207.23 -50.11)" fill="#f5f5f5"/>
          </g>
        </g>
        <g id="Group_1952" data-name="Group 1952">
          <g id="Group_1938" data-name="Group 1938" transform="translate(0 50.46)">
            <rect id="Rectangle_681" data-name="Rectangle 681" width="27.548" height="54.607" fill="#f5f5f5"/>
          </g>
          <g id="Group_1939" data-name="Group 1939" transform="translate(28.608 50.46)">
            <rect id="Rectangle_682" data-name="Rectangle 682" width="29.766" height="54.607" fill="#f5f5f5"/>
          </g>
          <g id="Group_1940" data-name="Group 1940" transform="translate(28.608 108.882)">
            <rect id="Rectangle_683" data-name="Rectangle 683" width="29.766" height="52.762" fill="#f5f5f5"/>
          </g>
          <g id="Group_1941" data-name="Group 1941" transform="translate(62.188)">
            <path id="Path_4065" data-name="Path 4065" d="M137.236,99.625h31.346V51.184h1.059V99.625h25.51V50.11H137.236Z" transform="translate(-137.236 -50.11)" fill="#f5f5f5"/>
          </g>
          <g id="Group_1942" data-name="Group 1942" transform="translate(94.594 50.46)">
            <rect id="Rectangle_684" data-name="Rectangle 684" width="25.51" height="54.607" fill="#f5f5f5"/>
          </g>
          <g id="Group_1943" data-name="Group 1943" transform="translate(94.594 108.882)">
            <rect id="Rectangle_685" data-name="Rectangle 685" width="25.51" height="52.762" fill="#f5f5f5"/>
          </g>
          <g id="Group_1944" data-name="Group 1944" transform="translate(0 108.882)">
            <rect id="Rectangle_686" data-name="Rectangle 686" width="27.548" height="52.762" fill="#f5f5f5"/>
          </g>
          <g id="Group_1945" data-name="Group 1945" transform="translate(62.188 108.882)">
            <rect id="Rectangle_687" data-name="Rectangle 687" width="31.346" height="52.762" fill="#f5f5f5"/>
          </g>
          <g id="Group_1946" data-name="Group 1946" transform="translate(0 162.588)">
            <rect id="Rectangle_688" data-name="Rectangle 688" width="27.548" height="47.545" fill="#f5f5f5"/>
          </g>
          <g id="Group_1947" data-name="Group 1947" transform="translate(94.594 162.588)">
            <rect id="Rectangle_689" data-name="Rectangle 689" width="25.51" height="47.545" fill="#f5f5f5"/>
          </g>
          <g id="Group_1948" data-name="Group 1948">
            <path id="Path_4066" data-name="Path 4066" d="M89.629,99.625V51.184h1.059V99.625h29.766V50.11H62.08V99.625Z" transform="translate(-62.08 -50.11)" fill="#f5f5f5"/>
          </g>
          <g id="Group_1949" data-name="Group 1949" transform="translate(62.188 162.588)">
            <rect id="Rectangle_690" data-name="Rectangle 690" width="31.346" height="47.545" fill="#f5f5f5"/>
          </g>
          <g id="Group_1950" data-name="Group 1950" transform="translate(28.608 162.588)">
            <rect id="Rectangle_691" data-name="Rectangle 691" width="29.766" height="47.545" fill="#f5f5f5"/>
          </g>
          <g id="Group_1951" data-name="Group 1951" transform="translate(62.188 50.46)">
            <rect id="Rectangle_692" data-name="Rectangle 692" width="31.346" height="54.607" fill="#f5f5f5"/>
          </g>
        </g>
      </g>
    </g>
    <g id="Group_2579" data-name="Group 2579" transform="translate(412.92 2770.89)">
      <g id="Group_1953-2" data-name="Group 1953" transform="translate(1051.08 368.11)">
        <g id="Group_1937-2" data-name="Group 1937" transform="translate(120.104 0)">
          <g id="Group_1936-2" data-name="Group 1936">
            <path id="Path_4064-2" data-name="Path 4064" d="M207.23,50.11" transform="translate(-207.23 -50.11)" fill="#f5f5f5"/>
          </g>
        </g>
        <g id="Group_1952-2" data-name="Group 1952">
          <g id="Group_1938-2" data-name="Group 1938" transform="translate(0 50.46)">
            <rect id="Rectangle_681-2" data-name="Rectangle 681" width="27.548" height="54.607" fill="#f5f5f5"/>
          </g>
          <g id="Group_1939-2" data-name="Group 1939" transform="translate(28.608 50.46)">
            <rect id="Rectangle_682-2" data-name="Rectangle 682" width="29.766" height="54.607" fill="#f5f5f5"/>
          </g>
          <g id="Group_1940-2" data-name="Group 1940" transform="translate(28.608 108.882)">
            <rect id="Rectangle_683-2" data-name="Rectangle 683" width="29.766" height="52.762" fill="#f5f5f5"/>
          </g>
          <g id="Group_1941-2" data-name="Group 1941" transform="translate(62.188)">
            <path id="Path_4065-2" data-name="Path 4065" d="M137.236,99.625h31.346V51.184h1.059V99.625h25.51V50.11H137.236Z" transform="translate(-137.236 -50.11)" fill="#f5f5f5"/>
          </g>
          <g id="Group_1942-2" data-name="Group 1942" transform="translate(94.594 50.46)">
            <rect id="Rectangle_684-2" data-name="Rectangle 684" width="25.51" height="54.607" fill="#f5f5f5"/>
          </g>
          <g id="Group_1943-2" data-name="Group 1943" transform="translate(94.594 108.882)">
            <rect id="Rectangle_685-2" data-name="Rectangle 685" width="25.51" height="52.762" fill="#f5f5f5"/>
          </g>
          <g id="Group_1944-2" data-name="Group 1944" transform="translate(0 108.882)">
            <rect id="Rectangle_686-2" data-name="Rectangle 686" width="27.548" height="52.762" fill="#f5f5f5"/>
          </g>
          <g id="Group_1945-2" data-name="Group 1945" transform="translate(62.188 108.882)">
            <rect id="Rectangle_687-2" data-name="Rectangle 687" width="31.346" height="52.762" fill="#f5f5f5"/>
          </g>
          <g id="Group_1946-2" data-name="Group 1946" transform="translate(0 162.588)">
            <rect id="Rectangle_688-2" data-name="Rectangle 688" width="27.548" height="47.545" fill="#f5f5f5"/>
          </g>
          <g id="Group_1947-2" data-name="Group 1947" transform="translate(94.594 162.588)">
            <rect id="Rectangle_689-2" data-name="Rectangle 689" width="25.51" height="47.545" fill="#f5f5f5"/>
          </g>
          <g id="Group_1948-2" data-name="Group 1948">
            <path id="Path_4066-2" data-name="Path 4066" d="M89.629,99.625V51.184h1.059V99.625h29.766V50.11H62.08V99.625Z" transform="translate(-62.08 -50.11)" fill="#f5f5f5"/>
          </g>
          <g id="Group_1949-2" data-name="Group 1949" transform="translate(62.188 162.588)">
            <rect id="Rectangle_690-2" data-name="Rectangle 690" width="31.346" height="47.545" fill="#f5f5f5"/>
          </g>
          <g id="Group_1950-2" data-name="Group 1950" transform="translate(28.608 162.588)">
            <rect id="Rectangle_691-2" data-name="Rectangle 691" width="29.766" height="47.545" fill="#f5f5f5"/>
          </g>
          <g id="Group_1951-2" data-name="Group 1951" transform="translate(62.188 50.46)">
            <rect id="Rectangle_692-2" data-name="Rectangle 692" width="31.346" height="54.607" fill="#f5f5f5"/>
          </g>
        </g>
      </g>
    </g>
    <g id="Group_2033" data-name="Group 2033" transform="translate(803.206 3078.744)">
      <g id="Group_1996" data-name="Group 1996" transform="translate(593.166 149.607)">
        <g id="Group_1993" data-name="Group 1993">
          <rect id="Rectangle_693" data-name="Rectangle 693" width="41.479" height="27.271" transform="translate(41.479 27.271) rotate(180)" fill="#e0e0e0"/>
        </g>
        <g id="Group_1994" data-name="Group 1994" transform="translate(1.464 1.219)">
          <rect id="Rectangle_694" data-name="Rectangle 694" width="38.572" height="24.936" transform="translate(38.572 24.936) rotate(180)" fill="#fafafa"/>
        </g>
        <g id="Group_1995" data-name="Group 1995" transform="translate(14.458 10.204)">
          <rect id="Rectangle_695" data-name="Rectangle 695" width="12.583" height="6.862" transform="translate(12.583 6.862) rotate(180)" fill="#e0e0e0"/>
        </g>
      </g>
      <g id="Group_2012" data-name="Group 2012" transform="translate(489.614 230.592)">
        <g id="Group_2001" data-name="Group 2001" transform="translate(19.176)">
          <g id="Group_1999" data-name="Group 1999">
            <g id="Group_1997" data-name="Group 1997" transform="translate(15.785 30.149)">
              <rect id="Rectangle_696" data-name="Rectangle 696" width="46.08" height="2.241" fill="#ebebeb"/>
            </g>
            <g id="Group_1998" data-name="Group 1998">
              <path id="Path_4082" data-name="Path 4082" d="M522.621,313.812l-8.643-32.391h35.98l7.827,32.391Z" transform="translate(-513.977 -281.422)" fill="#ebebeb"/>
            </g>
          </g>
          <g id="Group_2000" data-name="Group 2000" transform="translate(2.026 1.497)">
            <path id="Path_4083" data-name="Path 4083" d="M556.176,311.765H524.033l-7.482-28.442H548.86Z" transform="translate(-516.552 -283.323)" fill="#e0e0e0"/>
          </g>
        </g>
        <g id="Group_2011" data-name="Group 2011" transform="translate(0 32.571)">
          <g id="Group_2004" data-name="Group 2004" transform="translate(10.046 6.455)">
            <g id="Group_2002" data-name="Group 2002">
              <rect id="Rectangle_697" data-name="Rectangle 697" width="2.327" height="111.108" fill="#f5f5f5"/>
            </g>
            <g id="Group_2003" data-name="Group 2003" transform="translate(2.327 0.319)">
              <rect id="Rectangle_698" data-name="Rectangle 698" width="2.327" height="110.789" fill="#ebebeb"/>
            </g>
          </g>
          <g id="Group_2007" data-name="Group 2007" transform="translate(153.419 6.455)">
            <g id="Group_2005" data-name="Group 2005">
              <rect id="Rectangle_699" data-name="Rectangle 699" width="2.327" height="111.108" fill="#ebebeb"/>
            </g>
            <g id="Group_2006" data-name="Group 2006" transform="translate(2.327 0.319)">
              <rect id="Rectangle_700" data-name="Rectangle 700" width="2.327" height="110.789" fill="#e0e0e0"/>
            </g>
          </g>
          <g id="Group_2008" data-name="Group 2008">
            <rect id="Rectangle_701" data-name="Rectangle 701" width="176.768" height="9.113" fill="#e0e0e0"/>
          </g>
          <g id="Group_2009" data-name="Group 2009" transform="translate(76.764 9.113)">
            <rect id="Rectangle_702" data-name="Rectangle 702" width="77.818" height="15.084" fill="#ebebeb"/>
          </g>
          <g id="Group_2010" data-name="Group 2010" transform="translate(115.673 13.879)">
            <path id="Path_4084" data-name="Path 4084" d="M640.049,342.172a1.734,1.734,0,1,1-1.734-1.734A1.734,1.734,0,0,1,640.049,342.172Z" transform="translate(-636.58 -340.438)" fill="#e0e0e0"/>
          </g>
        </g>
      </g>
      <g id="Group_2023" data-name="Group 2023" transform="translate(562.3 237.582)">
        <g id="Group_2022" data-name="Group 2022" transform="translate(0)">
          <g id="Group_2013" data-name="Group 2013" transform="translate(0.561 59.62)">
            <path id="Path_4085" data-name="Path 4085" d="M617.136,385.925H586.57a3.894,3.894,0,0,1-3.894-3.894v-9.417a6.562,6.562,0,0,1,6.562-6.563h28.128Z" transform="translate(-582.676 -366.051)" fill="#ebebeb"/>
          </g>
          <g id="Group_2020" data-name="Group 2020">
            <g id="Group_2019" data-name="Group 2019">
              <g id="Group_2014" data-name="Group 2014" transform="translate(2.005 79.495)">
                <path id="Path_4086" data-name="Path 4086" d="M587.473,397.225h60.1a2.961,2.961,0,0,0,2.961-2.961h0a2.961,2.961,0,0,0-2.961-2.962h-60.1a2.962,2.962,0,0,0-2.962,2.962h0A2.962,2.962,0,0,0,587.473,397.225Z" transform="translate(-584.511 -391.302)" fill="#ebebeb"/>
              </g>
              <g id="Group_2015" data-name="Group 2015" transform="translate(23.264)">
                <path id="Path_4087" data-name="Path 4087" d="M665.574,290.887,632.51,290.3l-20.989,79.321,44.766.449,16.873-69.538A7.807,7.807,0,0,0,665.574,290.887Z" transform="translate(-611.521 -290.302)" fill="#e0e0e0"/>
              </g>
              <g id="Group_2016" data-name="Group 2016" transform="translate(55.024 85.417)">
                <path id="Path_4088" data-name="Path 4088" d="M657.7,398.827l9.893,57.494h-2.71l-13.007-57.494Z" transform="translate(-651.872 -398.827)" fill="#ebebeb"/>
              </g>
              <g id="Group_2017" data-name="Group 2017" transform="translate(31.7 85.417)">
                <path id="Path_4089" data-name="Path 4089" d="M628.063,398.827l10.513,57.494h-2.71l-13.627-57.494Z" transform="translate(-622.239 -398.827)" fill="#e0e0e0"/>
              </g>
              <g id="Group_2018" data-name="Group 2018" transform="translate(0 85.417)">
                <path id="Path_4090" data-name="Path 4090" d="M593.692,398.827l-11.729,57.494h2.71l14.843-57.494Z" transform="translate(-581.963 -398.827)" fill="#ebebeb"/>
              </g>
            </g>
          </g>
          <g id="Group_2021" data-name="Group 2021" transform="translate(19.126)">
            <path id="Path_4091" data-name="Path 4091" d="M635.175,290.3l-16.363,79.406H606.263l13.121-70.163A11.3,11.3,0,0,1,630.5,290.3Z" transform="translate(-606.263 -290.302)" fill="#ebebeb"/>
          </g>
        </g>
      </g>
      <g id="Group_2032" data-name="Group 2032" transform="translate(515.809 42.701)">
        <g id="Group_2024" data-name="Group 2024" transform="translate(30.971)">
          <path id="Path_4092" data-name="Path 4092" d="M566.159,48.624A9.885,9.885,0,0,1,568,46.743l-.438-2.4,3.713-1.584,1.429,1.977a9.88,9.88,0,0,1,2.632-.029l1.387-2.006,3.745,1.5-.386,2.408a9.882,9.882,0,0,1,1.88,1.842l2.4-.438,1.584,3.712-1.977,1.43A9.876,9.876,0,0,1,584,55.791L586,57.178l-1.5,3.746-2.408-.387a9.883,9.883,0,0,1-1.842,1.88l.438,2.4L576.974,66.4l-1.43-1.977a9.9,9.9,0,0,1-2.63.029l-1.387,2.006-3.746-1.5.386-2.408a9.853,9.853,0,0,1-1.88-1.842l-2.4.438L562.3,57.43,564.281,56a9.874,9.874,0,0,1-.028-2.631l-2.006-1.387,1.5-3.746,2.408.387Zm4.016,4.172a4.33,4.33,0,1,0,5.632-2.4A4.33,4.33,0,0,0,570.175,52.8Z" transform="translate(-562.246 -42.701)" fill="#f5f5f5" fill-rule="evenodd"/>
        </g>
        <g id="Group_2025" data-name="Group 2025" transform="translate(47.205 10.441)">
          <path id="Path_4093" data-name="Path 4093" d="M596.6,76.744a34.67,34.67,0,0,1,6.459-6.595l-1.537-8.421,13.025-5.558,5.016,6.935a34.693,34.693,0,0,1,9.232-.1l4.865-7.038,13.139,5.28-1.357,8.446a34.683,34.683,0,0,1,6.6,6.461l8.42-1.537,5.557,13.025-6.935,5.016a34.718,34.718,0,0,1,.1,9.231l7.038,4.866-5.279,13.139-8.448-1.356a34.7,34.7,0,0,1-6.46,6.595l1.537,8.42-13.025,5.558-5.017-6.936a34.714,34.714,0,0,1-9.23.1l-4.866,7.038-13.139-5.28,1.357-8.447a34.654,34.654,0,0,1-6.6-6.46l-8.42,1.537-5.558-13.025,6.936-5.017a34.712,34.712,0,0,1-.1-9.23l-7.038-4.866,5.279-13.139,8.448,1.357Zm14.09,14.635a15.191,15.191,0,1,0,19.76-8.432A15.191,15.191,0,0,0,610.689,91.379Z" transform="translate(-582.871 -55.966)" fill="#ebebeb" fill-rule="evenodd"/>
        </g>
        <g id="Group_2031" data-name="Group 2031" transform="translate(0 46.186)">
          <g id="Group_2026" data-name="Group 2026" transform="translate(0.134 0.201)">
            <path id="Path_4094" data-name="Path 4094" d="M529.823,111.865a17.075,17.075,0,0,1,3.18-3.246l-.757-4.146,6.411-2.736,2.469,3.414a17.077,17.077,0,0,1,4.545-.05l2.394-3.464,6.468,2.6-.668,4.157a17.063,17.063,0,0,1,3.247,3.181l4.145-.756,2.736,6.411-3.414,2.469a17.04,17.04,0,0,1,.05,4.544l3.465,2.4-2.6,6.468-4.158-.668a17.084,17.084,0,0,1-3.181,3.247l.757,4.145-6.411,2.736-2.469-3.414a17.039,17.039,0,0,1-4.544.05l-2.4,3.465-6.468-2.6.668-4.157a17.085,17.085,0,0,1-3.247-3.181l-4.145.757-2.736-6.412,3.414-2.47a17.066,17.066,0,0,1-.05-4.543l-3.465-2.4,2.6-6.468,4.159.668Zm6.936,7.2a7.478,7.478,0,1,0,9.727-4.151A7.478,7.478,0,0,0,536.759,119.069Z" transform="translate(-523.066 -101.638)" fill="#e0e0e0"/>
          </g>
          <g id="Group_2028" data-name="Group 2028" transform="translate(13.189 12.778)">
            <g id="Group_2027" data-name="Group 2027">
              <path id="Path_4095" data-name="Path 4095" d="M540.29,122.472a5.652,5.652,0,0,1,.83-1.656,7.447,7.447,0,0,1,4.086-2.9,7.533,7.533,0,0,1,3.515-.156,7.652,7.652,0,0,1,3.621,1.79,7.663,7.663,0,0,1,2.325,3.806,7.633,7.633,0,0,1-3.388,8.434,7.674,7.674,0,0,1-4.313,1.139,7.651,7.651,0,0,1-3.853-1.213,7.534,7.534,0,0,1-2.43-2.545,7.444,7.444,0,0,1-.941-4.923,5.657,5.657,0,0,1,.546-1.77c.05.017-.234.624-.381,1.792a7.453,7.453,0,0,0,1.035,4.746,7.308,7.308,0,0,0,6.036,3.519,7.311,7.311,0,0,0,4.079-1.1,7.246,7.246,0,0,0,3.2-7.971,7.3,7.3,0,0,0-2.182-3.616,7.3,7.3,0,0,0-6.792-1.636,7.456,7.456,0,0,0-4.032,2.711C540.554,121.859,540.338,122.494,540.29,122.472Z" transform="translate(-539.653 -117.616)" fill="#e0e0e0"/>
            </g>
          </g>
          <g id="Group_2030" data-name="Group 2030">
            <g id="Group_2029" data-name="Group 2029">
              <path id="Path_4096" data-name="Path 4096" d="M529.787,111.811a1.6,1.6,0,0,1-.261-.026l-.79-.11-3.118-.464.074-.042-2.561,6.483-.039-.13,3.474,2.38.063.043-.009.076a17.049,17.049,0,0,0,.065,4.508l.013.084-.069.05-3.407,2.478.051-.183c.866,2.017,1.785,4.157,2.75,6.4l-.185-.1,4.143-.765.1-.02.067.085a16.982,16.982,0,0,0,3.217,3.14l.09.067-.017.111c-.205,1.289-.431,2.711-.662,4.159l-.117-.208,6.471,2.591-.238.072,2.391-3.467.07-.1.123.016a16.969,16.969,0,0,0,4.489-.053l.124-.019.074.1,2.471,3.413-.253-.07,6.41-2.739-.126.235c-.239-1.31-.5-2.722-.757-4.145l-.024-.128.1-.079a16.928,16.928,0,0,0,3.137-3.2l0,0,.079-.1.127.02,4.158.668-.233.131,2.6-6.467.076.253-3.463-2.4-.105-.072.016-.126a16.857,16.857,0,0,0-.046-4.489l-.017-.124.1-.073,3.416-2.467-.068.246-2.73-6.414.217.116-4.146.752-.115.021-.072-.092a16.9,16.9,0,0,0-3.206-3.15l-.09-.068.018-.11.675-4.157.109.194-6.463-2.612.2-.059-2.4,3.458-.053.077-.093-.012a17.009,17.009,0,0,0-4.5.037l-.085.012-.05-.068-2.457-3.422.152.043-6.423,2.707.057-.105c.292,1.658.531,3.018.73,4.15l.008.041-.033.026a17.669,17.669,0,0,0-2.492,2.334c-.234.278-.415.49-.547.645a1.725,1.725,0,0,1-.183.212,2.068,2.068,0,0,1,.156-.235c.11-.15.279-.377.521-.668a16.544,16.544,0,0,1,2.46-2.4l-.025.067-.784-4.14-.014-.075.072-.031,6.4-2.764.093-.04.06.083,2.48,3.406-.134-.057a17.214,17.214,0,0,1,4.582-.064l-.145.065,2.386-3.47.074-.108.122.049,6.473,2.586.132.053-.023.141-.66,4.159-.072-.178a17.265,17.265,0,0,1,3.287,3.21l-.186-.071,4.144-.762.155-.028.061.146,2.743,6.408.064.15-.132.1-3.412,2.472.083-.2a17.286,17.286,0,0,1,.054,4.6l-.09-.2,3.466,2.393.14.1-.064.157-2.6,6.468-.064.159-.169-.028-4.157-.667.205-.083,0,0a17.265,17.265,0,0,1-3.218,3.283l.079-.207c.26,1.423.518,2.836.756,4.145l.031.168-.157.067-6.412,2.733-.155.066-.1-.136-2.467-3.415.2.083a17.352,17.352,0,0,1-4.6.046l.193-.086-2.4,3.462-.091.131-.148-.059-6.464-2.607-.142-.057.025-.15c.235-1.447.465-2.868.674-4.157l.072.177a17.289,17.289,0,0,1-3.275-3.219l.171.065-4.145.749-.133.024-.053-.124c-.955-2.252-1.865-4.4-2.721-6.418l-.048-.113.1-.071,3.421-2.46-.057.134a17.234,17.234,0,0,1-.035-4.579l.054.119-3.455-2.408-.072-.05.033-.079c1.073-2.628,1.961-4.8,2.636-6.453l.021-.051.053.009,3.079.53.795.145A2.167,2.167,0,0,1,529.787,111.811Z" transform="translate(-522.896 -101.382)" fill="#e0e0e0"/>
            </g>
          </g>
        </g>
      </g>
    </g>
    <g id="Group_2255" data-name="Group 2255" transform="translate(186.856 3087.049)">
      <g id="Group_2037" data-name="Group 2037" transform="translate(285.123 263.116)">
        <g id="Group_2034" data-name="Group 2034" transform="translate(39.862 0)">
          <rect id="Rectangle_703" data-name="Rectangle 703" width="5.915" height="108.402" fill="#263238"/>
        </g>
        <g id="Group_2035" data-name="Group 2035" transform="translate(0 68.714)">
          <path id="Path_4097" data-name="Path 4097" d="M317.118,458.366l41.27-39.688,2.958,2.644L322.9,458.366Z" transform="translate(-317.118 -418.678)" fill="#263238"/>
        </g>
        <g id="Group_2036" data-name="Group 2036" transform="translate(41.295 68.714)">
          <path id="Path_4098" data-name="Path 4098" d="M416.914,458.279l-41.179-39.6-2.958,2.644,38.444,37.043Z" transform="translate(-372.777 -418.678)" fill="#263238"/>
        </g>
      </g>
      <g id="Group_2041" data-name="Group 2041" transform="translate(195.344 87.187)">
        <g id="Group_2038" data-name="Group 2038" transform="translate(0.193 0.193)">
          <rect id="Rectangle_704" data-name="Rectangle 704" width="266.392" height="194.174" fill="#fff"/>
        </g>
        <g id="Group_2040" data-name="Group 2040" transform="translate(0 0)">
          <g id="Group_2039" data-name="Group 2039">
            <path id="Path_4099" data-name="Path 4099" d="M462.7,283.305c0-1.3-.062-76.442-.157-194.174l.157.157-266.37.036H196.3l.193-.193c-.006,69.65-.013,135.685-.018,194.174l-.175-.175,266.393.175L196.3,283.48h-.175v-.175c-.005-58.488-.012-124.523-.018-194.174v-.194h.215l266.37.036h.157v.158C462.757,206.863,462.7,282.008,462.7,283.305Z" transform="translate(-196.11 -88.938)" fill="#263238"/>
          </g>
        </g>
      </g>
      <g id="Group_2045" data-name="Group 2045" transform="translate(227.321 107.006)">
        <g id="Group_2042" data-name="Group 2042">
          <path id="Path_4100" data-name="Path 4100" d="M241.461,116.31h-2.252v-.586h5.183v.586H242.14v5.825h-.678Z" transform="translate(-239.209 -115.669)" fill="#263238"/>
          <path id="Path_4101" data-name="Path 4101" d="M246.767,118.911a3.367,3.367,0,1,1,3.371,3.26A3.227,3.227,0,0,1,246.767,118.911Zm6.054,0a2.693,2.693,0,1,0-2.684,2.655A2.6,2.6,0,0,0,252.821,118.911Z" transform="translate(-241.16 -115.65)" fill="#263238"/>
          <path id="Path_4102" data-name="Path 4102" d="M261.131,115.724h2.61a3.213,3.213,0,1,1,0,6.411h-2.61Zm2.574,5.825a2.625,2.625,0,1,0,0-5.239h-1.9v5.239Z" transform="translate(-244.866 -115.669)" fill="#263238"/>
          <path id="Path_4103" data-name="Path 4103" d="M270.568,118.911a3.367,3.367,0,1,1,3.37,3.26A3.226,3.226,0,0,1,270.568,118.911Zm6.054,0a2.693,2.693,0,1,0-2.684,2.655A2.6,2.6,0,0,0,276.622,118.911Z" transform="translate(-247.302 -115.65)" fill="#263238"/>
        </g>
        <g id="Group_2043" data-name="Group 2043" transform="translate(86.762)">
          <path id="Path_4104" data-name="Path 4104" d="M365.657,115.724l-2.162,6.411h-.714l-1.878-5.468-1.887,5.468h-.7l-2.161-6.411h.7l1.851,5.513,1.914-5.513h.631l1.887,5.541,1.877-5.541Z" transform="translate(-356.151 -115.669)" fill="#263238"/>
          <path id="Path_4105" data-name="Path 4105" d="M369.8,118.911a3.368,3.368,0,1,1,3.371,3.26A3.227,3.227,0,0,1,369.8,118.911Zm6.055,0a2.693,2.693,0,1,0-2.684,2.655A2.6,2.6,0,0,0,375.853,118.911Z" transform="translate(-359.673 -115.65)" fill="#263238"/>
          <path id="Path_4106" data-name="Path 4106" d="M385.3,122.135l-1.465-2.06a4.691,4.691,0,0,1-.513.027H381.6v2.033h-.677v-6.411h2.4c1.63,0,2.619.824,2.619,2.2a1.986,1.986,0,0,1-1.465,2.014l1.566,2.2Zm-.036-4.213c0-1.026-.678-1.612-1.96-1.612h-1.7v3.215h1.7C384.59,119.525,385.268,118.93,385.268,117.922Z" transform="translate(-362.545 -115.669)" fill="#263238"/>
          <path id="Path_4107" data-name="Path 4107" d="M391.844,119.121l-1.31,1.329v1.685h-.677v-6.411h.677V119.6l3.765-3.874h.778l-2.775,2.9,2.968,3.508h-.806Z" transform="translate(-364.849 -115.669)" fill="#263238"/>
        </g>
        <g id="Group_2044" data-name="Group 2044" transform="translate(167.605)">
          <path id="Path_4108" data-name="Path 4108" d="M465.114,115.724h2.61a3.213,3.213,0,1,1,0,6.411h-2.61Zm2.574,5.825a2.625,2.625,0,1,0,0-5.239h-1.9v5.239Z" transform="translate(-465.114 -115.669)" fill="#263238"/>
          <path id="Path_4109" data-name="Path 4109" d="M474.55,118.911a3.368,3.368,0,1,1,3.371,3.26A3.227,3.227,0,0,1,474.55,118.911Zm6.055,0a2.693,2.693,0,1,0-2.684,2.655A2.6,2.6,0,0,0,480.6,118.911Z" transform="translate(-467.549 -115.65)" fill="#263238"/>
          <path id="Path_4110" data-name="Path 4110" d="M491.036,115.724v6.411h-.559l-4.122-5.2v5.2h-.677v-6.411h.559l4.131,5.2v-5.2Z" transform="translate(-470.421 -115.669)" fill="#263238"/>
          <path id="Path_4111" data-name="Path 4111" d="M500.253,121.549v.586h-4.534v-6.411h4.4v.586H496.4v2.281h3.316v.576H496.4v2.382Z" transform="translate(-473.012 -115.669)" fill="#263238"/>
        </g>
      </g>
      <g id="Group_2047" data-name="Group 2047" transform="translate(211.107 131.214)">
        <g id="Group_2046" data-name="Group 2046">
          <path id="Path_4112" data-name="Path 4112" d="M458.177,148.472c0,.107-53.914.193-120.4.193-66.514,0-120.417-.086-120.417-.193s53.9-.193,120.417-.193C404.263,148.279,458.177,148.365,458.177,148.472Z" transform="translate(-217.356 -148.279)" fill="#263238"/>
        </g>
      </g>
      <g id="Group_2049" data-name="Group 2049" transform="translate(285.58 95.295)">
        <g id="Group_2048" data-name="Group 2048" transform="translate(0)">
          <path id="Path_4113" data-name="Path 4113" d="M317.928,286.126c-.107,0-.194-41.7-.194-93.125,0-51.444.087-93.135.194-93.135s.193,41.69.193,93.135C318.121,244.426,318.034,286.126,317.928,286.126Z" transform="translate(-317.734 -99.866)" fill="#263238"/>
        </g>
      </g>
      <g id="Group_2051" data-name="Group 2051" transform="translate(373.945 95.295)">
        <g id="Group_2050" data-name="Group 2050" transform="translate(0)">
          <path id="Path_4114" data-name="Path 4114" d="M437.029,286.126c-.106,0-.193-41.7-.193-93.125,0-51.444.087-93.135.193-93.135s.194,41.69.194,93.135C437.223,244.426,437.136,286.126,437.029,286.126Z" transform="translate(-436.836 -99.866)" fill="#263238"/>
        </g>
      </g>
      <g id="Group_2052" data-name="Group 2052" transform="translate(241.27 138.741)">
        <path id="Path_4115" data-name="Path 4115" d="M258.7,158.424s-1.858,16.979.53,26.276l22.687-.992s-4.862-16.749-1.876-24.169Z" transform="translate(-258.011 -158.424)" fill="#e0e0e0"/>
      </g>
      <g id="Group_2053" data-name="Group 2053" transform="translate(211.298 148.087)">
        <path id="Path_4116" data-name="Path 4116" d="M218.3,171.021s-1.858,16.98.53,26.276l22.687-.991s-4.862-16.75-1.876-24.17Z" transform="translate(-217.613 -171.021)" fill="#e0e0e0"/>
      </g>
      <g id="Group_2069" data-name="Group 2069" transform="translate(241.959 138.741)">
        <g id="Group_2054" data-name="Group 2054" transform="translate(0 0)">
          <path id="Path_4117" data-name="Path 4117" d="M258.939,158.424s.155,18.332,1.087,23.925l22.993-1.088s-2.02-18.021-1.243-22.837Z" transform="translate(-258.939 -158.424)" fill="#455a64"/>
        </g>
        <g id="Group_2068" data-name="Group 2068" transform="translate(6.176 2.568)">
          <g id="Group_2067" data-name="Group 2067">
            <g id="Group_2056" data-name="Group 2056">
              <g id="Group_2055" data-name="Group 2055">
                <path id="Path_4118" data-name="Path 4118" d="M272.412,161.91a.308.308,0,0,1,.084-.009l.249-.01a5.611,5.611,0,0,1,.956.047,5.241,5.241,0,0,1,1.462.435,4.789,4.789,0,0,1,1.591,1.258,5.524,5.524,0,0,1,1.1,2.215,5.343,5.343,0,0,1-.241,2.84,8.394,8.394,0,0,1-.646,1.42,15.231,15.231,0,0,0-.736,1.434,12.294,12.294,0,0,0-.93,3.263l-.01.076h-.074l-2.27.037-2.382.037h-.085l0-.086a6.8,6.8,0,0,0-1.1-3.143c-.276-.471-.578-.913-.861-1.359a13.236,13.236,0,0,1-.808-1.318,4.441,4.441,0,0,1-.361-2.8,5.967,5.967,0,0,1,.887-2.291,4.434,4.434,0,0,1,1.5-1.347,5.611,5.611,0,0,1,1.412-.546,6.016,6.016,0,0,1,.939-.153c.108-.006.191-.01.246-.01a.261.261,0,0,1,.084.006.384.384,0,0,1-.083.01l-.244.026a6.791,6.791,0,0,0-.927.181,5.713,5.713,0,0,0-1.383.564,4.38,4.38,0,0,0-1.447,1.334,5.9,5.9,0,0,0-.847,2.249,4.309,4.309,0,0,0,.364,2.71,13.553,13.553,0,0,0,.806,1.3c.28.44.588.885.867,1.36a6.931,6.931,0,0,1,1.134,3.224l-.088-.085,2.382-.039,2.27-.036-.084.078a12.348,12.348,0,0,1,.949-3.312,15.036,15.036,0,0,1,.748-1.446,8.3,8.3,0,0,0,.641-1.392,5.223,5.223,0,0,0,.252-2.763,5.439,5.439,0,0,0-1.058-2.169,4.745,4.745,0,0,0-1.542-1.25,5.317,5.317,0,0,0-1.431-.454,6.329,6.329,0,0,0-.948-.077l-.247-.007A.319.319,0,0,1,272.412,161.91Z" transform="translate(-267.264 -161.885)" fill="#fff"/>
              </g>
            </g>
            <g id="Group_2058" data-name="Group 2058" transform="translate(2.371 4.387)">
              <g id="Group_2057" data-name="Group 2057">
                <path id="Path_4119" data-name="Path 4119" d="M274.416,176.206s-.006-.024-.014-.072l-.035-.213-.125-.821c-.1-.713-.256-1.746-.359-3.032-.024-.322-.047-.659-.059-1.011s-.027-.718-.007-1.1a3.071,3.071,0,0,1,.259-1.15,1.742,1.742,0,0,1,.877-.878,1.175,1.175,0,0,1,1.252.238.874.874,0,0,1,.269.63,1.116,1.116,0,0,1-.235.658,1.5,1.5,0,0,1-.553.447,2.949,2.949,0,0,1-.683.226,8.245,8.245,0,0,1-1.451.169,8.447,8.447,0,0,1-1.46-.07,2.747,2.747,0,0,1-.692-.2,1.787,1.787,0,0,1-.579-.412,1.339,1.339,0,0,1-.334-.615,1.039,1.039,0,0,1,.082-.681.928.928,0,0,1,.481-.468.835.835,0,0,1,.654.03,1.243,1.243,0,0,1,.488.415,1.692,1.692,0,0,1,.244.573,6.911,6.911,0,0,1,.117,1.173c.039.757.076,1.462.11,2.106.065,1.285.117,2.326.154,3.049.016.358.03.637.039.829,0,.093.006.165.008.216s0,.073,0,.073,0-.024-.007-.073l-.016-.216c-.012-.192-.029-.47-.051-.828-.042-.723-.1-1.764-.177-3.048-.036-.644-.076-1.349-.119-2.106a6.967,6.967,0,0,0-.118-1.161,1.626,1.626,0,0,0-.236-.551,1.172,1.172,0,0,0-.463-.392.766.766,0,0,0-.6-.028.861.861,0,0,0-.444.436.974.974,0,0,0-.076.637,1.283,1.283,0,0,0,.318.582,2.075,2.075,0,0,0,1.232.589,8.424,8.424,0,0,0,1.447.07,8.141,8.141,0,0,0,1.438-.168,2.828,2.828,0,0,0,.667-.22,1.42,1.42,0,0,0,.528-.425,1.052,1.052,0,0,0,.223-.617.807.807,0,0,0-.247-.58,1.109,1.109,0,0,0-1.179-.226,1.685,1.685,0,0,0-.845.844,3.008,3.008,0,0,0-.257,1.126c-.021.377-.007.743,0,1.094s.033.689.055,1.01c.1,1.284.242,2.318.336,3.032.048.355.086.631.112.823l.028.214C274.415,176.182,274.416,176.206,274.416,176.206Z" transform="translate(-270.46 -167.798)" fill="#fff"/>
              </g>
            </g>
            <g id="Group_2060" data-name="Group 2060" transform="translate(3.285 12.699)">
              <g id="Group_2059" data-name="Group 2059">
                <path id="Path_4120" data-name="Path 4120" d="M271.707,179.219c.012.01.031.285.06.764q.042.831.1,1.992l-.019-.049,1.548,1.784-.079-.034,1.789-.1-.075.039.891-1.088.447-.544-.024.07c-.024-1.049-.047-2.042-.068-2.948l.1.093-3.343.037h-.966a2.748,2.748,0,0,1-.361-.013,1.645,1.645,0,0,1,.319-.03l.943-.05,3.4-.134.095,0,0,.1c.027.906.058,1.9.089,2.947v.039l-.025.031-.447.544-.893,1.087-.03.036-.046,0-1.79.088-.049,0-.03-.036-1.519-1.809-.019-.022v-.027q-.011-1.191-.02-2.043A6.241,6.241,0,0,1,271.707,179.219Z" transform="translate(-271.692 -179.002)" fill="#fff"/>
              </g>
            </g>
            <g id="Group_2062" data-name="Group 2062" transform="translate(3.453 14.931)">
              <g id="Group_2061" data-name="Group 2061">
                <path id="Path_4121" data-name="Path 4121" d="M276.384,182.585a1.009,1.009,0,0,1-.169-.072c-.108-.048-.266-.115-.464-.183a4.525,4.525,0,0,0-3.215.1c-.194.08-.348.157-.452.211a1.122,1.122,0,0,1-.165.082.787.787,0,0,1,.151-.106,3.7,3.7,0,0,1,.446-.234,4.3,4.3,0,0,1,3.252-.1,3.714,3.714,0,0,1,.459.206A.8.8,0,0,1,276.384,182.585Z" transform="translate(-271.918 -182.01)" fill="#fff"/>
              </g>
            </g>
            <g id="Group_2064" data-name="Group 2064" transform="translate(3.452 14.215)">
              <g id="Group_2063" data-name="Group 2063">
                <path id="Path_4122" data-name="Path 4122" d="M276.383,181.62a.969.969,0,0,1-.17-.072c-.108-.048-.265-.115-.464-.183a4.525,4.525,0,0,0-3.215.1c-.194.08-.348.157-.452.211a1.125,1.125,0,0,1-.165.082.789.789,0,0,1,.151-.106,3.659,3.659,0,0,1,.447-.234,4.3,4.3,0,0,1,3.251-.1,3.61,3.61,0,0,1,.459.206A.863.863,0,0,1,276.383,181.62Z" transform="translate(-271.917 -181.045)" fill="#fff"/>
              </g>
            </g>
            <g id="Group_2066" data-name="Group 2066" transform="translate(3.41 13.534)">
              <g id="Group_2065" data-name="Group 2065">
                <path id="Path_4123" data-name="Path 4123" d="M276.326,180.7a1.043,1.043,0,0,1-.17-.072c-.108-.049-.265-.116-.464-.184a4.525,4.525,0,0,0-3.215.1c-.194.081-.348.157-.452.212a1.062,1.062,0,0,1-.165.082.832.832,0,0,1,.151-.106,3.731,3.731,0,0,1,.447-.234,4.294,4.294,0,0,1,3.251-.1,3.8,3.8,0,0,1,.46.206A.809.809,0,0,1,276.326,180.7Z" transform="translate(-271.86 -180.127)" fill="#fff"/>
              </g>
            </g>
          </g>
        </g>
      </g>
      <g id="Group_2077" data-name="Group 2077" transform="translate(211.814 148.101)">
        <g id="Group_2070" data-name="Group 2070" transform="translate(0 0)">
          <path id="Path_4124" data-name="Path 4124" d="M218.309,171.04s.155,18.332,1.088,23.925l11.76-.556,11.232-.531s-2.02-18.021-1.243-22.837Z" transform="translate(-218.309 -171.04)" fill="#dbe3e3"/>
        </g>
        <g id="Group_2072" data-name="Group 2072" transform="translate(3.943 7.662)">
          <g id="Group_2071" data-name="Group 2071">
            <path id="Path_4125" data-name="Path 4125" d="M239.052,181.406c.007.106-3.443.4-7.7.657s-7.72.378-7.726.271,3.442-.4,7.7-.657S239.046,181.3,239.052,181.406Z" transform="translate(-223.623 -181.367)" fill="#fff"/>
          </g>
        </g>
        <g id="Group_2074" data-name="Group 2074" transform="translate(3.949 11.545)">
          <g id="Group_2073" data-name="Group 2073">
            <path id="Path_4126" data-name="Path 4126" d="M239.061,186.639c.006.107-3.443.4-7.7.657s-7.72.378-7.726.271,3.442-.4,7.7-.657S239.054,186.533,239.061,186.639Z" transform="translate(-223.632 -186.6)" fill="#fff"/>
          </g>
        </g>
        <g id="Group_2076" data-name="Group 2076" transform="translate(6.68 15.333)">
          <g id="Group_2075" data-name="Group 2075">
            <path id="Path_4127" data-name="Path 4127" d="M236.1,191.769a50.254,50.254,0,0,1-8.79.528,50.25,50.25,0,0,1,8.79-.528Z" transform="translate(-227.312 -191.706)" fill="#fff"/>
          </g>
        </g>
      </g>
      <g id="Group_2087" data-name="Group 2087" transform="translate(253.886 167.372)">
        <g id="Group_2078" data-name="Group 2078" transform="translate(0 0.545)">
          <path id="Path_4128" data-name="Path 4128" d="M275.7,197.75s-1.859,16.98.53,26.276l22.687-.991s-4.861-16.75-1.876-24.17Z" transform="translate(-275.014 -197.75)" fill="#ebebeb"/>
        </g>
        <g id="Group_2086" data-name="Group 2086" transform="translate(0.779)">
          <g id="Group_2079" data-name="Group 2079">
            <path id="Path_4129" data-name="Path 4129" d="M276.064,197.015s.156,18.331,1.088,23.925l22.992-1.088s-2.02-18.021-1.243-22.837Z" transform="translate(-276.064 -197.015)" fill="#dbe3e3"/>
          </g>
          <g id="Group_2081" data-name="Group 2081" transform="translate(3.943 7.661)">
            <g id="Group_2080" data-name="Group 2080">
              <path id="Path_4130" data-name="Path 4130" d="M296.808,207.38c.006.107-3.443.4-7.7.657s-7.72.378-7.727.271,3.443-.4,7.7-.657S296.8,207.274,296.808,207.38Z" transform="translate(-281.378 -207.341)" fill="#fff"/>
            </g>
          </g>
          <g id="Group_2083" data-name="Group 2083" transform="translate(3.949 11.544)">
            <g id="Group_2082" data-name="Group 2082">
              <path id="Path_4131" data-name="Path 4131" d="M296.816,212.614a77.273,77.273,0,0,1-7.7.657c-4.262.257-7.72.378-7.726.272s3.442-.4,7.7-.657S296.809,212.507,296.816,212.614Z" transform="translate(-281.387 -212.575)" fill="#fff"/>
            </g>
          </g>
          <g id="Group_2085" data-name="Group 2085" transform="translate(6.68 15.332)">
            <g id="Group_2084" data-name="Group 2084">
              <path id="Path_4132" data-name="Path 4132" d="M293.857,217.743a50.148,50.148,0,0,1-8.79.529,50.365,50.365,0,0,1,8.79-.529Z" transform="translate(-285.067 -217.681)" fill="#fff"/>
            </g>
          </g>
        </g>
      </g>
      <g id="Group_2097" data-name="Group 2097" transform="translate(249.179 238.533)">
        <g id="Group_2088" data-name="Group 2088" transform="translate(0 0.546)">
          <path id="Path_4133" data-name="Path 4133" d="M269.359,293.664s-1.858,16.979.53,26.276l22.687-.992s-4.861-16.75-1.876-24.17Z" transform="translate(-268.67 -293.664)" fill="#ebebeb"/>
        </g>
        <g id="Group_2096" data-name="Group 2096" transform="translate(0.779 0)">
          <g id="Group_2089" data-name="Group 2089">
            <path id="Path_4134" data-name="Path 4134" d="M269.72,292.928s.156,18.332,1.088,23.925l22.992-1.088s-2.02-18.021-1.243-22.837Z" transform="translate(-269.72 -292.928)" fill="#dbe3e3"/>
          </g>
          <g id="Group_2091" data-name="Group 2091" transform="translate(3.943 7.662)">
            <g id="Group_2090" data-name="Group 2090">
              <path id="Path_4135" data-name="Path 4135" d="M290.463,303.294c.007.106-3.443.4-7.7.657s-7.72.378-7.727.271,3.442-.4,7.7-.657S290.457,303.187,290.463,303.294Z" transform="translate(-275.034 -303.255)" fill="#fff"/>
            </g>
          </g>
          <g id="Group_2093" data-name="Group 2093" transform="translate(3.949 11.544)">
            <g id="Group_2092" data-name="Group 2092">
              <path id="Path_4136" data-name="Path 4136" d="M290.472,308.527c.006.107-3.443.4-7.7.657s-7.721.378-7.726.272a77.27,77.27,0,0,1,7.7-.657C287.006,308.541,290.465,308.421,290.472,308.527Z" transform="translate(-275.043 -308.488)" fill="#fff"/>
            </g>
          </g>
          <g id="Group_2095" data-name="Group 2095" transform="translate(6.68 15.333)">
            <g id="Group_2094" data-name="Group 2094">
              <path id="Path_4137" data-name="Path 4137" d="M287.513,313.657a50.25,50.25,0,0,1-8.79.528,50.269,50.269,0,0,1,8.79-.528Z" transform="translate(-278.723 -313.594)" fill="#fff"/>
            </g>
          </g>
        </g>
      </g>
      <g id="Group_2107" data-name="Group 2107" transform="translate(217.288 224.8)">
        <g id="Group_2098" data-name="Group 2098" transform="translate(0 0.545)">
          <path id="Path_4138" data-name="Path 4138" d="M226.376,275.154s-1.858,16.98.53,26.276l22.687-.991s-4.862-16.75-1.876-24.17Z" transform="translate(-225.687 -275.154)" fill="#ebebeb"/>
        </g>
        <g id="Group_2106" data-name="Group 2106" transform="translate(0.778 0)">
          <g id="Group_2099" data-name="Group 2099">
            <path id="Path_4139" data-name="Path 4139" d="M226.736,274.419s.156,18.332,1.088,23.925l22.993-1.088s-2.02-18.021-1.243-22.837Z" transform="translate(-226.736 -274.419)" fill="#e2e2e2"/>
          </g>
          <g id="Group_2101" data-name="Group 2101" transform="translate(3.943 7.661)">
            <g id="Group_2100" data-name="Group 2100">
              <path id="Path_4140" data-name="Path 4140" d="M247.48,284.784c.006.107-3.443.4-7.7.657s-7.72.378-7.726.271,3.442-.4,7.7-.657S247.473,284.678,247.48,284.784Z" transform="translate(-232.051 -284.745)" fill="#fff"/>
            </g>
          </g>
          <g id="Group_2103" data-name="Group 2103" transform="translate(3.949 11.544)">
            <g id="Group_2102" data-name="Group 2102">
              <path id="Path_4141" data-name="Path 4141" d="M247.488,290.018a77.279,77.279,0,0,1-7.7.657c-4.262.257-7.72.378-7.726.272a77.257,77.257,0,0,1,7.7-.657C244.023,290.032,247.481,289.912,247.488,290.018Z" transform="translate(-232.059 -289.979)" fill="#fff"/>
            </g>
          </g>
          <g id="Group_2105" data-name="Group 2105" transform="translate(6.68 15.332)">
            <g id="Group_2104" data-name="Group 2104">
              <path id="Path_4142" data-name="Path 4142" d="M244.529,295.147a50.16,50.16,0,0,1-8.79.529,50.36,50.36,0,0,1,8.79-.529Z" transform="translate(-235.739 -295.085)" fill="#fff"/>
            </g>
          </g>
        </g>
      </g>
      <g id="Group_2117" data-name="Group 2117" transform="translate(335.585 227.328)">
        <g id="Group_2108" data-name="Group 2108" transform="translate(0 0.545)">
          <path id="Path_4143" data-name="Path 4143" d="M385.821,278.561s-1.858,16.98.53,26.277l22.688-.992s-4.862-16.75-1.877-24.17Z" transform="translate(-385.133 -278.561)" fill="#ebebeb"/>
        </g>
        <g id="Group_2116" data-name="Group 2116" transform="translate(0.778)">
          <g id="Group_2109" data-name="Group 2109">
            <path id="Path_4144" data-name="Path 4144" d="M386.182,277.826s.156,18.331,1.088,23.925l22.992-1.088s-2.02-18.021-1.243-22.837Z" transform="translate(-386.182 -277.826)" fill="#d4e4e4"/>
          </g>
          <g id="Group_2111" data-name="Group 2111" transform="translate(3.943 7.661)">
            <g id="Group_2110" data-name="Group 2110">
              <path id="Path_4145" data-name="Path 4145" d="M406.926,288.191a77.175,77.175,0,0,1-7.7.657c-4.262.256-7.72.378-7.727.271s3.443-.4,7.7-.657S406.919,288.085,406.926,288.191Z" transform="translate(-391.496 -288.152)" fill="#fff"/>
            </g>
          </g>
          <g id="Group_2113" data-name="Group 2113" transform="translate(3.949 11.545)">
            <g id="Group_2112" data-name="Group 2112">
              <path id="Path_4146" data-name="Path 4146" d="M406.934,293.425a154.939,154.939,0,0,1-15.429.928,77.246,77.246,0,0,1,7.7-.657C403.469,293.439,406.927,293.319,406.934,293.425Z" transform="translate(-391.505 -293.386)" fill="#fff"/>
            </g>
          </g>
          <g id="Group_2115" data-name="Group 2115" transform="translate(6.68 15.333)">
            <g id="Group_2114" data-name="Group 2114">
              <path id="Path_4147" data-name="Path 4147" d="M403.975,298.555a50.25,50.25,0,0,1-8.79.528,50.261,50.261,0,0,1,8.79-.528Z" transform="translate(-395.185 -298.492)" fill="#fff"/>
            </g>
          </g>
        </g>
      </g>
      <g id="Group_2127" data-name="Group 2127" transform="translate(221.484 179.764)">
        <g id="Group_2118" data-name="Group 2118" transform="translate(0.2 1.996)">
          <path id="Path_4148" data-name="Path 4148" d="M260.26,220.494s-2.309,16.923-6.878,25.365L231.611,239.4s8.773-15.074,7.674-23Z" transform="translate(-231.611 -216.407)" fill="#ebebeb"/>
        </g>
        <g id="Group_2126" data-name="Group 2126" transform="translate(0 0)">
          <g id="Group_2119" data-name="Group 2119">
            <path id="Path_4149" data-name="Path 4149" d="M260.236,219.247S255.645,237,253.387,242.2l-22.045-6.622s6.323-17,6.736-21.857Z" transform="translate(-231.342 -213.717)" fill="#455a64"/>
          </g>
          <g id="Group_2121" data-name="Group 2121" transform="translate(8.234 8.303)">
            <g id="Group_2120" data-name="Group 2120">
              <path id="Path_4150" data-name="Path 4150" d="M242.44,224.915c.032-.1,3.359.854,7.43,2.134s7.347,2.4,7.315,2.5-3.359-.854-7.431-2.135S242.408,225.017,242.44,224.915Z" transform="translate(-242.44 -224.908)" fill="#fff"/>
            </g>
          </g>
          <g id="Group_2123" data-name="Group 2123" transform="translate(7.287 12.069)">
            <g id="Group_2122" data-name="Group 2122">
              <path id="Path_4151" data-name="Path 4151" d="M241.164,229.991c.032-.1,3.359.854,7.43,2.134a77.047,77.047,0,0,1,7.315,2.5c-.032.1-3.358-.854-7.43-2.135S241.132,230.093,241.164,229.991Z" transform="translate(-241.164 -229.984)" fill="#fff"/>
            </g>
          </g>
          <g id="Group_2125" data-name="Group 2125" transform="translate(10.156 16.709)">
            <g id="Group_2124" data-name="Group 2124">
              <path id="Path_4152" data-name="Path 4152" d="M245.031,236.251a50.292,50.292,0,0,1,8.4,2.642,50.236,50.236,0,0,1-8.4-2.642Z" transform="translate(-245.03 -236.238)" fill="#fff"/>
            </g>
          </g>
        </g>
      </g>
      <g id="Group_2138" data-name="Group 2138" transform="translate(248.126 199.708)">
        <g id="Group_2128" data-name="Group 2128" transform="translate(2.794 3.971)">
          <path id="Path_4153" data-name="Path 4153" d="M294.235,245.951s1.858,16.98-.53,26.277l-22.687-.992s4.862-16.75,1.876-24.17Z" transform="translate(-271.017 -245.951)" fill="#ebebeb"/>
        </g>
        <g id="Group_2137" data-name="Group 2137" transform="translate(0 0)">
          <g id="Group_2129" data-name="Group 2129">
            <path id="Path_4154" data-name="Path 4154" d="M270.047,240.6s-1.554,20.344-2.8,24.228L287.914,267l3.107-2.952s2.02-14.914,1.709-19.73Z" transform="translate(-267.251 -240.599)" fill="#455a64"/>
          </g>
          <g id="Group_2130" data-name="Group 2130" transform="translate(20.662 23.296)">
            <path id="Path_4155" data-name="Path 4155" d="M295.567,272l-.466,3.107,3.107-2.952Z" transform="translate(-295.101 -271.999)" fill="#263238"/>
          </g>
          <g id="Group_2132" data-name="Group 2132" transform="translate(5.604 8.696)">
            <g id="Group_2131" data-name="Group 2131">
              <path id="Path_4156" data-name="Path 4156" d="M290.561,254.441a15.029,15.029,0,0,1-2.316-.269l-5.561-.782-5.573-.7a15.062,15.062,0,0,1-2.306-.346,13.071,13.071,0,0,1,2.332.074c1.437.1,3.418.3,5.6.587s4.142.62,5.555.9A13.008,13.008,0,0,1,290.561,254.441Z" transform="translate(-274.805 -252.32)" fill="#fff"/>
            </g>
          </g>
          <g id="Group_2134" data-name="Group 2134" transform="translate(5.35 13.136)">
            <g id="Group_2133" data-name="Group 2133">
              <path id="Path_4157" data-name="Path 4157" d="M289.573,260.229a12.182,12.182,0,0,1-2.235-.072c-1.376-.1-3.274-.283-5.363-.547s-3.973-.559-5.331-.8a12.035,12.035,0,0,1-2.182-.487,13.593,13.593,0,0,1,2.224.217l5.338.691,5.342.658A13.433,13.433,0,0,1,289.573,260.229Z" transform="translate(-274.462 -258.305)" fill="#fff"/>
            </g>
          </g>
          <g id="Group_2136" data-name="Group 2136" transform="translate(5.327 17.089)">
            <g id="Group_2135" data-name="Group 2135">
              <path id="Path_4158" data-name="Path 4158" d="M288.275,265.511a63.051,63.051,0,0,1-6.947-.737,63.185,63.185,0,0,1-6.9-1.121,63.428,63.428,0,0,1,6.948.738A63.358,63.358,0,0,1,288.275,265.511Z" transform="translate(-274.431 -263.633)" fill="#fff"/>
            </g>
          </g>
        </g>
      </g>
      <g id="Group_2149" data-name="Group 2149" transform="translate(415.639 221.26)">
        <g id="Group_2139" data-name="Group 2139" transform="translate(2.793 3.971)">
          <path id="Path_4159" data-name="Path 4159" d="M520.016,275s1.858,16.98-.53,26.276l-22.688-.991s4.862-16.75,1.877-24.17Z" transform="translate(-496.798 -274.999)" fill="#ebebeb"/>
        </g>
        <g id="Group_2148" data-name="Group 2148" transform="translate(0 0)">
          <g id="Group_2140" data-name="Group 2140">
            <path id="Path_4160" data-name="Path 4160" d="M495.829,269.647s-1.554,20.344-2.8,24.228l20.662,2.175L516.8,293.1s2.019-14.914,1.709-19.73Z" transform="translate(-493.033 -269.647)" fill="#455a64"/>
          </g>
          <g id="Group_2141" data-name="Group 2141" transform="translate(20.662 23.296)">
            <path id="Path_4161" data-name="Path 4161" d="M521.348,301.047l-.466,3.107,3.107-2.952Z" transform="translate(-520.882 -301.047)" fill="#263238"/>
          </g>
          <g id="Group_2143" data-name="Group 2143" transform="translate(5.604 8.696)">
            <g id="Group_2142" data-name="Group 2142">
              <path id="Path_4162" data-name="Path 4162" d="M516.342,283.489a15.145,15.145,0,0,1-2.316-.269l-5.561-.782-5.573-.7a15.061,15.061,0,0,1-2.306-.346,13,13,0,0,1,2.333.074c1.436.1,3.418.3,5.6.587s4.141.62,5.556.9A12.9,12.9,0,0,1,516.342,283.489Z" transform="translate(-500.586 -281.368)" fill="#fff"/>
            </g>
          </g>
          <g id="Group_2145" data-name="Group 2145" transform="translate(5.349 13.136)">
            <g id="Group_2144" data-name="Group 2144">
              <path id="Path_4163" data-name="Path 4163" d="M515.355,289.277a12.149,12.149,0,0,1-2.235-.071c-1.376-.1-3.274-.283-5.363-.547s-3.974-.559-5.332-.8a12.029,12.029,0,0,1-2.183-.487,13.616,13.616,0,0,1,2.224.217l5.338.691,5.341.658A13.6,13.6,0,0,1,515.355,289.277Z" transform="translate(-500.243 -287.353)" fill="#fff"/>
            </g>
          </g>
          <g id="Group_2147" data-name="Group 2147" transform="translate(5.327 17.089)">
            <g id="Group_2146" data-name="Group 2146">
              <path id="Path_4164" data-name="Path 4164" d="M514.057,294.559a126.141,126.141,0,0,1-13.844-1.859,126.626,126.626,0,0,1,13.844,1.859Z" transform="translate(-500.213 -292.681)" fill="#fff"/>
            </g>
          </g>
        </g>
      </g>
      <g id="Group_2160" data-name="Group 2160" transform="translate(388.501 134.727)">
        <g id="Group_2150" data-name="Group 2150" transform="translate(2.794 3.971)">
          <path id="Path_4165" data-name="Path 4165" d="M483.439,158.366s1.858,16.98-.531,26.276l-22.687-.991s4.862-16.75,1.876-24.17Z" transform="translate(-460.221 -158.366)" fill="#ebebeb"/>
        </g>
        <g id="Group_2159" data-name="Group 2159" transform="translate(0 0)">
          <g id="Group_2151" data-name="Group 2151">
            <path id="Path_4166" data-name="Path 4166" d="M459.251,153.014s-1.553,20.344-2.8,24.228l20.663,2.175,3.107-2.951s2.02-14.914,1.709-19.73Z" transform="translate(-456.455 -153.014)" fill="#455a64"/>
          </g>
          <g id="Group_2152" data-name="Group 2152" transform="translate(20.663 23.296)">
            <path id="Path_4167" data-name="Path 4167" d="M484.771,184.413l-.466,3.107,3.107-2.952Z" transform="translate(-484.305 -184.413)" fill="#263238"/>
          </g>
          <g id="Group_2154" data-name="Group 2154" transform="translate(5.604 8.696)">
            <g id="Group_2153" data-name="Group 2153">
              <path id="Path_4168" data-name="Path 4168" d="M479.765,166.856a15.138,15.138,0,0,1-2.316-.269l-5.561-.782-5.573-.7a15.057,15.057,0,0,1-2.306-.346,12.988,12.988,0,0,1,2.332.074c1.437.1,3.418.3,5.6.587s4.142.62,5.556.9A12.923,12.923,0,0,1,479.765,166.856Z" transform="translate(-464.009 -164.735)" fill="#fff"/>
            </g>
          </g>
          <g id="Group_2156" data-name="Group 2156" transform="translate(5.35 13.136)">
            <g id="Group_2155" data-name="Group 2155">
              <path id="Path_4169" data-name="Path 4169" d="M478.778,172.644a12.106,12.106,0,0,1-2.235-.072c-1.376-.1-3.274-.283-5.363-.546s-3.973-.559-5.331-.8a12.085,12.085,0,0,1-2.182-.486,13.6,13.6,0,0,1,2.224.217l5.339.691,5.341.658A13.584,13.584,0,0,1,478.778,172.644Z" transform="translate(-463.666 -170.72)" fill="#fff"/>
            </g>
          </g>
          <g id="Group_2158" data-name="Group 2158" transform="translate(5.328 17.089)">
            <g id="Group_2157" data-name="Group 2157">
              <path id="Path_4170" data-name="Path 4170" d="M477.48,177.926a126.13,126.13,0,0,1-13.844-1.859,126.624,126.624,0,0,1,13.844,1.859Z" transform="translate(-463.636 -176.048)" fill="#fff"/>
            </g>
          </g>
        </g>
      </g>
      <g id="Group_2171" data-name="Group 2171" transform="translate(301.184 142.127)">
        <g id="Group_2161" data-name="Group 2161" transform="translate(2.793 3.972)">
          <path id="Path_4171" data-name="Path 4171" d="M365.749,168.341s1.858,16.979-.531,26.276l-22.687-.992s4.862-16.75,1.876-24.17Z" transform="translate(-342.531 -168.341)" fill="#ebebeb"/>
        </g>
        <g id="Group_2170" data-name="Group 2170" transform="translate(0)">
          <g id="Group_2162" data-name="Group 2162">
            <path id="Path_4172" data-name="Path 4172" d="M341.562,162.988s-1.554,20.345-2.8,24.228l20.662,2.175,3.107-2.952s2.02-14.913,1.709-19.73Z" transform="translate(-338.766 -162.988)" fill="#455a64"/>
          </g>
          <g id="Group_2163" data-name="Group 2163" transform="translate(20.662 23.296)">
            <path id="Path_4173" data-name="Path 4173" d="M367.081,194.388l-.466,3.107,3.107-2.952Z" transform="translate(-366.615 -194.388)" fill="#263238"/>
          </g>
          <g id="Group_2165" data-name="Group 2165" transform="translate(5.604 8.696)">
            <g id="Group_2164" data-name="Group 2164">
              <path id="Path_4174" data-name="Path 4174" d="M362.075,176.83a15.033,15.033,0,0,1-2.316-.269l-5.561-.782-5.573-.7a15.057,15.057,0,0,1-2.306-.346,12.943,12.943,0,0,1,2.333.073c1.436.1,3.418.3,5.6.587s4.142.62,5.556.9A12.981,12.981,0,0,1,362.075,176.83Z" transform="translate(-346.319 -174.709)" fill="#fff"/>
            </g>
          </g>
          <g id="Group_2167" data-name="Group 2167" transform="translate(5.349 13.137)">
            <g id="Group_2166" data-name="Group 2166">
              <path id="Path_4175" data-name="Path 4175" d="M361.087,182.619a12.1,12.1,0,0,1-2.235-.072c-1.376-.1-3.274-.283-5.363-.547s-3.973-.559-5.331-.8a12.159,12.159,0,0,1-2.183-.486,13.546,13.546,0,0,1,2.224.216l5.338.691,5.341.658A13.589,13.589,0,0,1,361.087,182.619Z" transform="translate(-345.976 -180.695)" fill="#fff"/>
            </g>
          </g>
          <g id="Group_2169" data-name="Group 2169" transform="translate(5.327 17.09)">
            <g id="Group_2168" data-name="Group 2168">
              <path id="Path_4176" data-name="Path 4176" d="M359.79,187.9a126.617,126.617,0,0,1-13.844-1.859A126.143,126.143,0,0,1,359.79,187.9Z" transform="translate(-345.946 -186.022)" fill="#fff"/>
            </g>
          </g>
        </g>
      </g>
      <g id="Group_2204" data-name="Group 2204" transform="translate(291.99 176.418)">
        <g id="Group_2172" data-name="Group 2172" transform="translate(4.76 3.214)">
          <path id="Path_4177" data-name="Path 4177" d="M332.789,213.539l1.788,41.516,51.827.625-2.327-41.592Z" transform="translate(-332.789 -213.539)" fill="#ebebeb"/>
        </g>
        <g id="Group_2201" data-name="Group 2201" transform="translate(3.966 2.724)">
          <g id="Group_2176" data-name="Group 2176">
            <g id="Group_2173" data-name="Group 2173" transform="translate(0.193 0.193)">
              <rect id="Rectangle_705" data-name="Rectangle 705" width="51.482" height="38.874" fill="#fff"/>
            </g>
            <g id="Group_2175" data-name="Group 2175">
              <g id="Group_2174" data-name="Group 2174">
                <path id="Path_4178" data-name="Path 4178" d="M383.4,251.946s-.012-.251-.017-.723-.01-1.176-.018-2.076c-.009-1.824-.023-4.481-.041-7.867-.019-6.78-.048-16.477-.082-28.209l.159.159-51.478.035h0l.194-.194c-.007,13.981-.013,27.219-.019,38.874l-.174-.174,37.13.087,10.563.046,2.809.021.727.01c.165,0,.253.01.253.01a1.978,1.978,0,0,1-.233.01l-.708.01-2.774.021-10.523.047-37.244.086h-.174v-.175c-.005-11.655-.012-24.893-.019-38.874v-.193h.2l51.478.034h.159v.158c-.034,11.773-.063,21.5-.082,28.308-.018,3.371-.032,6.016-.041,7.832q-.012,1.331-.019,2.046C383.407,251.717,383.4,251.946,383.4,251.946Z" transform="translate(-331.72 -212.878)" fill="#263238"/>
              </g>
            </g>
          </g>
          <g id="Group_2180" data-name="Group 2180" transform="translate(6.168 8.232)">
            <g id="Group_2177" data-name="Group 2177" transform="translate(0.236 0.196)">
              <rect id="Rectangle_706" data-name="Rectangle 706" width="20.87" height="26.265" fill="#fff"/>
            </g>
            <g id="Group_2179" data-name="Group 2179">
              <g id="Group_2178" data-name="Group 2178">
                <path id="Path_4179" data-name="Path 4179" d="M361.139,250.435a.738.738,0,0,1-.01-.133c0-.1-.006-.223-.01-.375q-.008-.524-.021-1.438c-.01-1.273-.026-3.094-.046-5.39-.021-4.626-.051-11.165-.086-18.929l.173.173-20.867.02c-.045.041.364-.363.191-.188v3.606q0,1.79,0,3.54c0,2.332,0,4.608-.006,6.815-.009,4.411-.017,8.545-.024,12.3l-.16-.16,15.106.083,4.242.042,1.125.019a3.8,3.8,0,0,1,.4.017,2.633,2.633,0,0,1-.363.018l-1.1.019-4.205.042-15.206.083h-.16v-.162c-.007-3.753-.016-7.887-.025-12.3,0-2.207,0-4.483-.006-6.815q0-1.749,0-3.54v-3.606c-.173.171.234-.241.2-.2l20.867.02h.174v.174c-.036,7.809-.065,14.387-.087,19.041-.019,2.28-.035,4.087-.045,5.351-.009.6-.016,1.062-.021,1.4A3.922,3.922,0,0,1,361.139,250.435Z" transform="translate(-340.033 -223.974)" fill="#263238"/>
              </g>
            </g>
          </g>
          <g id="Group_2184" data-name="Group 2184" transform="translate(6.992 2.226)">
            <g id="Group_2181" data-name="Group 2181" transform="translate(0.211 0.193)">
              <rect id="Rectangle_707" data-name="Rectangle 707" width="39.995" height="3.784" fill="#fff"/>
            </g>
            <g id="Group_2183" data-name="Group 2183">
              <g id="Group_2182" data-name="Group 2182">
                <path id="Path_4180" data-name="Path 4180" d="M381.35,219.855a2.088,2.088,0,0,1-.015-.26c-.005-.188-.011-.43-.019-.735-.01-.662-.025-1.594-.045-2.79l.078.078c-6.745.068-22.119.115-39.994.115h0c.386-.386.107-.106.193-.192h0V218c0,.634,0,1.256,0,1.859l-.192-.193,28.344.082,8.511.057,2.317.027.608.013a1.485,1.485,0,0,1,.216.013.914.914,0,0,1-.189.013l-.583.013-2.273.027-8.466.057-28.483.082h-.193v-.193c0-.6,0-1.226,0-1.859v-1.924h0l.194-.194h0c17.874,0,33.249.047,39.994.115h.079v.077c-.019,1.215-.033,2.163-.045,2.835l-.018.717A1.3,1.3,0,0,1,381.35,219.855Z" transform="translate(-341.144 -215.878)" fill="#263238"/>
              </g>
            </g>
          </g>
          <g id="Group_2188" data-name="Group 2188" transform="translate(29.592 8.232)">
            <g id="Group_2185" data-name="Group 2185" transform="translate(0.236 0.196)">
              <rect id="Rectangle_708" data-name="Rectangle 708" width="17.37" height="15.83" fill="#fff"/>
            </g>
            <g id="Group_2187" data-name="Group 2187">
              <g id="Group_2186" data-name="Group 2186">
                <path id="Path_4181" data-name="Path 4181" d="M389.212,240a2.326,2.326,0,0,1-.019-.308c0-.223-.011-.507-.019-.861-.01-.779-.024-1.864-.043-3.228-.021-2.79-.05-6.719-.085-11.433l.165.164-17.369.029c-.044.042.364-.365.191-.191v1.073q0,.536,0,1.068,0,1.064,0,2.108,0,2.088,0,4.084c-.007,2.655-.012,5.171-.018,7.494l-.169-.169,12.524.086,3.557.045.95.019a2.422,2.422,0,0,1,.339.02,1.731,1.731,0,0,1-.3.019l-.917.019-3.518.044-12.634.086h-.169V240c-.005-2.323-.011-4.839-.017-7.494q0-1.993-.005-4.084,0-1.044,0-2.108,0-.532,0-1.068v-1.073c-.172.171.235-.238.2-.2l17.369.029h.165v.165c-.035,4.757-.064,8.722-.085,11.537-.018,1.35-.033,2.421-.043,3.192-.007.341-.014.614-.019.829A1.392,1.392,0,0,1,389.212,240Z" transform="translate(-371.606 -223.974)" fill="#263238"/>
              </g>
            </g>
          </g>
          <g id="Group_2192" data-name="Group 2192" transform="translate(29.632 26.504)">
            <g id="Group_2189" data-name="Group 2189" transform="translate(0.197 0.236)">
              <rect id="Rectangle_709" data-name="Rectangle 709" width="17.37" height="7.954" fill="#fff"/>
            </g>
            <g id="Group_2191" data-name="Group 2191">
              <g id="Group_2190" data-name="Group 2190">
                <path id="Path_4182" data-name="Path 4182" d="M389.225,256.79a4.979,4.979,0,0,1-.03-.579c-.009-.405-.021-.936-.035-1.6-.019-1.41-.045-3.372-.076-5.777l.14.14-17.369.053c-.173.172.234-.236.192-.193v1.042q0,.52,0,1.033,0,1.026,0,2.025c0,1.33-.005,2.62-.007,3.854l-.183-.183,12.416.088,3.621.05.979.023a2.4,2.4,0,0,1,.353.022,1.382,1.382,0,0,1-.309.023l-.942.023-3.58.05-12.539.088h-.183v-.185c0-1.234-.005-2.523-.007-3.854q0-1,0-2.025,0-.513,0-1.033v-1.042c-.042.042.367-.366.194-.194l17.369.053h.142l0,.139c-.031,2.44-.057,4.432-.075,5.862-.015.648-.027,1.169-.036,1.567A3.4,3.4,0,0,1,389.225,256.79Z" transform="translate(-371.659 -248.601)" fill="#263238"/>
              </g>
            </g>
          </g>
          <g id="Group_2196" data-name="Group 2196" transform="translate(6.402 8.474)">
            <g id="Group_2193" data-name="Group 2193" transform="translate(0.001 0)">
              <path id="Path_4183" data-name="Path 4183" d="M360.7,224.3c-6.46,8.924-13.893,17.295-20.353,26.219" transform="translate(-340.351 -224.3)" fill="#fff"/>
            </g>
            <g id="Group_2195" data-name="Group 2195">
              <g id="Group_2194" data-name="Group 2194">
                <path id="Path_4184" data-name="Path 4184" d="M340.351,250.519a8.418,8.418,0,0,1,.711-1.1c.476-.693,1.189-1.678,2.085-2.884,1.791-2.414,4.356-5.679,7.23-9.25s5.47-6.8,7.315-9.174l2.181-2.808a8.419,8.419,0,0,1,.832-1.007,8.391,8.391,0,0,1-.711,1.1c-.476.694-1.189,1.679-2.085,2.885-1.791,2.414-4.357,5.68-7.231,9.25s-5.469,6.8-7.314,9.173l-2.181,2.808A8.425,8.425,0,0,1,340.351,250.519Z" transform="translate(-340.349 -224.299)" fill="#263238"/>
              </g>
            </g>
          </g>
          <g id="Group_2200" data-name="Group 2200" transform="translate(6.402 8.428)">
            <g id="Group_2197" data-name="Group 2197" transform="translate(0.001 0.001)">
              <line id="Line_205" data-name="Line 205" x2="20.87" y2="26.265" fill="#fff"/>
            </g>
            <g id="Group_2199" data-name="Group 2199">
              <g id="Group_2198" data-name="Group 2198">
                <path id="Path_4185" data-name="Path 4185" d="M361.22,250.5c-.084.067-4.823-5.76-10.586-13.011s-10.368-13.187-10.284-13.254,4.823,5.759,10.587,13.013S361.3,250.437,361.22,250.5Z" transform="translate(-340.349 -224.237)" fill="#263238"/>
              </g>
            </g>
          </g>
        </g>
        <g id="Group_2202" data-name="Group 2202" transform="translate(0 7.925)">
          <circle id="Ellipse_371" data-name="Ellipse 371" cx="3.265" cy="3.265" r="3.265" transform="translate(0.018 0.018)" fill="#cde5e5"/>
          <path id="Path_4186" data-name="Path 4186" d="M329.657,226.455a3.283,3.283,0,1,1,3.284-3.283A3.287,3.287,0,0,1,329.657,226.455Zm0-6.53a3.246,3.246,0,1,0,3.247,3.247A3.25,3.25,0,0,0,329.657,219.925Z" transform="translate(-326.374 -219.889)" fill="#cde5e5"/>
        </g>
        <g id="Group_2203" data-name="Group 2203" transform="translate(53.397 0)">
          <circle id="Ellipse_372" data-name="Ellipse 372" cx="3.265" cy="3.265" r="3.265" transform="translate(0.019 0.018)" fill="#cde5e5"/>
          <path id="Path_4187" data-name="Path 4187" d="M401.629,215.773a3.283,3.283,0,1,1,3.284-3.283A3.287,3.287,0,0,1,401.629,215.773Zm0-6.529a3.246,3.246,0,1,0,3.246,3.246A3.249,3.249,0,0,0,401.629,209.244Z" transform="translate(-398.345 -209.207)" fill="#cde5e5"/>
        </g>
      </g>
      <g id="Group_2212" data-name="Group 2212" transform="translate(343.4 157.76)">
        <g id="Group_2205" data-name="Group 2205" transform="translate(0.639 0.802)">
          <path id="Path_4188" data-name="Path 4188" d="M419.327,191.047l-15.371,7.906-7.428-1.053,3.976-7.047,16.21-5.711Z" transform="translate(-396.528 -185.141)" fill="#ebebeb"/>
        </g>
        <g id="Group_2211" data-name="Group 2211" transform="translate(0 0)">
          <g id="Group_2206" data-name="Group 2206">
            <path id="Path_4189" data-name="Path 4189" d="M395.666,196.169l3.765-6.061,16.653-6.049,3.346,6.578-16.146,6.449Z" transform="translate(-395.666 -184.059)" fill="#455a64"/>
          </g>
          <g id="Group_2208" data-name="Group 2208" transform="translate(7.307 3.899)">
            <g id="Group_2207" data-name="Group 2207">
              <path id="Path_4190" data-name="Path 4190" d="M416.754,189.326a9.917,9.917,0,0,1-1.616.732c-1.011.414-2.416.967-3.973,1.563l-4,1.495c-1.018.372-1.686.6-1.647.574-.126-.156,2.4-1.239,5.508-2.429A39.1,39.1,0,0,1,416.754,189.326Z" transform="translate(-405.515 -189.315)" fill="#fff"/>
            </g>
          </g>
          <g id="Group_2210" data-name="Group 2210" transform="translate(8.535 6.884)">
            <g id="Group_2209" data-name="Group 2209">
              <path id="Path_4191" data-name="Path 4191" d="M414.58,193.348a23.119,23.119,0,0,1-7.41,2.76,170.322,170.322,0,0,1,7.41-2.76Z" transform="translate(-407.17 -193.338)" fill="#fff"/>
            </g>
          </g>
        </g>
      </g>
      <g id="Group_2252" data-name="Group 2252" transform="translate(388.022 160.496)">
        <g id="Group_2250" data-name="Group 2250" transform="translate(0 0)">
          <g id="Group_2213" data-name="Group 2213" transform="translate(1.394 0.167)">
            <path id="Path_4192" data-name="Path 4192" d="M457.69,197.82l5.623,29.7,56.153-10.63-9.759-28.919Z" transform="translate(-457.69 -187.973)" fill="#ebebeb"/>
          </g>
          <g id="Group_2249" data-name="Group 2249">
            <g id="Group_2240" data-name="Group 2240">
              <g id="Group_2217" data-name="Group 2217">
                <g id="Group_2214" data-name="Group 2214" transform="translate(0.226 0.167)">
                  <rect id="Rectangle_710" data-name="Rectangle 710" width="54.13" height="26.782" transform="translate(0 10.069) rotate(-10.72)" fill="#fff"/>
                </g>
                <g id="Group_2216" data-name="Group 2216">
                  <g id="Group_2215" data-name="Group 2215">
                    <path id="Path_4193" data-name="Path 4193" d="M514.2,214.229s-.041-.166-.105-.477-.157-.781-.276-1.374c-.239-1.216-.585-2.983-1.031-5.25-.88-4.55-2.147-11.106-3.71-19.187l.168.114-53.172,10.117h0l.154-.226c1.752,9.275,3.434,18.177,4.971,26.316l-.213-.145,38.19-7.141,11.037-2.038,2.955-.536.769-.134c.174-.029.269-.039.269-.039a1.915,1.915,0,0,1-.243.057l-.743.152-2.91.574-10.977,2.129-38.278,7.335-.179.034-.034-.18c-1.544-8.138-3.233-17.039-4.992-26.312l-.036-.19.19-.036h0l53.191-10.019.142-.027.026.141c1.506,8.13,2.727,14.724,3.576,19.3l.953,5.232q.156.875.24,1.354C514.185,214.079,514.2,214.229,514.2,214.229Z" transform="translate(-455.81 -187.747)" fill="#263238"/>
                  </g>
                </g>
              </g>
              <g id="Group_2224" data-name="Group 2224" transform="translate(6.394 12.059)">
                <g id="Group_2221" data-name="Group 2221">
                  <g id="Group_2218" data-name="Group 2218" transform="translate(0.223 0.195)">
                    <rect id="Rectangle_711" data-name="Rectangle 711" width="14.966" height="14.966" transform="matrix(0.983, -0.186, 0.186, 0.983, 0, 2.784)" fill="#fff"/>
                  </g>
                  <g id="Group_2220" data-name="Group 2220">
                    <g id="Group_2219" data-name="Group 2219">
                      <path id="Path_4194" data-name="Path 4194" d="M482.142,218.9a1.9,1.9,0,0,1-.073-.285c-.045-.21-.1-.473-.171-.8-.148-.73-.354-1.736-.611-3-.513-2.6-1.232-6.237-2.092-10.592l.2.134-14.7,2.809c-.036.049.291-.426.153-.223v0l0,.007,0,.016.006.031.013.063.024.126.047.252.095.5q.095.5.188,1,.187.993.371,1.966.365,1.946.714,3.8c.46,2.468.895,4.8,1.294,6.94l-.2-.134,10.624-1.924,3.014-.527.807-.133a1.941,1.941,0,0,1,.292-.036,1.219,1.219,0,0,1-.249.066l-.768.165-2.961.605-10.7,2.112-.163.033-.032-.165-1.333-6.933-.724-3.8q-.185-.973-.374-1.966-.093-.5-.189-1l-.095-.5-.048-.252-.024-.126-.012-.063-.006-.031,0-.016v-.012c-.138.2.186-.277.154-.229l14.709-2.758.165-.031.03.164c.8,4.412,1.467,8.1,1.944,10.729.219,1.254.393,2.252.519,2.977.052.315.093.571.127.775A1.277,1.277,0,0,1,482.142,218.9Z" transform="translate(-464.429 -204.001)" fill="#263238"/>
                    </g>
                  </g>
                </g>
                <g id="Group_2223" data-name="Group 2223" transform="translate(2.83 3.895)">
                  <g id="Group_2222" data-name="Group 2222">
                    <path id="Path_4195" data-name="Path 4195" d="M483.126,220.257c-.033.005-.085-.38-.295-1.05a5.2,5.2,0,0,0-1.556-2.468l-.014-.011a5.473,5.473,0,0,0-1.82-1.1,5.7,5.7,0,0,0-2.471-.281l-.344.034.186-.295a3.719,3.719,0,0,0,.133-3.516,3.326,3.326,0,0,0-1.3-1.458,3.5,3.5,0,0,0-1.985-.464,3.762,3.762,0,0,0-2.153.8,3.217,3.217,0,0,0-1.137,1.85,3.757,3.757,0,0,0,1.2,3.665l.184.147-.2.122a6.4,6.4,0,0,0-2.216,2.259,6.82,6.82,0,0,0-.852,2.311,9.429,9.429,0,0,0-.058,2.163,2.149,2.149,0,0,1-.132-.56,6.075,6.075,0,0,1,0-1.632,6.742,6.742,0,0,1,.807-2.414,6.577,6.577,0,0,1,2.279-2.408l-.018.269a4.081,4.081,0,0,1-1.364-4,3.585,3.585,0,0,1,1.26-2.069,4.122,4.122,0,0,1,2.372-.89,3.867,3.867,0,0,1,2.2.522,3.69,3.69,0,0,1,1.444,1.627,4.052,4.052,0,0,1-.185,3.859l-.159-.26a5.946,5.946,0,0,1,2.606.338,5.632,5.632,0,0,1,1.888,1.2l-.014-.012a5.092,5.092,0,0,1,1.545,2.637,5.607,5.607,0,0,1,.151.8A.9.9,0,0,1,483.126,220.257Z" transform="translate(-468.243 -209.251)" fill="#263238"/>
                  </g>
                </g>
              </g>
              <g id="Group_2239" data-name="Group 2239" transform="translate(26.934 9.309)">
                <g id="Group_2228" data-name="Group 2228">
                  <g id="Group_2225" data-name="Group 2225" transform="translate(0 0.015)">
                    <path id="Path_4196" data-name="Path 4196" d="M492.113,202.728l12.751-2.414" transform="translate(-492.113 -200.314)" fill="#fff"/>
                  </g>
                  <g id="Group_2227" data-name="Group 2227">
                    <g id="Group_2226" data-name="Group 2226">
                      <path id="Path_4197" data-name="Path 4197" d="M504.864,200.309a109.16,109.16,0,0,1-12.751,2.413,109.23,109.23,0,0,1,12.751-2.413Z" transform="translate(-492.113 -200.294)" fill="#263238"/>
                    </g>
                  </g>
                </g>
                <g id="Group_2232" data-name="Group 2232" transform="translate(0.56 4.838)">
                  <g id="Group_2229" data-name="Group 2229" transform="translate(0.001 0.065)">
                    <path id="Path_4198" data-name="Path 4198" d="M492.869,207.39l2.576-.487" transform="translate(-492.869 -206.903)" fill="#fff"/>
                  </g>
                  <g id="Group_2231" data-name="Group 2231">
                    <g id="Group_2230" data-name="Group 2230">
                      <path id="Path_4199" data-name="Path 4199" d="M495.445,206.88c.019.1-.541.3-1.252.434s-1.3.159-1.324.053.541-.3,1.252-.433S495.424,206.776,495.445,206.88Z" transform="translate(-492.867 -206.815)" fill="#263238"/>
                    </g>
                  </g>
                </g>
                <g id="Group_2234" data-name="Group 2234" transform="translate(1.536 6.219)">
                  <g id="Group_2233" data-name="Group 2233">
                    <path id="Path_4200" data-name="Path 4200" d="M516.98,208.684c.02.105-5.067,1.157-11.362,2.348S494.2,213.105,494.183,213s5.067-1.156,11.363-2.347S516.961,208.579,516.98,208.684Z" transform="translate(-494.183 -208.676)" fill="#263238"/>
                  </g>
                </g>
                <g id="Group_2236" data-name="Group 2236" transform="translate(2.023 8.77)">
                  <g id="Group_2235" data-name="Group 2235">
                    <path id="Path_4201" data-name="Path 4201" d="M517.766,212.123c.02.105-5.1,1.162-11.427,2.36s-11.48,2.086-11.5,1.98,5.1-1.161,11.428-2.36S517.747,212.018,517.766,212.123Z" transform="translate(-494.84 -212.115)" fill="#263238"/>
                  </g>
                </g>
                <g id="Group_2238" data-name="Group 2238" transform="translate(2.584 11.806)">
                  <g id="Group_2237" data-name="Group 2237">
                    <path id="Path_4202" data-name="Path 4202" d="M518.136,216.215a4.12,4.12,0,0,1-.872.242l-2.4.517c-2.033.421-4.846.975-7.958,1.564s-5.934,1.1-7.98,1.453l-2.426.4a4.072,4.072,0,0,1-.9.093,4.114,4.114,0,0,1,.872-.241l2.4-.518c2.033-.421,4.846-.975,7.959-1.564s5.932-1.1,7.979-1.453l2.427-.4A4.01,4.01,0,0,1,518.136,216.215Z" transform="translate(-495.596 -216.206)" fill="#263238"/>
                  </g>
                </g>
              </g>
            </g>
            <g id="Group_2242" data-name="Group 2242" transform="translate(23.332 7.099)">
              <g id="Group_2241" data-name="Group 2241">
                <path id="Path_4203" data-name="Path 4203" d="M492.8,199.065a3.938,3.938,0,0,1,.567-.309,14.611,14.611,0,0,1,1.718-.69,15.764,15.764,0,0,1,6.751-.631,14.457,14.457,0,0,1,4.534,1.3,6.217,6.217,0,0,1,2.093,1.645,3.167,3.167,0,0,1,.636,2.75,4.651,4.651,0,0,1-1.748,2.405,14.482,14.482,0,0,1-2.642,1.562,24.574,24.574,0,0,1-6.067,2.078,14.645,14.645,0,0,1-6.413-.085,9.39,9.39,0,0,1-2.85-1.176,4.706,4.706,0,0,1-1.94-2.255,3.313,3.313,0,0,1,.312-2.807,6.85,6.85,0,0,1,1.811-1.948,17.763,17.763,0,0,1,4.143-2.252,18.269,18.269,0,0,1,6.683-1.187,16.5,16.5,0,0,1,1.846.139,4.027,4.027,0,0,1,.634.115,3.962,3.962,0,0,1-.643-.038c-.42-.035-1.04-.068-1.838-.067a18.836,18.836,0,0,0-6.585,1.292,17.75,17.75,0,0,0-4.046,2.252,6.547,6.547,0,0,0-1.711,1.861,2.966,2.966,0,0,0-.272,2.519,4.362,4.362,0,0,0,1.806,2.066,9.064,9.064,0,0,0,2.741,1.118,14.336,14.336,0,0,0,6.249.073,24.385,24.385,0,0,0,5.975-2.04,14.227,14.227,0,0,0,2.579-1.511,4.307,4.307,0,0,0,1.63-2.2,2.818,2.818,0,0,0-.559-2.457,5.927,5.927,0,0,0-1.971-1.568,14.343,14.343,0,0,0-4.421-1.318,16.118,16.118,0,0,0-6.672.5c-.762.233-1.342.455-1.73.617A4.071,4.071,0,0,1,492.8,199.065Z" transform="translate(-487.258 -197.315)" fill="#435f69"/>
              </g>
            </g>
            <g id="Group_2244" data-name="Group 2244" transform="translate(44.128 2.129)">
              <g id="Group_2243" data-name="Group 2243">
                <path id="Path_4204" data-name="Path 4204" d="M515.289,196.95a65.2,65.2,0,0,1,7.785-6.33,65.366,65.366,0,0,1-7.785,6.33Z" transform="translate(-515.287 -190.616)" fill="#435f69"/>
              </g>
            </g>
            <g id="Group_2246" data-name="Group 2246" transform="translate(43.659 5.117)">
              <g id="Group_2245" data-name="Group 2245">
                <path id="Path_4205" data-name="Path 4205" d="M519.894,197.346a26.811,26.811,0,0,1-4.409,1.1l-.534.108-.3.06.072-.293a9.338,9.338,0,0,1,1.606-3.679c.1.05-.726,1.594-1.233,3.769l-.225-.232.533-.111A26.88,26.88,0,0,1,519.894,197.346Z" transform="translate(-514.655 -194.644)" fill="#435f69"/>
              </g>
            </g>
            <g id="Group_2248" data-name="Group 2248" transform="translate(26.913 11.018)">
              <g id="Group_2247" data-name="Group 2247">
                <path id="Path_4206" data-name="Path 4206" d="M506.138,202.614a131.056,131.056,0,0,1-14.054,2.158,130.615,130.615,0,0,1,14.054-2.158Z" transform="translate(-492.084 -202.597)" fill="#435f69"/>
              </g>
            </g>
          </g>
        </g>
        <g id="Group_2251" data-name="Group 2251" transform="translate(18.532 2.706)">
          <path id="Path_4207" data-name="Path 4207" d="M487.286,194.077a3.265,3.265,0,1,1-3.815-2.6A3.265,3.265,0,0,1,487.286,194.077Z" transform="translate(-480.795 -191.401)" fill="#cde5e5"/>
          <path id="Path_4208" data-name="Path 4208" d="M484.071,197.962a3.285,3.285,0,1,1,.612-.058A3.289,3.289,0,0,1,484.071,197.962Zm.008-6.531a3.247,3.247,0,1,0,3.182,2.643,3.248,3.248,0,0,0-3.182-2.643Z" transform="translate(-480.789 -191.394)" fill="#cde5e5"/>
        </g>
      </g>
      <g id="Group_2253" data-name="Group 2253" transform="translate(195.834 87.381)">
        <path id="Path_4209" data-name="Path 4209" d="M196.77,89.878l265.592,7.235.165-7.915Z" transform="translate(-196.77 -89.198)" fill="#e0e0e0"/>
      </g>
      <g id="Group_2254" data-name="Group 2254" transform="translate(193.143 82.154)">
        <rect id="Rectangle_712" data-name="Rectangle 712" width="274.143" height="5.906" fill="#455a64"/>
      </g>
    </g>
    <line id="Line_206" data-name="Line 206" x2="315" transform="translate(277 3459)" fill="none" stroke="#707070" stroke-width="1"/>
    <line id="Line_207" data-name="Line 207" x2="315" transform="translate(1288 3459)" fill="none" stroke="#707070" stroke-width="1"/>
  </g>
</svg>
