<svg xmlns="http://www.w3.org/2000/svg" xmlns:xlink="http://www.w3.org/1999/xlink" width="1076.865" height="507.282" viewBox="0 0 1076.865 507.282">
  <defs>
    <radialGradient id="radial-gradient" cx="0.482" cy="-2.793" r="3.662" gradientTransform="matrix(-0.253, 0, 0, 1, -0.063, 0)" gradientUnits="objectBoundingBox">
      <stop offset="0.874" stop-color="#c4c4c4"/>
      <stop offset="0.922" stop-color="#e0e0e0"/>
      <stop offset="0.969" stop-color="#f6f6f6"/>
      <stop offset="1" stop-color="#fff"/>
    </radialGradient>
    <linearGradient id="linear-gradient" x1="0.745" y1="0.335" x2="-0.164" y2="0.601" gradientUnits="objectBoundingBox">
      <stop offset="0" stop-color="#ccc"/>
      <stop offset="0.314" stop-color="#e7e7e7"/>
      <stop offset="0.602" stop-color="#f8f8f8"/>
      <stop offset="0.811" stop-color="#fff"/>
    </linearGradient>
    <linearGradient id="linear-gradient-2" x1="-3.695" y1="0.17" x2="-2.825" y2="0.722" gradientUnits="objectBoundingBox">
      <stop offset="0" stop-color="#ccc"/>
      <stop offset="0.385" stop-color="#e7e7e7"/>
      <stop offset="0.737" stop-color="#f8f8f8"/>
      <stop offset="0.994" stop-color="#fff"/>
    </linearGradient>
    <radialGradient id="radial-gradient-2" cx="0.543" cy="-6.843" r="7.826" gradientTransform="matrix(-0.137, 0, 0, 1, -0.466, 0)" gradientUnits="objectBoundingBox">
      <stop offset="0.913" stop-color="#4f4f4f"/>
      <stop offset="0.923" stop-color="#565656"/>
      <stop offset="0.936" stop-color="#6a6a6a"/>
      <stop offset="0.953" stop-color="#8b8b8b"/>
      <stop offset="0.972" stop-color="#b8b8b8"/>
      <stop offset="0.992" stop-color="#f2f2f2"/>
      <stop offset="0.996" stop-color="#fff"/>
    </radialGradient>
    <linearGradient id="linear-gradient-3" x1="0.548" y1="0.265" x2="-0.482" y2="0.578" gradientUnits="objectBoundingBox">
      <stop offset="0" stop-color="#6e6e6e"/>
      <stop offset="0.362" stop-color="#9f9f9f"/>
      <stop offset="1" stop-color="#fff"/>
    </linearGradient>
    <linearGradient id="linear-gradient-4" x1="-3.889" y1="0.218" x2="-2.953" y2="0.688" gradientUnits="objectBoundingBox">
      <stop offset="0.027" stop-color="#6e6e6e"/>
      <stop offset="0.344" stop-color="#9f9f9f"/>
      <stop offset="0.904" stop-color="#fff"/>
    </linearGradient>
    <radialGradient id="radial-gradient-3" cx="0.469" cy="-6.5" r="8.357" gradientTransform="matrix(-0.099, 0, 0, 1, -1.352, 0)" gradientUnits="objectBoundingBox">
      <stop offset="0.767" stop-color="#b8b8b8"/>
      <stop offset="0.931" stop-color="#e9e9e9"/>
      <stop offset="1" stop-color="#fff"/>
    </radialGradient>
    <linearGradient id="linear-gradient-5" x1="-0.936" y1="0.501" x2="0.133" y2="0.473" gradientUnits="objectBoundingBox">
      <stop offset="0.084" stop-color="#fff"/>
      <stop offset="1" stop-color="#c4c4c4"/>
    </linearGradient>
    <linearGradient id="linear-gradient-6" x1="-4.389" y1="0.32" x2="-3.513" y2="0.581" gradientUnits="objectBoundingBox">
      <stop offset="0" stop-color="#c4c4c4"/>
      <stop offset="0.841" stop-color="#f5f5f5"/>
      <stop offset="1" stop-color="#fff"/>
    </linearGradient>
    <linearGradient id="linear-gradient-7" x1="-0.82" y1="0.478" x2="-2.801" y2="0.513" gradientUnits="objectBoundingBox">
      <stop offset="0.535" stop-color="#676767"/>
      <stop offset="0.64" stop-color="#8b8b8b"/>
      <stop offset="0.887" stop-color="#dedede"/>
      <stop offset="1" stop-color="#fff"/>
    </linearGradient>
    <linearGradient id="linear-gradient-8" x1="-5.893" y1="0.339" x2="-4.836" y2="0.69" gradientUnits="objectBoundingBox">
      <stop offset="0.246" stop-color="#959595"/>
      <stop offset="0.315" stop-color="#999"/>
      <stop offset="0.392" stop-color="#a7a7a7"/>
      <stop offset="0.473" stop-color="#bdbdbd"/>
      <stop offset="0.556" stop-color="#dcdcdc"/>
      <stop offset="0.631" stop-color="#fff"/>
    </linearGradient>
  </defs>
  <g id="Group_2618" data-name="Group 2618" transform="translate(-311 -2730.868)">
    <line id="Line_4" data-name="Line 4" x1="156" transform="translate(923.5 2772.5)" fill="none" stroke="#da0000" stroke-width="2"/>
    <line id="Line_8" data-name="Line 8" y1="20" transform="translate(923.5 2762.5)" fill="none" stroke="#da0000" stroke-width="2"/>
    <line id="Line_9" data-name="Line 9" y1="20" transform="translate(852.5 2857.5)" fill="none" stroke="#f26900" stroke-width="2"/>
    <line id="Line_10" data-name="Line 10" y1="20" transform="translate(779.5 2950.5)" fill="none" stroke="#e99e00" stroke-width="2"/>
    <line id="Line_11" data-name="Line 11" y1="20" transform="translate(735.5 3044.5)" fill="none" stroke="#004573" stroke-width="2"/>
    <line id="Line_5" data-name="Line 5" x1="156" transform="translate(852.5 2866.5)" fill="none" stroke="#f26900" stroke-width="2"/>
    <line id="Line_6" data-name="Line 6" x1="156" transform="translate(779.5 2960.5)" fill="none" stroke="#e99e00" stroke-width="2"/>
    <line id="Line_7" data-name="Line 7" x1="156" transform="translate(735.5 3054.5)" fill="none" stroke="#004573" stroke-width="2"/>
    <g id="pyramid" transform="translate(701.662 2708.922)">
      <g id="shadow" transform="translate(83.58 292.552)" opacity="0.213">
        <path id="Path_230" data-name="Path 230" d="M455.868,473.56c7.578-.132,150.4-154.384,157.528-173.977,5.293-14.549-312.6-52.456-312.6-52.456-16.433-2.375-108.029-14.712-123.378-8.526,0,0-177.291,114.243-166.067,120.049C35.036,370.921,443.629,473.777,455.868,473.56Z" transform="translate(-10.838 -236.884)" fill="#fff" opacity="0"/>
        <path id="Path_231" data-name="Path 231" d="M300.423,247.131c-16.335-2.36-107.828-14.431-123.084-8.281,0,0-176.972,113.885-165.813,119.658,12,6.215,124.25,36.014,232.493,63.589,104.182,26.54,205.788,51.272,211.756,51.167,4.078-.071,47.885-45.386,88.144-89.831,34.189-37.739,65.942-74.995,69.191-83.925,3.887-10.681-169.071-34.3-258.936-45.776C322.263,249.655,300.511,247.1,300.423,247.131Z" transform="translate(-10.795 -236.827)" fill="#fefefe" opacity="0.006"/>
        <path id="Path_232" data-name="Path 232" d="M300.052,247.136c-16.236-2.347-107.626-14.149-122.791-8.036,0,0-176.651,113.529-165.561,119.267,11.926,6.178,124.446,36.009,232.357,63.49C347.9,448.3,449.747,473.074,455.68,472.969c4.054-.071,47.908-45.436,88.028-89.723,34.175-37.715,65.885-74.933,69.115-83.81,3.862-10.617-169.684-34.369-259.012-45.777C322,249.591,300.228,247.066,300.052,247.136Z" transform="translate(-10.752 -236.769)" fill="#fdfdfd" opacity="0.012"/>
        <path id="Path_233" data-name="Path 233" d="M299.681,247.141c-16.138-2.332-107.424-13.867-122.5-7.79,0,0-176.33,113.172-165.307,118.876,11.854,6.141,124.64,36,232.219,63.39,103.5,26.35,205.594,51.16,211.489,51.057,4.03-.071,47.931-45.487,87.912-89.615,34.161-37.69,65.829-74.872,69.04-83.7,3.84-10.552-170.3-34.437-259.085-45.777C321.735,249.528,299.945,247.036,299.681,247.141Z" transform="translate(-10.709 -236.713)" fill="#fcfcfc" opacity="0.018"/>
        <path id="Path_234" data-name="Path 234" d="M299.311,247.146c-16.041-2.318-107.224-13.584-122.206-7.545,0,0-176.01,112.816-165.053,118.485,11.781,6.1,124.835,36,232.081,63.291,103.158,26.253,205.5,51.1,211.357,51,4.005-.069,47.955-45.537,87.8-89.508,34.146-37.664,65.773-74.812,68.964-83.581,3.816-10.489-170.908-34.508-259.159-45.78C321.472,249.465,299.661,247.005,299.311,247.146Z" transform="translate(-10.666 -236.656)" fill="#fbfbfb" opacity="0.024"/>
        <path id="Path_235" data-name="Path 235" d="M298.94,247.153c-15.942-2.3-107.022-13.3-121.913-7.3,0,0-175.689,112.459-164.8,118.094,11.709,6.066,125.029,35.994,231.943,63.191,102.815,26.156,205.4,51.048,211.223,50.945,3.981-.069,47.977-45.588,87.682-89.4,34.13-37.639,65.717-74.751,68.889-83.467,3.792-10.424-171.521-34.577-259.233-45.78C321.209,249.4,299.379,246.976,298.94,247.153Z" transform="translate(-10.623 -236.599)" fill="#fafafa" opacity="0.03"/>
        <path id="Path_236" data-name="Path 236" d="M298.569,247.158c-15.845-2.291-106.82-13.023-121.62-7.057,0,0-175.369,112.1-164.546,117.7,11.639,6.029,125.224,35.989,231.807,63.091,102.473,26.061,205.3,50.993,211.089,50.891,3.957-.069,48-45.639,87.566-89.293,34.116-37.613,65.661-74.688,68.813-83.351,3.77-10.361-172.131-34.646-259.306-45.781C320.946,249.338,299.1,246.945,298.569,247.158Z" transform="translate(-10.58 -236.542)" fill="#f9f9f9" opacity="0.036"/>
        <path id="Path_237" data-name="Path 237" d="M298.2,247.163c-15.748-2.278-106.62-12.74-121.328-6.811,0,0-175.048,111.747-164.292,117.311,11.566,5.992,125.419,35.984,231.67,62.992,102.132,25.966,205.2,50.936,210.957,50.835,3.931-.068,48.023-45.689,87.449-89.186,34.1-37.588,65.605-74.627,68.738-83.237,3.745-10.3-172.743-34.716-259.382-45.781C320.681,249.274,298.813,246.914,298.2,247.163Z" transform="translate(-10.537 -236.486)" fill="#f8f8f8" opacity="0.042"/>
        <path id="Path_238" data-name="Path 238" d="M297.828,247.169c-15.649-2.263-106.417-12.458-121.035-6.566,0,0-174.729,111.39-164.038,116.92,11.494,5.955,125.613,35.979,231.532,62.893C346.076,446.285,449.394,471.3,455.111,471.2c3.908-.068,48.045-45.739,87.333-89.078,34.088-37.564,65.549-74.567,68.662-83.122,3.723-10.233-173.355-34.785-259.455-45.782C320.418,249.211,298.53,246.885,297.828,247.169Z" transform="translate(-10.494 -236.429)" fill="#f7f7f7" opacity="0.048"/>
        <path id="Path_239" data-name="Path 239" d="M297.457,247.174c-15.551-2.249-106.215-12.176-120.741-6.321,0,0-174.408,111.034-163.784,116.529,11.422,5.918,125.807,35.974,231.395,62.793C345.773,445.949,449.335,471,455.016,470.9c3.883-.068,48.069-45.79,87.218-88.97,34.073-37.538,65.492-74.5,68.587-83.007,3.7-10.169-173.968-34.855-259.529-45.784C320.154,249.149,298.248,246.855,297.457,247.174Z" transform="translate(-10.451 -236.373)" fill="#f6f6f6" opacity="0.054"/>
        <path id="Path_240" data-name="Path 240" d="M297.088,247.18c-15.455-2.234-106.014-11.894-120.449-6.076,0,0-174.088,110.677-163.532,116.138,11.352,5.881,126,35.969,231.257,62.694,101.105,25.677,204.912,50.769,210.557,50.669,3.859-.067,48.092-45.841,87.1-88.863,34.058-37.513,65.436-74.444,68.511-82.893,3.676-10.105-174.58-34.925-259.6-45.784C319.891,249.085,297.965,246.826,297.088,247.18Z" transform="translate(-10.408 -236.317)" fill="#f5f5f5" opacity="0.06"/>
        <path id="Path_241" data-name="Path 241" d="M296.717,247.186c-15.356-2.221-105.813-11.613-120.156-5.831,0,0-173.767,110.321-163.278,115.747,11.278,5.843,126.2,35.964,231.12,62.595,100.764,25.581,204.814,50.712,210.423,50.613,3.835-.067,48.114-45.891,86.986-88.756,34.045-37.487,65.381-74.382,68.436-82.777,3.654-10.042-175.192-34.994-259.676-45.785C319.628,249.023,297.682,246.8,296.717,247.186Z" transform="translate(-10.365 -236.261)" fill="#f4f4f4" opacity="0.065"/>
        <path id="Path_242" data-name="Path 242" d="M296.346,247.192c-15.258-2.206-105.611-11.33-119.862-5.585,0,0-173.448,109.963-163.024,115.355,11.207,5.806,126.392,35.96,230.983,62.495,100.421,25.487,204.716,50.658,210.291,50.559,3.81-.067,48.137-45.942,86.87-88.649,34.03-37.462,65.324-74.32,68.36-82.663,3.629-9.978-175.8-35.063-259.752-45.785C319.363,248.96,297.4,246.767,296.346,247.192Z" transform="translate(-10.322 -236.205)" fill="#f3f3f3" opacity="0.071"/>
        <path id="Path_243" data-name="Path 243" d="M295.976,247.2c-15.161-2.192-105.41-11.048-119.572-5.34,0,0-173.126,109.606-162.77,114.963,11.135,5.769,126.586,35.955,230.845,62.4,100.079,25.39,204.618,50.6,210.157,50.5,3.785-.066,48.16-45.993,86.755-88.541,34.014-37.437,65.267-74.26,68.284-82.548,3.607-9.913-176.416-35.133-259.825-45.786C319.1,248.9,297.116,246.738,295.976,247.2Z" transform="translate(-10.279 -236.149)" fill="#f2f2f2" opacity="0.077"/>
        <path id="Path_244" data-name="Path 244" d="M295.605,247.2c-15.062-2.177-105.209-10.766-119.278-5.095,0,0-172.805,109.25-162.517,114.572,11.063,5.732,126.782,35.95,230.709,62.3,99.736,25.294,204.521,50.545,210.024,50.447,3.762-.065,48.182-46.043,86.638-88.433,34-37.411,65.213-74.2,68.209-82.434,3.583-9.849-177.029-35.2-259.9-45.786C318.837,248.836,296.834,246.709,295.605,247.2Z" transform="translate(-10.236 -236.094)" fill="#f1f1f1" opacity="0.083"/>
        <path id="Path_245" data-name="Path 245" d="M295.234,247.211c-14.965-2.164-105.007-10.484-118.985-4.85,0,0-172.485,108.893-162.263,114.181,10.991,5.695,126.976,35.945,230.57,62.2,99.4,25.2,204.424,50.49,209.891,50.393,3.737-.066,48.206-46.093,86.523-88.325,33.985-37.387,65.156-74.137,68.134-82.319,3.56-9.786-177.641-35.273-259.973-45.787C318.573,248.773,296.551,246.68,295.234,247.211Z" transform="translate(-10.193 -236.039)" fill="#f0f0f0" opacity="0.089"/>
        <path id="Path_246" data-name="Path 246" d="M294.864,247.218c-14.868-2.149-104.806-10.2-118.693-4.6,0,0-172.165,108.537-162.01,113.79,10.92,5.657,127.17,35.94,230.433,62.1,99.054,25.1,204.326,50.434,209.758,50.337,3.712-.064,48.229-46.144,86.408-88.219,33.97-37.361,65.1-74.075,68.057-82.2,3.536-9.721-178.253-35.341-260.048-45.787C318.31,248.712,296.268,246.651,294.864,247.218Z" transform="translate(-10.15 -235.984)" fill="#efefef" opacity="0.095"/>
        <path id="Path_247" data-name="Path 247" d="M294.493,247.225c-14.769-2.135-104.6-9.921-118.4-4.359,0,0-171.845,108.18-161.756,113.4,10.848,5.619,127.365,35.935,230.3,62,98.712,25.005,204.228,50.377,209.625,50.282,3.687-.064,48.25-46.195,86.291-88.111,33.957-37.336,65.044-74.014,67.983-82.088,3.513-9.658-178.865-35.411-260.122-45.789C318.045,248.65,295.985,246.623,294.493,247.225Z" transform="translate(-10.107 -235.929)" fill="#eee" opacity="0.101"/>
        <path id="Path_248" data-name="Path 248" d="M294.123,247.232c-14.671-2.121-104.4-9.638-118.106-4.114,0,0-171.524,107.824-161.5,113.008,10.776,5.582,127.56,35.93,230.16,61.9,98.37,24.91,204.131,50.321,209.491,50.226,3.662-.064,48.274-46.245,86.176-88,33.942-37.311,64.987-73.953,67.906-81.975,3.49-9.593-179.477-35.479-260.2-45.789C317.782,248.589,295.7,246.595,294.123,247.232Z" transform="translate(-10.065 -235.874)" fill="#ededed" opacity="0.107"/>
        <path id="Path_249" data-name="Path 249" d="M293.753,247.24c-14.573-2.107-104.2-9.356-117.814-3.869,0,0-171.2,107.468-161.25,112.617,10.7,5.545,127.754,35.925,230.022,61.8,98.027,24.815,204.033,50.266,209.358,50.171,3.639-.063,48.3-46.3,86.06-87.9,33.927-37.285,64.931-73.892,67.831-81.859,3.467-9.53-180.09-35.55-260.269-45.79C317.519,248.528,295.42,246.568,293.753,247.24Z" transform="translate(-10.022 -235.82)" fill="#ececec" opacity="0.113"/>
        <path id="Path_250" data-name="Path 250" d="M293.382,247.247c-14.476-2.093-104-9.074-117.522-3.624,0,0-170.883,107.111-160.995,112.225,10.632,5.508,127.949,35.92,229.884,61.7,97.687,24.718,203.936,50.209,209.225,50.116,3.614-.063,48.32-46.347,85.944-87.788,33.912-37.26,64.876-73.831,67.755-81.746,3.445-9.465-180.7-35.618-260.342-45.79C317.256,248.467,295.137,246.539,293.382,247.247Z" transform="translate(-9.979 -235.765)" fill="#ebebeb" opacity="0.119"/>
        <path id="Path_251" data-name="Path 251" d="M293.011,247.255c-14.378-2.078-103.8-8.793-117.229-3.379,0,0-170.562,106.755-160.741,111.834,10.559,5.471,128.143,35.915,229.746,61.6,97.344,24.622,203.838,50.153,209.092,50.06,3.591-.063,48.343-46.4,85.829-87.681,33.9-37.236,64.819-73.769,67.68-81.63,3.42-9.4-181.314-35.688-260.418-45.792C316.992,248.407,294.854,246.513,293.011,247.255Z" transform="translate(-9.936 -235.712)" fill="#eaeaea" opacity="0.125"/>
        <path id="Path_252" data-name="Path 252" d="M292.641,247.264c-14.28-2.065-103.6-8.511-116.936-3.134,0,0-170.242,106.4-160.488,111.443,10.489,5.434,128.339,35.91,229.61,61.5,97,24.526,203.742,50.1,208.958,50.006,3.566-.062,48.367-46.447,85.714-87.574,33.883-37.21,64.762-73.708,67.6-81.515,3.4-9.338-181.926-35.758-260.492-45.792C316.729,248.346,294.571,246.485,292.641,247.264Z" transform="translate(-9.893 -235.658)" fill="#e9e9e9" opacity="0.131"/>
        <path id="Path_253" data-name="Path 253" d="M292.27,247.272c-14.182-2.05-103.4-8.229-116.643-2.889,0,0-169.923,106.042-160.235,111.052,10.417,5.4,128.533,35.905,229.473,61.4,96.661,24.431,203.644,50.041,208.825,49.95,3.541-.062,48.388-46.5,85.6-87.467,33.869-37.184,64.708-73.647,67.529-81.4,3.374-9.273-182.538-35.827-260.565-45.794C316.465,248.286,294.289,246.459,292.27,247.272Z" transform="translate(-9.85 -235.605)" fill="#e8e8e8" opacity="0.137"/>
        <path id="Path_254" data-name="Path 254" d="M291.9,247.281c-14.084-2.036-103.195-7.946-116.35-2.644,0,0-169.6,105.685-159.981,110.661,10.345,5.36,128.727,35.9,229.335,61.3C341.222,440.936,448.45,466.586,453.6,466.5c3.517-.062,48.411-46.549,85.481-87.359,33.854-37.159,64.651-73.585,67.453-81.286,3.351-9.209-183.15-35.9-260.639-45.793C316.2,248.227,294.006,246.432,291.9,247.281Z" transform="translate(-9.807 -235.552)" fill="#e7e7e7" opacity="0.143"/>
        <path id="Path_255" data-name="Path 255" d="M291.53,247.291c-13.987-2.021-102.994-7.664-116.058-2.4,0,0-169.281,105.329-159.727,110.27,10.272,5.322,128.922,35.894,229.2,61.2,95.977,24.239,203.45,49.93,208.559,49.84,3.493-.061,48.435-46.6,85.366-87.251,33.839-37.134,64.594-73.524,67.376-81.171,3.328-9.146-183.762-35.966-260.714-45.795C315.938,248.167,293.723,246.406,291.53,247.291Z" transform="translate(-9.764 -235.499)" fill="#e6e6e6" opacity="0.149"/>
        <path id="Path_256" data-name="Path 256" d="M291.159,247.3c-13.889-2.008-102.792-7.383-115.764-2.154,0,0-168.961,104.971-159.475,109.88,10.2,5.284,129.117,35.888,229.06,61.1C340.615,440.272,448.332,466,453.406,465.913c3.468-.061,48.457-46.65,85.25-87.143,33.826-37.109,64.538-73.464,67.3-81.057,3.3-9.081-184.375-36.035-260.788-45.795C315.675,248.109,293.44,246.381,291.159,247.3Z" transform="translate(-9.721 -235.447)" fill="#e5e5e5" opacity="0.155"/>
        <path id="Path_257" data-name="Path 257" d="M290.788,247.311C277,245.317,188.2,240.21,175.316,245.4c0,0-168.64,104.614-159.22,109.489,10.13,5.247,129.313,35.883,228.923,61,95.293,24.046,203.254,49.818,208.292,49.728,3.444-.061,48.481-46.7,85.135-87.037,33.81-37.083,64.482-73.4,67.227-80.941,3.28-9.018-184.987-36.105-260.862-45.8C315.412,248.05,293.157,246.355,290.788,247.311Z" transform="translate(-9.678 -235.396)" fill="#e4e4e4" opacity="0.161"/>
        <path id="Path_258" data-name="Path 258" d="M290.418,247.321c-13.693-1.979-102.389-6.819-115.18-1.664,0,0-168.32,104.258-158.966,109.1,10.057,5.21,129.507,35.878,228.786,60.9,94.95,23.951,203.157,49.762,208.16,49.674,3.419-.059,48.5-46.75,85.018-86.929,33.795-37.057,64.426-73.34,67.15-80.826,3.258-8.954-185.6-36.175-260.935-45.8C315.147,247.992,292.875,246.331,290.418,247.321Z" transform="translate(-9.635 -235.344)" fill="#e3e3e3" opacity="0.167"/>
        <path id="Path_259" data-name="Path 259" d="M290.047,247.333c-13.6-1.966-102.187-6.537-114.887-1.418,0,0-168,103.9-158.712,108.706,9.985,5.173,129.7,35.873,228.648,60.8,94.608,23.855,203.059,49.706,208.026,49.618,3.394-.059,48.525-46.8,84.9-86.822,33.781-37.033,64.37-73.279,67.076-80.712,3.234-8.89-186.212-36.244-261.01-45.8C314.884,247.936,292.592,246.307,290.047,247.333Z" transform="translate(-9.592 -235.294)" fill="#e2e2e2" opacity="0.173"/>
        <path id="Path_260" data-name="Path 260" d="M289.676,247.344c-13.5-1.951-101.985-6.254-114.593-1.173,0,0-167.68,103.545-158.46,108.315,9.914,5.135,129.9,35.868,228.511,60.7C339.4,438.95,448.1,464.84,453.028,464.754c3.37-.059,48.549-46.852,84.787-86.714,33.766-37.008,64.314-73.217,67-80.6,3.212-8.827-186.823-36.314-261.084-45.8C314.621,247.878,292.309,246.284,289.676,247.344Z" transform="translate(-9.55 -235.244)" fill="#e1e1e1" opacity="0.179"/>
        <path id="Path_261" data-name="Path 261" d="M289.307,247.357c-13.4-1.937-101.785-5.973-114.3-.928,0,0-167.359,103.189-158.206,107.924,9.841,5.1,130.091,35.863,228.373,60.6,93.925,23.664,202.864,49.595,207.76,49.508,3.346-.058,48.572-46.9,84.672-86.606,33.751-36.983,64.257-73.157,66.923-80.483,3.187-8.762-187.436-36.383-261.158-45.8C314.358,247.822,292.026,246.26,289.307,247.357Z" transform="translate(-9.507 -235.194)" fill="#e0e0e0" opacity="0.185"/>
        <path id="Path_262" data-name="Path 262" d="M288.936,247.37c-13.3-1.922-101.583-5.691-114.008-.682,0,0-167.039,102.831-157.952,107.532,9.77,5.061,130.286,35.858,228.236,60.506,93.584,23.567,202.767,49.538,207.626,49.451,3.322-.057,48.595-46.952,84.555-86.5,33.738-36.957,64.2-73.095,66.849-80.367,3.164-8.7-188.048-36.453-261.232-45.8C314.094,247.767,291.744,246.239,288.936,247.37Z" transform="translate(-9.464 -235.145)" fill="#dfdfdf" opacity="0.19"/>
        <path id="Path_263" data-name="Path 263" d="M288.565,247.384c-13.2-1.909-101.381-5.409-113.714-.437,0,0-166.718,102.474-157.7,107.141,9.7,5.024,130.48,35.853,228.1,60.406,93.241,23.47,202.669,49.482,207.492,49.4,3.3-.057,48.618-47,84.44-86.391,33.723-36.931,64.146-73.033,66.772-80.253,3.141-8.633-188.66-36.521-261.305-45.8C313.83,247.712,291.461,246.217,288.565,247.384Z" transform="translate(-9.421 -235.097)" fill="#dedede" opacity="0.196"/>
        <path id="Path_264" data-name="Path 264" d="M288.2,247.4c-13.107-1.894-101.181-5.127-113.422-.192,0,0-166.4,102.118-157.446,106.75C26.954,358.943,148,389.8,245.289,414.262c92.9,23.376,202.571,49.426,207.36,49.341,3.273-.056,48.64-47.052,84.323-86.283,33.708-36.906,64.09-72.972,66.7-80.138,3.118-8.57-189.272-36.592-261.38-45.8C313.567,247.658,291.178,246.2,288.2,247.4Z" transform="translate(-9.378 -235.05)" fill="#ddd" opacity="0.202"/>
        <path id="Path_265" data-name="Path 265" d="M287.824,247.414c-13.009-1.88-100.979-4.845-113.13.053,0,0-166.077,101.761-157.191,106.358,9.554,4.95,130.87,35.843,227.824,60.207,92.557,23.28,202.474,49.371,207.228,49.285,3.248-.056,48.663-47.1,84.207-86.176,33.693-36.882,64.033-72.912,66.621-80.024,3.094-8.506-189.884-36.66-261.454-45.8C313.3,247.6,290.9,246.176,287.824,247.414Z" transform="translate(-9.335 -235.004)" fill="#dcdcdc" opacity="0.208"/>
        <path id="Path_266" data-name="Path 266" d="M287.453,247.43c-12.911-1.865-100.777-4.562-112.837.3,0,0-165.756,101.4-156.937,105.967,9.483,4.913,131.064,35.838,227.686,60.108,92.216,23.183,202.377,49.314,207.094,49.23,3.224-.056,48.686-47.154,84.092-86.068,33.678-36.857,63.977-72.85,66.546-79.909,3.071-8.443-190.5-36.731-261.528-45.8C313.04,247.553,290.612,246.157,287.453,247.43Z" transform="translate(-9.292 -234.958)" fill="#dbdbdb" opacity="0.214"/>
        <path id="Path_267" data-name="Path 267" d="M287.084,247.448c-12.813-1.852-100.577-4.281-112.545.543,0,0-165.436,101.048-156.683,105.576,9.411,4.876,131.259,35.833,227.549,60.009,91.873,23.087,202.279,49.258,206.96,49.174,3.2-.054,48.71-47.2,83.976-85.961C570.005,339.958,600.262,304,602.811,297c3.049-8.378-191.108-36.8-261.6-45.8C312.777,247.5,290.33,246.14,287.084,247.448Z" transform="translate(-9.249 -234.914)" fill="#dadada" opacity="0.22"/>
        <path id="Path_268" data-name="Path 268" d="M286.713,247.466c-12.716-1.838-100.375-4-112.251.788,0,0-165.116,100.692-156.431,105.185,9.339,4.838,131.454,35.828,227.413,59.909,91.531,22.992,202.181,49.2,206.826,49.119,3.175-.055,48.732-47.255,83.861-85.854,33.65-36.8,63.865-72.727,66.395-79.678,3.025-8.314-191.721-36.869-261.675-45.8C312.513,247.452,290.047,246.122,286.713,247.466Z" transform="translate(-9.206 -234.87)" fill="#d9d9d9" opacity="0.226"/>
        <path id="Path_269" data-name="Path 269" d="M286.342,247.486c-12.617-1.823-100.173-3.717-111.958,1.034,0,0-164.8,100.335-156.177,104.794,9.267,4.8,131.648,35.823,227.276,59.81,91.188,22.895,202.083,49.147,206.694,49.064,3.15-.054,48.754-47.306,83.745-85.746,33.635-36.78,63.808-72.665,66.319-79.565,3-8.25-192.332-36.939-261.751-45.8C312.25,247.4,289.764,246.107,286.342,247.486Z" transform="translate(-9.164 -234.828)" fill="#d8d8d8" opacity="0.232"/>
        <path id="Path_270" data-name="Path 270" d="M285.972,247.507c-12.52-1.81-99.973-3.435-111.666,1.279,0,0-164.475,99.979-155.923,104.4,9.2,4.764,131.843,35.818,227.137,59.711,90.848,22.8,201.988,49.09,206.562,49.008,3.125-.053,48.778-47.356,83.628-85.638,33.621-36.755,63.753-72.6,66.244-79.449,2.978-8.187-192.944-37.008-261.824-45.806C311.986,247.355,289.481,246.093,285.972,247.507Z" transform="translate(-9.121 -234.788)" fill="#d7d7d7" opacity="0.238"/>
        <path id="Path_271" data-name="Path 271" d="M285.6,247.53c-12.422-1.795-99.771-3.153-111.373,1.524,0,0-164.156,99.623-155.67,104.012,9.124,4.727,132.037,35.813,227,59.611,90.506,22.7,201.89,49.035,206.428,48.953,3.1-.053,48.8-47.406,83.513-85.531,33.605-36.731,63.7-72.544,66.168-79.336,2.955-8.122-193.556-37.077-261.9-45.806C311.723,247.31,289.2,246.08,285.6,247.53Z" transform="translate(-9.078 -234.748)" fill="#d6d6d6" opacity="0.244"/>
        <path id="Path_272" data-name="Path 272" d="M285.231,247.555c-12.323-1.782-99.569-2.873-111.081,1.768,0,0-163.834,99.266-155.416,103.621,9.052,4.69,132.233,35.809,226.863,59.512,90.164,22.608,201.792,48.978,206.294,48.9,3.077-.053,48.824-47.457,83.4-85.423,33.59-36.706,63.64-72.483,66.092-79.221,2.932-8.059-194.168-37.146-261.971-45.807C311.46,247.266,288.917,246.069,285.231,247.555Z" transform="translate(-9.035 -234.71)" fill="#d5d5d5" opacity="0.25"/>
        <path id="Path_273" data-name="Path 273" d="M284.861,247.581c-12.227-1.768-99.369-2.591-110.788,2.013,0,0-163.513,98.91-155.162,103.229,8.98,4.653,132.427,35.8,226.726,59.413,89.822,22.511,201.695,48.921,206.161,48.842,3.054-.052,48.847-47.508,83.282-85.317,33.577-36.679,63.585-72.42,66.017-79.105C604,288.662,406.315,259.44,339.05,250.848,311.2,247.222,288.634,246.058,284.861,247.581Z" transform="translate(-8.992 -234.674)" fill="#d4d4d4" opacity="0.256"/>
        <path id="Path_274" data-name="Path 274" d="M284.49,247.608c-12.129-1.754-99.167-2.308-110.5,2.258,0,0-163.193,98.553-154.908,102.838,8.908,4.616,132.621,35.8,226.589,59.312,89.479,22.416,201.6,48.867,206.028,48.788,3.027-.052,48.868-47.559,83.165-85.209,33.562-36.654,63.528-72.36,65.942-78.99,2.885-7.93-195.393-37.286-262.121-45.808C310.932,247.181,288.351,246.051,284.49,247.608Z" transform="translate(-8.949 -234.639)" fill="#d3d3d3" opacity="0.262"/>
        <path id="Path_275" data-name="Path 275" d="M284.119,247.637c-12.03-1.739-98.965-2.026-110.2,2.5,0,0-162.873,98.2-154.655,102.447C28.1,357.165,152.078,388.38,245.714,411.8c89.137,22.321,201.5,48.81,205.894,48.732,3-.052,48.892-47.609,83.05-85.1,33.547-36.629,63.471-72.3,65.865-78.876,2.862-7.866-196-37.354-262.194-45.808C310.669,247.14,288.068,246.044,284.119,247.637Z" transform="translate(-8.906 -234.606)" fill="#d2d2d2" opacity="0.268"/>
        <path id="Path_276" data-name="Path 276" d="M283.75,247.667c-11.933-1.725-98.764-1.744-109.91,2.748,0,0-162.553,97.84-154.4,102.056,8.765,4.541,133.011,35.789,226.314,59.114,88.8,22.224,201.4,48.754,205.762,48.676,2.979-.051,48.915-47.659,82.934-84.993,33.533-36.6,63.417-72.237,65.791-78.761,2.838-7.8-196.617-37.425-262.268-45.81C310.406,247.1,287.786,246.04,283.75,247.667Z" transform="translate(-8.864 -234.575)" fill="#d1d1d1" opacity="0.274"/>
        <path id="Path_277" data-name="Path 277" d="M283.379,247.7c-11.836-1.712-98.562-1.463-109.616,2.993,0,0-162.232,97.484-154.148,101.665,8.693,4.5,133.206,35.784,226.176,59.014,88.454,22.129,201.3,48.7,205.628,48.622,2.956-.051,48.937-47.71,82.819-84.886,33.519-36.578,63.36-72.176,65.714-78.646,2.816-7.74-197.229-37.494-262.341-45.811C310.143,247.067,287.5,246.036,283.379,247.7Z" transform="translate(-8.821 -234.545)" fill="#d0d0d0" opacity="0.28"/>
        <path id="Path_278" data-name="Path 278" d="M283.008,247.733c-11.737-1.7-98.36-1.181-109.323,3.238,0,0-161.912,97.127-153.895,101.274,8.621,4.466,133.4,35.779,226.039,58.915,88.113,22.032,201.207,48.643,205.495,48.566,2.931-.051,48.961-47.76,82.7-84.779,33.5-36.552,63.3-72.115,65.639-78.531,2.792-7.674-197.842-37.564-262.416-45.811C309.88,247.032,287.22,246.035,283.008,247.733Z" transform="translate(-8.778 -234.517)" fill="#cfcfcf" opacity="0.286"/>
        <path id="Path_279" data-name="Path 279" d="M282.638,247.772c-11.64-1.683-98.16-.9-109.032,3.483,0,0-161.591,96.771-153.64,100.883,8.548,4.429,133.594,35.774,225.9,58.816,87.77,21.936,201.109,48.586,205.361,48.51,2.906-.049,48.984-47.811,82.587-84.672,33.489-36.528,63.248-72.053,65.563-78.416,2.769-7.611-198.453-37.634-262.49-45.812C309.615,247,286.937,246.038,282.638,247.772Z" transform="translate(-8.735 -234.494)" fill="#cecece" opacity="0.292"/>
        <path id="Path_280" data-name="Path 280" d="M282.268,247.829c-11.542-1.669-97.958-.616-108.739,3.728,0,0-161.271,96.414-153.387,100.491,8.477,4.392,133.79,35.768,225.765,58.716,87.428,21.842,201.011,48.531,205.228,48.456,2.882-.049,49.006-47.862,82.471-84.564,33.474-36.5,63.192-71.992,65.488-78.3,2.745-7.547-199.066-37.7-262.564-45.812C309.352,246.989,286.656,246.06,282.268,247.829Z" transform="translate(-8.692 -234.489)" fill="#cdcdcd" opacity="0.298"/>
        <path id="Path_281" data-name="Path 281" d="M281.9,247.885c-11.443-1.655-97.756-.334-108.445,3.973,0,0-160.95,96.057-153.134,100.1,8.406,4.354,133.984,35.763,225.627,58.617,87.087,21.745,200.915,48.475,205.1,48.4,2.857-.049,49.029-47.913,82.356-84.456,33.459-36.478,63.135-71.931,65.412-78.187,2.722-7.484-199.678-37.773-262.638-45.813C309.089,246.978,286.373,246.08,281.9,247.885Z" transform="translate(-8.649 -234.483)" fill="#ccc" opacity="0.304"/>
        <path id="Path_282" data-name="Path 282" d="M281.527,247.942c-11.347-1.64-97.555-.053-108.153,4.22,0,0-160.631,95.7-152.88,99.708,8.333,4.317,134.178,35.758,225.489,58.518,86.745,21.648,200.817,48.419,204.962,48.345,2.833-.048,49.053-47.962,82.239-84.349,33.446-36.452,63.079-71.869,65.337-78.073,2.7-7.419-200.29-37.841-262.712-45.813C308.826,246.966,286.09,246.1,281.527,247.942Z" transform="translate(-8.607 -234.478)" fill="#cbcbcb" opacity="0.31"/>
        <path id="Path_283" data-name="Path 283" d="M281.156,248c-11.249-1.626-97.354.229-107.86,4.465,0,0-160.31,95.342-152.626,99.318,8.261,4.279,134.373,35.752,225.352,58.416,86.4,21.553,200.719,48.363,204.829,48.29,2.808-.048,49.075-48.013,82.124-84.242,33.431-36.426,63.023-71.808,65.261-77.957,2.676-7.355-200.9-37.911-262.787-45.815C308.563,246.954,285.807,246.123,281.156,248Z" transform="translate(-8.564 -234.473)" fill="#cacaca" opacity="0.315"/>
        <path id="Path_284" data-name="Path 284" d="M280.786,248.055c-11.15-1.612-97.152.511-107.567,4.71,0,0-159.989,94.986-152.374,98.927,8.19,4.242,134.568,35.747,225.216,58.317,86.06,21.457,200.622,48.307,204.7,48.234,2.785-.048,49.1-48.064,82.009-84.134,33.416-36.4,62.966-71.747,65.184-77.843,2.653-7.29-201.514-37.98-262.86-45.816C308.3,246.942,285.524,246.144,280.786,248.055Z" transform="translate(-8.521 -234.468)" fill="#c9c9c9" opacity="0.321"/>
        <path id="Path_285" data-name="Path 285" d="M280.416,248.112c-11.053-1.6-96.951.793-107.274,4.955,0,0-159.669,94.629-152.12,98.536,8.118,4.2,134.763,35.742,225.079,58.218,85.717,21.36,200.524,48.25,204.563,48.179,2.759-.047,49.121-48.114,81.892-84.027,33.4-36.377,62.911-71.685,65.11-77.728,2.629-7.227-202.127-38.05-262.934-45.817C308.036,246.93,285.242,246.166,280.416,248.112Z" transform="translate(-8.478 -234.463)" fill="#c8c8c8" opacity="0.327"/>
        <path id="Path_286" data-name="Path 286" d="M280.045,248.169c-10.955-1.583-96.75,1.076-106.982,5.2,0,0-159.348,94.273-151.865,98.145,8.045,4.168,134.957,35.737,224.94,58.118,85.377,21.266,200.427,48.2,204.43,48.124,2.735-.047,49.143-48.165,81.777-83.919,33.386-36.352,62.855-71.624,65.034-77.614,2.605-7.163-202.739-38.119-263.009-45.817C307.772,246.919,284.959,246.187,280.045,248.169Z" transform="translate(-8.435 -234.458)" fill="#c7c7c7" opacity="0.333"/>
        <path id="Path_287" data-name="Path 287" d="M279.674,248.226c-10.856-1.569-96.548,1.357-106.689,5.445,0,0-159.028,93.917-151.611,97.754,7.974,4.13,135.151,35.732,224.8,58.019,85.036,21.169,200.329,48.139,204.3,48.069,2.711-.047,49.166-48.216,81.661-83.811,33.371-36.326,62.8-71.564,64.958-77.5,2.583-7.1-203.351-38.189-263.082-45.818C307.509,246.908,284.676,246.21,279.674,248.226Z" transform="translate(-8.393 -234.453)" fill="#c6c6c6" opacity="0.339"/>
        <path id="Path_288" data-name="Path 288" d="M279.3,248.283c-10.76-1.556-96.347,1.639-106.4,5.69,0,0-158.707,93.56-151.359,97.362,7.9,4.093,135.347,35.727,224.666,57.92,84.693,21.073,200.233,48.083,204.163,48.013,2.687-.046,49.19-48.265,81.545-83.7,33.358-36.3,62.742-71.5,64.883-77.385,2.56-7.034-203.964-38.258-263.157-45.818C307.246,246.9,284.393,246.231,279.3,248.283Z" transform="translate(-8.35 -234.448)" fill="#c5c5c5" opacity="0.345"/>
        <path id="Path_289" data-name="Path 289" d="M278.934,248.341c-10.661-1.541-96.146,1.921-106.1,5.935,0,0-158.387,93.2-151.1,96.971,7.83,4.056,135.541,35.722,224.529,57.821,84.351,20.976,200.135,48.026,204.029,47.957,2.662-.046,49.212-48.316,81.43-83.6,33.343-36.275,62.686-71.44,64.807-77.269,2.536-6.971-204.575-38.327-263.23-45.819C306.982,246.885,284.112,246.254,278.934,248.341Z" transform="translate(-8.307 -234.444)" fill="#c4c4c4" opacity="0.351"/>
        <path id="Path_290" data-name="Path 290" d="M278.563,248.4c-10.563-1.527-95.944,2.2-105.81,6.18,0,0-158.067,92.847-150.851,96.58,7.758,4.019,135.736,35.717,224.392,57.721,84.008,20.881,200.037,47.972,203.9,47.9,2.638-.046,49.236-48.367,81.314-83.49,33.329-36.25,62.631-71.379,64.732-77.155,2.513-6.907-205.188-38.4-263.3-45.82C306.719,246.874,283.829,246.275,278.563,248.4Z" transform="translate(-8.264 -234.439)" fill="#c3c3c3" opacity="0.357"/>
        <path id="Path_291" data-name="Path 291" d="M278.194,248.456c-10.467-1.513-95.743,2.485-105.518,6.425,0,0-157.747,92.491-150.6,96.189,7.687,3.982,135.93,35.712,224.253,57.622C330,429.477,446.272,456.607,450.1,456.538c2.613-.044,49.258-48.418,81.2-83.382,33.314-36.226,62.574-71.317,64.657-77.04,2.489-6.844-205.8-38.467-263.379-45.821C306.456,246.863,283.546,246.3,278.194,248.456Z" transform="translate(-8.222 -234.435)" fill="#c2c2c2" opacity="0.363"/>
        <path id="Path_292" data-name="Path 292" d="M277.823,248.513c-10.368-1.5-95.542,2.766-105.225,6.67,0,0-157.426,92.134-150.345,95.8,7.616,3.945,136.125,35.707,224.117,57.523C329.7,429.193,446.213,456.363,450,456.3c2.588-.045,49.28-48.468,81.082-83.274,33.3-36.2,62.518-71.257,64.58-76.926,2.467-6.779-206.412-38.535-263.453-45.821C306.193,246.852,283.263,246.32,277.823,248.513Z" transform="translate(-8.179 -234.431)" fill="#c1c1c1" opacity="0.369"/>
        <path id="Path_293" data-name="Path 293" d="M277.452,248.571c-10.27-1.484-95.34,3.049-104.931,6.915,0,0-157.107,91.778-150.091,95.407,7.543,3.908,136.32,35.7,223.979,57.422,82.983,20.594,199.745,47.8,203.5,47.737,2.565-.045,49.3-48.519,80.966-83.167,33.285-36.175,62.463-71.2,64.506-76.811,2.443-6.715-207.025-38.606-263.527-45.822C305.93,246.841,282.98,246.342,277.452,248.571Z" transform="translate(-8.136 -234.427)" fill="silver" opacity="0.375"/>
        <path id="Path_294" data-name="Path 294" d="M277.083,248.629c-10.173-1.47-95.138,3.331-104.641,7.16,0,0-156.785,91.421-149.836,95.016,7.471,3.87,136.514,35.7,223.842,57.323,82.642,20.5,199.647,47.748,203.363,47.681,2.54-.043,49.326-48.57,80.851-83.06,33.27-36.149,62.406-71.133,64.429-76.7,2.42-6.65-207.636-38.674-263.6-45.822C305.665,246.83,282.7,246.365,277.083,248.629Z" transform="translate(-8.093 -234.422)" fill="#bfbfbf" opacity="0.381"/>
        <path id="Path_295" data-name="Path 295" d="M276.712,248.687c-10.074-1.456-94.936,3.613-104.347,7.406,0,0-156.464,91.065-149.582,94.625,7.4,3.833,136.708,35.692,223.7,57.224,82.3,20.4,199.55,47.691,203.23,47.625,2.516-.043,49.35-48.619,80.735-82.952,33.255-36.124,62.35-71.072,64.354-76.58,2.4-6.587-208.249-38.744-263.674-45.823C305.4,246.82,282.416,246.387,276.712,248.687Z" transform="translate(-8.051 -234.418)" fill="#bebebe" opacity="0.387"/>
        <path id="Path_296" data-name="Path 296" d="M276.341,248.742c-9.976-1.442-94.735,3.9-104.054,7.651,0,0-156.144,90.708-149.33,94.233,7.328,3.8,136.9,35.687,223.567,57.124,81.958,20.306,199.453,47.635,203.1,47.571,2.49-.043,49.372-48.67,80.618-82.845,33.241-36.1,62.294-71.012,64.278-76.465,2.374-6.524-208.874-38.7-263.747-45.824C305.133,246.858,282.133,246.407,276.341,248.742Z" transform="translate(-8.008 -234.412)" fill="#bdbdbd" opacity="0.393"/>
        <path id="Path_297" data-name="Path 297" d="M275.972,248.8c-9.88-1.428-94.534,4.176-103.762,7.9,0,0-155.824,90.352-149.076,93.842,7.256,3.759,137.1,35.682,223.43,57.025,81.616,20.21,199.355,47.58,202.965,47.515,2.467-.042,49.394-48.721,80.5-82.737,33.226-36.073,62.237-70.95,64.2-76.351,2.351-6.46-209.486-38.77-263.823-45.824C304.869,246.849,281.85,246.429,275.972,248.8Z" transform="translate(-7.965 -234.408)" fill="#bcbcbc" opacity="0.399"/>
        <path id="Path_298" data-name="Path 298" d="M275.6,248.858c-9.781-1.414-94.332,4.458-103.468,8.141,0,0-155.5,90-148.822,93.451,7.184,3.722,137.293,35.677,223.292,56.926,81.274,20.114,199.258,47.523,202.831,47.46,2.442-.042,49.418-48.772,80.388-82.629,33.212-36.049,62.18-70.889,64.127-76.236,2.326-6.4-210.1-38.84-263.9-45.826C304.605,246.839,281.568,246.453,275.6,248.858Z" transform="translate(-7.922 -234.404)" fill="#bbb" opacity="0.405"/>
        <path id="Path_299" data-name="Path 299" d="M275.23,248.916c-9.683-1.4-94.131,4.741-103.175,8.386,0,0-155.183,89.639-148.569,93.06,7.112,3.685,137.487,35.672,223.155,56.826,80.931,20.018,199.16,47.468,202.7,47.405,2.419-.042,49.441-48.822,80.271-82.523,33.2-36.023,62.126-70.827,64.052-76.121,2.3-6.331-210.711-38.908-263.97-45.826C304.342,246.829,281.285,246.475,275.23,248.916Z" transform="translate(-7.88 -234.4)" fill="#bababa" opacity="0.411"/>
        <path id="Path_300" data-name="Path 300" d="M274.861,248.974c-9.586-1.385-93.93,5.023-102.883,8.631,0,0-154.863,89.282-148.316,92.669C30.7,353.922,161.344,385.941,246.681,407c80.59,19.922,199.062,47.411,202.564,47.349,2.394-.041,49.464-48.873,80.156-82.415,33.182-36,62.069-70.765,63.976-76.006,2.28-6.268-211.324-38.977-264.044-45.828C304.078,246.819,281,246.5,274.861,248.974Z" transform="translate(-7.837 -234.396)" fill="#b9b9b9" opacity="0.417"/>
        <path id="Path_301" data-name="Path 301" d="M274.49,249.032c-9.487-1.371-93.728,5.305-102.591,8.877,0,0-154.542,88.925-148.061,92.276,6.969,3.611,137.877,35.662,222.88,56.628,80.248,19.825,198.965,47.356,202.432,47.294,2.368-.041,49.486-48.923,80.04-82.308,33.167-35.972,62.012-70.7,63.9-75.892,2.258-6.2-211.936-39.044-264.117-45.828C303.815,246.811,280.72,246.521,274.49,249.032Z" transform="translate(-7.794 -234.393)" fill="#b8b8b8" opacity="0.423"/>
        <path id="Path_302" data-name="Path 302" d="M274.119,249.091c-9.39-1.357-93.527,5.586-102.3,9.122,0,0-154.222,88.568-147.807,91.885,6.9,3.573,138.071,35.658,222.743,56.527,79.906,19.731,198.868,47.3,202.3,47.239,2.344-.041,49.509-48.973,79.924-82.2,33.154-35.947,61.957-70.644,63.825-75.777,2.234-6.141-212.549-39.113-264.193-45.829C303.552,246.8,280.437,246.544,274.119,249.091Z" transform="translate(-7.751 -234.389)" fill="#b7b7b7" opacity="0.429"/>
        <path id="Path_303" data-name="Path 303" d="M273.75,249.149c-9.293-1.343-93.326,5.868-102.005,9.367,0,0-153.9,88.212-147.554,91.494,6.824,3.536,138.266,35.652,222.605,56.428,79.565,19.635,198.77,47.244,202.165,47.184,2.32-.04,49.532-49.024,79.808-82.092,33.139-35.922,61.9-70.582,63.75-75.663,2.209-6.076-213.161-39.181-264.267-45.829C303.289,246.791,280.155,246.567,273.75,249.149Z" transform="translate(-7.709 -234.386)" fill="#b6b6b6" opacity="0.435"/>
        <path id="Path_304" data-name="Path 304" d="M273.379,249.208c-9.194-1.328-93.124,6.15-101.712,9.612,0,0-153.582,87.855-147.3,91.1,6.753,3.5,138.461,35.648,222.469,56.329,79.222,19.538,198.672,47.187,202.031,47.128,2.3-.04,49.555-49.075,79.693-81.984,33.124-35.9,61.844-70.522,63.673-75.548,2.187-6.012-213.773-39.251-264.34-45.831C303.025,246.782,279.872,246.59,273.379,249.208Z" transform="translate(-7.666 -234.383)" fill="#b5b5b5" opacity="0.44"/>
        <path id="Path_305" data-name="Path 305" d="M273.008,249.267c-9.1-1.314-92.923,6.433-101.419,9.858,0,0-153.261,87.5-147.047,90.712,6.681,3.462,138.655,35.643,222.332,56.229,78.88,19.443,198.574,47.133,201.9,47.073,2.271-.04,49.579-49.126,79.577-81.878,33.11-35.872,61.789-70.46,63.6-75.433,2.164-5.947-214.386-39.319-264.415-45.831C302.762,246.774,279.59,246.614,273.008,249.267Z" transform="translate(-7.623 -234.379)" fill="#b4b4b4" opacity="0.446"/>
        <path id="Path_306" data-name="Path 306" d="M272.638,249.325c-9-1.3-92.721,6.715-101.125,10.1,0,0-152.94,87.141-146.794,90.321,6.608,3.425,138.85,35.636,222.193,56.13C325.45,425.225,445.39,452.955,448.677,452.9c2.248-.038,49.6-49.176,79.462-81.77,33.1-35.846,61.732-70.4,63.522-75.318,2.141-5.884-215-39.388-264.489-45.832C302.5,246.764,279.307,246.637,272.638,249.325Z" transform="translate(-7.581 -234.376)" fill="#b3b3b3" opacity="0.452"/>
        <path id="Path_307" data-name="Path 307" d="M272.268,249.384c-8.9-1.286-92.52,7-100.833,10.348,0,0-152.62,86.784-146.54,89.93,6.537,3.388,139.044,35.631,222.056,56.031,78.2,19.251,198.381,47.02,201.633,46.962,2.222-.038,49.623-49.226,79.346-81.663,33.079-35.821,61.675-70.337,63.446-75.2,2.118-5.82-215.61-39.456-264.563-45.832C302.236,246.755,279.025,246.661,272.268,249.384Z" transform="translate(-7.538 -234.373)" fill="#b2b2b2" opacity="0.458"/>
        <path id="Path_308" data-name="Path 308" d="M271.9,249.444c-8.8-1.274-92.319,7.277-100.541,10.592,0,0-152.3,86.428-146.286,89.539,6.466,3.351,139.24,35.626,221.92,55.932,77.854,19.154,198.283,46.963,201.5,46.906,2.2-.038,49.647-49.277,79.229-81.555,33.066-35.8,61.621-70.276,63.372-75.089,2.093-5.757-216.222-39.526-264.637-45.833C301.971,246.746,278.742,246.684,271.9,249.444Z" transform="translate(-7.495 -234.37)" fill="#b1b1b1" opacity="0.464"/>
        <path id="Path_309" data-name="Path 309" d="M271.527,249.5c-8.7-1.259-92.117,7.559-100.248,10.837,0,0-151.979,86.072-146.032,89.147,6.394,3.313,139.434,35.622,221.782,55.832,77.512,19.059,198.186,46.909,201.365,46.852,2.173-.037,49.669-49.327,79.114-81.447,33.051-35.771,61.564-70.216,63.3-74.975,2.071-5.691-216.834-39.594-264.71-45.833C301.708,246.737,278.46,246.707,271.527,249.5Z" transform="translate(-7.453 -234.367)" fill="#b0b0b0" opacity="0.47"/>
        <path id="Path_310" data-name="Path 310" d="M271.157,249.562c-8.607-1.245-91.916,7.841-99.956,11.082,0,0-151.658,85.715-145.779,88.758,6.321,3.275,139.628,35.615,221.645,55.731,77.17,18.963,198.088,46.852,201.232,46.8,2.15-.037,49.693-49.378,79-81.341,33.036-35.745,61.507-70.153,63.22-74.859,2.047-5.628-217.446-39.663-264.785-45.834C301.445,246.729,278.177,246.732,271.157,249.562Z" transform="translate(-7.41 -234.365)" fill="#afafaf" opacity="0.476"/>
        <path id="Path_311" data-name="Path 311" d="M270.787,249.622c-8.51-1.23-91.715,8.123-99.662,11.327,0,0-151.338,85.359-145.525,88.366,6.249,3.237,139.823,35.61,221.508,55.633,76.828,18.866,197.99,46.8,201.1,46.74,2.125-.037,49.716-49.429,78.883-81.233,33.022-35.719,61.451-70.092,63.144-74.745,2.025-5.564-218.058-39.731-264.859-45.834C301.181,246.72,277.894,246.755,270.787,249.622Z" transform="translate(-7.367 -234.362)" fill="#aeaeae" opacity="0.482"/>
        <path id="Path_312" data-name="Path 312" d="M270.416,249.681c-8.411-1.217-91.513,8.4-99.369,11.572,0,0-151.018,85-145.272,87.975,6.179,3.2,140.018,35.605,221.37,55.532,76.488,18.771,197.894,46.74,200.967,46.686,2.1-.036,49.674-49.538,78.766-81.125,32.936-35.761,61.4-70.031,63.069-74.63,2-5.5-218.671-39.8-264.933-45.836C300.918,246.711,277.612,246.779,270.416,249.681Z" transform="translate(-7.325 -234.359)" fill="#adadad" opacity="0.488"/>
        <path id="Path_313" data-name="Path 313" d="M270.047,249.74c-8.314-1.2-91.311,8.687-99.077,11.817,0,0-150.7,84.646-145.019,87.584,6.106,3.163,140.213,35.6,221.233,55.433,76.145,18.675,197.8,46.685,200.833,46.63,2.076-.036,49.7-49.588,78.651-81.018,32.92-35.737,61.339-69.969,62.992-74.515,1.978-5.437-219.282-39.871-265.006-45.837C300.655,246.7,277.33,246.8,270.047,249.74Z" transform="translate(-7.282 -234.357)" fill="#acacac" opacity="0.494"/>
        <path id="Path_314" data-name="Path 314" d="M269.676,249.8c-8.216-1.188-91.109,8.969-98.783,12.062,0,0-150.377,84.289-144.765,87.193,6.034,3.125,140.407,35.6,221.1,55.334,75.8,18.579,197.7,46.628,200.7,46.575,2.051-.036,49.72-49.639,78.535-80.91,32.906-35.712,61.283-69.909,62.918-74.4,1.954-5.372-219.895-39.939-265.08-45.837C300.392,246.7,277.047,246.827,269.676,249.8Z" transform="translate(-7.239 -234.354)" fill="#ababab" opacity="0.5"/>
        <path id="Path_315" data-name="Path 315" d="M269.305,249.859c-8.117-1.173-90.907,9.251-98.491,12.307,0,0-150.056,83.933-144.51,86.8,5.962,3.088,140.6,35.591,220.958,55.234,75.46,18.483,197.6,46.573,200.566,46.52,2.027-.035,49.743-49.689,78.42-80.8,32.89-35.686,61.227-69.847,62.842-74.284,1.931-5.309-220.507-40.008-265.156-45.838C300.128,246.686,276.764,246.851,269.305,249.859Z" transform="translate(-7.196 -234.352)" fill="#aaa" opacity="0.506"/>
        <path id="Path_316" data-name="Path 316" d="M268.936,249.918c-8.021-1.16-90.707,9.533-98.2,12.552,0,0-149.736,83.576-144.258,86.411,5.892,3.051,140.8,35.586,220.822,55.135C322.42,422.4,444.8,450.532,447.733,450.48c2-.035,49.767-49.739,78.3-80.7,32.876-35.661,61.172-69.785,62.767-74.17,1.909-5.244-221.119-40.076-265.229-45.838C299.865,246.678,276.483,246.876,268.936,249.918Z" transform="translate(-7.154 -234.349)" fill="#a9a9a9" opacity="0.512"/>
        <path id="Path_317" data-name="Path 317" d="M268.565,249.978c-7.923-1.146-90.505,9.814-97.906,12.8,0,0-149.415,83.22-144,86.019,5.819,3.014,140.991,35.581,220.683,55.036,74.777,18.29,197.406,46.461,200.3,46.409,1.979-.035,49.789-49.79,78.188-80.588,32.861-35.636,61.115-69.724,62.691-74.055,1.884-5.181-221.732-40.146-265.3-45.841C299.6,246.669,276.2,246.9,268.565,249.978Z" transform="translate(-7.111 -234.347)" fill="#a8a8a8" opacity="0.518"/>
        <path id="Path_318" data-name="Path 318" d="M268.194,250.038c-7.824-1.131-90.3,10.1-97.612,13.042,0,0-149.095,82.863-143.75,85.629,5.747,2.977,141.185,35.576,220.546,54.936,74.435,18.2,197.308,46.405,200.167,46.354,1.953-.033,49.811-49.841,78.072-80.481,32.845-35.612,61.059-69.664,62.615-73.942,1.862-5.117-222.343-40.215-265.376-45.841C299.338,246.662,275.917,246.923,268.194,250.038Z" transform="translate(-7.069 -234.345)" fill="#a7a7a7" opacity="0.524"/>
        <path id="Path_319" data-name="Path 319" d="M267.825,250.1c-7.727-1.118-90.1,10.379-97.32,13.287,0,0-148.775,82.507-143.5,85.237,5.675,2.94,141.38,35.571,220.408,54.837,74.094,18.1,197.21,46.348,200.034,46.3,1.93-.033,49.835-49.892,77.956-80.373,32.832-35.587,61-69.6,62.54-73.826,1.838-5.053-222.956-40.284-265.451-45.842C299.075,246.654,275.634,246.948,267.825,250.1Z" transform="translate(-7.026 -234.343)" fill="#a6a6a6" opacity="0.53"/>
        <path id="Path_320" data-name="Path 320" d="M267.455,250.157c-7.63-1.1-89.9,10.661-97.027,13.532,0,0-148.455,82.15-143.244,84.846,5.6,2.9,141.575,35.566,220.272,54.738,73.751,18,197.112,46.292,199.9,46.243,1.9-.033,49.857-49.943,77.84-80.266,32.817-35.561,60.946-69.54,62.465-73.711,1.815-4.988-223.568-40.352-265.526-45.842C298.812,246.646,275.351,246.972,267.455,250.157Z" transform="translate(-6.983 -234.341)" fill="#a5a5a5" opacity="0.536"/>
        <path id="Path_321" data-name="Path 321" d="M267.084,250.217c-7.531-1.089-89.7,10.943-96.734,13.779,0,0-148.134,81.793-142.99,84.454,5.532,2.865,141.77,35.561,220.135,54.637,73.409,17.908,197.015,46.237,199.766,46.188,1.881-.032,49.881-49.992,77.725-80.159,32.8-35.536,60.891-69.479,62.388-73.6,1.792-4.925-224.18-40.423-265.6-45.843C298.549,246.637,275.07,247,267.084,250.217Z" transform="translate(-6.941 -234.338)" fill="#a4a4a4" opacity="0.542"/>
        <path id="Path_322" data-name="Path 322" d="M266.714,250.277c-7.434-1.074-89.5,11.224-96.442,14.024,0,0-147.814,81.436-142.736,84.063,5.46,2.828,141.964,35.556,220,54.538,73.068,17.811,196.918,46.181,199.634,46.133,1.857-.032,49.9-50.043,77.609-80.051,32.787-35.511,60.835-69.417,62.314-73.482,1.768-4.861-224.793-40.491-265.673-45.843C298.285,246.631,274.787,247.022,266.714,250.277Z" transform="translate(-6.898 -234.337)" fill="#a3a3a3" opacity="0.548"/>
        <path id="Path_323" data-name="Path 323" d="M266.344,250.337c-7.336-1.061-89.3,11.506-96.149,14.269,0,0-147.493,81.08-142.481,83.672,5.388,2.791,142.16,35.551,219.859,54.439,72.726,17.715,196.82,46.124,199.5,46.077C448.9,448.761,497,398.7,524.566,368.85c32.772-35.487,60.778-69.357,62.237-73.367,1.745-4.8-225.4-40.56-265.746-45.844C298.022,246.622,274.5,247.047,266.344,250.337Z" transform="translate(-6.855 -234.335)" fill="#a2a2a2" opacity="0.554"/>
        <path id="Path_324" data-name="Path 324" d="M265.973,250.4c-7.237-1.046-89.1,11.788-95.856,14.514,0,0-147.172,80.723-142.229,83.28,5.316,2.754,142.355,35.546,219.723,54.339,72.383,17.621,196.723,46.07,199.368,46.022,1.807-.031,49.949-50.144,77.378-79.836,32.756-35.462,60.721-69.3,62.162-73.253,1.722-4.732-226.017-40.63-265.821-45.844C297.759,246.614,274.222,247.071,265.973,250.4Z" transform="translate(-6.813 -234.333)" fill="#a1a1a1" opacity="0.56"/>
        <path id="Path_325" data-name="Path 325" d="M265.6,250.457c-7.141-1.032-88.895,12.071-95.564,14.759,0,0-146.852,80.367-141.975,82.889,5.244,2.717,142.549,35.541,219.585,54.24,72.042,17.524,196.626,46.013,199.234,45.967,1.782-.031,49.972-50.194,77.261-79.728,32.743-35.437,60.667-69.234,62.087-73.138,1.7-4.669-226.629-40.7-265.9-45.846C297.5,246.606,273.94,247.1,265.6,250.457Z" transform="translate(-6.77 -234.331)" fill="#a0a0a0" opacity="0.565"/>
        <path id="Path_326" data-name="Path 326" d="M265.233,250.517c-7.043-1.017-88.693,12.353-95.271,15,0,0-146.533,80.01-141.721,82.5,5.173,2.68,142.744,35.536,219.448,54.141,71.7,17.428,196.528,45.957,199.1,45.911,1.759-.031,50-50.244,77.146-79.621,32.728-35.411,60.609-69.172,62.011-73.023,1.676-4.6-227.241-40.768-265.969-45.845C297.232,246.6,273.657,247.121,265.233,250.517Z" transform="translate(-6.728 -234.329)" fill="#9f9f9f" opacity="0.571"/>
        <path id="Path_327" data-name="Path 327" d="M264.863,250.578c-6.944-1-88.491,12.634-94.977,15.249,0,0-146.212,79.654-141.468,82.107,5.1,2.643,142.938,35.531,219.309,54.042,71.358,17.331,196.432,45.9,198.968,45.855,1.734-.03,50.019-50.3,77.031-79.514,32.713-35.385,60.553-69.112,61.935-72.908,1.651-4.541-227.854-40.837-266.043-45.847C296.969,246.592,273.375,247.145,264.863,250.578Z" transform="translate(-6.685 -234.328)" fill="#9e9e9e" opacity="0.577"/>
        <path id="Path_328" data-name="Path 328" d="M264.493,250.638c-6.847-.99-88.291,12.916-94.685,15.494,0,0-145.891,79.3-141.215,81.716,5.029,2.606,143.134,35.526,219.173,53.942,71.017,17.236,196.334,45.846,198.835,45.8,1.709-.03,50.042-50.345,76.913-79.406,32.7-35.36,60.5-69.05,61.86-72.794,1.629-4.477-228.465-40.907-266.117-45.847C296.706,246.584,273.092,247.171,264.493,250.638Z" transform="translate(-6.643 -234.326)" fill="#9d9d9d" opacity="0.583"/>
        <path id="Path_329" data-name="Path 329" d="M264.123,250.7c-6.748-.975-88.089,13.2-94.392,15.739,0,0-145.571,78.941-140.961,81.325,4.957,2.568,143.328,35.521,219.036,53.843,70.674,17.141,196.236,45.789,198.7,45.745,1.685-.03,50.065-50.4,76.8-79.3,32.683-35.336,60.441-68.989,61.784-72.679,1.605-4.413-229.078-40.976-266.192-45.848C296.442,246.577,272.809,247.2,264.123,250.7Z" transform="translate(-6.6 -234.325)" fill="#9c9c9c" opacity="0.589"/>
        <path id="Path_330" data-name="Path 330" d="M263.752,250.759c-6.651-.962-87.887,13.48-94.1,15.984,0,0-145.25,78.583-140.706,80.934,4.885,2.531,143.522,35.516,218.9,53.744,70.332,17.044,196.138,45.733,198.568,45.689,1.661-.028,50.087-50.446,76.683-79.191,32.668-35.311,60.384-68.929,61.707-72.565,1.583-4.348-229.689-41.045-266.265-45.848C296.179,246.57,272.528,247.221,263.752,250.759Z" transform="translate(-6.557 -234.323)" fill="#9b9b9b" opacity="0.595"/>
        <path id="Path_331" data-name="Path 331" d="M263.383,250.819c-6.554-.947-87.687,13.763-93.808,16.23,0,0-144.93,78.227-140.453,80.542,4.812,2.494,143.717,35.511,218.761,53.643,69.989,16.949,196.041,45.677,198.434,45.635,1.636-.028,50.111-50.5,76.567-79.084,32.655-35.285,60.33-68.865,61.633-72.449,1.56-4.285-230.3-41.116-266.339-45.849C295.916,246.563,272.245,247.246,263.383,250.819Z" transform="translate(-6.515 -234.322)" fill="#9a9a9a" opacity="0.601"/>
        <path id="Path_332" data-name="Path 332" d="M263.012,250.88c-6.455-.933-87.484,14.044-93.514,16.475,0,0-144.609,77.87-140.2,80.151,4.742,2.457,143.912,35.505,218.624,53.544,69.649,16.852,195.944,45.621,198.3,45.579,1.613-.029,50.134-50.547,76.452-78.977,32.64-35.26,60.273-68.8,61.558-72.334,1.535-4.222-230.915-41.185-266.414-45.85C295.653,246.555,271.963,247.272,263.012,250.88Z" transform="translate(-6.472 -234.32)" fill="#999" opacity="0.607"/>
        <path id="Path_333" data-name="Path 333" d="M262.642,250.94c-6.357-.918-87.282,14.326-93.221,16.72,0,0-144.288,77.514-139.946,79.76,4.67,2.42,144.107,35.5,218.486,53.445,69.306,16.756,195.846,45.564,198.168,45.524,1.588-.027,50.158-50.6,76.336-78.869,32.625-35.234,60.216-68.744,61.481-72.22,1.513-4.158-231.526-41.255-266.487-45.852C295.389,246.548,271.68,247.3,262.642,250.94Z" transform="translate(-6.43 -234.319)" fill="#989898" opacity="0.613"/>
        <path id="Path_334" data-name="Path 334" d="M262.272,251c-6.261-.9-87.082,14.608-92.929,16.965,0,0-143.969,77.157-139.693,79.369,4.6,2.383,144.3,35.5,218.349,53.345,68.964,16.66,195.749,45.51,198.036,45.469,1.562-.027,50.18-50.647,76.219-78.761,32.61-35.209,60.161-68.682,61.407-72.1,1.489-4.093-232.139-41.325-266.562-45.853C295.126,246.541,271.4,247.322,262.272,251Z" transform="translate(-6.387 -234.318)" fill="#979797" opacity="0.619"/>
        <path id="Path_335" data-name="Path 335" d="M261.9,251.062c-6.162-.89-86.88,14.89-92.635,17.21,0,0-143.649,76.8-139.439,78.978,4.525,2.346,144.5,35.49,218.211,53.246,68.623,16.565,195.651,45.453,197.9,45.413,1.538-.027,50.2-50.7,76.1-78.654,32.6-35.185,60.1-68.622,61.33-71.991,1.467-4.029-232.75-41.394-266.635-45.853C294.863,246.534,271.116,247.347,261.9,251.062Z" transform="translate(-6.345 -234.317)" fill="#969696" opacity="0.625"/>
        <path id="Path_336" data-name="Path 336" d="M261.531,251.123c-6.064-.876-86.678,15.173-92.342,17.455,0,0-143.328,76.444-139.186,78.587,4.455,2.308,144.691,35.485,218.075,53.147,68.28,16.468,195.553,45.4,197.769,45.358,1.514-.026,50.227-50.747,75.989-78.547,32.58-35.159,60.048-68.56,61.254-71.874,1.442-3.966-233.363-41.464-266.709-45.854C294.6,246.527,270.833,247.372,261.531,251.123Z" transform="translate(-6.302 -234.316)" fill="#959595" opacity="0.631"/>
        <path id="Path_337" data-name="Path 337" d="M261.162,251.183c-5.967-.863-86.478,15.453-92.051,17.7,0,0-143.007,76.088-138.931,78.2,4.383,2.27,144.885,35.479,217.937,53.046,67.94,16.373,195.456,45.342,197.636,45.3,1.49-.026,50.251-50.8,75.872-78.44,32.567-35.133,59.993-68.5,61.18-71.761,1.419-3.9-233.976-41.533-266.784-45.854C294.337,246.52,270.55,247.4,261.162,251.183Z" transform="translate(-6.26 -234.315)" fill="#949494" opacity="0.637"/>
        <path id="Path_338" data-name="Path 338" d="M260.791,251.244c-5.868-.848-86.276,15.736-91.758,17.945,0,0-142.687,75.731-138.678,77.806,4.31,2.233,145.079,35.474,217.8,52.947,67.6,16.277,195.359,45.286,197.5,45.248,1.466-.026,50.274-50.849,75.757-78.332,32.552-35.108,59.936-68.437,61.1-71.646,1.4-3.838-234.587-41.6-266.857-45.855C294.074,246.514,270.268,247.423,260.791,251.244Z" transform="translate(-6.217 -234.314)" fill="#939393" opacity="0.643"/>
        <path id="Path_339" data-name="Path 339" d="M260.421,251.305c-5.77-.834-86.074,16.018-91.464,18.19,0,0-142.366,75.375-138.424,77.415,4.238,2.2,145.274,35.469,217.662,52.848,67.255,16.18,195.261,45.229,197.37,45.192,1.441-.025,50.3-50.9,75.64-78.224,32.538-35.083,59.88-68.376,61.029-71.532,1.373-3.773-235.2-41.673-266.932-45.855C293.811,246.506,269.986,247.45,260.421,251.305Z" transform="translate(-6.174 -234.313)" fill="#929292" opacity="0.649"/>
        <path id="Path_340" data-name="Path 340" d="M260.052,251.366c-5.674-.819-85.873,16.3-91.172,18.435,0,0-142.046,75.018-138.171,77.023,4.168,2.159,145.469,35.464,217.526,52.747C315.146,415.658,443.4,444.747,445.47,444.71c1.416-.025,50.32-50.949,75.525-78.116,32.523-35.058,59.824-68.315,60.952-71.416,1.35-3.71-235.811-41.744-267.005-45.857C293.547,246.5,269.7,247.475,260.052,251.366Z" transform="translate(-6.132 -234.312)" fill="#919191" opacity="0.655"/>
        <path id="Path_341" data-name="Path 341" d="M259.681,251.427c-5.575-.806-85.672,16.582-90.879,18.682,0,0-141.726,74.661-137.918,76.631,4.095,2.122,145.664,35.459,217.388,52.648,66.571,15.989,195.065,45.118,197.1,45.082,1.392-.025,50.344-51,75.409-78.009,32.509-35.032,59.768-68.254,60.877-71.3,1.326-3.645-236.424-41.813-267.079-45.857C293.284,246.492,269.421,247.5,259.681,251.427Z" transform="translate(-6.09 -234.311)" fill="#909090" opacity="0.661"/>
        <path id="Path_342" data-name="Path 342" d="M259.311,251.488c-5.477-.791-85.47,16.863-90.586,18.927,0,0-141.406,74.3-137.664,76.24,4.023,2.084,145.858,35.454,217.25,52.549,66.229,15.893,194.969,45.061,196.97,45.026,1.368-.024,50.367-51.049,75.293-77.9,32.5-35.006,59.712-68.192,60.8-71.186,1.3-3.582-237.034-41.883-267.152-45.858C293.021,246.487,269.139,247.526,259.311,251.488Z" transform="translate(-6.047 -234.31)" fill="#8f8f8f" opacity="0.667"/>
        <path id="Path_343" data-name="Path 343" d="M258.941,251.549c-5.381-.777-85.269,17.146-90.294,19.172,0,0-141.085,73.948-137.41,75.849,3.951,2.046,146.052,35.45,217.112,52.449,65.887,15.8,194.871,45.006,196.837,44.972,1.344-.023,50.391-51.1,75.178-77.795,32.48-34.98,59.655-68.131,60.726-71.072,1.28-3.518-237.647-41.953-267.228-45.858C292.757,246.48,268.857,247.553,258.941,251.549Z" transform="translate(-6.004 -234.309)" fill="#8e8e8e" opacity="0.673"/>
        <path id="Path_344" data-name="Path 344" d="M258.571,251.611c-5.282-.762-85.068,17.428-90,19.417,0,0-140.763,73.591-137.156,75.458,3.88,2.009,146.248,35.445,216.976,52.35,65.546,15.7,194.774,44.949,196.7,44.916,1.319-.023,50.414-51.149,75.063-77.687,32.466-34.956,59.6-68.07,60.65-70.957,1.256-3.453-238.259-42.023-267.3-45.859C292.494,246.473,268.575,247.578,258.571,251.611Z" transform="translate(-5.962 -234.309)" fill="#8d8d8d" opacity="0.679"/>
        <path id="Path_345" data-name="Path 345" d="M258.2,251.673c-5.184-.75-84.866,17.709-89.708,19.661,0,0-140.444,73.235-136.9,75.067,3.807,1.972,146.442,35.44,216.839,52.251,65.2,15.606,194.677,44.894,196.57,44.86,1.293-.022,50.436-51.2,74.945-77.579C552.4,331,579.488,297.924,580.519,295.089,581.753,291.7,341.648,253,313.144,249.23,292.232,246.466,268.292,247.6,258.2,251.673Z" transform="translate(-5.92 -234.308)" fill="#8c8c8c" opacity="0.685"/>
        <path id="Path_346" data-name="Path 346" d="M257.831,251.734c-5.086-.735-84.665,17.991-89.416,19.906,0,0-140.123,72.878-136.649,74.675,3.736,1.935,146.637,35.435,216.7,52.151,64.861,15.51,194.579,44.838,196.437,44.806,1.27-.022,50.46-51.248,74.83-77.472,32.438-34.9,59.487-67.948,60.5-70.728,1.209-3.326-239.484-42.163-267.45-45.86C291.969,246.46,268.009,247.63,257.831,251.734Z" transform="translate(-5.877 -234.308)" fill="#8b8b8b" opacity="0.69"/>
        <path id="Path_347" data-name="Path 347" d="M257.461,251.8c-4.988-.722-84.464,18.272-89.123,20.151,0,0-139.8,72.522-136.4,74.284,3.664,1.9,146.831,35.43,216.564,52.052,64.518,15.414,194.481,44.782,196.3,44.75,1.245-.022,50.485-51.3,74.715-77.365,32.423-34.879,59.431-67.885,60.423-70.613,1.187-3.262-240.1-42.234-267.523-45.86C291.7,246.454,267.727,247.656,257.461,251.8Z" transform="translate(-5.835 -234.307)" fill="#8a8a8a" opacity="0.696"/>
        <path id="Path_348" data-name="Path 348" d="M257.09,251.857c-4.89-.708-84.262,18.554-88.829,20.4,0,0-139.483,72.165-136.143,73.893,3.592,1.86,147.026,35.425,216.427,51.953,64.178,15.317,194.384,44.725,196.171,44.694,1.222-.021,50.508-51.349,74.6-77.257,32.41-34.853,59.375-67.824,60.348-70.5,1.164-3.2-240.708-42.3-267.6-45.862C291.442,246.447,267.445,247.682,257.09,251.857Z" transform="translate(-5.792 -234.306)" fill="#898989" opacity="0.702"/>
        <path id="Path_349" data-name="Path 349" d="M256.721,251.919c-4.793-.693-84.061,18.836-88.537,20.641,0,0-139.163,71.809-135.889,73.5,3.52,1.823,147.221,35.42,216.289,51.854,63.835,15.221,194.287,44.67,196.037,44.639,1.2-.021,50.532-51.4,74.484-77.15,32.395-34.828,59.318-67.764,60.273-70.384,1.14-3.133-241.32-42.374-267.672-45.862C291.179,246.44,267.163,247.708,256.721,251.919Z" transform="translate(-5.75 -234.306)" fill="#888" opacity="0.708"/>
        <path id="Path_350" data-name="Path 350" d="M256.351,251.98c-4.695-.68-83.86,19.118-88.244,20.886,0,0-138.842,71.452-135.635,73.111,3.448,1.786,147.415,35.415,216.152,51.753,63.494,15.125,194.189,44.614,195.9,44.584,1.172-.021,50.554-51.449,74.367-77.042,32.381-34.8,59.263-67.7,60.2-70.269,1.118-3.07-241.932-42.444-267.745-45.864C290.915,246.435,266.88,247.735,256.351,251.98Z" transform="translate(-5.707 -234.306)" fill="#878787" opacity="0.714"/>
        <path id="Path_351" data-name="Path 351" d="M255.98,252.042c-4.6-.665-83.657,19.4-87.95,21.131,0,0-138.522,71.1-135.382,72.72,3.375,1.749,147.609,35.41,216.014,51.654,63.151,15.03,194.091,44.558,195.771,44.529,1.147-.02,50.577-51.5,74.251-76.934,32.368-34.776,59.207-67.641,60.122-70.154,1.093-3.007-242.543-42.516-267.82-45.865C290.652,246.429,266.6,247.76,255.98,252.042Z" transform="translate(-5.665 -234.305)" fill="#868686" opacity="0.72"/>
        <path id="Path_352" data-name="Path 352" d="M255.611,252.1c-4.5-.651-83.456,19.683-87.66,21.376,0,0-138.2,70.739-135.128,72.329,3.3,1.712,147.805,35.4,215.878,51.555,62.809,14.934,193.993,44.5,195.637,44.473,1.124-.02,50.6-51.549,74.136-76.828,32.353-34.75,59.15-67.579,60.045-70.039,1.071-2.942-243.155-42.585-267.894-45.865C290.39,246.422,266.317,247.787,255.611,252.1Z" transform="translate(-5.623 -234.305)" fill="#858585" opacity="0.726"/>
        <path id="Path_353" data-name="Path 353" d="M255.241,252.165c-4.4-.636-83.254,19.964-87.366,21.621,0,0-137.881,70.383-134.874,71.938,3.233,1.675,148,35.4,215.74,51.455,62.469,14.838,193.9,44.447,195.5,44.418,1.1-.02,50.626-51.6,74.021-76.72,32.338-34.724,59.093-67.517,59.97-69.924,1.047-2.879-243.767-42.657-267.968-45.867C290.127,246.416,266.034,247.813,255.241,252.165Z" transform="translate(-5.58 -234.305)" fill="#848484" opacity="0.732"/>
        <path id="Path_354" data-name="Path 354" d="M254.87,252.227c-4.3-.623-83.053,20.246-87.073,21.866,0,0-137.56,70.026-134.62,71.546,3.161,1.638,148.194,35.4,215.6,51.356,62.126,14.742,193.8,44.39,195.371,44.363,1.074-.019,50.7-51.6,73.9-76.613,32.395-34.634,59.039-67.457,59.9-69.81,1.024-2.813-244.38-42.726-268.043-45.867C289.863,246.409,265.751,247.839,254.87,252.227Z" transform="translate(-5.538 -234.305)" fill="#838383" opacity="0.738"/>
        <path id="Path_355" data-name="Path 355" d="M254.5,252.288c-4.206-.608-82.852,20.528-86.781,22.111,0,0-137.239,69.669-134.367,71.155,3.088,1.6,148.388,35.39,215.465,51.257,61.784,14.645,193.7,44.334,195.238,44.307,1.05-.019,50.721-51.653,73.788-76.5,32.38-34.609,58.982-67.4,59.819-69.695,1-2.75-244.992-42.8-268.115-45.868C289.6,246.4,265.469,247.866,254.5,252.288Z" transform="translate(-5.495 -234.304)" fill="#828282" opacity="0.744"/>
        <path id="Path_356" data-name="Path 356" d="M254.131,252.35c-4.108-.594-82.65,20.811-86.487,22.357,0,0-136.92,69.312-134.114,70.764,3.018,1.563,148.584,35.385,215.329,51.157,61.441,14.551,193.6,44.279,195.1,44.253,1.025-.019,50.743-51.7,73.673-76.4C550,329.9,576.56,297.149,577.379,294.9c.977-2.686-245.6-42.867-268.19-45.868C289.338,246.4,265.186,247.892,254.131,252.35Z" transform="translate(-5.453 -234.304)" fill="#818181" opacity="0.75"/>
        <path id="Path_357" data-name="Path 357" d="M253.76,252.412c-4.01-.581-82.449,21.093-86.194,22.6,0,0-136.6,68.956-133.86,70.373,2.946,1.526,148.778,35.38,215.191,51.058C310,410.9,442.4,440.667,443.868,440.641c1-.017,50.767-51.753,73.557-76.289,32.35-34.56,58.871-67.274,59.668-69.466.954-2.623-246.216-42.939-268.264-45.869C289.074,246.392,264.905,247.919,253.76,252.412Z" transform="translate(-5.411 -234.304)" fill="gray" opacity="0.756"/>
        <path id="Path_358" data-name="Path 358" d="M253.391,252.474c-3.913-.566-82.248,21.374-85.9,22.847,0,0-136.279,68.6-133.607,69.982,2.873,1.489,148.972,35.374,215.053,50.959,60.758,14.358,193.409,44.166,194.839,44.141.977-.017,50.79-51.8,73.441-76.183,32.335-34.534,58.814-67.212,59.592-69.351.931-2.558-246.827-43.01-268.338-45.869C288.811,246.385,264.622,247.945,253.391,252.474Z" transform="translate(-5.368 -234.304)" fill="#7f7f7f" opacity="0.762"/>
        <path id="Path_359" data-name="Path 359" d="M253.021,252.536c-3.815-.552-82.046,21.656-85.61,23.092,0,0-135.957,68.243-133.352,69.591,2.8,1.452,149.167,35.369,214.915,50.858,60.416,14.263,193.311,44.111,194.705,44.087.953-.017,50.813-51.855,73.326-76.075,32.32-34.508,58.757-67.15,59.515-69.235.909-2.494-247.439-43.08-268.411-45.87C288.548,246.38,264.34,247.972,253.021,252.536Z" transform="translate(-5.326 -234.304)" fill="#7e7e7e" opacity="0.768"/>
        <path id="Path_360" data-name="Path 360" d="M252.65,252.6c-3.717-.537-81.845,21.938-85.316,23.337,0,0-135.638,67.886-133.1,69.2,2.73,1.415,149.362,35.364,214.779,50.759,60.075,14.166,193.214,44.054,194.571,44.031.928-.016,50.836-51.906,73.21-75.968,32.307-34.483,58.7-67.089,59.441-69.122.884-2.43-248.051-43.151-268.486-45.87C288.286,246.374,264.058,248,252.65,252.6Z" transform="translate(-5.284 -234.304)" fill="#7d7d7d" opacity="0.774"/>
        <path id="Path_361" data-name="Path 361" d="M252.281,252.66c-3.619-.524-81.644,22.22-85.024,23.583,0,0-135.317,67.529-132.845,68.807,2.659,1.378,149.556,35.359,214.642,50.66,59.732,14.07,193.116,44,194.439,43.975.9-.016,50.858-51.956,73.094-75.86,32.292-34.458,58.645-67.029,59.366-69.007.86-2.367-248.664-43.223-268.56-45.872C288.022,246.368,263.776,248.025,252.281,252.66Z" transform="translate(-5.241 -234.304)" fill="#7c7c7c" opacity="0.78"/>
        <path id="Path_362" data-name="Path 362" d="M251.911,252.722c-3.521-.509-81.442,22.5-84.731,23.828,0,0-135,67.172-132.592,68.416,2.586,1.34,149.751,35.354,214.5,50.56,59.39,13.976,193.019,43.943,194.305,43.921.879-.016,50.881-52.007,72.979-75.752,32.277-34.433,58.588-66.967,59.289-68.893.838-2.3-249.276-43.293-268.634-45.872C287.759,246.362,263.494,248.052,251.911,252.722Z" transform="translate(-5.199 -234.304)" fill="#7b7b7b" opacity="0.786"/>
        <path id="Path_363" data-name="Path 363" d="M251.54,252.784c-3.424-.5-81.241,22.784-84.438,24.073,0,0-134.677,66.816-132.338,68.025,2.514,1.3,149.945,35.349,214.366,50.461,59.049,13.879,192.923,43.887,194.173,43.865.855-.015,50.9-52.058,72.862-75.646,32.262-34.407,58.534-66.9,59.215-68.776.814-2.239-249.887-43.365-268.708-45.873C287.5,246.357,263.211,248.078,251.54,252.784Z" transform="translate(-5.156 -234.305)" fill="#7a7a7a" opacity="0.792"/>
        <path id="Path_364" data-name="Path 364" d="M251.171,252.846c-3.326-.48-81.04,23.066-84.146,24.318,0,0-134.357,66.459-132.085,67.635,2.443,1.265,150.141,35.343,214.23,50.361,58.707,13.783,192.825,43.83,194.039,43.809.831-.015,50.928-52.107,72.747-75.538,32.247-34.381,58.477-66.844,59.138-68.662.792-2.174-250.5-43.436-268.781-45.873C287.232,246.351,262.929,248.105,251.171,252.846Z" transform="translate(-5.114 -234.305)" fill="#797979" opacity="0.798"/>
        <path id="Path_365" data-name="Path 365" d="M250.8,252.908c-3.228-.467-80.838,23.348-83.852,24.563,0,0-134.036,66.1-131.832,67.244,2.37,1.228,150.335,35.338,214.092,50.261,58.364,13.687,192.727,43.775,193.905,43.755.806-.015,50.95-52.158,72.631-75.431,32.234-34.357,58.421-66.782,59.064-68.547.767-2.11-251.111-43.507-268.856-45.874C286.97,246.345,262.646,248.131,250.8,252.908Z" transform="translate(-5.072 -234.305)" fill="#787878" opacity="0.804"/>
        <path id="Path_366" data-name="Path 366" d="M250.431,252.97c-3.129-.452-80.637,23.63-83.56,24.809,0,0-133.714,65.746-131.577,66.853,2.3,1.191,150.529,35.333,213.955,50.162,58.023,13.591,192.629,43.719,193.773,43.7.781-.014,50.972-52.209,72.514-75.323,32.219-34.332,58.364-66.722,58.988-68.433.744-2.046-251.724-43.578-268.931-45.875C286.707,246.339,262.365,248.159,250.431,252.97Z" transform="translate(-5.029 -234.305)" fill="#777" opacity="0.81"/>
        <path id="Path_367" data-name="Path 367" d="M250.062,253.032c-3.033-.438-80.436,23.912-83.268,25.054,0,0-133.395,65.39-131.323,66.462C37.7,345.7,186.194,379.876,249.288,394.61c57.68,13.5,192.532,43.662,193.639,43.644.756-.014,51-52.26,72.4-75.215,32.2-34.307,58.309-66.661,58.911-68.318.722-1.983-252.335-43.65-269-45.876C286.444,246.335,262.083,248.185,250.062,253.032Z" transform="translate(-4.987 -234.306)" fill="#767676" opacity="0.815"/>
        <path id="Path_368" data-name="Path 368" d="M249.691,253.095c-2.935-.425-80.234,24.193-82.975,25.3,0,0-133.074,65.033-131.07,66.071,2.156,1.116,150.919,35.323,213.68,49.964,57.339,13.4,192.435,43.606,193.507,43.588.733-.014,51.018-52.31,72.283-75.109,32.19-34.28,58.253-66.6,58.837-68.2.7-1.919-252.947-43.72-269.079-45.876C286.181,246.329,261.8,248.213,249.691,253.095Z" transform="translate(-4.945 -234.306)" fill="#757575" opacity="0.821"/>
        <path id="Path_369" data-name="Path 369" d="M249.321,253.157c-2.836-.41-80.031,24.476-82.681,25.544,0,0-132.754,64.677-130.817,65.679,2.083,1.079,151.113,35.318,213.543,49.863,57,13.3,192.337,43.551,193.373,43.533.708-.012,51.042-52.361,72.168-75,32.176-34.255,58.2-66.537,58.76-68.088.676-1.854-253.558-43.792-269.151-45.878C285.918,246.323,261.518,248.239,249.321,253.157Z" transform="translate(-4.902 -234.306)" fill="#747474" opacity="0.827"/>
        <path id="Path_370" data-name="Path 370" d="M248.952,253.219c-2.739-.4-79.831,24.758-82.389,25.789,0,0-132.433,64.32-130.563,65.288,2.011,1.042,151.308,35.313,213.405,49.764,56.655,13.207,192.239,43.495,193.24,43.478.684-.012,51.065-52.411,72.053-74.893,32.16-34.23,58.14-66.477,58.685-67.973.651-1.791-254.171-43.864-269.226-45.879C285.655,246.317,261.235,248.267,248.952,253.219Z" transform="translate(-4.86 -234.307)" fill="#737373" opacity="0.833"/>
        <path id="Path_371" data-name="Path 371" d="M248.582,253.281c-2.641-.381-79.629,25.04-82.1,26.034,0,0-132.114,63.964-130.309,64.9,1.94,1.005,151.5,35.308,213.268,49.665,56.313,13.11,192.142,43.438,193.106,43.422.66-.012,51.087-52.461,71.936-74.786,32.146-34.206,58.085-66.415,58.611-67.859.627-1.727-254.784-43.936-269.3-45.879C285.391,246.313,260.954,248.293,248.582,253.281Z" transform="translate(-4.818 -234.307)" fill="#727272" opacity="0.839"/>
        <path id="Path_372" data-name="Path 372" d="M248.211,253.344c-2.542-.368-79.427,25.322-81.8,26.279,0,0-131.793,63.607-130.057,64.506,1.868.968,151.7,35.3,213.132,49.565,55.97,13.016,192.044,43.384,192.973,43.367.635-.011,51.11-52.512,71.82-74.678,32.131-34.181,58.028-66.354,58.534-67.744.605-1.664-255.394-44.007-269.374-45.88C285.129,246.307,260.672,248.32,248.211,253.344Z" transform="translate(-4.776 -234.308)" fill="#717171" opacity="0.845"/>
        <path id="Path_373" data-name="Path 373" d="M247.842,253.406c-2.446-.353-79.227,25.6-81.51,26.524,0,0-131.473,63.251-129.8,64.115,1.8.931,151.892,35.3,212.993,49.466,55.63,12.92,191.947,43.327,192.841,43.312.61-.011,51.133-52.563,71.7-74.572,32.116-34.154,57.972-66.292,58.458-67.629.582-1.6-256.006-44.078-269.449-45.88C284.866,246.3,260.39,248.348,247.842,253.406Z" transform="translate(-4.733 -234.308)" fill="#707070" opacity="0.851"/>
        <path id="Path_374" data-name="Path 374" d="M247.472,253.469c-2.348-.339-79.025,25.885-81.218,26.769,0,0-131.152,62.894-129.548,63.724,1.724.894,152.086,35.294,212.856,49.367,55.287,12.823,191.849,43.271,192.707,43.255.587-.01,51.156-52.612,71.589-74.463,32.1-34.129,57.916-66.23,58.383-67.514.558-1.535-256.618-44.151-269.522-45.881C284.6,246.3,260.107,248.374,247.472,253.469Z" transform="translate(-4.691 -234.309)" fill="#6f6f6f" opacity="0.857"/>
        <path id="Path_375" data-name="Path 375" d="M247.1,253.531c-2.249-.324-78.823,26.167-80.925,27.014,0,0-130.832,62.538-129.294,63.333,1.652.855,152.281,35.289,212.718,49.267,54.946,12.728,191.752,43.215,192.574,43.2.562-.009,51.179-52.663,71.473-74.355,32.088-34.1,57.859-66.17,58.307-67.4.535-1.47-257.231-44.222-269.6-45.881C284.34,246.292,259.826,248.4,247.1,253.531Z" transform="translate(-4.649 -234.309)" fill="#6e6e6e" opacity="0.863"/>
        <path id="Path_376" data-name="Path 376" d="M246.733,253.594c-2.152-.311-78.623,26.45-80.633,27.259,0,0-130.511,62.181-129.042,62.941,1.581.818,152.476,35.284,212.582,49.168,54.6,12.631,191.654,43.16,192.44,43.145.537-.009,51.2-52.713,71.358-74.247,32.073-34.079,57.8-66.109,58.23-67.285.513-1.407-257.841-44.295-269.67-45.883C284.077,246.286,259.544,248.429,246.733,253.594Z" transform="translate(-4.607 -234.31)" fill="#6d6d6d" opacity="0.869"/>
        <path id="Path_377" data-name="Path 377" d="M246.363,253.656c-2.055-.3-78.421,26.732-80.339,27.5,0,0-130.19,61.825-128.788,62.55,1.509.781,152.671,35.279,212.445,49.069,54.261,12.535,191.556,43.1,192.307,43.089.512-.009,51.224-52.763,71.241-74.14,32.059-34.055,57.748-66.048,58.156-67.171.489-1.343-258.454-44.366-269.744-45.883C283.815,246.28,259.261,248.456,246.363,253.656Z" transform="translate(-4.564 -234.311)" fill="#6c6c6c" opacity="0.875"/>
        <path id="Path_378" data-name="Path 378" d="M245.992,253.719c-1.956-.282-78.219,27.013-80.046,27.749,0,0-129.871,61.469-128.534,62.159,1.437.744,152.865,35.274,212.306,48.968,53.921,12.441,191.46,43.048,192.175,43.034.488-.007,51.247-52.814,71.126-74.032,32.043-34.029,57.691-65.986,58.081-67.056.465-1.28-259.066-44.438-269.819-45.884C283.551,246.275,258.979,248.483,245.992,253.719Z" transform="translate(-4.522 -234.312)" fill="#6b6b6b" opacity="0.881"/>
        <path id="Path_379" data-name="Path 379" d="M245.622,253.781c-1.858-.269-78.017,27.3-79.753,27.994,0,0-129.55,61.112-128.28,61.768,1.364.707,153.059,35.269,212.169,48.869C303.335,404.758,441.119,435.4,441.8,435.392c.464-.007,51.271-52.865,71.01-73.925,32.028-34,57.635-65.924,58-66.941.442-1.214-259.676-44.51-269.892-45.884C283.288,246.271,258.7,248.511,245.622,253.781Z" transform="translate(-4.48 -234.312)" fill="#6a6a6a" opacity="0.887"/>
        <path id="Path_380" data-name="Path 380" d="M245.253,253.844c-1.761-.254-77.817,27.577-79.461,28.241,0,0-129.23,60.753-128.028,61.376,1.293.67,153.255,35.264,212.032,48.77,53.236,12.248,191.265,42.936,191.908,42.923.439-.007,51.293-52.916,70.894-73.818,32.015-33.978,57.58-65.864,57.93-66.826.418-1.151-260.289-44.583-269.967-45.885C283.026,246.265,258.416,248.538,245.253,253.844Z" transform="translate(-4.438 -234.313)" fill="#696969" opacity="0.893"/>
        <path id="Path_381" data-name="Path 381" d="M244.883,253.907c-1.662-.24-77.615,27.86-79.169,28.486,0,0-128.908,60.4-127.773,60.985,1.222.633,153.449,35.259,211.9,48.67C302.73,404.2,441,434.927,441.611,434.916c.416-.006,51.316-52.966,70.779-73.71,32-33.953,57.523-65.8,57.853-66.712.4-1.087-260.9-44.655-270.04-45.885C282.763,246.26,258.133,248.565,244.883,253.907Z" transform="translate(-4.396 -234.314)" fill="#686868" opacity="0.899"/>
        <path id="Path_382" data-name="Path 382" d="M244.513,253.971c-1.565-.227-77.413,28.141-78.875,28.73,0,0-128.589,60.04-127.519,60.593,1.15.6,153.643,35.254,211.758,48.571,52.552,12.056,191.07,42.824,191.642,42.813.39-.006,51.339-53.016,70.663-73.6,31.985-33.928,57.466-65.741,57.778-66.6.373-1.024-261.512-44.728-270.115-45.886C282.5,246.255,257.851,248.593,244.513,253.971Z" transform="translate(-4.353 -234.315)" fill="#676767" opacity="0.905"/>
        <path id="Path_383" data-name="Path 383" d="M244.144,254.034c-1.468-.213-77.213,28.422-78.583,28.975,0,0-128.268,59.684-127.266,60.2,1.077.558,153.838,35.249,211.62,48.472,52.209,11.961,190.972,42.767,191.508,42.757.366-.006,51.361-53.067,70.546-73.495,31.971-33.9,57.411-65.681,57.7-66.483.349-.959-262.125-44.8-270.189-45.888C282.237,246.25,257.569,248.62,244.144,254.034Z" transform="translate(-4.311 -234.315)" fill="#666" opacity="0.911"/>
        <path id="Path_384" data-name="Path 384" d="M243.774,254.1c-1.369-.2-77.011,28.7-78.29,29.22,0,0-127.948,59.327-127.013,59.811,1.006.521,154.033,35.243,211.483,48.372,51.868,11.865,190.875,42.713,191.375,42.7.342,0,51.384-53.117,70.431-73.388,31.957-33.876,57.354-65.618,57.626-66.366.326-.895-262.736-44.873-270.262-45.889C281.975,246.245,257.288,248.648,243.774,254.1Z" transform="translate(-4.269 -234.316)" fill="#656565" opacity="0.917"/>
        <path id="Path_385" data-name="Path 385" d="M243.4,254.159c-1.271-.184-76.809,28.986-78,29.465,0,0-127.628,58.971-126.759,59.42.935.484,154.228,35.238,211.346,48.273,51.527,11.769,190.778,42.656,191.242,42.647.318,0,51.408-53.168,70.316-73.28,31.94-33.852,57.3-65.557,57.551-66.253.3-.831-263.348-44.944-270.337-45.889C281.711,246.24,257.005,248.675,243.4,254.159Z" transform="translate(-4.227 -234.317)" fill="#646464" opacity="0.923"/>
        <path id="Path_386" data-name="Path 386" d="M243.035,254.222c-1.173-.17-76.609,29.268-77.7,29.71,0,0-127.308,58.614-126.506,59.029.861.447,154.422,35.233,211.208,48.174,51.184,11.672,190.68,42.6,191.108,42.591.293-.005,51.43-53.219,70.2-73.173,31.927-33.827,57.243-65.5,57.475-66.137.28-.767-263.959-45.019-270.41-45.89C281.449,246.235,256.723,248.7,243.035,254.222Z" transform="translate(-4.185 -234.318)" fill="#636363" opacity="0.929"/>
        <path id="Path_387" data-name="Path 387" d="M242.664,254.285c-1.076-.156-76.407,29.55-77.411,29.955,0,0-126.987,58.258-126.252,58.638.79.41,154.616,35.228,211.071,48.075,50.842,11.576,190.582,42.543,190.974,42.536.269,0,51.454-53.27,70.085-73.065,31.912-33.8,57.186-65.434,57.4-66.022.256-.7-264.571-45.092-270.485-45.891C281.186,246.231,256.441,248.73,242.664,254.285Z" transform="translate(-4.142 -234.319)" fill="#626262" opacity="0.935"/>
        <path id="Path_388" data-name="Path 388" d="M242.294,254.348c-.978-.142-76.2,29.831-77.119,30.2,0,0-126.665,57.9-126,58.247.719.373,154.813,35.223,210.935,47.974,50.5,11.48,190.484,42.487,190.842,42.481.244,0,51.476-53.32,69.968-72.958,31.9-33.776,57.129-65.374,57.325-65.908.233-.64-265.183-45.164-270.559-45.891C280.924,246.225,256.159,248.758,242.294,254.348Z" transform="translate(-4.101 -234.32)" fill="#616161" opacity="0.94"/>
        <path id="Path_389" data-name="Path 389" d="M241.925,254.411c-.88-.128-76,30.113-76.827,30.445,0,0-126.346,57.545-125.744,57.855.646.335,155.008,35.218,210.8,47.875,50.159,11.385,190.388,42.432,190.709,42.426.219,0,51.5-53.37,69.852-72.851,31.884-33.75,57.074-65.312,57.249-65.792.209-.576-265.795-45.238-270.633-45.893C280.66,246.22,255.877,248.785,241.925,254.411Z" transform="translate(-4.058 -234.321)" fill="#606060" opacity="0.946"/>
        <path id="Path_390" data-name="Path 390" d="M241.555,254.474c-.782-.114-75.8,30.4-76.533,30.69,0,0-126.025,57.188-125.491,57.464.574.3,155.2,35.213,210.659,47.776,49.816,11.288,190.29,42.375,190.576,42.37.2,0,51.522-53.421,69.737-72.743,31.869-33.725,57.017-65.25,57.173-65.678.186-.511-266.406-45.31-270.707-45.893C280.4,246.215,255.6,248.812,241.555,254.474Z" transform="translate(-4.016 -234.322)" fill="#5f5f5f" opacity="0.952"/>
        <path id="Path_391" data-name="Path 391" d="M241.185,254.536c-.684-.1-75.6,30.678-76.24,30.935,0,0-125.7,56.832-125.237,57.074.5.26,155.4,35.207,210.521,47.675,49.475,11.193,190.192,42.32,190.442,42.315.171,0,51.545-53.471,69.62-72.636,31.855-33.7,56.962-65.189,57.1-65.563.163-.448-267.018-45.384-270.78-45.894C280.135,246.211,255.313,248.84,241.185,254.536Z" transform="translate(-3.974 -234.323)" fill="#5e5e5e" opacity="0.958"/>
        <path id="Path_392" data-name="Path 392" d="M240.816,254.6c-.587-.085-75.4,30.96-75.948,31.18,0,0-125.384,56.475-124.984,56.683.432.223,155.592,35.2,210.385,47.576,49.132,11.1,190.094,42.263,190.309,42.26.147,0,51.568-53.522,69.505-72.528,31.839-33.675,56.906-65.129,57.022-65.449.14-.384-267.629-45.457-270.855-45.894C279.872,246.206,255.031,248.867,240.816,254.6Z" transform="translate(-3.932 -234.324)" fill="#5d5d5d" opacity="0.964"/>
        <path id="Path_393" data-name="Path 393" d="M240.446,254.663c-.489-.071-75.2,31.241-75.655,31.426,0,0-125.065,56.119-124.731,56.292.359.186,155.786,35.2,210.248,47.477,48.79,11,190,42.208,190.176,42.2.121,0,51.59-53.573,69.389-72.42,31.824-33.65,56.849-65.067,56.946-65.334.116-.321-268.241-45.53-270.928-45.895C279.609,246.2,254.75,248.9,240.446,254.663Z" transform="translate(-3.89 -234.326)" fill="#5c5c5c" opacity="0.97"/>
        <path id="Path_394" data-name="Path 394" d="M240.076,254.726c-.391-.057-75,31.523-75.361,31.671,0,0-124.744,55.762-124.477,55.9.287.149,155.98,35.192,210.109,47.377,48.45,10.906,189.9,42.152,190.044,42.15.1,0,51.613-53.624,69.273-72.313,31.81-33.625,56.794-65.006,56.871-65.22.093-.255-268.852-45.6-271-45.9C279.347,246.2,254.468,248.923,240.076,254.726Z" transform="translate(-3.848 -234.327)" fill="#5b5b5b" opacity="0.976"/>
        <path id="Path_395" data-name="Path 395" d="M239.707,254.789c-.293-.042-74.8,31.806-75.07,31.916,0,0-124.422,55.406-124.222,55.51S196.59,377.4,250.387,389.492c48.107,10.809,189.8,42.1,189.91,42.094.073,0,51.636-53.673,69.158-72.206,31.8-33.6,56.737-64.944,56.8-65.1.069-.192-269.465-45.677-271.077-45.9C279.083,246.191,254.185,248.951,239.707,254.789Z" transform="translate(-3.806 -234.328)" fill="#5a5a5a" opacity="0.982"/>
        <path id="Path_396" data-name="Path 396" d="M239.337,254.852c-.2-.028-74.594,32.088-74.777,32.161,0,0-124.1,55.049-123.969,55.119s156.37,35.182,209.835,47.179c47.765,10.713,189.7,42.039,189.776,42.038.05,0,51.659-53.724,69.042-72.1,31.781-33.574,56.681-64.882,56.719-64.99.047-.127-270.076-45.75-271.15-45.9C278.821,246.187,253.9,248.979,239.337,254.852Z" transform="translate(-3.764 -234.329)" fill="#595959" opacity="0.988"/>
        <path id="Path_397" data-name="Path 397" d="M238.967,254.915c-.1-.015-74.392,32.37-74.484,32.406,0,0-123.782,54.693-123.716,54.728s156.565,35.177,209.7,47.078c47.422,10.617,189.607,41.985,189.643,41.984s51.683-53.775,68.926-71.991C540.8,325.571,565.66,294.3,565.68,294.245s-270.688-45.824-271.225-45.9C278.558,246.182,253.621,249.007,238.967,254.915Z" transform="translate(-3.722 -234.33)" fill="#585858" opacity="0.994"/>
        <path id="Path_398" data-name="Path 398" d="M440.015,430.883S491.72,377.058,508.826,359c31.752-33.524,56.568-64.761,56.568-64.761l-271.3-45.9c-15.78-2.286-40.755.7-55.5,6.647L40.945,341.976S197.7,377.148,250.506,388.955C297.586,399.476,440.015,430.883,440.015,430.883Z" transform="translate(-3.68 -234.342)" fill="#575757"/>
      </g>
      <g id="_2" data-name="2" transform="translate(121.482 274.856)">
        <path id="Path_407" data-name="Path 407" d="M439.251,297.7l104.808-97.2-248.32-9.958L121.094,235.358Z" transform="translate(-66.339 -190.537)" fill="#106a8f"/>
        <path id="Path_408" data-name="Path 408" d="M439.251,297.7l104.808-97.2-248.32-9.958L121.094,235.358Z" transform="translate(-66.339 -190.537)" fill="url(#radial-gradient)" style="mix-blend-mode: color-burn;isolation: isolate"/>
        <path id="Path_409" data-name="Path 409" d="M139.349,220.415l310.113,36.7,23.413,98.46L84.594,291.1Z" transform="translate(-84.594 -175.594)" fill="#106a8f"/>
        <path id="Path_410" data-name="Path 410" d="M139.349,220.415l310.113,36.7,23.413,98.46L84.594,291.1Z" transform="translate(-84.594 -175.594)" fill="url(#linear-gradient)" style="mix-blend-mode: color-burn;isolation: isolate"/>
        <path id="Path_411" data-name="Path 411" d="M485.875,258.824,351.255,367.4l-23.437-98.66,112.852-71.56Z" transform="translate(37.051 -187.218)" fill="#106a8f"/>
        <path id="Path_412" data-name="Path 412" d="M485.875,258.824,351.255,367.4l-23.437-98.66,112.852-71.56Z" transform="translate(37.051 -187.218)" fill="url(#linear-gradient-2)" style="mix-blend-mode: color-burn;isolation: isolate"/>
        <g id="Group_84" data-name="Group 84" transform="translate(364.868 9.957)" opacity="0.5">
          <path id="Path_413" data-name="Path 413" d="M327.817,268.736s1.728-1.175,4.754-3.227c3.045-2.019,7.358-4.965,12.6-8.39s11.331-7.475,17.924-11.7l20.654-13.24,20.784-13.036c6.628-4.169,12.892-7.934,18.224-11.224s9.839-5.927,12.964-7.822c3.149-1.859,4.946-2.924,4.946-2.924l-4.752,3.228c-3.048,2.019-7.358,4.968-12.6,8.392s-11.329,7.48-17.925,11.7-13.623,8.732-20.655,13.239l-20.783,13.035c-6.632,4.163-12.894,7.933-18.224,11.223s-9.839,5.927-12.966,7.822C329.614,267.671,327.817,268.736,327.817,268.736Z" transform="translate(-327.817 -197.175)" fill="#fff"/>
        </g>
        <g id="Group_85" data-name="Group 85" transform="translate(364.868 81.518)" opacity="0.5">
          <path id="Path_414" data-name="Path 414" d="M351.255,343.538s-.431-1.527-1.181-4.2c-.713-2.681-1.8-6.493-2.984-11.1s-2.621-9.962-4.028-15.736-2.915-11.928-4.421-18.084c-1.425-6.176-2.85-12.352-4.187-18.141s-2.454-11.224-3.48-15.867-1.755-8.539-2.324-11.254l-.834-4.28s.431,1.526,1.182,4.2c.712,2.679,1.806,6.493,2.984,11.1s2.624,9.962,4.026,15.736,2.916,11.928,4.421,18.086c1.425,6.175,2.847,12.351,4.184,18.141s2.454,11.223,3.48,15.865,1.758,8.539,2.327,11.254C350.951,341.98,351.255,343.538,351.255,343.538Z" transform="translate(-327.817 -244.878)" fill="#fff"/>
        </g>
        <g id="Group_86" data-name="Group 86" transform="translate(54.755 44.82)" opacity="0.5">
          <path id="Path_415" data-name="Path 415" d="M121.094,220.415l48.515,5.222c14.547,1.638,31.518,3.551,49.7,5.6,18.174,2.114,37.563,4.365,56.948,6.619,19.377,2.333,38.755,4.667,56.921,6.856,18.159,2.252,35.106,4.355,49.634,6.155l48.394,6.25s-19.406-2.09-48.516-5.219l-49.7-5.6c-18.176-2.111-37.562-4.364-56.948-6.617l-56.921-6.859-49.632-6.155Z" transform="translate(-121.094 -220.415)" fill="#fff"/>
        </g>
      </g>
      <g id="_3" data-name="3" transform="translate(190.296 199.521)">
        <path id="Path_416" data-name="Path 416" d="M379.351,180.068l80.622-36.993L288.43,140.319l-119.393,27.3Z" transform="translate(-111.174 -140.319)" fill="#f5d319"/>
        <path id="Path_417" data-name="Path 417" d="M379.351,180.068l80.622-36.993L288.43,140.319l-119.393,27.3Z" transform="translate(-111.174 -140.319)" fill="url(#radial-gradient-2)" style="mix-blend-mode: color-burn;isolation: isolate"/>
        <path id="Path_418" data-name="Path 418" d="M188.328,158.518l210.236,11.949,22.248,93.59L130.466,233.222Z" transform="translate(-130.466 -131.217)" fill="#f5d319"/>
        <path id="Path_419" data-name="Path 419" d="M188.328,158.518l210.236,11.949,22.248,93.59L130.466,233.222Z" transform="translate(-130.466 -131.217)" fill="url(#linear-gradient-3)" style="mix-blend-mode: color-burn;isolation: isolate"/>
        <path id="Path_420" data-name="Path 420" d="M438.118,207.942,331.43,272.24l-22.248-93.59,80.7-36.494Z" transform="translate(-41.083 -139.4)" fill="#f5d319"/>
        <path id="Path_421" data-name="Path 421" d="M438.118,207.942,331.43,272.24l-22.248-93.59,80.7-36.494Z" transform="translate(-41.083 -139.4)" fill="url(#linear-gradient-4)" style="mix-blend-mode: color-burn;isolation: isolate"/>
        <g id="Group_87" data-name="Group 87" transform="translate(268.098 2.756)" opacity="0.5">
          <path id="Path_422" data-name="Path 422" d="M309.181,178.65l3.395-1.731c2.177-1.065,5.255-2.654,9-4.44s8.095-3.93,12.81-6.1l14.764-6.812c5.062-2.243,10.123-4.487,14.866-6.59s9.227-3.947,13.041-5.59,7.043-2.894,9.281-3.825c2.253-.893,3.54-1.4,3.54-1.4l-3.393,1.731c-2.175,1.065-5.253,2.657-9,4.442s-8.093,3.935-12.81,6.1l-14.766,6.809c-5.06,2.244-10.121,4.487-14.866,6.59s-9.226,3.945-13.041,5.588-7.042,2.9-9.28,3.827Z" transform="translate(-309.181 -142.156)" fill="#fff"/>
        </g>
        <g id="Group_88" data-name="Group 88" transform="translate(268.098 39.25)" opacity="0.4">
          <path id="Path_423" data-name="Path 423" d="M331.43,260.074l-1.13-3.98c-.68-2.543-1.725-6.157-2.847-10.525s-2.5-9.448-3.837-14.925-2.772-11.314-4.2-17.153c-1.35-5.86-2.7-11.719-3.968-17.211s-2.321-10.649-3.29-15.054-1.655-8.1-2.19-10.681c-.5-2.585-.783-4.062-.783-4.062s.411,1.448,1.131,3.98c.681,2.543,1.728,6.155,2.849,10.523s2.5,9.448,3.836,14.925,2.772,11.314,4.2,17.156l3.966,17.21c1.268,5.491,2.321,10.649,3.29,15.054s1.655,8.1,2.19,10.68C331.146,258.6,331.43,260.074,331.43,260.074Z" transform="translate(-309.181 -166.483)" fill="#fff"/>
        </g>
        <g id="Group_89" data-name="Group 89" transform="translate(57.863 27.302)" opacity="0.5">
          <path id="Path_424" data-name="Path 424" d="M169.037,158.518l9.043.335,23.836,1.017L235.6,161.5c12.321.662,25.465,1.367,38.606,2.07,13.138.789,26.275,1.577,38.591,2.315l33.656,2.195,23.8,1.691,9.023.693-9.043-.335L346.4,169.116l-33.687-1.634-38.6-2.073-38.593-2.316L201.859,160.9c-9.848-.7-18.054-1.283-23.8-1.692Z" transform="translate(-169.037 -158.518)" fill="#fff"/>
        </g>
      </g>
      <g id="_4" data-name="4" transform="translate(263.073 115.134)">
        <path id="Path_425" data-name="Path 425" d="M327.828,98.968l42.72-14.9L281.3,85.354,220.058,96.949Z" transform="translate(-158.434 -84.066)" fill="#f58c11"/>
        <path id="Path_426" data-name="Path 426" d="M327.828,98.968l42.72-14.9L281.3,85.354,220.058,96.949Z" transform="translate(-158.434 -84.066)" fill="url(#radial-gradient-3)" style="mix-blend-mode: color-burn;isolation: isolate"/>
        <path id="Path_427" data-name="Path 427" d="M240.6,92.9,347.8,92.16l21.085,88.706-189.9-8.4Z" transform="translate(-178.979 -80.017)" fill="#f58c11"/>
        <path id="Path_428" data-name="Path 428" d="M240.6,92.9,347.8,92.16l21.085,88.706-189.9-8.4Z" transform="translate(-178.979 -80.017)" fill="url(#linear-gradient-5)" style="mix-blend-mode: color-burn;isolation: isolate"/>
        <path id="Path_429" data-name="Path 429" d="M334.81,84.066l51.452,70.167L312.6,184.914,291.514,96.208Z" transform="translate(-122.696 -84.066)" fill="#f58c11"/>
        <path id="Path_430" data-name="Path 430" d="M334.81,84.066l51.452,70.167L312.6,184.914,291.514,96.208Z" transform="translate(-122.696 -84.066)" fill="url(#linear-gradient-6)" style="mix-blend-mode: color-burn;isolation: isolate"/>
        <g id="Group_90" data-name="Group 90" transform="translate(168.818 0)" opacity="0.4">
          <path id="Path_431" data-name="Path 431" d="M291.514,96.208s.656-.267,1.814-.693c1.163-.4,2.805-1.052,4.812-1.7s4.334-1.46,6.856-2.226c2.514-.786,5.217-1.559,7.918-2.336,2.711-.741,5.42-1.488,7.978-2.124,2.552-.659,4.962-1.172,7.013-1.664s3.792-.789,5-1.049c1.209-.239,1.908-.35,1.908-.35s-.656.269-1.811.693c-1.166.405-2.807,1.055-4.814,1.7s-4.332,1.464-6.856,2.228c-2.516.786-5.217,1.557-7.919,2.334-2.712.74-5.421,1.485-7.979,2.123-2.552.656-4.961,1.172-7.013,1.662s-3.791.791-5,1.052C292.213,96.1,291.514,96.208,291.514,96.208Z" transform="translate(-291.514 -84.066)" fill="#fff"/>
        </g>
        <g id="Group_91" data-name="Group 91" transform="translate(168.818 12.143)" opacity="0.4">
          <path id="Path_432" data-name="Path 432" d="M312.6,180.866s-.392-1.371-1.08-3.771c-.648-2.408-1.647-5.831-2.717-9.97s-2.381-8.953-3.65-14.142-2.633-10.723-3.99-16.259c-1.277-5.553-2.556-11.107-3.753-16.312s-2.19-10.1-3.105-14.272-1.554-7.685-2.058-10.127c-.465-2.451-.732-3.852-.732-3.852l1.08,3.77c.65,2.408,1.65,5.831,2.718,9.97s2.384,8.953,3.65,14.142,2.631,10.724,3.987,16.259c1.278,5.554,2.556,11.109,3.753,16.314s2.189,10.1,3.1,14.272,1.556,7.684,2.06,10.126Z" transform="translate(-291.514 -92.16)" fill="#fff"/>
        </g>
        <g id="Group_92" data-name="Group 92" transform="translate(61.624 11.579)" opacity="0.6">
          <path id="Path_433" data-name="Path 433" d="M220.058,93.089l4.6-.21c2.931-.095,7.118-.3,12.142-.422s10.885-.321,17.165-.4,12.981-.17,19.682-.258c6.7,0,13.4-.01,19.682-.013s12.142.12,17.169.161,9.212.2,12.145.255l4.607.147-4.605.21c-2.931.094-7.117.308-12.139.423s-10.885.326-17.168.4l-19.679.258c-6.7,0-13.4.009-19.682.013s-12.145-.122-17.169-.162-9.214-.2-12.145-.254Z" transform="translate(-220.058 -91.784)" fill="#fff"/>
        </g>
      </g>
      <g id="_5" data-name="5" transform="translate(340.636 21.947)">
        <path id="Path_434" data-name="Path 434" d="M296.9,21.947l19.91,83.767-86.13,1.723Z" transform="translate(-230.682 -21.947)" fill="#f05d32"/>
        <path id="Path_435" data-name="Path 435" d="M296.9,21.947l19.91,83.767-86.13,1.723Z" transform="translate(-230.682 -21.947)" fill="url(#linear-gradient-7)" style="mix-blend-mode: color-burn;isolation: isolate"/>
        <path id="Path_436" data-name="Path 436" d="M274.827,21.947,329.88,97.028l-35.144,8.685Z" transform="translate(-208.605 -21.947)" fill="#f05d32"/>
        <path id="Path_437" data-name="Path 437" d="M274.827,21.947,329.88,97.028l-35.144,8.685Z" transform="translate(-208.605 -21.947)" fill="url(#linear-gradient-8)" style="mix-blend-mode: color-burn;isolation: isolate"/>
        <g id="Group_93" data-name="Group 93" transform="translate(66.222 0)" opacity="0.4">
          <path id="Path_438" data-name="Path 438" d="M294.737,105.713s-.375-1.293-1.031-3.558c-.615-2.273-1.568-5.5-2.582-9.41s-2.262-8.45-3.464-13.351-2.489-10.124-3.773-15.351c-1.2-5.244-2.409-10.489-3.537-15.406s-2.058-9.536-2.918-13.48-1.452-7.261-1.925-9.568c-.434-2.316-.681-3.641-.681-3.641s.374,1.293,1.029,3.557c.617,2.274,1.572,5.5,2.585,9.412s2.265,8.45,3.462,13.351,2.487,10.124,3.771,15.351c1.2,5.244,2.408,10.49,3.537,15.408s2.057,9.536,2.916,13.48,1.454,7.259,1.925,9.566Z" transform="translate(-274.827 -21.947)" fill="#fff"/>
        </g>
        <g id="Group_94" data-name="Group 94" transform="translate(86.109 74.992)" opacity="0.4">
          <path id="Path_439" data-name="Path 439" d="M323.273,72.116s-.518.27-1.437.669c-.929.368-2.234.983-3.839,1.56-1.6.6-3.48,1.241-5.515,1.856-1.02.293-2.063.647-3.141.914l-3.266.861c-1.1.255-2.205.507-3.29.758s-2.169.438-3.209.654c-2.085.4-4.047.713-5.743.924-1.689.237-3.129.3-4.122.411-1,.077-1.583.08-1.583.08l-.045-.179,17.55-4.433,17.594-4.253Z" transform="translate(-288.084 -71.937)" fill="#fff"/>
        </g>
        <g id="Group_95" data-name="Group 95" transform="translate(0 83.675)" opacity="0.4">
          <path id="Path_440" data-name="Path 440" d="M316.817,77.908s-1.344.167-3.695.38c-2.352.173-5.71.551-9.745.77s-8.74.6-13.785.753l-15.81.522-15.816.108c-5.048.042-9.763-.153-13.806-.2s-7.409-.3-9.766-.38c-2.36-.117-3.708-.228-3.708-.228l0-.185,43.063-.953,43.067-.77Z" transform="translate(-230.683 -77.725)" fill="#fff"/>
        </g>
      </g>
    </g>
    <text id="Head_office_Managers" data-name="Head office Managers" transform="translate(801 2768)" fill="#21232a" font-size="18" font-family="HelveticaNeue-Bold, Helvetica Neue" font-weight="700"><tspan x="-94.212" y="0">Head office Managers</tspan></text>
    <text id="State_In-charges" data-name="State In-charges" transform="translate(753 2862)" fill="#21232a" font-size="18" font-family="HelveticaNeue-Bold, Helvetica Neue" font-weight="700"><tspan x="-71.082" y="0">State In-charges</tspan></text>
    <text id="Cluster_In-charges" data-name="Cluster In-charges" transform="translate(646 2959)" fill="#21232a" font-size="18" font-family="HelveticaNeue-Bold, Helvetica Neue" font-weight="700"><tspan x="-79.569" y="0">Cluster In-charges</tspan></text>
    <text id="Field_Team" data-name="Field Team" transform="translate(658 3050)" fill="#21232a" font-size="18" font-family="HelveticaNeue-Bold, Helvetica Neue" font-weight="700"><tspan x="-46.134" y="0">Field Team</tspan></text>
    <text id="Plan_Business_Activities_High-Level" data-name="Plan Business Activities &amp; High-Level" transform="translate(746 2794)" fill="#21232a" font-size="18" font-family="HelveticaNeue, Helvetica Neue"><tspan x="-149.346" y="0">Plan Business Activities &amp; High-Level</tspan></text>
    <text id="Monitor_Manage_Plants_Personnel_In" data-name="Monitor &amp; Manage Plants &amp; Personnel In" transform="translate(662 2888)" fill="#21232a" font-size="18" font-family="HelveticaNeue, Helvetica Neue"><tspan x="-162.369" y="0">Monitor &amp; Manage Plants &amp; Personnel In</tspan></text>
    <text id="Monitor_Manage_Clusters_of_4-8_Plants" data-name="Monitor &amp; Manage Clusters of 4-8 Plants" transform="translate(587 2985)" fill="#21232a" font-size="18" font-family="HelveticaNeue, Helvetica Neue"><tspan x="-163.701" y="0">Monitor &amp; Manage Clusters of 4-8 Plants</tspan></text>
    <text id="_Plant_Operators_Technicians_Collection_Agents_" data-name="(Plant Operators, Technicians, Collection Agents)" transform="translate(508 3075)" fill="#21232a" font-size="18" font-family="HelveticaNeue, Helvetica Neue"><tspan x="-196.02" y="0">(Plant Operators, Technicians, Collection Agents)</tspan></text>
  </g>
</svg>
