<svg xmlns="http://www.w3.org/2000/svg" width="1295.599" height="723.419" viewBox="0 0 1295.599 723.419">
  <g id="Group_3081" data-name="Group 3081" transform="translate(-312 -1783.403)">
    <rect id="Rectangle_18" data-name="Rectangle 18" width="203.817" height="145.398" rx="9.29" transform="translate(564.499 1832.735)" fill="#fff"/>
    <rect id="Rectangle_18-2" data-name="Rectangle 18" width="203.817" height="145.398" rx="9.29" transform="translate(1227.877 1832.735)" fill="#fff"/>
    <rect id="Rectangle_18-3" data-name="Rectangle 18" width="203.817" height="145.398" rx="9.29" transform="translate(564.499 1952.169)" fill="#fff"/>
    <rect id="Rectangle_18-4" data-name="Rectangle 18" width="203.817" height="145.398" rx="9.29" transform="translate(1227.877 1952.169)" fill="#fff"/>
    <rect id="Rectangle_18-5" data-name="Rectangle 18" width="203.817" height="145.398" rx="9.29" transform="translate(564.499 2127.425)" fill="#fff"/>
    <rect id="Rectangle_18-6" data-name="Rectangle 18" width="203.817" height="145.398" rx="9.29" transform="translate(1227.877 2127.425)" fill="#fff"/>
    <ellipse id="Ellipse_23" data-name="Ellipse 23" cx="647.799" cy="41.542" rx="647.799" ry="41.542" transform="translate(312 2423.738)" fill="#e0e0e0"/>
    <rect id="Rectangle_17" data-name="Rectangle 17" width="1044" height="666" rx="20.42" transform="translate(437.594 1804)" fill="#f2f2f2"/>
    <g id="Group_3079" data-name="Group 3079" transform="translate(437.925 1783.403)">
      <path id="Path_86" data-name="Path 86" d="M1226.749,310.869V325.9H183V304.53c0-14.641,11.442-20.17,25.556-20.17h992.638C1215.307,284.36,1226.749,296.229,1226.749,310.869Z" transform="translate(-183 -284.36)" fill="#3f3d56"/>
      <circle id="Ellipse_24" data-name="Ellipse 24" cx="7.789" cy="7.789" r="7.789" transform="translate(20.122 13.631)" fill="#00bfa6"/>
      <circle id="Ellipse_25" data-name="Ellipse 25" cx="7.789" cy="7.789" r="7.789" transform="translate(39.595 13.631)" fill="#00bfa6"/>
      <circle id="Ellipse_26" data-name="Ellipse 26" cx="7.789" cy="7.789" r="7.789" transform="translate(59.068 13.631)" fill="#00bfa6"/>
    </g>
    <path id="Path_87" data-name="Path 87" d="M347.5,503.86" transform="translate(629.176 1547.624)" fill="none" stroke="#f2f2f2" stroke-miterlimit="10" stroke-width="2"/>
    <path id="Path_88" data-name="Path 88" d="M333.5,502.86" transform="translate(612.019 1548.624)" fill="none" stroke="#f2f2f2" stroke-miterlimit="10" stroke-width="2"/>
    <text id="Portfolio_Performance_Monitoring" data-name="Portfolio
Performance
Monitoring" transform="translate(561.594 1889)" fill="#21232a" font-size="25" font-family="HelveticaNeue-Medium, Helvetica Neue" font-weight="500"><tspan x="0" y="0">Portfolio</tspan><tspan x="0" y="30">Performance</tspan><tspan x="0" y="60">Monitoring</tspan></text>
    <text id="Customer_Management" data-name="Customer
Management" transform="translate(912.594 2045)" fill="#21232a" font-size="25" font-family="HelveticaNeue-Medium, Helvetica Neue" font-weight="500"><tspan x="0" y="0">Customer</tspan><tspan x="0" y="30">Management</tspan></text>
    <text id="Remote_Monitoring_Control" data-name="Remote
Monitoring &amp; 
Control" transform="translate(1270.594 2188)" fill="#21232a" font-size="25" font-family="HelveticaNeue-Medium, Helvetica Neue" font-weight="500"><tspan x="0" y="0">Remote</tspan><tspan x="0" y="30">Monitoring &amp; </tspan><tspan x="0" y="60">Control</tspan></text>
    <text id="Financial_Reporting" data-name="Financial
Reporting" transform="translate(912.594 1900)" fill="#21232a" font-size="25" font-family="HelveticaNeue-Medium, Helvetica Neue" font-weight="500"><tspan x="0" y="0">Financial</tspan><tspan x="0" y="30">Reporting</tspan></text>
    <text id="Customer_Service" data-name="Customer
Service" transform="translate(1270.594 2045)" fill="#21232a" font-size="25" font-family="HelveticaNeue-Medium, Helvetica Neue" font-weight="500"><tspan x="0" y="0">Customer</tspan><tspan x="0" y="30">Service</tspan></text>
    <text id="Plant_Maintenance_" data-name="Plant 
Maintenance " transform="translate(561.594 2378)" fill="#21232a" font-size="25" font-family="HelveticaNeue-Medium, Helvetica Neue" font-weight="500"><tspan x="0" y="0">Plant </tspan><tspan x="0" y="30">Maintenance </tspan></text>
    <text id="Technical_Analysis" data-name="Technical
Analysis" transform="translate(1270.594 1900)" fill="#21232a" font-size="25" font-family="HelveticaNeue-Medium, Helvetica Neue" font-weight="500"><tspan x="0" y="0">Technical</tspan><tspan x="0" y="30">Analysis</tspan></text>
    <text id="Tariffs_and_Management" data-name="Tariffs and
Management" transform="translate(561.594 2218)" fill="#21232a" font-size="25" font-family="HelveticaNeue-Medium, Helvetica Neue" font-weight="500"><tspan x="0" y="0">Tariffs and</tspan><tspan x="0" y="30">Management</tspan></text>
    <text id="Installation_Commissioning" data-name="Installation &amp;
Commissioning" transform="translate(912.594 2378)" fill="#21232a" font-size="25" font-family="HelveticaNeue-Medium, Helvetica Neue" font-weight="500"><tspan x="0" y="0">Installation &amp;</tspan><tspan x="0" y="30">Commissioning</tspan></text>
    <text id="Field_Force_Management" data-name="Field Force
Management" transform="translate(561.594 2043)" fill="#21232a" font-size="25" font-family="HelveticaNeue-Medium, Helvetica Neue" font-weight="500"><tspan x="0" y="0">Field Force</tspan><tspan x="0" y="30">Management</tspan></text>
    <text id="Inventory_Management" data-name="Inventory
Management" transform="translate(912.594 2212)" fill="#21232a" font-size="25" font-family="HelveticaNeue-Medium, Helvetica Neue" font-weight="500"><tspan x="0" y="0">Inventory</tspan><tspan x="0" y="30">Management</tspan></text>
    <text id="Standardised_Reports" data-name="Standardised
Reports" transform="translate(1270.594 2378)" fill="#21232a" font-size="25" font-family="HelveticaNeue-Medium, Helvetica Neue" font-weight="500"><tspan x="0" y="0">Standardised</tspan><tspan x="0" y="30">Reports</tspan></text>
    <g id="Group_3080" data-name="Group 3080" transform="translate(496.344 1885.964)">
      <g id="Group_6" data-name="Group 6">
        <g id="Group_5" data-name="Group 5">
          <path id="Path_123" data-name="Path 123" d="M42.833,21A21.238,21.238,0,0,0,21.417,0,21.679,21.679,0,0,0,10.909,2.71H8.29V0H4.145V8.6A20.549,20.549,0,0,0,0,21a21.238,21.238,0,0,0,21.417,21,21.7,21.7,0,0,0,7.635-1.376,9.092,9.092,0,0,0,10.667-.762l-.9-1.026a7.686,7.686,0,0,1-4.964,1.809,7.455,7.455,0,1,1,7.6-7.453,7.285,7.285,0,0,1-1.675,4.669l1.077.85a8.732,8.732,0,0,0,1.98-5.519,8.626,8.626,0,0,0-1.4-4.71A20.565,20.565,0,0,0,42.833,21ZM11.054,6.776h1.382v9.486H11.054ZM8.29,4.065H9.672v12.2H8.29ZM5.527,1.355H6.909V16.262H5.527Zm15.2,39.282A19.864,19.864,0,0,1,1.4,21.682H20.726Zm0-20.31H1.409a19.142,19.142,0,0,1,2.736-9.26v6.55h15.2V10.841H16.581V8.131H13.817V5.421H11.054V4.2a20.235,20.235,0,0,1,9.672-2.817Zm-6.909-4.065V9.486H15.2v6.776Zm2.763,0V12.2h1.382v4.065Zm24.854,4.065H35.52L40.6,15.344A19.2,19.2,0,0,1,41.434,20.327Zm-3.481-10.4-7.716,7.568.977.958,7.5-7.352A19.465,19.465,0,0,1,40.1,13.92l-6.533,6.407H29.3l.893-.876-.977-.958-1.87,1.834H23.084L36.054,7.607A19.953,19.953,0,0,1,37.953,9.926ZM22.107,1.372a20.287,20.287,0,0,1,5.081.818L22.107,7.173Zm0,13.815,8.4-8.235-.977-.958-7.419,7.276V9.089L28.64,2.682a20.034,20.034,0,0,1,2.875,1.363L30.4,5.136l.977.958,1.333-1.308a20.134,20.134,0,0,1,2.365,1.863L22.107,19.369Zm11.745,9.206A8.906,8.906,0,0,0,24.871,33.2a8.7,8.7,0,0,0,2.885,6.45,20.265,20.265,0,0,1-5.648.988V21.682H41.435a19.211,19.211,0,0,1-1.009,5.538A9.028,9.028,0,0,0,33.852,24.393Z" fill="#747284"/>
        </g>
      </g>
      <g id="Group_8" data-name="Group 8" transform="translate(8.274 23.805)">
        <g id="Group_7" data-name="Group 7" transform="translate(0 0)">
          <rect id="Rectangle_19" data-name="Rectangle 19" width="12.83" height="1.512" transform="translate(0 9.072) rotate(-45)" fill="#747284"/>
        </g>
      </g>
      <g id="Group_10" data-name="Group 10" transform="translate(13.677 29.443)">
        <g id="Group_9" data-name="Group 9">
          <path id="Path_124" data-name="Path 124" d="M162.268,352a2.268,2.268,0,1,0,2.268,2.268A2.271,2.271,0,0,0,162.268,352Zm0,3.024a.756.756,0,1,1,.756-.756A.757.757,0,0,1,162.268,355.024Z" transform="translate(-160 -352)" fill="#747284"/>
        </g>
      </g>
      <g id="Group_12" data-name="Group 12" transform="translate(8.207 24.09)">
        <g id="Group_11" data-name="Group 11">
          <path id="Path_125" data-name="Path 125" d="M98.268,288a2.268,2.268,0,1,0,2.268,2.268A2.271,2.271,0,0,0,98.268,288Zm0,3.024a.756.756,0,1,1,.756-.756A.757.757,0,0,1,98.268,291.024Z" transform="translate(-96 -288)" fill="#747284"/>
        </g>
      </g>
      <g id="Group_14" data-name="Group 14" transform="translate(29.981 25.377)">
        <g id="Group_13" data-name="Group 13">
          <path id="Path_126" data-name="Path 126" d="M363.024,326.048a1.512,1.512,0,1,1,1.512-1.512h1.512a3.021,3.021,0,0,0-2.268-2.917V320h-1.512v1.619a3.018,3.018,0,0,0,.756,5.941,1.512,1.512,0,1,1-1.512,1.512H360a3.021,3.021,0,0,0,2.268,2.917v1.619h1.512v-1.619a3.018,3.018,0,0,0-.756-5.941Z" transform="translate(-360 -320)" fill="#747284"/>
        </g>
      </g>
      <g id="Group_16" data-name="Group 16" transform="translate(38.973 29.13)">
        <g id="Group_15" data-name="Group 15" transform="translate(0 0)">
          <rect id="Rectangle_20" data-name="Rectangle 20" width="1.298" height="1.298" fill="#747284"/>
        </g>
      </g>
      <g id="Group_18" data-name="Group 18" transform="translate(27.414 31.454)">
        <g id="Group_17" data-name="Group 17" transform="translate(0 0)">
          <rect id="Rectangle_21" data-name="Rectangle 21" width="1.402" height="1.402" fill="#747284"/>
        </g>
      </g>
    </g>
    <g id="Group_3077" data-name="Group 3077" transform="translate(835.173 1885.964)">
      <g id="Group_20" data-name="Group 20" transform="translate(5.113 0)">
        <g id="Group_19" data-name="Group 19">
          <path id="Path_135" data-name="Path 135" d="M80.854,8.2V9.825H83.5L68.327,26.542l-7.365-8.126L51.6,28.732l1.034,1.149,8.327-9.166,7.365,8.116L84.541,10.975v2.9h1.475V8.2Z" transform="translate(-51.6 -8.2)" fill="#707688"/>
        </g>
      </g>
      <g id="Group_22" data-name="Group 22" transform="translate(0 11.366)">
        <g id="Group_21" data-name="Group 21">
          <path id="Path_136" data-name="Path 136" d="M45.32,154.132h0V122.9H37.77v31.232H36.258v-26.97h-7.55v26.979H27.2V137.1h-7.56v17.033H18.124v-21.3h-7.55v21.3H9.062V144.2H1.512v9.937H0v1.421H46.832v-1.421Zm-37.761,0H3.024v-8.516H7.56Zm9.062,0H12.086V134.258h4.536Zm9.062.009H21.148V138.521h4.536Zm9.062,0H30.21V128.583h4.536Zm9.071-.009H39.282V124.321h4.536Z" transform="translate(0 -122.9)" fill="#707688"/>
        </g>
      </g>
    </g>
    <g id="Group_3076" data-name="Group 3076" transform="translate(1196.071 1885.964)">
      <path id="Path_127" data-name="Path 127" d="M171.219,81.279a8.758,8.758,0,1,0-8.76-8.757A8.768,8.768,0,0,0,171.219,81.279Zm0-15.644a6.886,6.886,0,1,1-6.887,6.887A6.895,6.895,0,0,1,171.219,65.635Z" transform="translate(-148.969 -57.791)" fill="#707688"/>
      <path id="Path_128" data-name="Path 128" d="M246.936,112.73a.936.936,0,0,0,.936-.936v-3.349a.936.936,0,1,0-1.873,0v3.349A.936.936,0,0,0,246.936,112.73Z" transform="translate(-224.686 -97.441)" fill="#707688"/>
      <path id="Path_129" data-name="Path 129" d="M246.936,188.917a.937.937,0,1,0-.936-.938v0A.935.935,0,0,0,246.936,188.917Z" transform="translate(-224.686 -169.527)" fill="#707688"/>
      <path id="Path_130" data-name="Path 130" d="M60.052,12.271h-4.9a2.026,2.026,0,0,0-1.794-1.088h-.411a12.679,12.679,0,0,0-1.094-2.637l.288-.289a2.023,2.023,0,0,0,0-2.864L49.989,3.236a2.027,2.027,0,0,0-2.862,0l-.292.292A12.618,12.618,0,0,0,44.2,2.435V2.024A2.026,2.026,0,0,0,42.175,0H39.127A2.026,2.026,0,0,0,37.1,2.024v.411a12.615,12.615,0,0,0-2.637,1.093l-.292-.292a2.028,2.028,0,0,0-2.862,0L29.162,5.39a2.023,2.023,0,0,0,0,2.863l.291.292a12.674,12.674,0,0,0-1.094,2.637h-.411a2.026,2.026,0,0,0-1.794,1.088H21.228A2.842,2.842,0,0,0,18.4,15.12V36.5a2.853,2.853,0,0,0,2.849,2.85H34.293l-1.4,2.972h-1.07a2.817,2.817,0,0,0-2.814,2.814V47.01a.936.936,0,0,0,.936.936h21.4a.936.936,0,0,0,.936-.936V45.136a2.817,2.817,0,0,0-2.814-2.814H48.4l-1.4-2.972H60.051A2.853,2.853,0,0,0,62.9,36.5V15.12a2.853,2.853,0,0,0-2.849-2.85Zm-32.258.936a.155.155,0,0,1,.151-.151h1.137A.936.936,0,0,0,30,12.324,10.83,10.83,0,0,1,31.416,8.9a.936.936,0,0,0-.128-1.161l-.807-.809a.144.144,0,0,1-.042-.1.148.148,0,0,1,.045-.107l2.153-2.156a.155.155,0,0,1,.213,0l.806.806A.936.936,0,0,0,34.82,5.5a10.767,10.767,0,0,1,3.424-1.42.937.937,0,0,0,.732-.914V2.024a.153.153,0,0,1,.151-.151h3.048a.153.153,0,0,1,.151.151V3.161a.937.937,0,0,0,.732.914A10.768,10.768,0,0,1,46.482,5.5a.937.937,0,0,0,1.164-.128l.806-.806a.155.155,0,0,1,.213,0L50.82,6.719a.144.144,0,0,1,.042.1.148.148,0,0,1-.046.108l-.8.806A.936.936,0,0,0,49.885,8.9a10.828,10.828,0,0,1,1.421,3.426.937.937,0,0,0,.914.732h1.137a.155.155,0,0,1,.151.151v3.045a.155.155,0,0,1-.151.151H52.22a.936.936,0,0,0-.914.732,10.836,10.836,0,0,1-1.421,3.428.937.937,0,0,0,.129,1.163l.8.8a.153.153,0,0,1,0,.216L48.665,24.9a.155.155,0,0,1-.213,0l-.806-.806a.936.936,0,0,0-1.164-.128,10.767,10.767,0,0,1-3.424,1.42.937.937,0,0,0-.732.914v1.137a.153.153,0,0,1-.151.151H39.127a.153.153,0,0,1-.151-.151V26.3a.937.937,0,0,0-.732-.914,10.768,10.768,0,0,1-3.424-1.42.936.936,0,0,0-1.164.128l-.806.806a.155.155,0,0,1-.213,0l-2.153-2.153a.153.153,0,0,1,0-.216l.8-.8a.937.937,0,0,0,.129-1.163A10.833,10.833,0,0,1,30,17.135a.937.937,0,0,0-.914-.732H27.945a.155.155,0,0,1-.151-.151ZM50.414,45.136v.938H30.888v-.938a.942.942,0,0,1,.941-.941H49.473A.942.942,0,0,1,50.414,45.136Zm-4.079-2.814H34.967l1.4-2.972h8.577Zm13.717-4.845H21.25a.978.978,0,0,1-.977-.977V34.906H46.017a.936.936,0,1,0,0-1.873H20.274V15.12a.967.967,0,0,1,.954-.977H25.92v2.108a2.026,2.026,0,0,0,2.024,2.024h.411a12.687,12.687,0,0,0,1.094,2.639l-.29.29a2.028,2.028,0,0,0,0,2.865l2.153,2.153a2.027,2.027,0,0,0,2.862,0l.292-.292A12.62,12.62,0,0,0,37.1,27.025v.411a2.026,2.026,0,0,0,2.024,2.024h3.048A2.026,2.026,0,0,0,44.2,27.435v-.411a12.615,12.615,0,0,0,2.637-1.093l.292.292a2.028,2.028,0,0,0,2.862,0l2.153-2.153a2.028,2.028,0,0,0,0-2.865l-.29-.29a12.686,12.686,0,0,0,1.094-2.639h.411a2.026,2.026,0,0,0,2.024-2.024V14.144h4.67a.978.978,0,0,1,.977.977V33.033H54.762a.936.936,0,1,0,0,1.873h6.266V36.5A.977.977,0,0,1,60.052,37.477Z" transform="translate(-18.401 0)" fill="#707688"/>
      <path id="Path_131" data-name="Path 131" d="M350.934,352.742a.936.936,0,1,0,0,1.873h0a.936.936,0,1,0,0-1.873Z" transform="translate(-318.945 -319.71)" fill="#707688"/>
    </g>
    <g id="Outline" transform="translate(496.344 2029.771)" opacity="0.698" style="isolation: isolate">
      <rect id="Rectangle_22" data-name="Rectangle 22" width="1.298" height="1.298" transform="translate(2.522 8.082)" fill="#3f3d56"/>
      <rect id="Rectangle_23" data-name="Rectangle 23" width="1.298" height="1.298" transform="translate(5.118 8.082)" fill="#3f3d56"/>
      <rect id="Rectangle_24" data-name="Rectangle 24" width="1.298" height="1.298" transform="translate(9.013 8.082)" fill="#3f3d56"/>
      <path id="Path_132" data-name="Path 132" d="M138.806,168a2.806,2.806,0,1,0,2.806,2.806A2.806,2.806,0,0,0,138.806,168Zm0,4.21a1.4,1.4,0,1,1,1.4-1.4A1.4,1.4,0,0,1,138.806,172.21Z" transform="translate(-125.476 -154.669)" fill="#3f3d56"/>
      <path id="Path_133" data-name="Path 133" d="M53.88,40.746l-4.251-.605-1.356-.71V36.56c.07-.051.138-.1.2-.155a6.325,6.325,0,0,0,2.237-3.436,11.77,11.77,0,0,0,.345-2.236h.021a2.806,2.806,0,0,0,.764-5.506,2.794,2.794,0,0,0-.062-1.632V20.911A4.911,4.911,0,0,0,46.871,16H41.258a4.911,4.911,0,0,0-4.911,4.911H18.806A2.81,2.81,0,0,0,16,23.718V42.661a2.81,2.81,0,0,0,2.806,2.806h7.446l-.936,2.806h-.9a2.1,2.1,0,0,0,0,4.21h5.613v4.911h1.4V51.08h4.21v6.314h1.4V47.572h-1.4v2.1h-4.21V45.608a3.533,3.533,0,0,1,3.01-3.473l3.7-.523L39.165,47a.7.7,0,0,0,.69.572,1.646,1.646,0,0,0,.63-.232L43.363,45.9v5.881h1.4V45.9l3.194,1.6a.7.7,0,0,0,1-.5l1.016-5.393,3.7.527a3.534,3.534,0,0,1,3.013,3.473v4.069h-4.21v-2.1h-1.4v9.822h1.4V51.08h4.21v6.314h1.4V45.608a4.945,4.945,0,0,0-4.216-4.862Zm-9.816,2.813L41.258,39.63V37.321c.166.063.333.12.5.169a6.1,6.1,0,0,0,1.776.26H44.59a6.276,6.276,0,0,0,2.28-.427V39.63Zm5.29-10.934A4.916,4.916,0,0,1,47.613,35.3l-.012.01a3.679,3.679,0,0,1-.394.276l-.012.008a4.837,4.837,0,0,1-2.6.753H43.538a4.7,4.7,0,0,1-1.374-.2l-.015,0a4.622,4.622,0,0,1-1.221-.551,4.862,4.862,0,0,1-2.155-2.968,10.46,10.46,0,0,1-.322-2.59V27.28a2.855,2.855,0,0,0,1.036.017l.429-.072a1.052,1.052,0,1,0,1.817-.3,16.1,16.1,0,0,1,4.663,0,1.053,1.053,0,1,0,1.817.3c.059.165,1.244.1,1.47.056-.034.912-.006,1.835-.006,2.75A10.462,10.462,0,0,1,49.355,32.624Zm-13.3-3.706a1.4,1.4,0,0,1,.984-2.394l.007.007v2.8A1.412,1.412,0,0,1,36.057,28.918Zm-2.9,6.051.64.64L32.8,36.6l-.64-.64a.7.7,0,0,0-.83-.121,4.18,4.18,0,0,1-.8.329.7.7,0,0,0-.5.672v.908h-1.4v-.908a.7.7,0,0,0-.5-.672,4.181,4.181,0,0,1-.8-.329.7.7,0,0,0-.83.121l-.64.64-.992-.992.64-.64a.7.7,0,0,0,.121-.83,4.184,4.184,0,0,1-.329-.8.7.7,0,0,0-.672-.5h-.908v-1.4h.908a.7.7,0,0,0,.672-.5,4.185,4.185,0,0,1,.329-.8.7.7,0,0,0-.121-.83l-.64-.64.992-.992.64.64a.7.7,0,0,0,.83.121,4.183,4.183,0,0,1,.8-.329.7.7,0,0,0,.5-.672v-.908h1.4v.908a.7.7,0,0,0,.5.672,4.184,4.184,0,0,1,.8.329.7.7,0,0,0,.83-.121l.64-.64.992.992-.64.64a.7.7,0,0,0-.121.83,4.186,4.186,0,0,1,.329.8.7.7,0,0,0,.672.5h.908v1.4h-.908a.7.7,0,0,0-.672.5,4.183,4.183,0,0,1-.329.8A.7.7,0,0,0,33.155,34.97Zm1.378-4.938-.035-.086.32-.32a2.781,2.781,0,0,0,.247.284c.042.042.086.082.13.121ZM50.216,25.4a1.408,1.408,0,0,1-1.344.512l-1.924-.321a17.5,17.5,0,0,0-5.767,0l-1.924.321A1.428,1.428,0,0,1,37.6,24.419H50.53a1.409,1.409,0,0,1-.314.981Zm2.268,2.527a1.406,1.406,0,0,1-1.4,1.4v-2.8l.009-.008A1.4,1.4,0,0,1,52.484,27.927ZM37.75,20.911A3.508,3.508,0,0,1,41.258,17.4h5.613a3.508,3.508,0,0,1,3.508,3.508v2.1H37.75ZM27.731,45.467h2.3c0,.047,0,.093,0,.14v2.666H26.8ZM24.419,51.08a.7.7,0,0,1-.7-.7.671.671,0,0,1,.2-.486l.014-.014a.671.671,0,0,1,.486-.2h5.613v1.4Zm5.866-7.016H18.806a1.4,1.4,0,0,1-1.4-1.4v-.7H31.671a4.973,4.973,0,0,0-1.386,2.1Zm8.2-3.917-2.9.409H17.4V23.718a1.4,1.4,0,0,1,1.4-1.4h17.54V23.6a2.794,2.794,0,0,0-.062,1.632,2.817,2.817,0,0,0-1.951,1.989L33.3,26.183a.7.7,0,0,0-.992,0l-.786.786-.086-.035V25.822a.7.7,0,0,0-.7-.7H27.927a.7.7,0,0,0-.7.7v1.112l-.086.035-.786-.786a.7.7,0,0,0-.992,0l-1.984,1.984a.7.7,0,0,0,0,.992l.786.786-.035.086H23.016a.7.7,0,0,0-.7.7V33.54a.7.7,0,0,0,.7.7h1.112l.035.086-.786.786a.7.7,0,0,0,0,.992l1.984,1.984a.7.7,0,0,0,.992,0l.786-.786.086.035v1.112a.7.7,0,0,0,.7.7h2.806a.7.7,0,0,0,.7-.7V37.34l.086-.035.786.786a.7.7,0,0,0,.992,0l1.984-1.984a.7.7,0,0,0,0-.992l-.786-.786q.018-.043.035-.086h1.112a.7.7,0,0,0,.7-.7V30.734a.707.707,0,0,0-.007-.093,2.779,2.779,0,0,0,.708.093h.021a11.744,11.744,0,0,0,.343,2.231,6.244,6.244,0,0,0,2.442,3.593V39.43Zm1.886,5.68L39.5,41.2l.84-.44,2.676,3.746Zm7.384,0-2.644-1.322,2.676-3.746.84.44Z" transform="translate(-16 -16)" fill="#3f3d56"/>
      <path id="Path_134" data-name="Path 134" d="M312.986,185.234H312v1.4h.986a9.873,9.873,0,0,0,3.473-.6l-.5-1.311A8.463,8.463,0,0,1,312.986,185.234Z" transform="translate(-286.041 -169.927)" fill="#3f3d56"/>
      <rect id="Rectangle_25" data-name="Rectangle 25" width="5.193" height="1.298" transform="translate(24.591 4.187)" fill="#3f3d56"/>
      <rect id="Rectangle_26" data-name="Rectangle 26" height="1.298" transform="translate(24.591 32.747)" fill="#3f3d56"/>
    </g>
    <g id="Browser-Management-Gear-Profile-Online" transform="translate(831.278 2027.162)" opacity="0.701">
      <path id="Path_137" data-name="Path 137" d="M30.978,49.089H6.528a2.717,2.717,0,0,1-2.717-2.717V11.056H49.089V31.883H50.9V6.528A4.533,4.533,0,0,0,46.372,2H6.528A4.533,4.533,0,0,0,2,6.528V46.372A4.533,4.533,0,0,0,6.528,50.9h24.45ZM6.528,3.811H46.372a2.717,2.717,0,0,1,2.717,2.717V9.244H3.811V6.528A2.717,2.717,0,0,1,6.528,3.811Z" transform="translate(-2 -2)" fill="#3f3d56"/>
      <path id="Path_138" data-name="Path 138" d="M8,6H9.811V7.811H8Z" transform="translate(-2.567 -2.378)" fill="#3f3d56"/>
      <path id="Path_139" data-name="Path 139" d="M12,6h1.811V7.811H12Z" transform="translate(-2.944 -2.378)" fill="#3f3d56"/>
      <path id="Path_140" data-name="Path 140" d="M16,6h1.811V7.811H16Z" transform="translate(-3.322 -2.378)" fill="#3f3d56"/>
      <path id="Path_141" data-name="Path 141" d="M19.464,24.477l-2.508-1.666a3.572,3.572,0,0,0,1.005-2.472V17.622a3.622,3.622,0,0,0-7.244,0v2.717a3.578,3.578,0,0,0,1,2.481l-2.5,1.657A2.722,2.722,0,0,0,8,26.741v2.653a.906.906,0,0,0,.906.906H19.772a.906.906,0,0,0,.906-.906V26.741a2.722,2.722,0,0,0-1.213-2.264Zm-6.937-6.855a1.811,1.811,0,0,1,3.568-.435l-.208-.208a.913.913,0,0,0-1.286,0l-1.277,1.277a.906.906,0,0,1-.643.272h-.154Zm.154,2.717a2.717,2.717,0,0,0,1.929-.8l.634-.643.906.906v.534a1.794,1.794,0,0,1-.607,1.349,1.842,1.842,0,0,1-2.409,0l-.072-.072a1.8,1.8,0,0,1-.534-1.277Zm2.744,3.622-1.087.724-1.087-.724.2-.127a3.169,3.169,0,0,0,1.775,0Zm3.441,4.528H9.811V26.741a.906.906,0,0,1,.408-.752l1.4-.942,2.219,1.476a.883.883,0,0,0,1,0l2.219-1.476,1.4.942a.906.906,0,0,1,.408.752Z" transform="translate(-2.567 -3.133)" fill="#3f3d56"/>
      <path id="Path_142" data-name="Path 142" d="M19.464,44.477l-2.508-1.666a3.572,3.572,0,0,0,1.005-2.472V37.622a3.622,3.622,0,1,0-7.244,0v2.717a3.578,3.578,0,0,0,1,2.481l-2.5,1.657A2.722,2.722,0,0,0,8,46.741v2.653a.906.906,0,0,0,.906.906H19.772a.906.906,0,0,0,.906-.906V46.741a2.722,2.722,0,0,0-1.213-2.264Zm-6.937-6.855a1.811,1.811,0,0,1,3.568-.435l-.208-.208a.913.913,0,0,0-1.286,0l-1.277,1.277a.906.906,0,0,1-.643.272h-.154Zm.154,2.717a2.717,2.717,0,0,0,1.929-.8l.634-.643.906.906v.534a1.794,1.794,0,0,1-.607,1.349,1.842,1.842,0,0,1-2.409,0l-.072-.072a1.8,1.8,0,0,1-.534-1.277Zm2.744,3.622-1.087.724-1.087-.724.2-.127a3.169,3.169,0,0,0,1.775,0Zm3.441,4.528H9.811V46.741a.906.906,0,0,1,.408-.752l1.4-.942,2.219,1.476a.883.883,0,0,0,1,0l2.219-1.476,1.4.942a.906.906,0,0,1,.408.752Z" transform="translate(-2.567 -5.022)" fill="#3f3d56"/>
      <path id="Path_143" data-name="Path 143" d="M27,60h9.056v1.811H27Z" transform="translate(-4.361 -7.478)" fill="#3f3d56"/>
      <path id="Path_144" data-name="Path 144" d="M23,60h1.811v1.811H23Z" transform="translate(-3.983 -7.478)" fill="#3f3d56"/>
      <path id="Path_145" data-name="Path 145" d="M60,34h1.811v1.811H60Z" transform="translate(-7.478 -5.022)" fill="#3f3d56"/>
      <path id="Path_146" data-name="Path 146" d="M60,22h1.811v9.056H60Z" transform="translate(-7.478 -3.889)" fill="#3f3d56"/>
      <path id="Path_147" data-name="Path 147" d="M27,28H39.678v1.811H27Z" transform="translate(-4.361 -4.455)" fill="#3f3d56"/>
      <path id="Path_148" data-name="Path 148" d="M27,24H39.678v1.811H27Z" transform="translate(-4.361 -4.078)" fill="#3f3d56"/>
      <path id="Path_149" data-name="Path 149" d="M31,20h9.056v1.811H31Z" transform="translate(-4.739 -3.7)" fill="#3f3d56"/>
      <path id="Path_150" data-name="Path 150" d="M27,20h1.811v1.811H27Z" transform="translate(-4.361 -3.7)" fill="#3f3d56"/>
      <path id="Path_151" data-name="Path 151" d="M27,48h4.528v1.811H27Z" transform="translate(-4.361 -6.344)" fill="#3f3d56"/>
      <path id="Path_152" data-name="Path 152" d="M27,44h4.528v1.811H27Z" transform="translate(-4.361 -5.967)" fill="#3f3d56"/>
      <path id="Path_153" data-name="Path 153" d="M31,40h3.622v1.811H31Z" transform="translate(-4.739 -5.589)" fill="#3f3d56"/>
      <path id="Path_154" data-name="Path 154" d="M27,40h1.811v1.811H27Z" transform="translate(-4.361 -5.589)" fill="#3f3d56"/>
      <path id="Path_155" data-name="Path 155" d="M58.579,43.97l-2.429-.347a9.836,9.836,0,0,0-.615-1.484l1.472-1.961a.906.906,0,0,0-.084-1.184l-2.561-2.561a.906.906,0,0,0-1.183-.084L51.216,37.82a9.872,9.872,0,0,0-1.484-.614l-.347-2.429a.906.906,0,0,0-.9-.777H44.867a.906.906,0,0,0-.9.777l-.347,2.429a9.83,9.83,0,0,0-1.484.614l-1.962-1.471a.906.906,0,0,0-1.183.084l-2.561,2.561a.906.906,0,0,0-.084,1.184l1.472,1.961a9.836,9.836,0,0,0-.615,1.484l-2.429.347a.906.906,0,0,0-.777.9v3.622a.906.906,0,0,0,.777.9l2.429.347a9.837,9.837,0,0,0,.615,1.484l-1.472,1.961a.906.906,0,0,0,.084,1.184l2.561,2.561a.906.906,0,0,0,1.183.084l1.962-1.471a9.83,9.83,0,0,0,1.484.614l.347,2.429a.906.906,0,0,0,.9.777h3.622a.906.906,0,0,0,.9-.777l.347-2.429a9.87,9.87,0,0,0,1.484-.614l1.962,1.471a.906.906,0,0,0,1.183-.084l2.561-2.561a.906.906,0,0,0,.084-1.184l-1.472-1.961a9.835,9.835,0,0,0,.615-1.484l2.429-.347a.906.906,0,0,0,.777-.9V44.867a.906.906,0,0,0-.777-.9ZM57.545,47.7l-2.23.319a.906.906,0,0,0-.749.672,8.08,8.08,0,0,1-.885,2.134.906.906,0,0,0,.055,1.006l1.351,1.8-1.449,1.449-1.8-1.351a.906.906,0,0,0-1.005-.054,8.022,8.022,0,0,1-2.134.883.906.906,0,0,0-.674.75L47.7,57.545H45.652l-.318-2.23a.906.906,0,0,0-.674-.75,8.023,8.023,0,0,1-2.134-.883.906.906,0,0,0-1.005.054l-1.8,1.351L38.27,53.638l1.351-1.8a.906.906,0,0,0,.055-1.006,8.08,8.08,0,0,1-.885-2.134.906.906,0,0,0-.749-.672l-2.231-.32V45.652l2.23-.319a.906.906,0,0,0,.749-.672,8.08,8.08,0,0,1,.885-2.134.906.906,0,0,0-.055-1.006l-1.351-1.8,1.449-1.449,1.8,1.351a.906.906,0,0,0,1.005.054,8.023,8.023,0,0,1,2.133-.883.906.906,0,0,0,.674-.75l.319-2.231H47.7l.318,2.23a.906.906,0,0,0,.674.75,8.022,8.022,0,0,1,2.133.883.906.906,0,0,0,1.005-.054l1.8-1.351,1.449,1.449-1.351,1.8a.906.906,0,0,0-.055,1.006,8.08,8.08,0,0,1,.885,2.134.906.906,0,0,0,.749.672l2.231.32Z" transform="translate(-5.022 -5.022)" fill="#3f3d56"/>
      <path id="Path_156" data-name="Path 156" d="M47.433,42a5.433,5.433,0,1,0,5.433,5.433A5.433,5.433,0,0,0,47.433,42Zm0,9.056a3.622,3.622,0,1,1,3.622-3.622A3.622,3.622,0,0,1,47.433,51.056Z" transform="translate(-5.778 -5.778)" fill="#3f3d56"/>
      <path id="Path_157" data-name="Path 157" d="M47,38h1.811v1.811H47Z" transform="translate(-6.25 -5.4)" fill="#3f3d56"/>
      <path id="Path_158" data-name="Path 158" d="M0,0H1.811V1.811H0Z" transform="translate(34.604 35.884) rotate(-45)" fill="#3f3d56"/>
      <path id="Path_159" data-name="Path 159" d="M38,47h1.811v1.811H38Z" transform="translate(-5.4 -6.25)" fill="#3f3d56"/>
      <path id="Path_160" data-name="Path 160" d="M0,0H1.811V1.811H0Z" transform="translate(34.603 47.417) rotate(-45)" fill="#3f3d56"/>
      <path id="Path_161" data-name="Path 161" d="M47,56h1.811v1.811H47Z" transform="translate(-6.25 -7.1)" fill="#3f3d56"/>
      <path id="Path_162" data-name="Path 162" d="M0,0H1.811V1.811H0Z" transform="translate(46.128 47.407) rotate(-45)" fill="#3f3d56"/>
      <path id="Path_163" data-name="Path 163" d="M56,47h1.811v1.811H56Z" transform="translate(-7.1 -6.25)" fill="#3f3d56"/>
      <path id="Path_164" data-name="Path 164" d="M0,0H1.811V1.811H0Z" transform="translate(46.13 35.905) rotate(-45)" fill="#3f3d56"/>
    </g>
    <g id="Page-1" transform="translate(832.576 2194.782)" opacity="0.701">
      <g id="_023---Inventory" data-name="023---Inventory" transform="translate(0 0)">
        <path id="Shape" d="M48.606,0H2.558A2.558,2.558,0,0,0,0,2.558V48.606a2.558,2.558,0,0,0,2.558,2.558H48.606a2.558,2.558,0,0,0,2.558-2.558V2.558A2.558,2.558,0,0,0,48.606,0Zm.853,48.606a.853.853,0,0,1-.853.853H2.558a.853.853,0,0,1-.853-.853V2.558a.853.853,0,0,1,.853-.853H48.606a.853.853,0,0,1,.853.853Z" transform="translate(0 0)" fill="#3f3d56"/>
        <path id="Shape-2" data-name="Shape" d="M55.159,4.25a.853.853,0,0,0-1.206,0l-.25.25-.25-.25a.853.853,0,0,0-1.206,1.206l.25.25-.25.25a.853.853,0,1,0,1.206,1.206l.25-.25.25.25a.853.853,0,0,0,1.206-1.206l-.25-.25.25-.25A.853.853,0,0,0,55.159,4.25Z" transform="translate(-7.656 -0.589)" fill="#3f3d56"/>
        <path id="Shape-3" data-name="Shape" d="M17.644,4H5.705A1.705,1.705,0,0,0,4,5.705V17.644a1.705,1.705,0,0,0,1.705,1.705H17.644a1.705,1.705,0,0,0,1.705-1.705V5.705A1.705,1.705,0,0,0,17.644,4ZM5.705,17.644V5.705H17.644V17.644Z" transform="translate(-0.589 -0.589)" fill="#3f3d56"/>
        <path id="Shape-4" data-name="Shape" d="M24.853,6.705h7.675a.853.853,0,1,0,0-1.705H24.853a.853.853,0,1,0,0,1.705Z" transform="translate(-3.534 -0.736)" fill="#3f3d56"/>
        <path id="Shape-5" data-name="Shape" d="M24.853,12.705h2.558a.853.853,0,1,0,0-1.705H24.853a.853.853,0,1,0,0,1.705Z" transform="translate(-3.534 -1.62)" fill="#3f3d56"/>
        <path id="Shape-6" data-name="Shape" d="M31,11.853a.853.853,0,0,0,.853.853h5.969a.853.853,0,1,0,0-1.705H31.853A.853.853,0,0,0,31,11.853Z" transform="translate(-4.565 -1.62)" fill="#3f3d56"/>
        <path id="Shape-7" data-name="Shape" d="M38.5,15H24.853a.853.853,0,1,0,0,1.705H38.5A.853.853,0,1,0,38.5,15Z" transform="translate(-3.534 -2.209)" fill="#3f3d56"/>
        <path id="Shape-8" data-name="Shape" d="M27.411,20.705a.853.853,0,0,0,0-1.705H24.853a.853.853,0,1,0,0,1.705Z" transform="translate(-3.534 -2.798)" fill="#3f3d56"/>
        <path id="Shape-9" data-name="Shape" d="M37.822,19H31.853a.853.853,0,1,0,0,1.705h5.969a.853.853,0,0,0,0-1.705Z" transform="translate(-4.565 -2.798)" fill="#3f3d56"/>
        <path id="Shape-10" data-name="Shape" d="M14.233,24H5.705A1.705,1.705,0,0,0,4,25.705v8.527a1.705,1.705,0,0,0,1.705,1.705h8.527a1.705,1.705,0,0,0,1.705-1.705V25.705A1.705,1.705,0,0,0,14.233,24ZM5.705,34.233V25.705h8.527v8.527Z" transform="translate(-0.589 -3.534)" fill="#3f3d56"/>
        <path id="Shape-11" data-name="Shape" d="M33.233,24H24.705A1.705,1.705,0,0,0,23,25.705v8.527a1.705,1.705,0,0,0,1.705,1.705h8.527a1.705,1.705,0,0,0,1.705-1.705V25.705A1.705,1.705,0,0,0,33.233,24ZM24.705,34.233V25.705h8.527v8.527Z" transform="translate(-3.387 -3.534)" fill="#3f3d56"/>
        <path id="Shape-12" data-name="Shape" d="M52.233,24H43.705A1.705,1.705,0,0,0,42,25.705v8.527a1.705,1.705,0,0,0,1.705,1.705h8.527a1.705,1.705,0,0,0,1.705-1.705V25.705A1.705,1.705,0,0,0,52.233,24ZM43.705,34.233V25.705h8.527v8.527Z" transform="translate(-6.185 -3.534)" fill="#3f3d56"/>
        <path id="Shape-13" data-name="Shape" d="M14.233,42H5.705A1.705,1.705,0,0,0,4,43.705v8.527a1.705,1.705,0,0,0,1.705,1.705h8.527a1.705,1.705,0,0,0,1.705-1.705V43.705A1.705,1.705,0,0,0,14.233,42ZM5.705,52.233V43.705h8.527v8.527Z" transform="translate(-0.589 -6.185)" fill="#3f3d56"/>
        <path id="Shape-14" data-name="Shape" d="M33.233,42H24.705A1.705,1.705,0,0,0,23,43.705v8.527a1.705,1.705,0,0,0,1.705,1.705h8.527a1.705,1.705,0,0,0,1.705-1.705V43.705A1.705,1.705,0,0,0,33.233,42ZM24.705,52.233V43.705h8.527v8.527Z" transform="translate(-3.387 -6.185)" fill="#3f3d56"/>
        <path id="Shape-15" data-name="Shape" d="M52.233,42H43.705A1.705,1.705,0,0,0,42,43.705v8.527a1.705,1.705,0,0,0,1.705,1.705h8.527a1.705,1.705,0,0,0,1.705-1.705V43.705A1.705,1.705,0,0,0,52.233,42ZM43.705,52.233V43.705h8.527v8.527Z" transform="translate(-6.185 -6.185)" fill="#3f3d56"/>
        <path id="Shape-16" data-name="Shape" d="M15.673,8H12.688a3.842,3.842,0,0,0-3.837,3.837,3.8,3.8,0,0,0,.6,2.035l-1.2,1.2a.853.853,0,1,0,1.206,1.206l1.2-1.2a3.8,3.8,0,0,0,2.035.6,3.842,3.842,0,0,0,3.837-3.837V8.853A.853.853,0,0,0,15.673,8Zm-.853,3.837a2.132,2.132,0,0,1-3.627,1.516l-.009-.013s-.009,0-.013-.009a2.132,2.132,0,0,1,1.516-3.627H14.82Z" transform="translate(-1.176 -1.178)" fill="#3f3d56"/>
        <path id="Shape-17" data-name="Shape" d="M11.659,28.252,8.248,31.663a.853.853,0,1,0,1.206,1.206l3.411-3.411a.853.853,0,0,0-1.206-1.206Z" transform="translate(-1.176 -4.125)" fill="#3f3d56"/>
        <path id="Shape-18" data-name="Shape" d="M30.659,28.252l-3.411,3.411a.853.853,0,1,0,1.206,1.206l3.411-3.411a.853.853,0,0,0-1.206-1.206Z" transform="translate(-3.974 -4.125)" fill="#3f3d56"/>
      </g>
    </g>
    <g id="support" transform="translate(1192.176 2029.117)" opacity="0.701">
      <g id="Group_24" data-name="Group 24" transform="translate(0.001 8.499)">
        <g id="Group_23" data-name="Group 23">
          <path id="Path_165" data-name="Path 165" d="M43.282,117.4l-1.968-5.9a5.949,5.949,0,0,0-4.58-3.972l-5.68-1.033v-.44a8.553,8.553,0,0,0,2.534-2.25H35.3a2.553,2.553,0,0,0,2.55-2.55v-10.2a11.049,11.049,0,1,0-22.1,0V97a3.405,3.405,0,0,0,2.71,3.329,8.515,8.515,0,0,0,4.089,5.72v.44l-5.681,1.033a5.948,5.948,0,0,0-4.579,3.972l-.34,1.021L9.06,109.618a.852.852,0,0,1,0-1.2l3.357-3.356-6.3-6.3-3.794,3.794a5.949,5.949,0,0,0,0,8.413l11.486,11.486a5.946,5.946,0,0,0,8.387.026l4.14-3.793L25.044,117.4Zm-7.128-16.148a.851.851,0,0,1-.85.85h-.715a8.443,8.443,0,0,0,.554-1.77,3.366,3.366,0,0,0,1.011-.4Zm-.85-2.786V95.535a1.685,1.685,0,0,1,0,2.927Zm-17,0a1.685,1.685,0,0,1,0-2.927Zm0-5.713v.971a3.372,3.372,0,0,0-.85.352V91.049a9.349,9.349,0,1,1,18.7,0v3.022a3.34,3.34,0,0,0-.85-.352v-.971h-.85A9.351,9.351,0,0,1,27.8,89.992l-1-1-1,1a9.351,9.351,0,0,1-6.654,2.756Zm1.7,5.949V94.416A11.019,11.019,0,0,0,26.8,91.4a11.014,11.014,0,0,0,6.8,3.021V98.7a6.748,6.748,0,0,1-.92,3.4H26.8v1.7h4.482a6.788,6.788,0,0,1-11.282-5.1Zm9.349,8.107v.04l-2.55,2.55-2.55-2.55v-.04a8.492,8.492,0,0,0,5.1,0Zm-15.448,5.224a4.251,4.251,0,0,1,3.271-2.838l5.941-1.079L26.8,111.8l3.685-3.685,5.94,1.079A4.249,4.249,0,0,1,39.7,112.03l1.223,3.666H23.345l-3.31-3.31-3.678,3.327a.868.868,0,0,1-1.2,0L13.3,113.857ZM6.115,101.162l3.9,3.9-.923.923-3.9-3.9Zm14.9,20.09a4.25,4.25,0,0,1-6.01,0L3.522,109.764a4.25,4.25,0,0,1,0-6.01l.467-.467,3.9,3.9-.031.031a2.554,2.554,0,0,0,0,3.606l6.095,6.095a2.536,2.536,0,0,0,1.8.747,2.5,2.5,0,0,0,1.772-.717l.064-.057,3.915,3.915Zm1.742-1.6-3.907-3.907,1.123-1.015,3.9,3.9Z" transform="translate(-0.58 -80)" fill="#3f3d56"/>
        </g>
      </g>
      <g id="Group_26" data-name="Group 26" transform="translate(35.574)">
        <g id="Group_25" data-name="Group 25">
          <path id="Path_166" data-name="Path 166" d="M349.876,0h-11.9a2.553,2.553,0,0,0-2.55,2.55v6.8a2.553,2.553,0,0,0,2.55,2.55h2.27l-.879,5.126,8.2-5.126h2.306a2.553,2.553,0,0,0,2.55-2.55V2.55A2.553,2.553,0,0,0,349.876,0Zm.85,9.349a.851.851,0,0,1-.85.85h-2.794l-5.4,3.373.579-3.373h-4.286a.851.851,0,0,1-.85-.85V2.55a.851.851,0,0,1,.85-.85h11.9a.851.851,0,0,1,.85.85Z" transform="translate(-335.428)" fill="#3f3d56"/>
        </g>
      </g>
      <g id="Group_28" data-name="Group 28" transform="translate(38.974 3.4)">
        <g id="Group_27" data-name="Group 27">
          <rect id="Rectangle_27" data-name="Rectangle 27" width="10.199" height="1.7" fill="#3f3d56"/>
        </g>
      </g>
      <g id="Group_30" data-name="Group 30" transform="translate(38.974 6.799)">
        <g id="Group_29" data-name="Group 29">
          <rect id="Rectangle_28" data-name="Rectangle 28" width="6.799" height="1.7" fill="#3f3d56"/>
        </g>
      </g>
      <g id="Group_32" data-name="Group 32" transform="translate(47.473 6.799)">
        <g id="Group_31" data-name="Group 31">
          <rect id="Rectangle_29" data-name="Rectangle 29" width="1.7" height="1.7" fill="#3f3d56"/>
        </g>
      </g>
      <g id="Group_34" data-name="Group 34" transform="translate(0 2.55)">
        <g id="Group_33" data-name="Group 33">
          <path id="Path_167" data-name="Path 167" d="M26.8,24A23.782,23.782,0,0,0,3.64,42.4L2.03,39.711l-1.458.875,2.987,4.978,4.978-2.987-.875-1.458L5.359,42.5A22.1,22.1,0,0,1,33.345,26.686l.5-1.623A23.782,23.782,0,0,0,26.8,24Z" transform="translate(-0.572 -24)" fill="#3f3d56"/>
        </g>
      </g>
      <g id="Group_36" data-name="Group 36" transform="translate(43.394 15.831)">
        <g id="Group_35" data-name="Group 35">
          <path id="Path_168" data-name="Path 168" d="M417.8,152l-4.978-2.987-2.987,4.979,1.458.875,1.487-2.479a22.116,22.116,0,0,1-3.745,21.055l1.32,1.071a23.8,23.8,0,0,0,4.073-22.553l2.5,1.5Z" transform="translate(-409.036 -149.016)" fill="#3f3d56"/>
        </g>
      </g>
    </g>
    <g id="Outline-2" data-name="Outline" transform="translate(497.642 2208.725)" opacity="0.701">
      <path id="Path_169" data-name="Path 169" d="M53.787,16H18.7A2.7,2.7,0,0,0,16,18.7V53.787a2.7,2.7,0,0,0,2.7,2.7H53.787a2.7,2.7,0,0,0,2.7-2.7V18.7a2.7,2.7,0,0,0-2.7-2.7ZM18.7,17.35H53.787a1.351,1.351,0,0,1,1.35,1.35v2.7H17.35V18.7A1.351,1.351,0,0,1,18.7,17.35ZM53.787,55.137H18.7a1.351,1.351,0,0,1-1.35-1.35V22.748H55.137v31.04A1.351,1.351,0,0,1,53.787,55.137Z" transform="translate(-16 -16)" fill="#3f3d56"/>
      <path id="Path_170" data-name="Path 170" d="M48,48h1.35v1.35H48Z" transform="translate(-45.301 -45.301)" fill="#3f3d56"/>
      <path id="Path_171" data-name="Path 171" d="M80,48h1.35v1.35H80Z" transform="translate(-74.602 -45.301)" fill="#3f3d56"/>
      <path id="Path_172" data-name="Path 172" d="M112,48h1.35v1.35H112Z" transform="translate(-103.903 -45.301)" fill="#3f3d56"/>
      <path id="Path_173" data-name="Path 173" d="M338.122,120h-9.447a.675.675,0,0,0-.675.675v9.447a.675.675,0,0,0,.675.675h9.447a.675.675,0,0,0,.675-.675v-9.447A.675.675,0,0,0,338.122,120Zm-6.073,1.35h2.7v2.024h-2.7Zm5.4,8.1h-8.1v-8.1h1.35v2.7a.675.675,0,0,0,.675.675h4.049a.675.675,0,0,0,.675-.675v-2.7h1.349Z" transform="translate(-301.684 -111.228)" fill="#3f3d56"/>
      <path id="Path_174" data-name="Path 174" d="M408,200h1.35v1.35H408Z" transform="translate(-374.936 -184.48)" fill="#3f3d56"/>
      <path id="Path_175" data-name="Path 175" d="M155.374,129.447a.673.673,0,0,0,.477-.2c.118-.118,2.9-2.931,2.9-5.875a3.374,3.374,0,1,0-6.748,0c0,2.945,2.778,5.757,2.9,5.875A.673.673,0,0,0,155.374,129.447Zm0-8.1a2.027,2.027,0,0,1,2.024,2.024c0,1.725-1.3,3.519-2.024,4.387-.726-.868-2.024-2.662-2.024-4.387A2.027,2.027,0,0,1,155.374,121.35Z" transform="translate(-140.529 -111.228)" fill="#3f3d56"/>
      <path id="Path_176" data-name="Path 176" d="M140.723,207.923c2.648,0,4.723-1.482,4.723-3.374a2.723,2.723,0,0,0-.707-1.792l-1.019.884a1.376,1.376,0,0,1,.377.907c0,1.1-1.545,2.024-3.374,2.024s-3.374-.927-3.374-2.024a1.376,1.376,0,0,1,.377-.907l-1.019-.884a2.723,2.723,0,0,0-.707,1.792C136,206.441,138.075,207.923,140.723,207.923Z" transform="translate(-125.878 -187.005)" fill="#3f3d56"/>
      <path id="Path_177" data-name="Path 177" d="M291.374,289.447a.673.673,0,0,0,.477-.2c.118-.118,2.9-2.931,2.9-5.875a3.374,3.374,0,0,0-6.748,0c0,2.945,2.778,5.757,2.9,5.875A.673.673,0,0,0,291.374,289.447Zm0-8.1a2.027,2.027,0,0,1,2.024,2.024c0,1.725-1.3,3.519-2.024,4.387-.726-.869-2.024-2.662-2.024-4.387A2.027,2.027,0,0,1,291.374,281.35Z" transform="translate(-265.058 -257.732)" fill="#3f3d56"/>
      <path id="Path_178" data-name="Path 178" d="M276.723,367.923c2.648,0,4.723-1.482,4.723-3.374a2.723,2.723,0,0,0-.707-1.792l-1.019.884a1.376,1.376,0,0,1,.377.907c0,1.1-1.545,2.024-3.374,2.024s-3.374-.927-3.374-2.024a1.376,1.376,0,0,1,.377-.907l-1.019-.884a2.723,2.723,0,0,0-.707,1.792C272,366.441,274.075,367.923,276.723,367.923Z" transform="translate(-250.407 -333.509)" fill="#3f3d56"/>
      <path id="Path_179" data-name="Path 179" d="M248,160h2.7v1.35H248Z" transform="translate(-228.432 -147.854)" fill="#3f3d56"/>
      <path id="Path_180" data-name="Path 180" d="M296,160h1.35v1.35H296Z" transform="translate(-272.383 -147.854)" fill="#3f3d56"/>
      <path id="Path_181" data-name="Path 181" d="M68.146,332.049h.675a.675.675,0,0,0,.655-.838l-.675-2.7a.675.675,0,0,0-.655-.511H57.35a.675.675,0,0,0-.655.511l-.675,2.7a.675.675,0,0,0,.655.838h.675v5.4H56v1.35H69.5v-1.35h-1.35Zm-10.27-2.7h9.743l.337,1.35H57.539Zm.823,2.7h8.1v5.4H64.772V336.1a2.024,2.024,0,0,0-4.049,0v1.349H58.7Zm4.723,5.4h-1.35V336.1a.675.675,0,1,1,1.35,0Z" transform="translate(-52.626 -301.684)" fill="#3f3d56"/>
      <path id="Path_182" data-name="Path 182" d="M60.277,171.662l13.268.553.056-1.348-13.268-.553a4.491,4.491,0,1,1,.187-8.98h.907v-1.35H60.52a5.84,5.84,0,1,0-.243,11.678Z" transform="translate(-51.305 -147.84)" fill="#3f3d56"/>
      <path id="Path_183" data-name="Path 183" d="M273.607,293.012l-.132-.005-.056,1.348.132.005a5.524,5.524,0,1,1-.23,11.046H264v1.35h9.32a6.874,6.874,0,1,0,.287-13.744Z" transform="translate(-243.082 -269.642)" fill="#3f3d56"/>
      <path id="Path_184" data-name="Path 184" d="M232,440h1.349v1.35H232Z" transform="translate(-213.781 -404.237)" fill="#3f3d56"/>
    </g>
    <g id="maintenance" transform="translate(496.344 2366.757)" opacity="0.701">
      <path id="Path_187" data-name="Path 187" d="M33.821,23.346a10.405,10.405,0,0,0-4.888,1.218V20.733A10.475,10.475,0,1,0,24.462,6.8L17.339,1.55a2.9,2.9,0,0,0-3.349,0L1,11.122v3.844H2.4V28.617a10.47,10.47,0,1,0,19.553,5.2,10.516,10.516,0,0,0-.211-2.095h1.819a10.475,10.475,0,1,0,10.263-8.38Zm0-20.95a9.078,9.078,0,1,1-9.078,9.078A9.089,9.089,0,0,1,33.821,2.4ZM23.382,12.173a10.442,10.442,0,0,0,.176,1.4H16.363v-1.4ZM19.535,4.9,17.76,7.032V9.38h1.4V8.415l1.783.891.625-1.249-2-1,1.1-1.323,3.245,2.391a10.4,10.4,0,0,0-.524,2.653h-7.02V2.6a1.273,1.273,0,0,1,.148.074ZM14.818,2.675a1.22,1.22,0,0,1,.148-.074v8.176H3.823L8.909,7.029,9.581,8.6l3.852.771L13.707,8l-3.131-.626-.512-1.193ZM2.4,12.173h12.57v1.4H2.4Zm1.4,2.793H14.967v8.991a10.329,10.329,0,0,0-1.4-.4V16.363H5.19v9.1a10.555,10.555,0,0,0-1.4,1.263Zm8.38,8.416c-.232-.015-.462-.036-.7-.036a10.405,10.405,0,0,0-4.888,1.218v-6.8h5.587Zm-.7,19.517a9.078,9.078,0,1,1,9.078-9.078A9.089,9.089,0,0,1,11.475,42.9Zm9.864-12.57a10.517,10.517,0,0,0-4.976-5.765v-9.6h7.594a10.455,10.455,0,0,0,1.5,2.793h-7.7v6.983h8.38v-6.17a10.554,10.554,0,0,0,1.4,1.263v5.626a10.5,10.5,0,0,0-3.579,4.868Zm3.4-11.173v4.19H19.156v-4.19ZM33.821,42.9A9.078,9.078,0,1,1,42.9,33.821,9.089,9.089,0,0,1,33.821,42.9Z" transform="translate(-1 -1)" fill="#3f3d56"/>
      <path id="Path_188" data-name="Path 188" d="M17.475,39H11.888a2.092,2.092,0,0,0-1.966,1.4H7v4.037l5.587,1.4v1.678a2.092,2.092,0,0,0-1.4,1.966v1.4a2.095,2.095,0,0,0,4.19,0v-1.4a2.092,2.092,0,0,0-1.4-1.966v-2.77L8.4,43.342V41.793H9.922a2.092,2.092,0,0,0,1.966,1.4h5.587a2.095,2.095,0,1,0,0-4.19ZM13.983,50.872a.7.7,0,0,1-1.4,0v-1.4a.7.7,0,0,1,1.4,0Zm3.492-9.078H11.888a.7.7,0,1,1,0-1.4h5.587a.7.7,0,0,1,0,1.4Z" transform="translate(-2.81 -12.464)" fill="#3f3d56"/>
      <path id="Path_189" data-name="Path 189" d="M42.19,15.38a4.053,4.053,0,0,0,1.08-.147l3.723,3.723a2.095,2.095,0,1,0,2.962-2.962L46.233,12.27a4.078,4.078,0,0,0,.147-1.08A4.194,4.194,0,0,0,42.19,7H41.9L40.5,8.4l1.661,1.661a1.4,1.4,0,0,1-1.107,1.108L39.4,9.5,38,10.9v.289a4.194,4.194,0,0,0,4.19,4.19ZM40.5,12.587h.289a2.8,2.8,0,0,0,2.793-2.793V9.5L42.5,8.413A2.776,2.776,0,0,1,44.785,12.2l-.168.425,4.351,4.351a.7.7,0,0,1,0,.988.708.708,0,0,1-.987,0l-4.351-4.351-.425.167A2.776,2.776,0,0,1,39.413,11.5Z" transform="translate(-12.162 -2.81)" fill="#3f3d56"/>
      <path id="Path_190" data-name="Path 190" d="M43.181,41.347l-1.235.492L45,44.888,43.383,46.5a2.147,2.147,0,0,0-2.372.4l-1.4,1.4a2.094,2.094,0,1,0,2.962,2.962l1.4-1.4a2.07,2.07,0,0,0,.4-2.378l1.606-1.606,3.048,3.048.494-1.233A18.765,18.765,0,0,0,50.872,40.7V40h-.7A18.73,18.73,0,0,0,43.181,41.347Zm-.2,7.527-1.4,1.4a.708.708,0,0,1-.987,0,.7.7,0,0,1,0-.987l1.4-1.4a.7.7,0,1,1,.987.987Zm5.522-2.449-4.061-4.061a17.312,17.312,0,0,1,5.014-.953,17.336,17.336,0,0,1-.953,5.013Z" transform="translate(-12.464 -12.765)" fill="#3f3d56"/>
    </g>
    <g id="investor" transform="translate(831.278 2356.836)" opacity="0.702" style="isolation: isolate">
      <path id="Path_185" data-name="Path 185" d="M36.082,65.946l-3.2-2.4V39.107h9.208a1.458,1.458,0,0,0,1.456-1.456,1.44,1.44,0,0,0-.037-.321h8.036a.889.889,0,0,0,.889-.889V25.776a.889.889,0,0,0-.889-.889h-3.8l-.686-2.059a.889.889,0,0,0-.843-.608H40.882a.889.889,0,0,0-.843.608l-.686,2.058h-3.8a.889.889,0,0,0-.889.889v1.508l-.871-1.307A4.434,4.434,0,0,0,30.1,24a3.549,3.549,0,0,0,.113-.889V20.653l.643-1.286A2.327,2.327,0,0,0,28.779,16H26.662a3.559,3.559,0,0,0-3.555,3.555V23.11A3.548,3.548,0,0,0,23.22,24h-.855a6.367,6.367,0,0,0-4.144,11.2l.443.379V68.434a.889.889,0,0,0,.889.889h16a.889.889,0,0,0,.889-.889V66.657a.889.889,0,0,0-.355-.711Zm-7.693-2.14-.84-17.631a.889.889,0,0,0-1.767-.09L23.21,63.242l-2.769.554V41.773H31.106V63.262Zm-1.744.738-1.682-1.009,1.24-8.268Zm8.9-27.214v-3.75l2.531-.633-.659,1.319a.889.889,0,0,0,.338,1.16l3.173,1.9Zm5.875-1.777-2.046-1.227.445-.889a1.608,1.608,0,0,0-1.438-2.327,2.27,2.27,0,0,0-.55.068l-1.4.349V28.309l1.972,2.465a.889.889,0,0,0,.694.334h1.777v1.777a.889.889,0,0,0,.889.889h3.555a.889.889,0,0,0,.889-.889V31.108h1.777a.889.889,0,0,0,.694-.334l1.972-2.465v7.242Zm3.9-8H41.77a.889.889,0,0,0-.889.889v.889h-1.35L37.4,26.665H49.7l-2.133,2.666h-1.35v-.889a.889.889,0,0,0-.889-.889Zm-.889,1.777V32H42.659V29.331ZM41.522,24h4.051l.3.889H41.226ZM32.31,26.963l2.35,3.525V31.97L34.551,32H29.06l-.577-2.572.394-.877.808.606,1.066-1.422L28.578,26.1a3.577,3.577,0,0,0,.432-.326h1.082A2.661,2.661,0,0,1,32.31,26.963ZM28.44,23.11a1.777,1.777,0,1,1-3.555,0v-.521l1.257-1.257h2.3Zm-1.777,3.777.756.567-.443.988h-.653L25.85,27.5Zm-.195,3.333h.372l.4,1.777H26.023Zm.195-12.442h2.117a.549.549,0,0,1,.491.795l-.491.983H25.773a.889.889,0,0,0-.628.26l-.26.26v-.521A1.779,1.779,0,0,1,26.662,17.777ZM17.775,30.366a4.6,4.6,0,0,1,4.59-4.59h1.95a3.576,3.576,0,0,0,.432.326l-2.172,1.629,1.066,1.422.764-.573.427.854L24.4,31.147,21.958,28.7,20.7,29.959l3.555,3.555a.889.889,0,0,0,.628.26h8.887v3.555H24.751a3.557,3.557,0,0,1-2.313-.856l-3.06-2.623A4.584,4.584,0,0,1,17.775,30.366Zm3.506,7.457a5.336,5.336,0,0,0,3.47,1.284h6.355V40H20.441V37.1Zm-.84,29.723V65.608l3.392-.678,3.718,2.23v.386Zm14.219,0H29.328v-.889a.889.889,0,0,0-.431-.762l-.457-.274v-.012l3.339-.668L34.661,67.1Z" transform="translate(-15.997 -16)" fill="#3f3d56"/>
      <path id="Path_186" data-name="Path 186" d="M246.216,240H216.889a.889.889,0,0,0-.889.889V267.55a.889.889,0,0,0,.889.889h29.328a.889.889,0,0,0,.889-.889V240.889A.889.889,0,0,0,246.216,240Zm-.889,16H236.44v-1.777h4.444a.889.889,0,0,0,.889-.889.89.89,0,0,1,.889-.889.889.889,0,0,0,.889-.889v-5.332a.889.889,0,0,0-.889-.889.89.89,0,0,1-.889-.889.889.889,0,0,0-.889-.889H236.44v-1.777h8.887Zm-8.887,5.332h8.887v1.777H236.44Zm0-1.777v-1.777h8.887v1.777Zm0-9.776h2.666V248H236.44v-2.666h3.707a2.679,2.679,0,0,0,1.625,1.625v3.859a2.679,2.679,0,0,0-1.625,1.625H236.44Zm-1.777-8V256h-5.332V241.777ZM227.553,248h-2.666v1.777h2.666v2.666h-4.6a2.679,2.679,0,0,0-1.625-1.625v-3.859a2.679,2.679,0,0,0,1.625-1.625h4.6Zm0-6.221v1.777h-5.332a.889.889,0,0,0-.889.889.89.89,0,0,1-.889.889.889.889,0,0,0-.889.889v5.332a.889.889,0,0,0,.889.889.89.89,0,0,1,.889.889.889.889,0,0,0,.889.889h5.332V256h-9.776V241.777Zm0,17.774h-7.11v1.777h7.11v1.777h-9.776v-5.332h9.776Zm-9.776,5.332h9.776v1.777h-9.776Zm11.553,1.777v-8.887h5.332v8.887Zm7.11,0v-1.777h8.887v1.777Z" transform="translate(-193.782 -215.116)" fill="#3f3d56"/>
    </g>
    <g id="research" transform="translate(1189.58 2187.037)" opacity="0.701">
      <g id="Group_38" data-name="Group 38" transform="translate(0)">
        <g id="Group_37" data-name="Group 37">
          <path id="Path_191" data-name="Path 191" d="M43,0H3.487A3.486,3.486,0,0,0,0,3.486V31.375a3.486,3.486,0,0,0,3.486,3.486H18.594V32.537H3.487a1.162,1.162,0,0,1-1.162-1.162V3.486A1.162,1.162,0,0,1,3.487,2.324H43a1.162,1.162,0,0,1,1.162,1.162V24.4h2.324V3.486A3.486,3.486,0,0,0,43,0Z" transform="translate(-0.001)" fill="#3f3d56"/>
        </g>
      </g>
      <g id="Group_40" data-name="Group 40" transform="translate(13.945 33.699)">
        <g id="Group_39" data-name="Group 39">
          <rect id="Rectangle_30" data-name="Rectangle 30" width="2.324" height="6.972" fill="#3f3d56"/>
        </g>
      </g>
      <g id="Group_42" data-name="Group 42" transform="translate(4.648 24.403)">
        <g id="Group_41" data-name="Group 41">
          <path id="Path_192" data-name="Path 192" d="M46.154,227.486a1.162,1.162,0,0,1-1.162-1.162V224H42.668v2.324a3.486,3.486,0,0,0,3.486,3.486h2.324v-2.324Z" transform="translate(-42.668 -224)" fill="#3f3d56"/>
        </g>
      </g>
      <g id="Group_44" data-name="Group 44" transform="translate(4.648 19.755)">
        <g id="Group_43" data-name="Group 43">
          <rect id="Rectangle_31" data-name="Rectangle 31" width="2.324" height="2.324" fill="#3f3d56"/>
        </g>
      </g>
      <g id="Group_46" data-name="Group 46" transform="translate(20.915 20.916)">
        <g id="Group_45" data-name="Group 45">
          <path id="Path_193" data-name="Path 193" d="M213.54,195.688a12.626,12.626,0,1,0,0,17.855A12.626,12.626,0,0,0,213.54,195.688Zm-8.935,19.229a10.3,10.3,0,1,1,10.3-10.3A10.3,10.3,0,0,1,204.605,214.917Z" transform="translate(-191.986 -191.989)" fill="#3f3d56"/>
        </g>
      </g>
      <g id="Group_48" data-name="Group 48" transform="translate(42.918 42.917)">
        <g id="Group_47" data-name="Group 47">
          <path id="Path_194" data-name="Path 194" d="M406.476,401.574l-7.294-7.292a1.162,1.162,0,0,0-1.643,0l-3.242,3.242a1.162,1.162,0,0,0,0,1.643l7.294,7.3a1.161,1.161,0,0,0,.822.34h0a1.162,1.162,0,0,0,.822-.344l3.242-3.242A1.162,1.162,0,0,0,406.476,401.574ZM402.412,404l-5.651-5.652,1.6-1.6,5.651,5.652Z" transform="translate(-393.956 -393.942)" fill="#3f3d56"/>
        </g>
      </g>
      <g id="Group_50" data-name="Group 50" transform="translate(40.826 40.825)">
        <g id="Group_49" data-name="Group 49" transform="translate(0 0)">
          <rect id="Rectangle_32" data-name="Rectangle 32" width="2.324" height="5.731" transform="translate(0 1.643) rotate(-45)" fill="#3f3d56"/>
        </g>
      </g>
      <g id="Group_52" data-name="Group 52" transform="translate(33.699 25.565)">
        <g id="Group_51" data-name="Group 51">
          <path id="Path_195" data-name="Path 195" d="M309.334,234.667v2.324a5.817,5.817,0,0,1,5.81,5.81h2.324A8.143,8.143,0,0,0,309.334,234.667Z" transform="translate(-309.334 -234.667)" fill="#3f3d56"/>
        </g>
      </g>
      <g id="Group_54" data-name="Group 54" transform="translate(11.62 39.51)">
        <g id="Group_53" data-name="Group 53">
          <rect id="Rectangle_33" data-name="Rectangle 33" width="9.296" height="2.324" fill="#3f3d56"/>
        </g>
      </g>
      <g id="Group_56" data-name="Group 56" transform="translate(13.945 4.648)">
        <g id="Group_55" data-name="Group 55">
          <path id="Path_196" data-name="Path 196" d="M131.487,42.667a3.486,3.486,0,1,0,3.486,3.486A3.486,3.486,0,0,0,131.487,42.667Zm0,4.648a1.162,1.162,0,1,1,1.162-1.162A1.162,1.162,0,0,1,131.487,47.315Z" transform="translate(-128.001 -42.667)" fill="#3f3d56"/>
        </g>
      </g>
      <g id="Group_58" data-name="Group 58" transform="translate(22.079 12.782)">
        <g id="Group_57" data-name="Group 57">
          <path id="Path_197" data-name="Path 197" d="M206.154,117.333a3.486,3.486,0,1,0,3.486,3.486A3.486,3.486,0,0,0,206.154,117.333Zm0,4.648a1.162,1.162,0,1,1,1.162-1.162A1.162,1.162,0,0,1,206.154,121.981Z" transform="translate(-202.668 -117.333)" fill="#3f3d56"/>
        </g>
      </g>
      <g id="Group_60" data-name="Group 60" transform="translate(9.637 8.475)">
        <g id="Group_59" data-name="Group 59" transform="translate(0 0)">
          <rect id="Rectangle_34" data-name="Rectangle 34" width="8.217" height="2.324" transform="translate(0 5.81) rotate(-45)" fill="#3f3d56"/>
        </g>
      </g>
      <g id="Group_62" data-name="Group 62" transform="translate(17.766 8.478)">
        <g id="Group_61" data-name="Group 61" transform="translate(0 0)">
          <rect id="Rectangle_35" data-name="Rectangle 35" width="2.324" height="8.217" transform="translate(0 1.643) rotate(-45)" fill="#3f3d56"/>
        </g>
      </g>
      <g id="Group_64" data-name="Group 64" transform="translate(30.213 4.648)">
        <g id="Group_63" data-name="Group 63">
          <path id="Path_198" data-name="Path 198" d="M280.82,42.667a3.486,3.486,0,1,0,3.486,3.486A3.486,3.486,0,0,0,280.82,42.667Zm0,4.648a1.162,1.162,0,1,1,1.162-1.162A1.162,1.162,0,0,1,280.82,47.315Z" transform="translate(-277.334 -42.667)" fill="#3f3d56"/>
        </g>
      </g>
      <g id="Group_66" data-name="Group 66" transform="translate(25.905 8.479)">
        <g id="Group_65" data-name="Group 65" transform="translate(0 0)">
          <rect id="Rectangle_36" data-name="Rectangle 36" width="8.217" height="2.324" transform="translate(0 5.81) rotate(-45)" fill="#3f3d56"/>
        </g>
      </g>
    </g>
    <g id="seo-report" transform="translate(1194.773 2365.627)" opacity="0.702" style="isolation: isolate">
      <g id="Group_68" data-name="Group 68" transform="translate(0 0)">
        <g id="Group_67" data-name="Group 67">
          <path id="Path_199" data-name="Path 199" d="M45.351,18.858H39.569a.9.9,0,0,0-.9.9v4.562a.9.9,0,0,0,1.807,0V20.665h3.975V44.447H40.472V31.1a.9.9,0,1,0-1.807,0V44.447H36.859v-18.7a.9.9,0,0,0-.9-.9H30.174a.9.9,0,0,0-.9.9v18.7H27.463V32.071a.9.9,0,0,0-.9-.9H20.778a.9.9,0,0,0-.9.9V44.447H18.068V37.254a.9.9,0,0,0-.9-.9H11.383a.9.9,0,0,0-.9.9v7.193H2.71a.9.9,0,0,1-.9-.9V2.71a.9.9,0,0,1,.9-.9H26.016V7.77a2.713,2.713,0,0,0,2.71,2.71h5.962V21.591a.9.9,0,1,0,1.807,0V9.576a.9.9,0,0,0-.265-.639L27.558.265A.9.9,0,0,0,26.919,0H2.71A2.713,2.713,0,0,0,0,2.71V43.544a2.713,2.713,0,0,0,2.71,2.71H45.351a.9.9,0,0,0,.9-.9V19.762A.9.9,0,0,0,45.351,18.858ZM27.822,3.084l5.588,5.588H28.726a.9.9,0,0,1-.9-.9ZM16.261,44.447H12.286v-6.29h3.975Zm9.4,0H21.682V32.974h3.975Zm9.4,0H31.077V26.65h3.975Z" fill="#3f3d56"/>
        </g>
      </g>
      <g id="Group_70" data-name="Group 70" transform="translate(38.666 26.64)">
        <g id="Group_69" data-name="Group 69">
          <path id="Path_200" data-name="Path 200" d="M429.542,295.155a.9.9,0,1,0,.265.639A.907.907,0,0,0,429.542,295.155Z" transform="translate(-428 -294.89)" fill="#3f3d56"/>
        </g>
      </g>
      <g id="Group_72" data-name="Group 72" transform="translate(4.842 4.944)">
        <g id="Group_71" data-name="Group 71">
          <path id="Path_201" data-name="Path 201" d="M61.911,54.729a.9.9,0,0,0-.9.9v1.625a8.309,8.309,0,1,0,9.164,9.164H71.8a.9.9,0,0,0,.9-.9A10.8,10.8,0,0,0,61.911,54.729Zm0,17.291a6.5,6.5,0,0,1-.9-12.942v6.44a.9.9,0,0,0,.9.9h6.44A6.512,6.512,0,0,1,61.911,72.02Zm.9-7.406h0V56.581a9,9,0,0,1,8.033,8.033Z" transform="translate(-53.602 -54.729)" fill="#3f3d56"/>
        </g>
      </g>
      <g id="Group_74" data-name="Group 74" transform="translate(4.878 26.583)">
        <g id="Group_73" data-name="Group 73">
          <path id="Path_202" data-name="Path 202" d="M72.158,294.25H54.9a.9.9,0,1,0,0,1.807H72.158a.9.9,0,1,0,0-1.807Z" transform="translate(-54 -294.25)" fill="#3f3d56"/>
        </g>
      </g>
      <g id="Group_76" data-name="Group 76" transform="translate(4.878 30.941)">
        <g id="Group_75" data-name="Group 75">
          <path id="Path_203" data-name="Path 203" d="M60.685,342.5H54.9a.9.9,0,1,0,0,1.807h5.782a.9.9,0,1,0,0-1.807Z" transform="translate(-54 -342.5)" fill="#3f3d56"/>
        </g>
      </g>
      <g id="Group_78" data-name="Group 78" transform="translate(15.184 30.941)">
        <g id="Group_77" data-name="Group 77">
          <path id="Path_204" data-name="Path 204" d="M169.622,342.765a.9.9,0,1,0,.265.639A.911.911,0,0,0,169.622,342.765Z" transform="translate(-168.08 -342.5)" fill="#3f3d56"/>
        </g>
      </g>
    </g>
    <g id="Group_3078" data-name="Group 3078" transform="translate(776.754 1851.562)">
      <line id="Line_262" data-name="Line 262" y2="592.245" transform="translate(0 1.298)" fill="none" stroke="#eae5e5" stroke-width="1"/>
      <line id="Line_264" data-name="Line 264" y2="592.245" transform="translate(366.091)" fill="none" stroke="#eae5e5" stroke-width="1"/>
    </g>
    <g id="Group_3075" data-name="Group 3075" transform="translate(470.443 1978.136)">
      <line id="Line_265" data-name="Line 265" x2="973.156" fill="none" stroke="#eae5e5" stroke-width="1"/>
      <line id="Line_266" data-name="Line 266" x2="973.156" transform="translate(0 159.678)" fill="none" stroke="#eae5e5" stroke-width="1"/>
      <line id="Line_267" data-name="Line 267" x2="973.156" transform="translate(0 319.356)" fill="none" stroke="#eae5e5" stroke-width="1"/>
    </g>
  </g>
</svg>
