<svg xmlns="http://www.w3.org/2000/svg" xmlns:xlink="http://www.w3.org/1999/xlink" width="1285" height="694.132" viewBox="0 0 1285 694.132">
  <defs>
    <radialGradient id="radial-gradient" cx="0.482" cy="-2.793" r="3.662" gradientTransform="matrix(-0.253, 0, 0, 1, -0.063, 0)" gradientUnits="objectBoundingBox">
      <stop offset="0.874" stop-color="#c4c4c4"/>
      <stop offset="0.922" stop-color="#e0e0e0"/>
      <stop offset="0.969" stop-color="#f6f6f6"/>
      <stop offset="1" stop-color="#fff"/>
    </radialGradient>
    <linearGradient id="linear-gradient" x1="0.745" y1="0.335" x2="-0.164" y2="0.601" gradientUnits="objectBoundingBox">
      <stop offset="0" stop-color="#ccc"/>
      <stop offset="0.314" stop-color="#e7e7e7"/>
      <stop offset="0.602" stop-color="#f8f8f8"/>
      <stop offset="0.811" stop-color="#fff"/>
    </linearGradient>
    <linearGradient id="linear-gradient-2" x1="-3.695" y1="0.17" x2="-2.825" y2="0.722" gradientUnits="objectBoundingBox">
      <stop offset="0" stop-color="#ccc"/>
      <stop offset="0.385" stop-color="#e7e7e7"/>
      <stop offset="0.737" stop-color="#f8f8f8"/>
      <stop offset="0.994" stop-color="#fff"/>
    </linearGradient>
    <radialGradient id="radial-gradient-2" cx="0.543" cy="-6.843" r="7.826" gradientTransform="matrix(-0.137, 0, 0, 1, -0.466, 0)" gradientUnits="objectBoundingBox">
      <stop offset="0.913" stop-color="#4f4f4f"/>
      <stop offset="0.923" stop-color="#565656"/>
      <stop offset="0.936" stop-color="#6a6a6a"/>
      <stop offset="0.953" stop-color="#8b8b8b"/>
      <stop offset="0.972" stop-color="#b8b8b8"/>
      <stop offset="0.992" stop-color="#f2f2f2"/>
      <stop offset="0.996" stop-color="#fff"/>
    </radialGradient>
    <linearGradient id="linear-gradient-3" x1="0.548" y1="0.265" x2="-0.482" y2="0.578" gradientUnits="objectBoundingBox">
      <stop offset="0" stop-color="#6e6e6e"/>
      <stop offset="0.362" stop-color="#9f9f9f"/>
      <stop offset="1" stop-color="#fff"/>
    </linearGradient>
    <linearGradient id="linear-gradient-4" x1="-3.889" y1="0.218" x2="-2.953" y2="0.688" gradientUnits="objectBoundingBox">
      <stop offset="0.027" stop-color="#6e6e6e"/>
      <stop offset="0.344" stop-color="#9f9f9f"/>
      <stop offset="0.904" stop-color="#fff"/>
    </linearGradient>
    <radialGradient id="radial-gradient-3" cx="0.469" cy="-6.5" r="8.357" gradientTransform="matrix(-0.099, 0, 0, 1, -1.352, 0)" gradientUnits="objectBoundingBox">
      <stop offset="0.767" stop-color="#b8b8b8"/>
      <stop offset="0.931" stop-color="#e9e9e9"/>
      <stop offset="1" stop-color="#fff"/>
    </radialGradient>
    <linearGradient id="linear-gradient-5" x1="-0.936" y1="0.501" x2="0.133" y2="0.473" gradientUnits="objectBoundingBox">
      <stop offset="0.084" stop-color="#fff"/>
      <stop offset="1" stop-color="#c4c4c4"/>
    </linearGradient>
    <linearGradient id="linear-gradient-6" x1="-4.389" y1="0.32" x2="-3.513" y2="0.581" gradientUnits="objectBoundingBox">
      <stop offset="0" stop-color="#c4c4c4"/>
      <stop offset="0.841" stop-color="#f5f5f5"/>
      <stop offset="1" stop-color="#fff"/>
    </linearGradient>
    <linearGradient id="linear-gradient-7" x1="-0.82" y1="0.478" x2="-2.801" y2="0.513" gradientUnits="objectBoundingBox">
      <stop offset="0.535" stop-color="#676767"/>
      <stop offset="0.64" stop-color="#8b8b8b"/>
      <stop offset="0.887" stop-color="#dedede"/>
      <stop offset="1" stop-color="#fff"/>
    </linearGradient>
    <linearGradient id="linear-gradient-8" x1="-5.893" y1="0.339" x2="-4.836" y2="0.69" gradientUnits="objectBoundingBox">
      <stop offset="0.246" stop-color="#959595"/>
      <stop offset="0.315" stop-color="#999"/>
      <stop offset="0.392" stop-color="#a7a7a7"/>
      <stop offset="0.473" stop-color="#bdbdbd"/>
      <stop offset="0.556" stop-color="#dcdcdc"/>
      <stop offset="0.631" stop-color="#fff"/>
    </linearGradient>
  </defs>
  <g id="Group_3082" data-name="Group 3082" transform="translate(-353 -2730.868)">
    <line id="Line_4" data-name="Line 4" x1="196.039" transform="translate(1054.45 2783.185)" fill="none" stroke="#da0000" stroke-width="2"/>
    <line id="Line_8" data-name="Line 8" y1="25.133" transform="translate(1054.45 2770.619)" fill="none" stroke="#da0000" stroke-width="2"/>
    <line id="Line_9" data-name="Line 9" y1="25.133" transform="translate(965.227 2890.002)" fill="none" stroke="#f26900" stroke-width="2"/>
    <line id="Line_10" data-name="Line 10" y1="25.133" transform="translate(873.49 3006.871)" fill="none" stroke="#e99e00" stroke-width="2"/>
    <line id="Line_11" data-name="Line 11" y1="25.133" transform="translate(818.197 3124.998)" fill="none" stroke="#004573" stroke-width="2"/>
    <line id="Line_5" data-name="Line 5" x1="196.039" transform="translate(965.227 2901.312)" fill="none" stroke="#f26900" stroke-width="2"/>
    <line id="Line_6" data-name="Line 6" x1="196.039" transform="translate(873.49 3019.438)" fill="none" stroke="#e99e00" stroke-width="2"/>
    <line id="Line_7" data-name="Line 7" x1="196.039" transform="translate(818.197 3137.564)" fill="none" stroke="#004573" stroke-width="2"/>
    <g id="pyramid" transform="translate(880.705 2730.868)">
      <g id="shadow" transform="translate(0 340.059)" opacity="0.213">
        <path id="Path_230" data-name="Path 230" d="M570.091,534.307c9.522-.166,189-194.008,197.959-218.631,6.651-18.283-392.835-65.92-392.835-65.92-20.65-2.985-135.757-18.488-155.044-10.714,0,0-222.8,143.565-208.69,150.862C41.247,405.324,554.711,534.579,570.091,534.307Z" transform="translate(-10.838 -236.884)" fill="#fff" opacity="0"/>
        <path id="Path_231" data-name="Path 231" d="M374.7,249.7c-20.527-2.966-135.5-18.135-154.676-10.406,0,0-222.394,143.116-208.371,150.37,15.075,7.81,156.141,45.257,292.165,79.91,130.922,33.352,258.606,64.431,266.106,64.3,5.125-.089,60.176-57.035,110.767-112.887,42.965-47.426,82.867-94.243,86.95-105.466,4.884-13.422-212.465-43.1-325.4-57.525C402.148,252.872,374.813,249.657,374.7,249.7Z" transform="translate(-10.737 -236.75)" fill="#fefefe" opacity="0.006"/>
        <path id="Path_232" data-name="Path 232" d="M374.19,249.645c-20.4-2.949-135.25-17.78-154.307-10.1,0,0-221.991,142.667-208.054,149.879,14.987,7.763,156.387,45.251,291.994,79.785,130.493,33.232,258.483,64.361,265.939,64.229,5.094-.089,60.2-57.1,110.622-112.752,42.946-47.395,82.8-94.165,86.855-105.321,4.853-13.343-213.235-43.19-325.491-57.527C401.77,252.729,374.411,249.556,374.19,249.645Z" transform="translate(-10.637 -236.617)" fill="#fdfdfd" opacity="0.012"/>
        <path id="Path_233" data-name="Path 233" d="M373.677,249.589c-20.28-2.931-135-17.426-153.938-9.79,0,0-221.588,142.22-207.735,149.387,14.9,7.717,156.631,45.245,291.821,79.659,130.062,33.112,258.362,64.291,265.771,64.161,5.065-.089,60.233-57.161,110.476-112.616C723,373.027,762.8,326.3,766.831,315.212c4.825-13.26-214-43.276-325.582-57.527C401.392,252.588,374.008,249.457,373.677,249.589Z" transform="translate(-10.537 -236.484)" fill="#fcfcfc" opacity="0.018"/>
        <path id="Path_234" data-name="Path 234" d="M373.166,249.534c-20.159-2.913-134.744-17.071-153.571-9.482,0,0-221.185,141.772-207.416,148.9,14.8,7.67,156.875,45.239,291.647,79.535,129.634,32.991,258.241,64.221,265.6,64.091,5.033-.087,60.263-57.225,110.331-112.481,42.91-47.331,82.655-94.013,86.665-105.033,4.8-13.181-214.774-43.364-325.676-57.53C401.015,252.448,373.606,249.357,373.166,249.534Z" transform="translate(-10.436 -236.351)" fill="#fbfbfb" opacity="0.024"/>
        <path id="Path_235" data-name="Path 235" d="M372.653,249.481c-20.034-2.9-134.49-16.718-153.2-9.176,0,0-220.782,141.324-207.1,148.4,14.715,7.623,157.119,45.232,291.474,79.41,129.2,32.87,258.118,64.15,265.436,64.021,5-.087,60.291-57.289,110.187-112.346,42.89-47.3,82.584-93.937,86.57-104.89,4.766-13.1-215.544-43.452-325.769-57.53C400.637,252.306,373.205,249.258,372.653,249.481Z" transform="translate(-10.336 -236.218)" fill="#fafafa" opacity="0.03"/>
        <path id="Path_236" data-name="Path 236" d="M372.141,249.427c-19.911-2.879-134.237-16.365-152.835-8.868,0,0-220.379,140.876-206.779,147.912,14.626,7.577,157.365,45.226,291.3,79.285C432.6,500.506,561.825,531.837,569.1,531.708c4.973-.087,60.32-57.353,110.04-112.212,42.873-47.267,82.514-93.857,86.475-104.744,4.738-13.021-216.31-43.539-325.861-57.531C400.26,252.166,372.8,249.159,372.141,249.427Z" transform="translate(-10.236 -236.086)" fill="#f9f9f9" opacity="0.036"/>
        <path id="Path_237" data-name="Path 237" d="M371.63,249.372c-19.79-2.862-133.985-16.01-152.468-8.56,0,0-219.977,140.428-206.46,147.421,14.534,7.53,157.609,45.22,291.131,79.16,128.345,32.63,257.872,64.01,265.1,63.882,4.94-.086,60.349-57.416,109.894-112.076,42.854-47.236,82.444-93.781,86.38-104.6,4.707-12.94-217.08-43.626-325.956-57.531C399.881,252.024,372.4,249.06,371.63,249.372Z" transform="translate(-10.135 -235.954)" fill="#f8f8f8" opacity="0.042"/>
        <path id="Path_238" data-name="Path 238" d="M371.117,249.318c-19.666-2.843-133.73-15.656-152.1-8.252,0,0-219.575,139.98-206.141,146.929,14.444,7.483,157.853,45.214,290.958,79.036,127.914,32.509,257.749,63.94,264.934,63.812,4.911-.086,60.376-57.479,109.748-111.941C721.353,371.7,760.89,325.2,764.8,314.447c4.679-12.859-217.849-43.713-326.047-57.533C399.5,251.885,372,248.962,371.117,249.318Z" transform="translate(-10.034 -235.822)" fill="#f7f7f7" opacity="0.048"/>
        <path id="Path_239" data-name="Path 239" d="M370.6,249.265c-19.543-2.826-133.476-15.3-151.731-7.944,0,0-219.172,139.532-205.822,146.438,14.354,7.436,158.1,45.208,290.785,78.91,127.485,32.389,257.626,63.87,264.766,63.744,4.879-.086,60.406-57.542,109.6-111.806,42.818-47.172,82.3-93.627,86.191-104.312,4.649-12.78-218.619-43.8-326.141-57.535C399.127,251.745,371.6,248.863,370.6,249.265Z" transform="translate(-9.934 -235.691)" fill="#f6f6f6" opacity="0.054"/>
        <path id="Path_240" data-name="Path 240" d="M370.094,249.211c-19.421-2.808-133.224-14.946-151.364-7.636,0,0-218.77,139.084-205.5,145.946,14.265,7.39,158.343,45.2,290.613,78.785,127.055,32.268,257.5,63.8,264.6,63.674,4.85-.084,60.435-57.606,109.459-111.671,42.8-47.141,82.23-93.551,86.1-104.169,4.62-12.7-219.389-43.889-326.234-57.535C398.75,251.6,371.2,248.766,370.094,249.211Z" transform="translate(-9.834 -235.56)" fill="#f5f5f5" opacity="0.06"/>
        <path id="Path_241" data-name="Path 241" d="M369.581,249.158c-19.3-2.79-132.971-14.593-151-7.328,0,0-218.367,138.636-205.186,145.455,14.173,7.343,158.588,45.2,290.44,78.661,126.626,32.147,257.382,63.728,264.431,63.6,4.819-.084,60.463-57.67,109.312-111.537,42.783-47.108,82.162-93.473,86-104.022,4.592-12.619-220.157-43.976-326.326-57.536C398.372,251.467,370.794,248.668,369.581,249.158Z" transform="translate(-9.733 -235.429)" fill="#f4f4f4" opacity="0.065"/>
        <path id="Path_242" data-name="Path 242" d="M369.068,249.105c-19.174-2.772-132.717-14.239-150.627-7.018,0,0-217.965,138.186-204.867,144.962,14.083,7.3,158.832,45.189,290.267,78.535,126.2,32.028,257.259,63.66,264.265,63.536,4.788-.084,60.491-57.734,109.166-111.4,42.764-47.077,82.09-93.4,85.906-103.879C767.74,301.3,542.252,269.776,436.758,256.3,397.993,251.327,370.392,248.572,369.068,249.105Z" transform="translate(-9.633 -235.298)" fill="#f3f3f3" opacity="0.071"/>
        <path id="Path_243" data-name="Path 243" d="M368.557,249.053C349.5,246.3,236.092,235.169,218.3,242.343c0,0-217.561,137.738-204.546,144.47,13.993,7.25,159.076,45.183,290.095,78.41,125.766,31.907,257.136,63.588,264.1,63.465,4.757-.082,60.521-57.8,109.021-111.266,42.744-47.046,82.019-93.319,85.81-103.734,4.533-12.458-221.7-44.15-326.512-57.538C397.616,251.189,369.99,248.474,368.557,249.053Z" transform="translate(-9.533 -235.168)" fill="#f2f2f2" opacity="0.077"/>
        <path id="Path_244" data-name="Path 244" d="M368.045,249c-18.928-2.736-132.212-13.529-149.893-6.4,0,0-217.158,137.29-204.229,143.979,13.9,7.2,159.322,45.177,289.924,78.286,125.335,31.786,257.013,63.518,263.929,63.4,4.727-.082,60.549-57.861,108.875-111.131,42.727-47.013,81.951-93.243,85.716-103.591C766.87,301.16,539.9,269.3,435.762,256,397.239,251.051,369.59,248.379,368.045,249Z" transform="translate(-9.433 -235.039)" fill="#f1f1f1" opacity="0.083"/>
        <path id="Path_245" data-name="Path 245" d="M367.532,248.95c-18.805-2.719-131.958-13.175-149.524-6.094,0,0-216.755,136.842-203.91,143.487,13.812,7.157,159.566,45.17,289.749,78.16C428.755,496.168,560.74,527.951,567.61,527.83c4.7-.082,60.579-57.923,108.731-111,42.708-46.982,81.879-93.165,85.621-103.447,4.474-12.3-223.235-44.326-326.7-57.539C396.862,250.913,369.187,248.282,367.532,248.95Z" transform="translate(-9.332 -234.91)" fill="#f0f0f0" opacity="0.089"/>
        <path id="Path_246" data-name="Path 246" d="M367.021,248.9c-18.684-2.7-131.706-12.822-149.157-5.786,0,0-216.354,136.394-203.591,143C28,393.217,174.083,431.272,303.85,464.144c124.478,31.544,256.769,63.378,263.595,63.257,4.665-.081,60.608-57.987,108.586-110.862,42.689-46.95,81.807-93.088,85.525-103.3,4.444-12.216-224-44.411-326.792-57.539C396.485,250.776,368.785,248.187,367.021,248.9Z" transform="translate(-9.232 -234.781)" fill="#efefef" opacity="0.095"/>
        <path id="Path_247" data-name="Path 247" d="M366.509,248.848c-18.56-2.683-131.453-12.467-148.788-5.478,0,0-215.951,135.946-203.273,142.5,13.632,7.062,160.054,45.158,289.4,77.911C427.9,495.209,560.5,527.092,567.28,526.972c4.634-.081,60.635-58.051,108.438-110.726,42.672-46.919,81.739-93.011,85.432-103.158,4.414-12.137-224.774-44.5-326.886-57.541C396.106,250.639,368.383,248.092,366.509,248.848Z" transform="translate(-9.131 -234.653)" fill="#eee" opacity="0.101"/>
        <path id="Path_248" data-name="Path 248" d="M366,248.8c-18.437-2.666-131.2-12.112-148.42-5.17,0,0-215.548,135.5-202.955,142.013,13.542,7.015,160.3,45.152,289.233,77.787,123.618,31.3,256.523,63.237,263.26,63.117,4.6-.081,60.664-58.115,108.294-110.591,42.654-46.887,81.667-92.933,85.335-103.014C765.13,300.884,535.2,268.354,433.766,255.4,395.729,250.5,367.981,248,366,248.8Z" transform="translate(-9.031 -234.525)" fill="#ededed" opacity="0.107"/>
        <path id="Path_249" data-name="Path 249" d="M365.485,248.749c-18.314-2.647-130.947-11.758-148.052-4.862,0,0-215.147,135.05-202.636,141.521,13.452,6.968,160.544,45.145,289.06,77.661,123.187,31.184,256.4,63.167,263.092,63.049,4.573-.079,60.694-58.179,108.149-110.456,42.635-46.855,81.6-92.857,85.24-102.87,4.357-11.975-226.312-44.674-327.071-57.542C395.352,250.368,367.581,247.9,365.485,248.749Z" transform="translate(-8.931 -234.398)" fill="#ececec" opacity="0.113"/>
        <path id="Path_250" data-name="Path 250" d="M364.973,248.7c-18.191-2.63-130.694-11.4-147.685-4.554,0,0-214.742,134.6-202.316,141.03,13.361,6.922,160.789,45.139,288.886,77.536,122.759,31.062,256.279,63.1,262.926,62.979,4.542-.079,60.722-58.242,108-110.32,42.616-46.824,81.527-92.781,85.145-102.727,4.329-11.895-227.08-44.76-327.163-57.542C394.974,250.232,367.178,247.811,364.973,248.7Z" transform="translate(-8.83 -234.271)" fill="#ebebeb" opacity="0.119"/>
        <path id="Path_251" data-name="Path 251" d="M364.46,248.652c-18.068-2.612-130.44-11.05-147.317-4.246,0,0-214.34,134.155-202,140.538,13.27,6.875,161.033,45.133,288.713,77.412,122.328,30.941,256.156,63.025,262.758,62.909,4.512-.079,60.751-58.3,107.858-110.185,42.6-46.793,81.456-92.7,85.05-102.582,4.3-11.815-227.85-44.848-327.257-57.546C394.6,250.1,366.776,247.719,364.46,248.652Z" transform="translate(-8.73 -234.146)" fill="#eaeaea" opacity="0.125"/>
        <path id="Path_252" data-name="Path 252" d="M363.95,248.6C346,246.01,233.761,237.91,217,244.667c0,0-213.937,133.707-201.68,140.047C28.5,391.542,176.6,429.84,303.863,462c121.9,30.821,256.035,62.955,262.59,62.84,4.481-.078,60.781-58.368,107.713-110.051,42.579-46.76,81.384-92.626,84.956-102.437,4.268-11.734-228.62-44.936-327.351-57.546C394.22,249.964,366.375,247.627,363.95,248.6Z" transform="translate(-8.63 -234.02)" fill="#e9e9e9" opacity="0.131"/>
        <path id="Path_253" data-name="Path 253" d="M363.437,248.558c-17.822-2.576-129.935-10.341-146.581-3.63,0,0-213.535,133.259-201.361,139.555,13.091,6.782,161.523,45.121,288.37,77.161,121.47,30.7,255.912,62.885,262.423,62.77,4.45-.078,60.807-58.432,107.566-109.916,42.562-46.727,81.316-92.549,84.861-102.293,4.24-11.653-229.389-45.023-327.443-57.547C393.841,249.832,365.974,247.536,363.437,248.558Z" transform="translate(-8.53 -233.896)" fill="#e8e8e8" opacity="0.137"/>
        <path id="Path_254" data-name="Path 254" d="M362.924,248.512c-17.7-2.559-129.681-9.986-146.212-3.322,0,0-213.133,132.811-201.042,139.064,13,6.735,161.767,45.113,288.2,77.037,121.039,30.58,255.789,62.814,262.255,62.7,4.419-.078,60.837-58.5,107.421-109.781,42.543-46.7,81.244-92.471,84.766-102.149,4.211-11.573-230.158-45.11-327.536-57.547C393.464,249.7,365.572,247.445,362.924,248.512Z" transform="translate(-8.429 -233.772)" fill="#e7e7e7" opacity="0.143"/>
        <path id="Path_255" data-name="Path 255" d="M362.413,248.467c-17.577-2.54-129.429-9.631-145.845-3.014,0,0-212.73,132.363-200.723,138.572,12.909,6.688,162.011,45.106,288.023,76.911,120.611,30.46,255.668,62.745,262.089,62.632,4.389-.076,60.866-58.56,107.276-109.645,42.525-46.665,81.173-92.4,84.67-102,4.183-11.493-230.927-45.2-327.629-57.549C393.087,249.569,365.17,247.355,362.413,248.467Z" transform="translate(-8.329 -233.65)" fill="#e6e6e6" opacity="0.149"/>
        <path id="Path_256" data-name="Path 256" d="M361.9,248.424c-17.454-2.523-129.176-9.278-145.477-2.707,0,0-212.327,131.913-200.406,138.082,12.82,6.64,162.257,45.1,287.852,76.785,120.18,30.339,255.545,62.674,261.921,62.562,4.358-.076,60.894-58.623,107.13-109.51,42.507-46.634,81.1-92.319,84.576-101.862,4.151-11.412-231.7-45.284-327.723-57.549C392.71,249.44,364.768,247.268,361.9,248.424Z" transform="translate(-8.229 -233.528)" fill="#e5e5e5" opacity="0.155"/>
        <path id="Path_257" data-name="Path 257" d="M361.389,248.381c-17.331-2.506-128.92-8.924-145.11-2.4,0,0-211.924,131.465-200.085,137.591,12.73,6.594,162.5,45.093,287.679,76.66,119.751,30.218,255.422,62.6,261.753,62.492,4.327-.076,60.924-58.685,106.985-109.376,42.487-46.6,81.033-92.24,84.481-101.716,4.122-11.333-232.467-45.372-327.816-57.55C392.333,249.309,364.366,247.18,361.389,248.381Z" transform="translate(-8.129 -233.407)" fill="#e4e4e4" opacity="0.161"/>
        <path id="Path_258" data-name="Path 258" d="M360.878,248.339c-17.208-2.487-128.668-8.569-144.742-2.091,0,0-211.521,131.017-199.767,137.1,12.638,6.547,162.747,45.086,287.506,76.534,119.32,30.1,255.3,62.534,261.587,62.423,4.3-.075,60.952-58.749,106.839-109.241,42.468-46.569,80.961-92.164,84.385-101.571,4.094-11.252-233.235-45.46-327.908-57.552C391.954,249.182,363.965,247.095,360.878,248.339Z" transform="translate(-8.028 -233.288)" fill="#e3e3e3" opacity="0.167"/>
        <path id="Path_259" data-name="Path 259" d="M360.365,248.3c-17.085-2.47-128.415-8.214-144.374-1.783,0,0-211.118,130.569-199.448,136.607,12.548,6.5,162.991,45.08,287.334,76.41C422.768,489.512,559.054,522,565.3,521.887c4.265-.075,60.98-58.813,106.693-109.106,42.451-46.537,80.891-92.087,84.292-101.428,4.064-11.171-234.005-45.547-328-57.552C391.577,249.056,363.563,247.009,360.365,248.3Z" transform="translate(-7.928 -233.169)" fill="#e2e2e2" opacity="0.173"/>
        <path id="Path_260" data-name="Path 260" d="M359.853,248.259c-16.962-2.451-128.161-7.86-144.005-1.475,0,0-210.717,130.121-199.13,136.116,12.459,6.453,163.237,45.074,287.161,76.286,118.462,29.857,255.055,62.392,261.252,62.283,4.235-.075,61.009-58.877,106.548-108.97,42.433-46.507,80.821-92.01,84.195-101.283,4.036-11.092-234.773-45.634-328.094-57.553C391.2,248.929,363.162,246.926,359.853,248.259Z" transform="translate(-7.828 -233.052)" fill="#e1e1e1" opacity="0.179"/>
        <path id="Path_261" data-name="Path 261" d="M359.342,248.221c-16.839-2.434-127.909-7.507-143.638-1.167,0,0-210.314,129.673-198.812,135.624,12.367,6.407,163.481,45.068,286.988,76.159,118.032,29.737,254.932,62.324,261.084,62.215,4.2-.073,61.039-58.941,106.4-108.835,42.414-46.475,80.75-91.933,84.1-101.14,4.005-11.011-235.543-45.721-328.188-57.553C390.823,248.806,362.76,246.843,359.342,248.221Z" transform="translate(-7.728 -232.937)" fill="#e0e0e0" opacity="0.185"/>
        <path id="Path_262" data-name="Path 262" d="M358.83,248.185c-16.716-2.416-127.656-7.152-143.269-.857,0,0-209.911,129.224-198.493,135.131,12.277,6.36,163.725,45.061,286.816,76.035,117.6,29.616,254.809,62.252,260.916,62.143,4.175-.071,61.067-59,106.258-108.7,42.4-46.443,80.68-91.856,84.007-100.994,3.976-10.932-236.314-45.81-328.281-57.555C390.446,248.684,362.359,246.763,358.83,248.185Z" transform="translate(-7.627 -232.823)" fill="#dfdfdf" opacity="0.19"/>
        <path id="Path_263" data-name="Path 263" d="M358.317,248.15c-16.594-2.4-127.4-6.8-142.9-.549,0,0-209.508,128.776-198.174,134.64,12.187,6.314,163.969,45.055,286.643,75.911,117.172,29.495,254.686,62.182,260.748,62.073,4.144-.072,61.1-59.065,106.113-108.564,42.378-46.41,80.61-91.778,83.91-100.851,3.948-10.849-237.082-45.9-328.373-57.555C390.067,248.563,361.957,246.684,358.317,248.15Z" transform="translate(-7.527 -232.71)" fill="#dedede" opacity="0.196"/>
        <path id="Path_264" data-name="Path 264" d="M357.807,248.118c-16.471-2.38-127.15-6.443-142.534-.241,0,0-209.107,128.328-197.856,134.148,12.1,6.267,164.215,45.049,286.472,75.785,116.743,29.376,254.563,62.112,260.582,62,4.113-.07,61.125-59.129,105.965-108.429,42.36-46.379,80.54-91.7,83.817-100.706C758.17,299.91,516.4,264.7,425.786,253.123,389.69,248.444,361.555,246.606,357.807,248.118Z" transform="translate(-7.427 -232.6)" fill="#ddd" opacity="0.202"/>
        <path id="Path_265" data-name="Path 265" d="M357.294,248.087c-16.348-2.363-126.9-6.088-142.167.067,0,0-208.7,127.88-197.536,133.657,12.007,6.22,164.459,45.043,286.3,75.66C420.2,486.726,558.332,519.513,564.3,519.406c4.081-.07,61.152-59.193,105.82-108.294,42.341-46.348,80.468-91.625,83.721-100.563,3.889-10.689-238.62-46.069-328.559-57.556C389.313,248.327,361.153,246.532,357.294,248.087Z" transform="translate(-7.327 -232.491)" fill="#dcdcdc" opacity="0.208"/>
        <path id="Path_266" data-name="Path 266" d="M356.782,248.059c-16.225-2.344-126.643-5.733-141.8.375,0,0-208.3,127.432-197.217,133.165,11.916,6.174,164.7,45.037,286.125,75.536C419.776,486.268,558.211,519.105,564.139,519c4.052-.07,61.182-59.257,105.676-108.158,42.322-46.317,80.4-91.548,83.626-100.418,3.859-10.61-239.39-46.158-328.653-57.558C388.936,248.213,360.751,246.458,356.782,248.059Z" transform="translate(-7.227 -232.385)" fill="#dbdbdb" opacity="0.214"/>
        <path id="Path_267" data-name="Path 267" d="M356.271,248.033c-16.1-2.327-126.391-5.38-141.431.683,0,0-207.9,126.984-196.9,132.674,11.826,6.127,164.948,45.03,285.953,75.411,115.453,29.012,254.2,61.9,260.079,61.795,4.021-.068,61.212-59.32,105.53-108.025,42.305-46.284,80.328-91.47,83.531-100.274,3.831-10.529-240.159-46.244-328.745-57.559C388.559,248.1,360.351,246.389,356.271,248.033Z" transform="translate(-7.126 -232.282)" fill="#dadada" opacity="0.22"/>
        <path id="Path_268" data-name="Path 268" d="M355.759,248.01C339.78,245.7,229.621,242.984,214.7,249c0,0-207.5,126.536-196.581,132.182,11.736,6.08,165.194,45.024,285.781,75.285,115.024,28.893,254.074,61.831,259.911,61.727,3.99-.069,61.24-59.384,105.385-107.889,42.286-46.251,80.257-91.394,83.436-100.129,3.8-10.448-240.928-46.332-328.838-57.561C388.181,247.991,359.949,246.32,355.759,248.01Z" transform="translate(-7.027 -232.181)" fill="#d9d9d9" opacity="0.226"/>
        <path id="Path_269" data-name="Path 269" d="M355.246,247.989c-15.855-2.291-125.884-4.671-140.694,1.3,0,0-207.093,126.088-196.262,131.691C29.936,387.012,183.728,426,303.9,456.139,418.493,484.911,557.85,517.9,563.644,517.8c3.959-.068,61.268-59.448,105.239-107.754,42.268-46.22,80.185-91.316,83.341-99.986,3.772-10.367-241.7-46.419-328.933-57.561C387.8,247.885,359.547,246.256,355.246,247.989Z" transform="translate(-6.926 -232.082)" fill="#d8d8d8" opacity="0.232"/>
        <path id="Path_270" data-name="Path 270" d="M354.735,247.972C339,245.7,229.1,243.655,214.409,249.578c0,0-206.69,125.64-195.943,131.2,11.555,5.987,165.682,45.012,285.435,75.036C418.066,484.465,557.731,517.5,563.479,517.4c3.927-.067,61.3-59.51,105.093-107.619,42.251-46.189,80.117-91.24,83.246-99.841,3.742-10.288-242.465-46.506-329.025-57.563C387.426,247.78,359.145,246.194,354.735,247.972Z" transform="translate(-6.826 -231.987)" fill="#d7d7d7" opacity="0.238"/>
        <path id="Path_271" data-name="Path 271" d="M354.223,247.957C338.613,245.7,228.844,244,214.265,249.872c0,0-206.289,125.192-195.624,130.708,11.465,5.94,165.926,45.005,285.262,74.911,113.736,28.532,253.708,61.621,259.41,61.518,3.9-.067,61.325-59.574,104.948-107.483,42.23-46.158,80.045-91.163,83.151-99.7,3.713-10.207-243.235-46.593-329.118-57.563C387.049,247.68,358.745,246.136,354.223,247.957Z" transform="translate(-6.726 -231.895)" fill="#d6d6d6" opacity="0.244"/>
        <path id="Path_272" data-name="Path 272" d="M353.711,247.948c-15.486-2.24-125.125-3.61-139.591,2.221,0,0-205.884,124.744-195.306,130.216,11.375,5.894,166.172,45,285.091,74.786,113.305,28.41,253.585,61.549,259.242,61.448,3.867-.067,61.355-59.638,104.8-107.348,42.212-46.127,79.973-91.087,83.055-99.554,3.685-10.128-244-46.681-329.21-57.564C386.673,247.584,358.343,246.08,353.711,247.948Z" transform="translate(-6.626 -231.807)" fill="#d5d5d5" opacity="0.25"/>
        <path id="Path_273" data-name="Path 273" d="M353.2,247.941c-15.365-2.221-124.873-3.256-139.224,2.529,0,0-205.481,124.3-194.987,129.725,11.285,5.847,166.416,44.993,284.918,74.662,112.876,28.289,253.462,61.478,259.074,61.378,3.837-.065,61.384-59.7,104.657-107.214,42.195-46.093,79.905-91.008,82.962-99.409,3.655-10.045-244.774-46.768-329.3-57.564C386.3,247.49,357.941,246.028,353.2,247.941Z" transform="translate(-6.526 -231.722)" fill="#d4d4d4" opacity="0.256"/>
        <path id="Path_274" data-name="Path 274" d="M352.688,247.938c-15.242-2.2-124.62-2.9-138.855,2.837,0,0-205.078,123.848-194.668,129.233,11.195,5.8,166.66,44.987,284.746,74.536,112.445,28.169,253.34,61.409,258.908,61.31,3.8-.065,61.411-59.765,104.511-107.079,42.176-46.062,79.834-90.932,82.867-99.264,3.626-9.966-245.543-46.856-329.4-57.566C385.917,247.4,357.539,245.981,352.688,247.938Z" transform="translate(-6.426 -231.641)" fill="#d3d3d3" opacity="0.262"/>
        <path id="Path_275" data-name="Path 275" d="M352.175,247.938c-15.117-2.185-124.366-2.546-138.486,3.145,0,0-204.677,123.4-194.349,128.742,11.1,5.754,166.9,44.981,284.573,74.411,112.016,28.049,253.217,61.338,258.74,61.24,3.775-.065,61.44-59.829,104.366-106.944,42.157-46.03,79.762-90.855,82.77-99.121,3.6-9.885-246.312-46.942-329.49-57.566C385.54,247.315,357.137,245.936,352.175,247.938Z" transform="translate(-6.326 -231.563)" fill="#d2d2d2" opacity="0.268"/>
        <path id="Path_276" data-name="Path 276" d="M351.665,247.943c-15-2.168-124.113-2.192-138.119,3.453,0,0-204.274,122.952-194.032,128.25,11.014,5.707,167.15,44.974,284.4,74.287C415.5,481.861,557.01,515.2,562.488,515.1c3.744-.064,61.47-59.891,104.22-106.808,42.14-46,79.693-90.778,82.677-98.976,3.567-9.806-247.082-47.031-329.583-57.567C385.163,247.234,356.737,245.9,351.665,247.943Z" transform="translate(-6.226 -231.49)" fill="#d1d1d1" opacity="0.274"/>
        <path id="Path_277" data-name="Path 277" d="M351.153,247.952c-14.873-2.151-123.859-1.839-137.751,3.761,0,0-203.871,122.5-193.713,127.758,10.924,5.66,167.395,44.968,284.228,74.161,111.157,27.808,252.972,61.2,258.406,61.1,3.714-.064,61.5-59.955,104.075-106.673,42.122-45.967,79.622-90.7,82.58-98.832,3.539-9.726-247.85-47.118-329.675-57.569C384.786,247.157,356.335,245.861,351.153,247.952Z" transform="translate(-6.126 -231.421)" fill="#d0d0d0" opacity="0.28"/>
        <path id="Path_278" data-name="Path 278" d="M350.64,247.964c-14.749-2.133-123.605-1.484-137.382,4.069,0,0-203.469,122.056-193.394,127.267C30.7,384.912,187.5,424.261,303.919,453.336c110.728,27.687,252.85,61.128,258.238,61.031,3.683-.064,61.527-60.019,103.931-106.539,42.1-45.934,79.55-90.624,82.486-98.687,3.509-9.644-248.62-47.2-329.768-57.569C384.409,247.082,355.934,245.829,350.64,247.964Z" transform="translate(-6.025 -231.355)" fill="#cfcfcf" opacity="0.286"/>
        <path id="Path_279" data-name="Path 279" d="M350.13,247.988c-14.628-2.115-123.353-1.129-137.017,4.377,0,0-203.066,121.608-193.073,126.775,10.742,5.565,167.883,44.956,283.882,73.912,110.3,27.566,252.727,61.056,258.07,60.961,3.652-.062,61.557-60.082,103.784-106.4,42.084-45.9,79.482-90.546,82.391-98.542,3.48-9.564-249.389-47.294-329.861-57.57C384.031,247.02,355.532,245.808,350.13,247.988Z" transform="translate(-5.925 -231.302)" fill="#cecece" opacity="0.292"/>
        <path id="Path_280" data-name="Path 280" d="M349.618,248.052c-14.5-2.1-123.1-.775-136.648,4.685,0,0-202.663,121.16-192.756,126.284,10.653,5.519,168.129,44.948,283.711,73.786,109.868,27.448,252.6,60.988,257.9,60.893,3.621-.062,61.583-60.146,103.638-106.268,42.066-45.872,79.41-90.47,82.3-98.4,3.45-9.484-250.158-47.379-329.955-57.57C383.654,247,355.132,245.83,349.618,248.052Z" transform="translate(-5.825 -231.289)" fill="#cdcdcd" opacity="0.298"/>
        <path id="Path_281" data-name="Path 281" d="M349.105,248.118c-14.38-2.08-122.846-.42-136.279,4.993,0,0-202.26,120.711-192.437,125.792,10.563,5.472,168.373,44.942,283.537,73.661,109.438,27.326,252.482,60.916,257.737,60.823,3.59-.062,61.613-60.21,103.493-106.133,42.047-45.841,79.339-90.393,82.2-98.255,3.42-9.4-250.929-47.468-330.048-57.572C383.277,246.978,354.73,245.85,349.105,248.118Z" transform="translate(-5.725 -231.276)" fill="#ccc" opacity="0.304"/>
        <path id="Path_282" data-name="Path 282" d="M348.595,248.183c-14.259-2.061-122.594-.067-135.912,5.3,0,0-201.859,120.261-192.118,125.3,10.471,5.425,168.617,44.935,283.364,73.537,109.009,27.2,252.359,60.846,257.569,60.753,3.56-.061,61.643-60.272,103.347-106,42.03-45.808,79.269-90.316,82.106-98.112,3.392-9.323-251.7-47.553-330.14-57.572C382.9,246.957,354.328,245.87,348.595,248.183Z" transform="translate(-5.626 -231.264)" fill="#cbcbcb" opacity="0.31"/>
        <path id="Path_283" data-name="Path 283" d="M348.082,248.249c-14.136-2.044-122.341.288-135.544,5.61,0,0-201.456,119.813-191.8,124.809C31.12,384.046,189.6,423.6,303.931,452.078c108.578,27.085,252.237,60.776,257.4,60.684,3.529-.061,61.671-60.336,103.2-105.864,42.011-45.775,79.2-90.238,82.011-97.965,3.363-9.243-252.467-47.642-330.235-57.573C382.523,246.936,353.926,245.892,348.082,248.249Z" transform="translate(-5.525 -231.252)" fill="#cacaca" opacity="0.315"/>
        <path id="Path_284" data-name="Path 284" d="M347.57,248.315c-14.012-2.025-122.087.642-135.175,5.918,0,0-201.053,119.365-191.482,124.318,10.292,5.331,169.107,44.921,283.021,73.285,108.149,26.964,252.114,60.706,257.233,60.615,3.5-.061,61.7-60.4,103.058-105.729,41.992-45.744,79.127-90.162,81.915-97.822,3.333-9.162-253.235-47.727-330.327-57.575C382.145,246.916,353.525,245.913,347.57,248.315Z" transform="translate(-5.426 -231.24)" fill="#c9c9c9" opacity="0.321"/>
        <path id="Path_285" data-name="Path 285" d="M347.06,248.381c-13.89-2.008-121.835,1-134.808,6.226,0,0-200.65,118.917-191.163,123.826,10.2,5.284,169.351,44.915,282.848,73.161C411.654,478.437,555.927,512.229,561,512.139c3.467-.059,61.728-60.463,102.91-105.593,41.974-45.713,79.057-90.084,81.821-97.678,3.3-9.082-254.005-47.816-330.42-57.577C381.768,246.9,353.124,245.936,347.06,248.381Z" transform="translate(-5.326 -231.228)" fill="#c8c8c8" opacity="0.327"/>
        <path id="Path_286" data-name="Path 286" d="M346.547,248.447c-13.767-1.989-121.582,1.352-134.441,6.534,0,0-200.247,118.469-190.843,123.335,10.11,5.237,169.6,44.909,282.674,73.035,107.29,26.724,251.869,60.566,256.9,60.476,3.438-.059,61.756-60.527,102.766-105.458,41.955-45.682,78.987-90.008,81.726-97.535,3.274-9-254.775-47.9-330.513-57.577C381.391,246.876,352.723,245.957,346.547,248.447Z" transform="translate(-5.225 -231.217)" fill="#c7c7c7" opacity="0.333"/>
        <path id="Path_287" data-name="Path 287" d="M346.035,248.514c-13.643-1.972-121.328,1.7-134.072,6.842,0,0-199.844,118.021-190.524,122.843,10.02,5.191,169.84,44.9,282.5,72.91,106.861,26.6,251.747,60.495,256.732,60.406,3.406-.059,61.786-60.591,102.621-105.323,41.937-45.649,78.916-89.932,81.63-97.39,3.246-8.922-255.543-47.99-330.6-57.578C381.014,246.857,352.321,245.98,346.035,248.514Z" transform="translate(-5.125 -231.205)" fill="#c6c6c6" opacity="0.339"/>
        <path id="Path_288" data-name="Path 288" d="M345.525,248.581c-13.522-1.955-121.076,2.059-133.705,7.15,0,0-199.441,117.573-190.207,122.352,9.932,5.144,170.085,44.9,282.33,72.786,106.43,26.482,251.625,60.425,256.564,60.336,3.377-.058,61.815-60.653,102.475-105.187,41.919-45.618,78.846-89.854,81.537-97.247,3.217-8.84-256.313-48.077-330.7-57.578C380.638,246.837,351.919,246,345.525,248.581Z" transform="translate(-5.026 -231.195)" fill="#c5c5c5" opacity="0.345"/>
        <path id="Path_289" data-name="Path 289" d="M345.013,248.648c-13.4-1.937-120.823,2.414-133.336,7.458,0,0-199.039,117.125-189.888,121.86,9.84,5.1,170.33,44.89,282.157,72.661,106,26.36,251.5,60.353,256.4,60.266,3.346-.058,61.843-60.717,102.33-105.054,41.9-45.586,78.776-89.776,81.44-97.1,3.187-8.76-257.082-48.165-330.792-57.58C380.259,246.818,351.519,246.025,345.013,248.648Z" transform="translate(-4.926 -231.184)" fill="#c4c4c4" opacity="0.351"/>
        <path id="Path_290" data-name="Path 290" d="M344.5,248.715c-13.274-1.919-120.569,2.769-132.968,7.766,0,0-198.637,116.677-189.569,121.369,9.75,5.05,170.574,44.884,281.985,72.535,105.57,26.24,251.38,60.285,256.228,60.2,3.315-.058,61.873-60.781,102.184-104.918,41.884-45.555,78.706-89.7,81.347-96.958,3.158-8.679-257.852-48.252-330.885-57.58C379.882,246.8,351.117,246.047,344.5,248.715Z" transform="translate(-4.826 -231.173)" fill="#c3c3c3" opacity="0.357"/>
        <path id="Path_291" data-name="Path 291" d="M343.99,248.783c-13.153-1.9-120.317,3.123-132.6,8.074,0,0-198.234,116.23-189.25,120.877,9.659,5,170.818,44.878,281.81,72.411,105.142,26.121,251.258,60.213,256.063,60.127,3.284-.056,61.9-60.845,102.038-104.783,41.865-45.523,78.634-89.622,81.252-96.813,3.128-8.6-258.622-48.34-330.978-57.581C379.505,246.781,350.715,246.07,343.99,248.783Z" transform="translate(-4.726 -231.163)" fill="#c2c2c2" opacity="0.363"/>
        <path id="Path_292" data-name="Path 292" d="M343.478,248.85c-13.029-1.884-120.064,3.476-132.232,8.382,0,0-197.832,115.782-188.933,120.386,9.571,4.957,171.064,44.872,281.639,72.287,104.711,26,251.135,60.143,255.895,60.057,3.253-.056,61.929-60.908,101.893-104.648,41.845-45.491,78.564-89.546,81.156-96.67,3.1-8.519-259.39-48.426-331.071-57.581C379.129,246.763,350.314,246.094,343.478,248.85Z" transform="translate(-4.626 -231.153)" fill="#c1c1c1" opacity="0.369"/>
        <path id="Path_293" data-name="Path 293" d="M342.966,248.919c-12.906-1.865-119.81,3.831-131.863,8.69,0,0-197.43,115.334-188.614,119.894,9.479,4.911,171.308,44.865,281.467,72.16,104.282,25.88,251.012,60.073,255.727,59.989C562.9,509.6,621.64,448.68,661.429,405.14c41.828-45.46,78.494-89.469,81.062-96.525,3.07-8.438-260.16-48.515-331.165-57.583C378.752,246.744,349.912,246.117,342.966,248.919Z" transform="translate(-4.526 -231.144)" fill="silver" opacity="0.375"/>
        <path id="Path_294" data-name="Path 294" d="M342.455,248.987c-12.784-1.848-119.557,4.186-131.5,9,0,0-197.026,114.886-188.294,119.4,9.389,4.864,171.552,44.859,281.294,72.036,103.853,25.758,250.89,60,255.559,59.919,3.192-.054,61.986-61.036,101.6-104.379,41.809-45.427,78.423-89.39,80.966-96.38,3.041-8.357-260.929-48.6-331.257-57.583C378.374,246.726,349.512,246.142,342.455,248.987Z" transform="translate(-4.426 -231.134)" fill="#bfbfbf" opacity="0.381"/>
        <path id="Path_295" data-name="Path 295" d="M341.943,249.055c-12.66-1.829-119.3,4.54-131.129,9.306,0,0-196.623,114.438-187.975,118.911,9.3,4.817,171.8,44.853,281.121,71.912,103.422,25.637,250.767,59.932,255.391,59.849,3.162-.054,62.016-61.1,101.457-104.243,41.79-45.4,78.353-89.314,80.871-96.236,3.011-8.278-261.7-48.689-331.35-57.584C378,246.709,349.11,246.165,341.943,249.055Z" transform="translate(-4.326 -231.125)" fill="#bebebe" opacity="0.387"/>
        <path id="Path_296" data-name="Path 296" d="M341.431,249.117c-12.537-1.812-119.05,4.895-130.761,9.614,0,0-196.22,113.99-187.657,118.42,9.208,4.771,172.042,44.847,280.949,71.786,102.994,25.517,250.645,59.862,255.226,59.781,3.13-.054,62.044-61.162,101.31-104.108,41.773-45.365,78.283-89.238,80.776-96.091,2.983-8.2-262.484-48.636-331.442-57.586C377.613,246.749,348.709,246.183,341.431,249.117Z" transform="translate(-4.226 -231.108)" fill="#bdbdbd" opacity="0.393"/>
        <path id="Path_297" data-name="Path 297" d="M340.921,249.185c-12.416-1.8-118.8,5.248-130.393,9.922,0,0-195.819,113.542-187.338,117.928,9.118,4.724,172.286,44.841,280.776,71.661,102.563,25.4,250.522,59.792,255.058,59.711,3.1-.053,62.072-61.226,101.165-103.973,41.754-45.332,78.211-89.16,80.681-95.948,2.954-8.118-263.254-48.721-331.536-57.586C377.234,246.734,348.307,246.206,340.921,249.185Z" transform="translate(-4.126 -231.099)" fill="#bcbcbc" opacity="0.399"/>
        <path id="Path_298" data-name="Path 298" d="M340.408,249.254c-12.291-1.776-118.544,5.6-130.025,10.23,0,0-195.416,113.094-187.02,117.437,9.028,4.677,172.531,44.834,280.6,71.537,102.134,25.276,250.4,59.72,254.89,59.641,3.069-.053,62.1-61.289,101.02-103.837,41.736-45.3,78.14-89.084,80.586-95.8,2.923-8.039-264.024-48.808-331.63-57.587C376.857,246.717,347.907,246.232,340.408,249.254Z" transform="translate(-4.026 -231.09)" fill="#bbb" opacity="0.405"/>
        <path id="Path_299" data-name="Path 299" d="M339.9,249.323c-12.168-1.759-118.291,5.957-129.656,10.538,0,0-195.013,112.646-186.7,116.945,8.938,4.63,172.775,44.828,280.431,71.411,101.7,25.156,250.277,59.651,254.722,59.572,3.039-.053,62.131-61.353,100.874-103.7,41.717-45.268,78.071-89.006,80.492-95.659,2.895-7.956-264.792-48.894-331.722-57.588C376.48,246.7,347.505,246.256,339.9,249.323Z" transform="translate(-3.927 -231.082)" fill="#bababa" opacity="0.411"/>
        <path id="Path_300" data-name="Path 300" d="M339.386,249.393c-12.047-1.741-118.039,6.312-129.289,10.846,0,0-194.61,112.2-186.383,116.454,8.847,4.584,173.021,44.822,280.26,71.286,101.274,25.035,250.154,59.58,254.554,59.5,3.008-.051,62.159-61.417,100.729-103.568,41.7-45.237,78-88.928,80.4-95.514,2.865-7.877-265.564-48.981-331.815-57.591C376.1,246.685,347.1,246.28,339.386,249.393Z" transform="translate(-3.827 -231.073)" fill="#b9b9b9" opacity="0.417"/>
        <path id="Path_301" data-name="Path 301" d="M338.874,249.462c-11.923-1.723-117.785,6.667-128.922,11.156,0,0-194.207,111.748-186.063,115.96,8.757,4.537,173.265,44.816,280.085,71.162,100.845,24.914,250.033,59.51,254.389,59.432,2.976-.051,62.187-61.479,100.583-103.433,41.68-45.2,77.928-88.852,80.3-95.371,2.837-7.8-266.332-49.065-331.907-57.591C375.726,246.67,346.7,246.306,338.874,249.462Z" transform="translate(-3.727 -231.065)" fill="#b8b8b8" opacity="0.423"/>
        <path id="Path_302" data-name="Path 302" d="M338.362,249.532c-11.8-1.7-117.531,7.02-128.553,11.464,0,0-193.8,111.3-185.744,115.469,8.667,4.491,173.509,44.809,279.913,71.036,100.415,24.8,249.91,59.44,254.221,59.364,2.946-.051,62.216-61.543,100.437-103.3,41.663-45.173,77.86-88.776,80.207-95.226,2.808-7.717-267.1-49.152-332-57.592C375.349,246.654,346.3,246.33,338.362,249.532Z" transform="translate(-3.627 -231.057)" fill="#b7b7b7" opacity="0.429"/>
        <path id="Path_303" data-name="Path 303" d="M337.851,249.6c-11.678-1.688-117.279,7.374-128.186,11.772,0,0-193.4,110.852-185.425,114.977,8.575,4.444,173.753,44.8,279.74,70.911,99.986,24.674,249.787,59.37,254.053,59.294,2.915-.05,62.244-61.607,100.292-103.162,41.644-45.142,77.788-88.7,80.112-95.083,2.776-7.636-267.872-49.238-332.095-57.592C374.972,246.638,345.9,246.357,337.851,249.6Z" transform="translate(-3.527 -231.049)" fill="#b6b6b6" opacity="0.435"/>
        <path id="Path_304" data-name="Path 304" d="M337.34,249.672C325.786,248,220.314,257.4,209.522,261.751c0,0-193,110.4-185.108,114.486,8.487,4.4,174,44.8,279.569,70.787,99.555,24.553,249.664,59.3,253.885,59.224,2.885-.05,62.274-61.671,100.148-103.027,41.625-45.111,77.716-88.622,80.016-94.939,2.748-7.555-268.64-49.325-332.187-57.594C374.594,246.623,345.5,246.382,337.34,249.672Z" transform="translate(-3.428 -231.041)" fill="#b5b5b5" opacity="0.44"/>
        <path id="Path_305" data-name="Path 305" d="M336.828,249.742c-11.431-1.652-116.772,8.084-127.449,12.388,0,0-192.6,109.956-184.789,113.994,8.4,4.351,174.243,44.791,279.4,70.661,99.126,24.433,249.541,59.23,253.717,59.155,2.854-.05,62.3-61.734,100-102.893,41.608-45.079,77.648-88.544,79.922-94.794,2.719-7.474-269.41-49.411-332.28-57.594C374.218,246.609,345.1,246.408,336.828,249.742Z" transform="translate(-3.328 -231.033)" fill="#b4b4b4" opacity="0.446"/>
        <path id="Path_306" data-name="Path 306" d="M336.316,249.812c-11.308-1.633-116.519,8.438-127.08,12.7,0,0-192.195,109.507-184.47,113.5,8.3,4.3,174.487,44.783,279.222,70.537,98.7,24.312,249.42,59.159,253.551,59.085,2.825-.048,62.332-61.8,99.857-102.758,41.59-45.046,77.577-88.468,79.826-94.649,2.691-7.395-270.179-49.5-332.373-57.6C373.841,246.594,344.7,246.434,336.316,249.812Z" transform="translate(-3.228 -231.026)" fill="#b3b3b3" opacity="0.452"/>
        <path id="Path_307" data-name="Path 307" d="M335.805,249.883c-11.185-1.616-116.267,8.791-126.713,13,0,0-191.792,109.059-184.151,113.011,8.214,4.257,174.732,44.777,279.049,70.412,98.267,24.192,249.3,59.089,253.384,59.015,2.792-.048,62.36-61.86,99.711-102.622,41.569-45.015,77.505-88.39,79.731-94.506,2.661-7.314-270.949-49.583-332.467-57.6C373.464,246.579,344.3,246.461,335.805,249.883Z" transform="translate(-3.128 -231.019)" fill="#b2b2b2" opacity="0.458"/>
        <path id="Path_308" data-name="Path 308" d="M335.294,249.955c-11.062-1.6-116.013,9.144-126.346,13.31,0,0-191.389,108.611-183.833,112.52,8.126,4.211,174.977,44.77,278.878,70.288,97.836,24.071,249.176,59.017,253.217,58.945,2.762-.048,62.389-61.924,99.564-102.487,41.552-44.984,77.437-88.314,79.638-94.362,2.63-7.234-271.719-49.67-332.56-57.6C373.086,246.564,343.9,246.486,335.294,249.955Z" transform="translate(-3.029 -231.012)" fill="#b1b1b1" opacity="0.464"/>
        <path id="Path_309" data-name="Path 309" d="M334.781,250.026c-10.938-1.582-115.76,9.5-125.978,13.618,0,0-190.986,108.163-183.514,112.028,8.035,4.164,175.222,44.764,278.706,70.162,97.407,23.951,249.053,58.948,253.049,58.877,2.731-.047,62.417-61.988,99.42-102.352,41.534-44.953,77.365-88.238,79.541-94.218,2.6-7.152-272.487-49.756-332.652-57.6C372.71,246.55,343.494,246.513,334.781,250.026Z" transform="translate(-2.929 -231.006)" fill="#b0b0b0" opacity="0.47"/>
        <path id="Path_310" data-name="Path 310" d="M334.271,250.1c-10.817-1.565-115.508,9.854-125.61,13.926,0,0-190.583,107.715-183.195,111.538C33.409,379.677,200.932,420.318,304,445.6c96.976,23.83,248.93,58.877,252.881,58.807,2.7-.047,62.447-62.052,99.275-102.218,41.515-44.92,77.293-88.158,79.446-94.072,2.573-7.073-273.257-49.843-332.745-57.6C372.333,246.537,343.092,246.54,334.271,250.1Z" transform="translate(-2.829 -230.999)" fill="#afafaf" opacity="0.476"/>
        <path id="Path_311" data-name="Path 311" d="M333.759,250.169C323.065,248.623,218.5,260.377,208.517,264.4c0,0-190.18,107.267-182.876,111.047,7.853,4.068,175.71,44.75,278.36,69.911,96.547,23.708,248.807,58.807,252.713,58.737,2.671-.047,62.476-62.115,99.129-102.083,41.5-44.887,77.224-88.082,79.351-93.929,2.545-6.992-274.025-49.928-332.839-57.6C371.955,246.523,342.69,246.566,333.759,250.169Z" transform="translate(-2.729 -230.992)" fill="#aeaeae" opacity="0.482"/>
        <path id="Path_312" data-name="Path 312" d="M333.248,250.24c-10.569-1.529-115,10.562-124.873,14.542,0,0-189.779,106.819-182.559,110.555,7.765,4.021,175.956,44.744,278.188,69.785,96.119,23.588,248.686,58.737,252.548,58.668,2.638-.045,62.423-62.252,98.983-101.947,41.389-44.94,77.153-88.006,79.256-93.784,2.515-6.912-274.8-50.016-332.932-57.6C371.579,246.509,342.291,246.594,333.248,250.24Z" transform="translate(-2.63 -230.986)" fill="#adadad" opacity="0.488"/>
        <path id="Path_313" data-name="Path 313" d="M332.737,250.312c-10.448-1.51-114.747,10.916-124.506,14.85,0,0-189.376,106.371-182.24,110.064,7.673,3.974,176.2,44.738,278.015,69.661,95.688,23.469,248.563,58.667,252.38,58.6,2.608-.045,62.453-62.316,98.838-101.812,41.369-44.909,77.082-87.928,79.16-93.64,2.486-6.833-275.564-50.1-333.024-57.6C371.2,246.495,341.889,246.621,332.737,250.312Z" transform="translate(-2.53 -230.98)" fill="#acacac" opacity="0.494"/>
        <path id="Path_314" data-name="Path 314" d="M332.225,250.384c-10.325-1.493-114.494,11.271-124.137,15.158,0,0-188.973,105.923-181.921,109.572,7.583,3.928,176.444,44.732,277.842,69.536,95.259,23.347,248.44,58.6,252.212,58.528,2.577-.045,62.481-62.38,98.692-101.677,41.352-44.878,77.012-87.852,79.067-93.5,2.456-6.751-276.334-50.19-333.117-57.6C370.825,246.483,341.488,246.649,332.225,250.384Z" transform="translate(-2.431 -230.974)" fill="#ababab" opacity="0.5"/>
        <path id="Path_315" data-name="Path 315" d="M331.713,250.456c-10.2-1.475-114.24,11.625-123.77,15.466,0,0-188.57,105.475-181.6,109.081,7.493,3.881,176.688,44.725,277.67,69.41,94.828,23.228,248.317,58.527,252.044,58.46,2.548-.044,62.51-62.442,98.547-101.543,41.331-44.845,76.942-87.774,78.972-93.35,2.427-6.671-277.1-50.277-333.212-57.6C370.447,246.469,341.086,246.676,331.713,250.456Z" transform="translate(-2.331 -230.969)" fill="#aaa" opacity="0.506"/>
        <path id="Path_316" data-name="Path 316" d="M331.2,250.528c-10.079-1.457-113.988,11.98-123.4,15.774,0,0-188.168,105.027-181.283,108.589,7.4,3.834,176.934,44.719,277.5,69.286,94.4,23.106,248.194,58.455,251.876,58.39,2.517-.044,62.54-62.506,98.4-101.408,41.314-44.814,76.872-87.7,78.877-93.207,2.4-6.59-277.872-50.362-333.3-57.6C370.071,246.456,340.687,246.7,331.2,250.528Z" transform="translate(-2.232 -230.963)" fill="#a9a9a9" opacity="0.512"/>
        <path id="Path_317" data-name="Path 317" d="M330.691,250.6c-9.956-1.44-113.735,12.333-123.035,16.082,0,0-187.765,104.579-180.964,108.1,7.312,3.788,177.178,44.713,277.324,69.162,93.969,22.985,248.073,58.385,251.709,58.32,2.487-.043,62.568-62.569,98.256-101.272,41.3-44.783,76.8-87.62,78.782-93.063,2.367-6.511-278.642-50.45-333.4-57.606C369.694,246.443,340.285,246.732,330.691,250.6Z" transform="translate(-2.132 -230.958)" fill="#a8a8a8" opacity="0.518"/>
        <path id="Path_318" data-name="Path 318" d="M330.179,250.673c-9.832-1.422-113.481,12.688-122.666,16.39,0,0-187.362,104.131-180.645,107.606C34.09,378.41,204.29,419.376,304.02,443.7c93.54,22.867,247.95,58.315,251.543,58.252,2.454-.042,62.6-62.633,98.11-101.137,41.275-44.752,76.73-87.544,78.685-92.92,2.339-6.43-279.41-50.537-333.489-57.606C369.316,246.431,339.884,246.76,330.179,250.673Z" transform="translate(-2.032 -230.952)" fill="#a7a7a7" opacity="0.524"/>
        <path id="Path_319" data-name="Path 319" d="M329.669,250.746c-9.711-1.4-113.229,13.042-122.3,16.7,0,0-186.961,103.683-180.327,107.115,7.132,3.694,177.667,44.7,276.979,68.911,93.111,22.745,247.827,58.244,251.375,58.182,2.425-.042,62.626-62.7,97.964-101,41.258-44.721,76.66-87.466,78.592-92.775,2.31-6.349-280.18-50.624-333.582-57.608C368.939,246.419,339.482,246.789,329.669,250.746Z" transform="translate(-1.932 -230.947)" fill="#a6a6a6" opacity="0.53"/>
        <path id="Path_320" data-name="Path 320" d="M329.158,250.819c-9.588-1.386-112.975,13.4-121.93,17.006,0,0-186.558,103.235-180.009,106.623,7.042,3.648,177.912,44.694,276.808,68.787,92.68,22.624,247.7,58.174,251.207,58.112,2.394-.042,62.654-62.761,97.819-100.868,41.24-44.688,76.589-87.388,78.5-92.63,2.28-6.269-280.95-50.709-333.677-57.608C368.563,246.406,339.081,246.817,329.158,250.819Z" transform="translate(-1.833 -230.943)" fill="#a5a5a5" opacity="0.536"/>
        <path id="Path_321" data-name="Path 321" d="M328.646,250.892c-9.463-1.369-112.722,13.752-121.562,17.315,0,0-186.155,102.786-179.69,106.13,6.951,3.6,178.157,44.688,276.635,68.661,92.251,22.5,247.581,58.1,251.039,58.043,2.364-.04,62.683-62.823,97.675-100.733,41.219-44.657,76.519-87.312,78.4-92.486,2.252-6.189-281.719-50.8-333.769-57.609C368.187,246.393,338.681,246.846,328.646,250.892Z" transform="translate(-1.733 -230.938)" fill="#a4a4a4" opacity="0.542"/>
        <path id="Path_322" data-name="Path 322" d="M328.135,250.965c-9.342-1.35-112.47,14.1-121.195,17.623,0,0-185.752,102.338-179.371,105.638,6.861,3.554,178.4,44.682,276.461,68.536C395.852,465.146,551.49,500.8,554.9,500.736c2.333-.04,62.713-62.887,97.528-100.6,41.2-44.626,76.449-87.234,78.308-92.342,2.221-6.108-282.489-50.884-333.862-57.609C367.809,246.383,338.28,246.874,328.135,250.965Z" transform="translate(-1.634 -230.933)" fill="#a3a3a3" opacity="0.548"/>
        <path id="Path_323" data-name="Path 323" d="M327.624,251.038C318.4,249.705,215.407,265.5,206.8,268.969c0,0-185.349,101.89-179.051,105.147,6.771,3.508,178.647,44.676,276.289,68.412,91.392,22.262,247.337,57.962,250.706,57.9,2.3-.04,62.741-62.951,97.382-100.462,41.184-44.595,76.377-87.158,78.211-92.2,2.193-6.029-283.257-50.971-333.954-57.611C367.432,246.37,337.879,246.9,327.624,251.038Z" transform="translate(-1.534 -230.929)" fill="#a2a2a2" opacity="0.554"/>
        <path id="Path_324" data-name="Path 324" d="M327.112,251.112c-9.095-1.314-111.963,14.814-120.459,18.239,0,0-184.946,101.442-178.734,104.655,6.681,3.461,178.892,44.669,276.117,68.286C395,464.436,551.251,500.186,554.575,500.127c2.271-.039,62.769-63.014,97.237-100.327,41.164-44.564,76.306-87.082,78.116-92.055,2.164-5.947-284.027-51.058-334.047-57.611C367.056,246.358,337.478,246.932,327.112,251.112Z" transform="translate(-1.435 -230.925)" fill="#a1a1a1" opacity="0.56"/>
        <path id="Path_325" data-name="Path 325" d="M326.6,251.186c-8.973-1.3-111.711,15.169-120.092,18.547,0,0-184.543,100.994-178.415,104.164,6.59,3.414,179.137,44.663,275.945,68.161,90.532,22.022,247.093,57.822,250.37,57.765,2.24-.039,62.8-63.077,97.091-100.191,41.146-44.533,76.237-87,78.023-91.91,2.134-5.867-284.8-51.145-334.142-57.612C366.68,246.347,337.078,246.962,326.6,251.186Z" transform="translate(-1.335 -230.92)" fill="#a0a0a0" opacity="0.565"/>
        <path id="Path_326" data-name="Path 326" d="M326.09,251.259c-8.85-1.279-111.457,15.523-119.723,18.855,0,0-184.142,100.546-178.1,103.672,6.5,3.368,179.381,44.657,275.772,68.037,90.1,21.9,246.97,57.752,250.2,57.695,2.21-.039,62.828-63.14,96.947-100.057,41.128-44.5,76.166-86.926,77.926-91.765,2.106-5.786-285.565-51.232-334.234-57.612C366.3,246.336,336.676,246.991,326.09,251.259Z" transform="translate(-1.236 -230.916)" fill="#9f9f9f" opacity="0.571"/>
        <path id="Path_327" data-name="Path 327" d="M325.578,251.333c-8.726-1.261-111.2,15.877-119.354,19.163,0,0-183.739,100.1-177.777,103.181,6.408,3.321,179.625,44.651,275.6,67.913,89.673,21.779,246.849,57.681,250.036,57.625,2.179-.037,62.857-63.2,96.8-99.922,41.109-44.467,76.094-86.85,77.832-91.621,2.075-5.707-286.335-51.319-334.327-57.614C365.925,246.325,336.275,247.02,325.578,251.333Z" transform="translate(-1.136 -230.913)" fill="#9e9e9e" opacity="0.577"/>
        <path id="Path_328" data-name="Path 328" d="M325.069,251.407c-8.6-1.244-110.952,16.231-118.987,19.471,0,0-183.336,99.65-177.46,102.689,6.32,3.274,179.871,44.645,275.427,67.787,89.244,21.66,246.726,57.612,249.869,57.556,2.148-.037,62.885-63.266,96.654-99.787,41.09-44.436,76.026-86.772,77.737-91.478,2.047-5.626-287.1-51.406-334.419-57.614C365.549,246.313,335.874,247.051,325.069,251.407Z" transform="translate(-1.037 -230.909)" fill="#9d9d9d" opacity="0.583"/>
        <path id="Path_329" data-name="Path 329" d="M324.557,251.482c-8.48-1.226-110.7,16.586-118.619,19.779,0,0-182.933,99.2-177.141,102.2,6.23,3.228,180.115,44.638,275.254,67.662,88.813,21.54,246.6,57.541,249.7,57.486,2.117-.037,62.915-63.33,96.51-99.652,41.072-44.405,75.954-86.7,77.642-91.333,2.017-5.545-287.874-51.493-334.514-57.615C365.171,246.3,335.473,247.08,324.557,251.482Z" transform="translate(-0.937 -230.906)" fill="#9c9c9c" opacity="0.589"/>
        <path id="Path_330" data-name="Path 330" d="M324.045,251.556c-8.357-1.209-110.445,16.94-118.252,20.087,0,0-182.531,98.753-176.821,101.706,6.139,3.181,180.359,44.632,275.082,67.538,88.384,21.419,246.48,57.471,249.533,57.416,2.087-.036,62.943-63.394,96.365-99.516,41.053-44.374,75.883-86.62,77.545-91.19,1.989-5.464-288.642-51.58-334.605-57.616C364.795,246.292,335.073,247.11,324.045,251.556Z" transform="translate(-0.838 -230.902)" fill="#9b9b9b" opacity="0.595"/>
        <path id="Path_331" data-name="Path 331" d="M323.535,251.631c-8.236-1.19-110.193,17.3-117.884,20.4,0,0-182.128,98.3-176.5,101.215,6.048,3.134,180.6,44.626,274.909,67.412,87.953,21.3,246.357,57.4,249.365,57.348,2.056-.036,62.973-63.456,96.219-99.382,41.036-44.341,75.814-86.541,77.452-91.044,1.96-5.385-289.412-51.669-334.7-57.617C364.418,246.281,334.672,247.14,323.535,251.631Z" transform="translate(-0.738 -230.899)" fill="#9a9a9a" opacity="0.601"/>
        <path id="Path_332" data-name="Path 332" d="M323.024,251.705c-8.112-1.173-109.938,17.648-117.516,20.7,0,0-181.725,97.857-176.184,100.723,5.959,3.088,180.849,44.618,274.736,67.287C391.585,461.6,550.3,497.749,553.258,497.7c2.027-.036,63-63.52,96.074-99.247,41.017-44.31,75.743-86.464,77.357-90.9,1.929-5.306-290.182-51.756-334.792-57.619C364.042,246.27,334.271,247.171,323.024,251.705Z" transform="translate(-0.639 -230.896)" fill="#999" opacity="0.607"/>
        <path id="Path_333" data-name="Path 333" d="M322.512,251.78c-7.989-1.154-109.684,18-117.147,21.011,0,0-181.322,97.409-175.865,100.232,5.869,3.041,181.093,44.612,274.564,67.163,87.094,21.056,246.113,57.259,249.031,57.208,2-.034,63.031-63.584,95.929-99.112,41-44.277,75.671-86.388,77.261-90.756,1.9-5.225-290.95-51.843-334.884-57.62C363.664,246.26,333.87,247.2,322.512,251.78Z" transform="translate(-0.54 -230.893)" fill="#989898" opacity="0.613"/>
        <path id="Path_334" data-name="Path 334" d="M322,251.855c-7.867-1.137-109.432,18.357-116.78,21.319,0,0-180.921,96.961-175.547,99.74,5.777,2.994,181.338,44.606,274.391,67.037,86.665,20.936,245.99,57.191,248.864,57.139,1.963-.034,63.06-63.646,95.782-98.976,40.98-44.246,75.6-86.31,77.167-90.611,1.871-5.144-291.72-51.932-334.979-57.622C363.288,246.251,333.47,247.232,322,251.855Z" transform="translate(-0.44 -230.89)" fill="#979797" opacity="0.619"/>
        <path id="Path_335" data-name="Path 335" d="M321.49,251.93c-7.743-1.118-109.179,18.712-116.411,21.627,0,0-180.518,96.513-175.228,99.249,5.687,2.948,181.582,44.6,274.218,66.912,86.236,20.817,245.867,57.119,248.7,57.069,1.933-.034,63.089-63.71,95.637-98.841,40.961-44.215,75.531-86.234,77.071-90.468,1.843-5.063-292.489-52.019-335.071-57.622C362.912,246.24,333.069,247.262,321.49,251.93Z" transform="translate(-0.341 -230.887)" fill="#969696" opacity="0.625"/>
        <path id="Path_336" data-name="Path 336" d="M320.979,252.005c-7.62-1.1-108.925,19.067-116.043,21.935,0,0-180.115,96.065-174.91,98.757,5.6,2.9,181.828,44.593,274.047,66.788,85.8,20.7,245.744,57.049,248.528,57,1.9-.033,63.118-63.772,95.492-98.707,40.943-44.183,75.46-86.156,76.976-90.322,1.812-4.984-293.258-52.106-335.164-57.623C362.534,246.23,332.668,247.292,320.979,252.005Z" transform="translate(-0.242 -230.885)" fill="#959595" opacity="0.631"/>
        <path id="Path_337" data-name="Path 337" d="M320.469,252.081C312.97,251,211.8,271.5,204.791,274.324c0,0-179.712,95.617-174.59,98.267,5.508,2.853,182.072,44.585,273.873,66.66,85.377,20.576,245.623,56.979,248.362,56.931,1.873-.033,63.148-63.836,95.346-98.572,40.925-44.15,75.391-86.079,76.883-90.179,1.783-4.9-294.028-52.193-335.257-57.623C362.158,246.22,332.267,247.324,320.469,252.081Z" transform="translate(-0.142 -230.882)" fill="#949494" opacity="0.637"/>
        <path id="Path_338" data-name="Path 338" d="M319.957,252.156c-7.374-1.065-108.42,19.774-115.309,22.551,0,0-179.309,95.169-174.271,97.776,5.416,2.806,182.316,44.579,273.7,66.536,84.946,20.454,245.5,56.909,248.194,56.861,1.842-.033,63.178-63.9,95.2-98.437,40.907-44.119,75.319-86,76.786-90.034,1.755-4.823-294.8-52.282-335.349-57.625C361.782,246.211,331.866,247.354,319.957,252.156Z" transform="translate(-0.043 -230.88)" fill="#939393" opacity="0.643"/>
        <path id="Path_339" data-name="Path 339" d="M319.445,252.231c-7.251-1.048-108.166,20.129-114.94,22.859,0,0-178.906,94.721-173.952,97.284,5.326,2.759,182.56,44.573,273.528,66.412,84.517,20.333,245.377,56.838,248.027,56.791,1.811-.031,63.206-63.962,95.054-98.3,40.89-44.088,75.25-85.926,76.693-89.891,1.725-4.741-295.567-52.369-335.444-57.625C361.405,246.2,331.466,247.386,319.445,252.231Z" transform="translate(0.057 -230.878)" fill="#929292" opacity="0.649"/>
        <path id="Path_340" data-name="Path 340" d="M318.936,252.307c-7.13-1.03-107.914,20.484-114.573,23.167,0,0-178.5,94.273-173.635,96.793,5.237,2.713,182.806,44.567,273.356,66.286,84.086,20.215,245.254,56.769,247.86,56.723,1.779-.031,63.235-64.025,94.909-98.166,40.871-44.057,75.178-85.849,76.6-89.746,1.7-4.662-296.335-52.458-335.536-57.626C361.028,246.191,331.065,247.417,318.936,252.307Z" transform="translate(0.155 -230.876)" fill="#919191" opacity="0.655"/>
        <path id="Path_341" data-name="Path 341" d="M318.424,252.383c-7.006-1.013-107.661,20.838-114.2,23.476,0,0-178.1,93.823-173.316,96.3,5.145,2.666,183.05,44.56,273.184,66.161,83.657,20.093,245.131,56.7,247.691,56.653,1.75-.031,63.265-64.088,94.764-98.031,40.852-44.024,75.108-85.772,76.5-89.6,1.666-4.581-297.1-52.545-335.629-57.626C360.652,246.182,330.664,247.449,318.424,252.383Z" transform="translate(0.255 -230.874)" fill="#909090" opacity="0.661"/>
        <path id="Path_342" data-name="Path 342" d="M317.913,252.459c-6.883-.994-107.407,21.191-113.836,23.784,0,0-177.7,93.375-173,95.808,5.055,2.619,183.294,44.554,273.01,66.037,83.228,19.972,245.01,56.626,247.525,56.583,1.719-.03,63.294-64.151,94.618-97.9,40.835-43.991,75.038-85.694,76.407-89.457,1.638-4.5-297.872-52.633-335.721-57.628C360.275,246.173,330.263,247.48,317.913,252.459Z" transform="translate(0.354 -230.872)" fill="#8f8f8f" opacity="0.667"/>
        <path id="Path_343" data-name="Path 343" d="M317.4,252.535c-6.762-.977-107.155,21.546-113.469,24.092,0,0-177.3,92.927-172.678,95.316,4.965,2.571,183.539,44.548,272.837,65.911,82.8,19.852,244.887,56.558,247.357,56.514,1.689-.029,63.324-64.214,94.474-97.762,40.817-43.959,74.966-85.618,76.312-89.314,1.608-4.421-298.642-52.721-335.816-57.628C359.9,246.164,329.863,247.512,317.4,252.535Z" transform="translate(0.454 -230.87)" fill="#8e8e8e" opacity="0.673"/>
        <path id="Path_344" data-name="Path 344" d="M316.892,252.611c-6.637-.958-106.9,21.9-113.1,24.4,0,0-176.892,92.479-172.36,94.825,4.876,2.525,183.784,44.542,272.666,65.786,82.369,19.731,244.766,56.486,247.189,56.444,1.658-.03,63.353-64.277,94.329-97.626,40.8-43.928,74.9-85.54,76.217-89.169,1.579-4.34-299.412-52.809-335.909-57.629C359.522,246.155,329.463,247.544,316.892,252.611Z" transform="translate(0.553 -230.868)" fill="#8d8d8d" opacity="0.679"/>
        <path id="Path_345" data-name="Path 345" d="M316.38,252.689c-6.514-.943-106.648,22.254-112.733,24.707,0,0-176.491,92.031-172.041,94.333,4.785,2.478,184.029,44.536,272.493,65.662C386.038,457,548.743,493.807,551.123,493.765c1.625-.028,63.381-64.34,94.181-97.491,40.782-43.9,74.826-85.464,76.122-89.026,1.551-4.259-300.18-52.9-336-57.629C359.146,246.145,329.062,247.575,316.38,252.689Z" transform="translate(0.652 -230.867)" fill="#8c8c8c" opacity="0.685"/>
        <path id="Path_346" data-name="Path 346" d="M315.87,252.765c-6.391-.924-106.4,22.609-112.366,25.015,0,0-176.088,91.583-171.722,93.842,4.694,2.431,184.273,44.529,272.321,65.536,81.509,19.491,244.52,56.346,246.855,56.306,1.6-.028,63.411-64.4,94.036-97.356,40.764-43.864,74.755-85.388,76.027-88.882,1.52-4.18-300.95-52.985-336.094-57.631C358.769,246.138,328.661,247.607,315.87,252.765Z" transform="translate(0.751 -230.865)" fill="#8b8b8b" opacity="0.69"/>
        <path id="Path_347" data-name="Path 347" d="M315.359,252.842c-6.268-.907-106.142,22.962-112,25.323,0,0-175.685,91.135-171.4,93.35,4.6,2.385,184.517,44.523,272.148,65.411,81.078,19.37,244.4,56.276,246.687,56.236,1.565-.028,63.442-64.466,93.892-97.222,40.745-43.831,74.685-85.309,75.931-88.737,1.492-4.1-301.719-53.074-336.186-57.631C358.392,246.129,328.259,247.639,315.359,252.842Z" transform="translate(0.851 -230.864)" fill="#8a8a8a" opacity="0.696"/>
        <path id="Path_348" data-name="Path 348" d="M314.848,252.919c-6.146-.89-105.889,23.316-111.628,25.631,0,0-175.284,90.688-171.086,92.859,4.514,2.338,184.763,44.517,271.975,65.287,80.65,19.249,244.276,56.2,246.52,56.166,1.535-.026,63.472-64.528,93.745-97.087,40.728-43.8,74.615-85.232,75.838-88.592,1.462-4.019-302.488-53.162-336.281-57.633C358.016,246.12,327.86,247.672,314.848,252.919Z" transform="translate(0.949 -230.863)" fill="#898989" opacity="0.702"/>
        <path id="Path_349" data-name="Path 349" d="M314.338,253c-6.023-.871-105.637,23.671-111.261,25.939,0,0-174.881,90.239-170.767,92.367,4.424,2.291,185.007,44.511,271.8,65.163,80.219,19.127,244.153,56.135,246.352,56.1,1.5-.026,63.5-64.592,93.6-96.951,40.709-43.767,74.543-85.156,75.743-88.449,1.433-3.937-303.258-53.249-336.374-57.633C357.64,246.111,327.459,247.7,314.338,253Z" transform="translate(1.049 -230.862)" fill="#888" opacity="0.708"/>
        <path id="Path_350" data-name="Path 350" d="M313.826,253.072c-5.9-.854-105.383,24.025-110.893,26.247,0,0-174.478,89.792-170.448,91.876,4.333,2.244,185.251,44.5,271.63,65.036,79.79,19.008,244.03,56.065,246.186,56.027,1.473-.026,63.529-64.654,93.455-96.816,40.692-43.735,74.474-85.079,75.646-88.3,1.4-3.857-304.027-53.338-336.466-57.636C357.262,246.1,327.058,247.737,313.826,253.072Z" transform="translate(1.148 -230.861)" fill="#878787" opacity="0.714"/>
        <path id="Path_351" data-name="Path 351" d="M313.315,253.149c-5.777-.835-105.128,24.38-110.524,26.555,0,0-174.075,89.344-170.129,91.384,4.242,2.2,185.5,44.5,271.457,64.912,79.359,18.888,243.907,55.995,246.018,55.957,1.442-.025,63.559-64.716,93.308-96.681,40.675-43.7,74.4-85,75.553-88.16,1.374-3.778-304.8-53.428-336.559-57.637C356.886,246.1,326.657,247.769,313.315,253.149Z" transform="translate(1.247 -230.861)" fill="#868686" opacity="0.72"/>
        <path id="Path_352" data-name="Path 352" d="M312.805,253.226c-5.654-.818-104.876,24.735-110.159,26.863,0,0-173.672,88.9-169.81,90.893,4.153,2.151,185.741,44.492,271.286,64.788,78.93,18.767,243.784,55.923,245.85,55.887,1.412-.025,63.588-64.78,93.164-96.547,40.656-43.669,74.332-84.925,75.457-88.015,1.345-3.7-305.564-53.515-336.653-57.637C356.51,246.087,326.259,247.8,312.805,253.226Z" transform="translate(1.346 -230.86)" fill="#858585" opacity="0.726"/>
        <path id="Path_353" data-name="Path 353" d="M312.294,253.3c-5.531-.8-104.623,25.088-109.79,27.171,0,0-173.269,88.448-169.491,90.4,4.063,2.1,185.985,44.486,271.112,64.662,78.5,18.647,243.663,55.855,245.684,55.819,1.381-.025,63.62-64.842,93.019-96.412,40.638-43.637,74.26-84.847,75.362-87.871,1.316-3.618-306.334-53.605-336.746-57.639C356.134,246.079,325.858,247.835,312.294,253.3Z" transform="translate(1.445 -230.859)" fill="#848484" opacity="0.732"/>
        <path id="Path_354" data-name="Path 354" d="M311.783,253.381c-5.408-.782-104.369,25.443-109.421,27.479,0,0-172.867,88-169.172,89.91,3.973,2.058,186.229,44.48,270.939,64.537,78.071,18.525,243.54,55.783,245.515,55.749,1.35-.023,63.711-64.847,92.873-96.276,40.709-43.523,74.192-84.771,75.268-87.727,1.286-3.536-307.1-53.693-336.839-57.639C355.757,246.07,325.457,247.867,311.783,253.381Z" transform="translate(1.544 -230.859)" fill="#838383" opacity="0.738"/>
        <path id="Path_355" data-name="Path 355" d="M311.273,253.458c-5.285-.764-104.117,25.8-109.054,27.787,0,0-172.464,87.55-168.854,89.418,3.881,2.011,186.474,44.473,270.767,64.413,77.642,18.4,243.417,55.713,245.349,55.679,1.319-.023,63.739-64.911,92.727-96.141,40.691-43.492,74.12-84.694,75.172-87.583,1.257-3.456-307.872-53.783-336.931-57.64C355.381,246.064,325.056,247.9,311.273,253.458Z" transform="translate(1.644 -230.858)" fill="#828282" opacity="0.744"/>
        <path id="Path_356" data-name="Path 356" d="M310.762,253.536c-5.163-.747-103.864,26.152-108.686,28.095,0,0-172.062,87.1-168.536,88.927,3.792,1.965,186.719,44.467,270.6,64.287,77.211,18.286,243.294,55.643,245.181,55.611,1.288-.023,63.767-64.974,92.582-96.006,40.67-43.461,74.049-84.617,75.077-87.44,1.227-3.375-308.642-53.87-337.024-57.64C355.005,246.056,324.655,247.933,310.762,253.536Z" transform="translate(1.742 -230.858)" fill="#818181" opacity="0.75"/>
        <path id="Path_357" data-name="Path 357" d="M310.251,253.613c-5.04-.729-103.61,26.506-108.317,28.4,0,0-171.66,86.654-168.217,88.435,3.7,1.918,186.964,44.461,270.423,64.162,76.782,18.165,243.171,55.573,245.013,55.54,1.258-.022,63.8-65.036,92.436-95.87,40.653-43.43,73.98-84.54,74.982-87.3,1.2-3.3-309.41-53.96-337.118-57.642C354.628,246.048,324.256,247.967,310.251,253.613Z" transform="translate(1.841 -230.858)" fill="gray" opacity="0.756"/>
        <path id="Path_358" data-name="Path 358" d="M309.741,253.691c-4.917-.711-103.358,26.86-107.95,28.71,0,0-171.257,86.206-167.9,87.944C37.5,372.216,221.1,414.8,304.141,434.383c76.352,18.043,243.05,55.5,244.847,55.47,1.227-.022,63.826-65.1,92.291-95.736,40.635-43.4,73.909-84.463,74.887-87.15,1.17-3.215-310.179-54.049-337.211-57.642C354.252,246.04,323.855,248,309.741,253.691Z" transform="translate(1.94 -230.858)" fill="#7f7f7f" opacity="0.762"/>
        <path id="Path_359" data-name="Path 359" d="M309.229,253.769c-4.794-.694-103.1,27.214-107.583,29.019,0,0-170.852,85.758-167.578,87.452,3.52,1.824,187.452,44.447,270.076,63.912,75.923,17.923,242.927,55.433,244.679,55.4,1.2-.022,63.854-65.164,92.146-95.6,40.616-43.364,73.837-84.385,74.791-87.006,1.142-3.134-310.947-54.138-337.3-57.644C353.875,246.033,323.454,248.034,309.229,253.769Z" transform="translate(2.04 -230.858)" fill="#7e7e7e" opacity="0.768"/>
        <path id="Path_360" data-name="Path 360" d="M308.719,253.847c-4.671-.675-102.851,27.569-107.214,29.326,0,0-170.451,85.31-167.261,86.961,3.431,1.778,187.7,44.441,269.9,63.788,75.494,17.8,242.8,55.362,244.511,55.332,1.167-.02,63.884-65.228,92-95.466,40.6-43.333,73.769-84.309,74.7-86.863,1.111-3.053-311.717-54.226-337.4-57.643C353.5,246.026,323.054,248.066,308.719,253.847Z" transform="translate(2.138 -230.858)" fill="#7d7d7d" opacity="0.774"/>
        <path id="Path_361" data-name="Path 361" d="M308.209,253.924c-4.548-.658-102.6,27.924-106.847,29.636,0,0-170.048,84.861-166.942,86.468,3.341,1.731,187.942,44.435,269.732,63.663,75.063,17.681,242.681,55.292,244.344,55.262,1.136-.02,63.912-65.292,91.854-95.33,40.58-43.3,73.7-84.232,74.6-86.718,1.081-2.974-312.487-54.316-337.489-57.645C353.123,246.018,322.654,248.1,308.209,253.924Z" transform="translate(2.237 -230.858)" fill="#7c7c7c" opacity="0.78"/>
        <path id="Path_362" data-name="Path 362" d="M307.7,254c-4.425-.639-102.346,28.278-106.478,29.944,0,0-169.645,84.413-166.623,85.976,3.249,1.685,188.186,44.428,269.56,63.537,74.634,17.563,242.56,55.222,244.176,55.194,1.1-.02,63.94-65.355,91.709-95.2,40.562-43.271,73.626-84.155,74.506-86.575,1.053-2.893-313.255-54.405-337.583-57.645C352.747,246.011,322.254,248.134,307.7,254Z" transform="translate(2.337 -230.858)" fill="#7b7b7b" opacity="0.786"/>
        <path id="Path_363" data-name="Path 363" d="M307.186,254.081c-4.3-.622-102.092,28.631-106.11,30.252,0,0-169.244,83.965-166.3,85.484,3.159,1.638,188.43,44.422,269.385,63.413,74.2,17.441,242.439,55.152,244.01,55.124,1.075-.019,63.969-65.419,91.563-95.061,40.543-43.238,73.557-84.077,74.413-86.429,1.023-2.814-314.024-54.5-337.676-57.647C352.371,246,321.853,248.167,307.186,254.081Z" transform="translate(2.436 -230.859)" fill="#7a7a7a" opacity="0.792"/>
        <path id="Path_364" data-name="Path 364" d="M306.677,254.159c-4.18-.6-101.84,28.986-105.743,30.56,0,0-168.841,83.517-165.987,84.995,3.07,1.59,188.676,44.414,269.214,63.287C377.937,450.32,546.478,488.08,548,488.054c1.044-.019,64-65.481,91.418-94.926,40.524-43.206,73.486-84,74.316-86.286,1-2.731-314.792-54.584-337.768-57.647C351.994,246,321.453,248.2,306.677,254.159Z" transform="translate(2.534 -230.859)" fill="#797979" opacity="0.798"/>
        <path id="Path_365" data-name="Path 365" d="M306.166,254.237c-4.057-.586-101.587,29.34-105.374,30.868,0,0-168.438,83.069-165.668,84.5,2.979,1.543,188.92,44.408,269.042,63.161,73.344,17.2,242.193,55.01,243.674,54.985,1.013-.019,64.027-65.545,91.272-94.791,40.507-43.175,73.416-83.923,74.223-86.141.964-2.652-315.562-54.674-337.861-57.648C351.618,245.99,321.052,248.235,306.166,254.237Z" transform="translate(2.633 -230.86)" fill="#787878" opacity="0.804"/>
        <path id="Path_366" data-name="Path 366" d="M305.655,254.316c-3.932-.568-101.333,29.7-105.007,31.176,0,0-168.034,82.621-165.348,84.011,2.888,1.5,189.165,44.4,268.869,63.036,72.915,17.079,242.07,54.94,243.507,54.915.981-.017,64.055-65.609,91.126-94.655,40.488-43.144,73.344-83.847,74.128-86,.935-2.571-316.332-54.763-337.956-57.65C351.242,245.983,320.652,248.27,305.655,254.316Z" transform="translate(2.732 -230.861)" fill="#777" opacity="0.81"/>
        <path id="Path_367" data-name="Path 367" d="M305.145,254.394c-3.811-.551-101.081,30.05-104.64,31.484,0,0-167.633,82.173-165.029,83.52,2.8,1.45,189.409,44.4,268.7,62.912,72.484,16.959,241.947,54.869,243.339,54.845.95-.017,64.085-65.673,90.981-94.52,40.47-43.112,73.274-83.77,74.032-85.853.907-2.492-317.1-54.853-338.048-57.651C350.866,245.978,320.252,248.3,305.145,254.394Z" transform="translate(2.831 -230.861)" fill="#767676" opacity="0.815"/>
        <path id="Path_368" data-name="Path 368" d="M304.635,254.473c-3.688-.534-100.827,30.4-104.271,31.792,0,0-167.23,81.725-164.711,83.028,2.71,1.4,189.655,44.389,268.524,62.787,72.056,16.838,241.826,54.8,243.173,54.775.921-.017,64.113-65.736,90.835-94.386,40.453-43.078,73.2-83.691,73.938-85.708.877-2.411-317.869-54.942-338.141-57.651C350.489,245.971,319.852,248.338,304.635,254.473Z" transform="translate(2.929 -230.862)" fill="#757575" opacity="0.821"/>
        <path id="Path_369" data-name="Path 369" d="M304.123,254.552c-3.564-.515-100.572,30.758-103.9,32.1,0,0-166.827,81.277-164.393,82.537,2.618,1.356,189.9,44.383,268.351,62.661,71.627,16.718,241.7,54.728,243,54.707.89-.016,64.142-65.8,90.691-94.251,40.434-43.047,73.133-83.615,73.842-85.564.849-2.33-318.637-55.032-338.233-57.653C350.113,245.964,319.451,248.372,304.123,254.552Z" transform="translate(3.028 -230.863)" fill="#747474" opacity="0.827"/>
        <path id="Path_370" data-name="Path 370" d="M303.614,254.63c-3.442-.5-100.32,31.112-103.535,32.408,0,0-166.424,80.829-164.074,82.045,2.528,1.31,190.143,44.377,268.178,62.537,71.2,16.6,241.58,54.659,242.837,54.637.86-.016,64.172-65.862,90.546-94.116,40.414-43.016,73.063-83.539,73.747-85.419.818-2.251-319.407-55.122-338.326-57.654C349.738,245.957,319.05,248.407,303.614,254.63Z" transform="translate(3.127 -230.864)" fill="#737373" opacity="0.833"/>
        <path id="Path_371" data-name="Path 371" d="M303.1,254.709c-3.319-.479-100.067,31.467-103.167,32.716,0,0-166.023,80.381-163.755,81.554,2.437,1.263,190.387,44.371,268.006,62.412,70.767,16.475,241.457,54.587,242.669,54.567.829-.016,64.2-65.926,90.4-93.98,40.4-42.985,72.993-83.461,73.654-85.276.789-2.17-320.177-55.212-338.421-57.654C349.36,245.952,318.651,248.441,303.1,254.709Z" transform="translate(3.226 -230.865)" fill="#727272" opacity="0.839"/>
        <path id="Path_372" data-name="Path 372" d="M302.592,254.788c-3.195-.462-99.813,31.821-102.8,33.024,0,0-165.62,79.933-163.437,81.062,2.347,1.216,190.633,44.365,267.835,62.286,70.336,16.357,241.334,54.519,242.5,54.5.8-.014,64.228-65.99,90.253-93.845,40.378-42.954,72.921-83.385,73.557-85.131.761-2.091-320.944-55.3-338.513-57.656C348.985,245.945,318.251,248.475,302.592,254.788Z" transform="translate(3.324 -230.866)" fill="#717171" opacity="0.845"/>
        <path id="Path_373" data-name="Path 373" d="M302.083,254.867c-3.074-.443-99.561,32.174-102.431,33.332,0,0-165.217,79.485-163.119,80.571,2.257,1.17,190.877,44.358,267.66,62.162C374.1,447.168,545.407,485.379,546.53,485.36c.767-.014,64.257-66.054,90.109-93.711C677,348.729,709.49,308.342,710.1,306.662c.731-2.01-321.714-55.391-338.606-57.656C348.609,245.939,317.85,248.51,302.083,254.867Z" transform="translate(3.423 -230.867)" fill="#707070" opacity="0.851"/>
        <path id="Path_374" data-name="Path 374" d="M301.572,254.946c-2.951-.426-99.308,32.529-102.064,33.64,0,0-164.814,79.037-162.8,80.079,2.167,1.123,191.121,44.352,267.488,62.038,69.477,16.115,241.09,54.377,242.168,54.357.737-.012,64.285-66.116,89.963-93.574,40.342-42.889,72.781-83.229,73.367-84.842.7-1.929-322.482-55.483-338.7-57.657C348.234,245.932,317.45,248.544,301.572,254.946Z" transform="translate(3.522 -230.869)" fill="#6f6f6f" opacity="0.857"/>
        <path id="Path_375" data-name="Path 375" d="M301.061,255.025c-2.826-.408-99.054,32.884-101.7,33.948,0,0-164.411,78.589-162.479,79.588,2.077,1.075,191.366,44.346,267.315,61.912,69.048,15.995,240.967,54.307,242,54.288.706-.011,64.315-66.18,89.818-93.439,40.324-42.857,72.71-83.153,73.273-84.7.672-1.848-323.252-55.572-338.793-57.657C347.856,245.927,317.051,248.579,301.061,255.025Z" transform="translate(3.621 -230.87)" fill="#6e6e6e" opacity="0.863"/>
        <path id="Path_376" data-name="Path 376" d="M300.552,255.1c-2.7-.39-98.8,33.238-101.328,34.256,0,0-164.008,78.141-162.162,79.1,1.986,1.028,191.611,44.34,267.144,61.787,68.619,15.873,240.844,54.237,241.832,54.218.675-.011,64.344-66.242,89.673-93.3,40.3-42.826,72.639-83.077,73.176-84.554.644-1.769-324.019-55.663-338.884-57.659C347.481,245.921,316.651,248.614,300.552,255.1Z" transform="translate(3.719 -230.872)" fill="#6d6d6d" opacity="0.869"/>
        <path id="Path_377" data-name="Path 377" d="M300.041,255.184c-2.582-.373-98.549,33.593-100.96,34.564,0,0-163.605,77.693-161.843,78.6,1.9.981,191.856,44.333,266.971,61.663,68.188,15.752,240.722,54.165,241.666,54.148.644-.011,64.371-66.306,89.526-93.168,40.288-42.8,72.569-83,73.083-84.411.614-1.688-324.789-55.754-338.978-57.659C347.106,245.915,316.25,248.649,300.041,255.184Z" transform="translate(3.818 -230.873)" fill="#6c6c6c" opacity="0.875"/>
        <path id="Path_378" data-name="Path 378" d="M299.53,255.263c-2.458-.355-98.3,33.946-100.591,34.872,0,0-163.2,77.245-161.524,78.113,1.806.935,192.1,44.327,266.8,61.537,67.76,15.634,240.6,54.1,241.5,54.08.613-.009,64.4-66.37,89.381-93.033,40.268-42.762,72.5-82.923,72.988-84.267.585-1.608-325.559-55.844-339.071-57.661C346.728,245.909,315.85,248.684,299.53,255.263Z" transform="translate(3.917 -230.875)" fill="#6b6b6b" opacity="0.881"/>
        <path id="Path_379" data-name="Path 379" d="M299.019,255.343c-2.335-.338-98.042,34.3-100.222,35.18,0,0-162.8,76.8-161.205,77.622,1.714.888,192.344,44.321,266.624,61.412,67.329,15.513,240.477,54.026,241.331,54.01.583-.009,64.43-66.433,89.236-92.9,40.249-42.73,72.428-82.845,72.892-84.122.555-1.526-326.326-55.934-339.163-57.661C346.353,245.9,315.449,248.72,299.019,255.343Z" transform="translate(4.016 -230.876)" fill="#6a6a6a" opacity="0.887"/>
        <path id="Path_380" data-name="Path 380" d="M298.51,255.422c-2.213-.319-97.79,34.655-99.855,35.489,0,0-162.4,76.346-160.888,77.129,1.625.841,192.59,44.315,266.453,61.288,66.9,15.391,240.356,53.955,241.163,53.94.552-.009,64.458-66.5,89.09-92.764,40.232-42.7,72.358-82.769,72.8-83.977.526-1.447-327.1-56.026-339.258-57.662C345.978,245.9,315.051,248.754,298.51,255.422Z" transform="translate(4.114 -230.878)" fill="#696969" opacity="0.893"/>
        <path id="Path_381" data-name="Path 381" d="M298,255.5c-2.089-.3-97.536,35.01-99.488,35.8,0,0-161.994,75.9-160.568,76.637,1.535.795,192.834,44.309,266.281,61.162,66.469,15.271,240.233,53.885,241,53.871.523-.008,64.487-66.561,88.945-92.629,40.213-42.668,72.286-82.691,72.7-83.834.5-1.366-327.864-56.116-339.35-57.662C345.6,245.892,314.65,248.789,298,255.5Z" transform="translate(4.212 -230.88)" fill="#686868" opacity="0.899"/>
        <path id="Path_382" data-name="Path 382" d="M297.488,255.583c-1.966-.285-97.283,35.363-99.12,36.1,0,0-161.593,75.45-160.249,76.146,1.445.748,193.078,44.3,266.108,61.037,66.04,15.15,240.11,53.815,240.829,53.8.49-.008,64.515-66.623,88.8-92.493,40.194-42.637,72.215-82.615,72.607-83.69.468-1.286-328.633-56.208-339.443-57.664C345.225,245.887,314.25,248.825,297.488,255.583Z" transform="translate(4.311 -230.882)" fill="#676767" opacity="0.905"/>
        <path id="Path_383" data-name="Path 383" d="M296.979,255.663c-1.845-.268-97.031,35.716-98.752,36.412,0,0-161.19,75-159.93,75.654,1.353.7,193.322,44.3,265.935,60.913,65.609,15.03,239.987,53.744,240.661,53.732.461-.008,64.543-66.687,88.653-92.358,40.177-42.6,72.146-82.538,72.513-83.546.439-1.205-329.4-56.3-339.536-57.665C344.85,245.882,313.849,248.86,296.979,255.663Z" transform="translate(4.41 -230.884)" fill="#666" opacity="0.911"/>
        <path id="Path_384" data-name="Path 384" d="M296.469,255.743c-1.72-.249-96.777,36.071-98.384,36.72,0,0-160.787,74.554-159.613,75.162,1.265.655,193.568,44.288,265.763,60.787,65.181,14.911,239.866,53.676,240.495,53.663.429-.006,64.573-66.751,88.508-92.224,40.159-42.571,72.075-82.459,72.417-83.4.409-1.125-330.171-56.39-339.628-57.667C344.475,245.877,313.451,248.9,296.469,255.743Z" transform="translate(4.508 -230.886)" fill="#656565" opacity="0.917"/>
        <path id="Path_385" data-name="Path 385" d="M295.958,255.823c-1.6-.232-96.523,36.426-98.015,37.027,0,0-160.386,74.106-159.294,74.671,1.174.608,193.812,44.282,265.59,60.663,64.752,14.789,239.743,53.6,240.326,53.593.4-.006,64.6-66.814,88.364-92.089,40.138-42.54,72-82.383,72.322-83.257.38-1.044-330.939-56.48-339.723-57.667C344.1,245.871,313.051,248.931,295.958,255.823Z" transform="translate(4.607 -230.888)" fill="#646464" opacity="0.923"/>
        <path id="Path_386" data-name="Path 386" d="M295.449,255.9c-1.475-.213-96.272,36.78-97.648,37.336,0,0-159.983,73.658-158.975,74.179,1.083.562,194.056,44.276,265.417,60.538,64.321,14.668,239.62,53.534,240.159,53.523.369-.006,64.631-66.878,88.217-91.954,40.121-42.509,71.935-82.307,72.227-83.112.352-.964-331.708-56.573-339.815-57.668C343.722,245.866,312.65,248.967,295.449,255.9Z" transform="translate(4.705 -230.891)" fill="#636363" opacity="0.929"/>
        <path id="Path_387" data-name="Path 387" d="M294.938,255.983c-1.352-.2-96.018,37.135-97.279,37.643,0,0-159.58,73.21-158.656,73.688.992.515,194.3,44.27,265.245,60.414,63.892,14.547,239.5,53.462,239.991,53.453.338,0,64.66-66.942,88.073-91.818,40.1-42.476,71.863-82.229,72.132-82.968.322-.885-332.476-56.665-339.908-57.67C343.347,245.861,312.25,249,294.938,255.983Z" transform="translate(4.804 -230.893)" fill="#626262" opacity="0.935"/>
        <path id="Path_388" data-name="Path 388" d="M294.428,256.063c-1.229-.179-95.763,37.488-96.912,37.951,0,0-159.176,72.762-158.337,73.2.9.468,194.548,44.264,265.074,60.288,63.461,14.427,239.375,53.392,239.824,53.385.306,0,64.688-67.006,87.926-91.683,40.084-42.445,71.792-82.153,72.038-82.825.292-.8-333.246-56.755-340-57.67C342.972,245.856,311.85,249.038,294.428,256.063Z" transform="translate(4.902 -230.895)" fill="#616161" opacity="0.94"/>
        <path id="Path_389" data-name="Path 389" d="M293.918,256.143c-1.106-.16-95.511,37.843-96.545,38.259,0,0-158.774,72.314-158.018,72.7.812.422,194.792,44.257,264.9,60.163,63.033,14.307,239.253,53.322,239.658,53.315.275,0,64.716-67.068,87.78-91.549,40.067-42.412,71.723-82.075,71.943-82.678.263-.723-334.014-56.849-340.095-57.671C342.595,245.851,311.452,249.074,293.918,256.143Z" transform="translate(5 -230.897)" fill="#606060" opacity="0.946"/>
        <path id="Path_390" data-name="Path 390" d="M293.408,256.223c-.983-.143-95.257,38.2-96.177,38.568,0,0-158.371,71.866-157.7,72.213.722.375,195.036,44.251,264.727,60.039,62.6,14.186,239.13,53.251,239.49,53.245.246,0,64.746-67.132,87.636-91.414,40.048-42.381,71.652-82,71.848-82.535.233-.642-334.783-56.939-340.188-57.671C342.219,245.845,311.051,249.109,293.408,256.223Z" transform="translate(5.099 -230.9)" fill="#5f5f5f" opacity="0.952"/>
        <path id="Path_391" data-name="Path 391" d="M292.9,256.3c-.86-.124-95,38.552-95.808,38.875,0,0-157.969,71.419-157.381,71.723.632.327,195.281,44.243,264.554,59.911C366.436,440.88,543.27,480,543.584,479.99c.215,0,64.775-67.2,87.489-91.279,40.031-42.35,71.582-81.921,71.753-82.391.205-.563-335.551-57.032-340.28-57.673C341.844,245.842,310.651,249.145,292.9,256.3Z" transform="translate(5.197 -230.902)" fill="#5e5e5e" opacity="0.958"/>
        <path id="Path_392" data-name="Path 392" d="M292.389,256.384c-.737-.107-94.752,38.906-95.441,39.183,0,0-157.566,70.971-157.063,71.232.543.28,195.526,44.237,264.383,59.787,61.742,13.945,238.885,53.111,239.154,53.106.185,0,64.8-67.259,87.345-91.143,40.011-42.318,71.512-81.845,71.658-82.248.176-.482-336.319-57.124-340.373-57.673C341.468,245.836,310.251,249.181,292.389,256.384Z" transform="translate(5.295 -230.905)" fill="#5d5d5d" opacity="0.964"/>
        <path id="Path_393" data-name="Path 393" d="M291.878,256.464c-.614-.089-94.5,39.26-95.072,39.491,0,0-157.164,70.523-156.744,70.74.451.233,195.771,44.231,264.21,59.662,61.313,13.823,238.762,53.041,238.987,53.036.152,0,64.831-67.323,87.2-91.008,39.992-42.286,71.44-81.767,71.562-82.1.146-.4-337.088-57.216-340.465-57.674C341.092,245.831,309.853,249.218,291.878,256.464Z" transform="translate(5.394 -230.908)" fill="#5c5c5c" opacity="0.97"/>
        <path id="Path_394" data-name="Path 394" d="M291.367,256.545c-.492-.072-94.245,39.614-94.7,39.8,0,0-156.761,70.075-156.425,70.249.361.187,196.015,44.225,264.036,59.536C365.159,439.835,542.915,479.1,543.1,479.1c.123,0,64.861-67.387,87.052-90.873,39.975-42.255,71.37-81.691,71.468-81.96.117-.32-337.856-57.308-340.56-57.675C340.717,245.826,309.453,249.253,291.367,256.545Z" transform="translate(5.492 -230.91)" fill="#5b5b5b" opacity="0.976"/>
        <path id="Path_395" data-name="Path 395" d="M290.858,256.626c-.369-.053-93.993,39.969-94.338,40.107,0,0-156.357,69.627-156.105,69.757.271.14,196.259,44.218,263.864,59.412,60.454,13.584,238.518,52.9,238.653,52.9.092,0,64.889-67.449,86.908-90.739,39.956-42.223,71.3-81.613,71.373-81.814.087-.241-338.626-57.4-340.653-57.676C340.34,245.821,309.052,249.29,290.858,256.626Z" transform="translate(5.59 -230.913)" fill="#5a5a5a" opacity="0.982"/>
        <path id="Path_396" data-name="Path 396" d="M290.348,256.706c-.246-.036-93.739,40.324-93.969,40.415,0,0-155.956,69.179-155.788,69.266S237.1,410.6,304.284,425.675C364.308,439.137,542.678,478.5,542.768,478.5c.062,0,64.918-67.513,86.763-90.6,39.938-42.192,71.229-81.535,71.277-81.671.059-.16-339.395-57.493-340.745-57.676C339.966,245.818,308.653,249.325,290.348,256.706Z" transform="translate(5.688 -230.916)" fill="#595959" opacity="0.988"/>
        <path id="Path_397" data-name="Path 397" d="M289.838,256.787c-.123-.019-93.486,40.678-93.6,40.723,0,0-155.553,68.731-155.469,68.774s196.749,44.206,263.52,59.162c59.594,13.343,238.272,52.761,238.317,52.759s64.948-67.577,86.617-90.468c39.921-42.159,71.159-81.459,71.184-81.526s-340.163-57.586-340.838-57.678C339.59,245.813,308.253,249.363,289.838,256.787Z" transform="translate(5.787 -230.919)" fill="#585858" opacity="0.994"/>
        <path id="Path_398" data-name="Path 398" d="M542.441,477.932s64.976-67.64,86.472-90.333C668.815,345.471,700,306.217,700,306.217L359.069,248.539c-19.83-2.873-51.215.884-69.74,8.353L40.945,366.206s196.993,44.2,263.347,59.037C363.457,438.464,542.441,477.932,542.441,477.932Z" transform="translate(5.885 -230.946)" fill="#575757"/>
      </g>
      <g id="_2" data-name="2" transform="translate(47.631 317.822)">
        <path id="Path_407" data-name="Path 407" d="M520.911,325.2l131.708-122.15L340.565,190.537,121.094,246.862Z" transform="translate(-52.285 -190.537)" fill="#106a8f"/>
        <path id="Path_408" data-name="Path 408" d="M520.911,325.2l131.708-122.15L340.565,190.537,121.094,246.862Z" transform="translate(-52.285 -190.537)" fill="url(#radial-gradient)" style="mix-blend-mode: color-burn;isolation: isolate"/>
        <path id="Path_409" data-name="Path 409" d="M153.4,220.415l389.708,46.116,29.422,123.732L84.594,309.24Z" transform="translate(-84.594 -164.091)" fill="#106a8f"/>
        <path id="Path_410" data-name="Path 410" d="M153.4,220.415l389.708,46.116,29.422,123.732L84.594,309.24Z" transform="translate(-84.594 -164.091)" fill="url(#linear-gradient)" style="mix-blend-mode: color-burn;isolation: isolate"/>
        <path id="Path_411" data-name="Path 411" d="M526.442,274.648,357.27,411.084,327.817,287.1l141.817-89.927Z" transform="translate(130.7 -184.662)" fill="#106a8f"/>
        <path id="Path_412" data-name="Path 412" d="M526.442,274.648,357.27,411.084,327.817,287.1l141.817-89.927Z" transform="translate(130.7 -184.662)" fill="url(#linear-gradient-2)" style="mix-blend-mode: color-burn;isolation: isolate"/>
        <g id="Group_84" data-name="Group 84" transform="translate(458.517 12.513)" opacity="0.5">
          <path id="Path_413" data-name="Path 413" d="M327.817,287.1s2.172-1.476,5.974-4.055c3.827-2.537,9.247-6.24,15.837-10.544s14.239-9.394,22.524-14.7,17.119-10.975,25.955-16.639l26.119-16.382c8.329-5.239,16.2-9.971,22.9-14.1s12.365-7.448,16.292-9.829c3.957-2.336,6.215-3.674,6.215-3.674s-2.172,1.474-5.972,4.057c-3.831,2.537-9.247,6.244-15.837,10.546s-14.237,9.4-22.526,14.7-17.119,10.974-25.957,16.637l-26.117,16.38c-8.334,5.231-16.2,9.969-22.9,14.1s-12.365,7.448-16.294,9.829C330.075,285.765,327.817,287.1,327.817,287.1Z" transform="translate(-327.817 -197.175)" fill="#fff"/>
        </g>
        <g id="Group_85" data-name="Group 85" transform="translate(458.517 102.441)" opacity="0.5">
          <path id="Path_414" data-name="Path 414" d="M357.271,368.86s-.541-1.919-1.484-5.277c-.9-3.369-2.268-8.159-3.75-13.946s-3.293-12.519-5.062-19.775-3.663-14.989-5.556-22.726c-1.791-7.761-3.582-15.523-5.261-22.8s-3.084-14.1-4.374-19.939-2.206-10.73-2.92-14.143l-1.048-5.378s.541,1.917,1.486,5.275c.9,3.367,2.27,8.159,3.75,13.946s3.3,12.519,5.06,19.775,3.665,14.989,5.556,22.728c1.791,7.759,3.578,15.521,5.258,22.8s3.084,14.1,4.374,19.938,2.209,10.73,2.924,14.142C356.888,366.9,357.271,368.86,357.271,368.86Z" transform="translate(-327.817 -244.878)" fill="#fff"/>
        </g>
        <g id="Group_86" data-name="Group 86" transform="translate(68.809 56.324)" opacity="0.5">
          <path id="Path_415" data-name="Path 415" d="M121.094,220.415l60.966,6.562c18.28,2.059,39.607,4.462,62.458,7.034,22.839,2.656,47.2,5.486,71.565,8.317,24.351,2.931,48.7,5.865,71.531,8.615,22.82,2.83,44.117,5.473,62.373,7.735,36.489,4.711,60.816,7.854,60.816,7.854s-24.387-2.626-60.968-6.559l-62.456-7.039c-22.841-2.652-47.2-5.484-71.565-8.315L244.282,236l-62.371-7.735C145.42,223.554,121.094,220.415,121.094,220.415Z" transform="translate(-121.094 -220.415)" fill="#fff"/>
        </g>
      </g>
      <g id="_3" data-name="3" transform="translate(134.106 223.151)">
        <path id="Path_416" data-name="Path 416" d="M433.331,190.27l101.314-46.488-215.571-3.463L169.037,174.627Z" transform="translate(-96.323 -140.319)" fill="#f5d319"/>
        <path id="Path_417" data-name="Path 417" d="M433.331,190.27l101.314-46.488-215.571-3.463L169.037,174.627Z" transform="translate(-96.323 -140.319)" fill="url(#radial-gradient-2)" style="mix-blend-mode: color-burn;isolation: isolate"/>
        <path id="Path_418" data-name="Path 418" d="M203.179,158.518l264.2,15.016,27.959,117.611L130.466,252.4Z" transform="translate(-130.466 -124.209)" fill="#f5d319"/>
        <path id="Path_419" data-name="Path 419" d="M203.179,158.518l264.2,15.016,27.959,117.611L130.466,252.4Z" transform="translate(-130.466 -124.209)" fill="url(#linear-gradient-3)" style="mix-blend-mode: color-burn;isolation: isolate"/>
        <path id="Path_420" data-name="Path 420" d="M471.211,224.827l-134.071,80.8L309.182,188.017l101.412-45.861Z" transform="translate(27.728 -138.692)" fill="#f5d319"/>
        <path id="Path_421" data-name="Path 421" d="M471.211,224.827l-134.071,80.8L309.182,188.017l101.412-45.861Z" transform="translate(27.728 -138.692)" fill="url(#linear-gradient-4)" style="mix-blend-mode: color-burn;isolation: isolate"/>
        <g id="Group_87" data-name="Group 87" transform="translate(336.909 3.464)" opacity="0.5">
          <path id="Path_422" data-name="Path 422" d="M309.181,188.016l4.266-2.175c2.735-1.338,6.6-3.335,11.313-5.58s10.172-4.939,16.1-7.667l18.554-8.561c6.361-2.818,12.721-5.639,18.682-8.282s11.6-4.96,16.388-7.024,8.851-3.636,11.664-4.807c2.832-1.122,4.449-1.764,4.449-1.764l-4.264,2.175c-2.734,1.338-6.6,3.339-11.313,5.582s-10.171,4.945-16.1,7.667-12.239,5.644-18.556,8.557c-6.359,2.82-12.719,5.639-18.682,8.282s-11.594,4.958-16.388,7.022-8.849,3.638-11.662,4.809Z" transform="translate(-309.181 -142.156)" fill="#fff"/>
        </g>
        <g id="Group_88" data-name="Group 88" transform="translate(336.909 49.324)" opacity="0.4">
          <path id="Path_423" data-name="Path 423" d="M337.14,284.095l-1.42-5c-.854-3.2-2.168-7.737-3.578-13.226S329,253.994,327.32,247.112s-3.484-14.218-5.282-21.555c-1.7-7.363-3.393-14.727-4.986-21.629s-2.916-13.383-4.134-18.918-2.079-10.184-2.752-13.422c-.626-3.248-.984-5.105-.984-5.105s.517,1.819,1.421,5c.856,3.2,2.172,7.735,3.58,13.224s3.146,11.873,4.82,18.756,3.484,14.218,5.282,21.559l4.984,21.627c1.593,6.9,2.916,13.383,4.134,18.918s2.079,10.184,2.752,13.421C336.784,282.238,337.14,284.095,337.14,284.095Z" transform="translate(-309.181 -166.483)" fill="#fff"/>
        </g>
        <g id="Group_89" data-name="Group 89" transform="translate(72.714 34.309)" opacity="0.5">
          <path id="Path_424" data-name="Path 424" d="M169.037,158.518l11.364.42,29.953,1.278c12.391.6,26.847,1.3,42.331,2.053,15.483.831,32,1.717,48.515,2.6,16.51.992,33.019,1.981,48.5,2.909l42.294,2.758,29.9,2.125,11.339.871-11.364-.42c-7.23-.309-17.559-.748-29.952-1.276-12.389-.6-26.847-1.3-42.333-2.053l-48.513-2.605-48.5-2.911-42.29-2.756c-12.376-.88-22.688-1.612-29.906-2.126Z" transform="translate(-169.037 -158.518)" fill="#fff"/>
        </g>
      </g>
      <g id="_4" data-name="4" transform="translate(225.563 117.105)">
        <path id="Path_425" data-name="Path 425" d="M355.488,102.793l53.685-18.728-112.15,1.62-76.965,14.571Z" transform="translate(-142.618 -84.066)" fill="#f58c11"/>
        <path id="Path_426" data-name="Path 426" d="M355.488,102.793l53.685-18.728-112.15,1.62-76.965,14.571Z" transform="translate(-142.618 -84.066)" fill="url(#radial-gradient-3)" style="mix-blend-mode: color-burn;isolation: isolate"/>
        <path id="Path_427" data-name="Path 427" d="M256.419,93.091l134.707-.931,26.5,111.473L178.979,193.075Z" transform="translate(-178.979 -76.901)" fill="#f58c11"/>
        <path id="Path_428" data-name="Path 428" d="M256.419,93.091l134.707-.931,26.5,111.473L178.979,193.075Z" transform="translate(-178.979 -76.901)" fill="url(#linear-gradient-5)" style="mix-blend-mode: color-burn;isolation: isolate"/>
        <path id="Path_429" data-name="Path 429" d="M345.922,84.066l64.658,88.177L318.011,210.8l-26.5-111.473Z" transform="translate(-79.367 -84.066)" fill="#f58c11"/>
        <path id="Path_430" data-name="Path 430" d="M345.922,84.066l64.658,88.177L318.011,210.8l-26.5-111.473Z" transform="translate(-79.367 -84.066)" fill="url(#linear-gradient-6)" style="mix-blend-mode: color-burn;isolation: isolate"/>
        <g id="Group_90" data-name="Group 90" transform="translate(212.147 0.001)" opacity="0.4">
          <path id="Path_431" data-name="Path 431" d="M291.514,99.325s.824-.336,2.279-.871c1.461-.507,3.525-1.322,6.048-2.138s5.446-1.834,8.615-2.8c3.16-.988,6.557-1.959,9.95-2.935,3.407-.931,6.811-1.87,10.025-2.669,3.207-.828,6.236-1.472,8.813-2.091s4.766-.992,6.28-1.318c1.519-.3,2.4-.439,2.4-.439s-.824.337-2.275.871c-1.465.509-3.527,1.325-6.05,2.138s-5.444,1.84-8.615,2.8c-3.161.988-6.557,1.957-9.952,2.933-3.408.929-6.813,1.866-10.027,2.668-3.207.824-6.234,1.472-8.813,2.089s-4.764.993-6.278,1.322C292.392,99.183,291.514,99.325,291.514,99.325Z" transform="translate(-291.514 -84.066)" fill="#fff"/>
        </g>
        <g id="Group_91" data-name="Group 91" transform="translate(212.147 15.259)" opacity="0.4">
          <path id="Path_432" data-name="Path 432" d="M318.012,203.634s-.492-1.723-1.357-4.739c-.814-3.026-2.07-7.328-3.414-12.529s-2.992-11.251-4.587-17.771-3.308-13.475-5.014-20.431c-1.6-6.979-3.212-13.958-4.717-20.5s-2.752-12.689-3.9-17.936S293.067,100.07,292.434,97c-.585-3.08-.92-4.841-.92-4.841l1.357,4.737c.816,3.026,2.074,7.328,3.416,12.529s3,11.251,4.587,17.771,3.307,13.477,5.011,20.431c1.606,6.979,3.212,13.96,4.717,20.5s2.75,12.687,3.9,17.936,1.955,9.656,2.588,12.725Z" transform="translate(-291.514 -92.16)" fill="#fff"/>
        </g>
        <g id="Group_92" data-name="Group 92" transform="translate(77.44 14.551)" opacity="0.6">
          <path id="Path_433" data-name="Path 433" d="M220.058,93.424l5.784-.264c3.684-.119,8.945-.381,15.259-.53s13.679-.4,21.57-.5,16.312-.213,24.733-.324c8.419-.006,16.838-.013,24.733-.017s15.259.151,21.576.2,11.577.253,15.262.32l5.789.185-5.787.264c-3.684.119-8.943.386-15.255.532s-13.679.409-21.574.5l-24.73.324c-8.419,0-16.84.011-24.733.017s-15.262-.153-21.576-.2-11.579-.253-15.262-.319C222.162,93.49,220.058,93.424,220.058,93.424Z" transform="translate(-220.058 -91.784)" fill="#fff"/>
        </g>
      </g>
      <g id="_5" data-name="5" transform="translate(323.033 0)">
        <path id="Path_434" data-name="Path 434" d="M313.9,21.947l25.02,105.266-108.236,2.165Z" transform="translate(-230.682 -21.947)" fill="#f05d32"/>
        <path id="Path_435" data-name="Path 435" d="M313.9,21.947l25.02,105.266-108.236,2.165Z" transform="translate(-230.682 -21.947)" fill="url(#linear-gradient-7)" style="mix-blend-mode: color-burn;isolation: isolate"/>
        <path id="Path_436" data-name="Path 436" d="M274.827,21.947,344.011,116.3l-44.164,10.915Z" transform="translate(-191.608 -21.947)" fill="#f05d32"/>
        <path id="Path_437" data-name="Path 437" d="M274.827,21.947,344.011,116.3l-44.164,10.915Z" transform="translate(-191.608 -21.947)" fill="url(#linear-gradient-8)" style="mix-blend-mode: color-burn;isolation: isolate"/>
        <g id="Group_93" data-name="Group 93" transform="translate(83.219 0)" opacity="0.4">
          <path id="Path_438" data-name="Path 438" d="M299.847,127.213s-.471-1.625-1.3-4.472c-.773-2.856-1.97-6.917-3.244-11.826s-2.843-10.619-4.353-16.778-3.127-12.723-4.741-19.291c-1.514-6.591-3.028-13.181-4.445-19.361S279.182,43.5,278.1,38.546s-1.825-9.124-2.419-12.024c-.545-2.911-.856-4.575-.856-4.575s.469,1.625,1.293,4.47c.775,2.858,1.976,6.917,3.248,11.828s2.847,10.619,4.351,16.778,3.126,12.723,4.739,19.291c1.514,6.591,3.026,13.183,4.445,19.363s2.585,11.984,3.665,16.94,1.827,9.122,2.419,12.022Z" transform="translate(-274.827 -21.947)" fill="#fff"/>
        </g>
        <g id="Group_94" data-name="Group 94" transform="translate(108.211 94.24)" opacity="0.4">
          <path id="Path_439" data-name="Path 439" d="M332.3,72.161s-.65.339-1.806.841c-1.167.462-2.807,1.235-4.824,1.961-2.011.758-4.374,1.559-6.93,2.332-1.282.368-2.592.813-3.948,1.148l-4.1,1.082c-1.386.32-2.771.637-4.134.952s-2.726.55-4.032.822c-2.62.5-5.086.9-7.216,1.161-2.123.3-3.933.381-5.18.517-1.257.1-1.989.1-1.989.1l-.057-.224,22.055-5.571,22.109-5.344Z" transform="translate(-288.084 -71.937)" fill="#fff"/>
        </g>
        <g id="Group_95" data-name="Group 95" transform="translate(0 105.151)" opacity="0.4">
          <path id="Path_440" data-name="Path 440" d="M338.924,77.955s-1.689.209-4.643.477c-2.956.217-7.175.692-12.246.967s-10.983.754-17.323.946L284.844,81l-19.875.136c-6.344.053-12.269-.192-17.349-.253-5.075-.077-9.311-.377-12.272-.477-2.965-.147-4.66-.287-4.66-.287l0-.232,54.116-1.2,54.121-.967Z" transform="translate(-230.683 -77.725)" fill="#fff"/>
        </g>
      </g>
    </g>
    <text id="Head_office_Managers" data-name="Head office Managers" transform="translate(903 2776)" fill="#21232a" font-size="25" font-family="HelveticaNeue-Bold, Helvetica Neue" font-weight="700"><tspan x="-130.85" y="0">Head office Managers</tspan></text>
    <text id="State_In-charges" data-name="State In-charges" transform="translate(847 2894)" fill="#21232a" font-size="25" font-family="HelveticaNeue-Bold, Helvetica Neue" font-weight="700"><tspan x="-98.725" y="0">State In-charges</tspan></text>
    <text id="Cluster_In-charges" data-name="Cluster In-charges" transform="translate(741 3016)" fill="#21232a" font-size="25" font-family="HelveticaNeue-Bold, Helvetica Neue" font-weight="700"><tspan x="-110.513" y="0">Cluster In-charges</tspan></text>
    <text id="Field_Team" data-name="Field Team" transform="translate(736 3130)" fill="#21232a" font-size="25" font-family="HelveticaNeue-Bold, Helvetica Neue" font-weight="700"><tspan x="-64.075" y="0">Field Team</tspan></text>
    <text id="Plan_Business_Activities_High-Level" data-name="Plan Business Activities &amp; High-Level" transform="translate(827 2810)" fill="#21232a" font-size="25" font-family="HelveticaNeue, Helvetica Neue"><tspan x="-207.425" y="0">Plan Business Activities &amp; High-Level</tspan></text>
    <text id="Monitor_Manage_Plants_Personnel_In" data-name="Monitor &amp; Manage Plants &amp; Personnel In" transform="translate(720 2928)" fill="#21232a" font-size="25" font-family="HelveticaNeue, Helvetica Neue"><tspan x="-225.512" y="0">Monitor &amp; Manage Plants &amp; Personnel In</tspan></text>
    <text id="Monitor_Manage_Clusters_of_4-8_Plants" data-name="Monitor &amp; Manage Clusters of 4-8 Plants" transform="translate(625 3050)" fill="#21232a" font-size="25" font-family="HelveticaNeue, Helvetica Neue"><tspan x="-227.363" y="0">Monitor &amp; Manage Clusters of 4-8 Plants</tspan></text>
    <text id="Plant_Operators_Technicians_Collection_Agents" data-name="Plant Operators, Technicians, Collection
Agents" transform="translate(800 3163)" fill="#21232a" font-size="25" font-family="HelveticaNeue, Helvetica Neue"><tspan x="-446.35" y="0">Plant Operators, Technicians, Collection</tspan><tspan x="-78.25" y="30">Agents</tspan></text>
    <text id="Description_of_the_roles_and_responsibilities_of_mini-grid_personnel_" data-name="Description of the roles and responsibilities of mini-grid personnel
" transform="translate(531 3385)" fill="#21232a" font-size="25" font-family="HelveticaNeue-Bold, Helvetica Neue" font-weight="700"><tspan x="35.413" y="24">Description of the roles and responsibilities of mini-grid personnel</tspan></text>
  </g>
</svg>
