<svg xmlns="http://www.w3.org/2000/svg" width="1148.288" height="521.586" viewBox="0 0 1148.288 521.586">
  <g id="Group_3085" data-name="Group 3085" transform="translate(-374.397 -979.5)">
    <text id="Automatic_meter_reading_to_facilitate_billing_and_collection_activities" data-name="Automatic meter reading to facilitate billing and collection activities" transform="translate(460 1013)" fill="#21232a" font-size="25" font-family="HelveticaNeue, Helvetica Neue"><tspan x="0" y="24">Automatic meter </tspan><tspan x="0" y="54">reading to facilitate </tspan><tspan x="0" y="84">billing and </tspan><tspan x="0" y="114">collection activities</tspan></text>
    <text id="Remotely_adjustable_load_limits_and_ability_to_switch_meters_on_and_off" data-name="Remotely adjustable load limits and ability to switch meters on and off" transform="translate(866 1021)" fill="#21232a" font-size="25" font-family="HelveticaNeue, Helvetica Neue"><tspan x="0" y="24">Remotely adjustable </tspan><tspan x="0" y="54">load limits and ability </tspan><tspan x="0" y="84">to switch meters on </tspan><tspan x="0" y="114">and off</tspan></text>
    <text id="Programmable_electricity_packages_including_multiple_time_of_day_slots" data-name="Programmable electricity packages including multiple time of day slots" transform="translate(1260 1012)" fill="#21232a" font-size="25" font-family="HelveticaNeue, Helvetica Neue"><tspan x="0" y="24">Programmable </tspan><tspan x="0" y="54">electricity packages </tspan><tspan x="0" y="84">including multiple </tspan><tspan x="0" y="114">time of day slots</tspan></text>
    <text id="Sage_and_credits_limitations_with_automated_shutdown_for_non-paying_customers" data-name="Sage and credits
limitations with
automated shutdown
for non-paying customers" transform="translate(460 1330)" fill="#21232a" font-size="25" font-family="HelveticaNeue, Helvetica Neue"><tspan x="0" y="24">Sage and credits</tspan><tspan x="0" y="54">limitations with</tspan><tspan x="0" y="84">automated shutdown</tspan><tspan x="0" y="114">for non-paying </tspan><tspan x="0" y="144">customers</tspan></text>
    <text id="Packaging_of_customer_power_usage_patterns" data-name="Packaging of customer power usage patterns" transform="translate(866 1354)" fill="#21232a" font-size="25" font-family="HelveticaNeue, Helvetica Neue"><tspan x="0" y="24">Packaging of </tspan><tspan x="0" y="54">customer power </tspan><tspan x="0" y="84">usage patterns</tspan></text>
    <text id="Detailed_monitoring_of_parameters_related_to_power_supply_quality" data-name="Detailed monitoring of
parameters related to
power supply quality" transform="translate(1260 1378)" fill="#21232a" font-size="25" font-family="HelveticaNeue, Helvetica Neue"><tspan x="0" y="0">Detailed monitoring of</tspan><tspan x="0" y="30">parameters related to</tspan><tspan x="0" y="60">power supply quality</tspan></text>
    <path id="Path_666" data-name="Path 666" d="M132.36,158.046H438.045V351.871H132.36V326.59" transform="translate(277.733 821.954)" fill="none" stroke="#707070" stroke-miterlimit="10" stroke-width="1"/>
    <path id="Path_667" data-name="Path 667" d="M132.36,158.046H438.045V351.871H132.36V326.59" transform="translate(680.686 821.954)" fill="none" stroke="#707070" stroke-miterlimit="10" stroke-width="1"/>
    <path id="Path_668" data-name="Path 668" d="M132.36,158.046H438.045V351.871H132.36V326.59" transform="translate(1084.14 821.954)" fill="none" stroke="#707070" stroke-miterlimit="10" stroke-width="1"/>
    <path id="Path_669" data-name="Path 669" d="M132.36,158.046H438.045V351.871H132.36V326.59" transform="translate(278.14 1148.715)" fill="none" stroke="#707070" stroke-miterlimit="10" stroke-width="1"/>
    <path id="Path_670" data-name="Path 670" d="M132.36,158.046H438.045V351.871H132.36V326.59" transform="translate(681.14 1148.715)" fill="none" stroke="#707070" stroke-miterlimit="10" stroke-width="1"/>
    <path id="Path_671" data-name="Path 671" d="M132.36,158.046H438.045V351.871H132.36V326.59" transform="translate(1084.14 1148.715)" fill="none" stroke="#707070" stroke-miterlimit="10" stroke-width="1"/>
    <g id="speedometer" transform="translate(374.397 1035.759)">
      <path id="Path_690" data-name="Path 690" d="M38.066,2A36.065,36.065,0,1,0,74.131,38.066,36.066,36.066,0,0,0,38.066,2Zm0,69.727A33.661,33.661,0,1,1,71.727,38.066,33.661,33.661,0,0,1,38.066,71.727Z" transform="translate(-2 -2)" fill="#707070"/>
      <path id="Path_691" data-name="Path 691" d="M42.033,47H25.2A1.2,1.2,0,0,0,24,48.2V57.82a1.2,1.2,0,0,0,1.2,1.2H42.033a1.2,1.2,0,0,0,1.2-1.2V48.2A1.2,1.2,0,0,0,42.033,47Zm-1.2,9.617H26.4V49.4H40.831Z" transform="translate(2.448 7.098)" fill="#707070"/>
      <path id="Path_692" data-name="Path 692" d="M37.055,7A30.081,30.081,0,0,0,7,37.055a1.2,1.2,0,0,0,1.2,1.2H17.82a1.2,1.2,0,0,0,1.2-1.2A18.026,18.026,0,0,1,48.463,23.1l-7.8,6.372a8.463,8.463,0,1,0,3.979,3.979l6.372-7.8a17.94,17.94,0,0,1,4.075,11.409,1.2,1.2,0,0,0,1.2,1.2h9.617a1.2,1.2,0,0,0,1.2-1.2A30.081,30.081,0,0,0,37.055,7Zm-20.4,28.852H9.428a27.577,27.577,0,0,1,3.1-11.565l6.275,3.619A20.127,20.127,0,0,0,16.654,35.852Zm3.354-10.026-6.263-3.619a27.73,27.73,0,0,1,8.463-8.463L25.814,20a20.632,20.632,0,0,0-5.807,5.831Zm15.845-9.149a20.3,20.3,0,0,0-7.946,2.116L24.287,12.53a27.577,27.577,0,0,1,11.565-3.1Zm1.2,26.388a6.011,6.011,0,1,1,0-12.022,6.511,6.511,0,0,1,1.455.18l-3.919,3.2a.555.555,0,0,0-.084.084,3.607,3.607,0,1,0,5.1,5.1.556.556,0,0,0,.084-.084l3.2-3.919a6.511,6.511,0,0,1,.18,1.455A6.011,6.011,0,0,1,37.055,43.066Zm.817-5.121a1.251,1.251,0,0,1-1.671-.036,1.19,1.19,0,0,1-.349-.854,1.219,1.219,0,0,1,.313-.817l9.257-7.55Zm.385-21.267V9.428a27.577,27.577,0,0,1,11.565,3.1L46.2,18.793a20.3,20.3,0,0,0-7.946-2.116ZM54.1,25.826a20.155,20.155,0,0,0-1.551-2.068l2.26-2.777A1.195,1.195,0,0,0,53.128,19.3L50.339,21.57A21.489,21.489,0,0,0,48.3,20L51.9,13.744a27.73,27.73,0,0,1,8.463,8.463Zm3.354,10.026A20.127,20.127,0,0,0,55.3,27.906l6.275-3.619a27.577,27.577,0,0,1,3.1,11.565Z" transform="translate(-0.989 -0.989)" fill="#707070"/>
      <path id="Path_693" data-name="Path 693" d="M44.607,39a3.607,3.607,0,1,0,3.607,3.607A3.607,3.607,0,0,0,44.607,39Zm0,4.809a1.2,1.2,0,1,1,1.2-1.2A1.2,1.2,0,0,1,44.607,43.809Z" transform="translate(5.885 5.481)" fill="#707070"/>
      <path id="Path_694" data-name="Path 694" d="M52.607,39a3.607,3.607,0,1,0,3.607,3.607A3.607,3.607,0,0,0,52.607,39Zm0,4.809a1.2,1.2,0,1,1,1.2-1.2A1.2,1.2,0,0,1,52.607,43.809Z" transform="translate(7.503 5.481)" fill="#707070"/>
      <path id="Path_695" data-name="Path 695" d="M20.607,39a3.607,3.607,0,1,0,3.607,3.607A3.607,3.607,0,0,0,20.607,39Zm0,4.809a1.2,1.2,0,1,1,1.2-1.2A1.2,1.2,0,0,1,20.607,43.809Z" transform="translate(1.033 5.481)" fill="#707070"/>
      <path id="Path_696" data-name="Path 696" d="M12.607,39a3.607,3.607,0,1,0,3.607,3.607A3.607,3.607,0,0,0,12.607,39Zm0,4.809a1.2,1.2,0,1,1,1.2-1.2A1.2,1.2,0,0,1,12.607,43.809Z" transform="translate(-0.585 5.481)" fill="#707070"/>
      <path id="Path_697" data-name="Path 697" d="M25,41h2.4v2.4H25Z" transform="translate(2.65 5.885)" fill="#707070"/>
      <path id="Path_698" data-name="Path 698" d="M29,41h6.011v2.4H29Z" transform="translate(3.459 5.885)" fill="#707070"/>
      <path id="Path_699" data-name="Path 699" d="M36,41h2.4v2.4H36Z" transform="translate(4.874 5.885)" fill="#707070"/>
    </g>
    <g id="switch" transform="translate(778.067 1035.759)">
      <path id="Path_700" data-name="Path 700" d="M70.967,65.15H61.66V26.757h6.98a1.163,1.163,0,0,0,.7-2.094L36.764.232a1.162,1.162,0,0,0-1.4,0L2.792,24.664a1.163,1.163,0,0,0,.7,2.094h6.98V65.15H1.163A1.163,1.163,0,0,0,0,66.313v4.654A1.163,1.163,0,0,0,1.163,72.13h69.8a1.163,1.163,0,0,0,1.163-1.163V66.313A1.163,1.163,0,0,0,70.967,65.15ZM36.065,2.617,65.15,24.431H6.98ZM12.8,26.757H59.333V65.15H12.8ZM69.8,69.8H2.327V67.476H69.8Zm0,0" transform="translate(0 0.001)" fill="#707070"/>
      <path id="Path_701" data-name="Path 701" d="M171.029,230.076a1.164,1.164,0,1,0-.844,2.169,11.634,11.634,0,1,1-8.463,0,1.164,1.164,0,0,0-.844-2.169,13.961,13.961,0,1,0,10.151,0Zm0,0" transform="translate(-129.887 -196.549)" fill="#707070"/>
      <path id="Path_702" data-name="Path 702" d="M241.163,219.634a1.163,1.163,0,0,0,1.163-1.163v-9.307a1.163,1.163,0,0,0-2.327,0v9.307A1.163,1.163,0,0,0,241.163,219.634Zm0,0" transform="translate(-205.098 -177.751)" fill="#707070"/>
    </g>
    <g id="app_1_" data-name="app (1)" transform="translate(1196.393 1033.589)">
      <g id="Group_216" data-name="Group 216" transform="translate(0)">
        <g id="Group_215" data-name="Group 215">
          <path id="Path_672" data-name="Path 672" d="M141.835,0H107.274A4.879,4.879,0,0,0,102.4,4.873v64.1a4.88,4.88,0,0,0,4.874,4.874h34.561a4.88,4.88,0,0,0,4.874-4.874V4.873A4.879,4.879,0,0,0,141.835,0Zm2.412,68.974a2.416,2.416,0,0,1-2.412,2.412H107.274a2.416,2.416,0,0,1-2.412-2.412V64h39.386v4.972Zm0-7.434H104.862V12.308h39.386V61.54Zm0-51.694H104.862V4.873a2.415,2.415,0,0,1,2.412-2.411h34.561a2.415,2.415,0,0,1,2.412,2.411Z" transform="translate(-102.4)" fill="#707070"/>
          <path id="Path_673" data-name="Path 673" d="M214.565,463.263h9.846a1.231,1.231,0,1,0,0-2.462h-9.846a1.231,1.231,0,1,0,0,2.462Z" transform="translate(-197.333 -394.338)" fill="#707070"/>
          <path id="Path_674" data-name="Path 674" d="M163.365,386.463h3.692a1.231,1.231,0,0,0,0-2.461h-3.692a1.231,1.231,0,1,0,0,2.461Z" transform="translate(-153.518 -328.615)" fill="#707070"/>
          <path id="Path_675" data-name="Path 675" d="M226.79,384H223.1a1.231,1.231,0,1,0,0,2.462h3.692a1.231,1.231,0,0,0,0-2.462Z" transform="translate(-204.636 -328.614)" fill="#707070"/>
          <path id="Path_676" data-name="Path 676" d="M287.826,341.67l-6.154,6.154a1.231,1.231,0,1,0,1.74,1.735l6.154-6.154a1.229,1.229,0,1,0-1.74-1.735Z" transform="translate(-255.465 -292.081)" fill="#707070"/>
          <path id="Path_677" data-name="Path 677" d="M179.38,133.965v0h8.22l-1.969,9.283a1.231,1.231,0,0,0,2.193.985l12.537-16.923a1.231,1.231,0,0,0-.985-1.963h-6.2l4.883-10.561a1.231,1.231,0,0,0-1.118-1.747h-9.8a1.231,1.231,0,0,0-1.135.753l-7.763,18.462a1.231,1.231,0,0,0,1.135,1.708Zm8.58-18.458h7.052l-4.883,10.56a1.231,1.231,0,0,0,1.119,1.748h5.684l-7.72,10.42,1.108-5.242a1.231,1.231,0,0,0-1.2-1.486h-7.883Z" transform="translate(-167.223 -96.737)" fill="#707070"/>
          <path id="Path_678" data-name="Path 678" d="M282.363,343.652a.781.781,0,0,0,.221.074,1.84,1.84,0,0,0,.246.028,1.231,1.231,0,0,0,.874-2.1c-.062-.049-.123-.1-.2-.148a.7.7,0,0,0-.209-.115.752.752,0,0,0-.235-.074,1.049,1.049,0,0,0-.479,0,.785.785,0,0,0-.221.074.961.961,0,0,0-.223.111l-.183.148a1.248,1.248,0,0,0,0,1.748l.183.148A.963.963,0,0,0,282.363,343.652Z" transform="translate(-255.753 -292.061)" fill="#707070"/>
          <path id="Path_679" data-name="Path 679" d="M326.174,384.186a.707.707,0,0,0-.209-.112.718.718,0,0,0-.235-.073,1.014,1.014,0,0,0-.479,0,.74.74,0,0,0-.222.073.968.968,0,0,0-.223.112l-.183.148a1.248,1.248,0,0,0,0,1.748l.183.146a.971.971,0,0,0,.223.112.867.867,0,0,0,.222.074,2.06,2.06,0,0,0,.246.025,1.231,1.231,0,0,0,.874-2.1C326.309,384.284,326.247,384.235,326.174,384.186Z" transform="translate(-292.265 -328.59)" fill="#707070"/>
        </g>
      </g>
    </g>
    <g id="battery_1_" data-name="battery (1)" transform="translate(382.563 1352.508)">
      <path id="Path_680" data-name="Path 680" d="M141.506,54.817h3.721l-5.091,12.726a1.475,1.475,0,0,0,2.453,1.549l17.7-19.173a1.475,1.475,0,0,0-1.084-2.476h-5.781l3.982-4.978a1.475,1.475,0,0,0-1.151-2.4H145.93a1.475,1.475,0,0,0-1.381.957l-4.425,11.8a1.475,1.475,0,0,0,1.381,1.993Zm5.447-11.8h6.233L149.2,48a1.475,1.475,0,0,0,1.151,2.4h5.481l-9.992,10.824,2.931-7.327a1.475,1.475,0,0,0-1.369-2.023h-3.771Z" transform="translate(-126.757 -32.681)" fill="#707070"/>
      <path id="Path_681" data-name="Path 681" d="M161.934,299.867a5.9,5.9,0,1,0-5.9-5.9A5.9,5.9,0,0,0,161.934,299.867Zm0-8.849a2.95,2.95,0,1,1-2.95,2.95A2.95,2.95,0,0,1,161.934,291.018Z" transform="translate(-139.81 -234.96)" fill="#707070"/>
      <path id="Path_682" data-name="Path 682" d="M129.978,56.057V51.633h-2.95v4.425h-2.95V51.633h-2.95v4.425a1.475,1.475,0,0,0-1.475,1.475v4.425a5.91,5.91,0,0,0,4.425,5.713V78.18a4.43,4.43,0,0,1-4.425,4.425H112.28V32.46a1.475,1.475,0,0,0-1.475-1.475h-1.387a21.478,21.478,0,1,0-38.523,0H69.509a1.475,1.475,0,0,0-1.475,1.475V87.03A1.475,1.475,0,0,0,69.509,88.5h41.3a1.475,1.475,0,0,0,1.475-1.475V85.555h7.374a7.383,7.383,0,0,0,7.374-7.374V67.67a5.91,5.91,0,0,0,4.425-5.713V57.532A1.475,1.475,0,0,0,129.978,56.057ZM90.157,2.962A18.528,18.528,0,1,1,71.629,21.49,18.528,18.528,0,0,1,90.157,2.962Zm-11.8,82.593H70.984V33.934h1.678a21.656,21.656,0,0,0,5.7,5.494Zm14.749,0h-5.9v-2.95h5.9Zm0-5.9h-5.9v-2.95h5.9Zm0-5.9h-5.9v-2.95h5.9Zm5.9,11.8h-2.95V69.331a1.475,1.475,0,0,0-1.475-1.475H85.732a1.475,1.475,0,0,0-1.475,1.475V85.555h-2.95v-35.4h17.7Zm0-38.347h-17.7V41.059a21.467,21.467,0,0,0,17.7,0ZM109.33,85.555h-7.374V39.428a21.656,21.656,0,0,0,5.7-5.494h1.678Zm19.173-23.6a2.95,2.95,0,0,1-5.9,0v-2.95h5.9Z" transform="translate(-68.034 0)" fill="#707070"/>
    </g>
    <g id="battery" transform="translate(771.983 1372.001)">
      <path id="Path_683" data-name="Path 683" d="M70.326,39.054v-5.61a7.608,7.608,0,0,0,7.388-7.6v-4.7a2.383,2.383,0,0,0,2.367-2.38V13.121A2.383,2.383,0,0,0,77.7,10.74H75.45V1.451a1.451,1.451,0,1,0-2.9,0V10.74H65.2V1.451a1.451,1.451,0,1,0-2.9,0V10.74H60.052a2.385,2.385,0,0,0-2.384,2.381v5.644a2.385,2.385,0,0,0,2.367,2.38v4.7a7.607,7.607,0,0,0,7.388,7.6v5.61a12.89,12.89,0,0,0,0,25.613v1.145A5.59,5.59,0,0,1,61.844,71.4H35.932a5.59,5.59,0,0,1-5.58-5.587V61.7H43.328a3.984,3.984,0,0,0,3.978-3.981V40.587a1.451,1.451,0,1,0-2.9,0V57.724A1.092,1.092,0,0,1,43.328,58.8H14.478A1.092,1.092,0,0,1,13.4,57.724V10.415a1.092,1.092,0,0,1,1.076-1.079h28.85A1.092,1.092,0,0,1,44.4,10.415V27.555a1.451,1.451,0,1,0,2.9,0V10.415a3.984,3.984,0,0,0-3.978-3.981H40.584V4.668A4.671,4.671,0,0,0,35.92,0H21.883a4.671,4.671,0,0,0-4.664,4.668V6.433h-2.74A3.984,3.984,0,0,0,10.5,10.415V57.724a3.984,3.984,0,0,0,3.978,3.981H27.45v4.106A8.5,8.5,0,0,0,35.932,74.3H61.844a8.5,8.5,0,0,0,8.482-8.489V64.666a12.89,12.89,0,0,0,0-25.613ZM20.121,4.668A1.766,1.766,0,0,1,21.883,2.9H35.919a1.766,1.766,0,0,1,1.762,1.766V6.433H20.121Zm40.45,8.975H77.178v4.6H60.571Zm2.367,12.2v-4.7H74.811v4.7a4.7,4.7,0,0,1-4.692,4.7h-2.49A4.7,4.7,0,0,1,62.938,25.844Zm5.937,36a9.986,9.986,0,1,1,9.976-9.988,9.992,9.992,0,0,1-9.976,9.988Z" transform="translate(-10.5 0)" fill="#707070"/>
      <path id="Path_684" data-name="Path 684" d="M392.515,312.067h-2.449L392,308.175a1.451,1.451,0,0,0-2.6-1.292l-2.979,5.989a1.467,1.467,0,0,0,1.3,2.1h2.448l-1.934,3.9a1.451,1.451,0,1,0,2.6,1.29l2.975-5.993a1.489,1.489,0,0,0,.07-.169A1.466,1.466,0,0,0,392.515,312.067Z" transform="translate(-331.745 -261.66)" fill="#707070"/>
      <path id="Path_685" data-name="Path 685" d="M53.914,86.342a1.451,1.451,0,0,0-1.451,1.451V127.97a1.451,1.451,0,0,0,1.451,1.451H75.639a1.451,1.451,0,0,0,1.451-1.451V87.793a1.451,1.451,0,0,0-1.451-1.451Zm20.274,40.177H55.365v-6.962H74.188Zm0-9.864H55.365v-6.468H74.188Zm0-9.371H55.365V99.96H74.188Zm0-10.226H55.365V89.244H74.188Z" transform="translate(-46.373 -73.812)" fill="#707070"/>
      <path id="Path_686" data-name="Path 686" d="M245.582,224.783a1.451,1.451,0,0,0-1.451,1.451v0a1.451,1.451,0,1,0,1.451-1.455Z" transform="translate(-210.227 -192.163)" fill="#707070"/>
    </g>
    <g id="flash-off" transform="translate(1182.943 1361.508)">
      <g id="Group_218" data-name="Group 218" transform="translate(17.855)">
        <g id="Group_217" data-name="Group 217">
          <path id="Path_687" data-name="Path 687" d="M160.5,27.448a1.48,1.48,0,0,0-1.241-.669H149.65L160.62,2.095A1.491,1.491,0,0,0,159.26,0H129.506a1.483,1.483,0,0,0-1.482,1.6l.762,9.95a1.519,1.519,0,0,0,1.6,1.369,1.489,1.489,0,0,0,1.369-1.6l-.64-8.346h25.856L146,27.659a1.491,1.491,0,0,0,1.36,2.095H157l-2.761,6.436a1.487,1.487,0,0,0,.783,1.952,1.46,1.46,0,0,0,.586.122,1.489,1.489,0,0,0,1.369-.9l3.648-8.51A1.494,1.494,0,0,0,160.5,27.448Z" transform="translate(-128.02 0)" fill="#707070"/>
        </g>
      </g>
      <g id="Group_220" data-name="Group 220" transform="translate(19.322 19.341)">
        <g id="Group_219" data-name="Group 219">
          <path id="Path_688" data-name="Path 688" d="M162.966,161.116a1.489,1.489,0,0,0-1.964.756l-9.62,21.646-2.419-24.166a1.485,1.485,0,0,0-1.479-1.339h-4.573l-1.4-17.972a1.486,1.486,0,1,0-2.964.235l1.509,19.34a1.484,1.484,0,0,0,1.482,1.372h4.606l2.841,28.415a1.482,1.482,0,0,0,1.244,1.321,1.569,1.569,0,0,0,.235.018,1.487,1.487,0,0,0,1.36-.884l11.9-26.779A1.489,1.489,0,0,0,162.966,161.116Z" transform="translate(-138.539 -138.673)" fill="#707070"/>
        </g>
      </g>
      <g id="Group_222" data-name="Group 222" transform="translate(0 0.002)">
        <g id="Group_221" data-name="Group 221">
          <path id="Path_689" data-name="Path 689" d="M70.979,68.886,2.544.451a1.488,1.488,0,0,0-2.1,2.1L68.875,70.99a1.488,1.488,0,0,0,2.1-2.1Z" transform="translate(-0.005 -0.016)" fill="#707070"/>
        </g>
      </g>
    </g>
  </g>
</svg>
