<svg xmlns="http://www.w3.org/2000/svg" width="900.297" height="381.054" viewBox="0 0 900.297 381.054">
  <g id="Group_2649" data-name="Group 2649" transform="translate(-561 -1970.474)">
    <g id="Group_840" data-name="Group 840" transform="translate(-98)">
      <text id="Main_Purpose" data-name="Main
Purpose" transform="translate(684 2087)" fill="#21232a" font-size="20" font-family="HelveticaNeue-Bold, Helvetica Neue" font-weight="700"><tspan x="21.18" y="20">Main</tspan><tspan x="4.68" y="45">Purpose</tspan></text>
      <text id="Example_Use_Case" data-name="Example
Use Case" transform="translate(677 2224)" fill="#21232a" font-size="20" font-family="HelveticaNeue-Bold, Helvetica Neue" font-weight="700"><tspan x="10.42" y="20">Example</tspan><tspan x="5.94" y="45">Use Case</tspan></text>
      <line id="Line_158" data-name="Line 158" y2="381.054" transform="translate(795.5 1970.474)" fill="none" stroke="#707070" stroke-width="1" opacity="0.2"/>
      <line id="Line_159" data-name="Line 159" x1="378.5" transform="translate(659 2172.5)" fill="none" stroke="#707070" stroke-width="1" opacity="0.2"/>
      <text id="Access_to_the_SMS_messages_sent_by_the_company" data-name="Access to the SMS messages sent by the company" transform="translate(836 2087)" fill="#707070" font-size="14" font-family="HelveticaNeue, Helvetica Neue"><tspan x="12.601" y="13">Access to the SMS </tspan><tspan x="4.033" y="28">messages sent by the </tspan><tspan x="43.45" y="43">company</tspan></text>
      <text id="To_verify_an_SMS_sent_by_the_company_even_if_the_agent_might_have_deleted_the_SMS_off_the_phone_memory" data-name="To verify an SMS sent by the company even if the agent might have deleted the SMS off the phone memory" transform="translate(836 2224)" fill="#707070" font-size="14" font-family="HelveticaNeue, Helvetica Neue"><tspan x="4.565" y="13">To verify an SMS sent </tspan><tspan x="5.195" y="28">by the company even </tspan><tspan x="1.051" y="43">if the agent might have </tspan><tspan x="10.242" y="58">deleted the SMS off </tspan><tspan x="13.49" y="73">the phone memory</tspan></text>
      <text id="All_Employees" data-name="All Employees" transform="translate(816 1997)" fill="#21232a" font-size="20" font-family="HelveticaNeue-Bold, Helvetica Neue" font-weight="700"><tspan x="24.83" y="20">All Employees</tspan></text>
    </g>
    <path id="Path_3626" data-name="Path 3626" d="M2546.236,2553.058H2113.089a.427.427,0,0,1-.426-.426h0a.427.427,0,0,1,.426-.426h433.147a.427.427,0,0,1,.426.426h0A.428.428,0,0,1,2546.236,2553.058Z" transform="translate(-1085.365 -287.215)" fill="#283250"/>
    <path id="Path_3627" data-name="Path 3627" d="M4101.229,2515.334a17.993,17.993,0,0,1,1.153-5.634c.984-1.967,8.852-.615,8.852-.615a13.054,13.054,0,0,1,1.567,6.232Z" transform="translate(-2768.389 -250.336)" fill="#204143"/>
    <path id="Path_3628" data-name="Path 3628" d="M3963.8,2515.334a18,18,0,0,1,1.153-5.634c.983-1.967,8.851-.615,8.851-.615a13.042,13.042,0,0,1,1.567,6.232Z" transform="translate(-2652.079 -250.336)" fill="#204143"/>
    <path id="Path_3629" data-name="Path 3629" d="M4028.325,1494.463c-.983.712-9.879,5.355-9.879,5.355l-9.381-6.689s2.849-.415,2.925-.437c.846-.236.808-2.506.915-4.924.017-.373.037-.749.065-1.122l9.185-.334.008.114c.007.116.016.238.026.365l.018.262c.006.09.013.181.021.275.166,2.124.52,5.124,1.2,5.475C4023.811,1493,4026.426,1492.973,4028.325,1494.463Z" transform="translate(-2690.386 614.903)" fill="#d9935c"/>
    <path id="Path_3630" data-name="Path 3630" d="M4043.375,1487.33c-.757,1.516-2.445,4.155-4.948,4.068-2.39-.085-3.751-2.257-4.374-3.629.016-.373.037-.749.064-1.122l9.185-.334.008.114.026.365.018.262C4043.361,1487.146,4043.368,1487.236,4043.375,1487.33Z" transform="translate(-2711.534 614.903)" fill="#cb7d45"/>
    <path id="Path_3631" data-name="Path 3631" d="M4027.362,1344.542a6.937,6.937,0,0,1,9.658.09S4033.912,1343.986,4027.362,1344.542Z" transform="translate(-2705.871 736.529)" fill="#2b478b"/>
    <path id="Path_3632" data-name="Path 3632" d="M4003.193,1365.652a38.033,38.033,0,0,1-2.269-6.288c-.618-2.415-.052-11.582,9.163-10.959a12.42,12.42,0,0,1,5.283,1.557c2.08,1.188,5.154,3.861,2.553,12.018l-.629,2.737Z" transform="translate(-2683.346 731.648)" fill="#3b0600"/>
    <path id="Path_3633" data-name="Path 3633" d="M4026.31,1402.867c-2.379,2.275-5.335,5.306-11.705-.3-1.247-1.1-1.162-2.783-1.235-5.2-.087-2.866-.777-4.621-.457-6.274.38-1.977,2.071-2.87,5.58-3.175,6.441-.559,9.7.892,9.264,4.089C4026.792,1399.136,4028.729,1400.554,4026.31,1402.867Z" transform="translate(-2693.57 698.284)" fill="#d9935c"/>
    <path id="Path_3634" data-name="Path 3634" d="M4066.4,1384.611s3.818-.08,4.69,1.2.993,2.705,1.432,3.425a2.779,2.779,0,0,1,.367,1.527l.847-5.7-5.168-1.027Z" transform="translate(-2738.913 701.469)" fill="#b64c41"/>
    <path id="Path_3635" data-name="Path 3635" d="M3968.909,1538.7s-1.631,4.806-8.242,5.685c-.179.024-.363.044-.549.063h-26.925l-.144-.044c-1.046-.332-7.478-2.536-8.155-6.657,0,0,3.382-6.945,5.964-7.806a16.383,16.383,0,0,1,2.89-.583c1.119-.144,2.3-.24,3.286-.3,1.361-.085,2.361-.107,2.361-.107a8.112,8.112,0,0,0,7.2,4.188c5.1-.061,6.285-4.125,6.285-4.125s1.433.041,3.336.247c1.049.112,2.241.275,3.415.509a12.4,12.4,0,0,1,5.037,1.894C3967.617,1534.056,3968.909,1538.7,3968.909,1538.7Z" transform="translate(-2619.147 578.821)" fill="#dfe7e7"/>
    <path id="Path_3636" data-name="Path 3636" d="M3970.347,1576.455c-.287-1.592-.713-4.014-1.048-6.146,0-.028,1-12.031,1.366-14.057s-2.137-13.066-2.137-13.066c-.583-1.689-1.571-2.206-2.329-2.206l1.275-10.628c-1.175-.234-2.366-.4-3.416-.509l-.61,11.136-.009.161c-1.4.077-3.137.171-4.758.243s-3.122.127-4.046.127c-1.88,0-6.191-.216-9.055-.373l-.011-.159-.692-11.34c-.988.063-2.167.159-3.286.3l1.218,11.037v0c-.8,0-1.724,1.424-1.852,2.215l-.124,3.453a39.25,39.25,0,0,0-2.07,8.311c-.276,3.583,1.221,16.049,1.231,16.136-.055,1.486-.16,3.385-.363,5.223a102.524,102.524,0,0,0-5.435,36.285c.455,17.794.725,48.2,2.822,62.96a40.3,40.3,0,0,0,1.175,5.831,1.967,1.967,0,0,0,1.615,1.367c2.4.333,7.824.948,10.156.1,1.117-.408,1.918-6.613,2.484-14.613.542-7.67.869-16.99,1.049-24.429,0,0,0,0,0,0,.145-5.931.2-10.665.2-12.417,0-3.965.937-15.6,1.247-22.439a.152.152,0,0,1,.3,0v0c.47,8.124,2.112,20.442,2.137,23.179.06,6.639-.325,49.292,2.576,50.725,2.219,1.1,7.446.267,9.944-.071a2.3,2.3,0,0,0,1.9-1.642c3.12-10.732,3.4-48.023,3.922-68.545A102.769,102.769,0,0,0,3970.347,1576.455Z" transform="translate(-2626.99 578.232)" fill="#666767"/>
    <path id="Path_3637" data-name="Path 3637" d="M3892.779,1638.791c-.922.738-3.933.43-5.1-.553s-3.5-.677-4.057-1.046c-.039-.026-10.912-12.911-12.089-18.332-1.19-5.472,6.336-20.529,8.466-24.634,1.577,3.331,6.829,5.129,7.766,5.426l.144.044h.291c-1.772,4.791-7.07,13.416-9.111,16.665a2.819,2.819,0,0,0-.17,2.685c2.623,5.623,5.187,10.366,6.311,13.652.223.365.7,1.018,1.282.93.8-.124,3.382-.677,4.673,1.228S3893.7,1638.054,3892.779,1638.791Z" transform="translate(-2573.877 523.572)" fill="#d9935c"/>
    <g id="Group_1848" data-name="Group 1848" transform="translate(1315.028 2076.194)">
      <path id="Path_3638" data-name="Path 3638" d="M4005.724,1328.465a13.546,13.546,0,0,0-1.978-2.041c-.2-.174-.418-.349-.647-.523a10.313,10.313,0,0,0-10.574-1.631,10.052,10.052,0,0,0-3.078,2c-.2.189-.389.382-.567.583-3.905,4.333-3.574,11.127-3.574,11.127l22.533-.241C4007.913,1331.449,4005.724,1328.465,4005.724,1328.465Z" transform="translate(-3985.299 -1323.458)" fill="#d1e9e9"/>
      <path id="Path_3639" data-name="Path 3639" d="M4001.548,1352.4c-.063-.948-.494-8.722,2.237-11.381a4.51,4.51,0,0,0-.384-.319c-2.912,3.057-3.1,10.713-3.088,11.714l-7.2.077c-.213-5.519-3.259-11.014-3.625-11.627a5.027,5.027,0,0,0-.416.427,32.882,32.882,0,0,1,2.708,11.215l-6.433.069a49.188,49.188,0,0,0,10.522,1.5,76.818,76.818,0,0,0,12.012-1.736Z" transform="translate(-3985.337 -1338.051)" fill="#b1d6d6"/>
    </g>
    <path id="Path_3640" data-name="Path 3640" d="M3933,1488.917c-2.305,4.426-8.852,5.256-8.852,5.256,2.121-5.164-2.152-6.792-4.794-12.079s2.028-8.791,2.028-8.791c-2.89.553-3.443,4.426-3.443,4.426-.246-2.582,1.906-6.945,8.73-7.806,5-.631,6.2-2.314,6.49-3.172a3.737,3.737,0,0,0,1.129,2.639c.528.465,1.032.869,1.514,1.221-.011.2-.02.4-.03.6-.03.68-.048,1.35-.08,1.964a3.326,3.326,0,0,0-.715,2.908,3.246,3.246,0,0,0,.236.723,6.1,6.1,0,0,1,1.184,2.949C3936.716,1482.681,3934.73,1485.6,3933,1488.917Z" transform="translate(-2613.247 631.46)" fill="#3b0600"/>
    <path id="Path_3641" data-name="Path 3641" d="M4000.463,1800.182l-1-5.855a45.672,45.672,0,0,1-13.48,2.8,3.255,3.255,0,0,0-2.4-1.676l-3.576-.517a3.258,3.258,0,0,0-3.36,1.731,35.447,35.447,0,0,1-6.487-1.578l0,.031-.356,5.141v.013c2.065.549,4.047.976,5.94,1.3l-.105.715a3.259,3.259,0,0,0,2.741,3.7l3.962.594a3.26,3.26,0,0,0,3.737-3.02l.069-1.1A42.577,42.577,0,0,0,4000.463,1800.182Z" transform="translate(-2657.158 354.216)" fill="#3e5156"/>
    <path id="Path_3642" data-name="Path 3642" d="M4144.813,1620.536c-1.178,5.422-12.051,18.307-12.09,18.333a1.177,1.177,0,0,1-.426.14l-.021,0c-.9.155-2.649.09-3.611.9-1.167.983-4.181,1.291-5.1.553s.308-2.029,1.6-3.935,3.873-1.352,4.672-1.228c.475.072.887-.356,1.139-.714l.015-.02c.048-.07.092-.137.127-.2,1.1-3.214,3.577-7.817,6.136-13.278a3.557,3.557,0,0,0-.2-3.4c-1.709-2.731-5.18-8.406-7.414-12.959-.26-1.317-.52-2.554-.721-3.491a9.922,9.922,0,0,0,7.593-5.046C4138.824,1600.7,4145.975,1615.192,4144.813,1620.536Z" transform="translate(-2787.02 521.896)" fill="#d9935c"/>
    <g id="P297LW" transform="translate(1363.674 2091.602)">
      <g id="Group_1855" data-name="Group 1855" transform="translate(0 0)">
        <path id="Path_3643" data-name="Path 3643" d="M4573.8,1663.291c-1.646.38-9.077.47-14.3-.7a16,16,0,0,1-2.9-.906,4.484,4.484,0,0,1-2.1-1.588,58.807,58.807,0,0,1-2.938-8.758c-3.495-12.151-8.412-32.23-8.412-32.23s9.875,2.016,11.965,3.736,3.935,29.014,5.9,29.751c.29.109.789.338,1.429.653l.094.046c.381.188.812.406,1.276.646,4.078,2.095,10.825,5.87,11.524,6.709C4576.259,1661.754,4576.2,1662.737,4573.8,1663.291Z" transform="translate(-4506.082 -1589.088)" fill="#9fafaf"/>
        <path id="Path_3644" data-name="Path 3644" d="M4424.629,1634.646a7.778,7.778,0,0,0-.13-1.4c-1.271-6.987-11.375-14.143-11.574-14.143v.146c0,1.068-1.684,3.039-4.277,3.208-3.076.2-6.873-1.554-6.873-3.326-.018,0-1.728.232-2.307.3-2.466.28-7.386,1.612-9.494,3.2-2,1.514.828,11.061,2.582,17.822a27.067,27.067,0,0,1,1.2,6.267c-.044.511-.5,7.45-.913,13.728-.339,5.178-.646,9.9-.654,10.2-.022.588,2.9,2.648,7.813,4.2a38.312,38.312,0,0,0,3.9,1.011,41.419,41.419,0,0,0,8.474.841c1.014,0,1.975-.055,2.883-.146C4422.267,1675.877,4424.67,1667.882,4424.629,1634.646Z" transform="translate(-4375.857 -1589.088)" fill="#a4acac"/>
        <path id="Path_3645" data-name="Path 3645" d="M4470.471,1570.879a59.509,59.509,0,0,1,.352-8.692l10.833,1.77s.011,3.307-.037,6.976c.007,0,.3,3.4-3.9,3.9S4470.358,1573.505,4470.471,1570.879Z" transform="translate(-4444.552 -1540.914)" fill="#d9935c"/>
        <path id="Path_3646" data-name="Path 3646" d="M4525.19,2498.876c-1.362-.839-.562-7.051-.562-7.051s6.379-5.064,7.239-1.165,6.021,5.667,8.961,6.156c2.03.337,2.779,1.386,2.971,2.052Z" transform="translate(-4490.209 -2325.479)" fill="#204143"/>
        <path id="Path_3647" data-name="Path 3647" d="M4420.518,1726.359c0,10.388-5.035,7.589-8.073,4.783.409-6.277.7-28.512.7-28.512S4420.518,1711.483,4420.518,1726.359Z" transform="translate(-4395.46 -1659.779)" fill="#82a0a0"/>
        <path id="Path_3648" data-name="Path 3648" d="M4610.154,1752.228c-.2,1.457-2.5,5.7-4.308,8.649a15.94,15.94,0,0,1-2.9-.906,4.48,4.48,0,0,1-2.1-1.588,58.66,58.66,0,0,1-2.937-8.758c.939-5.429,1.831-10.79,1.831-10.79l.277-3.6c0,.276,4.21,16.075,6.117,16.444a6.768,6.768,0,0,0,2.658-.148c.03.015.062.031.094.046C4609.26,1751.771,4609.689,1751.989,4610.154,1752.228Z" transform="translate(-4552.422 -1687.378)" fill="#869d9d"/>
        <path id="Path_3649" data-name="Path 3649" d="M4397.965,2498.876c-1.361-.839-.562-7.051-.562-7.051s6.38-5.064,7.24-1.165,6.021,5.667,8.96,6.156c2.03.337,2.768,1.386,2.959,2.052Z" transform="translate(-4382.533 -2325.479)" fill="#204143"/>
        <path id="Path_3650" data-name="Path 3650" d="M4453.508,1471.782s-7.23-11.4,6.654-12.156c0,0,5.208.613,6.387-.566,0,0,4.04,6.14.268,12.722S4453.508,1471.782,4453.508,1471.782Z" transform="translate(-4428.622 -1453.633)" fill="#5d5e5f"/>
        <path id="Path_3651" data-name="Path 3651" d="M4475.769,1505.269a14.882,14.882,0,0,1-5.031,1.747,40.24,40.24,0,0,1-5.409-1.522c-1.288-.781-1.205-2.362-1.271-4.559-.079-2.6-.341-4.644-.051-6.144.345-1.794,1.483-2.815,4.667-3.092,5.847-.507,8.281.956,8.383,2.916.026.526.051,1.028.068,1.5C4477.358,1502.23,4476.875,1504.4,4475.769,1505.269Z" transform="translate(-4438.987 -1481.171)" fill="#d9935c"/>
        <path id="Path_3652" data-name="Path 3652" d="M4477.431,1534.06c-.056,3.541-1.012,5.637-1.7,5.9a14.6,14.6,0,0,1-2.711.724c-.33.039-.645.028-.642-.159.011-.558.757-1.247.2-1.742-.582-.519-3.7-.693-3.956.438-.123.552.885,1.526.194,1.549-.209-.035-.416-.076-.611-.127a9.128,9.128,0,0,1-2.405-1.061c-1.288-.781-1.2-1.979-1.489-4.159-.185-1.41-.185-.646,0,1.447.193,2.19-.185,3.6,1.271,4.559.81.536,5.476,2.633,5.476,2.633-.068-1.11,3.911-2.029,4.963-2.857C4477,1540.44,4477.49,1538.663,4477.431,1534.06Z" transform="translate(-4439.241 -1517.109)" fill="#5d5e5f"/>
        <path id="Path_3653" data-name="Path 3653" d="M4407.951,1748.554c-.023.588,2.9,2.648,7.813,4.2.4.126.805.247,1.226.364a.014.014,0,0,1,.01.012c.458,5.375,1.7,12.969,2.817,20.3v0c.29,1.9.57,3.78.828,5.6a111.343,111.343,0,0,1,1.248,12.365v.033c.024,1.449-1.2,5.066-1.291,5.9-.056.511-.1,1.051-.136,1.617a65.754,65.754,0,0,0,.1,7.791c.8,12.459,4.095,28.4,5.269,29.078,2.334,1.35,6.583,0,8.743-.317a1.785,1.785,0,0,0,1.564-1.8c-1.055-20.676,1.975-49.473,4.239-67.174q.089-.691.175-1.357c.271-2.088.45-4.037.563-5.794.1-1.542.153-2.942.176-4.155.005-.378.009-.74.01-1.081.006-1.108-.875-8.363-.916-41.6h0a1.4,1.4,0,0,0-1.4-1.4H4418.67a3.522,3.522,0,0,0-3.52,3.571,56.646,56.646,0,0,1-.61,9.454c-.75,4.615-2.356,8.926-5.673,9.964a.011.011,0,0,0-.007.007c-.015.033-.106.235-.251.572a.018.018,0,0,0,0,.005q-.048,1.252-.1,2.55c-.008.173-.015.348-.024.524,0,.1-.008.2-.015.308-.007.175-.017.352-.026.529-.013.291-.028.585-.044.882-.013.232-.026.465-.039.7q-.037.675-.082,1.364c-.008.147-.016.293-.028.443-.039.594-.079,1.2-.125,1.8-.013.186-.028.372-.042.56,0,.09-.013.181-.02.271-.019.238-.037.476-.058.715s-.042.507-.064.764C4407.855,1747.067,4407.974,1747.9,4407.951,1748.554Z" transform="translate(-4391.62 -1666.988)" fill="#3e5156"/>
        <path id="Path_3654" data-name="Path 3654" d="M4490.3,2046.434c.8,12.459,4.095,28.4,5.269,29.078,2.335,1.35,6.584,0,8.744-.317a1.785,1.785,0,0,0,1.563-1.8c-1.054-20.676,1.975-49.473,4.239-67.174q.09-.691.175-1.357c.271-2.088.45-4.037.563-5.794-1.077-7.019-7.155-7.395-12.667,7.124C4498.871,2011.013,4490.121,2043.579,4490.3,2046.434Z" transform="translate(-4461.353 -1906.68)" fill="#274e52"/>
        <path id="Path_3655" data-name="Path 3655" d="M4386.82,1972.963c-.167,1.44-1.853,4.865-2.056,5.681-2.787,11.207-1.247,37.78.135,38.842,2.137,1.645,6.528.863,8.709.834a1.783,1.783,0,0,0,1.786-1.574c1.713-21.172,8.813-50.252,13.38-67.358a80.317,80.317,0,0,0,2.625-14.952s-21.34-13.075-23.647-5.932C4385.708,1934.823,4388.107,1961.9,4386.82,1972.963Z" transform="translate(-4370.718 -1849.139)" fill="#3e5156"/>
        <g id="Group_1851" data-name="Group 1851" transform="translate(22.175)">
          <path id="Path_3656" data-name="Path 3656" d="M4461.888,1426.542q-.221-.248-.468-.482a8.309,8.309,0,0,0-2.543-1.652,8.52,8.52,0,0,0-8.735,1.347c-.19.143-.369.288-.535.432a11.191,11.191,0,0,0-1.634,1.686s-1.807,2.465-1.747,7.662l18.614.2S4465.115,1430.121,4461.888,1426.542Z" transform="translate(-4446.226 -1423.737)" fill="#caeaea"/>
          <g id="Group_1850" data-name="Group 1850" transform="translate(0.002 2.188)">
            <path id="Path_3657" data-name="Path 3657" d="M4470.08,1447.642l1.022.011c.022-.3-.028-7.052-2.548-9.675a3.718,3.718,0,0,0-.317.262C4470.63,1440.55,4470.085,1447.572,4470.08,1447.642Z" transform="translate(-4464.857 -1437.978)" fill="#abd7d7"/>
            <path id="Path_3658" data-name="Path 3658" d="M4459.547,1448.475a28.611,28.611,0,0,1,2.225-9.255,4.282,4.282,0,0,0-.343-.362,25.02,25.02,0,0,0-2.981,9.6l-12.212-.131a63.442,63.442,0,0,0,9.922,1.434,40.639,40.639,0,0,0,8.692-1.235Z" transform="translate(-4446.235 -1438.723)" fill="#abd7d7"/>
          </g>
        </g>
        <path id="Path_3659" data-name="Path 3659" d="M4439.308,1621.862s6.289,7.327,6.658,13.719l-3.2.17a30.813,30.813,0,0,0-5.541-13.452s.74-.179.986-.228C4438.538,1622.007,4439.308,1621.862,4439.308,1621.862Z" transform="translate(-4416.431 -1591.42)" fill="#3e5156"/>
        <path id="Path_3660" data-name="Path 3660" d="M4552.853,1621.208a32.043,32.043,0,0,1,4.988,13.958l3.234-.056c-.266-5.025-3.423-10.552-5.166-13.171C4555.909,1621.939,4553.671,1621.374,4552.853,1621.208Z" transform="translate(-4514.295 -1590.867)" fill="#3e5156"/>
        <g id="Group_1852" data-name="Group 1852" transform="translate(0 97.254)">
          <path id="Path_3661" data-name="Path 3661" d="M4360.439,2060.1h-2.6c-1.208-.548-7.709-3.365-13.961-3.4-4.51-.025-9.648,3.345-9.958,3.381-.783.093,2.613.123,2.613.123s5.09-2.252,7.376-2.3c2.18-.051,7.02,1.534,8.953,2.2H4338.31a2.22,2.22,0,0,0-2.213,2.213v16.6a2.219,2.219,0,0,0,2.213,2.213h22.13a2.219,2.219,0,0,0,2.213-2.213v-16.6A2.22,2.22,0,0,0,4360.439,2060.1Z" transform="translate(-4328.904 -2056.697)" fill="#a6b6b6"/>
          <path id="Rectangle_565" data-name="Rectangle 565" d="M10.511,0h5.533A10.512,10.512,0,0,1,26.556,10.512v0A10.511,10.511,0,0,1,16.045,21.023H10.512A10.512,10.512,0,0,1,0,10.511v0A10.511,10.511,0,0,1,10.511,0Z" transform="translate(0 3.399)" fill="#849a9a"/>
        </g>
        <path id="Path_3662" data-name="Path 3662" d="M4373.808,1663.6c.159,7.5-.776,22.441-.776,22.441h-4.425c-2.09-10.512-2.827-17.274-2.827-20.962q0-1.09.009-2.029c.027-3.15.113-4.979.113-4.979-.83-19.085,2.982-29.29,4.178-30.7s6.676-2.669,6.676-2.669a75.105,75.105,0,0,1,2.547,9.514c.738,4.241-5.8,22.063-5.532,28.154C4373.786,1662.759,4373.8,1663.169,4373.808,1663.6Z" transform="translate(-4355.965 -1593.831)" fill="#a4acac"/>
        <g id="Group_1854" data-name="Group 1854" transform="translate(71.063 74.879)">
          <path id="Path_3663" data-name="Path 3663" d="M4768.629,1911.072h-3.58a.65.65,0,0,0-.645.648v97.468a.649.649,0,0,0,.645.647h3.58a.648.648,0,0,0,.646-.647V1911.72A.649.649,0,0,0,4768.629,1911.072Z" transform="translate(-4764.404 -1911.072)" fill="#caeaea"/>
          <g id="Group_1853" data-name="Group 1853">
            <path id="Path_3664" data-name="Path 3664" d="M4768.629,1911.072h-3.58a.65.65,0,0,0-.645.648v3.02h4.871v-3.02A.649.649,0,0,0,4768.629,1911.072Z" transform="translate(-4764.404 -1911.072)" fill="#636c6c"/>
            <path id="Path_3665" data-name="Path 3665" d="M4764.4,2535.291a.649.649,0,0,0,.645.647h3.58a.648.648,0,0,0,.646-.647v-2.605H4764.4Z" transform="translate(-4764.404 -2437.175)" fill="#636c6c"/>
          </g>
          <path id="Path_3666" data-name="Path 3666" d="M4778.42,1952.641a.37.37,0,0,0-.369.369V2038.8a.369.369,0,1,0,.737,0V1953.01A.369.369,0,0,0,4778.42,1952.641Z" transform="translate(-4775.955 -1946.254)" fill="#636c6c"/>
        </g>
        <path id="Path_3667" data-name="Path 3667" d="M4373.032,1895.671s.935-14.939.776-22.441a15.678,15.678,0,0,0-8.02-.55q-.008.938-.009,2.029c0,3.688.737,10.451,2.827,20.962-.922,3.872-.861,8.053.737,8.79s6.885-2.029,6.823-3.258S4373.032,1895.671,4373.032,1895.671Z" transform="translate(-4355.965 -1803.457)" fill="#d9935c"/>
        <path id="Path_3668" data-name="Path 3668" d="M4657.809,1852.338c-.431-1.582-.752-2.459-1.841-3.227-1.582-1.117-3.46-.814-4.861-.568a5.376,5.376,0,0,1-2.662-.351c-2.479-1.653-8.7-5.06-11.8-6.588a12.943,12.943,0,0,0-5.937,8.389c4.771,2.1,15.212,2.068,17.2,1.608a8.482,8.482,0,0,0,3.241,1.461,4.867,4.867,0,0,0,1.823-.317,2.478,2.478,0,0,1,2.746.873,3.39,3.39,0,0,0,1.938,1.3C4658.223,1854.92,4658.08,1853.334,4657.809,1852.338Z" transform="translate(-4580.184 -1777.398)" fill="#d9935c"/>
      </g>
    </g>
    <g id="Group_2612" data-name="Group 2612" transform="translate(30)">
      <g id="Group_1856" data-name="Group 1856" transform="translate(1005.226 2184.74)">
        <rect id="Rectangle_566" data-name="Rectangle 566" width="26.556" height="21.023" rx="10.512" fill="#abb4b4"/>
        <path id="Path_4496" data-name="Path 4496" d="M10.512,0h5.532a10.512,10.512,0,1,1,0,21.023H10.512A10.512,10.512,0,0,1,0,10.512H0A10.512,10.512,0,0,1,10.512,0Z" transform="translate(7.192)" fill="#889797"/>
      </g>
    </g>
    <path id="Path_3669" data-name="Path 3669" d="M2233.315,2016.188s5.256-3.873,6.04-3.78,2.029.369,2.029.369l-4.7,3.55Z" transform="translate(-1186.479 168.645)" fill="#849a9a"/>
    <path id="Path_3670" data-name="Path 3670" d="M2303.909,1620.223c-2.108-1.593-7.028-2.925-9.493-3.205-.579-.065-2.311-.072-2.329-.072,0,1.772-3.774,3.3-6.851,3.1-2.593-.17-4.276-2.141-4.276-3.209l0,0c-.2,0-10.3,7.013-11.573,14a7.736,7.736,0,0,0-.132,1.4c-.041,33.237-2.054,38.334-1.418,38.323,0,0,3.781,2.908,10.8,3.6.907.09,1.868.142,2.882.146a41.4,41.4,0,0,0,8.474-.841,38.355,38.355,0,0,0,3.895-1.011c4.911-1.557,7.836-3.616,7.813-4.2-.024-.655.1-1.486.015-2.419-.306-3.519-.474-6.593-.6-9.689a36.166,36.166,0,0,0,8.4-.059C2313.875,1646.681,2306.76,1622.377,2303.909,1620.223Zm-1.245,27.053c-.325.087-.677.17-1.053.249-.26.057-.531.11-.812.162-.005-.127-.009-.256-.015-.382-.072-1.741-.153-3.4-.267-4.975-.1-1.32-.214-2.584-.369-3.79C2301.987,1643.389,2303.269,1647.114,2302.664,1647.276Z" transform="translate(-1216.589 504.436)" fill="#dfe7e7"/>
    <path id="Path_3671" data-name="Path 3671" d="M2260.421,1616.854s-7.806,1.183-11.167,3.983-3.7,20.635-4.821,25.677a39.435,39.435,0,0,0-.589,4.535,98.517,98.517,0,0,0,.715,19.838,7.529,7.529,0,0,1-.458,3.311c-.861,2.151-1.045,2.766.492,4s3.2,2.95,4.364,2.459c.9-.38.741-6.355.621-9.067,1.349-5.8,3.532-16.675,5.588-27.218C2257.907,1630.311,2260.421,1616.854,2260.421,1616.854Z" transform="translate(-1196.051 504.42)" fill="#d9935c"/>
    <path id="Path_3672" data-name="Path 3672" d="M2262.627,1616.859s-1.449,7.755-3.347,17.639c-.6,3.137-1.248,6.488-1.909,9.874-2.687,5.265-4.992,8.844-5.7,8.171-1.453-1.372-4-1.542-5.617-1.49a39.518,39.518,0,0,1,.588-4.534c.089-.4.172-.876.253-1.42.94-6.344,1.473-21.678,4.568-24.256a19.07,19.07,0,0,1,6.62-2.982h0c1.186-.33,2.281-.574,3.1-.74C2262.066,1616.944,2262.627,1616.859,2262.627,1616.859Z" transform="translate(-1198.258 504.416)" fill="#dfe7e7"/>
    <path id="Path_3673" data-name="Path 3673" d="M2251.665,1701c-1.453-1.372-4-1.541-5.618-1.49a39.373,39.373,0,0,1,.589-4.535c.089-.4.172-.877.252-1.42l8.054-19.443S2252.377,1701.67,2251.665,1701Z" transform="translate(-1198.255 455.963)" fill="#ced5d5"/>
    <path id="Path_3674" data-name="Path 3674" d="M2364.88,1567.686a59.438,59.438,0,0,0-.352-8.692l-10.833,1.77s0,3.305.048,6.974h-.01s-.3,3.4,3.9,3.9S2364.993,1570.312,2364.88,1567.686Z" transform="translate(-1289.363 553.39)" fill="#d9935c"/>
    <path id="Path_3675" data-name="Path 3675" d="M2265.686,2498.588c1.362-.838.565-7.094.565-7.094s-6.38-5.064-7.24-1.165-6.021,5.668-8.961,6.156c-2.03.337-2.654,1.464-2.846,2.129Z" transform="translate(-1199.234 -233.597)" fill="#232e31"/>
    <path id="Path_3676" data-name="Path 3676" d="M2451.061,1767.095s-2.028,2.742-2.443,2.742-5.533-1.982-4.065-6.416a7.871,7.871,0,0,1,5.044-5.32c.155,1.206.273,2.469.369,3.79.114,1.577.2,3.234.267,4.975.006.125.009.255.015.382.281-.052.552-.105.811-.162Z" transform="translate(-1366.037 384.876)" fill="#ced5d5"/>
    <path id="Path_3677" data-name="Path 3677" d="M2392.909,2498.588c1.361-.838.565-7.094.565-7.094s-6.38-5.064-7.24-1.165-6.021,5.668-8.961,6.156c-2.029.337-2.654,1.464-2.846,2.129Z" transform="translate(-1306.909 -233.597)" fill="#232e31"/>
    <path id="Path_3678" data-name="Path 3678" d="M2351.028,1468.588s7.231-11.4-6.654-12.156c0,0-5.208.613-6.387-.566,0,0-4.039,6.14-.267,12.722S2351.028,1468.588,2351.028,1468.588Z" transform="translate(-1274.479 640.673)" fill="#71605f"/>
    <path id="Path_3679" data-name="Path 3679" d="M2348,1502.076a14.877,14.877,0,0,0,5.031,1.747,40.249,40.249,0,0,0,5.408-1.522c1.288-.781,1.206-2.362,1.272-4.559.079-2.6.341-4.644.051-6.144-.345-1.794-1.483-2.814-4.667-3.092-5.846-.507-8.281.957-8.383,2.916-.026.526-.051,1.028-.068,1.5C2346.41,1499.037,2346.893,1501.2,2348,1502.076Z" transform="translate(-1283.347 613.134)" fill="#d9935c"/>
    <path id="Path_3680" data-name="Path 3680" d="M2346.591,1530.867c.056,3.541,1.012,5.637,1.7,5.9a14.645,14.645,0,0,0,2.711.725c.329.039.644.027.641-.159-.01-.558-.757-1.247-.2-1.741.582-.519,3.7-.694,3.955.438.123.552-.884,1.526-.194,1.549.209-.036.415-.076.611-.127a9.115,9.115,0,0,0,2.405-1.061c1.288-.781,1.2-1.979,1.489-4.159.185-1.41.185-.646,0,1.447-.193,2.19.185,3.6-1.271,4.559-.81.536-5.476,2.632-5.476,2.632.068-1.11-3.91-2.029-4.963-2.857C2347.023,1537.247,2346.533,1535.47,2346.591,1530.867Z" transform="translate(-1283.347 577.196)" fill="#71605f"/>
    <path id="Path_3681" data-name="Path 3681" d="M2305.141,1745.36c.022.588-2.9,2.648-7.814,4.2-.4.126-.806.247-1.226.364a.014.014,0,0,0-.01.012c-.458,5.375-1.7,12.968-2.817,20.3v0c-.29,1.9-.57,3.781-.828,5.6a111.247,111.247,0,0,0-1.249,12.365v.033c-.024,1.45,1.2,5.066,1.291,5.9.057.511.1,1.051.137,1.618a65.645,65.645,0,0,1-.1,7.791c-.8,12.459-4.094,28.4-5.269,29.078-2.335,1.35-6.583,0-8.743-.317a1.784,1.784,0,0,1-1.564-1.8c1.055-20.676-1.975-49.472-4.24-67.174-.058-.461-.117-.913-.175-1.357-.271-2.088-.45-4.037-.562-5.794-.1-1.542-.153-2.941-.175-4.155-.006-.378-.009-.74-.011-1.081-.005-1.108.876-8.363.917-41.6h0a1.4,1.4,0,0,1,1.4-1.4h20.326a3.523,3.523,0,0,1,3.52,3.571,56.581,56.581,0,0,0,.61,9.454c.75,4.615,2.357,8.926,5.673,9.964a.012.012,0,0,1,.008.007c.015.033.105.235.251.572a.013.013,0,0,1,0,.005q.047,1.252.105,2.55c.007.174.015.348.024.524,0,.1.01.2.015.308.008.175.017.352.026.529.013.292.027.585.044.882.013.232.026.465.039.7q.036.675.081,1.365c.007.148.016.293.027.443.039.594.08,1.2.125,1.8.013.186.028.373.043.561.006.091.013.181.021.271.018.238.036.476.057.716s.042.507.064.764C2305.237,1743.874,2305.116,1744.705,2305.141,1745.36Z" transform="translate(-1220.035 427.317)" fill="#404b51"/>
    <path id="Path_3682" data-name="Path 3682" d="M2293.548,2043.24c-.8,12.459-4.094,28.4-5.269,29.078-2.335,1.35-6.584,0-8.743-.317a1.784,1.784,0,0,1-1.564-1.8c1.055-20.676-1.975-49.473-4.24-67.175q-.089-.691-.175-1.357c-.271-2.088-.45-4.037-.563-5.794,1.077-7.019,7.156-7.395,12.668,7.124C2288.025,2008.627,2293.731,2040.385,2293.548,2043.24Z" transform="translate(-1221.063 187.625)" fill="#384248"/>
    <path id="Path_3683" data-name="Path 3683" d="M2354.986,1969.769c.167,1.44,1.853,4.865,2.055,5.681,2.787,11.207,1.247,37.779-.135,38.842-2.137,1.645-6.527.863-8.709.834a1.783,1.783,0,0,1-1.786-1.574c-1.713-21.172-8.813-50.252-13.38-67.358a80.293,80.293,0,0,1-2.625-14.952s21.34-13.075,23.648-5.932C2356.1,1931.629,2353.7,1958.71,2354.986,1969.769Z" transform="translate(-1269.652 245.166)" fill="#404b51"/>
    <g id="Group_1859" data-name="Group 1859" transform="translate(1060.64 2091.111)">
      <path id="Path_3684" data-name="Path 3684" d="M2346.534,1424.679a11.235,11.235,0,0,0-1.634-1.686c-.166-.143-.345-.288-.535-.432a8.52,8.52,0,0,0-8.735-1.347,8.3,8.3,0,0,0-2.542,1.652q-.248.234-.469.482c-3.226,3.579-2.953,9.192-2.953,9.192l18.614-.2C2348.341,1427.145,2346.534,1424.679,2346.534,1424.679Z" transform="translate(-2329.661 -1420.544)" fill="#f7ffff"/>
      <g id="Group_1858" data-name="Group 1858" transform="translate(0.006 2.188)">
        <path id="Path_3685" data-name="Path 3685" d="M2411.2,1444.448c-.005-.07-.55-7.092,1.843-9.4a3.674,3.674,0,0,0-.317-.262c-2.52,2.623-2.57,9.378-2.549,9.675Z" transform="translate(-2397.811 -1434.785)" fill="#c8dada"/>
        <path id="Path_3686" data-name="Path 3686" d="M2336.114,1445.269a23.668,23.668,0,0,0-2.994-9.6,4.158,4.158,0,0,0-.343.352,27.161,27.161,0,0,1,2.236,9.264l-5.314.057a40.615,40.615,0,0,0,8.692,1.235,63.474,63.474,0,0,0,9.922-1.434Z" transform="translate(-2329.698 -1435.529)" fill="#c8dada"/>
      </g>
    </g>
    <path id="Path_3687" data-name="Path 3687" d="M2409.6,1618.669s-6.289,7.326-6.658,13.719h3.2a30.612,30.612,0,0,1,5.548-13.282Z" transform="translate(-1331.047 502.884)" fill="#404b51"/>
    <path id="Path_3688" data-name="Path 3688" d="M2299.162,1618.563a32.12,32.12,0,0,0-5.04,13.735h-3.2c.265-5.025,3.391-10.377,5.134-13h0C2297.248,1618.973,2298.343,1618.729,2299.162,1618.563Z" transform="translate(-1236.238 502.974)" fill="#404b51"/>
    <path id="Path_3689" data-name="Path 3689" d="M2373.05,1645.349a66.717,66.717,0,0,0-1.088-8.775,27.963,27.963,0,0,1-.353,4.648c.791,6.3.485,11.121-.919,13.848a9.4,9.4,0,0,1-3.533,3.858,11.173,11.173,0,0,0,1.953-2.579c1.08-1.935,2.073-5.536,1.705-12.178-.074.189-.152.372-.235.549,0,0-.274.047-.8.1.216,4.857-.3,8.576-1.543,10.8a9.18,9.18,0,0,1-3.738,3.746,11.018,11.018,0,0,0,1.33-1.605c1.281-1.882,2.617-5.583,2.675-12.846q-.479.028-1.063.044c-.059,5.568-.88,9.711-2.427,11.976-.071.1-.146.21-.221.311,1.173-2.013,2.295-5.661,2.352-12.281-.333.005-.688.008-1.065.005-.056,5.563-.88,9.7-2.424,11.965a8.769,8.769,0,0,1-3.576,3.1c-.426-.073-.862-.169-1.3-.286-.059-.013-.118-.029-.176-.047l-.019-.005c-.057-.015-.116-.032-.174-.049q-.8-.233-1.554-.532c-6.149-2.442-9.677-7.94-10.021-12.461a72.731,72.731,0,0,1,.666-13.191c1.278-10.247,4.061-22.126,7.445-26.847.058-.079.112-.157.169-.232,0,0,0,0,0,0,.071-.093.142-.184.214-.269.125-.15.249-.291.375-.419l0,0a4.155,4.155,0,0,1,.789-.645,2.078,2.078,0,0,1,.233.162,4.488,4.488,0,0,1,.784.808s.005.005.007.009c.353.076.72.164,1.095.259.174.047.353.093.532.145a.131.131,0,0,1,.034.008c.042.009.084.022.125.034.22.061.439.125.661.191l.377.117c.148.047.3.094.443.143s.321.108.48.164.337.12.5.182l-.01-.015c-1.992-3.14-3.408-3.871-4.327-3.828a2.555,2.555,0,0,0-.431.058,1.812,1.812,0,0,0-.461-.062,2.766,2.766,0,0,0-.926.17,4.97,4.97,0,0,0-2.972,1.79c-.071.073-.14.151-.211.23a18.266,18.266,0,0,0-1.717,2.332l-.01.015c-5.45,8.613-10.531,27.747-10.834,36.7-.238,7.087,5.218,13.424,10.732,16.019a16.552,16.552,0,0,0,1.6.657c.3.1.595.2.889.281l.019.005a12.256,12.256,0,0,0,3.317.48c.228,0,.453-.007.676-.022.23.015.458.022.684.022a9.773,9.773,0,0,0,2.874-.419c.144-.007.287-.017.429-.027.121-.012.243-.022.362-.037.233-.027.465-.062.693-.1a11.5,11.5,0,0,0,1.947-.15,9.825,9.825,0,0,0,5.176-2.515,11.166,11.166,0,0,0,2.312-3.092C2372.506,1653.966,2373.321,1650.82,2373.05,1645.349Zm-32.116-.636c.267-7.927,4.6-24.762,9.394-33.851-.167.4-.336.818-.5,1.245-4.529,9.591-8.333,24.845-8.591,32.554a15.415,15.415,0,0,0,2.678,8.922A14.968,14.968,0,0,1,2340.934,1644.713Zm11.411,14.762c-6.82-3.211-10.22-9.857-10.053-14.762.145-4.354,1.521-11.4,3.525-18.373-1.563,7.536-2.435,15.181-2.22,19.877.27,5.947,4.494,10.891,9.213,13.466C2352.655,1659.619,2352.5,1659.549,2352.345,1659.475Zm-7.694-13.329c-.311-6.8,1.839-20.49,5.017-30.312.356-1.1.725-2.149,1.1-3.138.142-.3.284-.593.426-.882-2.447,6.7-4.285,16.279-5.083,24.323a65.568,65.568,0,0,0-.333,10.637c.372,4.907,3.43,9.006,7.188,11.614C2347.732,1655.492,2344.843,1650.338,2344.651,1646.146Z" transform="translate(-1277.659 515.789)" fill="#8c9494"/>
    <path id="Path_3690" data-name="Path 3690" d="M2348.736,1813.029c-.173.026-3.441.622-3.62.648-5.443.8-12.766,1.149-13.529,1.185-.071-.067-2.669-2.487-3.682-2.487s-3.988,1.079-4.291,1.909-.423,2.324.423,2.656a38.061,38.061,0,0,0,5.257,1.245,2.431,2.431,0,0,0,.435,0,91.865,91.865,0,0,0,16.432,3.3,39.261,39.261,0,0,0,4.59.31A24.007,24.007,0,0,0,2348.736,1813.029Z" transform="translate(-1263.712 338.941)" fill="#d9935c"/>
    <g id="P297LW-2" data-name="P297LW" transform="translate(1100.383 2049.923)">
      <path id="Path_3691" data-name="Path 3691" d="M2931.264,1426.834c-2.181,6.678-14.07,18.22-15.714,19.371,0,0-2.766-4.61-2.213-7.192.452-2.108,5.08-9.621,6.665-13.313.083-.192.156-.375.221-.544a3.319,3.319,0,0,0,.306-1.265c-.079-.8-2.6-2.753-5.531-5.068-3.808-3.01-8.308-6.63-9.038-9.132-1.291-4.426-5.763-21.951-5.763-21.951s11.111,2.4,14.246,5.169,16.6,25.818,17.15,31.719A5.525,5.525,0,0,1,2931.264,1426.834Z" transform="translate(-2852.279 -1351.592)" fill="gray"/>
      <path id="Path_3692" data-name="Path 3692" d="M3003.237,1631.479c-2.181,6.678-14.07,18.22-15.713,19.371,0,0-2.766-4.61-2.213-7.192.476-2.217,5.573-10.416,6.886-13.857A17.279,17.279,0,0,1,3003.237,1631.479Z" transform="translate(-2924.252 -1556.237)" fill="#d9935c"/>
      <path id="Path_3693" data-name="Path 3693" d="M2823.508,1334.476l-.008,1.361s.371,4.256-4.87,4.878-9.187-1.278-9.046-4.562a42.39,42.39,0,0,0,1-6.775,14.8,14.8,0,0,0-.186-2.549l10.155-.2,2.991.489Z" transform="translate(-2775.585 -1299.867)" fill="#d9935c"/>
      <path id="Path_3694" data-name="Path 3694" d="M2828.057,1327.114l-.039,7.362a8.59,8.59,0,0,1-3.661.808c-4.668,0-7.684-3.423-9.261-5.907a14.778,14.778,0,0,0-.186-2.549l10.156-.2Z" transform="translate(-2780.095 -1299.867)" fill="#cb7d45"/>
      <path id="Path_3695" data-name="Path 3695" d="M2776.938,2511.477a23.879,23.879,0,0,0-1.634-6.123c-1.142-2.283-8.406-.831-8.406-.831s-1.453,1.245-1.764,7.057Z" transform="translate(-2737.967 -2296.396)" fill="#223537"/>
      <path id="Path_3696" data-name="Path 3696" d="M2997.479,2485.323c-1.707-1.042-.736-8.814-.736-8.814s7.954-6.363,9.047-1.491,7.556,7.059,11.235,7.656c2.54.412,3.326,1.818,3.569,2.65Z" transform="translate(-2933.757 -2270.255)" fill="#223537"/>
      <path id="Path_3697" data-name="Path 3697" d="M2831.417,1851.871a36.71,36.71,0,0,1,.584,4.3c.739,14.423,12.141,47.4,14.18,48.168,3.155,1.191,8.124-1.34,10.723-2.168a2.229,2.229,0,0,0,1.565-2.533c-5.646-25.956-7.721-63.332-8.477-85.461a100.387,100.387,0,0,0-2.294-18.845s-27.807-7.419-27.972,1.966C2819.58,1805.6,2828.937,1838.171,2831.417,1851.871Z" transform="translate(-2784.17 -1694.199)" fill="#42454b"/>
      <path id="Path_3698" data-name="Path 3698" d="M2831.417,1851.871l18.576-37.7a100.387,100.387,0,0,0-2.294-18.845s-27.807-7.419-27.972,1.966C2819.58,1805.6,2828.937,1838.171,2831.417,1851.871Z" transform="translate(-2784.17 -1694.199)" fill="#38444b"/>
      <path id="Path_3699" data-name="Path 3699" d="M2764.269,1805l-14.7,106.541s-6.456,1.557-11.476.312c0,0-4.3-56.663-3.945-70.362s-3.089-36.656.787-39.187S2764.269,1805,2764.269,1805Z" transform="translate(-2710.835 -1701.874)" fill="#42454b"/>
      <path id="Path_3700" data-name="Path 3700" d="M2772.615,1454.918a38.7,38.7,0,0,1-18.391,4.256,81.517,81.517,0,0,1-11.063-.832c-8.727-1.294-13.13-3.731-13.1-4.638.029-.819.087-3.539.19-4.708,1.387-15.992.669-28.431,2.536-37.776.022-.112.044-.225.068-.335,2.469-11.88,6.34-18.7,8.262-21.5a10.632,10.632,0,0,1,1.165-1.5c0,2.217,4.721,4.131,8.57,3.88,3.242-.212,5.346-2.678,5.346-4.013l0,0c.265,0,14.624,9.98,14.636,19.255C2770.893,1448.558,2773.412,1454.933,2772.615,1454.918Z" transform="translate(-2708.287 -1351.592)" fill="gray"/>
      <path id="Path_3701" data-name="Path 3701" d="M2743.181,1587.549c-.008.046-.013.092-.02.136-8.727-1.295-13.13-3.731-13.1-4.638.029-.819.087-3.539.19-4.708,1.387-15.992.669-28.431,2.536-37.775C2737.372,1546.687,2746.788,1562.722,2743.181,1587.549Z" transform="translate(-2708.287 -1480.934)" fill="#777c7c"/>
      <g id="Group_1861" data-name="Group 1861" transform="translate(4.867 71.381)">
        <path id="Path_3702" data-name="Path 3702" d="M2673.933,1632.4l-1.173,3.9-1.166,3.873-50.621-15.227a.6.6,0,0,1-.209-.024.652.652,0,0,1-.2-.1c-.638-.452-.754-2.106-.264-3.97.026-.1.055-.206.087-.311.592-2,1.669-3.487,2.495-3.5a.645.645,0,0,1,.2.026.668.668,0,0,1,.186.09Z" transform="translate(-2620.002 -1617.046)" fill="#c7d6de"/>
        <path id="Path_3703" data-name="Path 3703" d="M2672.76,1657.3l-1.166,3.873-50.621-15.227a.607.607,0,0,1-.209-.024.653.653,0,0,1-.2-.1c-.638-.452-.754-2.106-.264-3.97,2.069,1.553,11.952,8.422,28.82,11.764C2666.562,1657.073,2671.958,1657.289,2672.76,1657.3Z" transform="translate(-2620.002 -1638.043)" fill="#bed4f4"/>
        <path id="Path_3704" data-name="Path 3704" d="M2954.655,1716.685c-.847-.25-2.052,1.305-2.693,3.474s-.474,4.13.373,4.38,2.052-1.306,2.693-3.474S2955.5,1716.935,2954.655,1716.685Z" transform="translate(-2900.627 -1701.353)" fill="#afcdfb"/>
      </g>
      <g id="Group_1862" data-name="Group 1862" transform="translate(0 69.027)">
        <path id="Path_3705" data-name="Path 3705" d="M2596.827,1602.766l-5.968-.968a.687.687,0,0,0-.2-.064.646.646,0,0,0-.2,0c-.819.122-1.691,1.732-2.016,3.8-.019.109-.033.214-.046.321a8.26,8.26,0,0,0,.022,2.438,2.066,2.066,0,0,0,.74,1.45l.02.013a.653.653,0,0,0,.207.07.635.635,0,0,0,.21,0l52.179,8.466.647-3.991.651-4.022Z" transform="translate(-2588.324 -1601.726)" fill="#cdd5dd"/>
        <path id="Path_3706" data-name="Path 3706" d="M2618.516,1613.739c-11.161-.717-17.077-6.619-21.689-10.973l-5.968-.968a.687.687,0,0,0-.2-.064.646.646,0,0,0-.2,0c-.819.122-1.691,1.732-2.016,3.8-.019.109-.033.214-.046.321a8.26,8.26,0,0,0,.022,2.438,3.884,3.884,0,0,0,.74,1.45l.02.013a.653.653,0,0,0,.207.07.635.635,0,0,0,.21,0l52.179,8.466.647-3.991C2641.632,1614.388,2636.255,1614.88,2618.516,1613.739Z" transform="translate(-2588.324 -1601.726)" fill="#bed4f4"/>
        <path id="Path_3707" data-name="Path 3707" d="M2932.425,1657.07c-.872-.137-1.863,1.563-2.214,3.8s.071,4.156.943,4.293,1.864-1.563,2.215-3.8S2933.3,1657.207,2932.425,1657.07Z" transform="translate(-2877.575 -1648.559)" fill="#afcdfb"/>
      </g>
      <path id="Path_3708" data-name="Path 3708" d="M2676.155,1445.237a53.571,53.571,0,0,1-23.388-9.449c-1.121-.837-1.692-1.37-1.692-1.37-6.2-13.038,5.018-35.9,7.069-39.773,2.213-4.179,15.725-6.015,15.725-6.015a73.549,73.549,0,0,0-3,14.622c-.843,8.274-9.835,24.4-9.466,25.757.092.341,1.178,1.057,2.763,1.96,4.7,2.674,13.773,6.986,14.325,8C2679.227,1440.318,2676.155,1445.237,2676.155,1445.237Z" transform="translate(-2639.869 -1352.344)" fill="#d9935c"/>
      <path id="Path_3709" data-name="Path 3709" d="M2826.82,1705.968s6.762-2.7,8.422-1.6,4.426,2.766,4.426,3.873-3.5,4.057-6.455,4.979-8.729-.984-8.729-.984Z" transform="translate(-2788.198 -1619.346)" fill="#d9935c"/>
      <path id="Path_3710" data-name="Path 3710" d="M2670.868,1403.251c-.843,8.274-9.835,24.4-9.466,25.757.092.341,1.178,1.057,2.763,1.96a2.709,2.709,0,0,1-.3.006c-7.074-.312-10.275,3.6-11.093,4.813-1.121-.837-1.692-1.37-1.692-1.37-6.2-13.038,5.018-35.9,7.069-39.773,2.213-4.179,15.725-6.015,15.725-6.015A73.549,73.549,0,0,0,2670.868,1403.251Z" transform="translate(-2639.869 -1352.344)" fill="gray"/>
      <path id="Path_3711" data-name="Path 3711" d="M2815.224,1234.832s-13.007,2.627-14.519-5.5-4.208-13.259,4.032-15.279,10.435.778,11.6,3.368S2818.569,1233.939,2815.224,1234.832Z" transform="translate(-2766.669 -1204.008)" fill="#d9935c"/>
      <path id="Path_3712" data-name="Path 3712" d="M2781.185,1213.159s-2.514-5.367-4.612-7.75-.953-14.3,8.1-13.917,12.3,6.863,12.392,8.1-7.245.286-9.246,1.906-.1,4.29-2.383,5.243-4.1.953-3.718,3.05A4.6,4.6,0,0,1,2781.185,1213.159Z" transform="translate(-2746.889 -1185.49)" fill="#404b51"/>
      <path id="Path_3713" data-name="Path 3713" d="M2774.33,1152.946a14.325,14.325,0,0,0-5.986,2.943c-.144.124-.284.251-.418.38l0,0c-5.37,5.121-3.227,13.272-3.227,13.272a21.476,21.476,0,0,0,1.207,2.858c.492.8,7.622-.123,7.991-1.66a8.991,8.991,0,0,1,1.782-3.135s7.516-.516,8.022-.553a44.548,44.548,0,0,0,6.544-1.809C2790.188,1164.768,2787.46,1149.648,2774.33,1152.946Z" transform="translate(-2737.239 -1152.476)" fill="#d8e8e8"/>
      <path id="Path_3714" data-name="Path 3714" d="M2814.208,1182.356a25.516,25.516,0,0,0-4.973-.559,20.3,20.3,0,0,1-6.357,3.105c-1.987-2.5-7.65-8.54-15.022-10.3l-.064-.017c-.157.2-.246.264-.354.4l0,0a1.612,1.612,0,0,0-.107.142c6,1.046,11.707,7.787,13.665,10.31a33.455,33.455,0,0,1-5.8.884s13.137.245,19.141-2.917A.561.561,0,0,0,2814.208,1182.356Z" transform="translate(-2756.752 -1171.185)" fill="#ced9d9"/>
      <path id="Path_3715" data-name="Path 3715" d="M3002.272,1544.367a3.754,3.754,0,0,1-3.109,3.285c.083-.192.157-.374.221-.544a3.326,3.326,0,0,0,.306-1.265c-.079-.8-2.6-2.753-5.531-5.068a21.088,21.088,0,0,1,0-8.3C2995.172,1528.692,3002.549,1542.8,3002.272,1544.367Z" transform="translate(-2931.439 -1473.543)" fill="#777c7c"/>
      <path id="Path_3716" data-name="Path 3716" d="M2671.241,1657.931s-9.037-.738-11.987,4.518a1.468,1.468,0,0,0,2,1.232s7.644-5.224,11.4-4.819A2.037,2.037,0,0,0,2671.241,1657.931Z" transform="translate(-2648.356 -1580.238)" fill="#777c7c"/>
      <path id="Path_3717" data-name="Path 3717" d="M3029.09,1628.459a32.78,32.78,0,0,1,10.59,2.766s1.31-1.287.787-2.025S3031.636,1625.811,3029.09,1628.459Z" transform="translate(-2961.367 -1554.351)" fill="#777c7c"/>
    </g>
    <g id="Group_1864" data-name="Group 1864" transform="translate(1194.859 2007.889)">
      <path id="Path_3718" data-name="Path 3718" d="M3352.95,1210.491c4.063-20.824,7.786-40.759,7.786-40.759s-11.564,1.752-16.543,5.9-5.483,30.57-7.143,38.039a58.433,58.433,0,0,0-.873,6.718c-.944,10.742.231,26.828,1.121,31.337a24.472,24.472,0,0,1-2.387,6.646s-1.014,3.135,5.625,7.837C3344.766,1269.209,3348.536,1233.126,3352.95,1210.491Z" transform="translate(-3314.626 -1125.047)" fill="#d9935c"/>
      <path id="Path_3719" data-name="Path 3719" d="M3368.019,1169.732s-2.146,11.489-4.957,26.133c-.891,4.647-1.85,9.61-2.829,14.626-3.98,7.8-7.4,13.1-8.45,12.107-2.152-2.032-5.931-2.283-8.323-2.207a58.378,58.378,0,0,1,.873-6.718c.131-.59.254-1.3.374-2.1,1.392-9.4,2.181-32.114,6.768-35.935C3356.455,1171.484,3368.019,1169.732,3368.019,1169.732Z" transform="translate(-3321.91 -1125.047)" fill="#3e5156"/>
      <path id="Path_3720" data-name="Path 3720" d="M3363.062,1267.653c-.891,4.647-1.85,9.61-2.829,14.626-3.98,7.8-7.4,13.1-8.45,12.107-2.152-2.032-5.931-2.283-8.323-2.208a58.375,58.375,0,0,1,.873-6.718c.131-.59.254-1.3.374-2.1l11.932-28.8Z" transform="translate(-3321.91 -1196.834)" fill="#294246"/>
      <path id="Path_3721" data-name="Path 3721" d="M3519.508,1096.893a88.076,88.076,0,0,0-.522-12.877l-16.048,2.623s0,4.9.071,10.331l-.016,0s-.437,5.041,5.771,5.779S3519.675,1100.783,3519.508,1096.893Z" transform="translate(-3456.884 -1052.501)" fill="#d9935c"/>
      <path id="Path_3722" data-name="Path 3722" d="M3502.647,1107.525s3.78,7.745,8.114,7.745,8.39-7.284,8.39-7.284Z" transform="translate(-3456.637 -1072.398)" fill="#cb7d45"/>
      <path id="Path_3723" data-name="Path 3723" d="M3572.26,2504.043a28.273,28.273,0,0,1,1.936-7.254c1.352-2.7,9.958-.983,9.958-.983s1.721,1.476,2.09,8.36Z" transform="translate(-3515.555 -2246.913)" fill="#213b3d"/>
      <path id="Path_3724" data-name="Path 3724" d="M3230.587,2472.756c2.022-1.234.872-10.442.872-10.442s-9.423-7.538-10.718-1.767-8.952,8.363-13.31,9.07c-3.008.487-3.939,2.154-4.228,3.139Z" transform="translate(-3203.202 -2215.687)" fill="#213b3d"/>
      <path id="Path_3725" data-name="Path 3725" d="M3498.986,950.082s10.712-16.891-9.858-18.008c0,0-7.715.908-9.462-.839,0,0-5.985,9.1-.4,18.847S3498.986,950.082,3498.986,950.082Z" transform="translate(-3434.834 -923.195)" fill="#233862"/>
      <path id="Path_3726" data-name="Path 3726" d="M3494.5,999.693c1.56,1.227,6.132,2.445,7.453,2.588,0,0,6.78-1.512,8.012-2.255,1.909-1.157,1.786-3.5,1.884-6.755.117-3.854.506-6.88.075-9.1-.511-2.658-2.2-4.17-6.914-4.581-8.66-.752-12.268,1.417-12.419,4.321-.039.78-.075,1.523-.1,2.227C3492.144,995.19,3492.859,998.4,3494.5,999.693Z" transform="translate(-3447.969 -963.991)" fill="#d9935c"/>
      <path id="Path_3727" data-name="Path 3727" d="M3331.63,1719.545a43.457,43.457,0,0,0-.692,5.09c-.875,17.086-14.382,56.152-16.8,57.063-3.738,1.411-9.625-1.588-12.7-2.569a2.642,2.642,0,0,1-1.853-3c6.688-30.749,9.147-75.027,10.041-101.241a118.967,118.967,0,0,1,2.719-22.325s32.942-8.789,33.137,2.329C3345.653,1664.729,3334.568,1703.314,3331.63,1719.545Z" transform="translate(-3284.728 -1530.899)" fill="#a2a2a2"/>
      <path id="Path_3728" data-name="Path 3728" d="M3387.238,1719.545l-22.006-44.658a118.917,118.917,0,0,1,2.719-22.325s32.942-8.789,33.137,2.329C3401.261,1664.729,3390.177,1703.314,3387.238,1719.545Z" transform="translate(-3340.337 -1530.899)" fill="#919191"/>
      <path id="Path_3729" data-name="Path 3729" d="M3460.754,1664.023l17.415,126.214s7.647,1.844,13.6.369c0,0,5.1-67.126,4.673-83.355s3.659-43.424-.932-46.423S3460.754,1664.023,3460.754,1664.023Z" transform="translate(-3421.181 -1539.992)" fill="#a2a2a2"/>
      <path id="Path_3730" data-name="Path 3730" d="M3425.9,1245.863a2.6,2.6,0,0,1-2.561,2.7l-27.443.419-20.156.308c-.944.016,2.04-7.535,2.1-56.773.014-10.987,17.025-22.81,17.338-22.81l0,0c0,1.582,2.493,4.5,6.335,4.754,4.559.3,10.152-1.969,10.152-4.6a12.235,12.235,0,0,1,1.381,1.783c2.276,3.316,6.86,11.4,9.787,25.475,2.31,11.115,1.422,25.975,3.084,45.148C3426.043,1243.662,3425.864,1244.893,3425.9,1245.863Z" transform="translate(-3349.072 -1125.027)" fill="#fff"/>
      <path id="Path_3731" data-name="Path 3731" d="M3424.887,1248.719a55.889,55.889,0,0,1-10.471,3.048,103.2,103.2,0,0,1-20.288,2.038c-13.338.085-18.39-4.513-18.39-4.513-.944.016,2.04-7.535,2.1-56.773.014-10.987,17.025-22.81,17.338-22.81l0,0s-.437,14.631,3.989,18.934c0,0,6.207-4.794,14.26-18.441,2.276,3.316,6.478,12.85,9.406,26.924a76.336,76.336,0,0,1,1.247,9.344c.776,9.711.6,21.569,1.838,35.8.122,1.385-.057,2.615-.022,3.585C3425.957,1247.325,3426.349,1248.7,3424.887,1248.719Z" transform="translate(-3349.072 -1125.027)" fill="#404b51"/>
      <path id="Path_3732" data-name="Path 3732" d="M3610.052,1400.436a55.874,55.874,0,0,1-10.471,3.048c-2.147-3.273-4.852-9.182-5.226-18.493-.634-15.745,14.323-36.022,14.323-36.022l.571,9.221c.776,9.711.6,21.569,1.838,35.8.122,1.385-.057,2.615-.022,3.585C3611.122,1399.042,3611.515,1400.414,3610.052,1400.436Z" transform="translate(-3534.238 -1276.744)" fill="#28484c"/>
      <path id="Path_4495" data-name="Path 4495" d="M0,0H29.439V40.382H0Z" transform="matrix(0.866, -0.5, 0.5, 0.866, 37.365, 85.096)" fill="#e6e6e6"/>
      <path id="Path_3733" data-name="Path 3733" d="M3497.626,1175.894c-3.122-2.36-10.456-4.035-14.065-4.747-1.272-.251-2.082-.382-2.082-.382.376,1.735,1.223,4.457,2.329,7.725,4.636,13.7,13.825,36.986,11.974,37.482a50.971,50.971,0,0,1-5.555,1.07c-8.06,1.18-18.906,1.7-20.041,1.755-.089-.083-3.952-3.684-5.457-3.684-1.522,0-5.908,1.6-6.355,2.828s-.627,3.442.626,3.934a56.282,56.282,0,0,0,7.788,1.844,3.563,3.563,0,0,0,.646-.006,135.991,135.991,0,0,0,24.344,4.885,78.7,78.7,0,0,0,14.146.408C3512.39,1215.089,3501.849,1179.086,3497.626,1175.894Z" transform="translate(-3418.883 -1125.921)" fill="#d9935c"/>
      <path id="Path_3734" data-name="Path 3734" d="M3644.751,1230.843a78.695,78.695,0,0,1-14.146-.408,16.9,16.9,0,0,0-1.551-11.555,50.948,50.948,0,0,0,5.555-1.07c1.851-.5-7.338-23.786-11.974-37.482-.37-4.428-.566-7.391-.566-7.391l.319.048c3.609.712,10.943,2.386,14.065,4.747C3640.676,1180.924,3651.217,1216.927,3644.751,1230.843Z" transform="translate(-3557.709 -1127.76)" fill="#3e5156"/>
      <path id="Path_3735" data-name="Path 3735" d="M3529.251,1180.364s12.417-5.471,12.6-5.9a9.837,9.837,0,0,0-1.475-4.733s5.963.553,6.332-.185.645-6.807.645-6.807a10.022,10.022,0,0,0-5.555-2.815s-2.7,6.705-3.7,8.7C3535.459,1173.91,3529.251,1180.364,3529.251,1180.364Z" transform="translate(-3479.154 -1116.745)" fill="#6a6a6a"/>
      <path id="Path_3736" data-name="Path 3736" d="M3474.3,1169.688a41.416,41.416,0,0,0,2.951,10.819s-6.485-4.518-7.038-5.994,1.567-4.334,1.567-4.334-3.873-.092-3.965-1.383,1.2-6.362,1.2-6.362,3.331-2.432,4.253-2.34Z" transform="translate(-3427.153 -1116.888)" fill="#676f6f"/>
      <g id="Group_1863" data-name="Group 1863" transform="translate(40.583 0)">
        <path id="Path_3737" data-name="Path 3737" d="M3494.916,896.383l-27.575.295s-.4-8.315,4.374-13.617q.327-.368.694-.714a12.3,12.3,0,0,1,3.767-2.448c5.512-2.3,10.084-.177,12.94,2,.282.213.547.427.793.64a16.607,16.607,0,0,1,2.421,2.5S3495.006,888.685,3494.916,896.383Z" transform="translate(-3467.332 -878.906)" fill="#dfe7e7"/>
        <path id="Path_3738" data-name="Path 3738" d="M3487.217,914.59c-.076-1.12-.562-10.656,2.787-13.889a5.2,5.2,0,0,0-.457-.382c-3.572,3.717-3.856,13.1-3.84,14.286l-8.816.094c-.261-6.754-3.988-13.479-4.436-14.229a6.269,6.269,0,0,0-.508.522,40.231,40.231,0,0,1,3.313,13.725l-7.872.084s7.344,1.9,12.876,1.83,14.7-2.125,14.7-2.125Z" transform="translate(-3467.379 -897.03)" fill="#d5d8d8"/>
      </g>
    </g>
  </g>
</svg>
