<svg xmlns="http://www.w3.org/2000/svg" width="878.919" height="608.098" viewBox="0 0 878.919 608.098">
  <g id="Group_3067" data-name="Group 3067" transform="translate(-776 -4563)">
    <g id="Group_3026" data-name="Group 3026" transform="translate(857.448 4683.42)" opacity="0.452">
      <path id="Path_5233" data-name="Path 5233" d="M262.638-245.924,225.72-309.87l36.918-63.946h73.837L373.4-309.87l-36.92,63.946Z" transform="translate(-225.72 373.815)" fill="#eaeaea"/>
    </g>
    <g id="Group_3021" data-name="Group 3021" transform="translate(1423.448 4943.42)" opacity="0.452">
      <path id="Path_5233-2" data-name="Path 5233" d="M262.638-245.924,225.72-309.87l36.918-63.946h73.837L373.4-309.87l-36.92,63.946Z" transform="translate(-225.72 373.815)" fill="#eaeaea"/>
    </g>
    <g id="Group_3024" data-name="Group 3024" transform="translate(1064.722 4563)" opacity="0.452">
      <path id="Path_5234" data-name="Path 5234" d="M385.154-318.075l-36.918-63.946,36.918-63.945h73.837l36.92,63.945-36.92,63.946Z" transform="translate(-348.236 445.966)" fill="#eaeaea"/>
    </g>
    <g id="Group_3025" data-name="Group 3025" transform="translate(1442.042 4620.415)" opacity="0.452">
      <path id="Path_5235" data-name="Path 5235" d="M586.571-342.47,565.3-379.31l21.27-36.84H629.11l21.271,36.84L629.11-342.47Z" transform="translate(-565.302 416.151)" fill="#eaeaea"/>
    </g>
    <g id="Group_3027" data-name="Group 3027" transform="translate(906.018 5062.96)" opacity="0.452">
      <path id="Path_5236" data-name="Path 5236" d="M277.474-77.723,256.2-114.563l21.269-36.84h42.539l21.271,36.84-21.271,36.84Z" transform="translate(-256.204 151.403)" fill="#eaeaea"/>
    </g>
    <path id="Path_5346" data-name="Path 5346" d="M244.048-65.931,179.069-178.48l64.979-112.549H374.005L438.988-178.48,374.005-65.931Z" transform="translate(596.932 5115.028)" fill="#eaeaea"/>
    <path id="Path_5345" data-name="Path 5345" d="M363.843-137.695,298.864-250.244l64.979-112.549H493.8l64.983,112.549L493.8-137.695Z" transform="translate(683.135 5068.792)" fill="#eaeaea"/>
    <path id="Path_5343" data-name="Path 5343" d="M485.715-68.729,420.736-181.278l64.979-112.549H615.673l64.983,112.549L615.673-68.729Z" transform="translate(768.264 5117.827)" fill="#eaeaea"/>
    <path id="Path_5344" data-name="Path 5344" d="M605.623-140.984,540.644-253.533l64.979-112.549H735.581l64.983,112.549L735.581-140.984Z" transform="translate(854.355 5072.082)" fill="#eaeaea"/>
    <g id="Group_3022" data-name="Group 3022" transform="translate(1189 4584)">
      <path id="Path_5242" data-name="Path 5242" d="M483.638-208.551,418.659-321.1l64.979-112.549H613.6L678.579-321.1,613.6-208.551Z" transform="translate(-418.659 433.649)" fill="#eaeaea"/>
    </g>
    <g id="Group_3023" data-name="Group 3023" transform="translate(982 4946)">
      <path id="Path_5245" data-name="Path 5245" d="M364.841,1.849,299.862-110.7l64.979-112.549H494.8L559.781-110.7,494.8,1.849Z" transform="translate(-299.862 223.249)" fill="#eaeaea"/>
    </g>
    <text id="Gallery" transform="translate(877 4949)" fill="#21232a" font-size="18" font-family="HelveticaNeue-Bold, Helvetica Neue" font-weight="700"><tspan x="0" y="0">Gallery</tspan></text>
    <text id="Add_Images" data-name="Add Images" transform="translate(1060 4837)" fill="#21232a" font-size="18" font-family="HelveticaNeue-Bold, Helvetica Neue" font-weight="700"><tspan x="0" y="0">Add Images</tspan></text>
    <text id="Contacts" transform="translate(1072 5067)" fill="#21232a" font-size="18" font-family="HelveticaNeue-Bold, Helvetica Neue" font-weight="700"><tspan x="0" y="0">Contacts</tspan></text>
    <text id="Notification" transform="translate(1269 4713)" fill="#21232a" font-size="18" font-family="HelveticaNeue-Bold, Helvetica Neue" font-weight="700"><tspan x="0" y="0">Notification</tspan></text>
    <text id="Plant_Shutdown_Message" data-name="Plant Shutdown
Message" transform="translate(1319 4954)" fill="#21232a" font-size="18" font-family="HelveticaNeue-Bold, Helvetica Neue" font-weight="700"><tspan x="-67.842" y="0">Plant Shutdown</tspan><tspan x="-38.826" y="22">Message</tspan></text>
    <text id="SUG" transform="translate(1505 4836)" fill="#21232a" font-size="18" font-family="HelveticaNeue-Bold, Helvetica Neue" font-weight="700"><tspan x="0" y="0">SUG</tspan></text>
    <text id="View_photos_taken_at_different_plants" data-name="View photos taken
at different plants" transform="translate(904 4972)" fill="#21232a" font-size="14" font-family="HelveticaNeue, Helvetica Neue"><tspan x="-57.694" y="0">View photos taken</tspan><tspan x="-54.481" y="22">at different plants</tspan></text>
    <text id="Upload_images_from_plants" data-name="Upload images from
plants" transform="translate(1111 4864)" fill="#21232a" font-size="14" font-family="HelveticaNeue, Helvetica Neue"><tspan x="-63.406" y="0">Upload images from</tspan><tspan x="-19.061" y="22">plants</tspan></text>
    <text id="Search_for_employee_contact_details" data-name="Search for employee
contact details" transform="translate(1111 5094)" fill="#21232a" font-size="14" font-family="HelveticaNeue, Helvetica Neue"><tspan x="-64.694" y="0">Search for employee</tspan><tspan x="-46.025" y="22">contact details</tspan></text>
    <text id="View_SMS_being_sent_or_received" data-name="View SMS being
sent or received" transform="translate(1318 4742)" fill="#21232a" font-size="14" font-family="HelveticaNeue, Helvetica Neue"><tspan x="-51.205" y="0">View SMS being</tspan><tspan x="-50.043" y="22">sent or received</tspan></text>
    <text id="Send_SMS_alerts_to_customers" data-name="Send SMS alerts 
to customers" transform="translate(1319 5001)" fill="#21232a" font-size="14" font-family="HelveticaNeue, Helvetica Neue"><tspan x="-54.453" y="0">Send SMS alerts </tspan><tspan x="-41.104" y="22">to customers</tspan></text>
    <text id="Overview_proof_of_bank_deposits" data-name="Overview proof of
bank deposits" transform="translate(1524 4863)" fill="#21232a" font-size="14" font-family="HelveticaNeue, Helvetica Neue"><tspan x="-55.475" y="0">Overview proof of</tspan><tspan x="-44.219" y="22">bank deposits</tspan></text>
    <g id="review_1_" data-name="review (1)" transform="translate(1503 4751)">
      <g id="Group_2583" data-name="Group 2583">
        <g id="Group_2582" data-name="Group 2582">
          <path id="Path_4370" data-name="Path 4370" d="M47.258,9.845A2.954,2.954,0,0,0,44.3,6.892H40.366V8.861H44.3a.985.985,0,0,1,.985.985V36.122l-4.907-4.907A11.053,11.053,0,0,0,38.552,18c-.051-.051-.1-.1-.155-.151V.985A.985.985,0,0,0,37.413,0H16.737a.986.986,0,0,0-.156.014l-.034.005L16.5.029l-.05.013-.031.011c-.02.007-.04.013-.06.021l-.023.011c-.022.01-.043.019-.064.03l-.022.013c-.021.012-.041.023-.061.037l-.031.023c-.016.011-.031.022-.047.035s-.05.043-.073.066L9.149,7.18a.984.984,0,0,0-.288.7V27.567H6.892v1.969H20.333a11.05,11.05,0,0,0,15.809,5.917l2.94,2.944H2.954a.985.985,0,0,1-.985-.985V9.845a.985.985,0,0,1,.985-.985H6.892V6.892H2.954A2.954,2.954,0,0,0,0,9.845V37.413a2.954,2.954,0,0,0,2.954,2.954H17.181c-.479,4.733-4.406,4.918-4.875,4.923a.985.985,0,0,0,0,1.969H34.951a.985.985,0,0,0,0-1.969c-.185,0-4.374-.06-4.874-4.923H41.05l1.092,1.093a3,3,0,0,0,5.111-2.077h.005ZM30.215,45.289H17.043A7.8,7.8,0,0,0,19.2,40.366h8.857A7.794,7.794,0,0,0,30.215,45.289ZM10.83,27.567V8.284l4.923-4.923V6.892H13.784V8.861h2.954a.985.985,0,0,0,.985-.985V1.969H36.428V16.346a11.06,11.06,0,0,0-10.254-.593H13.784v1.969h9.437a11.09,11.09,0,0,0-2.263,2.954H13.784v1.969h6.37a11.109,11.109,0,0,0-.324,4.923h-9Zm10.831-1.749A9.079,9.079,0,1,1,37.2,32.2l-.083.083a9.079,9.079,0,0,1-15.457-6.461Zm17.617,7.089,1.452,1.451-1.454,1.454-1.452-1.451Zm4.256,7.164L40.668,37.2l1.454-1.454,2.866,2.866a1.026,1.026,0,0,1,.3.722v.01a1.027,1.027,0,0,1-1.754.722Z" fill="#707070"/>
          <path id="Path_4371" data-name="Path 4371" d="M279.232,205.7l1.392,1.392a5.061,5.061,0,0,1,7.148,0l1.392-1.392A7.032,7.032,0,0,0,279.232,205.7Z" transform="translate(-253.459 -184.854)" fill="#707070"/>
          <path id="Path_4372" data-name="Path 4372" d="M42.667,341.333v3.938a.985.985,0,0,0,.985.985H47.59v-1.969H44.636v-2.954H42.667Z" transform="translate(-38.729 -309.828)" fill="#707070"/>
          <rect id="Rectangle_713" data-name="Rectangle 713" width="1.969" height="1.969" transform="translate(10.83 34.459)" fill="#707070"/>
          <rect id="Rectangle_714" data-name="Rectangle 714" width="19.691" height="1.969" transform="translate(13.784 10.83)" fill="#707070"/>
        </g>
      </g>
    </g>
    <g id="add" transform="translate(1090 4751.389)">
      <path id="Path_5347" data-name="Path 5347" d="M105.271,0H69.953a3.9,3.9,0,0,0-3.89,3.89V39.325a3.9,3.9,0,0,0,3.89,3.89h3.26a.851.851,0,0,0,0-1.7h-3.26a2.191,2.191,0,0,1-2.188-2.188V3.89A2.191,2.191,0,0,1,69.953,1.7h35.318a2.191,2.191,0,0,1,2.188,2.188V39.325a2.191,2.191,0,0,1-2.188,2.188H95.035a9.937,9.937,0,0,0-14.846,0H77.141a.851.851,0,0,0,0,1.7h1.823a9.952,9.952,0,1,0,17.687,9.09.851.851,0,0,0-1.545-.714,8.255,8.255,0,1,1,.757-3.457.851.851,0,1,0,1.7,0,9.891,9.891,0,0,0-1.3-4.92h9.01a3.9,3.9,0,0,0,3.89-3.89V3.89A3.894,3.894,0,0,0,105.271,0Z" transform="translate(-66.063 0)" fill="#707070"/>
      <path id="Path_5348" data-name="Path 5348" d="M131.485,35.331a.851.851,0,0,0,.851-.851V30.914a.851.851,0,0,0-.851-.851H96.891a.851.851,0,0,0-.851.851V60.49a.851.851,0,0,0,.851.851h34.594a.851.851,0,0,0,.851-.851V38.417a.851.851,0,0,0-1.7,0V53.358l-7.385-7.385a.851.851,0,0,0-1.2,0l-4.985,4.985-7.682-7.682a.851.851,0,0,0-1.2,0l-7.2,7.2H97.742V31.765h32.892V34.48a.851.851,0,0,0,.851.851ZM101.331,52.176a.851.851,0,0,0,.6-.249l6.845-6.845,7.682,7.682a.851.851,0,0,0,1.2,0l4.985-4.985,7.987,7.987v3.875H97.742V52.176Z" transform="translate(-92.639 -26.652)" fill="#707070"/>
      <path id="Path_5349" data-name="Path 5349" d="M241.177,78.618a4.472,4.472,0,1,0,4.472-4.472A4.477,4.477,0,0,0,241.177,78.618Zm7.243,0a2.77,2.77,0,1,1-2.77-2.77A2.773,2.773,0,0,1,248.42,78.618Z" transform="translate(-221.31 -65.734)" fill="#707070"/>
      <path id="Path_5350" data-name="Path 5350" d="M214.69,388.257a.851.851,0,0,0,.851-.851v-3.585h3.585a.851.851,0,0,0,0-1.7h-3.585v-3.585a.851.851,0,1,0-1.7,0v3.585h-3.585a.851.851,0,0,0,0,1.7h3.585v3.585A.851.851,0,0,0,214.69,388.257Z" transform="translate(-193.142 -334.835)" fill="#707070"/>
    </g>
    <g id="attach" transform="translate(884.263 4870.389)">
      <g id="Group_3029" data-name="Group 3029" transform="translate(0 0)">
        <g id="Group_3028" data-name="Group 3028">
          <path id="Path_5351" data-name="Path 5351" d="M332.789,131.063a4.447,4.447,0,1,0,4.447,4.447A4.452,4.452,0,0,0,332.789,131.063Zm0,7.168a2.721,2.721,0,1,1,2.721-2.721A2.724,2.724,0,0,1,332.789,138.231Z" transform="translate(-300.011 -120.19)" fill="#707070"/>
          <path id="Path_5352" data-name="Path 5352" d="M362.659,445.539a.85.85,0,0,0-.079-.149.838.838,0,0,0-.238-.238.852.852,0,0,0-.149-.079.812.812,0,0,0-.161-.049.85.85,0,0,0-.337,0,.812.812,0,0,0-.161.049.852.852,0,0,0-.149.079.839.839,0,0,0-.238.238.852.852,0,0,0-.079.149.808.808,0,0,0-.049.161.828.828,0,0,0,0,.336.808.808,0,0,0,.049.161.852.852,0,0,0,.079.149.826.826,0,0,0,.107.131c.02.02.041.039.062.057a.794.794,0,0,0,.069.05.852.852,0,0,0,.149.079.814.814,0,0,0,.161.049.83.83,0,0,0,.337,0,.814.814,0,0,0,.161-.049.852.852,0,0,0,.149-.079.825.825,0,0,0,.069-.05q.033-.027.062-.057a.826.826,0,0,0,.107-.131.852.852,0,0,0,.079-.149.87.87,0,0,0,.05-.161.87.87,0,0,0,0-.336A.869.869,0,0,0,362.659,445.539Z" transform="translate(-329.851 -407.044)" fill="#707070"/>
          <path id="Path_5353" data-name="Path 5353" d="M205.279,49.809a.918.918,0,0,0-.079-.149.866.866,0,0,0-.107-.131.826.826,0,0,0-.131-.107.852.852,0,0,0-.149-.079.871.871,0,0,0-.161-.049.85.85,0,0,0-.337,0,.9.9,0,0,0-.162.049.876.876,0,0,0-.148.079.827.827,0,0,0-.131.107.928.928,0,0,0-.108.131.913.913,0,0,0-.079.149.81.81,0,0,0-.049.161.833.833,0,0,0,0,.337.811.811,0,0,0,.049.161.913.913,0,0,0,.079.149.929.929,0,0,0,.108.131.826.826,0,0,0,.131.107.875.875,0,0,0,.148.079.9.9,0,0,0,.162.049.829.829,0,0,0,.337,0,.871.871,0,0,0,.161-.049.852.852,0,0,0,.149-.079.825.825,0,0,0,.131-.107.866.866,0,0,0,.107-.131.918.918,0,0,0,.079-.149.811.811,0,0,0,.049-.161.833.833,0,0,0,0-.337A.81.81,0,0,0,205.279,49.809Z" transform="translate(-186.051 -45.459)" fill="#707070"/>
          <path id="Path_5354" data-name="Path 5354" d="M39.357,8.864a4.97,4.97,0,0,0-4.828-3.82H7.456A7.465,7.465,0,0,0,0,12.5V39.572a4.967,4.967,0,0,0,4.821,4.959,4.97,4.97,0,0,0,4.828,3.82H39.215a4.968,4.968,0,0,0,4.962-4.962V13.823A4.967,4.967,0,0,0,39.357,8.864Zm3.1,34.525a3.24,3.24,0,0,1-3.237,3.237H9.649a3.238,3.238,0,0,1-3.237-3.237V38.812l9.9-16.784a1.626,1.626,0,0,1,2.829.048L23.4,29.9l6.2,11.376a.863.863,0,0,0,1.516-.825L29.1,36.761a3.559,3.559,0,0,0,2.442-.819l3.88-3.219a1.632,1.632,0,0,1,2.137.053l.2.186,1.726,1.582,2.961,2.714Zm0-8.472L39.491,32.2l-1.726-1.314a3.367,3.367,0,0,0-3.442.506l-3.88,3.219a1.848,1.848,0,0,1-2.8-.539l-2.722-5L23.4,26.285h0L20.656,21.25a3.352,3.352,0,0,0-5.831-.1L6.412,35.415V13.823a3.24,3.24,0,0,1,3.237-3.237h5.332a.863.863,0,1,0,0-1.726H9.649a4.968,4.968,0,0,0-4.962,4.962V42.8a3.24,3.24,0,0,1-2.961-3.224V12.5A5.737,5.737,0,0,1,7.456,6.77H34.528a3.241,3.241,0,0,1,3.026,2.091H21.883a.863.863,0,0,0,0,1.726H37.765l1.726.013a3.24,3.24,0,0,1,2.961,3.224Z" transform="translate(0 -5.044)" fill="#707070"/>
        </g>
      </g>
    </g>
    <g id="Group_3031" data-name="Group 3031" transform="translate(183 -452.364)">
      <path id="Path_5355" data-name="Path 5355" d="M94.586,161.233a.66.66,0,0,0-.66-.66H75.54a.66.66,0,1,0,0,1.32H93.925A.66.66,0,0,0,94.586,161.233Z" transform="translate(1046.019 5181.981)" fill="#707070" stroke="#707070" stroke-width="0.3"/>
      <path id="Path_5356" data-name="Path 5356" d="M90.814,229.5H75.54a.66.66,0,0,0,0,1.32H90.814a.66.66,0,0,0,0-1.32Z" transform="translate(1046.019 5119.125)" fill="#707070" stroke="#707070" stroke-width="0.3"/>
      <path id="Path_5357" data-name="Path 5357" d="M90.814,298.419H75.54a.66.66,0,1,0,0,1.32H90.814a.66.66,0,0,0,0-1.32Z" transform="translate(1046.019 5056.268)" fill="#707070" stroke="#707070" stroke-width="0.3"/>
      <path id="Path_5359" data-name="Path 5359" d="M39.223,92.8a.66.66,0,0,0-.66.66v5.65a3.967,3.967,0,0,1-3.962,3.962H14.58a2.15,2.15,0,0,0-1.486.593l-7.145,6.782L7,104.607a1.3,1.3,0,0,0-1.281-1.533H5.282A3.967,3.967,0,0,1,1.32,99.112V81.068a3.967,3.967,0,0,1,3.962-3.962H28.238a.66.66,0,0,0,0-1.32H5.282A5.288,5.288,0,0,0,0,81.068V99.112a5.289,5.289,0,0,0,5.282,5.283H5.7l-1.135,6.3A1.16,1.16,0,0,0,6.5,111.743l7.5-7.119a.835.835,0,0,1,.577-.23H34.6a5.288,5.288,0,0,0,5.282-5.283v-5.65a.66.66,0,0,0-.66-.66Z" transform="translate(1114.308 5259.305)" fill="#707070" stroke="#707070" stroke-width="0.3"/>
      <g id="Group_3030" data-name="Group 3030" transform="translate(1143.382 5328)">
        <path id="Path_5390" data-name="Path 5390" d="M12.551,24.1A11.551,11.551,0,1,0,1,12.551,11.564,11.564,0,0,0,12.551,24.1Zm0-21.177a9.626,9.626,0,1,1-9.626,9.626A9.637,9.637,0,0,1,12.551,2.925Z" transform="translate(-1 -1)" fill="#707070"/>
        <path id="Path_5391" data-name="Path 5391" d="M12.7,20.43A7.7,7.7,0,0,0,16,5.771L15.177,7.51a5.775,5.775,0,1,1-4.951,0L9.4,5.771A7.7,7.7,0,0,0,12.7,20.43Z" transform="translate(-1.15 -1.178)" fill="#707070"/>
        <path id="Path_5392" data-name="Path 5392" d="M12,4h1.925V8.813H12Z" transform="translate(-1.411 -1.112)" fill="#707070"/>
      </g>
    </g>
    <g id="Communicate" transform="translate(1086 4990)">
      <path id="Path_5403" data-name="Path 5403" d="M21.979,17.709l-3.84-3.841a.776.776,0,0,0-1.1,0l-1.647,1.646a2.328,2.328,0,0,1-3.293,0l-.188-.188a2.328,2.328,0,0,1,0-3.293l1.646-1.647a.776.776,0,0,0,0-1.1L9.719,5.449a.776.776,0,0,0-1.1,0L6.975,7.1a6.992,6.992,0,0,0,0,9.877l3.48,3.48a6.992,6.992,0,0,0,9.877,0l1.647-1.646A.776.776,0,0,0,21.979,17.709Zm-4.389-2.2,2.743,2.744-.549.549-2.743-2.744ZM9.171,7.1l2.743,2.743-.549.549L8.621,7.644Zm2.382,12.261-3.48-3.481a5.441,5.441,0,0,1-.51-7.094l2.759,2.759a3.887,3.887,0,0,0,.494,4.883l.188.188a3.889,3.889,0,0,0,4.883.494l2.759,2.759a5.442,5.442,0,0,1-7.094-.51Z" transform="translate(-0.657 -0.722)" fill="#707070"/>
      <path id="Path_5404" data-name="Path 5404" d="M21.4,25.28H4.328A2.328,2.328,0,0,1,2,22.952V4.328A2.328,2.328,0,0,1,4.328,2H21.4a2.328,2.328,0,0,1,2.328,2.328V22.952A2.328,2.328,0,0,1,21.4,25.28ZM4.328,3.552a.776.776,0,0,0-.776.776V22.952a.776.776,0,0,0,.776.776H21.4a.776.776,0,0,0,.776-.776V4.328a.776.776,0,0,0-.776-.776Z" fill="#707070"/>
      <path id="Path_5405" data-name="Path 5405" d="M21.4,55.728H4.328A2.328,2.328,0,0,1,2,53.4V36.328A2.328,2.328,0,0,1,4.328,34H21.4a2.328,2.328,0,0,1,2.328,2.328V53.4A2.328,2.328,0,0,1,21.4,55.728ZM4.328,35.552a.776.776,0,0,0-.776.776V53.4a.776.776,0,0,0,.776.776H21.4a.776.776,0,0,0,.776-.776V36.328a.776.776,0,0,0-.776-.776Z" transform="translate(0 -7.168)" fill="#707070"/>
      <path id="Path_5406" data-name="Path 5406" d="M20.744,41H6.776A.776.776,0,0,0,6,41.776v9.312a.776.776,0,0,0,.776.776H20.744a.776.776,0,0,0,.776-.776V41.776A.776.776,0,0,0,20.744,41ZM13.76,46.936,8.818,42.552H18.7Zm-2.9-.5-3.31,2.926V43.5Zm1.169,1.037.7.621a1.547,1.547,0,0,0,2.073,0l.7-.621,3.2,2.832H8.824Zm4.634-1.037,3.3-2.936v5.863Z" transform="translate(-0.896 -8.737)" fill="#707070"/>
      <path id="Path_5407" data-name="Path 5407" d="M53.4,2H36.328A2.328,2.328,0,0,0,34,4.328V22.952a2.328,2.328,0,0,0,2.328,2.328h3.88v9.729L39.3,33.085a2.3,2.3,0,0,0-1.062-1.343,2.333,2.333,0,0,0-1.77-.233l-.715.192a1.552,1.552,0,0,0-1.069,1.987L37.923,43.1a.767.767,0,0,0,.141.248l2.1,2.483.042,1.972a.776.776,0,0,0,.776.76H51.848a.776.776,0,0,0,.776-.776v-2.1l1.422-2.132a.781.781,0,0,0,.13-.428V33.039A2.271,2.271,0,0,0,53.5,31.4a2.373,2.373,0,0,0-2.506-.529,2.225,2.225,0,0,0-.6-1.023,2.375,2.375,0,0,0-2.506-.529,2.225,2.225,0,0,0-.6-1.023,2.369,2.369,0,0,0-2.426-.559V25.28H53.4a2.328,2.328,0,0,0,2.328-2.328V4.328A2.328,2.328,0,0,0,53.4,2ZM45.64,29.159a.756.756,0,0,1,.553.237.743.743,0,0,1,.223.539v5.432a.776.776,0,1,0,1.552,0v-3.88a.776.776,0,0,1,.776-.776.756.756,0,0,1,.553.237.743.743,0,0,1,.223.539v3.88a.776.776,0,1,0,1.552,0V33.039a.776.776,0,0,1,.776-.776.756.756,0,0,1,.553.237.743.743,0,0,1,.223.539v9.855L51.2,45.027a.781.781,0,0,0-.13.428v1.552H41.744l-.032-1.491a.776.776,0,0,0-.183-.486L39.342,42.45l-3.185-9.255L36.866,33a.79.79,0,0,1,.6.078.76.76,0,0,1,.359.466c.012.046,2.462,5.248,2.462,5.248a.776.776,0,0,0,1.477-.324V23.038a.84.84,0,0,1,.7-.863.756.756,0,0,1,.625.233.743.743,0,0,1,.223.543V35.367a.776.776,0,0,0,1.552,0V29.935A.776.776,0,0,1,45.64,29.159Zm8.536-6.208a.776.776,0,0,1-.776.776H44.864v-.776a2.271,2.271,0,0,0-.678-1.636,2.3,2.3,0,0,0-1.852-.684,2.388,2.388,0,0,0-2.125,2.406v.689h-3.88a.776.776,0,0,1-.776-.776V4.328a.776.776,0,0,1,.776-.776H53.4a.776.776,0,0,1,.776.776Z" transform="translate(-7.168)" fill="#707070"/>
      <path id="Path_5408" data-name="Path 5408" d="M46.208,8a6.208,6.208,0,0,0,0,12.416h3.1a.776.776,0,1,0,0-1.552h-3.1a4.656,4.656,0,1,1,4.656-4.656v.776a.776.776,0,0,1-1.552,0v-.776a3.13,3.13,0,1,0-1,2.266,2.318,2.318,0,0,0,4.1-1.49v-.776A6.215,6.215,0,0,0,46.208,8Zm0,7.76a1.552,1.552,0,1,1,1.552-1.552A1.552,1.552,0,0,1,46.208,15.76Z" transform="translate(-8.513 -1.344)" fill="#707070"/>
    </g>
    <g id="chat" transform="translate(1301 4612.965)">
      <g id="Group_3033" data-name="Group 3033" transform="translate(0 24.089)">
        <path id="Path_5409" data-name="Path 5409" d="M94.558,161.232a.659.659,0,0,0-.659-.659H75.539a.659.659,0,1,0,0,1.319H93.9A.659.659,0,0,0,94.558,161.232Z" transform="translate(-68.298 -148.576)" fill="#707070"/>
        <path id="Path_5410" data-name="Path 5410" d="M90.792,229.5H75.539a.659.659,0,1,0,0,1.319H90.792a.659.659,0,0,0,0-1.319Z" transform="translate(-68.298 -211.441)" fill="#707070"/>
        <path id="Path_5411" data-name="Path 5411" d="M90.792,298.419H75.539a.659.659,0,1,0,0,1.318H90.792a.659.659,0,0,0,0-1.318Z" transform="translate(-68.298 -274.305)" fill="#707070"/>
        <path id="Path_5412" data-name="Path 5412" d="M307.792,40.859a9.331,9.331,0,0,1-3.489-7.3v-.782a5.753,5.753,0,0,0-3.021-5.059v-.906a2.728,2.728,0,0,0-5.456,0v.906a5.753,5.753,0,0,0-3.021,5.059v.782a9.331,9.331,0,0,1-3.488,7.3,1.527,1.527,0,0,0,.953,2.719h4.214a4.282,4.282,0,0,0,8.139,0h4.214a1.527,1.527,0,0,0,.953-2.719ZM297.146,26.817a1.409,1.409,0,1,1,2.819,0v.392a5.75,5.75,0,0,0-2.819,0Zm1.409,18.393a2.964,2.964,0,0,1-2.648-1.633h5.3A2.964,2.964,0,0,1,298.555,45.21Zm8.284-2.951H290.271a.208.208,0,0,1-.126-.374,10.643,10.643,0,0,0,3.98-8.322v-.782a4.43,4.43,0,0,1,8.86,0v.782a10.644,10.644,0,0,0,3.98,8.322A.208.208,0,0,1,306.839,42.259Z" transform="translate(-263.362 -24.089)" fill="#707070"/>
        <path id="Path_5413" data-name="Path 5413" d="M39.168,92.778a.659.659,0,0,0-.659.659v5.642a3.961,3.961,0,0,1-3.957,3.957H14.559a2.147,2.147,0,0,0-1.484.592L5.94,110.4l1.051-5.835a1.3,1.3,0,0,0-1.279-1.53H5.275a3.961,3.961,0,0,1-3.957-3.957V81.061A3.961,3.961,0,0,1,5.275,77.1H28.2a.659.659,0,0,0,0-1.319H5.275A5.281,5.281,0,0,0,0,81.061V99.079a5.281,5.281,0,0,0,5.275,5.275H5.69l-1.133,6.293a1.159,1.159,0,0,0,1.938,1.046l7.489-7.109a.834.834,0,0,1,.576-.23H34.552a5.281,5.281,0,0,0,5.275-5.275V93.437a.659.659,0,0,0-.659-.659Z" transform="translate(0 -71.242)" fill="#707070"/>
      </g>
    </g>
  </g>
</svg>
