<svg xmlns="http://www.w3.org/2000/svg" width="1086.92" height="608.098" viewBox="0 0 1086.92 608.098">
  <g id="Group_3070" data-name="Group 3070" transform="translate(-745 -1515)">
    <g id="Group_3016" data-name="Group 3016" transform="translate(20 23)">
      <g id="Group_2995" data-name="Group 2995" transform="translate(810.448 1610.42)" opacity="0.452">
        <path id="Path_5233" data-name="Path 5233" d="M262.638-245.924,225.72-309.87l36.918-63.946h73.837L373.4-309.87l-36.92,63.946Z" transform="translate(-225.72 373.815)" fill="#eaeaea"/>
      </g>
      <g id="Group_2996" data-name="Group 2996" transform="translate(1012.722 1492)" opacity="0.452">
        <path id="Path_5234" data-name="Path 5234" d="M385.154-318.075l-36.918-63.946,36.918-63.945h73.837l36.92,63.945-36.92,63.946Z" transform="translate(-348.236 445.966)" fill="#eaeaea"/>
      </g>
      <g id="Group_2997" data-name="Group 2997" transform="translate(1388.042 1542.415)" opacity="0.452">
        <path id="Path_5235" data-name="Path 5235" d="M586.571-342.47,565.3-379.31l21.27-36.84H629.11l21.271,36.84L629.11-342.47Z" transform="translate(-562.302 422.151)" fill="#eaeaea"/>
      </g>
      <g id="Group_2998" data-name="Group 2998" transform="translate(856.018 1999.96)" opacity="0.452">
        <path id="Path_5236" data-name="Path 5236" d="M277.474-77.723,256.2-114.563l21.269-36.84h42.539l21.271,36.84-21.271,36.84Z" transform="translate(-256.204 151.403)" fill="#eaeaea"/>
      </g>
      <path id="Path_5237" data-name="Path 5237" d="M244.048-65.931,179.069-178.48l64.979-112.549H374.005L438.988-178.48,374.005-65.931Z" transform="translate(545.932 2044.028)" fill="#eaeaea"/>
      <path id="Path_5238" data-name="Path 5238" d="M363.843-137.695,298.864-250.244l64.979-112.549H493.8l64.983,112.549L493.8-137.695Z" transform="translate(632.135 1997.792)" fill="#eaeaea"/>
      <path id="Path_5239" data-name="Path 5239" d="M485.715-68.729,420.736-181.278l64.979-112.549H615.673l64.983,112.549L615.673-68.729Z" transform="translate(717.264 2046.827)" fill="#eaeaea"/>
      <path id="Path_5240" data-name="Path 5240" d="M605.623-140.984,540.644-253.533l64.979-112.549H735.581l64.983,112.549L735.581-140.984Z" transform="translate(803.355 2001.082)" fill="#eaeaea"/>
      <path id="Path_5241" data-name="Path 5241" d="M727.355-73.5,662.376-186.05,727.355-298.6H857.313L922.3-186.05,857.313-73.5Z" transform="translate(889.625 2051.6)" fill="#eaeaea"/>
      <g id="Group_2999" data-name="Group 2999" transform="translate(1138 1513)">
        <path id="Path_5242" data-name="Path 5242" d="M483.638-208.551,418.659-321.1l64.979-112.549H613.6L678.579-321.1,613.6-208.551Z" transform="translate(-418.659 433.649)" fill="#eaeaea"/>
      </g>
      <g id="Group_3000" data-name="Group 3000" transform="translate(1552 1513)">
        <path id="Path_5243" data-name="Path 5243" d="M725.355-210.984,660.376-323.533l64.979-112.549H855.313L920.3-323.533,855.313-210.984Z" transform="translate(-660.376 436.082)" fill="#eaeaea"/>
      </g>
      <path id="Path_5244" data-name="Path 5244" d="M607.963-1.11,542.984-113.659l64.979-112.549H737.921L802.9-113.659,737.921-1.11Z" transform="translate(801.016 2101.207)" fill="#eaeaea"/>
      <g id="Group_3001" data-name="Group 3001" transform="translate(931 1875)">
        <path id="Path_5245" data-name="Path 5245" d="M364.841,1.849,299.862-110.7l64.979-112.549H494.8L559.781-110.7,494.8,1.849Z" transform="translate(-299.862 223.249)" fill="#eaeaea"/>
      </g>
      <text id="Receivable" transform="translate(807 1878)" fill="#21232a" font-size="18" font-family="HelveticaNeue-Bold, Helvetica Neue" font-weight="700"><tspan x="0" y="0">Receivable</tspan></text>
      <text id="Consumer_List" data-name="Consumer List" transform="translate(998 1766)" fill="#21232a" font-size="18" font-family="HelveticaNeue-Bold, Helvetica Neue" font-weight="700"><tspan x="0" y="0">Consumer List</tspan></text>
      <text id="Consumer_Status" data-name="Consumer Status" transform="translate(986 1996)" fill="#21232a" font-size="18" font-family="HelveticaNeue-Bold, Helvetica Neue" font-weight="700"><tspan x="0" y="0">Consumer Status</tspan></text>
      <text id="Consumer_Activity" data-name="Consumer Activity" transform="translate(1193 1644)" fill="#21232a" font-size="18" font-family="HelveticaNeue-Bold, Helvetica Neue" font-weight="700"><tspan x="0" y="0">Consumer Activity</tspan></text>
      <text id="Consumer_Service" data-name="Consumer Service" transform="translate(1193 1884)" fill="#21232a" font-size="18" font-family="HelveticaNeue-Bold, Helvetica Neue" font-weight="700"><tspan x="0" y="0">Consumer Service</tspan></text>
      <text id="Overview_of_Cash_Collection" data-name="Overview of Cash
Collection" transform="translate(853 1901)" fill="#21232a" font-size="14" font-family="HelveticaNeue, Helvetica Neue"><tspan x="-55.216" y="0">Overview of Cash</tspan><tspan x="-31.367" y="22">Collection</tspan></text>
      <text id="View_consumers_at_every_plant" data-name="View consumers at
every plant" transform="translate(1060 1793)" fill="#21232a" font-size="14" font-family="HelveticaNeue, Helvetica Neue"><tspan x="-59.248" y="0">View consumers at</tspan><tspan x="-34.356" y="22">every plant</tspan></text>
      <text id="Survey_customer_s_connection_status" data-name="Survey customer’s
connection status" transform="translate(1060 2023)" fill="#21232a" font-size="14" font-family="HelveticaNeue, Helvetica Neue"><tspan x="-57.827" y="0">Survey customer’s</tspan><tspan x="-55.755" y="22">connection status</tspan></text>
      <text id="Track_active_and_inactive_customers" data-name="Track active and
inactive customers" transform="translate(1267 1671)" fill="#21232a" font-size="14" font-family="HelveticaNeue, Helvetica Neue"><tspan x="-51.086" y="0">Track active and</tspan><tspan x="-58.863" y="22">inactive customers</tspan></text>
      <text id="Navigate_through_Service_requests" data-name="Navigate through
Service requests" transform="translate(1267 1911)" fill="#21232a" font-size="14" font-family="HelveticaNeue, Helvetica Neue"><tspan x="-53.676" y="0">Navigate through</tspan><tspan x="-52.115" y="22">Service requests</tspan></text>
      <text id="Temporary_Disconnect" data-name="Temporary Disconnect" transform="translate(1377 1766)" fill="#21232a" font-size="18" font-family="HelveticaNeue-Bold, Helvetica Neue" font-weight="700"><tspan x="0" y="0">Temporary Disconnect</tspan></text>
      <text id="Add_Consumer" data-name="Add Consumer" transform="translate(1410 1996)" fill="#21232a" font-size="18" font-family="HelveticaNeue-Bold, Helvetica Neue" font-weight="700"><tspan x="0" y="0">Add Consumer</tspan></text>
      <text id="Remote_cut_supply_to_customers" data-name="Remote cut supply
to customers" transform="translate(1473 1793)" fill="#21232a" font-size="14" font-family="HelveticaNeue, Helvetica Neue"><tspan x="-59.003" y="0">Remote cut supply</tspan><tspan x="-41.104" y="22">to customers</tspan></text>
      <text id="Fast-Track_Customer_Addition" data-name="Fast-Track
Customer Addition" transform="translate(1473 2023)" fill="#21232a" font-size="14" font-family="HelveticaNeue, Helvetica Neue"><tspan x="-33.061" y="0">Fast-Track</tspan><tspan x="-58.737" y="22">Customer Addition</tspan></text>
      <text id="Add_Instant_Customer" data-name="Add Instant Customer" transform="translate(1583 1644)" fill="#21232a" font-size="18" font-family="HelveticaNeue-Bold, Helvetica Neue" font-weight="700"><tspan x="0" y="0">Add Instant Customer</tspan></text>
      <text id="Catchment_Survey" data-name="Catchment Survey" transform="translate(1603 1884)" fill="#21232a" font-size="18" font-family="HelveticaNeue-Bold, Helvetica Neue" font-weight="700"><tspan x="0" y="0">Catchment Survey</tspan></text>
      <text id="Fast-track_customer_addition-2" data-name="Fast-track customer
addition" transform="translate(1677 1671)" fill="#21232a" font-size="14" font-family="HelveticaNeue, Helvetica Neue"><tspan x="-63.273" y="0">Fast-track customer</tspan><tspan x="-25.284" y="22">addition</tspan></text>
      <text id="An_HCLF_functionality" data-name="An HCLF
functionality" transform="translate(1677 1911)" fill="#21232a" font-size="14" font-family="HelveticaNeue, Helvetica Neue"><tspan x="-28.392" y="0">An HCLF</tspan><tspan x="-37.856" y="22">functionality</tspan></text>
      <g id="Smart_phone_shopping" data-name="Smart phone shopping" transform="translate(827.5 1789.509)">
        <path id="Path_959" data-name="Path 959" d="M46.661,36.339l-5.074,2.933A2.619,2.619,0,0,0,39.12,37.5H35.159a.891.891,0,0,1-.391-.087l-1.011-.507a2.637,2.637,0,0,0-1.173-.281H28.034a2.637,2.637,0,0,0-.831.135l-2.222.74h-.733V35.75a.875.875,0,0,0-.875-.875H18.124a.875.875,0,0,0-.875.875v.875h-3.5V34H12V49.747h1.75V47.123h3.5V48a.875.875,0,0,0,.875.875h5.249A.875.875,0,0,0,24.248,48V46.239l.664.007,1.2.6a2.637,2.637,0,0,0,1.173.276H37.777a2.625,2.625,0,0,0,1.312-.35l10.193-5.887A2.632,2.632,0,0,0,50.607,38.6a2.605,2.605,0,0,0-.355-1.307A2.633,2.633,0,0,0,46.661,36.339ZM13.75,45.373v-7h3.5v7Zm8.749,1.75H19v-10.5h3.5Zm25.913-7.756-10.2,5.89a.875.875,0,0,1-.437.117H27.285a.891.891,0,0,1-.391-.087L25.334,44.5l-1.086-.01v-5.24h.875A.875.875,0,0,0,25.4,39.2l2.354-.787a.886.886,0,0,1,.278-.043h4.549a.892.892,0,0,1,.391.087l1.011.507a2.637,2.637,0,0,0,1.176.281H39.12a.875.875,0,0,1,0,1.75h-3.5a.875.875,0,0,0,0,1.75h3.5A2.617,2.617,0,0,0,41.4,41.407l6.145-3.558a.87.87,0,0,1,1.2.325.845.845,0,0,1,.118.427.875.875,0,0,1-.451.765Z" transform="translate(-1.251 -4.005)" fill="#707070"/>
        <path id="Path_960" data-name="Path 960" d="M30.87,44.868a.875.875,0,0,0-.875.875v1.75H3.75V9H30v.875a.875.875,0,1,0,1.75,0V8.124A6.131,6.131,0,0,0,25.621,2H8.124A6.131,6.131,0,0,0,2,8.124V48.367a6.131,6.131,0,0,0,6.124,6.124h17.5a6.131,6.131,0,0,0,6.124-6.124V45.743A.875.875,0,0,0,30.87,44.868ZM8.124,3.75h17.5a4.382,4.382,0,0,1,4.287,3.5H3.837a4.382,4.382,0,0,1,4.287-3.5Zm17.5,48.992H8.124a4.382,4.382,0,0,1-4.287-3.5H29.908a4.382,4.382,0,0,1-4.287,3.5Z" fill="#707070"/>
        <path id="Path_961" data-name="Path 961" d="M16,5h1.75V6.75H16Z" transform="translate(-1.752 -0.375)" fill="#707070"/>
        <path id="Path_962" data-name="Path 962" d="M20,5h1.75V6.75H20Z" transform="translate(-2.253 -0.375)" fill="#707070"/>
        <path id="Path_963" data-name="Path 963" d="M16,57h5.249v1.75H16Z" transform="translate(-1.752 -6.883)" fill="#707070"/>
        <path id="Path_964" data-name="Path 964" d="M57.12,13h-21a.875.875,0,0,0-.875.875v1.75H33.5a.875.875,0,0,0-.875.875v1.75h-1.75a.875.875,0,0,0-.875.875V31.372a.875.875,0,0,0,.875.875h21a.875.875,0,0,0,.875-.875v-1.75H54.5a.875.875,0,0,0,.875-.875V27h1.75A.875.875,0,0,0,58,26.123V13.875A.875.875,0,0,0,57.12,13ZM51,30.5H31.75V20H51Zm2.625-2.625h-.875V19.124a.875.875,0,0,0-.875-.875h-17.5v-.875H53.621Zm2.625-2.625h-.875V16.5a.875.875,0,0,0-.875-.875H37V14.75H56.246Z" transform="translate(-3.504 -1.377)" fill="#707070"/>
        <path id="Path_965" data-name="Path 965" d="M42.5,23A3.5,3.5,0,1,0,46,26.5,3.5,3.5,0,0,0,42.5,23Zm0,5.249a1.75,1.75,0,1,1,1.75-1.75A1.75,1.75,0,0,1,42.5,28.249Z" transform="translate(-4.63 -2.628)" fill="#707070"/>
        <path id="Path_966" data-name="Path 966" d="M50.75,26h-.875a.875.875,0,1,0,0,1.75h.875a.875.875,0,1,0,0-1.75Z" transform="translate(-5.882 -3.004)" fill="#707070"/>
        <path id="Path_967" data-name="Path 967" d="M35.75,26h-.875a.875.875,0,1,0,0,1.75h.875a.875.875,0,1,0,0-1.75Z" transform="translate(-4.005 -3.004)" fill="#707070"/>
        <path id="Path_968" data-name="Path 968" d="M13.249,14.875A.875.875,0,0,0,12.374,14h-3.5A.875.875,0,0,0,8,14.875v3.5a.875.875,0,0,0,.875.875h3.5a.875.875,0,0,0,.875-.875ZM11.5,17.5H9.75V15.75H11.5Z" transform="translate(-0.751 -1.502)" fill="#707070"/>
        <path id="Path_969" data-name="Path 969" d="M21.249,14.875A.875.875,0,0,0,20.374,14h-3.5a.875.875,0,0,0-.875.875v3.5a.875.875,0,0,0,.875.875h3.5a.875.875,0,0,0,.875-.875ZM19.5,17.5H17.75V15.75H19.5Z" transform="translate(-1.752 -1.502)" fill="#707070"/>
        <path id="Path_970" data-name="Path 970" d="M12.374,24h-3.5A.875.875,0,0,0,8,24.875v3.5a.875.875,0,0,0,.875.875h3.5a.875.875,0,0,0,.875-.875v-3.5A.875.875,0,0,0,12.374,24ZM11.5,27.5H9.75V25.75H11.5Z" transform="translate(-0.751 -2.753)" fill="#707070"/>
        <path id="Path_971" data-name="Path 971" d="M20.374,24h-3.5a.875.875,0,0,0-.875.875v3.5a.875.875,0,0,0,.875.875h3.5a.875.875,0,0,0,.875-.875v-3.5A.875.875,0,0,0,20.374,24ZM19.5,27.5H17.75V25.75H19.5Z" transform="translate(-1.752 -2.753)" fill="#707070"/>
        <path id="Path_972" data-name="Path 972" d="M28.374,15.75a.875.875,0,1,0,0-1.75h-3.5a.875.875,0,0,0-.875.875v3.5a.875.875,0,0,0,.875.875h1.75a.875.875,0,1,0,0-1.75H25.75V15.75Z" transform="translate(-2.753 -1.502)" fill="#707070"/>
        <path id="Path_973" data-name="Path 973" d="M26.625,25.75a.875.875,0,1,0,0-1.75h-1.75a.875.875,0,0,0-.875.875v3.5a.875.875,0,0,0,.875.875h1.75a.875.875,0,1,0,0-1.75H25.75V25.75Z" transform="translate(-2.753 -2.753)" fill="#707070"/>
      </g>
      <g id="personal-information" transform="translate(1039.382 1682.393)">
        <path id="Path_5191" data-name="Path 5191" d="M57.345,48.608H33.136A2.139,2.139,0,0,1,31,46.472V10.842a2.139,2.139,0,0,1,2.136-2.136h4.093a.712.712,0,1,1,0,1.424H33.136a.713.713,0,0,0-.712.712v35.63a.713.713,0,0,0,.712.712H57.345a.713.713,0,0,0,.712-.712V29.905H41.68a2.139,2.139,0,0,1-2.136-2.136V2.136A2.139,2.139,0,0,1,41.68,0H63.041a2.139,2.139,0,0,1,2.136,2.136v7.12a.712.712,0,0,1-1.424,0V2.136a.713.713,0,0,0-.712-.712H41.68a.713.713,0,0,0-.712.712V27.769a.713.713,0,0,0,.712.712H63.041a.713.713,0,0,0,.712-.712V12.1a.712.712,0,0,1,.712-.712h4.272a.712.712,0,0,1,0,1.424h-3.56v2.848h3.56a.712.712,0,1,1,0,1.424h-3.56v2.848h3.56a.712.712,0,0,1,0,1.424h-3.56v2.848h3.56a.712.712,0,1,1,0,1.424h-3.56v2.136a2.127,2.127,0,0,1-.122.712h3.682a.712.712,0,0,1,0,1.424H59.481v2.848h9.256a.712.712,0,0,1,0,1.424H59.481v4.462h12.1a.713.713,0,0,0,.712-.712V6.57a.713.713,0,0,0-.712-.712H67.313a.712.712,0,1,1,0-1.424h4.272A2.139,2.139,0,0,1,73.722,6.57V37.927a2.139,2.139,0,0,1-2.136,2.136h-12.1v4.272h7.832a.713.713,0,0,0,.712-.712V42.2a.712.712,0,0,1,1.424,0v1.424a2.139,2.139,0,0,1-2.136,2.136H59.481v.712A2.139,2.139,0,0,1,57.345,48.608Zm4.272-21.551H43.1a.712.712,0,0,1-.712-.712V23.872c0-3.659,2.419-4.5,4.185-5.107,1.458-.5,2.286-.844,2.431-1.941A5.955,5.955,0,0,1,46.4,11.9V8.966a5.956,5.956,0,0,1,11.913,0V11.9a5.955,5.955,0,0,1-2.6,4.922c.146,1.1.974,1.436,2.431,1.941,1.766.611,4.185,1.448,4.185,5.107v2.473A.712.712,0,0,1,61.617,27.057Zm-17.8-1.424H60.905V23.872c0-2.645-1.5-3.162-3.227-3.762-1.279-.442-2.82-.976-3.279-2.611a5.962,5.962,0,0,1-4.078,0c-.458,1.635-2,2.169-3.279,2.611-1.732.6-3.227,1.117-3.227,3.762Zm8.544-21.2a4.538,4.538,0,0,0-4.532,4.532V11.9a4.532,4.532,0,0,0,9.065,0V8.966a4.538,4.538,0,0,0-4.532-4.532Z" transform="translate(-31)" fill="#707070" stroke="#707070" stroke-width="0.5"/>
      </g>
      <g id="add-user" transform="translate(1457.121 1929.121)">
        <g id="Group_3003" data-name="Group 3003" transform="translate(0)">
          <g id="Group_3002" data-name="Group 3002">
            <path id="Path_5246" data-name="Path 5246" d="M24.3,16.983a17.2,17.2,0,0,0-1.989-.8,8.99,8.99,0,1,0-10.765.005A17.2,17.2,0,0,0,.086,29a4.017,4.017,0,0,0,3.926,4.844H20.294a1.322,1.322,0,1,0,0-2.644H4.012a1.343,1.343,0,0,1-1.058-.5,1.381,1.381,0,0,1-.28-1.158,14.607,14.607,0,0,1,13.9-11.567q.174.007.35.007t.354-.007a14.4,14.4,0,0,1,5.886,1.4A1.322,1.322,0,0,0,24.3,16.983Zm-7.053-1.655-.322,0q-.16,0-.32,0a6.346,6.346,0,1,1,.642,0Z" transform="translate(0 0)" fill="#707070"/>
          </g>
        </g>
        <g id="Group_3005" data-name="Group 3005" transform="translate(21.286 21.285)">
          <g id="Group_3004" data-name="Group 3004">
            <path id="Path_5247" data-name="Path 5247" d="M333.238,326.958H329.6v-3.636a1.322,1.322,0,1,0-2.644,0v3.636h-3.636a1.322,1.322,0,1,0,0,2.644h3.636v3.636a1.322,1.322,0,0,0,2.644,0V329.6h3.636a1.322,1.322,0,1,0,0-2.644Z" transform="translate(-322 -322)" fill="#707070"/>
          </g>
        </g>
      </g>
      <g id="Consult-Talk" transform="translate(1247.879 1810.319)">
        <rect id="Rectangle_969" data-name="Rectangle 969" width="1.459" height="1.459" transform="translate(12.212 18.691)" fill="#707070" stroke="#707070" stroke-width="0.25"/>
        <rect id="Rectangle_970" data-name="Rectangle 970" width="1.459" height="1.459" transform="translate(19.507 18.691)" fill="#707070" stroke="#707070" stroke-width="0.25"/>
        <path id="Path_5248" data-name="Path 5248" d="M45.141,26.722l-2.85-.407a10.213,10.213,0,0,0-.479-1.167l1.724-2.3a.729.729,0,0,0-.068-.953l-3.1-3.1a.721.721,0,0,0-.442-.206V11.572A5.836,5.836,0,0,0,42.12,7.02a5.775,5.775,0,0,0-3.336-5.27.729.729,0,0,0-1.041.659V6.494l-1.459.487-1.459-.487V2.41a.729.729,0,0,0-1.041-.657A5.775,5.775,0,0,0,30.449,7.02a5.836,5.836,0,0,0,2.188,4.553V16.5H30.449a.729.729,0,0,0-.722.626l-.472,3.3,1.444.206.382-2.677h3.112l.382,2.677a.729.729,0,0,0,.518.6,8.709,8.709,0,0,1,1.751.72.729.729,0,0,0,.789-.056l2.16-1.619,2.2,2.2-1.623,2.16a.729.729,0,0,0-.056.789,8.709,8.709,0,0,1,.72,1.751.729.729,0,0,0,.6.518l2.677.382v3.112l-2.677.382a.729.729,0,0,0-.6.518,8.709,8.709,0,0,1-.72,1.751.729.729,0,0,0,.056.789l1.619,2.16-2.2,2.2L37.63,37.365a.729.729,0,0,0-.789-.056,8.709,8.709,0,0,1-1.751.72.729.729,0,0,0-.518.6l-.38,2.679H31.178V38.219a8.1,8.1,0,0,0-.328-2.277,6.645,6.645,0,1,0-4.664-5.151c-.018-.007-.034-.016-.052-.023l-5.9-2.359V27.288a8.089,8.089,0,0,0,2.538-2.032h1.839A2.188,2.188,0,0,0,26.8,23.068V21.475A2.188,2.188,0,0,0,28.26,19.42V17.232A2.188,2.188,0,0,0,26.8,15.178v-.864a10.212,10.212,0,1,0-20.425,0v.864a2.188,2.188,0,0,0-1.459,2.054V19.42a2.188,2.188,0,0,0,2.188,2.188H8.565c.047,0,.092-.007.138-.01a8.041,8.041,0,0,0,4.239,5.69v1.121l-5.9,2.359A7.987,7.987,0,0,0,2,38.219v6.732a.729.729,0,0,0,.729.729H30.449a.729.729,0,0,0,.729-.729V42.763h3.647a.729.729,0,0,0,.722-.626l.407-2.85a10.212,10.212,0,0,0,1.167-.479l2.3,1.724a.729.729,0,0,0,.953-.068l3.1-3.1a.729.729,0,0,0,.068-.953l-1.724-2.3a10.213,10.213,0,0,0,.479-1.167l2.85-.407a.729.729,0,0,0,.625-.721V27.444a.729.729,0,0,0-.626-.722Zm-8.024-6.265c-.034-.017-.073-.028-.107-.044V11.4H35.555v5.785l-.007-.053a.729.729,0,0,0-.722-.626H34.1v-5.3a.729.729,0,0,0-.313-.6,4.377,4.377,0,0,1-.416-6.855V7.02a.73.73,0,0,0,.5.692l2.188.729a.729.729,0,0,0,.461,0L38.7,7.712a.729.729,0,0,0,.5-.692V3.753a4.377,4.377,0,0,1-.417,6.857.729.729,0,0,0-.313.6v8.238Zm-9.586,9.175a5.143,5.143,0,1,1,2.431,4.334,7.963,7.963,0,0,0-1.9-2.1,4.987,4.987,0,0,1-.527-2.235ZM24.613,23.8h-.886a7.951,7.951,0,0,0,.748-2.2c.046,0,.091.01.138.01h.729v1.459A.729.729,0,0,1,24.613,23.8Zm-1.459-8.024A2.2,2.2,0,0,1,21.4,14.9L20.09,13.147a.729.729,0,0,0-.492-.286.737.737,0,0,0-.548.154L16.6,14.971a3.66,3.66,0,0,1-2.275.8h-4.3v-.729a6.565,6.565,0,1,1,13.13,0ZM26.8,19.42a.729.729,0,0,1-.729.729H24.613V16.5h1.459a.729.729,0,0,1,.729.729ZM16.589,5.561a8.763,8.763,0,0,1,8.753,8.753v.729h-.729a8.024,8.024,0,1,0-16.048,0H7.836v-.729a8.763,8.763,0,0,1,8.753-8.753ZM7.106,20.15a.729.729,0,0,1-.729-.729V17.232a.729.729,0,0,1,.729-.729H8.565V20.15Zm2.918,0V17.232h4.3a5.124,5.124,0,0,0,3.189-1.119l1.861-1.489.859,1.149a3.666,3.666,0,0,0,2.918,1.459V20.15a6.526,6.526,0,0,1-1.11,3.647H16.589v1.459h4.117A6.559,6.559,0,0,1,10.024,20.15Zm6.565,8.024a8,8,0,0,0,2.188-.311V28.9a2.188,2.188,0,1,1-4.377,0v-1.04a8,8,0,0,0,2.188.311Zm13.13,16.048H25.342V36.2H23.884v8.024H9.295V36.2H7.836v8.024H3.459v-6a6.534,6.534,0,0,1,4.127-6.1L13.1,29.916a3.624,3.624,0,0,0,6.972,0l5.517,2.207a6.534,6.534,0,0,1,4.127,6.1Z" transform="translate(0)" fill="#707070" stroke="#707070" stroke-width="0.25"/>
        <rect id="Rectangle_971" data-name="Rectangle 971" width="1.459" height="1.459" transform="translate(31.908 19.42)" fill="#707070" stroke="#707070" stroke-width="0.25"/>
        <rect id="Rectangle_972" data-name="Rectangle 972" width="1.459" height="1.459" transform="translate(31.908 38.386)" fill="#707070" stroke="#707070" stroke-width="0.25"/>
        <rect id="Rectangle_973" data-name="Rectangle 973" width="1.459" height="1.459" transform="translate(38.31 36.338) rotate(-45)" fill="#707070" stroke="#707070" stroke-width="0.25"/>
        <rect id="Rectangle_974" data-name="Rectangle 974" width="1.459" height="1.459" transform="translate(41.39 28.903)" fill="#707070" stroke="#707070" stroke-width="0.25"/>
        <rect id="Rectangle_975" data-name="Rectangle 975" width="1.459" height="1.459" transform="translate(38.311 22.928) rotate(-45)" fill="#707070" stroke="#707070" stroke-width="0.25"/>
      </g>
      <g id="customer_2_" data-name="customer (2)" transform="translate(1653.669 1562.521)">
        <path id="Path_5249" data-name="Path 5249" d="M31.809,17.138a14.777,14.777,0,0,0-1.558.085A14.749,14.749,0,1,0,17.223,30.251,14.67,14.67,0,1,0,31.809,17.138ZM15.671,28.875a13.29,13.29,0,1,1,13.07-11.409,14.482,14.482,0,0,0-1.553.429,11.775,11.775,0,1,0-9.293,9.293,14.69,14.69,0,0,0-.429,1.552A13.329,13.329,0,0,1,15.671,28.875Zm2.9-3.356a10.235,10.235,0,0,1-10.2-2.636,2.18,2.18,0,0,1,1.73-1.834l2.709-.549a2.973,2.973,0,0,0,.483-.191L15.671,23.5l2.383-3.2a3.135,3.135,0,0,0,.535.212l2.652.535a2.172,2.172,0,0,1,.46.153,14.727,14.727,0,0,0-3.126,4.316ZM12,15.671A.734.734,0,1,1,12,14.2Zm.572-2.934H12a2.169,2.169,0,0,0-.555.08,3.4,3.4,0,0,1,3.238-4.481h1.971a3.4,3.4,0,0,1,3.237,4.481,2.169,2.169,0,0,0-.555-.08H17.311a6.241,6.241,0,0,1-2.779-.657L14.377,12H14.2A2.189,2.189,0,0,0,12.575,12.737ZM19.339,14.2a.734.734,0,0,1,0,1.467Zm-1.467,1.467a2.2,2.2,0,1,1-4.4,0V14.2a.735.735,0,0,1,.593-.72,7.726,7.726,0,0,0,3.247.72h.56Zm-3.33,3.471a3.342,3.342,0,0,0,2.259,0c.041.071.085.141.133.208l-1.262,1.694-1.262-1.693C14.456,19.283,14.5,19.214,14.542,19.142Zm8.34,1.05a3.625,3.625,0,0,0-1.351-.581l-2.6-.522a1.46,1.46,0,0,1-.858-.673,3.674,3.674,0,0,0,.951-1.279h.312a2.2,2.2,0,0,0,1.8-3.461,4.872,4.872,0,0,0-4.482-6.809H14.685A4.873,4.873,0,0,0,10.2,13.678a2.2,2.2,0,0,0,1.8,3.46h.311a3.672,3.672,0,0,0,.951,1.279,1.406,1.406,0,0,1-.8.658l-2.652.535a3.629,3.629,0,0,0-2.539,1.95,10.268,10.268,0,1,1,18.245-2.984,14.72,14.72,0,0,0-2.634,1.616Zm8.926,24.82a13.2,13.2,0,1,1,13.2-13.2A13.219,13.219,0,0,1,31.809,45.012Z" transform="translate(0 0)" fill="#707070"/>
        <path id="Path_5250" data-name="Path 5250" d="M57.444,26.562l1.443-.267c-.1-.52-.215-1.043-.351-1.554l-1.417.38C57.245,25.594,57.354,26.079,57.444,26.562Z" transform="translate(-14.953 -6.326)" fill="#707070"/>
        <path id="Path_5251" data-name="Path 5251" d="M41.2,8.4a2.188,2.188,0,0,0,1.606-.707,19.247,19.247,0,0,1,9.045,10.487l1.383-.489a20.724,20.724,0,0,0-9.849-11.35c0-.048.014-.094.014-.142a2.2,2.2,0,1,0-2.2,2.2Zm0-2.934a.734.734,0,1,1-.734.734A.735.735,0,0,1,41.2,5.467Z" transform="translate(-10.125 -0.799)" fill="#707070"/>
        <path id="Path_5252" data-name="Path 5252" d="M5.914,36.777l-1.443.267c.1.52.215,1.043.351,1.554l1.417-.38c-.127-.473-.236-.958-.326-1.441Z" transform="translate(-0.925 -9.533)" fill="#707070"/>
        <path id="Path_5253" data-name="Path 5253" d="M17.628,50.447a2.188,2.188,0,0,0-1.606.707A19.253,19.253,0,0,1,6.976,40.667l-1.383.489a20.724,20.724,0,0,0,9.849,11.35c0,.048-.014.094-.014.142a2.2,2.2,0,1,0,2.2-2.2Zm0,2.934a.734.734,0,1,1,.734-.734A.735.735,0,0,1,17.628,53.381Z" transform="translate(-1.224 -10.57)" fill="#707070"/>
        <path id="Path_5254" data-name="Path 5254" d="M47.68,33.86h0a2.92,2.92,0,0,0-2.617-.811,3.025,3.025,0,0,0-1.59.868l-8.139,8.137-2.27-2.271a3.028,3.028,0,0,0-1.589-.866,2.937,2.937,0,0,0-3.427,3.426,3.025,3.025,0,0,0,.868,1.59l4.344,4.345a2.932,2.932,0,0,0,4.149,0L47.623,38.065a3.025,3.025,0,0,0,.868-1.59,2.919,2.919,0,0,0-.811-2.616Zm-.634,2.356a1.6,1.6,0,0,1-.461.812L36.373,47.241a1.5,1.5,0,0,1-2.074,0L29.953,42.9a1.6,1.6,0,0,1-.461-.813,1.47,1.47,0,0,1,1.443-1.748,1.442,1.442,0,0,1,1.092.486l3.308,3.308,9.176-9.175a1.6,1.6,0,0,1,.813-.461,1.471,1.471,0,0,1,1.722,1.723Z" transform="translate(-7.194 -8.527)" fill="#707070"/>
      </g>
      <g id="knife-switch" transform="translate(1454.671 1688.393)">
        <path id="Path_5255" data-name="Path 5255" d="M82.818,214.94l-3.452-1.726,1.275-1.275a1.251,1.251,0,0,0-1.77-1.77l-2.5,2.5a1.252,1.252,0,0,0,.325,2l3.452,1.726-1.275,1.275a1.251,1.251,0,0,0,1.77,1.77l2.5-2.5A1.252,1.252,0,0,0,82.818,214.94Z" transform="translate(-70.996 -192.284)" fill="#707070"/>
        <path id="Path_5256" data-name="Path 5256" d="M52.288,7.508A3.755,3.755,0,1,0,48.9,5.371l-8.316,8.316a11.245,11.245,0,0,0-7.066-3.607V6.257A3.758,3.758,0,0,0,29.765,2.5H18.5V1.251a1.251,1.251,0,0,0-2.5,0V41.461a1.251,1.251,0,0,0,2.5,0V40.042H29.765a3.758,3.758,0,0,0,3.754-3.754V32.465a11.257,11.257,0,0,0,8.554-16.725l8.6-8.6a3.731,3.731,0,0,0,1.617.367ZM33.519,17.734a3.753,3.753,0,0,1,0,7.077Zm-2.5,18.555a1.253,1.253,0,0,1-1.251,1.251H18.5V5.005H29.765a1.253,1.253,0,0,1,1.251,1.251Zm2.5-6.346V27.4a6.257,6.257,0,0,0,0-12.261V12.6a8.759,8.759,0,0,1,0,17.339ZM52.288,2.5a1.251,1.251,0,1,1-1.251,1.251A1.253,1.253,0,0,1,52.288,2.5Z" transform="translate(-16 0)" fill="#707070"/>
        <circle id="Ellipse_461" data-name="Ellipse 461" cx="1" cy="1" r="1" transform="translate(10.328 7.608)" fill="#707070"/>
        <ellipse id="Ellipse_462" data-name="Ellipse 462" cx="1" cy="1.5" rx="1" ry="1.5" transform="translate(10.328 32.608)" fill="#707070"/>
      </g>
      <g id="status-bar" transform="translate(1038.688 1924)">
        <g id="Group_3007" data-name="Group 3007" transform="translate(31.403 0)">
          <g id="Group_3006" data-name="Group 3006">
            <path id="Path_5257" data-name="Path 5257" d="M371.749,6.074a3.9,3.9,0,1,0-6.486,0A6.509,6.509,0,0,0,362,11.711v2.6a1.3,1.3,0,0,0,1.3,1.3h10.41a1.3,1.3,0,0,0,1.3-1.3v-2.6A6.509,6.509,0,0,0,371.749,6.074ZM368.506,2.6a1.3,1.3,0,1,1-1.3,1.3A1.3,1.3,0,0,1,368.506,2.6Zm3.9,10.41H364.6v-1.3a3.9,3.9,0,1,1,7.807,0Z" transform="translate(-362)" fill="#707070"/>
          </g>
        </g>
        <g id="Group_3009" data-name="Group 3009" transform="translate(15.702 7.807)">
          <g id="Group_3008" data-name="Group 3008">
            <path id="Path_5258" data-name="Path 5258" d="M190.749,96.074a3.9,3.9,0,1,0-6.486,0A6.509,6.509,0,0,0,181,101.711v2.6a1.3,1.3,0,0,0,1.3,1.3h10.41a1.3,1.3,0,0,0,1.3-1.3v-2.6A6.509,6.509,0,0,0,190.749,96.074ZM187.506,92.6a1.3,1.3,0,1,1-1.3,1.3A1.3,1.3,0,0,1,187.506,92.6Zm3.9,10.41H183.6v-1.3a3.9,3.9,0,0,1,7.807,0Z" transform="translate(-181 -90)" fill="#707070"/>
          </g>
        </g>
        <g id="Group_3011" data-name="Group 3011" transform="translate(0 15.615)">
          <g id="Group_3010" data-name="Group 3010">
            <path id="Path_5259" data-name="Path 5259" d="M9.749,186.074a3.9,3.9,0,1,0-6.486,0A6.509,6.509,0,0,0,0,191.711v2.6a1.3,1.3,0,0,0,1.3,1.3h10.41a1.3,1.3,0,0,0,1.3-1.3v-2.6A6.509,6.509,0,0,0,9.749,186.074ZM6.506,182.6a1.3,1.3,0,1,1-1.3,1.3A1.3,1.3,0,0,1,6.506,182.6Zm3.9,10.41H2.6v-1.3a3.9,3.9,0,1,1,7.807,0Z" transform="translate(0 -180)" fill="#707070"/>
          </g>
        </g>
        <g id="Group_3013" data-name="Group 3013" transform="translate(0 18.217)">
          <g id="Group_3012" data-name="Group 3012">
            <path id="Path_5260" data-name="Path 5260" d="M43.115,210H32.7a1.3,1.3,0,0,0-1.3,1.3V233.6H28.714V219.109a1.3,1.3,0,0,0-1.3-1.3H17a1.3,1.3,0,0,0-1.3,1.3V233.6H13.012v-6.68a1.3,1.3,0,0,0-1.3-1.3H1.3a1.3,1.3,0,0,0-1.3,1.3V234.9a1.3,1.3,0,0,0,1.3,1.3H43.115a1.3,1.3,0,0,0,1.3-1.3V211.3A1.3,1.3,0,0,0,43.115,210Zm-32.7,23.6H2.6v-5.379H10.41Zm15.7,0H18.3V220.41h7.807Zm15.7,0H34.006V212.6h7.807Z" transform="translate(0 -210)" fill="#707070"/>
          </g>
        </g>
      </g>
      <g id="work_time" data-name="work time" transform="translate(1245.521 1562.521)">
        <path id="Path_5261" data-name="Path 5261" d="M35.5,3.383h5.852V2H35.126a.691.691,0,0,0-.575.308L33.168,4.382l1.15.767Z" transform="translate(-9.621)" fill="#707070" stroke="#707070" stroke-width="0.25"/>
        <path id="Path_5262" data-name="Path 5262" d="M24.852,59.211H19v1.383h6.222a.691.691,0,0,0,.575-.308l1.383-2.074-1.15-.767Z" transform="translate(-5.247 -17.114)" fill="#707070" stroke="#707070" stroke-width="0.25"/>
        <path id="Path_5263" data-name="Path 5263" d="M30.344,17.209a12.982,12.982,0,0,0-6.814,1.922l-.359-.5a9.748,9.748,0,0,0,.4-.973L26.31,17.2a.691.691,0,0,0,.577-.682V12.37a.691.691,0,0,0-.577-.682l-2.738-.456a9.747,9.747,0,0,0-.4-.973L24.783,8a.691.691,0,0,0-.074-.89L21.776,4.178a.691.691,0,0,0-.89-.074L18.628,5.717a9.748,9.748,0,0,0-.973-.4L17.2,2.581A.691.691,0,0,0,16.518,2H12.37a.691.691,0,0,0-.682.577l-.456,2.738a9.748,9.748,0,0,0-.973.4L8,4.1a.691.691,0,0,0-.89.074L4.178,7.112A.691.691,0,0,0,4.1,8l1.62,2.268a9.162,9.162,0,0,0-.4.96l-2.751.458A.691.691,0,0,0,2,12.37v4.148a.691.691,0,0,0,.577.682l2.75.458a10.266,10.266,0,0,0,.389.968L4.1,20.886a.691.691,0,0,0,.074.89l2.933,2.933a.691.691,0,0,0,.89.074l2.257-1.612a9.747,9.747,0,0,0,.973.4l.456,2.738a.691.691,0,0,0,.682.577h4.148a.691.691,0,0,0,.682-.577l.456-2.738a9.747,9.747,0,0,0,.973-.4l.5.359a12.982,12.982,0,0,0-1.922,6.814A13.135,13.135,0,1,0,30.344,17.209ZM18.362,21.756a8.272,8.272,0,0,1-1.521.628.691.691,0,0,0-.484.548l-.425,2.573H12.955l-.429-2.573a.691.691,0,0,0-.484-.548,8.272,8.272,0,0,1-1.521-.628.691.691,0,0,0-.729.046L7.671,23.318l-2.1-2.1,1.515-2.122a.691.691,0,0,0,.046-.729,9.341,9.341,0,0,1-.638-1.552.691.691,0,0,0-.537-.449l-2.574-.429V12.955l2.573-.429a.691.691,0,0,0,.537-.449,11.338,11.338,0,0,1,.655-1.582.691.691,0,0,0-.062-.7L5.57,7.674l2.1-2.1L9.8,7.085a.691.691,0,0,0,.729.046A8.272,8.272,0,0,1,12.046,6.5a.691.691,0,0,0,.484-.548l.425-2.573h2.977l.429,2.573a.691.691,0,0,0,.484.548,8.272,8.272,0,0,1,1.521.628.691.691,0,0,0,.729-.046L21.217,5.57l2.1,2.1L21.806,9.8a.691.691,0,0,0-.046.729,8.273,8.273,0,0,1,.628,1.521.691.691,0,0,0,.548.484l2.573.429v2.977l-2.573.429a.691.691,0,0,0-.548.484,8.273,8.273,0,0,1-.628,1.521.691.691,0,0,0,.046.729l1.515,2.122-2.1,2.1-2.122-1.515A.691.691,0,0,0,18.362,21.756ZM31.036,42.062V40.023H29.653v2.039A11.748,11.748,0,0,1,18.627,31.036h2.039V29.653H18.617a11.578,11.578,0,0,1,1.64-5.318l.628.449a.691.691,0,0,0,.89-.074l2.933-2.933a.691.691,0,0,0,.074-.89l-.449-.628a11.578,11.578,0,0,1,5.318-1.64v2.048h1.383V18.627A11.748,11.748,0,0,1,42.062,29.653H40.023v1.383h2.039A11.748,11.748,0,0,1,31.036,42.062Z" fill="#707070" stroke="#707070" stroke-width="0.25"/>
        <path id="Path_5264" data-name="Path 5264" d="M43.383,31H42v8.3a.691.691,0,0,0,.691.691h5.531V38.6H43.383Z" transform="translate(-12.347 -8.952)" fill="#707070" stroke="#707070" stroke-width="0.25"/>
        <path id="Path_5265" data-name="Path 5265" d="M21.6,14.839H18.839V10.691a.691.691,0,0,0-1.32-.286l-3.457,7.6a.691.691,0,0,0,.629.978h2.765v4.148a.691.691,0,0,0,.545.676.709.709,0,0,0,.147.015.691.691,0,0,0,.629-.405l3.457-7.6a.691.691,0,0,0-.629-.978Zm-2.765,5.1V18.3a.691.691,0,0,0-.691-.691H15.765l1.692-3.721v1.647a.691.691,0,0,0,.691.691h2.383Z" transform="translate(-3.704 -2.47)" fill="#707070" stroke="#707070" stroke-width="0.25"/>
        <rect id="Rectangle_976" data-name="Rectangle 976" width="2" height="2" transform="translate(13.479 4.479)" fill="#707070" stroke="#707070" stroke-width="0.25"/>
        <rect id="Rectangle_977" data-name="Rectangle 977" width="1.383" height="1.383" transform="translate(7.111 8.089) rotate(-45)" fill="#707070" stroke="#707070" stroke-width="0.25"/>
        <rect id="Rectangle_978" data-name="Rectangle 978" width="2" height="2" transform="translate(4.479 13.479)" fill="#707070" stroke="#707070" stroke-width="0.25"/>
        <rect id="Rectangle_979" data-name="Rectangle 979" width="1.383" height="1.383" transform="translate(7.111 20.798) rotate(-45)" fill="#707070" stroke="#707070" stroke-width="0.25"/>
        <rect id="Rectangle_980" data-name="Rectangle 980" width="2" height="2" transform="translate(13.479 22.479)" fill="#707070" stroke="#707070" stroke-width="0.25"/>
        <rect id="Rectangle_981" data-name="Rectangle 981" width="1.383" height="1.383" transform="translate(19.821 20.799) rotate(-45)" fill="#707070" stroke="#707070" stroke-width="0.25"/>
        <rect id="Rectangle_982" data-name="Rectangle 982" width="2" height="2" transform="translate(22.479 13.479)" fill="#707070" stroke="#707070" stroke-width="0.25"/>
        <rect id="Rectangle_983" data-name="Rectangle 983" width="1.383" height="1.383" transform="translate(19.821 8.09) rotate(-45)" fill="#707070" stroke="#707070" stroke-width="0.25"/>
        <path id="Path_5266" data-name="Path 5266" d="M51.765,7a2.765,2.765,0,1,0,2.765,2.765A2.765,2.765,0,0,0,51.765,7Zm0,4.148a1.383,1.383,0,1,1,1.383-1.383A1.383,1.383,0,0,1,51.765,11.148Z" transform="translate(-14.508 -1.543)" fill="#707070" stroke="#707070" stroke-width="0.25"/>
        <path id="Path_5267" data-name="Path 5267" d="M55.921,6.169l-.462-.115.245-.409a.691.691,0,0,0-.1-.845L53.644,2.845a.691.691,0,0,0-.845-.1l-.409.245-.115-.462A.691.691,0,0,0,51.6,2H48.839a.691.691,0,0,0-.671.523l-.115.463-.409-.245a.691.691,0,0,0-.845.1L44.845,4.8a.691.691,0,0,0-.1.845l.245.409-.462.115A.691.691,0,0,0,44,6.839V9.6a.691.691,0,0,0,.523.671l.463.115-.245.409a.691.691,0,0,0,.1.845L46.8,13.6a.691.691,0,0,0,.845.1l.409-.245.115.462a.691.691,0,0,0,.671.523H51.6a.691.691,0,0,0,.671-.523l.115-.463.409.245a.691.691,0,0,0,.845-.1L55.6,11.644a.691.691,0,0,0,.1-.845l-.245-.409.462-.115a.691.691,0,0,0,.523-.671V6.839a.691.691,0,0,0-.523-.671Zm-.859,2.9-.844.207a.691.691,0,0,0-.424,1.027l.447.746-1.192,1.192-.746-.447a.691.691,0,0,0-1.027.424l-.211.848H49.379l-.207-.844a.691.691,0,0,0-1.027-.424l-.746.447-1.192-1.192.447-.746a.691.691,0,0,0-.424-1.027l-.848-.211V7.379l.844-.207a.691.691,0,0,0,.424-1.027L46.2,5.4,47.4,4.207l.746.447a.691.691,0,0,0,1.027-.425l.207-.843h1.685l.207.843a.691.691,0,0,0,1.027.425l.746-.447L54.233,5.4l-.447.746a.691.691,0,0,0,.424,1.027l.844.207Z" transform="translate(-12.964)" fill="#707070" stroke="#707070" stroke-width="0.25"/>
        <path id="Path_5268" data-name="Path 5268" d="M9.765,49a2.765,2.765,0,1,0,2.765,2.765A2.765,2.765,0,0,0,9.765,49Zm0,4.148a1.383,1.383,0,1,1,1.383-1.383A1.383,1.383,0,0,1,9.765,53.148Z" transform="translate(-1.543 -14.508)" fill="#707070" stroke="#707070" stroke-width="0.25"/>
        <path id="Path_5269" data-name="Path 5269" d="M13.7,52.8l-.245-.409.462-.115a.691.691,0,0,0,.523-.671V48.839a.691.691,0,0,0-.523-.671l-.463-.115.245-.409a.691.691,0,0,0-.1-.845l-1.955-1.955a.691.691,0,0,0-.845-.1l-.409.245-.115-.462A.691.691,0,0,0,9.6,44H6.839a.691.691,0,0,0-.671.523l-.115.463-.409-.245a.691.691,0,0,0-.845.1L2.845,46.8a.691.691,0,0,0-.1.845l.245.409-.462.115A.691.691,0,0,0,2,48.839V51.6a.691.691,0,0,0,.523.671l.463.115L2.74,52.8a.691.691,0,0,0,.1.845L4.8,55.6a.691.691,0,0,0,.845.1l.409-.245.115.462a.691.691,0,0,0,.671.523H9.6a.691.691,0,0,0,.671-.523l.115-.463.409.245a.691.691,0,0,0,.845-.1L13.6,53.644A.691.691,0,0,0,13.7,52.8Zm-.642-1.735-.844.207a.691.691,0,0,0-.424,1.027l.447.746-1.192,1.192-.746-.447a.691.691,0,0,0-1.027.424l-.211.848H7.379l-.207-.844a.691.691,0,0,0-1.027-.424L5.4,54.24,4.2,53.048l.447-.746a.691.691,0,0,0-.424-1.027l-.844-.211V49.379l.844-.207a.691.691,0,0,0,.424-1.027L4.2,47.4,5.4,46.207l.746.447a.691.691,0,0,0,1.027-.425l.207-.843H9.061l.207.843a.691.691,0,0,0,1.027.425l.746-.447L12.233,47.4l-.447.746a.691.691,0,0,0,.424,1.027l.844.207Z" transform="translate(0 -12.964)" fill="#707070" stroke="#707070" stroke-width="0.25"/>
      </g>
      <g id="survey_2_" data-name="survey (2)" transform="translate(1657 1790.667)">
        <g id="Group_3015" data-name="Group 3015" transform="translate(0 21.333)">
          <g id="Group_3014" data-name="Group 3014" transform="translate(0 0)">
            <circle id="Ellipse_463" data-name="Ellipse 463" cx="0.845" cy="0.845" r="0.845" transform="translate(3.381 3.381)" fill="#707070"/>
            <circle id="Ellipse_464" data-name="Ellipse 464" cx="0.845" cy="0.845" r="0.845" transform="translate(6.761 3.381)" fill="#707070"/>
            <circle id="Ellipse_465" data-name="Ellipse 465" cx="0.845" cy="0.845" r="0.845" transform="translate(10.142 3.381)" fill="#707070"/>
            <path id="Path_5270" data-name="Path 5270" d="M107.511,215.023H126.1a.845.845,0,0,0,0-1.69H107.511a.845.845,0,1,0,0,1.69Z" transform="translate(-98.214 -198.12)" fill="#707070"/>
            <path id="Path_5271" data-name="Path 5271" d="M117.653,341.333H107.511a.845.845,0,1,0,0,1.69h10.142a.845.845,0,1,0,0-1.69Z" transform="translate(-98.214 -315.978)" fill="#707070"/>
            <path id="Path_5272" data-name="Path 5272" d="M37.333,31.475c-.049,0-.1.012-.145.015V24.714a3.385,3.385,0,0,0-3.381-3.381H3.381A3.385,3.385,0,0,0,0,24.714V55.14a3.385,3.385,0,0,0,3.381,3.381H33.807a3.385,3.385,0,0,0,3.381-3.381V39.431L39.621,37h0a3.235,3.235,0,0,0-2.288-5.523ZM1.69,24.714a1.692,1.692,0,0,1,1.69-1.69H33.807a1.692,1.692,0,0,1,1.69,1.69v3.381H1.69ZM35.5,55.14a1.692,1.692,0,0,1-1.69,1.69H3.381a1.692,1.692,0,0,1-1.69-1.69V29.785H35.5v2.268a3.179,3.179,0,0,0-.452.37l-9.2,9.195H9.3a.845.845,0,1,0,0,1.69h15.2l-.812,4.06a.845.845,0,0,0,.829,1.011.863.863,0,0,0,.165-.016l4.224-.845a.84.84,0,0,0,.432-.231L35.5,41.121Zm-7.179-9.23-2.73.546.546-2.734,7.672-7.672,2.186,2.186ZM38.425,35.8l-1.238,1.238L35,34.855l1.238-1.238A1.546,1.546,0,0,1,38.425,35.8Z" transform="translate(0 -21.333)" fill="#707070"/>
          </g>
        </g>
      </g>
    </g>
  </g>
</svg>
