<svg xmlns="http://www.w3.org/2000/svg" width="1246.323" height="256.393" viewBox="0 0 1246.323 256.393">
  <g id="Group_2628" data-name="Group 2628" transform="translate(-320.5 -6842.107)">
    <text id="Cluster_In-charge" data-name="Cluster In-charge" transform="translate(843 6871)" fill="#21232a" font-size="20" font-family="HelveticaNeue-Bold, Helvetica Neue" font-weight="700"><tspan x="1.96" y="20">Cluster In-charge</tspan></text>
    <text id="Main_Purpose" data-name="Main Purpose" transform="translate(396 6942)" fill="#21232a" font-size="20" font-family="HelveticaNeue-Bold, Helvetica Neue" font-weight="700"><tspan x="14.16" y="20">Main Purpose</tspan></text>
    <text id="Example_Use_Case" data-name="Example Use Case" transform="translate(349 7044)" fill="#21232a" font-size="20" font-family="HelveticaNeue-Bold, Helvetica Neue" font-weight="700"><tspan x="14.16" y="20">Example Use Case</tspan></text>
    <text id="State_In-carge" data-name="State In-carge" transform="translate(1092 6871)" fill="#21232a" font-size="20" font-family="HelveticaNeue-Bold, Helvetica Neue" font-weight="700"><tspan x="17.32" y="20">State In-carge</tspan></text>
    <line id="Line_72" data-name="Line 72" y2="236" transform="translate(1048.5 6862.5)" fill="none" stroke="#707070" stroke-width="1" opacity="0.2"/>
    <line id="Line_73" data-name="Line 73" y2="236" transform="translate(807.5 6862.5)" fill="none" stroke="#707070" stroke-width="1" opacity="0.2"/>
    <text id="CSA" transform="translate(652 6871)" fill="#21232a" font-size="20" font-family="HelveticaNeue-Bold, Helvetica Neue" font-weight="700"><tspan x="15.25" y="20">CSA</tspan></text>
    <line id="Line_74" data-name="Line 74" y2="236" transform="translate(566.5 6862.5)" fill="none" stroke="#707070" stroke-width="1" opacity="0.2"/>
    <line id="Line_75" data-name="Line 75" x1="1010" transform="translate(320.5 7001.5)" fill="none" stroke="#707070" stroke-width="1" opacity="0.2"/>
    <text id="Tracking_customer_bill_and_Payments" data-name="Tracking customer bill and
Payments" transform="translate(593 6944)" fill="#707070" font-size="14" font-family="HelveticaNeue, Helvetica Neue"><tspan x="12.792" y="13">Tracking customer bill and</tspan><tspan x="63.878" y="29">Payments</tspan></text>
    <text id="Summary_of_collection_in_a_specified_time_interval" data-name="Summary of collection in a specified time interval" transform="translate(824 6944)" fill="#707070" font-size="14" font-family="HelveticaNeue, Helvetica Neue"><tspan x="20.889" y="13">Summary of collection in a </tspan><tspan x="35.806" y="29">specified time interval</tspan></text>
    <text id="Summary_of_collection_within_the_state" data-name="Summary of collection
within the state" transform="translate(1095 6946)" fill="#707070" font-size="14" font-family="HelveticaNeue, Helvetica Neue"><tspan x="11.986" y="13">Summary of collection</tspan><tspan x="34.421" y="29">within the state</tspan></text>
    <text id="Resolving_disagreements_about_whether_or_when_a_bill_was_paid_via_a_particular_method_or_not" data-name="Resolving disagreements about whether or when a bill was paid via a particular method or not" transform="translate(588 7026)" fill="#707070" font-size="14" font-family="HelveticaNeue, Helvetica Neue"><tspan x="0.961" y="13">Resolving disagreements about </tspan><tspan x="0.73" y="29">whether or when a bill was paid </tspan><tspan x="7.443" y="45">via a particular method or not</tspan></text>
    <text id="Tracking_amount_collected_for_different_services_energy_connection_water_etc._for_plants_in_the_cluster" data-name="Tracking amount collected for different services (energy, connection, water, etc.) for plants in the cluster" transform="translate(817 7026)" fill="#707070" font-size="14" font-family="HelveticaNeue, Helvetica Neue"><tspan x="18.166" y="13">Tracking amount collected for </tspan><tspan x="31.578" y="29">different services (energy, </tspan><tspan x="6.896" y="45">connection, water, etc.) for plants </tspan><tspan x="70.806" y="61">in the cluster</tspan></text>
    <text id="Tracking_amount_collected_for_different_services_for_the_entire_state" data-name="Tracking amount collected for different services for the entire state" transform="translate(1073 7026)" fill="#707070" font-size="14" font-family="HelveticaNeue, Helvetica Neue"><tspan x="10.666" y="13">Tracking amount collected for </tspan><tspan x="8.839" y="29">different services for the entire </tspan><tspan x="88.072" y="45">state</tspan></text>
    <g id="Group_9" data-name="Group 9" transform="translate(965.183 6752.394)">
      <path id="Path_2" data-name="Path 2" d="M439.824,666.21s-10.689-18.94-26.8-24.4c-6.76-2.29-9.623-3.554-13.659-9.442" transform="translate(-2.618 -336.541)" fill="none" stroke="#e6e6e6" stroke-miterlimit="10" stroke-width="2"/>
      <path id="Path_5" data-name="Path 5" d="M408.479,689.4c2.417-.837,7.9-7.638,7.9-7.638s-8.521-1.95-10.938-1.113a4.631,4.631,0,0,0,3.02,8.751Z" transform="translate(-7.378 -377.012)" fill="#e6e6e6"/>
      <path id="Path_6" data-name="Path 6" d="M480.069,729.932c2.522-.416,9.086-6.19,9.086-6.19s-8.07-3.362-10.593-2.946a4.631,4.631,0,1,0,1.508,9.138Z" transform="translate(-62.819 -407.961)" fill="#e6e6e6"/>
      <path id="Path_7" data-name="Path 7" d="M9.262,4.627c0,2.555-4.627,9.976-4.627,9.976S0,7.187,0,4.631a4.631,4.631,0,1,1,9.262,0Z" transform="translate(384.746 294.239) rotate(-54.975)" fill="#e6e6e6"/>
      <path id="Path_17" data-name="Path 17" d="M501.588,601.841s-2.536-26.258-17.718-40.225a39.921,39.921,0,0,1-12.372-22.05,67.1,67.1,0,0,1-1.108-12.245" transform="translate(-65.129 -272.63)" fill="none" stroke="#535461" stroke-miterlimit="10" stroke-width="2"/>
      <path id="Path_18" data-name="Path 18" d="M435.581,476.212c1.158,2.877,9.729,9.12,9.729,9.12s1.846-10.442.688-13.319a5.621,5.621,0,1,0-10.428,4.2Z" transform="translate(-39.829 -230.38)" fill="#00b0ff"/>
      <path id="Path_19" data-name="Path 19" d="M422.8,538.717c2.536,1.784,13.125,2.367,13.125,2.367s-4.123-9.768-6.659-11.555a5.616,5.616,0,1,0-6.466,9.185Z" transform="translate(-29.238 -273.481)" fill="#00b0ff"/>
      <path id="Path_20" data-name="Path 20" d="M455.98,632.244c3.1.259,12.524-4.582,12.524-4.582s-8.492-6.358-11.583-6.609a5.616,5.616,0,1,0-.941,11.193Z" transform="translate(-51.066 -339.929)" fill="#00b0ff"/>
      <path id="Path_21" data-name="Path 21" d="M505.282,698.491c3,.778,13.119-2.4,13.119-2.4s-7.3-7.694-10.3-8.472a5.616,5.616,0,1,0-2.818,10.873Z" transform="translate(-87.167 -387.621)" fill="#00b0ff"/>
      <path id="Path_22" data-name="Path 22" d="M487.607,539.362c-1.257,2.838-10.033,8.787-10.033,8.787s-1.493-10.5-.24-13.333a5.617,5.617,0,1,1,10.273,4.546Z" transform="translate(-69.757 -275.61)" fill="#00b0ff"/>
      <path id="Path_23" data-name="Path 23" d="M537.77,613.414c-2.046,2.331-12.2,5.384-12.2,5.384s1.716-10.464,3.762-12.792a5.615,5.615,0,0,1,8.438,7.409Z" transform="translate(-104.758 -327.767)" fill="#00b0ff"/>
      <path id="Path_24" data-name="Path 24" d="M582.47,698.042c-1.635,2.643-11.117,7.37-11.117,7.37s-.079-10.6,1.544-13.246a5.621,5.621,0,0,1,9.582,5.879Z" transform="translate(-137.638 -389.09)" fill="#00b0ff"/>
      <ellipse id="Ellipse_1" data-name="Ellipse 1" cx="118.239" cy="7.742" rx="118.239" ry="7.742" transform="translate(365.054 330.123)" fill="#e6e6e6"/>
      <path id="Path_79" data-name="Path 79" d="M1015.32,298.606s9.955-3.189,10.974,0Z" transform="translate(-441.311 -138.477)" opacity="0.1"/>
      <g id="Group_8" data-name="Group 8" transform="translate(471.825 89.714)">
        <path id="Path_26" data-name="Path 26" d="M695.55,287.755s2.25-11.8,9.494-11.865l5.292,10.893-3.529,2.434S699.139,289.46,695.55,287.755Z" transform="translate(-680.757 -205.362)" fill="#d0cde1"/>
        <path id="Path_27" data-name="Path 27" d="M710.335,286.8l-3.529,2.437a41.723,41.723,0,0,1-9.254-.779,10.671,10.671,0,0,1-2-.684.7.7,0,0,1,.041-.19.4.4,0,0,1,0-.044,26.71,26.71,0,0,1,1.37-4.336c.222-.529.475-1.076.747-1.62a11.074,11.074,0,0,1,4.589-5.032,6.265,6.265,0,0,1,2.415-.633h.323l.114.241,1.792,3.68Z" transform="translate(-680.756 -205.382)" opacity="0.502"/>
        <path id="Path_28" data-name="Path 28" d="M920.288,392.372s7.6-.73,8.276-.184,4.991,3.348,7.545,1.582.851-7.912.851-8.156-.241-8.944-.241-8.944l-4.567-6.146-5.719-10.76L914.75,358.61l.317,17.09-.06,8.763Z" transform="translate(-830.585 -261.903)" fill="#d0cde1"/>
        <path id="Path_29" data-name="Path 29" d="M920.288,392.372s7.6-.73,8.276-.184,4.991,3.348,7.545,1.582.851-7.912.851-8.156-.241-8.944-.241-8.944l-4.567-6.146-5.719-10.76L914.75,358.61l.317,17.09-.06,8.763Z" transform="translate(-830.585 -261.903)" opacity="0.503"/>
        <path id="Path_30" data-name="Path 30" d="M683.279,250.737s-.6,7.425-5.231,7.545c0,0-1.31-.791-3.073-2.108-4.063-3.041-10.513-8.887-8.731-14.324,2.557-7.788,14.969,6.573,14.969,6.573l.949,1.07Z" transform="translate(-660.516 -180.513)" fill="#fbbebe"/>
        <path id="Path_31" data-name="Path 31" d="M701.94,272.245s-.6,7.425-5.232,7.545c0,0-1.31-.791-3.073-2.108l-.4-.506a6.042,6.042,0,0,0,2.532.68,3.421,3.421,0,0,0,3.307-2.082,26.524,26.524,0,0,0,1.266-2.946,8.688,8.688,0,0,0,.468-1.825Z" transform="translate(-679.178 -202.021)" opacity="0.1"/>
        <path id="Path_32" data-name="Path 32" d="M700.7,284.352l-1.041-1.339-3.513-4.51-1.785-2.3a6.012,6.012,0,0,0,2.532.684,3.426,3.426,0,0,0,3.31-2.086,26.393,26.393,0,0,0,1.266-2.946c.579-1.643.566-2.489.365-2.772a18.935,18.935,0,0,1,2.01,1.785l.025.025c.206.19.339.317.339.317l.123.247,1.763,3.525.019.149C706.272,276.247,706.866,283.346,700.7,284.352Z" transform="translate(-679.943 -200.681)" fill="#e6e6e6"/>
        <path id="Path_33" data-name="Path 33" d="M756.417,791.335s-5.11,3.348-7.666,2.848a9.068,9.068,0,0,0-5.174.854,15.4,15.4,0,0,1-6.453,4.2c-4.136,1.4-9.915.851-13.2-.247-1.557-.516-1.68-1.187-.934-2.01a26.005,26.005,0,0,1,4.95-3.345,47.654,47.654,0,0,0,8.7-7.425,2.64,2.64,0,0,1,.791-1.763,9.443,9.443,0,0,0,1.228-1.266c.652-.772,1.266-1.582,1.266-1.582l15.032.487s.257,1.085.456,2.193a7.806,7.806,0,0,1,.212,2.19,1.978,1.978,0,0,0,.427,1.519l.269,2.484Z" transform="translate(-699.209 -551.027)" fill="#2f2e41"/>
        <path id="Path_34" data-name="Path 34" d="M896.011,797.992c-.181.728-.4,2.035-.5,2.649-.033.209-.051.335-.051.335s-1.219,2.677-7.972,3.652-6.754-2.253-6.754-2.253.025-.348.07-.87c.117-1.424.361-4.148.538-4.728a21.524,21.524,0,0,0-.181-4.26l-.073-3.627-.051-2.532,11.2-1.158a21.389,21.389,0,0,0,.361,2.494,3.166,3.166,0,0,0,.49,1.266c.608.674.975,3.652.975,3.652S896.248,797.017,896.011,797.992Z" transform="translate(-807.337 -553.488)" fill="#2f2e41"/>
        <path id="Path_35" data-name="Path 35" d="M789.637,782.07s.256,1.086.456,2.193c-1.623.3-8.722,1.528-10.5.668a27.767,27.767,0,0,0-6.33-1.522l.073-.247c.652-.772,1.266-1.582,1.266-1.582Z" transform="translate(-733.877 -551.013)" opacity="0.1"/>
        <path id="Path_36" data-name="Path 36" d="M893.238,787.706c-2.848-.481-9.058.684-11.507,1.184l-.051-2.532,11.2-1.158A21.456,21.456,0,0,0,893.238,787.706Z" transform="translate(-807.981 -553.488)" opacity="0.1"/>
        <path id="Path_37" data-name="Path 37" d="M823.1,422.012l-.244,8.58s.317,13.083-.608,15.153-.915,10.406-.915,10.406.611,3.956-.06,4.8-.184,4.019.317,5.662.057,5.722.057,5.722l-.12,23s-.668,5.963-1.522,6.817a1.994,1.994,0,0,0-.484,1.946,20.6,20.6,0,0,0-.547,4.015,2.016,2.016,0,0,1-.851,2.674c-1.4.668-1.038,2.8-1.038,2.8-3.345-.791-12.836,1.342-12.836,1.342a55.518,55.518,0,0,1-2.681-6.513A3.361,3.361,0,0,1,804,503.991c1.275-.171-.912-2.437-.912-2.437s.244-.317-.365-2.494.12-7.792.317-9.251,1.1-8.519,1.1-8.519-.484-8.944-.12-9.311,1.582-3.9.975-5.064-1.582-8.763-1.582-9.178-.791-10.286-.791-10.286a83.116,83.116,0,0,1-.548-8.336,54.614,54.614,0,0,0-.487-6.874c0-4.507-2.614-9.374-2.614-9.374l-.066.174-5.655,14.874s-.912,4.5-1.706,7.057a46.251,46.251,0,0,0-1.187,5.282l-.054.317c-.022.136-.041.253-.054.342l-.038.247h0s.424,3.225-.244,4.26a15.219,15.219,0,0,0-1.427,5c0,.864.057,4.143.057,4.143s.247,6.51-.424,7.241a1.149,1.149,0,0,0-.317,1.339s1.1,4.928.611,6.205-.12,4.257-.12,4.257-.965,9.412-1.073,9.906-.791,4.26-.063,4.564a9.813,9.813,0,0,1,2.13,2.13s.317,7.972-.788,8.58-.49,3.712-.49,3.712-8.82,1.706-10.83.73a27.751,27.751,0,0,0-6.33-1.522l.6-2c-.033.07-.437.718-.725-1.772-.316-2.617,2.253-1.339,2.253-1.339s2.006.487-1.221-2.677-1.643-6.39-1.46-6.39a41.122,41.122,0,0,0,.608-4.684,15.565,15.565,0,0,0,.12-4.991c-.427-2.19-.788-9.007-.788-9.007s.317-5.171-.244-7.057.365-5.295.547-6.089-.547-8.031-.547-8.031a22.388,22.388,0,0,0,.244-5.9c-.367-2.494.367-11.684.367-11.684l1.1-10.589a22.459,22.459,0,0,0,.668-4.624,37.64,37.64,0,0,1,.912-6.013,6.618,6.618,0,0,1,.487-2.92c.608-1.215.854-5.232.854-5.232l5.842-13.39,2.848-11.8,38.642-.365s.142,1.022.373,2.883.566,4.617.949,8.016c.336,3.089.7,6.722,1.062,10.76C825.535,419.7,823.1,422.012,823.1,422.012Z" transform="translate(-731.511 -280.043)" fill="#2f2e41"/>
        <path id="Path_38" data-name="Path 38" d="M882.447,143.459l-9.01,9.618s-11.558-4.627-10.343-6.209c.471-.614.4-2.532.123-4.679-.427-3.367-1.339-7.25-1.339-7.25s20.2-3.285,18.495.12a5.526,5.526,0,0,0-.126,4.042,15.192,15.192,0,0,0,2.2,4.358Z" transform="translate(-794.446 -108.044)" fill="#fbbebe"/>
        <path id="Path_39" data-name="Path 39" d="M880.375,135.063c-.633,1.247-.918,1.367-.529,2.709-2.642,2.848-6.013,5.934-10.178,5.934a14.409,14.409,0,0,1-6.45-1.513c-.427-3.367-1.339-7.25-1.339-7.25S882.081,131.657,880.375,135.063Z" transform="translate(-794.447 -108.047)" opacity="0.1"/>
        <path id="Path_40" data-name="Path 40" d="M869.681,87.286a14.485,14.485,0,1,1-28.97,0v-.209a14.482,14.482,0,1,1,28.964.209Z" transform="translate(-779.978 -66.476)" fill="#fbbebe"/>
        <path id="Path_41" data-name="Path 41" d="M850.9,403.4c-1.918.016-8.307.07-15.447.184h-.086l-2.36.04h-.073c-8.466.136-16.808-1.519-20.156-1.2-7.121.668,2.555-6.573,2.555-6.573a59.506,59.506,0,0,0,16.219,1.639l2.047-.1c6.471-.367,12.975-.975,16.368-1.994C850.2,397.263,850.529,400.01,850.9,403.4Z" transform="translate(-759.094 -287.04)" opacity="0.1"/>
        <path id="Path_42" data-name="Path 42" d="M850.893,402.236c-1.918,0-8.307.07-15.447.18h-.086l-2.361.041h-.073c-8.466.136-16.808-1.519-20.156-1.206-7.121.668,2.555-6.57,2.555-6.57a59.655,59.655,0,0,0,16.22,1.639l2.047-.108c6.471-.365,12.975-.975,16.368-1.994C850.2,396.1,850.526,398.837,850.893,402.236Z" transform="translate(-759.092 -286.243)" fill="#7c5c5c"/>
        <path id="Path_43" data-name="Path 43" d="M831.337,172.9l-11.2,5.234-8.64,66.814s5.11-2.31,8.031-.851,11.925.123,11.925.123,6.573-.367,7.548.365,12.411-3.041,12.411-3.041,2.07-4.627.488-5.355.488-7.912.488-7.912l-.975-48.2-1.946-6.205-5.232-3.167-5.361,4.26-2.532.365Z" transform="translate(-760.011 -133.469)" opacity="0.1"/>
        <path id="Path_44" data-name="Path 44" d="M831.337,170.583l-11.2,5.235-8.64,66.82s5.11-2.313,8.031-.851,11.925.12,11.925.12,6.573-.365,7.548.365,12.411-3.041,12.411-3.041,2.07-4.624.488-5.355.488-7.912.488-7.912l-.975-48.2-1.946-6.205-5.232-3.166-5.361,4.263-2.532.361Z" transform="translate(-760.011 -131.883)" fill="#e6e6e6"/>
        <path id="Path_45" data-name="Path 45" d="M854.808,183s3.225,3.832,3.165,4.624-.18,2.677-.18,2.677l-2.437,4.931s-1.339,6.146-1.339,7.425S851.887,215,851.887,215l-2.555,17.039-3.225,22.333,3.285,5.659,3.9-3.285,5.171-39.8,1.1-7.849s1.155-14.118,1.155-15.577a49.884,49.884,0,0,0-.668-5.295s.791-3.652,4.076-4.5-.244-.184-.244-.184l-1.9-1.522-1.643.671S855.782,181.3,854.808,183Z" transform="translate(-783.666 -141.198)" opacity="0.1"/>
        <path id="Path_46" data-name="Path 46" d="M853.687,181.881s3.225,3.832,3.165,4.624-.184,2.677-.184,2.677l-2.434,4.931s-1.323,6.139-1.323,7.415-2.13,12.343-2.13,12.343l-2.573,17.064L845,253.253l3.288,5.662,3.877-3.295,5.177-39.791,1.1-7.849s1.155-14.118,1.155-15.58a49.778,49.778,0,0,0-.668-5.295s.791-3.65,4.076-4.5-.244-.181-.244-.181l-1.9-1.522-1.617.664S854.662,180.17,853.687,181.881Z" transform="translate(-782.909 -140.434)" fill="#2f2e41"/>
        <path id="Path_47" data-name="Path 47" d="M860.466,163.79s-.488.365-.608,2.8a48.7,48.7,0,0,1-1.825,7.912s6.33-4.383,9.495-3.9Z" transform="translate(-791.817 -128.739)" opacity="0.1"/>
        <path id="Path_48" data-name="Path 48" d="M860.466,161.48s-.488.365-.608,2.8a48.616,48.616,0,0,1-1.825,7.912s6.33-4.38,9.495-3.893Z" transform="translate(-791.817 -127.16)" fill="#e6e6e6"/>
        <path id="Path_49" data-name="Path 49" d="M898.771,157.63l-9.982,8.763s8.4,4.991,9.494,6.209,2.19-11.929,2.19-11.929Z" transform="translate(-812.841 -124.528)" opacity="0.1"/>
        <path id="Path_50" data-name="Path 50" d="M899.963,155.33,890,164.087s8.4,4.988,9.494,6.205,2.193-11.928,2.193-11.928Z" transform="translate(-813.668 -122.957)" fill="#e6e6e6"/>
        <path id="Path_51" data-name="Path 51" d="M804.125,163.593s-1.1-.548-2.13,1.035a6.862,6.862,0,0,1-2.981,2.31s-11.077,1.766-11.5,3.225l-5.171.317s-1.825.241-2.01,4.076-1.168,4.19-1.168,4.19-2.13,3.772-1.95,5.719a3.2,3.2,0,0,1-1.643,2.92l7.6,19.778s.244,8.156-1.158,11.137-4.015,16.188-4.015,16.188,1.1-.244,1.035.484-1.339,8.7-1.339,8.7a17.585,17.585,0,0,1-.972,4.26c-.607,1.1-.671,6.817-.671,6.817l-.975,4.136s2.313,5.174,5.842,4.431,9.96-14.526,9.96-14.526l4.076-14.909,3.165-14.726.911-9.979,1.462-22.09,2.13-14.605S804.98,164.629,804.125,163.593Z" transform="translate(-735.113 -128.541)" opacity="0.1"/>
        <path id="Path_52" data-name="Path 52" d="M803.027,161.283s-1.1-.548-2.13,1.035a6.881,6.881,0,0,1-2.981,2.313s-11.077,1.763-11.5,3.225l-5.174.317s-1.825.244-2.006,4.076-1.158,4.2-1.158,4.2-2.13,3.772-1.946,5.719a3.191,3.191,0,0,1-1.643,2.92l7.6,19.778s.244,8.156-1.155,11.137-4.015,16.188-4.015,16.188,1.1-.244,1.035.487-1.339,8.7-1.339,8.7a17.483,17.483,0,0,1-.975,4.26c-.61,1.1-.668,6.817-.668,6.817L774,256.577s2.313,5.174,5.842,4.431,9.918-14.542,9.918-14.542l4.079-14.909L797,216.828l.914-9.979,1.46-22.09,2.13-14.605S803.878,162.317,803.027,161.283Z" transform="translate(-734.379 -126.963)" fill="#2f2e41"/>
        <path id="Path_53" data-name="Path 53" d="M709.57,285.99l-3.529,2.438a41.726,41.726,0,0,1-9.254-.779l-1.962-.873-.4-.171.405.126a8.035,8.035,0,0,0,4.87.174c4.994-1.68,4.431-9.928,4.25-11.8-.019-.187-.033-.317-.041-.354a.113.113,0,0,1,0-.022l.029.047a2.233,2.233,0,0,0,.232.317c.07.079.142.161.222.237h0l1.763,3.525.019.149Z" transform="translate(-679.991 -204.572)" opacity="0.1"/>
        <path id="Path_54" data-name="Path 54" d="M722.568,235.12l-1.7.487-.244,3.481a2.326,2.326,0,0,0-2.557,2.07,8.362,8.362,0,0,1-1.519,3.481s-3.348,2.8-3.532,5.171l-2.067,1.266s-4.812-1.12-5.9-3.053c0,0,2.19,15.7-9.494,11.865,0,0,13.083,5.722,13.691,6.513s4.627,3.1,8.276,1.155a8.805,8.805,0,0,0,4.443-4.94s3.529-4.931,3.652-5.662,2.848-1.582,2.848-1.582l5.235-12.66Z" transform="translate(-680.757 -177.495)" fill="#2f2e41"/>
        <path id="Path_55" data-name="Path 55" d="M913.251,163.366l1.763-8.031s.791,2.617,1.583,3.225l2.617,2.006a15.207,15.207,0,0,0,3.529,1.219c.911,0,5.842,1.266,6.45,1.946s3.045.184,3.045.184,2.006.668,3.772,1.1,2.617,3.348,2.25,4.5a3.51,3.51,0,0,0,.854,3.285c.728.73,1.1,3.1,1.1,3.1a3.56,3.56,0,0,1,2.067,1.763,12.216,12.216,0,0,1,.427,4.26L933.636,194.7s.12,4.931-.244,6.013,1.266,19.716,1.266,19.716l1.9,32.008a33.9,33.9,0,0,1-3.041,2.374c-.548.244-1.1-11.321-1.1-11.744s-14.055-21.055-14.055-21.055-1.9-3.044-1.9-3.712-1.766-6.817-1.766-6.817l-2.679-11.866Z" transform="translate(-828.719 -122.96)" opacity="0.1"/>
        <path id="Path_56" data-name="Path 56" d="M945.059,181.181c0,.418-.022.7-.022.7l-9.059,12.77h0s.127,4.928-.241,6.013c-.212.633.253,7.184.684,12.561.317,3.883.6,7.156.6,7.156l.8,13.577,1.083,18.432a33.9,33.9,0,0,1-3.041,2.374c-.548.244-1.1-11.32-1.1-11.747S920.7,221.959,920.7,221.959s-1.9-3.044-1.9-3.712-1.763-6.817-1.763-6.817l-2.677-11.868L915.58,163.3l1.035-8.031a17.555,17.555,0,0,0,2.313,3.222c.791.6,2.614,2.01,2.614,2.01a15.189,15.189,0,0,0,3.532,1.219c.915,0,5.842,1.266,6.45,1.946s3.045.184,3.045.184,2.006.668,3.769,1.1,2.617,3.348,2.253,4.5a3.51,3.51,0,0,0,.851,3.288c.73.73,1.1,3.1,1.1,3.1a3.573,3.573,0,0,1,2.07,1.769A9.983,9.983,0,0,1,945.059,181.181Z" transform="translate(-830.322 -122.913)" fill="#2f2e41"/>
        <path id="Path_57" data-name="Path 57" d="M776.31,749.48c.317,0,13.083.487,12.839,2.557S776.31,749.48,776.31,749.48Z" transform="translate(-735.958 -529.072)" opacity="0.1"/>
        <path id="Path_58" data-name="Path 58" d="M785.35,760.44s8.58,1.4,6.33,2.677S785.35,760.44,785.35,760.44Z" transform="translate(-742.137 -536.564)" opacity="0.1"/>
        <path id="Path_59" data-name="Path 59" d="M886.1,745.25s14.241,1.219,12.112,2.8-7.181,1.825-7.425,1.9S886.1,745.25,886.1,745.25Z" transform="translate(-811.002 -526.181)" opacity="0.1"/>
        <path id="Path_60" data-name="Path 60" d="M880.72,765.06s7.912,1.339,8.152,2.848S880.72,765.06,880.72,765.06Z" transform="translate(-807.325 -539.721)" opacity="0.1"/>
        <path id="Path_61" data-name="Path 61" d="M894.56,649.3s7.241,1.7,7.668,2.848Z" transform="translate(-816.785 -460.597)" opacity="0.1"/>
        <path id="Path_62" data-name="Path 62" d="M802.6,665.84s-3.772,1.1-.12,3.285S802.6,665.84,802.6,665.84Z" transform="translate(-752.758 -471.902)" opacity="0.1"/>
        <path id="Path_63" data-name="Path 63" d="M859.18,477.886c.427,0,7.061-2.19,9.371-1.215a15.384,15.384,0,0,0,5.174.972Z" transform="translate(-792.602 -342.429)" opacity="0.1"/>
        <path id="Path_64" data-name="Path 64" d="M843.276,495.809l-.066.6-5.655,14.874s-.912,4.5-1.706,7.057a46.227,46.227,0,0,0-1.187,5.282l5.023-31.144Z" transform="translate(-775.843 -353.407)" opacity="0.1"/>
        <path id="Path_65" data-name="Path 65" d="M881.557,406.722l-2.361.041h-.073l-1.383-6.133c.68-.033,1.361-.07,2.047-.111Z" transform="translate(-805.288 -290.549)" fill="#2f2e41"/>
        <path id="Path_66" data-name="Path 66" d="M927.577,384.031l-1.516,1.247L921,389.44s-13.694,7.3-17.466.367c-3.326-6.111,12.2-10.475,15.938-11.428.509-.13.8-.193.8-.193Z" transform="translate(-822.6 -275.284)" fill="#fbbebe"/>
        <path id="Path_67" data-name="Path 67" d="M795.73,207.63s2.677,1.215,3.285,2.92S795.73,207.63,795.73,207.63Z" transform="translate(-749.232 -158.705)" opacity="0.1"/>
        <path id="Path_68" data-name="Path 68" d="M763.767,265.31s-3.9,4.747-2.313,6.573S763.767,265.31,763.767,265.31Z" transform="translate(-725.545 -198.13)" opacity="0.1"/>
        <path id="Path_69" data-name="Path 69" d="M981.4,216.09s-3.652.365-3.772,3.529Z" transform="translate(-873.566 -164.488)" opacity="0.1"/>
        <path id="Path_70" data-name="Path 70" d="M882.64,348.377c.365-.365,8.763-12.779,10.71-11.684Z" transform="translate(-808.637 -246.875)" opacity="0.1"/>
        <path id="Path_71" data-name="Path 71" d="M869.7,87.258a14.432,14.432,0,0,1-1.712,6.836l-.107-.019c-.918-.193-1.4-1.266-2.1-1.931a2.848,2.848,0,0,0-3.285-.462,3.342,3.342,0,0,0-1.614,3.124c-.462-1.95-.317-4.022-.769-5.975s-1.817-3.927-3.681-3.962c-.8,0-1.744.3-2.323-.317-.351-.365-.424-.949-.687-1.377-1.332-2.157-5.38-1.067-7.045.038-1.6,1.062-3.584,2.874-5.641,3.823a14.482,14.482,0,1,1,28.964.209Z" transform="translate(-779.993 -66.449)" opacity="0.1"/>
        <path id="Path_72" data-name="Path 72" d="M845.474,69.408c.266.44.335,1.016.687,1.377.579.6,1.519.294,2.323.317,1.864.033,3.228,2.01,3.681,3.962s.317,4.022.769,5.973a3.335,3.335,0,0,1,1.617-3.119,2.848,2.848,0,0,1,3.282.459c.7.668,1.18,1.738,2.1,1.931s1.8-.687,2.133-1.655a25.337,25.337,0,0,0,.525-3.032c.415-1.9,1.652-3.451,2.339-5.257a9.532,9.532,0,0,0-.063-6.8c-.456-1.143-1.136-2.171-1.582-3.313-.7-1.734-4.6-4.07-5.45-5.722-1.434-2.766-.509-1.041-3.282,0-1.323.5-3.057-1.272-4.4-.832-1.8.576-3.722.142-5.586-.117s-3.918-.285-5.415.949c-1.722,1.408-2.193,4.057-3.8,5.6-.68.649-1.526,1.062-2.244,1.665a3.111,3.111,0,0,0-1.266,2.472c.108,1.266,1.342,2.405.886,3.573a2.894,2.894,0,0,1-.674.889,12.676,12.676,0,0,0-2.946,5.013c3.256,1.016,6.782-2.573,9.33-4.269C840.087,68.345,844.141,67.265,845.474,69.408Z" transform="translate(-772.047 -53.036)" fill="#2f2e41"/>
        <path id="Path_73" data-name="Path 73" d="M962.506,384.037l-1.516,1.247c-1.336-2.215-6.82-6.668-6.82-6.668l.237-.228c.509-.13.8-.193.8-.193Z" transform="translate(-857.53 -275.29)" opacity="0.1"/>
        <path id="Path_74" data-name="Path 74" d="M964.761,377.586s-.544,1.355-1.108,2.532-1.174,2.234-1.206,1.37c-.06-1.706-7.117-7.428-7.117-7.428l.949-.929,1.111-1.076Z" transform="translate(-858.323 -271.093)" fill="#e6e6e6"/>
        <path id="Path_75" data-name="Path 75" d="M965.125,345.612l.8,13.577c-1.9-2.94-7.08-10.475-10.42-10.232l8.1-9.308a10.9,10.9,0,0,0,.927-1.195C964.84,342.34,965.125,345.612,965.125,345.612Z" transform="translate(-858.443 -248.127)" opacity="0.1"/>
        <path id="Path_76" data-name="Path 76" d="M966.827,377.583s-.544,1.355-1.108,2.532c-2.12-2.908-5.038-6.345-7.367-6.988l1.111-1.076Z" transform="translate(-860.388 -271.09)" opacity="0.1"/>
        <path id="Path_77" data-name="Path 77" d="M971.761,234l2.19,1.7s3.65.063,4.015,3.1,3.712,4.431,3.712,4.431,2.494,2.494,2.494,3.65,1.9,3.228,1.9,3.408,1.825,3.9,1.582,4.564,1.946,3.592,1.266,4.687a26.818,26.818,0,0,0-1.462,3.041s-2.848,5.478-4.32,6.513-8.152,9.735-8.152,9.735-7.181,8.276-7.181,10.833c0,0-7-11.684-11.137-11.393l8.092-9.311s1.4-1.519,1.462-2.434,3.893-5.11,5.719-5.295c0,0,.317-2.494-.487-2.555s-1.46-2.01-1.46-2.01-5.355-6.33-5.415-10.346S971.761,234,971.761,234Z" transform="translate(-859.237 -176.729)" fill="#2f2e41"/>
        <path id="Path_78" data-name="Path 78" d="M1005.544,252.24s-5.114,3.772-4.015,4.988S1005.544,252.24,1005.544,252.24Z" transform="translate(-889.794 -189.197)" opacity="0.1"/>
        <path id="Path_80" data-name="Path 80" d="M756.417,810.475s-5.11,3.348-7.666,2.848a9.068,9.068,0,0,0-5.174.854,15.4,15.4,0,0,1-6.453,4.2c-4.136,1.4-9.915.851-13.2-.247-1.557-.516-1.68-1.187-.934-2.01,3.573.712,11.558,2.127,13.71,1.1a56.8,56.8,0,0,0,6.814-4.26s5.238-.73,5.966-.73a65.193,65.193,0,0,0,6.842-2.627Z" transform="translate(-699.209 -570.167)" opacity="0.1"/>
        <path id="Path_82" data-name="Path 82" d="M800.43,249.93s0,13.874-1.187,15.245S800.43,249.93,800.43,249.93Z" transform="translate(-751.406 -187.618)" opacity="0.1"/>
        <path id="Path_83" data-name="Path 83" d="M977.05,264.06l1.763,4.958S979.515,264.152,977.05,264.06Z" transform="translate(-873.169 -197.276)" opacity="0.1"/>
        <g id="Group_1" data-name="Group 1" transform="translate(57.05 10.116)" opacity="0.1">
          <path id="Path_84" data-name="Path 84" d="M838.768,88.481c.446-1.143-.721-2.26-.873-3.481a2.29,2.29,0,0,0-.2,1.1c.079.921.76,1.785.949,2.636a1.437,1.437,0,0,0,.12-.257Z" transform="translate(-834.964 -85)"/>
          <path id="Path_85" data-name="Path 85" d="M853.073,109.843c-.437-1.921-.317-3.953-.753-5.871s-1.814-3.931-3.677-3.962c-.8,0-1.744.294-2.326-.317-.348-.361-.421-.949-.684-1.377-1.332-2.157-5.38-1.062-7.048.041-2.491,1.655-5.908,5.114-9.1,4.329a11.541,11.541,0,0,0-.414,1.128c3.256,1.016,6.782-2.573,9.33-4.269,1.662-1.1,5.716-2.215,7.048-.041.266.44.335,1.016.687,1.377.579.6,1.519.294,2.323.317,1.864.033,3.228,2.01,3.68,3.962s.317,4.022.769,5.973a3.286,3.286,0,0,1,.166-1.288Z" transform="translate(-829.071 -93.257)"/>
          <path id="Path_86" data-name="Path 86" d="M914.1,127.9c-.317.968-1.2,1.855-2.136,1.655s-1.4-1.266-2.095-1.931a2.848,2.848,0,0,0-3.285-.459,3.317,3.317,0,0,0-1.614,2.949,3.165,3.165,0,0,1,1.434-1.763,2.848,2.848,0,0,1,3.282.459c.7.668,1.18,1.738,2.1,1.931s1.8-.687,2.133-1.655a8.285,8.285,0,0,0,.335-1.747A4.858,4.858,0,0,1,914.1,127.9Z" transform="translate(-880.947 -113.599)"/>
          <path id="Path_87" data-name="Path 87" d="M937.433,101.091c-.684,1.8-1.925,3.361-2.336,5.26-.082.383-.13.776-.177,1.168.418-1.9,1.649-3.443,2.333-5.241a9.4,9.4,0,0,0,.564-2.532,9.259,9.259,0,0,1-.383,1.345Z" transform="translate(-901.421 -95.079)"/>
        </g>
        <rect id="Rectangle_1" data-name="Rectangle 1" width="0.278" height="2.285" rx="0.139" transform="translate(10.074 61.571) rotate(-26.744)" fill="#3a3768"/>
        <rect id="Rectangle_5" data-name="Rectangle 5" width="9.273" height="18.849" rx="2.24" transform="translate(0 61.857) rotate(-26.744)" fill="#3a3768"/>
        <path id="Path_88" data-name="Path 88" d="M657.541,238.6a.317.317,0,0,0-.146.446l.033.06a.317.317,0,0,1-.149.446l-3.51,1.769a.316.316,0,0,1-.446-.146l-.033-.063a.317.317,0,0,0-.446-.146l-.684.342a.633.633,0,0,0-.282.855l7.466,14.82a.633.633,0,0,0,.855.282l6.124-3.086a.633.633,0,0,0,.282-.851L659.149,238.5a.633.633,0,0,0-.851-.278Z" transform="translate(-650.859 -179.569)" fill="#00b0ff"/>
      </g>
      <rect id="Rectangle_10" data-name="Rectangle 10" width="12.102" height="1.916" transform="translate(427.212 322.729)" opacity="0.1"/>
      <path id="Path_95" data-name="Path 95" d="M628.655,262.9v37.748a3.781,3.781,0,0,1-3.787,3.787H620.8V259.12h4.067a3.781,3.781,0,0,1,3.787,3.783Z" transform="translate(-162.349 -112.984)" fill="#d0cde1"/>
      <path id="Path_96" data-name="Path 96" d="M632.169,259.177v35.811a4.225,4.225,0,0,1-.7.057h-.582V259.12h.583A4.209,4.209,0,0,1,632.169,259.177Z" transform="translate(-168.951 -108.202)" opacity="0.2"/>
      <rect id="Rectangle_7" data-name="Rectangle 7" width="14.665" height="117.585" transform="translate(433.684 204.775)" fill="#d0cde1"/>
      <path id="Path_97" data-name="Path 97" d="M410.73,726.54h33.577a13.9,13.9,0,0,1,13.9,13.9v2.138H396.83V740.44a13.9,13.9,0,0,1,13.9-13.9Z" transform="translate(12.654 -406.024)" fill="#d0cde1"/>
      <rect id="Rectangle_11" data-name="Rectangle 11" width="14.665" height="14.105" transform="translate(433.684 220.963)" opacity="0.1"/>
      <rect id="Rectangle_12" data-name="Rectangle 12" width="14.665" height="14.105" transform="translate(433.684 220.003)" opacity="0.1"/>
      <rect id="Rectangle_13" data-name="Rectangle 13" width="17.551" height="14.105" transform="translate(432.325 220.482)" fill="#d0cde1"/>
      <path id="Path_98" data-name="Path 98" d="M555.64,394.735v5.854a5.492,5.492,0,0,1-5.492,5.492H530.682a5.492,5.492,0,0,1-5.492-5.492v-5.854a5.488,5.488,0,0,1,5.492-5.485h19.466a5.488,5.488,0,0,1,5.492,5.485Z" transform="translate(-99.392 -198.819)" fill="#d0cde1"/>
      <path id="Path_99" data-name="Path 99" d="M555.62,394.735v.6a19.156,19.156,0,0,1-30.46,0v-.6a5.488,5.488,0,0,1,5.492-5.485h19.467a5.488,5.488,0,0,1,5.5,5.485Z" transform="translate(-99.372 -198.818)" opacity="0.1"/>
      <path id="Path_100" data-name="Path 100" d="M434.627,202h35.214a1.547,1.547,0,0,1,1.547,1.547V247.6a16.6,16.6,0,0,1-16.6,16.6h-5.106a16.6,16.6,0,0,1-16.6-16.6V203.547A1.547,1.547,0,0,1,434.627,202Z" transform="translate(-11.216 -60.625)" fill="#d0cde1"/>
      <path id="Path_101" data-name="Path 101" d="M445.305,135.364h22.2c3.255,0,5.895,2.053,5.895,4.586v13.139a1.933,1.933,0,0,1-2.124,1.653H441.535a1.933,1.933,0,0,1-2.124-1.653V139.948c0-2.533,2.639-4.586,5.895-4.586Z" transform="translate(-15.526 -11.358)" fill="#d0cde1"/>
      <rect id="Rectangle_14" data-name="Rectangle 14" width="23.876" height="1.762" transform="translate(428.675 134.067)" opacity="0.2"/>
      <rect id="Rectangle_15" data-name="Rectangle 15" width="30.453" height="22.1" transform="translate(425.791 147.031)" opacity="0.1"/>
      <rect id="Rectangle_16" data-name="Rectangle 16" width="30.453" height="22.1" transform="translate(425.791 146.55)" fill="#00b0ff"/>
      <g id="Group_2" data-name="Group 2" transform="translate(425.962 172.437)" opacity="0.1">
        <rect id="Rectangle_17" data-name="Rectangle 17" width="6.851" height="2.445" rx="0.79"/>
        <rect id="Rectangle_18" data-name="Rectangle 18" width="6.851" height="2.445" rx="0.79" transform="translate(7.753)"/>
        <rect id="Rectangle_19" data-name="Rectangle 19" width="6.851" height="2.445" rx="0.79" transform="translate(15.505)"/>
        <rect id="Rectangle_20" data-name="Rectangle 20" width="6.851" height="2.445" rx="0.79" transform="translate(23.261)"/>
        <rect id="Rectangle_21" data-name="Rectangle 21" width="6.851" height="2.445" rx="0.79" transform="translate(0 4.788)"/>
        <rect id="Rectangle_22" data-name="Rectangle 22" width="6.851" height="2.445" rx="0.79" transform="translate(7.753 4.788)"/>
        <rect id="Rectangle_23" data-name="Rectangle 23" width="6.851" height="2.445" rx="0.79" transform="translate(15.505 4.788)"/>
        <rect id="Rectangle_24" data-name="Rectangle 24" width="6.851" height="2.445" rx="0.79" transform="translate(0 9.457)"/>
        <rect id="Rectangle_25" data-name="Rectangle 25" width="6.851" height="2.445" rx="0.79" transform="translate(7.753 9.457)"/>
        <rect id="Rectangle_26" data-name="Rectangle 26" width="6.851" height="2.445" rx="0.79" transform="translate(15.505 9.457)"/>
        <rect id="Rectangle_27" data-name="Rectangle 27" width="6.851" height="2.445" rx="0.79" transform="translate(0 14.607)"/>
        <rect id="Rectangle_28" data-name="Rectangle 28" width="6.851" height="2.445" rx="0.79" transform="translate(7.753 14.607)"/>
        <rect id="Rectangle_29" data-name="Rectangle 29" width="6.851" height="2.445" rx="0.79" transform="translate(15.505 14.607)"/>
        <rect id="Rectangle_30" data-name="Rectangle 30" width="6.851" height="2.445" rx="0.79" transform="translate(23.261 4.788)"/>
        <rect id="Rectangle_31" data-name="Rectangle 31" width="6.072" height="8.716" rx="1.97" transform="translate(23.681 9.194)"/>
      </g>
      <rect id="Rectangle_32" data-name="Rectangle 32" width="6.851" height="2.445" rx="0.79" transform="translate(425.962 171.955)" fill="#fff"/>
      <rect id="Rectangle_33" data-name="Rectangle 33" width="6.851" height="2.445" rx="0.79" transform="translate(433.715 171.955)" fill="#fff"/>
      <rect id="Rectangle_34" data-name="Rectangle 34" width="6.851" height="2.445" rx="0.79" transform="translate(441.467 171.955)" fill="#fff"/>
      <rect id="Rectangle_35" data-name="Rectangle 35" width="6.851" height="2.445" rx="0.79" transform="translate(449.223 171.955)" fill="#2f2e41"/>
      <rect id="Rectangle_36" data-name="Rectangle 36" width="6.851" height="2.445" rx="0.79" transform="translate(425.962 176.743)" fill="#fff"/>
      <rect id="Rectangle_37" data-name="Rectangle 37" width="6.851" height="2.445" rx="0.79" transform="translate(433.715 176.743)" fill="#fff"/>
      <rect id="Rectangle_38" data-name="Rectangle 38" width="6.851" height="2.445" rx="0.79" transform="translate(441.467 176.743)" fill="#fff"/>
      <rect id="Rectangle_39" data-name="Rectangle 39" width="6.851" height="2.445" rx="0.79" transform="translate(425.962 181.412)" fill="#fff"/>
      <rect id="Rectangle_40" data-name="Rectangle 40" width="6.851" height="2.445" rx="0.79" transform="translate(433.715 181.412)" fill="#fff"/>
      <rect id="Rectangle_41" data-name="Rectangle 41" width="6.851" height="2.445" rx="0.79" transform="translate(441.467 181.412)" fill="#fff"/>
      <rect id="Rectangle_42" data-name="Rectangle 42" width="6.851" height="2.445" rx="0.79" transform="translate(425.962 186.562)" fill="#fff"/>
      <rect id="Rectangle_43" data-name="Rectangle 43" width="6.851" height="2.445" rx="0.79" transform="translate(433.715 186.562)" fill="#fff"/>
      <rect id="Rectangle_44" data-name="Rectangle 44" width="6.851" height="2.445" rx="0.79" transform="translate(441.467 186.562)" fill="#fff"/>
      <rect id="Rectangle_45" data-name="Rectangle 45" width="6.851" height="2.445" rx="0.79" transform="translate(449.223 176.743)" fill="#2f2e41"/>
      <rect id="Rectangle_46" data-name="Rectangle 46" width="6.072" height="8.716" rx="1.97" transform="translate(449.643 181.152)" fill="#00b0ff"/>
      <rect id="Rectangle_47" data-name="Rectangle 47" width="3.282" height="0.393" transform="translate(440.975 165.965)" fill="#fff"/>
      <rect id="Rectangle_48" data-name="Rectangle 48" width="3.282" height="0.393" transform="translate(445.572 165.965)" fill="#fff"/>
      <rect id="Rectangle_49" data-name="Rectangle 49" width="3.282" height="0.393" transform="translate(450.169 165.965)" fill="#fff"/>
    </g>
  </g>
</svg>
