<svg xmlns="http://www.w3.org/2000/svg" width="582" height="307.872" viewBox="0 0 582 307.872">
  <g id="Group_2860" data-name="Group 2860" transform="translate(-669 -1374)">
    <g id="Group_2766" data-name="Group 2766">
      <text id="Pending" transform="translate(706.5 1374)" fill="#21232a" font-size="20" font-family="HelveticaNeue-Bold, Helvetica Neue" font-weight="700"><tspan x="1.43" y="20">Pending</tspan></text>
      <text id="In-Process" transform="translate(907.5 1374)" fill="#21232a" font-size="20" font-family="HelveticaNeue-Bold, Helvetica Neue" font-weight="700"><tspan x="0.84" y="20">In-Process</tspan></text>
      <text id="Completed" transform="translate(1116.25 1374)" fill="#21232a" font-size="20" font-family="HelveticaNeue-Bold, Helvetica Neue" font-weight="700"><tspan x="4.62" y="20">Completed</tspan></text>
      <text id="The_theft_reports_that_are_reported" data-name="The theft reports that are reported" transform="translate(704.5 1558)" fill="#707070" font-size="14" font-family="HelveticaNeue, Helvetica Neue"><tspan x="14.752" y="13">The theft </tspan><tspan x="6.324" y="28">reports that </tspan><tspan x="4.252" y="43">are reported</tspan></text>
      <text id="Theft_reports_that_are_currently_being_investigated" data-name="Theft reports that are currently being investigated" transform="translate(917.5 1543)" fill="#707070" font-size="14" font-family="HelveticaNeue, Helvetica Neue"><tspan x="2.439" y="13">Theft reports </tspan><tspan x="18.77" y="28">that are </tspan><tspan x="15.403" y="43">currently </tspan><tspan x="25.126" y="58">being </tspan><tspan x="4.644" y="73">investigated</tspan></text>
      <text id="Theft_reports_that_have_been_appropriately_dealt_with" data-name="Theft reports that have been appropriately dealt with" transform="translate(1130.5 1543)" fill="#707070" font-size="14" font-family="HelveticaNeue, Helvetica Neue"><tspan x="2.439" y="13">Theft reports </tspan><tspan x="13.583" y="28">that have </tspan><tspan x="26.939" y="43">been </tspan><tspan x="1.403" y="58">appropriately </tspan><tspan x="12.169" y="73">dealt with</tspan></text>
      <g id="Group_2580" data-name="Group 2580" transform="translate(0 -3921)">
        <path id="Path_2879" data-name="Path 2879" d="M-701.719-745.744c17.865,0,18.954,14.805,18.954,24.271q.112,95.463.011,190.926c-.013,13.419-10.5,23.777-24.436,23.836q-55.478.231-110.957-.007c-13.857-.062-24.276-10.637-24.52-24.474-.2-11.159-.093-22.324-.015-33.486.014-1.979-.687-4.968,2.647-4.851,2.9.1,2.27,2.858,2.283,4.708.077,10.662-.017,21.325.065,31.988.1,13.095,8.179,21.119,21.335,21.134q53.979.062,107.958,0c12.494-.013,20.711-8.135,20.721-20.641q.074-93.714.006-187.428c0-17.823-4.585-20.864-20.107-20.864-36.485,0-72.971-.2-109.456-.012-11.979.062-20.308,8.769-20.433,20.752-.148,14.16-.091,28.322-.011,42.483a16.444,16.444,0,0,1-2.478,8.958c-17.325,28.651-34.522,57.381-51.868,86.02a18.019,18.019,0,0,0-2.689,9.9c.1,12.994.074,25.99.027,38.984-.061,16.716-10.082,26.86-26.714,26.887-35.319.057-70.64-.093-105.959.083-11.875.059-27.354,0-27.354-15.336v-47.84c3.849-.731,5.01,1.147,4.978,4.721-.1,10.823-.009,21.648-.009,32.472,0,19.2,3.443,20.861,21,20.861q53.7,0,107.409,0c13.719-.013,21.57-7.965,21.623-21.837.049-12.989.164-25.98-.065-38.965a23.463,23.463,0,0,1,3.62-13.16c16.862-27.746,33.519-55.617,50.364-83.373a20.423,20.423,0,0,0,3.112-11.3c-.148-12.654.01-25.311-.068-37.967-.077-12.474,5.06-21.452,16.98-26.086a11.315,11.315,0,0,0,2.049-1.359Z" transform="translate(1933.708 6109.438)" fill="#6c7474"/>
        <path id="Path_2880" data-name="Path 2880" d="M-701.719-745.744c17.865,0,18.954,14.805,18.954,24.271q.112,95.463.011,190.926c-.013,13.419-10.5,23.777-24.436,23.836q-55.478.231-110.957-.007c-13.857-.062-24.276-10.637-24.52-24.474-.2-11.159-.093-22.324-.015-33.486.014-1.979-.687-4.968,2.647-4.851,2.9.1,2.27,2.858,2.283,4.708.077,10.662-.017,21.325.065,31.988.1,13.095,8.179,21.119,21.335,21.134q53.979.062,107.958,0c12.494-.013,20.711-8.135,20.721-20.641q.074-93.714.006-187.428c0-17.823-4.585-20.864-20.107-20.864-36.485,0-72.971-.2-109.456-.012-11.979.062-20.308,8.769-20.433,20.752-.148,14.16-.091,28.322-.011,42.483a16.444,16.444,0,0,1-2.478,8.958c-17.325,28.651-34.522,57.381-51.868,86.02a18.019,18.019,0,0,0-2.689,9.9c.1,12.994.074,25.99.027,38.984-.061,16.716-10.082,26.86-26.714,26.887-35.319.057-70.64-.093-105.959.083-11.875.059-27.354,0-27.354-15.336v-47.84c3.849-.731,5.01,1.147,4.978,4.721-.1,10.823-.009,21.648-.009,32.472,0,19.2,3.443,20.861,21,20.861q53.7,0,107.409,0c13.719-.013,21.57-7.965,21.623-21.837.049-12.989.164-25.98-.065-38.965a23.463,23.463,0,0,1,3.62-13.16c16.862-27.746,33.519-55.617,50.364-83.373a20.423,20.423,0,0,0,3.112-11.3c-.148-12.654.01-25.311-.068-37.967-.077-12.474,5.06-21.452,16.98-26.086a11.315,11.315,0,0,0,2.049-1.359Z" transform="translate(-13.708 4857.128) rotate(180)" fill="#6c7474"/>
        <g id="Group_501" data-name="Group 501" transform="translate(667.092 5365.29)">
          <path id="Path_2100" data-name="Path 2100" d="M223.564,175.84a9.13,9.13,0,1,0-9.129,9.13A9.13,9.13,0,0,0,223.564,175.84Z" fill="#707070"/>
        </g>
        <g id="Group_500" data-name="Group 500" transform="translate(668.092 5365.29)">
          <path id="Path_2099" data-name="Path 2099" d="M417.311,175.84a9.13,9.13,0,1,1,9.129,9.13A9.131,9.131,0,0,1,417.311,175.84Z" fill="#707070"/>
        </g>
        <g id="Group_862" data-name="Group 862" transform="translate(612.092 5250.29)">
          <path id="Path_2099-2" data-name="Path 2099" d="M417.311,175.84a9.13,9.13,0,1,1,9.129,9.13A9.131,9.131,0,0,1,417.311,175.84Z" fill="#707070"/>
        </g>
        <g id="Group_863" data-name="Group 863" transform="translate(400.092 5250.29)">
          <path id="Path_2099-3" data-name="Path 2099" d="M417.311,175.84a9.13,9.13,0,1,1,9.129,9.13A9.131,9.131,0,0,1,417.311,175.84Z" fill="#707070"/>
        </g>
      </g>
      <path id="check_1_" data-name="check (1)" d="M10.785,19.926a.973.973,0,0,0,.368.776,2.06,2.06,0,0,0,.606.342c.408.067,5.084.624,8.15.985l-.221,2.33c-2.388-.281-7.979-.943-8.3-1.009a3.864,3.864,0,0,1-1.417-.712,3.113,3.113,0,0,1-.695-.741l-.01.011L4.221,16.389a.976.976,0,0,0-1.486.015,1.269,1.269,0,0,0,.014,1.657l7.8,8.535a3.128,3.128,0,0,0,2.321,1.058H27.237V30H12.87a5.114,5.114,0,0,1-3.793-1.729l-7.8-8.535a3.807,3.807,0,0,1-.042-4.971A2.985,2.985,0,0,1,3.456,13.71a2.976,2.976,0,0,1,2.238,1.006l3.341,3.656a3.16,3.16,0,0,1,1.181-1.325A9.888,9.888,0,0,1,6.848,9.492C6.848,4.258,10.667,0,15.361,0a7.849,7.849,0,0,1,4.631,1.532L18.518,3.273a5.87,5.87,0,0,0-3.157-.929c-3.535,0-6.411,3.207-6.411,7.148s2.876,7.148,6.411,7.148c3.48,0,6.321-3.108,6.409-6.965l1.9-2.245a10.536,10.536,0,0,1,.2,2.062A9.935,9.935,0,0,1,20.786,16.8a11.72,11.72,0,0,1,5.365,2.436l1.086.866v2.882l-2.309-1.842a9.612,9.612,0,0,0-5.9-2.156H18.9l-7.271,0A.894.894,0,0,0,10.785,19.926ZM12.459,7l-1.448,1.7L15.6,13.553l8.517-10.06L22.584,1.885l-7.069,8.349Zm0,0" transform="translate(1159.513 1478.156)" fill="#707070"/>
      <g id="Group_2761" data-name="Group 2761" transform="translate(-518.503 -1390)">
        <g id="execution" transform="translate(1461 2868)">
          <g id="Group_2729" data-name="Group 2729" transform="translate(0 0)">
            <g id="Group_2728" data-name="Group 2728" transform="translate(0 0)">
              <path id="Path_4788" data-name="Path 4788" d="M14.881,6.275l-1.021-.45c-.046-.171-.1-.334-.152-.49l.567-.977a.585.585,0,0,0,0-.579,7.764,7.764,0,0,0-.995-1.391.581.581,0,0,0-.567-.18l-1.074.246q-.188-.15-.392-.289l-.1-1.137a.585.585,0,0,0-.337-.477A7.425,7.425,0,0,0,9.21.014.582.582,0,0,0,8.647.2l-.749.87h-.45L6.7.2A.581.581,0,0,0,6.135.014a7.433,7.433,0,0,0-1.6.538.585.585,0,0,0-.337.477l-.1,1.136c-.135.093-.267.189-.392.289L2.626,2.209a.58.58,0,0,0-.567.18,7.751,7.751,0,0,0-.995,1.391.585.585,0,0,0,0,.579l.567.977c-.056.157-.106.319-.152.49l-1.021.45a.585.585,0,0,0-.348.535V8.4a.585.585,0,0,0,.348.535l1.021.45c.046.171.1.334.152.49l-.567.977a.585.585,0,0,0,0,.579,7.764,7.764,0,0,0,.995,1.391.582.582,0,0,0,.567.18L3.7,12.754q.188.15.392.289l.1,1.137a.585.585,0,0,0,.337.477,7.425,7.425,0,0,0,1.6.538A.583.583,0,0,0,6.7,15l.749-.87H7.9l.749.87a.584.584,0,0,0,.443.2.571.571,0,0,0,.12-.013,7.433,7.433,0,0,0,1.6-.538.585.585,0,0,0,.337-.477l.1-1.136c.135-.093.267-.189.392-.289L12.718,13a.582.582,0,0,0,.567-.18,7.751,7.751,0,0,0,.995-1.391.585.585,0,0,0,0-.579l-.567-.977c.056-.157.106-.319.152-.49l1.021-.45a.585.585,0,0,0,.348-.535V6.81A.584.584,0,0,0,14.881,6.275ZM14.06,8.018l-.934.412a.586.586,0,0,0-.334.4,5.375,5.375,0,0,1-.271.868.585.585,0,0,0,.034.517l.535.922a6.631,6.631,0,0,1-.457.639l-1.011-.231a.58.58,0,0,0-.518.131,5.337,5.337,0,0,1-.717.531.584.584,0,0,0-.274.444l-.1,1.073a6.469,6.469,0,0,1-.715.243l-.692-.8a.585.585,0,0,0-.443-.2H7.179a.585.585,0,0,0-.443.2l-.692.8a6.478,6.478,0,0,1-.716-.243l-.1-1.074a.585.585,0,0,0-.274-.443,5.271,5.271,0,0,1-.717-.53.58.58,0,0,0-.518-.131l-1.011.231a6.644,6.644,0,0,1-.457-.639l.535-.922A.586.586,0,0,0,2.823,9.7a5.375,5.375,0,0,1-.271-.868.586.586,0,0,0-.334-.4l-.934-.412V7.191l.934-.412a.586.586,0,0,0,.334-.4,5.375,5.375,0,0,1,.271-.868.585.585,0,0,0-.034-.517l-.535-.922a6.63,6.63,0,0,1,.457-.639l1.011.231a.582.582,0,0,0,.518-.131A5.337,5.337,0,0,1,4.957,3a.584.584,0,0,0,.274-.444l.1-1.073a6.469,6.469,0,0,1,.715-.243l.692.8a.585.585,0,0,0,.443.2h.986a.586.586,0,0,0,.443-.2l.692-.8a6.478,6.478,0,0,1,.716.243l.1,1.074A.585.585,0,0,0,10.388,3a5.272,5.272,0,0,1,.717.53.582.582,0,0,0,.518.131l1.011-.231a6.631,6.631,0,0,1,.457.639l-.535.922a.586.586,0,0,0-.034.517,5.375,5.375,0,0,1,.271.868.586.586,0,0,0,.334.4l.934.412v.827Z" transform="translate(-0.115 -0.001)" fill="#707070"/>
            </g>
          </g>
          <g id="Group_2731" data-name="Group 2731" transform="translate(3.463 3.509)">
            <g id="Group_2730" data-name="Group 2730">
              <path id="Path_4789" data-name="Path 4789" d="M51.585,48.005A4.094,4.094,0,1,0,55.679,52.1,4.094,4.094,0,0,0,51.585,48.005Zm0,7.018A2.924,2.924,0,1,1,54.509,52.1,2.924,2.924,0,0,1,51.585,55.023Z" transform="translate(-47.491 -48.005)" fill="#707070"/>
            </g>
          </g>
          <g id="Group_2733" data-name="Group 2733" transform="translate(22.215 0)">
            <g id="Group_2732" data-name="Group 2732" transform="translate(0 0)">
              <path id="Path_4790" data-name="Path 4790" d="M316.449,5.236l-.808-.356c-.031-.113-.066-.222-.1-.327l.45-.776a.587.587,0,0,0,0-.579,6.606,6.606,0,0,0-.842-1.176.581.581,0,0,0-.566-.18l-.85.194q-.125-.1-.257-.19l-.082-.9a.584.584,0,0,0-.337-.477A6.331,6.331,0,0,0,311.7.012.581.581,0,0,0,311.14.2l-.6.691h-.286l-.6-.691A.58.58,0,0,0,309.1.012a6.33,6.33,0,0,0-1.356.455.584.584,0,0,0-.337.477l-.082.9q-.132.092-.257.19l-.85-.194a.582.582,0,0,0-.566.18,6.567,6.567,0,0,0-.841,1.177.585.585,0,0,0,0,.579l.45.775q-.055.158-.1.328l-.808.356a.584.584,0,0,0-.349.535V7.095a.584.584,0,0,0,.349.535l.808.356c.031.113.066.222.1.327l-.45.776a.587.587,0,0,0,0,.579,6.608,6.608,0,0,0,.842,1.176.582.582,0,0,0,.567.18l.849-.195c.083.066.17.129.258.19l.082.9a.584.584,0,0,0,.337.477,6.331,6.331,0,0,0,1.356.455.583.583,0,0,0,.563-.191l.6-.691h.286l.6.691a.584.584,0,0,0,.443.2.571.571,0,0,0,.12-.013,6.327,6.327,0,0,0,1.356-.455.584.584,0,0,0,.337-.477l.082-.9q.132-.092.257-.19l.85.194a.582.582,0,0,0,.566-.18,6.609,6.609,0,0,0,.842-1.176.587.587,0,0,0,0-.579l-.45-.776c.037-.106.071-.214.1-.327l.808-.356a.584.584,0,0,0,.349-.535V5.771A.584.584,0,0,0,316.449,5.236Zm-.821,1.478-.72.318a.583.583,0,0,0-.334.406,4.368,4.368,0,0,1-.22.705.586.586,0,0,0,.034.518l.416.717q-.141.219-.3.427l-.784-.179a.579.579,0,0,0-.517.131,4.33,4.33,0,0,1-.584.431.586.586,0,0,0-.275.444l-.076.835c-.157.062-.315.115-.472.16l-.536-.622a.585.585,0,0,0-.443-.2h-.821a.585.585,0,0,0-.443.2l-.536.622c-.157-.045-.315-.1-.472-.16l-.076-.835a.585.585,0,0,0-.275-.444,4.291,4.291,0,0,1-.583-.431.588.588,0,0,0-.518-.132l-.783.179c-.109-.138-.211-.28-.3-.427l.416-.717a.587.587,0,0,0,.034-.518,4.368,4.368,0,0,1-.22-.705.583.583,0,0,0-.334-.406l-.72-.318V6.152l.72-.318a.583.583,0,0,0,.334-.406,4.4,4.4,0,0,1,.22-.706.586.586,0,0,0-.034-.517L306,3.487c.094-.146.2-.288.3-.427l.784.179a.582.582,0,0,0,.517-.131,4.329,4.329,0,0,1,.584-.431.586.586,0,0,0,.275-.444l.076-.835c.157-.062.315-.115.472-.16l.536.622a.585.585,0,0,0,.443.2h.821a.585.585,0,0,0,.443-.2l.536-.622c.157.045.315.1.472.16l.076.835a.585.585,0,0,0,.275.444,4.332,4.332,0,0,1,.584.431.58.58,0,0,0,.517.131l.784-.179q.164.207.3.427l-.416.717a.587.587,0,0,0-.034.518,4.371,4.371,0,0,1,.22.705.583.583,0,0,0,.334.406l.72.318Z" transform="translate(-304.007 0.001)" fill="#707070"/>
            </g>
          </g>
          <g id="Group_2735" data-name="Group 2735" transform="translate(25.687 3.509)">
            <g id="Group_2734" data-name="Group 2734">
              <path id="Path_4791" data-name="Path 4791" d="M354.415,48.005a2.924,2.924,0,1,0,2.924,2.924A2.924,2.924,0,0,0,354.415,48.005Zm0,4.679a1.754,1.754,0,1,1,1.754-1.754A1.754,1.754,0,0,1,354.415,52.684Z" transform="translate(-351.491 -48.005)" fill="#707070"/>
            </g>
          </g>
          <g id="Group_2737" data-name="Group 2737" transform="translate(17.566 17.612)">
            <g id="Group_2736" data-name="Group 2736">
              <path id="Path_4792" data-name="Path 4792" d="M257.349,248.052l-.848-.178c-.035-.147-.074-.294-.118-.439l.65-.583a.584.584,0,0,0,.148-.665,8.789,8.789,0,0,0-1.074-1.84.587.587,0,0,0-.65-.2l-.817.268c-.1-.11-.212-.218-.322-.322l.268-.817a.585.585,0,0,0-.2-.649,8.752,8.752,0,0,0-1.841-1.075.588.588,0,0,0-.665.148l-.583.65c-.146-.045-.292-.084-.439-.119l-.178-.848a.585.585,0,0,0-.572-.464h-1.994a.585.585,0,0,0-.572.464l-.178.848c-.147.035-.294.074-.439.118l-.583-.65a.587.587,0,0,0-.665-.148,8.788,8.788,0,0,0-1.84,1.074.585.585,0,0,0-.2.65l.268.817c-.11.1-.218.212-.322.322l-.817-.268a.588.588,0,0,0-.649.2,8.753,8.753,0,0,0-1.075,1.841.584.584,0,0,0,.148.665l.65.583c-.045.146-.084.292-.119.439l-.848.178a.585.585,0,0,0-.464.572v1.994a.585.585,0,0,0,.464.572l.848.178c.035.147.074.294.118.439l-.65.583a.585.585,0,0,0-.148.665,8.788,8.788,0,0,0,1.074,1.84.587.587,0,0,0,.65.2l.817-.268c.1.11.212.218.322.322l-.268.817a.585.585,0,0,0,.2.649,8.753,8.753,0,0,0,1.841,1.075.583.583,0,0,0,.665-.148l.583-.65c.146.044.292.084.439.119l.178.848a.585.585,0,0,0,.572.464H250.1a.585.585,0,0,0,.572-.464l.178-.848c.147-.035.294-.074.439-.118l.583.65a.583.583,0,0,0,.665.148,8.788,8.788,0,0,0,1.84-1.074.585.585,0,0,0,.2-.65l-.268-.817c.11-.1.218-.212.322-.322l.817.268a.587.587,0,0,0,.649-.2,8.752,8.752,0,0,0,1.075-1.841.584.584,0,0,0-.148-.665l-.65-.583c.045-.146.084-.292.119-.439l.848-.178a.585.585,0,0,0,.464-.572v-1.994A.585.585,0,0,0,257.349,248.052Zm-.705,2.092-.757.159a.585.585,0,0,0-.455.468,6.363,6.363,0,0,1-.275,1.019.584.584,0,0,0,.16.633l.613.549a7.682,7.682,0,0,1-.517.881l-.773-.254a.587.587,0,0,0-.629.178,6.389,6.389,0,0,1-.748.749.586.586,0,0,0-.177.629l.254.772a7.634,7.634,0,0,1-.881.517l-.55-.613a.588.588,0,0,0-.634-.16,6.3,6.3,0,0,1-1.018.275.585.585,0,0,0-.468.455l-.159.757h-1.045l-.159-.757a.585.585,0,0,0-.468-.455,6.362,6.362,0,0,1-1.019-.275h0a.589.589,0,0,0-.633.16l-.549.613a7.689,7.689,0,0,1-.881-.517l.254-.773a.586.586,0,0,0-.178-.629,6.388,6.388,0,0,1-.749-.748.587.587,0,0,0-.629-.177l-.772.254a7.633,7.633,0,0,1-.517-.881l.613-.55a.585.585,0,0,0,.16-.634,6.3,6.3,0,0,1-.275-1.018.585.585,0,0,0-.455-.468l-.757-.159V249.1l.757-.159a.585.585,0,0,0,.455-.468,6.36,6.36,0,0,1,.275-1.019.584.584,0,0,0-.16-.633l-.613-.549a7.681,7.681,0,0,1,.517-.881l.773.254a.587.587,0,0,0,.629-.178,6.388,6.388,0,0,1,.748-.749.586.586,0,0,0,.177-.629l-.254-.772a7.636,7.636,0,0,1,.881-.517l.55.613a.587.587,0,0,0,.634.16,6.3,6.3,0,0,1,1.018-.275.585.585,0,0,0,.468-.455l.159-.757h1.045l.159.757a.585.585,0,0,0,.468.455,6.36,6.36,0,0,1,1.019.275.585.585,0,0,0,.633-.16l.549-.613a7.68,7.68,0,0,1,.881.517l-.254.773a.586.586,0,0,0,.178.629,6.387,6.387,0,0,1,.749.748.59.59,0,0,0,.629.177l.772-.254a7.638,7.638,0,0,1,.517.881l-.613.55a.585.585,0,0,0-.16.634,6.3,6.3,0,0,1,.275,1.018.585.585,0,0,0,.455.468l.757.159Z" transform="translate(-240.402 -240.916)" fill="#707070"/>
            </g>
          </g>
          <g id="Group_2739" data-name="Group 2739" transform="translate(21.008 21.054)">
            <g id="Group_2738" data-name="Group 2738">
              <path id="Path_4793" data-name="Path 4793" d="M292.754,288.005a5.263,5.263,0,1,0,5.263,5.263A5.263,5.263,0,0,0,292.754,288.005Zm0,9.357a4.094,4.094,0,1,1,4.094-4.094A4.1,4.1,0,0,1,292.754,297.362Z" transform="translate(-287.491 -288.005)" fill="#707070"/>
            </g>
          </g>
          <g id="Group_2741" data-name="Group 2741" transform="translate(16.329 6.433)">
            <g id="Group_2740" data-name="Group 2740">
              <rect id="Rectangle_871" data-name="Rectangle 871" width="4.679" height="1.17" fill="#707070"/>
            </g>
          </g>
          <g id="Group_2743" data-name="Group 2743" transform="translate(2.879 15.791)">
            <g id="Group_2742" data-name="Group 2742">
              <path id="Path_4794" data-name="Path 4794" d="M52.895,225.716a.584.584,0,0,0-.308-.308h0l-4.094-1.754a.584.584,0,0,0-.815.537v1.17H40.661V216h-1.17v9.942a.584.584,0,0,0,.584.585h7.6v1.17a.584.584,0,0,0,.584.585h0a.576.576,0,0,0,.23-.047l4.094-1.754A.584.584,0,0,0,52.895,225.716Zm-4.047,1.1v-1.735l2.024.867Z" transform="translate(-39.491 -216.004)" fill="#707070"/>
            </g>
          </g>
          <g id="Group_2745" data-name="Group 2745" transform="translate(23.519 24.188)">
            <g id="Group_2744" data-name="Group 2744">
              <path id="Path_4795" data-name="Path 4795" d="M326.477,330.88l-2.514,3.017-1.3-1.3-.827.827,1.754,1.754a.583.583,0,0,0,.413.171h.026a.586.586,0,0,0,.423-.21l2.924-3.509Z" transform="translate(-321.834 -330.88)" fill="#707070"/>
            </g>
          </g>
        </g>
      </g>
      <g id="Group_2765" data-name="Group 2765" transform="translate(293 -58.149)">
        <g id="Group_2764" data-name="Group 2764" transform="translate(457.999 1559.645)">
          <g id="time" transform="translate(0)">
            <g id="Layer_1_64_" transform="translate(0)">
              <g id="Group_1934" data-name="Group 1934" transform="translate(0)">
                <path id="Path_4051" data-name="Path 4051" d="M17.775,12.156a.13.13,0,0,0,.26,0,.647.647,0,0,1,.152-.416,2.668,2.668,0,0,0,.485-.833.13.13,0,0,0-.122-.173H17.26a.13.13,0,0,0-.123.173,2.673,2.673,0,0,0,.485.833A.647.647,0,0,1,17.775,12.156Z" transform="translate(-15.372 -9.429)" fill="#707070"/>
                <path id="Path_4052" data-name="Path 4052" d="M13.308,25.773a.13.13,0,0,0-.26,0,.676.676,0,0,1-.315.523,3.412,3.412,0,0,0-.967,1.036.13.13,0,0,0,.113.194h2.6a.13.13,0,0,0,.113-.194,3.411,3.411,0,0,0-.967-1.036A.676.676,0,0,1,13.308,25.773Z" transform="translate(-10.646 -22.525)" fill="#707070"/>
                <path id="Path_4053" data-name="Path 4053" d="M7.476,5.2H7.4A4.3,4.3,0,0,0,6.257,2.857,4.3,4.3,0,0,0,7.4.52h.078a.26.26,0,0,0,0-.52H2.931a.26.26,0,0,0,0,.52h.078A4.3,4.3,0,0,0,4.15,2.857,4.3,4.3,0,0,0,3.008,5.2H2.931a.26.26,0,0,0,0,.52H7.477a.26.26,0,1,0,0-.52Zm-3.947,0A4.1,4.1,0,0,1,4.664,3.053l.024-.028a.26.26,0,0,0,0-.335l-.024-.028A4.1,4.1,0,0,1,3.529.52H6.878A4.1,4.1,0,0,1,5.743,2.662l-.023.028a.26.26,0,0,0,0,.335l.024.028A4.1,4.1,0,0,1,6.878,5.2H3.529Z" transform="translate(-2.671)" fill="#707070"/>
              </g>
            </g>
          </g>
        </g>
        <path id="Path_4882" data-name="Path 4882" d="M273.427,265.73a6.37,6.37,0,1,0-10.627,4.736A6.376,6.376,0,0,0,273.427,265.73Zm-6.38,5.476a5.48,5.48,0,1,1,3.671-9.557A5.482,5.482,0,0,1,267.046,271.206Zm0,0" transform="translate(193.685 1296.735)" fill="#6c7474"/>
        <path id="Path_4884" data-name="Path 4884" d="M55.387,49.09H42.854a1.231,1.231,0,0,0-1.229,1.23v4.368a1.231,1.231,0,0,0,1.229,1.229H55.387a1.231,1.231,0,0,0,1.229-1.229V50.32A1.231,1.231,0,0,0,55.387,49.09Zm.338,5.6a.339.339,0,0,1-.338.339H42.854a.339.339,0,0,1-.338-.339V50.32a.339.339,0,0,1,.338-.339H55.387a.339.339,0,0,1,.338.339Zm0,0" transform="translate(399.83 1494.599)" fill="#6c7474"/>
        <path id="Path_4885" data-name="Path 4885" d="M84.917,80.563H74.661a.446.446,0,1,0,0,.891H84.917a.446.446,0,0,0,0-.891Zm0,0" transform="translate(369.161 1464.982)" fill="#6c7474"/>
        <path id="Path_4886" data-name="Path 4886" d="M175.059,118.3h-1.668a.446.446,0,0,0,0,.891h1.668a.446.446,0,0,0,0-.891Zm0,0" transform="translate(276.252 1429.469)" fill="#6c7474"/>
        <path id="Path_4887" data-name="Path 4887" d="M78.7,118.3H74.661a.446.446,0,1,0,0,.891H78.7a.446.446,0,0,0,0-.891Zm0,0" transform="translate(369.161 1429.469)" fill="#6c7474"/>
        <path id="Path_4888" data-name="Path 4888" d="M84.917,228.953H74.661a.446.446,0,1,0,0,.891H84.917a.446.446,0,0,0,0-.891Zm0,0" transform="translate(369.161 1325.341)" fill="#6c7474"/>
        <path id="Path_4889" data-name="Path 4889" d="M77.584,266.7H74.661a.446.446,0,1,0,0,.891h2.923a.446.446,0,0,0,0-.891Zm0,0" transform="translate(369.161 1289.824)" fill="#6c7474"/>
        <path id="Path_4890" data-name="Path 4890" d="M74.661,378.235H82a.446.446,0,0,0,0-.891H74.661a.446.446,0,1,0,0,.891Zm0,0" transform="translate(369.161 1185.7)" fill="#6c7474"/>
        <path id="Path_4891" data-name="Path 4891" d="M78.225,415.086H74.661a.446.446,0,1,0,0,.891h3.564a.446.446,0,0,0,0-.891Zm0,0" transform="translate(369.161 1150.183)" fill="#6c7474"/>
        <path id="Path_4892" data-name="Path 4892" d="M168.064,415.086h-2.735a.446.446,0,1,0,0,.891h2.735a.446.446,0,0,0,0-.891Zm0,0" transform="translate(283.839 1150.183)" fill="#6c7474"/>
        <path id="Path_4893" data-name="Path 4893" d="M27.385,15.379A8.435,8.435,0,0,0,19.9,13.42V1.433A1.435,1.435,0,0,0,18.466,0H1.433A1.435,1.435,0,0,0,0,1.433V28.684a1.434,1.434,0,0,0,1.433,1.433H18.466a1.427,1.427,0,0,0,.919-.334,8.479,8.479,0,0,0,5.338-.209.445.445,0,1,0-.313-.834,7.558,7.558,0,1,1,1.5-.763.445.445,0,1,0,.491.743A8.453,8.453,0,0,0,27.385,15.379ZM14.695,26.331H3.683a.339.339,0,0,1-.338-.339V21.624a.339.339,0,0,1,.338-.339H13.3A8.459,8.459,0,0,0,14.695,26.331ZM16.554,15a8.492,8.492,0,0,0-2.21,2.585H3.683a.339.339,0,0,1-.338-.339V12.874a.339.339,0,0,1,.338-.339H16.216a.339.339,0,0,1,.338.339Zm2.455-1.325a8.368,8.368,0,0,0-1.563.719V12.874a1.231,1.231,0,0,0-1.229-1.23H3.683a1.231,1.231,0,0,0-1.229,1.23v4.368a1.231,1.231,0,0,0,1.229,1.229H13.917a8.4,8.4,0,0,0-.53,1.922h-9.7a1.231,1.231,0,0,0-1.229,1.229v4.368a1.231,1.231,0,0,0,1.229,1.23H15.375a8.463,8.463,0,0,0,2.589,2H1.433a.542.542,0,0,1-.542-.542V1.433A.542.542,0,0,1,1.433.891H18.466a.542.542,0,0,1,.542.542Zm0,0" transform="translate(439 1540.794)" fill="#6c7474"/>
      </g>
    </g>
  </g>
</svg>
