<svg xmlns="http://www.w3.org/2000/svg" xmlns:xlink="http://www.w3.org/1999/xlink" width="1311.044" height="293.113" viewBox="0 0 1311.044 293.113">
  <defs>
    <linearGradient id="linear-gradient" x1="-1.791" y1="1" x2="-1.791" gradientUnits="objectBoundingBox">
      <stop offset="0" stop-color="gray" stop-opacity="0.251"/>
      <stop offset="0.54" stop-color="gray" stop-opacity="0.122"/>
      <stop offset="1" stop-color="gray" stop-opacity="0.102"/>
    </linearGradient>
  </defs>
  <g id="Group_2637" data-name="Group 2637" transform="translate(-285 -3600.9)">
    <text id="Cluster_In-charge" data-name="Cluster In-charge" transform="translate(807 3610)" fill="#21232a" font-size="20" font-family="HelveticaNeue-Bold, Helvetica Neue" font-weight="700"><tspan x="1.96" y="20">Cluster In-charge</tspan></text>
    <text id="State_In-carge" data-name="State In-carge" transform="translate(1056 3610)" fill="#21232a" font-size="20" font-family="HelveticaNeue-Bold, Helvetica Neue" font-weight="700"><tspan x="17.32" y="20">State In-carge</tspan></text>
    <line id="Line_94" data-name="Line 94" y2="293.113" transform="translate(1013.5 3600.9)" fill="none" stroke="#707070" stroke-width="1" opacity="0.2"/>
    <line id="Line_95" data-name="Line 95" y2="293.113" transform="translate(772.5 3600.9)" fill="none" stroke="#707070" stroke-width="1" opacity="0.2"/>
    <text id="Assessing_the_installation_status_of_the_meters_for_all_the_customers" data-name="Assessing the installation status of the meters for all the customers" transform="translate(566 3691)" fill="#707070" font-size="14" font-family="HelveticaNeue, Helvetica Neue"><tspan x="26.939" y="13">Assessing the </tspan><tspan x="8.011" y="29">installation status of </tspan><tspan x="6.191" y="45">the meters for all the </tspan><tspan x="37.565" y="61">customers</tspan></text>
    <text id="Same_as_CSA" data-name="Same as CSA" transform="translate(788 3691)" fill="#707070" font-size="14" font-family="HelveticaNeue, Helvetica Neue"><tspan x="60.698" y="13">Same as CSA</tspan></text>
    <text id="Same_as_CSA-2" data-name="Same as CSA" transform="translate(1059 3693)" fill="#707070" font-size="14" font-family="HelveticaNeue, Helvetica Neue"><tspan x="38.698" y="13">Same as CSA</tspan></text>
    <text id="Reporting_the_number_of_pending_meter_reading_reviews_at_the_end_of_the_month" data-name="Reporting the number of pending meter reading reviews at the end of the month" transform="translate(563 3803)" fill="#707070" font-size="14" font-family="HelveticaNeue, Helvetica Neue"><tspan x="4.533" y="13">Reporting the number </tspan><tspan x="19.576" y="29">of pending meter </tspan><tspan x="4.421" y="45">reading reviews at the </tspan><tspan x="19.436" y="61">end of the month</tspan></text>
    <text id="Reviewing_the_status_of_hardware_installation_for_customers_within_the_cluster" data-name="Reviewing the status of hardware installation for customers within the cluster" transform="translate(811 3803)" fill="#707070" font-size="14" font-family="HelveticaNeue, Helvetica Neue"><tspan x="8.018" y="13">Reviewing the status of </tspan><tspan x="6.205" y="29">hardware installation for </tspan><tspan x="15.914" y="45">customers within the </tspan><tspan x="60" y="61">cluster</tspan></text>
    <text id="Launching_an_audit_drive_at_a_plant_to_improve_customer_service_quality" data-name="Launching an audit drive at a plant to improve customer service quality" transform="translate(1059 3803)" fill="#707070" font-size="14" font-family="HelveticaNeue, Helvetica Neue"><tspan x="5.605" y="13">Launching an audit drive </tspan><tspan x="18.051" y="29">at a plant to improve </tspan><tspan x="6.396" y="45">customer service quality</tspan></text>
    <text id="Main_Purpose" data-name="Main
Purpose" transform="translate(361 3689)" fill="#21232a" font-size="20" font-family="HelveticaNeue-Bold, Helvetica Neue" font-weight="700"><tspan x="27.18" y="20">Main</tspan><tspan x="10.68" y="45">Purpose</tspan></text>
    <text id="Example_Use_Case" data-name="Example
Use Case" transform="translate(342 3821)" fill="#21232a" font-size="20" font-family="HelveticaNeue-Bold, Helvetica Neue" font-weight="700"><tspan x="27.92" y="20">Example</tspan><tspan x="23.44" y="45">Use Case</tspan></text>
    <line id="Line_97" data-name="Line 97" x1="1010" transform="translate(285 3778.5)" fill="none" stroke="#707070" stroke-width="1" opacity="0.2"/>
    <text id="CSA" transform="translate(600 3610)" fill="#21232a" font-size="20" font-family="HelveticaNeue-Bold, Helvetica Neue" font-weight="700"><tspan x="15.25" y="20">CSA</tspan></text>
    <line id="Line_96" data-name="Line 96" y2="293.113" transform="translate(531.5 3600.9)" fill="none" stroke="#707070" stroke-width="1" opacity="0.2"/>
    <g id="undraw_site_stats_l57q" transform="translate(1301.996 3643.989)">
      <path id="Path_2435" data-name="Path 2435" d="M316.73,175.564q-.414.281-.843.544a29.589,29.589,0,0,1-3.3,1.766c-6,2.773-13.385,4.128-20.58,5.048-16.143,2.065-32.624,2.466-49.033,2.86-44.34,1.066-88.795,2.134-133.017-.327-17.472-.971-35.335-2.6-51.172-7.581q-3.4-1.071-6.676-2.357a56.925,56.925,0,0,1-12.174-6.39,24.052,24.052,0,0,1-7.6-8.194c-3.346-6.451-1.574-13.7,2.247-20.023a61.809,61.809,0,0,1,5.367-7.351c2.939-3.55,6.193-7.019,9.16-10.566,10.561-12.665,17.452-28.657,7.7-41.628-2.812-3.727-6.85-7-9.132-10.891-2.916-4.974-2.689-10.5-1.764-15.867.12-.677.256-1.355.381-2.024,1.595-7.959,4.573-16.521,13.738-21.5,9.531-5.163,23.067-4.9,34.9-3.067,18.4,2.873,35.379,8.872,52.524,14.293s35.1,10.369,53.953,10.911c16.647.468,36.061-3.049,47.108-12.2,10.735-8.882,30.9-9.559,45.444-4.192,9.968,3.681,17.421,10.318,20.56,17.781a20.955,20.955,0,0,1,1.37,4.631,18.809,18.809,0,0,1,.256,4.366,19.213,19.213,0,0,1-.256,2.142c-2.431,14.727-19.913,26.341-30.543,39.5-5.194,6.426-8.859,14.142-5.288,21.073,5.447,10.558,24.386,14.313,35.831,22.17a25.432,25.432,0,0,1,5.623,5.061C327.041,160.535,324.993,169.992,316.73,175.564Z" transform="translate(-30.56 -23.847)" fill="#bebebe" opacity="0.1"/>
      <g id="flowers" transform="translate(9.437 0.011)">
        <path id="Path_2436" data-name="Path 2436" d="M170.365,193.538S158.608,172.7,140.89,166.7a36.239,36.239,0,0,1-18.362-13.735,60.758,60.758,0,0,1-5.419-9.746" transform="translate(-104.422 -110.512)" fill="none" stroke="#535461" stroke-miterlimit="10" stroke-width="2"/>
        <path id="Path_2437" data-name="Path 2437" d="M69.016,102.669c2.019,1.958,11.42,3.985,11.42,3.985s-2.3-9.337-4.325-11.295a5.094,5.094,0,1,0-7.1,7.31Z" transform="translate(-67.47 -73.813)" fill="#00b0ff"/>
        <path id="Path_2438" data-name="Path 2438" d="M82.4,164.854c2.758.547,11.757-2.86,11.757-2.86s-7.008-6.584-9.769-7.131a5.093,5.093,0,1,0-1.981,9.992Z" transform="translate(-75.533 -119.106)" fill="#00b0ff"/>
        <path id="Path_2439" data-name="Path 2439" d="M149.915,237.057c2.658-.92,8.69-8.4,8.69-8.4s-9.375-2.144-12.031-1.224a5.094,5.094,0,1,0,3.323,9.626Z" transform="translate(-123.689 -173.029)" fill="#00b0ff"/>
        <path id="Path_2440" data-name="Path 2440" d="M222.324,277.586c2.776-.458,9.994-6.809,9.994-6.809s-8.866-3.709-11.652-3.251a5.1,5.1,0,0,0,1.659,10.06Z" transform="translate(-178.332 -203.018)" fill="#00b0ff"/>
        <path id="Path_2441" data-name="Path 2441" d="M141.332,139.356c0,2.812-5.086,10.97-5.086,10.97s-5.1-8.153-5.1-10.965a5.094,5.094,0,1,1,10.185,0Z" transform="translate(-114.87 -103.763)" fill="#00b0ff"/>
        <path id="Path_2442" data-name="Path 2442" d="M222.819,185.07c-.841,2.684-8.138,8.946-8.138,8.946s-2.423-9.306-1.585-11.99a5.094,5.094,0,0,1,9.712,3.044Z" transform="translate(-175.744 -136.896)" fill="#00b0ff"/>
        <path id="Path_2443" data-name="Path 2443" d="M294.017,245.516c-.381,2.786-6.515,10.193-6.515,10.193s-3.962-8.762-3.578-11.55a5.094,5.094,0,1,1,10.1,1.357Z" transform="translate(-228.581 -182.365)" fill="#00b0ff"/>
        <path id="Path_2444" data-name="Path 2444" d="M69.016,102.669c2.019,1.958,11.42,3.985,11.42,3.985s-2.3-9.337-4.325-11.295a5.094,5.094,0,1,0-7.1,7.31Z" transform="translate(-67.47 -73.813)" opacity="0.25"/>
        <path id="Path_2445" data-name="Path 2445" d="M82.4,164.854c2.758.547,11.757-2.86,11.757-2.86s-7.008-6.584-9.769-7.131a5.093,5.093,0,1,0-1.981,9.992Z" transform="translate(-75.533 -119.106)" opacity="0.25"/>
        <path id="Path_2446" data-name="Path 2446" d="M149.915,237.057c2.658-.92,8.69-8.4,8.69-8.4s-9.375-2.144-12.031-1.224a5.094,5.094,0,1,0,3.323,9.626Z" transform="translate(-123.689 -173.029)" opacity="0.25"/>
        <path id="Path_2447" data-name="Path 2447" d="M222.324,277.586c2.776-.458,9.994-6.809,9.994-6.809s-8.866-3.709-11.652-3.251a5.1,5.1,0,0,0,1.659,10.06Z" transform="translate(-178.332 -203.018)" opacity="0.25"/>
        <path id="Path_2448" data-name="Path 2448" d="M141.332,139.356c0,2.812-5.086,10.97-5.086,10.97s-5.1-8.153-5.1-10.965a5.094,5.094,0,1,1,10.185,0Z" transform="translate(-114.87 -103.763)" opacity="0.25"/>
        <path id="Path_2449" data-name="Path 2449" d="M222.819,185.07c-.841,2.684-8.138,8.946-8.138,8.946s-2.423-9.306-1.585-11.99a5.094,5.094,0,0,1,9.712,3.044Z" transform="translate(-175.744 -136.896)" opacity="0.25"/>
        <path id="Path_2450" data-name="Path 2450" d="M294.017,245.516c-.381,2.786-6.515,10.193-6.515,10.193s-3.962-8.762-3.578-11.55a5.094,5.094,0,1,1,10.1,1.357Z" transform="translate(-228.581 -182.365)" opacity="0.25"/>
        <path id="Path_2451" data-name="Path 2451" d="M240.414,141.633s-2.3-23.813-16.072-36.48a36.271,36.271,0,0,1-11.22-20,60.89,60.89,0,0,1-1-11.105" transform="translate(-175.149 -59.022)" fill="none" stroke="#535461" stroke-miterlimit="10" stroke-width="2"/>
        <path id="Path_2452" data-name="Path 2452" d="M177.269,22.246c1.053,2.607,8.826,8.276,8.826,8.276s1.674-9.457.624-12.077a5.1,5.1,0,0,0-9.457,3.808Z" transform="translate(-148.924 -15.251)" fill="#00b0ff"/>
        <path id="Path_2453" data-name="Path 2453" d="M164.307,84.5c2.3,1.618,11.9,2.147,11.9,2.147s-3.742-8.859-6.042-10.479a5.094,5.094,0,1,0-5.861,8.333Z" transform="translate(-137.946 -59.906)" fill="#00b0ff"/>
        <path id="Path_2454" data-name="Path 2454" d="M196.97,177.906c2.811.235,11.358-4.156,11.358-4.156s-7.7-5.758-10.5-5.994a5.094,5.094,0,1,0-.854,10.15Z" transform="translate(-160.313 -128.756)" fill="#00b0ff"/>
        <path id="Path_2455" data-name="Path 2455" d="M246.625,244.19c2.725.708,11.9-2.175,11.9-2.175s-6.617-6.978-9.339-7.683a5.092,5.092,0,0,0-2.556,9.858Z" transform="translate(-197.997 -178.214)" fill="#00b0ff"/>
        <path id="Path_2456" data-name="Path 2456" d="M228.329,85.357c-1.137,2.574-9.1,7.969-9.1,7.969s-1.355-9.521-.217-12.092a5.093,5.093,0,1,1,9.315,4.123Z" transform="translate(-179.943 -62.111)" fill="#00b0ff"/>
        <path id="Path_2457" data-name="Path 2457" d="M278.364,159.265c-1.856,2.114-11.064,4.882-11.064,4.882s1.554-9.49,3.412-11.6a5.093,5.093,0,1,1,7.653,6.723Z" transform="translate(-216.225 -116.162)" fill="#00b0ff"/>
        <path id="Path_2458" data-name="Path 2458" d="M323.169,243.967c-1.472,2.4-10.08,6.681-10.08,6.681s-.072-9.615,1.4-12.013a5.1,5.1,0,0,1,8.69,5.332Z" transform="translate(-250.31 -179.729)" fill="#00b0ff"/>
      </g>
      <ellipse id="Ellipse_167" data-name="Ellipse 167" cx="85.628" cy="4.302" rx="85.628" ry="4.302" transform="translate(77.951 212.867)" fill="#00b0ff" opacity="0.1"/>
      <path id="Path_2459" data-name="Path 2459" d="M268.66,832.579s-10.806-.652-9.534,6.919a1.844,1.844,0,0,0,.961,1.948s.018-.562,1.107-.371a5.117,5.117,0,0,0,1.176.056,2.443,2.443,0,0,0,1.434-.593h0s3.039-1.255,4.22-6.221c0,0,.874-1.081.838-1.36l-1.822.767a3.263,3.263,0,0,1,.133,2.408s-.059-2.362-.409-2.3c-.072.013-.948.455-.948.455s1.071,2.3.256,3.959c0,0,.307-2.824-.6-3.793l-1.278.749s1.252,2.369.4,4.3c0,0,.217-2.962-.675-4.115l-1.163.907s1.178,2.331.46,3.934c0,0-.095-3.448-.713-3.709a6.615,6.615,0,0,0-1.171,1.278s.805,1.692.3,2.587c0,0-.307-2.3-.557-2.3a7.464,7.464,0,0,0-1.12,2.556,5.521,5.521,0,0,1,.874-2.709,3.041,3.041,0,0,0-1.554.8s.158-1.076,1.8-1.171a7.177,7.177,0,0,1,1.061-1.224,6.624,6.624,0,0,0-2.627.3,2.936,2.936,0,0,1,2.929-.555l1.148-.938a9.508,9.508,0,0,0-3.067.031s1.05-.9,3.376-.243l1.242-.751a11.5,11.5,0,0,0-2.929-.256,4.5,4.5,0,0,1,3.3.054l.892-.4s-1.344-.256-1.738-.307-.417-.151-.417-.151a4.667,4.667,0,0,1,2.528.281A11.709,11.709,0,0,0,268.66,832.579Z" transform="translate(-200.626 -623.656)" fill="#00b0ff"/>
      <ellipse id="Ellipse_168" data-name="Ellipse 168" cx="7.647" cy="1.293" rx="7.647" ry="1.293" transform="translate(52.941 217.156)" fill="#00b0ff" opacity="0.1"/>
      <path id="Path_2460" data-name="Path 2460" d="M206.844,834.177s-6.091-.368-5.367,3.9a1.04,1.04,0,0,0,.542,1.1s0-.314.624-.207a2.845,2.845,0,0,0,.662.031,1.364,1.364,0,0,0,.81-.335h0s1.712-.705,2.377-3.507c0,0,.493-.608.473-.767l-1.022.44a1.845,1.845,0,0,1,.074,1.357s-.033-1.329-.23-1.3c-.041,0-.534.256-.534.256a3.034,3.034,0,0,1,.148,2.231s.174-1.592-.337-2.137l-.734.422a3.2,3.2,0,0,1,.227,2.423,4.548,4.548,0,0,0-.378-2.318l-.657.511a3.1,3.1,0,0,1,.256,2.216s-.051-1.943-.4-2.091a3.951,3.951,0,0,0-.659.716s.452.953.171,1.457c0,0-.171-1.293-.314-1.3a4.294,4.294,0,0,0-.631,1.447,3.128,3.128,0,0,1,.493-1.534,1.73,1.73,0,0,0-.877.453s.089-.606,1.022-.659a4.074,4.074,0,0,1,.6-.69,3.752,3.752,0,0,0-1.48.171,1.658,1.658,0,0,1,1.649-.312l.649-.529a5.342,5.342,0,0,0-1.73.018,2.087,2.087,0,0,1,1.9-.138l.705-.422a6.449,6.449,0,0,0-1.654-.143,2.541,2.541,0,0,1,1.861.031l.511-.227s-.767-.148-.981-.171-.233-.084-.233-.084a2.6,2.6,0,0,1,1.424.158A6.27,6.27,0,0,0,206.844,834.177Z" transform="translate(-157.744 -624.85)" fill="#00b0ff"/>
      <ellipse id="Ellipse_169" data-name="Ellipse 169" cx="4.312" cy="0.728" rx="4.312" ry="0.728" transform="translate(40.591 213.968)" fill="#00b0ff" opacity="0.1"/>
      <path id="Path_2461" data-name="Path 2461" d="M248.893,798.752s-7.356-.442-6.489,4.713a1.257,1.257,0,0,0,.654,1.324s.013-.383.767-.256a3.357,3.357,0,0,0,.8.038,1.651,1.651,0,0,0,.971-.4h0s2.068-.854,2.873-4.233c0,0,.593-.736.57-.928l-1.24.532a2.232,2.232,0,0,1,.089,1.638s-.041-1.605-.279-1.569c-.049,0-.644.312-.644.312a3.676,3.676,0,0,1,.179,2.694s.207-1.922-.409-2.582l-.872.511a3.866,3.866,0,0,1,.273,2.927s.148-2.017-.458-2.812l-.792.619a3.772,3.772,0,0,1,.312,2.676s-.064-2.346-.483-2.523a4.9,4.9,0,0,0-.8.861s.55,1.153.21,1.761c0,0-.21-1.564-.381-1.572a5.292,5.292,0,0,0-.767,1.746,3.775,3.775,0,0,1,.6-1.845,2.083,2.083,0,0,0-1.058.549s.107-.734,1.229-.8a4.8,4.8,0,0,1,.721-.833,4.534,4.534,0,0,0-1.789.2,2.012,2.012,0,0,1,1.994-.376l.782-.639a6.5,6.5,0,0,0-2.088.02,2.54,2.54,0,0,1,2.3-.164l.851-.511a8.386,8.386,0,0,0-1.994-.171,3.053,3.053,0,0,1,2.244.036l.608-.273s-.915-.179-1.183-.207-.284-.1-.284-.1a3.177,3.177,0,0,1,1.72.192A7.349,7.349,0,0,0,248.893,798.752Z" transform="translate(-188.202 -598.479)" fill="#00b0ff"/>
      <ellipse id="Ellipse_170" data-name="Ellipse 170" cx="5.206" cy="0.879" rx="5.206" ry="0.879" transform="translate(50.423 205.882)" fill="#00b0ff" opacity="0.1"/>
      <path id="Path_2462" data-name="Path 2462" d="M535.388,738.652v2H476.28v-1.623a19.425,19.425,0,0,0,1.337-35.877h57.378a19.442,19.442,0,0,0,.394,35.5Z" transform="translate(-362.355 -527.318)" fill="#c8cad7"/>
      <path id="Path_2463" data-name="Path 2463" d="M538.9,703.15a19.448,19.448,0,0,0-10.735,12.879h-35.9A19.448,19.448,0,0,0,481.53,703.15Z" transform="translate(-366.263 -527.318)" opacity="0.1"/>
      <path id="Path_2464" data-name="Path 2464" d="M211.48,663.31v11.22c0,6.2,4.534,11.218,10.129,11.218h173.9c5.595,0,10.129-5.022,10.129-11.218V663.31Z" transform="translate(-165.235 -497.661)" fill="#c8cad7"/>
      <path id="Path_2465" data-name="Path 2465" d="M535.388,836.072v2H476.28v-1.623a19.456,19.456,0,0,0,4.56-2.428h50.924a19.455,19.455,0,0,0,3.624,2.052Z" transform="translate(-362.355 -624.739)" opacity="0.1"/>
      <rect id="Rectangle_431" data-name="Rectangle 431" width="98.17" height="5.922" rx="2.961" transform="translate(94.393 209.904)" fill="#c8cad7"/>
      <path id="Path_2466" data-name="Path 2466" d="M405.637,152.779a10.129,10.129,0,0,0-10.129-10.129h-173.9a10.129,10.129,0,0,0-10.129,10.129v125.13H405.637Z" transform="translate(-165.235 -110.077)" fill="#474157"/>
      <path id="Path_2467" data-name="Path 2467" d="M415.763,185.477V292.986a4.984,4.984,0,0,1-4.987,4.987H237.187a4.984,4.984,0,0,1-4.987-4.987V185.477a4.987,4.987,0,0,1,4.987-4.987h173.59A4.987,4.987,0,0,1,415.763,185.477Z" transform="translate(-180.66 -138.245)" fill="#f4f4f7"/>
      <circle id="Ellipse_171" data-name="Ellipse 171" cx="2.339" cy="2.339" r="2.339" transform="translate(140.984 35.068)" fill="#fff"/>
      <circle id="Ellipse_172" data-name="Ellipse 172" cx="5.766" cy="5.766" r="5.766" transform="translate(137.557 171.571)" fill="#fff"/>
      <path id="Path_2468" data-name="Path 2468" d="M415.77,185.477H232.21a4.984,4.984,0,0,1,4.984-4.987h173.59a4.984,4.984,0,0,1,4.987,4.987Z" transform="translate(-180.667 -138.245)" fill="#fff"/>
      <circle id="Ellipse_173" data-name="Ellipse 173" cx="1.247" cy="1.247" r="1.247" transform="translate(55.28 43.482)" fill="#ededf4"/>
      <circle id="Ellipse_174" data-name="Ellipse 174" cx="1.247" cy="1.247" r="1.247" transform="translate(59.019 43.482)" fill="#ededf4"/>
      <circle id="Ellipse_175" data-name="Ellipse 175" cx="1.247" cy="1.247" r="1.247" transform="translate(62.761 43.482)" fill="#ededf4"/>
      <rect id="Rectangle_432" data-name="Rectangle 432" width="148.146" height="86.574" transform="translate(68.823 61.033)" fill="#fff"/>
      <path id="Path_2469" data-name="Path 2469" d="M398.85,525.342h5.462v1.022H398.85Zm2.732-2.732a.682.682,0,1,0-.189-1.339l-1.424-1.04-.084.077,1.043,1.421a.723.723,0,0,0-.028.2.68.68,0,0,0,.682.682Z" transform="translate(-304.715 -391.151)" fill="#65617d"/>
      <path id="Path_2470" data-name="Path 2470" d="M396.61,509.5a4.44,4.44,0,0,0-3.5,7.172h1.255l.087-.087.47-.47-.5-.488-.47.468a3.388,3.388,0,0,1-.751-1.812h.665V513.6h-.665a3.388,3.388,0,0,1,.751-1.812l.47.468.488-.488-.468-.47a3.392,3.392,0,0,1,1.812-.751v.665h.682v-.665a3.41,3.41,0,0,1,1.815.751l-.47.47.491.488.47-.468A3.409,3.409,0,0,1,400,513.6h-.667v.685H400a3.409,3.409,0,0,1-.751,1.812l-.47-.468-.491.488.473.47.084.087H400.1a4.44,4.44,0,0,0-3.5-7.172Z" transform="translate(-299.743 -383.163)" fill="#65617d"/>
      <path id="Path_2471" data-name="Path 2471" d="M406.186,435.937a2.3,2.3,0,0,1-.915-.233.164.164,0,0,0-.233.161l.074,1.089a.084.084,0,0,0,.135.059l.309-.235a.084.084,0,0,1,.12.023l.437.685a.084.084,0,0,0,.141,0l.44-.685a.084.084,0,0,1,.123-.01l.309.235a.084.084,0,0,0,.135-.059l.074-1.089a.166.166,0,0,0-.233-.161,2.319,2.319,0,0,1-.915.233Z" transform="translate(-309.322 -328.218)" fill="#65617d"/>
      <path id="Path_2472" data-name="Path 2472" d="M403.615,408.734l-1.022-1.048a6.109,6.109,0,0,0-1.988-4.856,6.111,6.111,0,0,0-2.009,4.856l-1.022,1.048a.179.179,0,0,0-.048.151l.394,2.385a.164.164,0,0,0,.256.118l1.434-.971a1.62,1.62,0,0,0,1,.427,1.533,1.533,0,0,0,.984-.427l1.431.971a.164.164,0,0,0,.256-.118l.4-2.387A.186.186,0,0,0,403.615,408.734Zm-3.013-2.157a.685.685,0,1,1,.654-.682A.67.67,0,0,1,400.6,406.577Z" transform="translate(-303.727 -303.757)" fill="#65617d"/>
      <path id="Path_2473" data-name="Path 2473" d="M402.127,310.679h-.107c-.141,0-.256-.018-.271-.158h0c-.312-2.9-2.139-2.955-2.139-3.637s1.83-.739,2.139-3.637h0c.015-.141.13-.158.271-.158h.107a.307.307,0,0,0,.309-.284.3.3,0,0,0-.3-.314h-6.822a.307.307,0,0,0-.307.284.3.3,0,0,0,.3.314h.118c.138,0,.256.018.271.158h0c.312,2.9,2.139,2.955,2.139,3.637s-1.83.739-2.139,3.637h0c-.015.141-.133.158-.271.158h-.11a.307.307,0,0,0-.307.284.3.3,0,0,0,.3.314h6.829a.3.3,0,0,0,.3-.314.309.309,0,0,0-.309-.284Zm-5.383-.728c.613-1.7,1.7-1.5,1.7-2.17v-1.186c0-.414-.785-.7-1.278-1.375a.166.166,0,0,1,.138-.256h2.837a.166.166,0,0,1,.143.256c-.483.675-1.278.964-1.278,1.378v1.186c0,.667,1.043.486,1.7,2.17.061.151.015.34-.146.34h-3.668C396.726,310.288,396.688,310.1,396.744,309.951Z" transform="translate(-301.856 -229.063)" fill="#65617d"/>
      <path id="Path_2474" data-name="Path 2474" d="M557.574,311.374a2.845,2.845,0,0,1-2.837,2.85H481.7a2.85,2.85,0,1,1,0-5.7h73.035A2.847,2.847,0,0,1,557.574,311.374Z" transform="translate(-364.206 -233.556)" fill="#5a5773" opacity="0.2"/>
      <path id="Path_2475" data-name="Path 2475" d="M558.071,414.555a2.845,2.845,0,0,1-2.837,2.852H482.2a2.85,2.85,0,0,1,0-5.7h73.035a2.85,2.85,0,0,1,2.837,2.845Z" transform="translate(-364.703 -310.368)" fill="#5a5773" opacity="0.2"/>
      <path id="Path_2476" data-name="Path 2476" d="M557.573,518.559a2.845,2.845,0,0,1-2.837,2.845H481.7a2.85,2.85,0,1,1,0-5.7h73.035A2.847,2.847,0,0,1,557.573,518.559Z" transform="translate(-364.206 -387.782)" fill="#5a5773" opacity="0.2"/>
      <path id="Path_2477" data-name="Path 2477" d="M542.916,308.526v5.7H481.7a2.85,2.85,0,1,1,0-5.7Z" transform="translate(-364.206 -233.556)" fill="#00b0ff"/>
      <path id="Path_2478" data-name="Path 2478" d="M554.275,411.69v5.7H482.2a2.85,2.85,0,0,1,0-5.7Z" transform="translate(-364.703 -310.353)" fill="#00b0ff"/>
      <path id="Path_2479" data-name="Path 2479" d="M527.069,515.711V521.4H481.7a2.85,2.85,0,1,1,0-5.7Z" transform="translate(-364.206 -387.782)" fill="#00b0ff"/>
      <path id="Path_2480" data-name="Path 2480" d="M864.178,352.267c.141-.381-.907-2.5-.907-2.6s-1.086-1.278-1.086-1.945-1.434-2.086-1.434-2.086a3.627,3.627,0,0,1-2.134-2.535c-.21-1.735-2.3-1.771-2.3-1.771h0v-.4a5.874,5.874,0,0,0-.256-2.032,2.045,2.045,0,0,0-1.191-1.007,4.458,4.458,0,0,0-.629-1.774,1.993,1.993,0,0,1-.488-1.876c.21-.657-.279-2.326-1.3-2.556s-2.167-.626-2.167-.626-.115.023-.281.046l-.141-.046a6.036,6.036,0,0,1-.733.092.9.9,0,0,1-.593-.2,11.686,11.686,0,0,0-3.706-1.13,8.584,8.584,0,0,1-2.032-.7l-1.5-1.145a9.635,9.635,0,0,1-1.314-1.815l-.015-.026h0a6.53,6.53,0,0,1-.317-.915h0a8.327,8.327,0,0,0,1.3-1.789c.036-.066.066-.135.1-.2a.738.738,0,0,0,.225-.036l.095-.036a1.533,1.533,0,0,0,.741-.887h0c.028-.077.049-.153.069-.23l.015-.077a.829.829,0,0,1,.033-.158l.015-.089c0-.054.018-.1.023-.158a.468.468,0,0,0,0-.087c0-.028.015-.133.026-.2h0a6.98,6.98,0,0,1,.11-.731h0a12.857,12.857,0,0,1,1.178-2.612h0c.056-.125.112-.256.161-.381s.1-.279.138-.422a.609.609,0,0,1,.033-.13c.028-.1.051-.207.071-.314a.877.877,0,0,1,.026-.138c.023-.143.044-.289.056-.434a5.368,5.368,0,0,0-.36-2.441c-.256-.652-.652-1.24-.918-1.891-.4-.989-.511-2.109-1-3.049a3.623,3.623,0,0,0-4.345-1.776c-.767.284-1.419.833-2.19,1.079a7.294,7.294,0,0,1-3.21-.066,3.989,3.989,0,0,0-3.113.537c-.992.805-1.263,2.316-2.193,3.2-.391.371-.874.608-1.278.951a2.08,2.08,0,0,0-.647.884.618.618,0,0,0-.023.074.5.5,0,0,0-.023.089.737.737,0,0,1-.018.1.332.332,0,0,0,0,.072,1.522,1.522,0,0,0,0,.187h0a1.287,1.287,0,0,0,.028.174v.049a.974.974,0,0,0,.043.146v.028c.018.054.041.1.061.158a.671.671,0,0,0,.036.079.68.68,0,0,0,.028.064,4.306,4.306,0,0,1,.325.808.892.892,0,0,1-.033.534,1.628,1.628,0,0,1-.386.511,7.22,7.22,0,0,0-1.58,2.528c-.041.107-.079.215-.112.325h0l.046.013a1.886,1.886,0,0,0,.307.066c.059,0,.118.015.176.018a2.684,2.684,0,0,0,.713-.054l.179-.041a4.561,4.561,0,0,0,.708-.256c0,.072,0,.141,0,.212v.12a8.263,8.263,0,0,0,4.6,7.389l.031.225.023.189-.095-.089s-.631-.314-1.224.59a3.959,3.959,0,0,1-1.715,1.319s-6.367,1.007-6.612,1.843l-2.973.174s-1.05.138-1.155,2.326-.664,2.4-.664,2.4-1.224,2.155-1.12,3.266a1.812,1.812,0,0,1-.969,1.661l-.141,1.981a1.343,1.343,0,0,0-1.47,1.181,4.753,4.753,0,0,1-.874,1.981s-1.925,1.6-2.029,2.952l-1.189.731s-2.766-.626-3.394-1.738l-.194-.181a.135.135,0,0,1-.015-.026h0a10.126,10.126,0,0,0-1.158-1.022.848.848,0,0,1,.056.56l-.2-.23-.549-.59s-4.112-4.726-6.73-5.058h0a1.664,1.664,0,0,0-1.176,1.14c-.332,1.13-.68,3,.184,3.921l4.135,4.419.107.079.9,1.155c-.151.363-.279.716-.386,1.035v.031c-.023.069-.043.138-.064.2l-.023.069c-.02.066-.038.13-.059.192s-.02.077-.033.115,0,.043-.018.066c-.1.348-.161.616-.194.767l-.233-.072.227.1a.219.219,0,0,0,0,.036.539.539,0,0,0-.015.074c.069.031.141.064.215.092,1.224.534,7.341,3.218,7.668,3.624a4.431,4.431,0,0,0,4.759.659,5.038,5.038,0,0,0,2.556-2.812,28.889,28.889,0,0,0,2.1-3.231c.069-.419,1.643-.9,1.643-.9s.141,4.654-.665,6.357-2.3,9.242-2.3,9.242a1.064,1.064,0,0,1,.3-.018l-.089.434a1.041,1.041,0,0,1,.371,0c-.112.856-.767,4.836-.767,4.836a10.069,10.069,0,0,1-.56,2.433,17.7,17.7,0,0,0-.386,3.89l-.56,2.362s.074.164.212.409h0a6.045,6.045,0,0,0,1.613,2.081,4.265,4.265,0,0,1-.284,1.079,3.778,3.778,0,0,0-.279,1.669,21.157,21.157,0,0,0-.524,3.44,12.514,12.514,0,0,1-.386,2.64l-.629,6.045a56.973,56.973,0,0,0-.21,6.671,12.757,12.757,0,0,1-.141,3.369s.419,4.135.314,4.585a8.511,8.511,0,0,0-.314,3.473,18.851,18.851,0,0,1,.141,4.031s.21,3.893.452,5.142a8.922,8.922,0,0,1-.069,2.85,25.853,25.853,0,0,1-.35,2.674c-.095,0-1.022,1.84.838,3.647s.7,1.534.7,1.534-1.47-.728-1.3.767c.166,1.424.4,1.05.417,1.022l-.348,1.142.256.033c-.067.079-.133.161-.2.256a5.541,5.541,0,0,1-.7.734,1.5,1.5,0,0,0-.457,1,27.357,27.357,0,0,1-5,4.238,14.651,14.651,0,0,0-2.842,1.912c-.432.47-.36.851.534,1.148a13.655,13.655,0,0,0,7.591.141,8.887,8.887,0,0,0,3.709-2.4,5.3,5.3,0,0,1,2.972-.488c1.47.279,4.409-1.633,4.409-1.633l-.054-.491-.156-1.421a1.125,1.125,0,0,1-.256-.866,4.446,4.446,0,0,0-.123-1.25c-.026-.138-.051-.273-.077-.4l.268-.049s-.35-1.771.281-2.121.452-4.9.452-4.9a5.552,5.552,0,0,0-1.224-1.217c-.422-.174-.036-2.328.036-2.6s.6-5.687.6-5.687a7.3,7.3,0,0,1,.069-2.431c.279-.731-.35-3.543-.35-3.543a.649.649,0,0,1,.176-.767c.386-.419.243-4.133.243-4.133s-.033-1.876-.033-2.364a8.589,8.589,0,0,1,.8-2.847,5.536,5.536,0,0,0,.141-2.431h0l.021-.141a1.549,1.549,0,0,1,.033-.194l.031-.187a26.693,26.693,0,0,1,.682-3.016c.455-1.459.979-4.028.979-4.028l3.256-8.5.036-.1a13.312,13.312,0,0,1,1.5,5.352,30.677,30.677,0,0,1,.281,3.923,46.649,46.649,0,0,0,.317,4.759s.452,5.623.452,5.879a34.128,34.128,0,0,0,.91,5.245c.35.659-.35,2.676-.56,2.883a44.381,44.381,0,0,0,.069,5.316s-.524,4.028-.629,4.856-.524,4.031-.174,5.281.21,1.424.21,1.424,1.26,1.278.511,1.39a1.927,1.927,0,0,0-1.4,2.535,33.08,33.08,0,0,0,1.534,3.719l.58-.123v.414l.041,2.07a11.577,11.577,0,0,1,.107,2.433,25.8,25.8,0,0,0-.286,2.7c-.026.3-.041.5-.041.5s0,1.84,3.885,1.278,4.59-2.078,4.59-2.078a.861.861,0,0,1,.031-.192c.056-.35.181-1.1.286-1.511.141-.557-1.12-3.067-1.12-3.067a6.389,6.389,0,0,0-.56-2.086,1.771,1.771,0,0,1-.281-.728c-.033-.141-.061-.286-.084-.429q.138.02.256.046s-.212-1.214.6-1.6a1.15,1.15,0,0,0,.488-1.534,11.743,11.743,0,0,1,.314-2.3,1.135,1.135,0,0,1,.281-1.112c.491-.486.874-3.89.874-3.89l.069-13.132a12.2,12.2,0,0,0-.033-3.266c-.289-.938-.56-2.742-.176-3.231s.036-2.745.036-2.745,0-4.759.524-5.94.35-8.649.35-8.649l.141-4.9s1.143-1.081.872-6.719a9.384,9.384,0,0,1,2.811.049c.386.312,2.868,1.912,4.345.9a19.3,19.3,0,0,0,1.748-1.355l-.616-10.415c.383.58.619.966.619.966,0-1.459,4.128-6.183,4.128-6.183a66.547,66.547,0,0,1,4.688-5.559c.841-.59,2.482-3.719,2.482-3.719a15.153,15.153,0,0,1,.841-1.735C865.308,354.317,864.03,352.65,864.178,352.267Zm-9.025,3.647c-1.048.1-3.254,2.5-3.287,3.024a2.191,2.191,0,0,1-.465.933c-.018-.21-.036-.422-.051-.639a70.552,70.552,0,0,1-.394-7.174,21.02,21.02,0,0,0,.138-3.438h0l.038-.054a17.758,17.758,0,0,0,2.9,4.751s.386,1.112.841,1.145S855.153,355.914,855.153,355.914Z" transform="translate(-598.866 -232.238)" fill="url(#linear-gradient)"/>
      <path id="Path_2481" data-name="Path 2481" d="M813.82,476.422s1.278-6.689,5.367-6.722l3,6.17-2,1.38S815.854,477.386,813.82,476.422Z" transform="translate(-613.623 -353.536)" fill="#65617d"/>
      <path id="Path_2482" data-name="Path 2482" d="M822.2,475.875l-2,1.38a23.482,23.482,0,0,1-5.24-.442,5.922,5.922,0,0,1-1.137-.386.38.38,0,0,1,.023-.107.138.138,0,0,1,0-.026,15.126,15.126,0,0,1,.767-2.456,9.443,9.443,0,0,1,.424-.92,6.215,6.215,0,0,1,2.6-2.85A3.548,3.548,0,0,1,819,469.71h.184l.064.135,1.022,2.086Z" transform="translate(-613.623 -353.543)" opacity="0.1"/>
      <path id="Path_2483" data-name="Path 2483" d="M970.739,546.826s4.309-.414,4.688-.1,2.827,1.9,4.276.9.483-4.483.483-4.621-.138-5.068-.138-5.068l-2.587-3.481-3.241-6.1-6.62-.654.171,9.687-.033,4.961Z" transform="translate(-728.098 -396.704)" fill="#65617d"/>
      <path id="Path_2484" data-name="Path 2484" d="M970.739,546.826s4.309-.414,4.688-.1,2.827,1.9,4.276.9.483-4.483.483-4.621-.138-5.068-.138-5.068l-2.587-3.481-3.241-6.1-6.62-.654.171,9.687-.033,4.961Z" transform="translate(-728.098 -396.704)" opacity="0.1"/>
      <path id="Path_2485" data-name="Path 2485" d="M802.879,450.517s-.342,4.207-2.965,4.276c0,0-.741-.447-1.741-1.194-2.3-1.725-5.955-5.035-4.946-8.118,1.447-4.412,8.481,3.724,8.481,3.724l.542.606Z" transform="translate(-598.165 -334.531)" fill="#fbbebe"/>
      <path id="Path_2486" data-name="Path 2486" d="M817.13,466.953s-.343,4.207-2.965,4.276c0,0-.741-.447-1.741-1.194l-.225-.289a3.4,3.4,0,0,0,1.436.386,1.935,1.935,0,0,0,1.873-1.181,14.667,14.667,0,0,0,.728-1.666,4.854,4.854,0,0,0,.256-1.035Z" transform="translate(-612.417 -350.968)" opacity="0.1"/>
      <path id="Path_2487" data-name="Path 2487" d="M816.526,473.529l-.59-.767-1.983-2.556L812.93,468.9a3.4,3.4,0,0,0,1.436.386,1.937,1.937,0,0,0,1.873-1.181,14.686,14.686,0,0,0,.726-1.669c.327-.93.322-1.408.2-1.569a10.747,10.747,0,0,1,1.14,1.01l.015.015.192.181.069.141,1,2v.084C819.693,468.936,820.03,472.959,816.526,473.529Z" transform="translate(-612.96 -349.923)" fill="#e7effd"/>
      <path id="Path_2488" data-name="Path 2488" d="M851.954,829.958s-2.9,1.9-4.345,1.618a5.178,5.178,0,0,0-2.932.486,8.728,8.728,0,0,1-3.655,2.38,13.363,13.363,0,0,1-7.481-.141c-.882-.294-.951-.672-.526-1.14a15.009,15.009,0,0,1,2.811-1.894,27.058,27.058,0,0,0,4.92-4.194,1.5,1.5,0,0,1,.45-1,5.759,5.759,0,0,0,.7-.726c.371-.44.718-.9.718-.9l8.516.279s.143.613.256,1.24a4.467,4.467,0,0,1,.12,1.242,1.117,1.117,0,0,0,.243.861l.151,1.408Z" transform="translate(-627.724 -617.615)" fill="#65617d"/>
      <path id="Path_2489" data-name="Path 2489" d="M952.359,834.246c-.1.411-.225,1.15-.281,1.5-.018.118-.028.192-.028.192s-.69,1.516-4.516,2.068-3.834-1.278-3.834-1.278.015-.2.041-.493a26.381,26.381,0,0,1,.307-2.679,12.372,12.372,0,0,0-.1-2.415l-.041-2.045-.028-1.429,6.349-.665a11.839,11.839,0,0,0,.2,1.413,1.885,1.885,0,0,0,.276.723,6.326,6.326,0,0,1,.555,2.068S952.5,833.691,952.359,834.246Z" transform="translate(-710.307 -619.513)" fill="#65617d"/>
      <path id="Path_2490" data-name="Path 2490" d="M877.61,824.729s.143.613.256,1.24c-.92.171-4.943.866-5.948.378a15.69,15.69,0,0,0-3.578-.861l.041-.138c.371-.44.718-.9.718-.9Z" transform="translate(-654.208 -617.615)" opacity="0.1"/>
      <path id="Path_2491" data-name="Path 2491" d="M950.928,828.418c-1.608-.273-5.132.386-6.52.67l-.028-1.429,6.349-.659A11.829,11.829,0,0,0,950.928,828.418Z" transform="translate(-710.813 -619.513)" opacity="0.1"/>
      <path id="Path_2492" data-name="Path 2492" d="M896.134,567.2,896,572.058s.171,7.412-.345,8.585-.511,5.9-.511,5.9.345,2.239-.036,2.722-.1,2.275.174,3.205a12.482,12.482,0,0,1,.033,3.243l-.069,13.035s-.378,3.376-.861,3.862a1.127,1.127,0,0,0-.281,1.1,11.749,11.749,0,0,0-.312,2.275,1.146,1.146,0,0,1-.481,1.518c-.792.378-.588,1.585-.588,1.585-1.894-.447-7.274.767-7.274.767a32.768,32.768,0,0,1-1.518-3.688,1.912,1.912,0,0,1,1.38-2.518c.723-.1-.511-1.378-.511-1.378s.138-.174-.207-1.413.069-4.414.171-5.242.624-4.828.624-4.828a44.244,44.244,0,0,1-.069-5.275c.207-.207.9-2.208.552-2.863a34.33,34.33,0,0,1-.9-5.206c0-.243-.447-5.828-.447-5.828s-.417-3.9-.317-4.711a31.564,31.564,0,0,0-.279-3.9,13.255,13.255,0,0,0-1.48-5.309l-.038.1-3.205,8.417s-.511,2.556-.964,4a26.256,26.256,0,0,0-.675,3l-.031.184a1.113,1.113,0,0,1-.031.194l-.021.138h0a5.538,5.538,0,0,1-.138,2.415,8.593,8.593,0,0,0-.792,2.827c0,.483.033,2.344.033,2.344s.138,3.688-.24,4.089a.644.644,0,0,0-.174.767s.621,2.794.345,3.517a7.247,7.247,0,0,0-.067,2.413s-.552,5.344-.621,5.623-.45,2.413-.036,2.587A5.553,5.553,0,0,1,877,611.509s.174,4.516-.447,4.856-.276,2.1-.276,2.1-5,.966-6.134.414a15.711,15.711,0,0,0-3.578-.864l.342-1.135c-.02.041-.256.409-.411-1-.171-1.482,1.278-.767,1.278-.767s1.137.276-.69-1.516-.93-3.622-.828-3.622a23.539,23.539,0,0,0,.345-2.653,8.8,8.8,0,0,0,.069-2.829c-.243-1.242-.455-5.1-.455-5.1a18.87,18.87,0,0,0-.138-4,8.537,8.537,0,0,1,.309-3.448c.1-.45-.309-4.552-.309-4.552a12.726,12.726,0,0,0,.138-3.341,56.821,56.821,0,0,1,.207-6.62l.621-6a12.664,12.664,0,0,0,.378-2.62,21.427,21.427,0,0,1,.511-3.412,3.786,3.786,0,0,1,.276-1.656,12.722,12.722,0,0,0,.486-2.965L872,553.193l1.626-6.676,21.894-.207s.079.578.212,1.633.319,2.615.527,4.542c.192,1.748.4,3.808.606,6.1C897.514,565.891,896.134,567.2,896.134,567.2Z" transform="translate(-652.427 -410.565)" fill="#3f3d56"/>
      <path id="Path_2493" data-name="Path 2493" d="M942.118,375.44l-5.112,5.449s-6.548-2.622-5.861-3.517a5.2,5.2,0,0,0,.071-2.651c-.256-1.909-.767-4.107-.767-4.107s11.445-1.863,10.479.066a3.182,3.182,0,0,0-.072,2.3A8.592,8.592,0,0,0,942.118,375.44Z" transform="translate(-700.443 -279.174)" fill="#fbbebe"/>
      <path id="Path_2494" data-name="Path 2494" d="M940.967,370.673c-.353.705-.511.767-.3,1.534-1.5,1.605-3.4,3.361-5.766,3.361a8.14,8.14,0,0,1-3.652-.864c-.256-1.909-.767-4.107-.767-4.107S941.933,368.743,940.967,370.673Z" transform="translate(-700.466 -279.166)" opacity="0.1"/>
      <path id="Path_2495" data-name="Path 2495" d="M932.074,335.4a8.207,8.207,0,1,1-16.414,0v-.118a8.207,8.207,0,1,1,16.413.118Z" transform="translate(-689.434 -247.406)" fill="#fbbebe"/>
      <path id="Path_2496" data-name="Path 2496" d="M917.3,558.052c-1.086,0-4.705.038-8.749.1H908.5l-1.334.023h-.043c-4.8.077-9.523-.861-11.42-.682-4.033.378,1.447-3.724,1.447-3.724a33.694,33.694,0,0,0,9.2.928l1.16-.059a49.485,49.485,0,0,0,9.273-1.13C916.914,554.576,917.1,556.125,917.3,558.052Z" transform="translate(-673.476 -415.925)" opacity="0.1"/>
      <path id="Path_2497" data-name="Path 2497" d="M917.3,557.242c-1.086,0-4.705.038-8.749.1H908.5l-1.334.023h-.043c-4.8.077-9.523-.861-11.42-.682-4.033.378,1.447-3.724,1.447-3.724a33.753,33.753,0,0,0,9.2.93l1.16-.061a49.49,49.49,0,0,0,9.273-1.13C916.914,553.766,917.1,555.315,917.3,557.242Z" transform="translate(-673.476 -415.322)" fill="#e3a79f"/>
      <path id="Path_2498" data-name="Path 2498" d="M906.4,397.15l-6.344,2.965-4.9,37.856s2.9-1.311,4.552-.483,6.758.069,6.758.069,3.724-.207,4.274.207,7.034-1.725,7.034-1.725,1.173-2.62.276-3.034.276-4.48.276-4.48l-.552-27.307-1.1-3.517-2.965-1.789-3.036,2.413-1.447.207Z" transform="translate(-674.173 -298.606)" opacity="0.1"/>
      <path id="Path_2499" data-name="Path 2499" d="M906.4,395.559l-6.344,2.965-4.9,37.856s2.9-1.311,4.56-.473,6.758.069,6.758.069,3.724-.207,4.273.207,7.034-1.723,7.034-1.723,1.173-2.622.276-3.034.276-4.483.276-4.483l-.552-27.307-1.1-3.517-2.965-1.789-3.036,2.413-1.447.207Z" transform="translate(-674.173 -297.43)" fill="#e7effd"/>
      <path id="Path_2500" data-name="Path 2500" d="M924.37,404.422s1.827,2.17,1.789,2.62-.1,1.516-.1,1.516l-1.36,2.8s-.767,3.481-.767,4.207-1.212,7.006-1.212,7.006l-1.449,9.654-1.827,12.654,1.863,3.205,2.206-1.861,2.932-22.548.619-4.447s.657-8,.657-8.828a27.985,27.985,0,0,0-.381-3,3.543,3.543,0,0,1,2.3-2.556c1.85-.486-.138-.1-.138-.1l-1.068-.861-.923.373S924.922,403.461,924.37,404.422Z" transform="translate(-692.247 -304.539)" opacity="0.1"/>
      <path id="Path_2501" data-name="Path 2501" d="M923.523,403.587s1.828,2.17,1.789,2.62-.1,1.516-.1,1.516l-1.378,2.794s-.767,3.481-.767,4.207-1.206,7-1.206,7l-1.449,9.654-1.827,12.654,1.876,3.21,2.206-1.861,2.926-22.553.621-4.447s.654-8,.654-8.828a27.981,27.981,0,0,0-.381-3,3.543,3.543,0,0,1,2.3-2.556c1.851-.486-.138-.1-.138-.1l-1.068-.861-.93.378S924.075,402.621,923.523,403.587Z" transform="translate(-691.607 -303.906)" fill="#3f3d56"/>
      <path id="Path_2502" data-name="Path 2502" d="M929.218,391s-.276.207-.345,1.587a27.96,27.96,0,0,1-1.022,4.48s3.578-2.482,5.367-2.206Z" transform="translate(-698.508 -294.951)" opacity="0.1"/>
      <path id="Path_2503" data-name="Path 2503" d="M929.218,389.42s-.276.207-.345,1.587a28.012,28.012,0,0,1-1.022,4.483s3.578-2.484,5.367-2.208Z" transform="translate(-698.508 -293.775)" fill="#e7effd"/>
      <path id="Path_2504" data-name="Path 2504" d="M955.044,386.73l-5.654,4.964a55.732,55.732,0,0,1,5.367,3.517c.608.69,1.242-6.758,1.242-6.758Z" transform="translate(-714.542 -291.772)" opacity="0.1"/>
      <path id="Path_2505" data-name="Path 2505" d="M955.854,385.11l-5.654,4.964a56.051,56.051,0,0,1,5.367,3.517c.611.69,1.242-6.758,1.242-6.758Z" transform="translate(-715.145 -290.566)" fill="#e7effd"/>
      <path id="Path_2506" data-name="Path 2506" d="M886.09,390.85s-.621-.309-1.206.588a3.9,3.9,0,0,1-1.689,1.309s-6.275,1-6.515,1.827l-2.932.174s-1.035.138-1.137,2.3-.654,2.38-.654,2.38-1.2,2.157-1.1,3.259a1.821,1.821,0,0,1-.93,1.656l4.309,11.205s.138,4.619-.654,6.308-2.277,9.171-2.277,9.171.621-.138.588.276-.767,4.93-.767,4.93a9.947,9.947,0,0,1-.552,2.413,17.529,17.529,0,0,0-.378,3.862l-.552,2.346s1.309,2.929,3.323,2.515,5.623-8.24,5.623-8.24l2.3-8.434,1.789-8.342.511-5.654.828-12.524,1.206-8.273S886.575,391.448,886.09,390.85Z" transform="translate(-655.176 -294.801)" opacity="0.1"/>
      <path id="Path_2507" data-name="Path 2507" d="M885.282,389.27s-.621-.309-1.206.588a3.9,3.9,0,0,1-1.689,1.309s-6.275,1-6.515,1.827l-2.932.174s-1.022.138-1.137,2.3-.654,2.385-.654,2.385-1.206,2.139-1.1,3.241a1.817,1.817,0,0,1-.93,1.656l4.309,11.205s.138,4.619-.654,6.308-2.277,9.171-2.277,9.171.621-.135.588.276-.767,4.93-.767,4.93a9.986,9.986,0,0,1-.552,2.415,17.525,17.525,0,0,0-.378,3.859l-.552,2.346s1.309,2.929,3.31,2.515,5.623-8.24,5.623-8.24l2.3-8.435,1.789-8.345.511-5.654.828-12.524,1.206-8.273S885.766,389.858,885.282,389.27Z" transform="translate(-654.573 -293.625)" fill="#65617d"/>
      <path id="Path_2508" data-name="Path 2508" d="M821.618,475.287l-2,1.38a23.481,23.481,0,0,1-5.24-.442l-1.114-.493-.222-.1.23.072a4.537,4.537,0,0,0,2.758.1c2.829-.951,2.518-5.623,2.408-6.681a.93.93,0,0,0-.023-.2h0a.137.137,0,0,0,.015.026,1.482,1.482,0,0,0,.13.181c.038.046.082.092.125.135h0l1,2v.084Z" transform="translate(-613.042 -352.955)" opacity="0.1"/>
      <path id="Path_2509" data-name="Path 2509" d="M829.2,441.09l-.964.276-.138,1.965a1.324,1.324,0,0,0-1.449,1.171,4.759,4.759,0,0,1-.861,1.966s-1.9,1.587-2,2.932l-1.16.723s-2.725-.621-3.343-1.723c0,0,1.24,8.895-5.367,6.722,0,0,7.412,3.241,7.757,3.688a4.349,4.349,0,0,0,4.69.657,4.97,4.97,0,0,0,2.518-2.794,29.056,29.056,0,0,0,2.068-3.208c.069-.414,1.62-.895,1.62-.895l2.939-7.159Z" transform="translate(-613.697 -332.238)" fill="#65617d"/>
      <path id="Path_2510" data-name="Path 2510" d="M966.4,389.66l1-4.549a5.394,5.394,0,0,0,.9,1.827l1.482,1.137a8.613,8.613,0,0,0,2,.69,11.877,11.877,0,0,1,3.655,1.1c.345.378,1.725.1,1.725.1s1.137.378,2.137.621,1.482,1.894,1.278,2.556a1.986,1.986,0,0,0,.483,1.861,4.435,4.435,0,0,1,.621,1.759,2.029,2.029,0,0,1,1.171,1,7.091,7.091,0,0,1,.256,2.415l-5.137,7.238a21.045,21.045,0,0,1-.138,3.415c-.207.621.723,11.169.723,11.169l1.068,18.147A19.315,19.315,0,0,1,977.9,441.5c-.309.138-.621-6.413-.621-6.645s-7.98-11.941-7.98-11.941a10.666,10.666,0,0,1-1.068-2.1c0-.381-1-3.862-1-3.862l-1.518-6.722Z" transform="translate(-726.691 -290.566)" opacity="0.1"/>
      <path id="Path_2511" data-name="Path 2511" d="M984.72,399.818v.394l-5.135,7.236h0a21.045,21.045,0,0,1-.138,3.415c-.12.358.143,4.069.386,7.118.174,2.2.337,4.051.337,4.051l.455,7.693.614,10.443a19.3,19.3,0,0,1-1.723,1.344c-.309.138-.621-6.413-.621-6.645s-7.98-11.921-7.98-11.921a10.74,10.74,0,0,1-1.068-2.1c0-.378-1-3.862-1-3.862l-1.518-6.722.69-20.549.585-4.55a9.874,9.874,0,0,0,1.311,1.825c.45.343,1.482,1.14,1.482,1.14a8.613,8.613,0,0,0,2,.69,11.876,11.876,0,0,1,3.655,1.1c.345.378,1.725.1,1.725.1s1.137.378,2.137.621,1.482,1.9,1.278,2.556a1.988,1.988,0,0,0,.483,1.863,4.461,4.461,0,0,1,.619,1.758,2.029,2.029,0,0,1,1.173,1A5.483,5.483,0,0,1,984.72,399.818Z" transform="translate(-727.897 -290.604)" fill="#65617d"/>
      <path id="Path_2512" data-name="Path 2512" d="M870.48,801.93c.171,0,7.412.276,7.274,1.447S870.48,801.93,870.48,801.93Z" transform="translate(-655.801 -600.851)" opacity="0.1"/>
      <path id="Path_2513" data-name="Path 2513" d="M876.82,809.62s4.856.792,3.578,1.516S876.82,809.62,876.82,809.62Z" transform="translate(-660.521 -606.576)" opacity="0.1"/>
      <path id="Path_2514" data-name="Path 2514" d="M947.5,799s8.069.69,6.863,1.585-4.069,1.035-4.207,1.071S947.5,799,947.5,799Z" transform="translate(-713.135 -598.67)" opacity="0.1"/>
      <path id="Path_2515" data-name="Path 2515" d="M943.72,812.85s4.483.767,4.621,1.62S943.72,812.85,943.72,812.85Z" transform="translate(-710.322 -608.98)" opacity="0.1"/>
      <path id="Path_2516" data-name="Path 2516" d="M953.44,731.65s4.089.966,4.345,1.62Z" transform="translate(-717.557 -548.534)" opacity="0.1"/>
      <path id="Path_2517" data-name="Path 2517" d="M888.694,743.25s-2.137.621-.069,1.861S888.694,743.25,888.694,743.25Z" transform="translate(-668.637 -557.169)" opacity="0.1"/>
      <path id="Path_2518" data-name="Path 2518" d="M928.62,611.2c.24,0,4-1.242,5.309-.69a8.754,8.754,0,0,0,2.932.552Z" transform="translate(-699.081 -458.249)" opacity="0.1"/>
      <path id="Path_2519" data-name="Path 2519" d="M916.292,623.514l-.038.342-3.205,8.417s-.511,2.556-.964,4a26.253,26.253,0,0,0-.675,3l2.845-17.636Z" transform="translate(-686.27 -466.634)" opacity="0.1"/>
      <path id="Path_2520" data-name="Path 2520" d="M943.8,560.634l-1.334.023h-.043l-.782-3.476,1.16-.061Z" transform="translate(-708.773 -418.612)" fill="#3f3d56"/>
      <path id="Path_2521" data-name="Path 2521" d="M973.3,544.76l-.856.708-2.865,2.359s-7.76,4.138-9.9.207c-1.884-3.463,6.9-5.935,9.03-6.474l.452-.11Z" transform="translate(-722.01 -406.947)" fill="#fbbebe"/>
      <path id="Path_2522" data-name="Path 2522" d="M884.1,421.8s1.518.69,1.863,1.654S884.1,421.8,884.1,421.8Z" transform="translate(-665.94 -317.879)" opacity="0.1"/>
      <path id="Path_2523" data-name="Path 2523" d="M861.317,462.27s-2.208,2.689-1.311,3.721S861.317,462.27,861.317,462.27Z" transform="translate(-647.844 -348.005)" opacity="0.1"/>
      <path id="Path_2524" data-name="Path 2524" d="M1013.847,427.73s-2.068.207-2.137,2Z" transform="translate(-760.934 -322.293)" opacity="0.1"/>
      <path id="Path_2525" data-name="Path 2525" d="M945.07,518.957c.207-.207,4.966-7.241,6.068-6.62Z" transform="translate(-711.327 -385.246)" opacity="0.1"/>
      <path id="Path_2526" data-name="Path 2526" d="M932.081,335.44a8.179,8.179,0,0,1-.971,3.875h-.061c-.511-.11-.79-.716-1.188-1.1a1.615,1.615,0,0,0-1.861-.256,1.891,1.891,0,0,0-.915,1.769c-.256-1.1-.179-2.277-.437-3.384s-1.022-2.226-2.083-2.244c-.455,0-.987.169-1.316-.174-.2-.2-.24-.529-.389-.78-.767-1.222-3.054-.6-3.992.023a24.5,24.5,0,0,1-3.2,2.165,8.207,8.207,0,1,1,16.413.118Z" transform="translate(-689.441 -247.45)" opacity="0.1"/>
      <path id="Path_2527" data-name="Path 2527" d="M916.785,319.984c.148.256.189.575.388.78.327.342.859.166,1.316.174,1.056.018,1.828,1.137,2.083,2.244s.174,2.28.437,3.387a1.886,1.886,0,0,1,.915-1.769,1.62,1.62,0,0,1,1.861.256c.4.381.67.987,1.188,1.094s1.022-.388,1.209-.935a15.27,15.27,0,0,0,.3-1.718,21.606,21.606,0,0,1,1.324-2.98,5.393,5.393,0,0,0-.036-3.852c-.256-.647-.644-1.229-.9-1.876-.4-.984-.511-2.093-.984-3.029A3.571,3.571,0,0,0,921.588,310c-.751.281-1.4.826-2.162,1.071a7.111,7.111,0,0,1-3.162-.066,3.89,3.89,0,0,0-3.067.534c-.976.8-1.242,2.3-2.16,3.174-.386.368-.864.6-1.278.943a1.683,1.683,0,0,0-.708,1.4c.059.713.767,1.362.511,2.024a1.606,1.606,0,0,1-.383.511,7.205,7.205,0,0,0-1.669,2.84c1.845.578,3.834-1.457,5.286-2.418C913.731,319.381,916.029,318.762,916.785,319.984Z" transform="translate(-683.367 -234.506)" fill="#3f3d56"/>
      <path id="Path_2528" data-name="Path 2528" d="M999.981,544.76l-.856.708a25.688,25.688,0,0,0-3.865-3.778l.133-.13.452-.11Z" transform="translate(-748.688 -406.947)" opacity="0.1"/>
      <path id="Path_2529" data-name="Path 2529" d="M1001.442,540.246s-.307.767-.626,1.431-.667,1.278-.682.767c-.036-.966-4.033-4.207-4.033-4.207l.542-.526.629-.611Z" transform="translate(-749.314 -403.709)" fill="#e7effd"/>
      <path id="Path_2530" data-name="Path 2530" d="M1001.647,517.641l.455,7.693c-1.073-1.664-4.013-5.935-5.9-5.8l4.585-5.275a6.087,6.087,0,0,0,.524-.672C1001.483,515.788,1001.647,517.641,1001.647,517.641Z" transform="translate(-749.388 -386.208)" opacity="0.1"/>
      <path id="Path_2531" data-name="Path 2531" d="M1003.02,540.269s-.307.767-.626,1.431c-1.2-1.649-2.855-3.6-4.174-3.959l.629-.611Z" transform="translate(-750.892 -403.731)" opacity="0.1"/>
      <path id="Path_2532" data-name="Path 2532" d="M1005.56,440.28l1.242.966s2.068.033,2.275,1.758a3.58,3.58,0,0,0,2.1,2.515s1.413,1.413,1.413,2.07,1.068,1.827,1.068,1.93,1.022,2.206.9,2.587,1.1,2.045.723,2.653a15.547,15.547,0,0,0-.828,1.725s-1.62,3.1-2.446,3.688a66.506,66.506,0,0,0-4.621,5.518s-4.069,4.688-4.069,6.134c0,0-3.964-6.62-6.308-6.449l4.6-5.273s.792-.861.828-1.378,2.206-2.9,3.241-3c0,0,.171-1.413-.276-1.447s-.828-1.14-.828-1.14-3.034-3.578-3.067-5.861S1005.56,440.28,1005.56,440.28Z" transform="translate(-749.991 -331.635)" fill="#65617d"/>
      <path id="Path_2533" data-name="Path 2533" d="M1030.73,453.09s-2.9,2.139-2.275,2.827S1030.73,453.09,1030.73,453.09Z" transform="translate(-773.335 -341.171)" opacity="0.1"/>
      <path id="Path_2534" data-name="Path 2534" d="M1038.15,485.4s5.367-1.725,5.93,0Z" transform="translate(-780.616 -364.65)" opacity="0.1"/>
      <path id="Path_2535" data-name="Path 2535" d="M851.954,844.645s-2.9,1.9-4.345,1.618a5.179,5.179,0,0,0-2.932.486,8.73,8.73,0,0,1-3.655,2.38,13.361,13.361,0,0,1-7.481-.141c-.882-.294-.951-.672-.526-1.14,2.022.4,6.546,1.206,7.767.624a33.387,33.387,0,0,0,3.859-2.413s2.967-.391,3.381-.391a37.084,37.084,0,0,0,3.875-1.487Z" transform="translate(-627.724 -632.302)" opacity="0.1"/>
      <path id="Path_2536" data-name="Path 2536" d="M952.078,861.21c-.018.118-.028.192-.028.192s-.69,1.516-4.516,2.068-3.834-1.278-3.834-1.278.015-.2.041-.493C944.955,862.161,947.611,862.675,952.078,861.21Z" transform="translate(-710.307 -644.98)" opacity="0.1"/>
      <path id="Path_2537" data-name="Path 2537" d="M887.194,451.47s0,7.862-.672,8.639S887.194,451.47,887.194,451.47Z" transform="translate(-667.603 -339.965)" opacity="0.1"/>
      <path id="Path_2538" data-name="Path 2538" d="M1011.31,461.39l1,2.812S1012.705,461.441,1011.31,461.39Z" transform="translate(-760.636 -347.35)" opacity="0.1"/>
      <g id="Group_714" data-name="Group 714" transform="translate(224.138 81.928)" opacity="0.1">
        <path id="Path_2539" data-name="Path 2539" d="M914.152,337.726c.256-.647-.406-1.278-.493-1.976a1.276,1.276,0,0,0-.11.624,12.107,12.107,0,0,0,.532,1.493A.911.911,0,0,0,914.152,337.726Z" transform="translate(-911.998 -335.75)"/>
        <path id="Path_2540" data-name="Path 2540" d="M921.088,351.508c-.256-1.089-.174-2.239-.424-3.323s-1.022-2.226-2.086-2.244c-.455,0-.987.169-1.316-.174-.2-.2-.238-.529-.388-.78-.767-1.222-3.052-.6-3.992.023-1.411.938-3.348,2.9-5.155,2.454-.087.21-.169.419-.235.636,1.845.578,3.834-1.457,5.286-2.418.941-.626,3.238-1.245,3.995-.023.148.256.189.575.388.78.327.342.859.166,1.316.174,1.056.018,1.828,1.137,2.083,2.244s.174,2.28.437,3.387A1.956,1.956,0,0,1,921.088,351.508Z" transform="translate(-907.49 -342.104)"/>
        <path id="Path_2541" data-name="Path 2541" d="M965.93,365.737c-.189.547-.68,1.048-1.211.935s-.79-.713-1.186-1.094a1.62,1.62,0,0,0-1.861-.256,1.871,1.871,0,0,0-.915,1.669,1.789,1.789,0,0,1,.81-1,1.62,1.62,0,0,1,1.861.256c.4.381.67.987,1.188,1.094s1.022-.389,1.209-.935a4.628,4.628,0,0,0,.189-.992,2.814,2.814,0,0,1-.084.32Z" transform="translate(-947.142 -357.627)"/>
        <path id="Path_2542" data-name="Path 2542" d="M983.174,346.889a21.924,21.924,0,0,0-1.324,2.98c-.046.217-.074.44-.1.662a21.786,21.786,0,0,1,1.321-2.97,5.368,5.368,0,0,0,.32-1.431A5.484,5.484,0,0,1,983.174,346.889Z" transform="translate(-962.77 -343.477)"/>
      </g>
    </g>
  </g>
</svg>
