<svg xmlns="http://www.w3.org/2000/svg" width="1265.803" height="381.054" viewBox="0 0 1265.803 381.054">
  <g id="Group_2644" data-name="Group 2644" transform="translate(-361.697 -6687.474)">
    <text id="Technician" transform="translate(910 6714)" fill="#21232a" font-size="20" font-family="HelveticaNeue-Bold, Helvetica Neue" font-weight="700"><tspan x="0.09" y="20">Technician</tspan></text>
    <text id="Main_Purpose" data-name="Main
Purpose" transform="translate(757 6804)" fill="#21232a" font-size="20" font-family="HelveticaNeue-Bold, Helvetica Neue" font-weight="700"><tspan x="21.18" y="20">Main</tspan><tspan x="4.68" y="45">Purpose</tspan></text>
    <text id="Example_Use_Case" data-name="Example
Use Case" transform="translate(750 6931)" fill="#21232a" font-size="20" font-family="HelveticaNeue-Bold, Helvetica Neue" font-weight="700"><tspan x="10.42" y="20">Example</tspan><tspan x="5.94" y="45">Use Case</tspan></text>
    <text id="CSA" transform="translate(1061 6714)" fill="#21232a" font-size="20" font-family="HelveticaNeue-Bold, Helvetica Neue" font-weight="700"><tspan x="64.25" y="20">CSA</tspan></text>
    <line id="Line_106" data-name="Line 106" y2="381.054" transform="translate(868.5 6687.474)" fill="none" stroke="#707070" stroke-width="1" opacity="0.2"/>
    <line id="Line_107" data-name="Line 107" x1="895.5" transform="translate(732 6899.5)" fill="none" stroke="#707070" stroke-width="1" opacity="0.2"/>
    <text id="To_add_a_consumer_into_the_company_database" data-name="To add a consumer into the company database" transform="translate(888 6804)" fill="#707070" font-size="14" font-family="HelveticaNeue, Helvetica Neue"><tspan x="12.461" y="13">To add a consumer </tspan><tspan x="18.033" y="28">into the company </tspan><tspan x="43.457" y="43">database</tspan></text>
    <text id="Same_as_Technician" data-name="Same as Technician" transform="translate(1106 6804)" fill="#707070" font-size="14" font-family="HelveticaNeue, Helvetica Neue"><tspan x="13.27" y="13">Same as </tspan><tspan x="7.439" y="28">Technician</tspan></text>
    <text id="Manual_addition_of_a_customer_who_cannot_request_an_account_through_the_customer_smartphone_app" data-name="Manual addition of a customer who cannot request an account through the customer smartphone app" transform="translate(888 6931)" fill="#707070" font-size="14" font-family="HelveticaNeue, Helvetica Neue"><tspan x="8.576" y="13">Manual addition of a </tspan><tspan x="4.432" y="28">customer who cannot </tspan><tspan x="12.202" y="43">request an account </tspan><tspan x="5.195" y="58">through the customer </tspan><tspan x="21.015" y="73">smartphone app</tspan></text>
    <text id="Same_as_Technician-2" data-name="Same as Technician" transform="translate(1094 6931)" fill="#707070" font-size="14" font-family="HelveticaNeue, Helvetica Neue"><tspan x="25.77" y="13">Same as </tspan><tspan x="19.939" y="28">Technician</tspan></text>
    <line id="Line_108" data-name="Line 108" y2="381.054" transform="translate(1053.5 6687.474)" fill="none" stroke="#707070" stroke-width="1" opacity="0.2"/>
    <line id="Line_109" data-name="Line 109" y2="381.054" transform="translate(1237.5 6687.474)" fill="none" stroke="#707070" stroke-width="1" opacity="0.2"/>
    <text id="Cluster_In-charge" data-name="Cluster
In-charge" transform="translate(1280 6714)" fill="#21232a" font-size="20" font-family="HelveticaNeue-Bold, Helvetica Neue" font-weight="700"><tspan x="16.56" y="20">Cluster</tspan><tspan x="5.18" y="45">In-charge</tspan></text>
    <text id="State_In-carge" data-name="State
In-carge" transform="translate(1448 6714)" fill="#21232a" font-size="20" font-family="HelveticaNeue-Bold, Helvetica Neue" font-weight="700"><tspan x="42.49" y="20">State</tspan><tspan x="27.61" y="45">In-carge</tspan></text>
    <line id="Line_110" data-name="Line 110" y2="370.06" transform="translate(1421.5 6698.468)" fill="none" stroke="#707070" stroke-width="1" opacity="0.2"/>
    <text id="Same_as_Technician-3" data-name="Same as Technician" transform="translate(1285 6804)" fill="#707070" font-size="14" font-family="HelveticaNeue, Helvetica Neue"><tspan x="13.27" y="13">Same as </tspan><tspan x="7.439" y="28">Technician</tspan></text>
    <text id="Same_as_Technician-4" data-name="Same as Technician" transform="translate(1278 6931)" fill="#707070" font-size="14" font-family="HelveticaNeue, Helvetica Neue"><tspan x="25.77" y="13">Same as </tspan><tspan x="19.939" y="28">Technician</tspan></text>
    <text id="Same_as_Technician-5" data-name="Same as Technician" transform="translate(1478 6804)" fill="#707070" font-size="14" font-family="HelveticaNeue, Helvetica Neue"><tspan x="13.27" y="13">Same as </tspan><tspan x="7.439" y="28">Technician</tspan></text>
    <text id="Same_as_Technician-6" data-name="Same as Technician" transform="translate(1466 6931)" fill="#707070" font-size="14" font-family="HelveticaNeue, Helvetica Neue"><tspan x="25.77" y="13">Same as </tspan><tspan x="19.939" y="28">Technician</tspan></text>
    <g id="Group_836" data-name="Group 836" transform="translate(73.283 5.784)">
      <g id="undraw_Add_friends_wa2a" transform="translate(289 6772.628)">
        <rect id="Rectangle_457" data-name="Rectangle 457" width="185.359" height="133.373" transform="translate(129.047 35.816)" fill="#e6e8ec"/>
        <path id="Path_2785" data-name="Path 2785" d="M690.089,326.457H468.937V159.421H690.089Zm-220.3-.852H689.237V160.274H469.789Z" transform="translate(-340.316 -156.842)" fill="#3f3d56"/>
        <circle id="Ellipse_211" data-name="Ellipse 211" cx="4.261" cy="4.261" r="4.261" transform="translate(135.012 7.692)" fill="#3f3d56"/>
        <circle id="Ellipse_212" data-name="Ellipse 212" cx="4.261" cy="4.261" r="4.261" transform="translate(146.943 7.692)" fill="#3f3d56"/>
        <circle id="Ellipse_213" data-name="Ellipse 213" cx="4.261" cy="4.261" r="4.261" transform="translate(158.874 7.692)" fill="#3f3d56"/>
        <rect id="Rectangle_458" data-name="Rectangle 458" width="90.934" height="1.022" transform="translate(176.259 56.658)" fill="#3f3d56"/>
        <rect id="Rectangle_459" data-name="Rectangle 459" width="90.934" height="1.022" transform="translate(176.259 63.81)" fill="#3f3d56"/>
        <rect id="Rectangle_460" data-name="Rectangle 460" width="90.934" height="1.022" transform="translate(176.259 70.962)" fill="#3f3d56"/>
        <rect id="Rectangle_461" data-name="Rectangle 461" width="90.934" height="1.022" transform="translate(176.259 85.634)" fill="#3f3d56"/>
        <rect id="Rectangle_462" data-name="Rectangle 462" width="90.934" height="1.022" transform="translate(176.259 92.786)" fill="#3f3d56"/>
        <rect id="Rectangle_463" data-name="Rectangle 463" width="90.934" height="1.022" transform="translate(176.259 99.938)" fill="#3f3d56"/>
        <path id="Path_2786" data-name="Path 2786" d="M690.921,530.507a22.584,22.584,0,1,1,22.584-22.584A22.584,22.584,0,0,1,690.921,530.507Zm0-44.316a21.732,21.732,0,1,0,21.732,21.732,21.732,21.732,0,0,0-21.732-21.732Z" transform="translate(-469.328 -367.71)" fill="#00b0ff"/>
        <path id="Path_2787" data-name="Path 2787" d="M618.511,376.042H608.284V365.815h-1.7v10.227H596.353v1.7H606.58v10.227h1.7V377.746h10.227Z" transform="translate(-385.838 -236.681)" fill="#00b0ff"/>
        <path id="Path_2788" data-name="Path 2788" d="M205.045,584.925s-8.948,9.8-10.227,32.384-1.7,25.141-1.7,25.141h31.958l5.966-15.34,6.818,15.34h30.254s3.409-46.872,0-48.151S205.045,584.925,205.045,584.925Z" transform="translate(-161.86 -432.142)" fill="#2f2e41"/>
        <circle id="Ellipse_214" data-name="Ellipse 214" cx="15.34" cy="15.34" r="15.34" transform="translate(70.669 6.84)" fill="#ffb8b8"/>
        <path id="Path_2789" data-name="Path 2789" d="M303.529,217.966l-2.983,27.271,20.879,2.557s.852-23.862,1.278-24.714S303.529,217.966,303.529,217.966Z" transform="translate(-231.368 -194.721)" fill="#ffb8b8"/>
        <path id="Path_2790" data-name="Path 2790" d="M447.105,382.132l8.948,17.471s11.931,17.471,14.914,31.958,5.966,21.306,5.966,21.306,15.34,22.158,6.818,25.993-15.766-24.715-15.766-24.715l-23.436-42.611-13.636-22.158Z" transform="translate(-315.715 -300.935)" fill="#ffb8b8"/>
        <path id="Path_2791" data-name="Path 2791" d="M151.171,394.2l-2.983,12.783-28.123,37.072S97.48,461.1,106.855,464.938s20.879-15.34,20.879-15.34l34.941-30.68-1.7-24.714Z" transform="translate(-104.577 -308.745)" fill="#ffb8b8"/>
        <path id="Path_2792" data-name="Path 2792" d="M248.148,277.361s12.654,5.305,22.093-1.182c0,0,23.075,3.739,24.353,5.017s-1.278,39.628-1.278,39.628L288.2,342.556s7.244,33.237-3.409,41.759l2.131,11.505s-47.3,3.409-66.047-8.1l3.409-11.505L233.234,340,227.7,289.718S231.956,278.213,248.148,277.361Z" transform="translate(-179.823 -232.384)" fill="#d0cde1"/>
        <path id="Path_2793" data-name="Path 2793" d="M394.239,292.7l11.079-1.7s5.539.852,10.653,11.505,10.653,24.714,10.653,24.714l-19.175,8.522-15.766-24.714Z" transform="translate(-290.333 -241.971)" fill="#d0cde1"/>
        <path id="Path_2794" data-name="Path 2794" d="M236.5,308.5l-2.557,2.131s-3.409,12.357-3.409,20.879v11.5l15.34,1.7Z" transform="translate(-186.071 -253.295)" fill="#d0cde1"/>
        <path id="Path_2795" data-name="Path 2795" d="M300.791,178.459a7.516,7.516,0,0,1-1.874-5.071,16.074,16.074,0,0,0-.3-4.792,47.307,47.307,0,0,1,1.616-7.288c.964-2.674.151-3.605,4.294-5.065s1.505-6.74,13.718-2.531a3.341,3.341,0,0,0,3.634.743c2.255-.826,3.614,2.272,3.614,2.272s1.406-1.154,2.2.046,4.606-1.535,6.006,7.193-3.405,16.51-3.405,16.51-.674-13.966-8.606-14.219-16.9-3.258-18.014,2.624A42.926,42.926,0,0,1,300.791,178.459Z" transform="translate(-230.117 -152.116)" fill="#2f2e41"/>
        <rect id="Rectangle_464" data-name="Rectangle 464" width="160.218" height="57.525" transform="translate(3.344 124.021)" fill="#3f3d56"/>
        <path id="Path_2796" data-name="Path 2796" d="M236.747,570.312l-.053.01c-.421.077-.844.144-1.275.191-.145.017-.294.03-.439.043s-.294.026-.443.034c-.243.017-.49.026-.737.03-.107,0-.217,0-.324,0h-.064c-.132,0-.264,0-.4,0l-.341-.013c-.064,0-.128,0-.187-.009a17.9,17.9,0,1,1,9.937-33.356,17.9,17.9,0,0,0,0,30.97A17.813,17.813,0,0,1,236.747,570.312Z" transform="translate(-176.378 -399.731)" fill="#00b0ff"/>
        <path id="Path_2797" data-name="Path 2797" d="M306.565,566.733a17.465,17.465,0,0,0,2.165,1.479,17.8,17.8,0,0,1-8.948,2.412h-.23a17.9,17.9,0,1,1,9.178-33.382,17.863,17.863,0,0,0-2.165,29.491Z" transform="translate(-219.278 -399.731)" fill="#00b0ff"/>
        <path id="Path_2798" data-name="Path 2798" d="M384.02,552.727a17.9,17.9,0,1,1-17.9-17.9,17.9,17.9,0,0,1,17.9,17.9Z" transform="translate(-262.217 -399.731)" fill="#00b0ff"/>
        <path id="Path_2799" data-name="Path 2799" d="M392.892,589.435a12,12,0,0,1-.243,2.412,17.931,17.931,0,0,1-14,0,11.992,11.992,0,0,1-.243-2.412c0-4.21,2.143-7.768,5.1-8.957a5.539,5.539,0,1,1,4.3,0C390.749,581.667,392.892,585.225,392.892,589.435Z" transform="translate(-281.742 -422.377)" fill="#fff"/>
        <path id="Path_2800" data-name="Path 2800" d="M325.294,589.382v.055a18.288,18.288,0,0,1-.426,2.983c-2.084.886-4.189.822-6.588.852h-.23a17.825,17.825,0,0,1-7-1.423,1.856,1.856,0,0,1-.038-.222,11.472,11.472,0,0,1-.2-2.19c0-4.21,2.143-7.768,5.1-8.957a5.539,5.539,0,0,1,2.148-10.644,5.346,5.346,0,0,1,1.287.153,17.877,17.877,0,0,0,5.957,19.392Z" transform="translate(-238.006 -422.379)" fill="#fff"/>
        <path id="Path_2801" data-name="Path 2801" d="M260.1,589.685a11.5,11.5,0,0,1-.234,2.165,17.831,17.831,0,0,1-4.994,1.312c-.145.017-.294.03-.439.043s-.294.026-.443.034c-.243.017-.49.026-.737.03-.051,0-.107,0-.158,0h-.23c-.132,0-.264,0-.4,0l-.341-.013c-.064,0-.128,0-.187-.009a17.738,17.738,0,0,1-6.076-1.4.072.072,0,0,1,0-.03,1.382,1.382,0,0,1-.034-.192,11.47,11.47,0,0,1-.2-2.19c0-4.21,2.143-7.768,5.1-8.957a5.539,5.539,0,0,1,2.148-10.644,5.422,5.422,0,0,1,.916.077,17.878,17.878,0,0,0,6.319,19.772Z" transform="translate(-195.833 -422.379)" fill="#fff"/>
      </g>
      <line id="Line_197" data-name="Line 197" x2="151.3" transform="translate(289.413 6983.35)" fill="none" stroke="#2e3547" stroke-linecap="round" stroke-width="2"/>
      <line id="Line_198" data-name="Line 198" x2="7.441" transform="translate(443.194 6983.35)" fill="none" stroke="#2e3547" stroke-linecap="round" stroke-width="2"/>
      <line id="Line_199" data-name="Line 199" transform="translate(453.115 6983.35)" fill="none" stroke="#2e3547" stroke-linecap="round" stroke-width="2"/>
    </g>
  </g>
</svg>
