<svg xmlns="http://www.w3.org/2000/svg" width="1261.864" height="339.872" viewBox="0 0 1261.864 339.872">
  <g id="Group_2760" data-name="Group 2760" transform="translate(-281 -1898.468)">
    <g id="Group_2758" data-name="Group 2758" transform="translate(-140)">
      <text id="State_In-carge" data-name="State
In-carge" transform="translate(1303 1914)" fill="#21232a" font-size="20" font-family="HelveticaNeue-Bold, Helvetica Neue" font-weight="700"><tspan x="59.99" y="20">State</tspan><tspan x="45.11" y="45">In-carge</tspan></text>
      <text id="To_monitor_the_results_of_coupon_schemes_at_different_plants" data-name="To monitor the results of coupon schemes at different plants" transform="translate(1306 2004)" fill="#707070" font-size="14" font-family="HelveticaNeue, Helvetica Neue"><tspan x="6.407" y="13">To monitor the results of </tspan><tspan x="20.274" y="29">coupon schemes at </tspan><tspan x="35.429" y="45">different plants</tspan></text>
      <text id="Calculating_the_proportion_of_eligible_customers_who_participated_in_the_initiative" data-name="Calculating the proportion of eligible customers who participated in the initiative" transform="translate(1306 2131)" fill="#707070" font-size="14" font-family="HelveticaNeue, Helvetica Neue"><tspan x="0.709" y="13">Calculating the proportion </tspan><tspan x="2.018" y="29">of eligible customers who </tspan><tspan x="25.468" y="45">participated in the </tspan><tspan x="56.464" y="61">initiative</tspan></text>
      <line id="Line_121" data-name="Line 121" y2="339.872" transform="translate(1294.5 1898.468)" fill="none" stroke="#707070" stroke-width="1" opacity="0.2"/>
      <text id="Following_up_with_customers_who_have_generated_coupons_but_not_redeemed_them" data-name="Following up with customers who have generated coupons but not redeemed them" transform="translate(1121 2131)" fill="#707070" font-size="14" font-family="HelveticaNeue, Helvetica Neue"><tspan x="27.176" y="13">Following up with </tspan><tspan x="17.047" y="29">customers who have </tspan><tspan x="8.997" y="45">generated coupons but </tspan><tspan x="20.652" y="61">not redeemed them</tspan></text>
      <text id="To_track_the_customers_whose_coupons_are_going_to_expire_" data-name="To track the customers whose coupons are going to expire " transform="translate(1137 2004)" fill="#707070" font-size="14" font-family="HelveticaNeue, Helvetica Neue"><tspan x="29.306" y="13">To track the </tspan><tspan x="10.644" y="29">customers whose </tspan><tspan x="7.655" y="45">coupons are going </tspan><tspan x="38.777" y="61">to expire </tspan></text>
      <text id="Cluster_In-charge" data-name="Cluster
In-charge" transform="translate(1152 1914)" fill="#21232a" font-size="20" font-family="HelveticaNeue-Bold, Helvetica Neue" font-weight="700"><tspan x="16.56" y="20">Cluster</tspan><tspan x="5.18" y="45">In-charge</tspan></text>
      <line id="Line_120" data-name="Line 120" y2="339.872" transform="translate(1110.5 1898.468)" fill="none" stroke="#707070" stroke-width="1" opacity="0.2"/>
      <text id="CSA" transform="translate(934 1914)" fill="#21232a" font-size="20" font-family="HelveticaNeue-Bold, Helvetica Neue" font-weight="700"><tspan x="64.25" y="20">CSA</tspan></text>
      <text id="Same_as_Operator" data-name="Same as
Operator" transform="translate(947 2004)" fill="#707070" font-size="14" font-family="HelveticaNeue, Helvetica Neue"><tspan x="45.27" y="13">Same as</tspan><tspan x="44.626" y="29">Operator</tspan></text>
      <text id="Same_as_Operator-2" data-name="Same as
Operator" transform="translate(941 2131)" fill="#707070" font-size="14" font-family="HelveticaNeue, Helvetica Neue"><tspan x="50.77" y="13">Same as</tspan><tspan x="50.126" y="29">Operator</tspan></text>
      <line id="Line_119" data-name="Line 119" y2="339.872" transform="translate(926.5 1898.468)" fill="none" stroke="#707070" stroke-width="1" opacity="0.2"/>
      <text id="Same_as_Operator-3" data-name="Same as
Operator" transform="translate(761 2004)" fill="#707070" font-size="14" font-family="HelveticaNeue, Helvetica Neue"><tspan x="45.27" y="13">Same as</tspan><tspan x="44.626" y="29">Operator</tspan></text>
      <text id="Same_as_Operator-4" data-name="Same as
Operator" transform="translate(761 2131)" fill="#707070" font-size="14" font-family="HelveticaNeue, Helvetica Neue"><tspan x="45.27" y="13">Same as</tspan><tspan x="44.626" y="29">Operator</tspan></text>
      <text id="Technician" transform="translate(783 1914)" fill="#21232a" font-size="20" font-family="HelveticaNeue-Bold, Helvetica Neue" font-weight="700"><tspan x="0.09" y="20">Technician</tspan></text>
      <line id="Line_118" data-name="Line 118" x1="1078.5" transform="translate(421 2099.5)" fill="none" stroke="#707070" stroke-width="1" opacity="0.2"/>
      <line id="Line_116" data-name="Line 116" y2="339.872" transform="translate(741.5 1898.468)" fill="none" stroke="#707070" stroke-width="1" opacity="0.2"/>
      <text id="To_generate_coupon_codes_on_behalf_of_customers" data-name="To generate coupon codes on behalf of customers" transform="translate(577 2004)" fill="#707070" font-size="14" font-family="HelveticaNeue, Helvetica Neue"><tspan x="11.137" y="13">To generate coupon </tspan><tspan x="15.288" y="29">codes on behalf of </tspan><tspan x="40.565" y="45">customers</tspan></text>
      <text id="Assisting_a_customer_who_doesn_t_have_a_smartphone_to_avail_a_company_promotion" data-name="Assisting a customer who doesn’t have a smartphone to avail a company promotion" transform="translate(573 2131)" fill="#707070" font-size="14" font-family="HelveticaNeue, Helvetica Neue"><tspan x="11.655" y="13">Assisting a customer </tspan><tspan x="15.932" y="29">who doesn’t have a </tspan><tspan x="9.576" y="45">smartphone to avail a </tspan><tspan x="13.972" y="61">company promotion</tspan></text>
      <text id="Operator" transform="translate(600 1914)" fill="#21232a" font-size="20" font-family="HelveticaNeue-Bold, Helvetica Neue" font-weight="700"><tspan x="7.22" y="20">Operator</tspan></text>
      <line id="Line_117" data-name="Line 117" y2="339.872" transform="translate(557.5 1898.468)" fill="none" stroke="#707070" stroke-width="1" opacity="0.2"/>
      <text id="Example_Use_Case" data-name="Example
Use Case" transform="translate(441 2131)" fill="#21232a" font-size="20" font-family="HelveticaNeue-Bold, Helvetica Neue" font-weight="700"><tspan x="10.42" y="20">Example</tspan><tspan x="5.94" y="45">Use Case</tspan></text>
      <text id="Main_Purpose" data-name="Main
Purpose" transform="translate(440.5 2004)" fill="#21232a" font-size="20" font-family="HelveticaNeue-Bold, Helvetica Neue" font-weight="700"><tspan x="21.18" y="20">Main</tspan><tspan x="4.68" y="45">Purpose</tspan></text>
    </g>
    <g id="discount" transform="translate(1351.195 1978.476)">
      <path id="Path_4874" data-name="Path 4874" d="M62.686,32.115v168a.925.925,0,0,0,1.469.747L78.2,190.63a2.59,2.59,0,0,1,3.049,0l13.993,10.189a2.59,2.59,0,0,0,3.049,0l13.991-10.189a2.59,2.59,0,0,1,3.05,0l13.991,10.189a2.59,2.59,0,0,0,3.05,0l13.99-10.189a2.59,2.59,0,0,1,3.05,0l13.99,10.188a2.59,2.59,0,0,0,3.05,0l13.988-10.188a2.59,2.59,0,0,1,3.05,0l14.045,10.229a.925.925,0,0,0,1.469-.747v-168Z" transform="translate(-16.108 -20.792)" fill="#bebebe"/>
      <path id="Path_4875" data-name="Path 4875" d="M69.951,32.115H62.686v168a.925.925,0,0,0,1.469.747l5.8-4.22Z" transform="translate(-16.108 -20.792)" fill="#a8a8a8"/>
      <path id="Path_4876" data-name="Path 4876" d="M160.611,118.127V105.543c0-8.773,5.761-11.964,13.294-11.964,7.444,0,13.294,3.191,13.294,11.964v12.584c0,8.774-5.849,11.964-13.294,11.964C166.372,130.091,160.611,126.9,160.611,118.127Zm17.725-12.584c0-2.924-1.684-4.254-4.431-4.254s-4.342,1.329-4.342,4.254v12.584c0,2.925,1.6,4.254,4.342,4.254s4.431-1.329,4.431-4.254Zm36.335-10.9a3.842,3.842,0,0,1-.354,1.684l-31.2,63.9a4.44,4.44,0,0,1-3.988,2.216,4.9,4.9,0,0,1-4.963-4.7,3.971,3.971,0,0,1,.443-1.684l31.107-63.9a3.906,3.906,0,0,1,3.722-2.216C211.924,89.945,214.671,91.806,214.671,94.642Zm-13.382,52.022V134.08c0-8.774,5.761-11.964,13.294-11.964,7.444,0,13.294,3.191,13.294,11.964v12.584c0,8.774-5.849,11.964-13.294,11.964C207.05,158.628,201.289,155.438,201.289,146.664Zm17.725-12.585c0-2.924-1.684-4.254-4.431-4.254s-4.342,1.33-4.342,4.254v12.584c0,2.925,1.6,4.254,4.342,4.254s4.431-1.329,4.431-4.254Z" transform="translate(-79.506 -58.232)" fill="#fff"/>
      <g id="Group_2759" data-name="Group 2759" transform="translate(65.809 114.968)">
        <path id="Path_4877" data-name="Path 4877" d="M212.362,331.521H119.954a2.724,2.724,0,0,1,0-5.449h92.407a2.724,2.724,0,0,1,0,5.449Z" transform="translate(-117.23 -326.072)" fill="#fff"/>
        <path id="Path_4878" data-name="Path 4878" d="M212.362,371.942H119.954a2.724,2.724,0,0,1,0-5.449h92.407a2.724,2.724,0,0,1,0,5.449Z" transform="translate(-117.23 -352.241)" fill="#fff"/>
        <path id="Path_4879" data-name="Path 4879" d="M212.362,412.363H119.954a2.724,2.724,0,0,1,0-5.449h92.407a2.724,2.724,0,0,1,0,5.449Z" transform="translate(-117.23 -378.41)" fill="#fff"/>
      </g>
      <path id="Path_4880" data-name="Path 4880" d="M188.12,12.413H41.355a3.55,3.55,0,0,1-3.55-3.55V3.55A3.55,3.55,0,0,1,41.355,0H188.12a3.55,3.55,0,0,1,3.55,3.55V8.863A3.55,3.55,0,0,1,188.12,12.413Z" transform="translate(0)" fill="#e4eaf8"/>
      <path id="Path_4881" data-name="Path 4881" d="M188.012,9.874H41.462A3.658,3.658,0,0,1,37.968,7.3,3.653,3.653,0,0,0,37.8,8.383v5.1a3.657,3.657,0,0,0,3.657,3.657h146.55a3.657,3.657,0,0,0,3.657-3.657v-5.1a3.651,3.651,0,0,0-.163-1.083A3.658,3.658,0,0,1,188.012,9.874Z" transform="translate(0 -4.726)" fill="#d8dce5"/>
    </g>
  </g>
</svg>
