<svg xmlns="http://www.w3.org/2000/svg" width="1039.455" height="692.48" viewBox="0 0 1039.455 692.48">
  <g id="Group_3073" data-name="Group 3073" transform="translate(-333.292 -248)">
    <text id="Consumer" transform="translate(373 333)" fill="#707070" font-size="18" font-family="HelveticaNeue-Bold, Helvetica Neue" font-weight="700"><tspan x="0" y="18">Consumer</tspan></text>
    <path id="Path_666" data-name="Path 666" d="M132.36,158.046H411.133V386.5H132.36V356.7" transform="translate(720.293 173.848) rotate(90)" fill="none" stroke="#707070" stroke-miterlimit="10" stroke-width="1"/>
    <g id="battery_1_" data-name="battery (1)" transform="translate(910.938 248)">
      <path id="Path_680" data-name="Path 680" d="M141.159,51.352h2.847l-3.895,9.737a1.128,1.128,0,0,0,1.877,1.185L155.529,47.6a1.128,1.128,0,0,0-.829-1.894h-4.423l3.047-3.808a1.128,1.128,0,0,0-.881-1.834h-7.9a1.128,1.128,0,0,0-1.057.732L140.1,49.827a1.128,1.128,0,0,0,1.057,1.525Zm4.167-9.027H150.1l-3.047,3.808a1.128,1.128,0,0,0,.881,1.834h4.193l-7.645,8.282,2.243-5.606a1.128,1.128,0,0,0-1.048-1.547h-2.885Z" transform="translate(-129.875 -34.416)" fill="#707070"/>
      <path id="Path_681" data-name="Path 681" d="M160.548,297.1a4.514,4.514,0,1,0-4.514-4.514A4.514,4.514,0,0,0,160.548,297.1Zm0-6.77a2.257,2.257,0,1,1-2.257,2.257A2.257,2.257,0,0,1,160.548,290.325Z" transform="translate(-143.622 -247.436)" fill="#707070"/>
      <path id="Path_682" data-name="Path 682" d="M115.427,42.889V39.5H113.17v3.385h-2.257V39.5h-2.257v3.385a1.128,1.128,0,0,0-1.128,1.128V47.4a4.522,4.522,0,0,0,3.385,4.371v8.042a3.389,3.389,0,0,1-3.385,3.385h-5.642V24.834a1.128,1.128,0,0,0-1.128-1.128H99.7a16.432,16.432,0,1,0-29.473,0H69.162a1.128,1.128,0,0,0-1.128,1.128V66.585a1.128,1.128,0,0,0,1.128,1.128h31.6a1.128,1.128,0,0,0,1.128-1.128V65.457h5.642a5.648,5.648,0,0,0,5.642-5.642V51.773a4.522,4.522,0,0,0,3.385-4.371V44.017A1.128,1.128,0,0,0,115.427,42.889ZM84.96,2.266A14.176,14.176,0,1,1,70.784,16.442,14.175,14.175,0,0,1,84.96,2.266Zm-9.027,63.19H70.291V25.963h1.284a16.569,16.569,0,0,0,4.358,4.2Zm11.284,0H82.7V63.2h4.514Zm0-4.514H82.7V58.686h4.514Zm0-4.514H82.7V54.173h4.514Zm4.514,9.027H89.474V53.044a1.128,1.128,0,0,0-1.128-1.128h-6.77a1.128,1.128,0,0,0-1.128,1.128V65.457H78.19V38.375H91.73Zm0-29.338H78.19v-4.7a16.424,16.424,0,0,0,13.541,0Zm7.9,29.338H93.987V30.166a16.569,16.569,0,0,0,4.358-4.2h1.284ZM114.3,47.4a2.257,2.257,0,1,1-4.514,0V45.145H114.3Z" transform="translate(-68.034 0)" fill="#707070"/>
    </g>
    <text id="Receivables_Consumer_List_Consumer_Status_Consumer_Activity_Consumer_Service_Temporary_Disconnect_Add_Consumer_Add_Instant_Consumer_Catchment_Survey" data-name="Receivables
Consumer List
Consumer Status
Consumer Activity
Consumer Service
Temporary Disconnect
Add Consumer
Add Instant Consumer
Catchment Survey" transform="translate(373 365)" fill="#707070" font-size="14" font-family="HelveticaNeue, Helvetica Neue"><tspan x="0" y="13">Receivables</tspan><tspan x="0" y="35">Consumer List</tspan><tspan x="0" y="57">Consumer Status</tspan><tspan x="0" y="79">Consumer Activity</tspan><tspan x="0" y="101">Consumer Service</tspan><tspan x="0" y="123">Temporary Disconnect</tspan><tspan x="0" y="145">Add Consumer</tspan><tspan x="0" y="167">Add Instant Consumer</tspan><tspan x="0" y="189">Catchment Survey</tspan></text>
    <text id="Package_Scheme" data-name="Package &amp; Scheme" transform="translate(643 333)" fill="#707070" font-size="18" font-family="HelveticaNeue-Bold, Helvetica Neue" font-weight="700"><tspan x="0" y="18">Package &amp; Scheme</tspan></text>
    <text id="Plant" transform="translate(913 333)" fill="#707070" font-size="18" font-family="HelveticaNeue-Bold, Helvetica Neue" font-weight="700"><tspan x="0" y="18">Plant</tspan></text>
    <text id="Maintenance_Schedule" data-name="Maintenance
Schedule" transform="translate(1183 333)" fill="#707070" font-size="18" font-family="HelveticaNeue-Bold, Helvetica Neue" font-weight="700"><tspan x="0" y="18">Maintenance</tspan><tspan x="0" y="40">Schedule</tspan></text>
    <path id="Path_5201" data-name="Path 5201" d="M132.36,158.046H411.133V386.5H132.36V356.7" transform="translate(990.293 173.848) rotate(90)" fill="none" stroke="#707070" stroke-miterlimit="10" stroke-width="1"/>
    <path id="Path_5202" data-name="Path 5202" d="M132.36,158.046H411.133V386.5H132.36V356.7" transform="translate(1260.293 173.848) rotate(90)" fill="none" stroke="#707070" stroke-miterlimit="10" stroke-width="1"/>
    <path id="Path_5203" data-name="Path 5203" d="M132.36,158.046H411.133V386.5H132.36V356.7" transform="translate(1530.293 173.848) rotate(90)" fill="none" stroke="#707070" stroke-miterlimit="10" stroke-width="1"/>
    <text id="Package_Activity_Scheme_Product_Inventory" data-name="Package Activity
Scheme
Product Inventory" transform="translate(643 365)" fill="#707070" font-size="14" font-family="HelveticaNeue, Helvetica Neue"><tspan x="0" y="13">Package Activity</tspan><tspan x="0" y="35">Scheme</tspan><tspan x="0" y="57">Product Inventory</tspan></text>
    <text id="Plant_Performance_Plant_UtilisationAdd_Generation_Data_Add_Consumption_Data_Diesel_Consumption_Bank_Deposit_Plant_Shutdown_Info_Plant_Downtime_Plant_Maintenance_Plant_Service" data-name="Plant Performance
Plant UtilisationAdd Generation Data
Add Consumption Data
Diesel Consumption 
Bank Deposit 
Plant Shutdown Info
Plant Downtime
Plant Maintenance
Plant Service" transform="translate(913 365)" fill="#707070" font-size="14" font-family="HelveticaNeue, Helvetica Neue"><tspan x="0" y="13">Plant Performance</tspan><tspan x="0" y="35">Plant UtilisationAdd </tspan><tspan x="0" y="57">Generation Data</tspan><tspan x="0" y="79">Add Consumption Data</tspan><tspan x="0" y="101">Diesel Consumption </tspan><tspan x="0" y="123">Bank Deposit </tspan><tspan x="0" y="145">Plant Shutdown Info</tspan><tspan x="0" y="167">Plant Downtime</tspan><tspan x="0" y="189">Plant Maintenance</tspan></text>
    <text id="Plant_Maintenance_Battery_Maintenance_T_D_LMC" data-name="Plant Maintenance
Battery Maintenance
T &amp; D
LMC" transform="translate(1183 380)" fill="#707070" font-size="14" font-family="HelveticaNeue, Helvetica Neue"><tspan x="0" y="13">Plant Maintenance</tspan><tspan x="0" y="35">Battery Maintenance</tspan><tspan x="0" y="57">T &amp; D</tspan><tspan x="0" y="79">LMC</tspan></text>
    <g id="personal-information" transform="translate(373 261.094)">
      <path id="Path_5191" data-name="Path 5191" d="M59.675,52.907H33.325A2.328,2.328,0,0,1,31,50.582V11.8a2.328,2.328,0,0,1,2.325-2.325H37.78a.775.775,0,1,1,0,1.55H33.325a.776.776,0,0,0-.775.775V50.582a.776.776,0,0,0,.775.775h26.35a.776.776,0,0,0,.775-.775V32.55H42.625A2.328,2.328,0,0,1,40.3,30.225V2.325A2.328,2.328,0,0,1,42.625,0h23.25A2.328,2.328,0,0,1,68.2,2.325v7.75a.775.775,0,0,1-1.55,0V2.325a.776.776,0,0,0-.775-.775H42.625a.776.776,0,0,0-.775.775v27.9a.776.776,0,0,0,.775.775h23.25a.776.776,0,0,0,.775-.775V13.175a.775.775,0,0,1,.775-.775h4.65a.775.775,0,1,1,0,1.55H68.2v3.1h3.875a.775.775,0,1,1,0,1.55H68.2v3.1h3.875a.775.775,0,1,1,0,1.55H68.2v3.1h3.875a.775.775,0,1,1,0,1.55H68.2v2.325a2.315,2.315,0,0,1-.133.775h4.008a.775.775,0,1,1,0,1.55H62v3.1H72.075a.775.775,0,1,1,0,1.55H62v4.857H75.175a.776.776,0,0,0,.775-.775V7.151a.776.776,0,0,0-.775-.775h-4.65a.775.775,0,1,1,0-1.55h4.65A2.328,2.328,0,0,1,77.5,7.151V41.282a2.328,2.328,0,0,1-2.325,2.325H62v4.65h8.525a.776.776,0,0,0,.775-.775v-1.55a.775.775,0,1,1,1.55,0v1.55a2.328,2.328,0,0,1-2.325,2.325H62v.775A2.328,2.328,0,0,1,59.675,52.907Zm4.65-23.457H44.175a.775.775,0,0,1-.775-.775V25.983c0-3.982,2.633-4.894,4.555-5.559,1.587-.549,2.488-.919,2.646-2.112a6.481,6.481,0,0,1-2.835-5.357v-3.2a6.483,6.483,0,0,1,12.966,0v3.2A6.481,6.481,0,0,1,57.9,18.311c.159,1.194,1.06,1.563,2.646,2.112C62.467,21.089,65.1,22,65.1,25.983v2.692A.775.775,0,0,1,64.325,29.45ZM44.95,27.9h18.6V25.983c0-2.879-1.628-3.442-3.512-4.094-1.392-.482-3.07-1.063-3.569-2.842a6.489,6.489,0,0,1-4.438,0c-.5,1.78-2.177,2.361-3.569,2.842-1.885.652-3.512,1.216-3.512,4.094Zm9.3-23.074a4.939,4.939,0,0,0-4.933,4.933v3.2a4.933,4.933,0,0,0,9.866,0v-3.2A4.939,4.939,0,0,0,54.25,4.826Z" transform="translate(-31)" fill="#707070" stroke="#707070" stroke-width="0.5"/>
    </g>
    <g id="customer-support" transform="translate(1182.727 266.77)">
      <path id="Path_5195" data-name="Path 5195" d="M.423,4.768l3.414,5.974a.853.853,0,0,0,.533.4l3.185.8L18.48,22.867l1.207-1.207L8.592,10.565a.851.851,0,0,0-.4-.225l-3.06-.768L2.229,4.484,4.721,1.991,9.812,4.9l.768,3.06a.851.851,0,0,0,.224.4l11.1,11.1,1.207-1.207L12.182,7.322l-.8-3.183a.855.855,0,0,0-.4-.534L5.007.191A.853.853,0,0,0,3.983.328L.569,3.742A.853.853,0,0,0,.423,4.768Zm0,0" transform="translate(-0.037 -0.072)" fill="#707070" stroke="#707070" stroke-width="1"/>
      <path id="Path_5196" data-name="Path 5196" d="M193.964,174.925,175.188,193.7l-1.207-1.207,18.776-18.776Zm0,0" transform="translate(-158.094 -158.105)" fill="#707070" stroke="#707070" stroke-width="1"/>
      <path id="Path_5197" data-name="Path 5197" d="M57.019,399.25a.853.853,0,0,0-.732-.414H51.167a.853.853,0,0,0-.731.414l-2.561,4.267a.853.853,0,0,0,0,.879l2.561,4.267a.853.853,0,0,0,.731.414h5.121a.854.854,0,0,0,.732-.414l2.56-4.267a.853.853,0,0,0,0-.879ZM55.8,407.37H51.65L49.6,403.957l2.048-3.414H55.8l2.048,3.414Zm0,0" transform="translate(-43.212 -362.989)" fill="#707070" stroke="#707070" stroke-width="1"/>
      <path id="Path_5198" data-name="Path 5198" d="M41.24,20.485A10.206,10.206,0,0,0,51.167,7.768a.853.853,0,0,0-1.431-.4L44.423,12.68l-4.215-1.4L38.8,7.061l5.313-5.314a.854.854,0,0,0-.4-1.432A10.21,10.21,0,0,0,31,10.243a10.017,10.017,0,0,0,.207,2L12.515,30.934a10.069,10.069,0,0,0-2-.207A10.242,10.242,0,1,0,20.756,40.968a10.043,10.043,0,0,0-.207-2l4.475-4.475,1.957,1.957a.854.854,0,0,0,1.207,0l.427-.427a.957.957,0,0,1,1.355,1.352l0,0-.427.427a.853.853,0,0,0,0,1.207L39.722,49.192a6.888,6.888,0,1,0,9.785-9.7l-.044-.044L39.283,29.27a.853.853,0,0,0-1.207,0l-.427.427a.957.957,0,0,1-1.356-1.352l0,0,.427-.427a.853.853,0,0,0,0-1.207l-1.957-1.957,4.475-4.475A10.042,10.042,0,0,0,41.24,20.485ZM44.593,49.5a5.186,5.186,0,0,1-1.815-.331l6.665-6.666a5.176,5.176,0,0,1-4.85,7ZM34.924,27.321a2.663,2.663,0,0,0,3.755,3.75l9.578,9.586c.1.1.2.214.3.326l-7.3,7.3c-.112-.094-.222-.191-.326-.3L31.344,38.4a2.664,2.664,0,0,0-3.755-3.75l-1.365-1.365,7.335-7.324Zm3.446-8.584L19.009,38.094a.855.855,0,0,0-.225.811A8.591,8.591,0,1,1,12.578,32.7a.861.861,0,0,0,.811-.225L32.745,13.116a.853.853,0,0,0,.224-.811A8.493,8.493,0,0,1,41.724,1.723l-4.5,4.5a.853.853,0,0,0-.206.873l1.707,5.121a.854.854,0,0,0,.54.539l5.121,1.707a.853.853,0,0,0,.873-.206l4.5-4.5c.01.163.015.324.015.485a8.491,8.491,0,0,1-10.6,8.269.854.854,0,0,0-.811.224h0Zm0,0" transform="translate(0 0)" fill="#707070" stroke="#707070" stroke-width="1"/>
      <path id="Path_5199" data-name="Path 5199" d="M392.632,391.159l-1.207,1.207-8.534-8.534,1.207-1.207Zm0,0" transform="translate(-348.228 -348.235)" fill="#707070" stroke="#707070" stroke-width="1"/>
    </g>
    <circle id="Ellipse_440" data-name="Ellipse 440" cx="2" cy="2" r="2" transform="translate(360 371)" fill="#bebebe"/>
    <circle id="Ellipse_441" data-name="Ellipse 441" cx="2" cy="2" r="2" transform="translate(360 393)" fill="#bebebe"/>
    <circle id="Ellipse_442" data-name="Ellipse 442" cx="2" cy="2" r="2" transform="translate(360 415)" fill="#bebebe"/>
    <circle id="Ellipse_443" data-name="Ellipse 443" cx="2" cy="2" r="2" transform="translate(360 437)" fill="#bebebe"/>
    <circle id="Ellipse_444" data-name="Ellipse 444" cx="2" cy="2" r="2" transform="translate(360 460)" fill="#bebebe"/>
    <circle id="Ellipse_445" data-name="Ellipse 445" cx="2" cy="2" r="2" transform="translate(360 482)" fill="#bebebe"/>
    <circle id="Ellipse_446" data-name="Ellipse 446" cx="2" cy="2" r="2" transform="translate(360 504)" fill="#bebebe"/>
    <circle id="Ellipse_447" data-name="Ellipse 447" cx="2" cy="2" r="2" transform="translate(360 526)" fill="#bebebe"/>
    <circle id="Ellipse_448" data-name="Ellipse 448" cx="2" cy="2" r="2" transform="translate(360 548)" fill="#bebebe"/>
    <circle id="Ellipse_449" data-name="Ellipse 449" cx="2" cy="2" r="2" transform="translate(630 371)" fill="#bebebe"/>
    <circle id="Ellipse_450" data-name="Ellipse 450" cx="2" cy="2" r="2" transform="translate(630 393)" fill="#bebebe"/>
    <circle id="Ellipse_451" data-name="Ellipse 451" cx="2" cy="2" r="2" transform="translate(630 415)" fill="#bebebe"/>
    <circle id="Ellipse_452" data-name="Ellipse 452" cx="2" cy="2" r="2" transform="translate(900 371)" fill="#bebebe"/>
    <circle id="Ellipse_453" data-name="Ellipse 453" cx="2" cy="2" r="2" transform="translate(900 393)" fill="#bebebe"/>
    <circle id="Ellipse_454" data-name="Ellipse 454" cx="2" cy="2" r="2" transform="translate(900 415)" fill="#bebebe"/>
    <circle id="Ellipse_455" data-name="Ellipse 455" cx="2" cy="2" r="2" transform="translate(900 437)" fill="#bebebe"/>
    <circle id="Ellipse_456" data-name="Ellipse 456" cx="2" cy="2" r="2" transform="translate(900 459)" fill="#bebebe"/>
    <circle id="Ellipse_457" data-name="Ellipse 457" cx="2" cy="2" r="2" transform="translate(900 480)" fill="#bebebe"/>
    <circle id="Ellipse_458" data-name="Ellipse 458" cx="2" cy="2" r="2" transform="translate(900 502)" fill="#bebebe"/>
    <circle id="Ellipse_459" data-name="Ellipse 459" cx="2" cy="2" r="2" transform="translate(900 524)" fill="#bebebe"/>
    <circle id="Ellipse_460" data-name="Ellipse 460" cx="2" cy="2" r="2" transform="translate(900 546)" fill="#bebebe"/>
    <g id="Group_2875" data-name="Group 2875" transform="translate(142 -1685)">
      <g id="Group_2746" data-name="Group 2746" transform="translate(-1028.332 -1023.799)">
        <path id="Path_4801" data-name="Path 4801" d="M13.023,35.8a.593.593,0,0,1-.462-.222l-2.19-2.738h-8.6A1.776,1.776,0,0,1,0,31.066V22.774A1.776,1.776,0,0,1,1.774,21H14.8a1.776,1.776,0,0,1,1.774,1.774v8.292A1.776,1.776,0,0,1,14.8,32.839H13.615v2.368a.593.593,0,0,1-.592.592ZM1.774,22.184a.59.59,0,0,0-.59.59v8.292a.59.59,0,0,0,.59.59h8.882a.592.592,0,0,1,.462.222l1.314,1.642V32.247a.592.592,0,0,1,.592-.592H14.8a.59.59,0,0,0,.59-.59V22.774a.59.59,0,0,0-.59-.59Z" transform="translate(1529 2962)" fill="#707070" stroke="#fff" stroke-width="0.1"/>
        <path id="Path_4802" data-name="Path 4802" d="M11.7,27.184h-7.1a.592.592,0,0,1,0-1.184h7.1a.592.592,0,1,1,0,1.184Z" transform="translate(1527.368 2959.96)" fill="#707070" stroke="#fff" stroke-width="0.1"/>
        <path id="Path_4803" data-name="Path 4803" d="M21.776,27.184H20.592a.592.592,0,0,1,0-1.184h1.184a.592.592,0,0,1,0,1.184Z" transform="translate(1520.839 2959.96)" fill="#707070" stroke="#fff" stroke-width="0.1"/>
        <path id="Path_4804" data-name="Path 4804" d="M11.7,35.184h-7.1a.592.592,0,1,1,0-1.184h7.1a.592.592,0,1,1,0,1.184Z" transform="translate(1527.368 2956.696)" fill="#707070" stroke="#fff" stroke-width="0.1"/>
        <path id="Path_4805" data-name="Path 4805" d="M21.776,35.184H20.592a.592.592,0,1,1,0-1.184h1.184a.592.592,0,1,1,0,1.184Z" transform="translate(1520.839 2956.696)" fill="#707070" stroke="#fff" stroke-width="0.1"/>
        <path id="Path_4806" data-name="Path 4806" d="M17.7,31.184h-7.1a.592.592,0,0,1,0-1.184h7.1a.592.592,0,0,1,0,1.184Z" transform="translate(1524.92 2958.328)" fill="#707070" stroke="#fff" stroke-width="0.1"/>
        <path id="Path_4807" data-name="Path 4807" d="M5.776,31.184H4.592a.592.592,0,0,1,0-1.184H5.776a.592.592,0,0,1,0,1.184Z" transform="translate(1527.368 2958.328)" fill="#707070" stroke="#fff" stroke-width="0.1"/>
      </g>
      <g id="box_2_" data-name="box (2)" transform="translate(489.84 1973.512)">
        <g id="Group_2749" data-name="Group 2749" transform="translate(16.032 -0.001)">
          <g id="Group_2748" data-name="Group 2748" transform="translate(0 0)">
            <path id="Path_4808" data-name="Path 4808" d="M49.119,7.857,32.95.051a.522.522,0,0,0-.454,0L16.327,7.857a.522.522,0,0,0-.295.47V27.284a.522.522,0,0,0,.295.47L32.5,35.559a.522.522,0,0,0,.454,0l16.169-7.806a.522.522,0,0,0,.295-.47V8.327A.522.522,0,0,0,49.119,7.857ZM32.723,1.1,47.692,8.327l-4.339,2.095a.518.518,0,0,0-.088-.056L28.4,3.189Zm-5.5,2.678,14.947,7.216L39.1,12.473,24.164,5.26Zm15.3,8.206v5.463l-2.86,1.381V13.365ZM48.37,26.957l-15.126,7.3V16.46l3.608-1.742a.522.522,0,0,0-.454-.94l-3.676,1.775-1.446-.7a.522.522,0,1,0-.454.94l1.378.665v17.8l-15.126-7.3V9.158l11.518,5.561a.522.522,0,0,0,.454-.94L17.754,8.327l5.182-2.5,15.67,7.565.007.009v6.26a.522.522,0,0,0,.748.47l3.9-1.884a.522.522,0,0,0,.295-.47V11.481L48.37,9.158Z" transform="translate(-16.032 0.001)" fill="#707070" stroke="#707070" stroke-width="0.5"/>
          </g>
        </g>
        <g id="Group_2751" data-name="Group 2751" transform="translate(18.259 23.736)">
          <g id="Group_2750" data-name="Group 2750" transform="translate(0)">
            <path id="Path_4809" data-name="Path 4809" d="M51.17,342.459,48.8,341.313a.522.522,0,1,0-.454.94l2.373,1.146a.522.522,0,0,0,.454-.94Z" transform="translate(-48.048 -341.261)" fill="#707070" stroke="#707070" stroke-width="0.5"/>
          </g>
        </g>
        <g id="Group_2753" data-name="Group 2753" transform="translate(18.262 21.262)">
          <g id="Group_2752" data-name="Group 2752">
            <path id="Path_4810" data-name="Path 4810" d="M53.4,307.941l-4.553-2.2a.522.522,0,0,0-.454.94l4.553,2.2a.522.522,0,0,0,.454-.94Z" transform="translate(-48.096 -305.69)" fill="#707070" stroke="#707070" stroke-width="0.5"/>
          </g>
        </g>
      </g>
    </g>
    <g id="Group_3072" data-name="Group 3072">
      <path id="Path_5204" data-name="Path 5204" d="M132.36,158.046H411.133V386.5H132.36V356.7" transform="translate(1395.293 528.848) rotate(90)" fill="none" stroke="#707070" stroke-miterlimit="10" stroke-width="1"/>
      <text id="Meter" transform="translate(508 688)" fill="#707070" font-size="18" font-family="HelveticaNeue-Bold, Helvetica Neue" font-weight="700"><tspan x="0" y="18">Meter</tspan></text>
      <path id="Path_5207" data-name="Path 5207" d="M132.36,158.046H411.133V386.5H132.36V356.7" transform="translate(855.293 528.848) rotate(90)" fill="none" stroke="#707070" stroke-miterlimit="10" stroke-width="1"/>
      <text id="Change_Meter_Unreleased_Meter_Spark_Meter_Status_Spark_Feeder_Status_Meter_Reading_Meter_Reading_Review_TERMS_Status" data-name="Change Meter
Unreleased Meter
Spark Meter Status
Spark Feeder Status
Meter Reading
Meter Reading Review
TERMS Status" transform="translate(508 720)" fill="#707070" font-size="14" font-family="HelveticaNeue, Helvetica Neue"><tspan x="0" y="13">Change Meter</tspan><tspan x="0" y="35">Unreleased Meter</tspan><tspan x="0" y="57">Spark Meter Status</tspan><tspan x="0" y="79">Spark Feeder Status</tspan><tspan x="0" y="101">Meter Reading</tspan><tspan x="0" y="123">Meter Reading Review</tspan><tspan x="0" y="145">TERMS Status</tspan></text>
      <text id="Water" transform="translate(778 688)" fill="#707070" font-size="18" font-family="HelveticaNeue-Bold, Helvetica Neue" font-weight="700"><tspan x="0" y="18">Water</tspan></text>
      <text id="Miscellaneous_" data-name="Miscellaneous " transform="translate(1048 688)" fill="#707070" font-size="18" font-family="HelveticaNeue-Bold, Helvetica Neue" font-weight="700"><tspan x="0" y="18">Miscellaneous </tspan></text>
      <path id="Path_5206" data-name="Path 5206" d="M132.36,158.046H411.133V386.5H132.36V356.7" transform="translate(1125.293 528.848) rotate(90)" fill="none" stroke="#707070" stroke-miterlimit="10" stroke-width="1"/>
      <text id="Water_Camper_Sell" data-name="Water Camper Sell" transform="translate(778 720)" fill="#707070" font-size="14" font-family="HelveticaNeue, Helvetica Neue"><tspan x="0" y="13">Water Camper Sell</tspan></text>
      <text id="Gallery_Add_Images_Contacts_Notifications_Plant_Shutdown_Message_SUG" data-name="Gallery
Add Images
Contacts
Notifications
Plant Shutdown Message
SUG" transform="translate(1048 720)" fill="#707070" font-size="14" font-family="HelveticaNeue, Helvetica Neue"><tspan x="0" y="13">Gallery</tspan><tspan x="0" y="35">Add Images</tspan><tspan x="0" y="57">Contacts</tspan><tspan x="0" y="79">Notifications</tspan><tspan x="0" y="101">Plant Shutdown </tspan><tspan x="0" y="123">Message</tspan><tspan x="0" y="145">SUG</tspan></text>
      <g id="meter-2" data-name="meter" transform="translate(507.999 624.807)">
        <path id="Path_893" data-name="Path 893" d="M46.258,7.936A27.1,27.1,0,0,0,7.937,46.257,27.1,27.1,0,0,0,46.258,7.936Zm-1.5,36.824A24.972,24.972,0,0,1,3.421,35.046H22.343a1.058,1.058,0,0,0,0-2.117H2.815a24.974,24.974,0,1,1,48.564,0H31.849a1.058,1.058,0,1,0,0,2.117H50.775A24.827,24.827,0,0,1,44.761,44.76Z" transform="translate(0 0)" fill="#707070"/>
        <path id="Path_894" data-name="Path 894" d="M73.936,55.477a1.058,1.058,0,1,0,2.117,0V50.724A19.189,19.189,0,0,1,81.4,51.786l-.7,1.693a1.058,1.058,0,1,0,1.956.809l.7-1.691a19.377,19.377,0,0,1,4.392,2.916L84.393,58.86a1.058,1.058,0,0,0,1.5,1.5L89.253,57A19.389,19.389,0,0,1,92.4,61.649l-1.691.7A1.058,1.058,0,1,0,91.52,64.3l1.693-.7a19.185,19.185,0,0,1,1.063,5.343H89.522a1.058,1.058,0,1,0,0,2.117h5.842a.752.752,0,0,0,.079,0,1.058,1.058,0,0,0,.98-1.055,21.427,21.427,0,1,0-42.853,0,1.058,1.058,0,0,0,1.058,1.058h5.842a1.058,1.058,0,0,0,0-2.117H55.715A19.185,19.185,0,0,1,56.778,63.6l1.693.7a1.059,1.059,0,0,0,.809-1.956l-1.692-.7A19.383,19.383,0,0,1,60.737,57L64.1,60.357a1.058,1.058,0,0,0,1.5-1.5l-3.347-3.347A19.373,19.373,0,0,1,66.638,52.6l.7,1.692a1.058,1.058,0,1,0,1.955-.811l-.7-1.692a19.182,19.182,0,0,1,5.342-1.063v4.754Z" transform="translate(-47.898 -43.435)" fill="#707070"/>
        <path id="Path_895" data-name="Path 895" d="M224.48,168.918l-.009-.021-2.712-6.346a1.058,1.058,0,0,0-.973-.643h0a1.059,1.059,0,0,0-.973.643L217.1,168.9l-.011.027a4.879,4.879,0,0,0-.473,1.913,4.168,4.168,0,1,0,8.337,0A4.9,4.9,0,0,0,224.48,168.918Zm-3.694,3.972a2.054,2.054,0,0,1-2.05-2.053,3.071,3.071,0,0,1,.318-1.119l1.732-4.057,1.734,4.057a3.07,3.07,0,0,1,.318,1.119A2.055,2.055,0,0,1,220.786,172.89Z" transform="translate(-193.69 -144.771)" fill="#707070"/>
        <path id="Path_896" data-name="Path 896" d="M233.89,355.125h-1.835l1.442-2.9a1.059,1.059,0,1,0-1.9-.943l-2.2,4.429a1.07,1.07,0,0,0,.951,1.53h1.832l-1.442,2.9a1.059,1.059,0,1,0,1.9.943l2.2-4.429a1.063,1.063,0,0,0-.948-1.53Z" transform="translate(-205.021 -313.576)" fill="#707070"/>
        <path id="Path_897" data-name="Path 897" d="M154.649,385.451h-3.757a1.058,1.058,0,1,0,0,2.117h3.757a1.058,1.058,0,0,0,0-2.117Z" transform="translate(-133.974 -344.652)" fill="#707070"/>
        <path id="Path_898" data-name="Path 898" d="M311.463,385.451h-3.757a1.058,1.058,0,1,0,0,2.117h3.757a1.058,1.058,0,1,0,0-2.117Z" transform="translate(-274.189 -344.652)" fill="#707070"/>
        <path id="Path_899" data-name="Path 899" d="M247.05,313.215a1.061,1.061,0,1,0-.006,0Z" transform="translate(-219.948 -278.169)" fill="#707070"/>
      </g>
      <circle id="Ellipse_215" data-name="Ellipse 215" cx="2" cy="2" r="2" transform="translate(1034 727)" fill="#bebebe"/>
      <circle id="Ellipse_216" data-name="Ellipse 216" cx="2" cy="2" r="2" transform="translate(1034 748)" fill="#bebebe"/>
      <circle id="Ellipse_217" data-name="Ellipse 217" cx="2" cy="2" r="2" transform="translate(1034 769)" fill="#bebebe"/>
      <circle id="Ellipse_219" data-name="Ellipse 219" cx="2" cy="2" r="2" transform="translate(1034 790)" fill="#bebebe"/>
      <circle id="Ellipse_430" data-name="Ellipse 430" cx="2" cy="2" r="2" transform="translate(1034 811)" fill="#bebebe"/>
      <circle id="Ellipse_431" data-name="Ellipse 431" cx="2" cy="2" r="2" transform="translate(1034 857)" fill="#bebebe"/>
      <circle id="Ellipse_432" data-name="Ellipse 432" cx="2" cy="2" r="2" transform="translate(764 727)" fill="#bebebe"/>
      <circle id="Ellipse_433" data-name="Ellipse 433" cx="2" cy="2" r="2" transform="translate(494 727)" fill="#bebebe"/>
      <circle id="Ellipse_434" data-name="Ellipse 434" cx="2" cy="2" r="2" transform="translate(494 749)" fill="#bebebe"/>
      <circle id="Ellipse_435" data-name="Ellipse 435" cx="2" cy="2" r="2" transform="translate(494 771)" fill="#bebebe"/>
      <circle id="Ellipse_436" data-name="Ellipse 436" cx="2" cy="2" r="2" transform="translate(494 793)" fill="#bebebe"/>
      <circle id="Ellipse_437" data-name="Ellipse 437" cx="2" cy="2" r="2" transform="translate(494 814)" fill="#bebebe"/>
      <circle id="Ellipse_438" data-name="Ellipse 438" cx="2" cy="2" r="2" transform="translate(494 858)" fill="#bebebe"/>
      <circle id="Ellipse_439" data-name="Ellipse 439" cx="2" cy="2" r="2" transform="translate(494 836)" fill="#bebebe"/>
      <g id="list" transform="translate(1010.954 631)">
        <g id="Group_2877" data-name="Group 2877" transform="translate(36.55 13.924)">
          <g id="Group_2876" data-name="Group 2876" transform="translate(0)">
            <path id="Path_5208" data-name="Path 5208" d="M41.621,156.5a5.071,5.071,0,1,0,5.071,5.071A5.069,5.069,0,0,0,41.621,156.5Zm0,8.363a3.292,3.292,0,1,1,3.292-3.292A3.29,3.29,0,0,1,41.621,164.863Z" transform="translate(-36.55 -156.5)" fill="#707070"/>
          </g>
        </g>
        <g id="Group_2879" data-name="Group 2879" transform="translate(48.161 15.348)">
          <g id="Group_2878" data-name="Group 2878" transform="translate(0)">
            <path id="Path_5209" data-name="Path 5209" d="M186.046,172.5H167.94a.89.89,0,0,0,0,1.779h18.106a.89.89,0,0,0,0-1.779Z" transform="translate(-167.05 -172.5)" fill="#707070"/>
          </g>
        </g>
        <g id="Group_2881" data-name="Group 2881" transform="translate(48.161 20.864)">
          <g id="Group_2880" data-name="Group 2880" transform="translate(0)">
            <path id="Path_5210" data-name="Path 5210" d="M177.691,234.5H167.94a.89.89,0,1,0,0,1.779h9.751a.89.89,0,1,0,0-1.779Z" transform="translate(-167.05 -234.5)" fill="#707070"/>
          </g>
        </g>
        <g id="Group_2883" data-name="Group 2883" transform="translate(36.55)">
          <g id="Group_2882" data-name="Group 2882" transform="translate(0)">
            <path id="Path_5211" data-name="Path 5211" d="M41.621,0a5.071,5.071,0,1,0,5.071,5.071A5.069,5.069,0,0,0,41.621,0Zm0,8.354a3.292,3.292,0,1,1,3.292-3.292A3.29,3.29,0,0,1,41.621,8.354Z" transform="translate(-36.55)" fill="#707070"/>
          </g>
        </g>
        <g id="Group_2885" data-name="Group 2885" transform="translate(48.161 1.379)">
          <g id="Group_2884" data-name="Group 2884" transform="translate(0)">
            <path id="Path_5212" data-name="Path 5212" d="M186.046,15.5H167.94a.89.89,0,1,0,0,1.779h18.106a.89.89,0,1,0,0-1.779Z" transform="translate(-167.05 -15.5)" fill="#707070"/>
          </g>
        </g>
        <g id="Group_2887" data-name="Group 2887" transform="translate(48.161 6.984)">
          <g id="Group_2886" data-name="Group 2886" transform="translate(0)">
            <path id="Path_5213" data-name="Path 5213" d="M177.691,78.5H167.94a.89.89,0,1,0,0,1.779h9.751a.89.89,0,1,0,0-1.779Z" transform="translate(-167.05 -78.5)" fill="#707070"/>
          </g>
        </g>
        <g id="Group_2889" data-name="Group 2889" transform="translate(36.55 27.857)">
          <g id="Group_2888" data-name="Group 2888" transform="translate(0)">
            <path id="Path_5214" data-name="Path 5214" d="M41.621,313.1a5.071,5.071,0,1,0,5.071,5.071A5.069,5.069,0,0,0,41.621,313.1Zm0,8.354a3.292,3.292,0,1,1,3.292-3.292A3.29,3.29,0,0,1,41.621,321.454Z" transform="translate(-36.55 -313.1)" fill="#707070"/>
          </g>
        </g>
        <g id="Group_2891" data-name="Group 2891" transform="translate(48.161 29.227)">
          <g id="Group_2890" data-name="Group 2890" transform="translate(0)">
            <path id="Path_5215" data-name="Path 5215" d="M186.046,328.5H167.94a.89.89,0,1,0,0,1.779h18.106a.89.89,0,1,0,0-1.779Z" transform="translate(-167.05 -328.5)" fill="#707070"/>
          </g>
        </g>
        <g id="Group_2893" data-name="Group 2893" transform="translate(48.161 34.833)">
          <g id="Group_2892" data-name="Group 2892" transform="translate(0)">
            <path id="Path_5216" data-name="Path 5216" d="M177.691,391.5H167.94a.89.89,0,1,0,0,1.779h9.751a.89.89,0,1,0,0-1.779Z" transform="translate(-167.05 -391.5)" fill="#707070"/>
          </g>
        </g>
      </g>
      <g id="water-dispenser" transform="translate(777.998 630.584)">
        <path id="Path_5217" data-name="Path 5217" d="M.038,32.252l.308,1.614a2.017,2.017,0,0,0,1.218,1.483A59.214,59.214,0,0,0,3.077,41.9a52.2,52.2,0,0,0,1.957,5.093,2.421,2.421,0,0,0,2.214,1.427H27.756a2.421,2.421,0,0,0,2.214-1.427A52.229,52.229,0,0,0,31.926,41.9a59.309,59.309,0,0,0,1.513-6.548,2.016,2.016,0,0,0,1.218-1.483l.308-1.614a2.011,2.011,0,0,0-.761-1.982,40.116,40.116,0,0,0-.395-11.891,2.009,2.009,0,0,0,1.155-2.215l-.308-1.614a2.02,2.02,0,0,0-1.982-1.639h-.034c-.071-.292-.143-.6-.218-.915a38.329,38.329,0,0,0-1.045-3.852c-.427-1.18-.9-2.354-1.408-3.49a2.415,2.415,0,0,0-2.059-1.415A4.04,4.04,0,0,0,23.957,0H11.046A4.041,4.041,0,0,0,7.092,3.239,2.415,2.415,0,0,0,5.034,4.653C4.526,5.79,4.053,6.964,3.626,8.144A38.231,38.231,0,0,0,2.581,12c-.075.319-.148.623-.219.915H2.328A2.019,2.019,0,0,0,.346,14.55L.038,16.164a2.009,2.009,0,0,0,1.155,2.215A40.116,40.116,0,0,0,.8,30.27a2.009,2.009,0,0,0-.76,1.982ZM2.8,18.559H32.205a38.663,38.663,0,0,1,.42,11.3H2.378A38.676,38.676,0,0,1,2.8,18.559ZM2.327,33.891a.4.4,0,0,1-.4-.328l-.308-1.614a.4.4,0,0,1,.4-.479H32.984a.4.4,0,0,1,.4.479l-.308,1.614a.4.4,0,0,1-.4.328ZM28.5,46.331a.805.805,0,0,1-.74.471H7.247a.805.805,0,0,1-.74-.471,50.51,50.51,0,0,1-1.9-4.935A53.468,53.468,0,0,1,3.238,35.5H31.766A53.566,53.566,0,0,1,30.391,41.4a50.627,50.627,0,0,1-1.9,4.934ZM11.046,1.614H23.957A2.425,2.425,0,0,1,26.24,3.228H8.763A2.426,2.426,0,0,1,11.046,1.614Zm-6.9,10.752a37.455,37.455,0,0,1,.992-3.674c.414-1.143.872-2.281,1.364-3.381a.807.807,0,0,1,.74-.47h20.51a.805.805,0,0,1,.739.471c.492,1.1.95,2.238,1.364,3.381a37.568,37.568,0,0,1,.993,3.674c.043.185.087.367.129.544H4.023C4.064,12.733,4.108,12.552,4.151,12.366Zm-2.22,2.486a.4.4,0,0,1,.4-.328H32.676a.4.4,0,0,1,.4.328l.308,1.614a.4.4,0,0,1-.4.479H2.019a.4.4,0,0,1-.4-.479Zm0,0" transform="translate(0)" fill="#707070"/>
        <path id="Path_5218" data-name="Path 5218" d="M127.291,392.535h-.807a2.417,2.417,0,0,0-2.272,1.614H122.3a2.417,2.417,0,0,0-2.272-1.614h-.807a2.421,2.421,0,0,0,0,4.841h1.614v.807a2.421,2.421,0,0,0,4.842,0v-.807h1.614a2.421,2.421,0,0,0,0-4.841Zm-8.07,3.228a.807.807,0,0,1,0-1.614h.807a.807.807,0,0,1,.807.807v.807Zm4.842,2.421a.807.807,0,1,1-1.614,0v-2.421h1.614Zm3.228-2.421h-1.614v-.807a.807.807,0,0,1,.807-.807h.807a.807.807,0,0,1,0,1.614Zm0,0" transform="translate(-105.754 -355.416)" fill="#707070"/>
        <path id="Path_5219" data-name="Path 5219" d="M84.282,68.266h-.807a.807.807,0,0,0,0,1.614h.807a.807.807,0,0,0,0-1.614Zm0,0" transform="translate(-74.849 -61.81)" fill="#707070"/>
        <path id="Path_5220" data-name="Path 5220" d="M133.4,68.266h-7.262a.807.807,0,1,0,0,1.614H133.4a.807.807,0,0,0,0-1.614Zm0,0" transform="translate(-113.479 -61.81)" fill="#707070"/>
      </g>
    </g>
  </g>
</svg>
