<svg xmlns="http://www.w3.org/2000/svg" width="582" height="301.872" viewBox="0 0 582 301.872">
  <g id="Group_3074" data-name="Group 3074" transform="translate(-719 -5531)">
    <g id="Group_3066" data-name="Group 3066">
      <text id="Package_Activity" data-name="Package Activity" transform="translate(727 5531)" fill="#21232a" font-size="20" font-family="HelveticaNeue-Bold, Helvetica Neue" font-weight="700"><tspan x="30.52" y="20">Package </tspan><tspan x="36.82" y="45">Activity</tspan></text>
      <text id="Scheme" transform="translate(945.92 5531)" fill="#21232a" font-size="20" font-family="HelveticaNeue-Bold, Helvetica Neue" font-weight="700"><tspan x="25.3" y="20">Scheme</tspan></text>
      <text id="Product_Inventory" data-name="Product
Inventory" transform="translate(1154.17 5531)" fill="#21232a" font-size="20" font-family="HelveticaNeue-Bold, Helvetica Neue" font-weight="700"><tspan x="29.71" y="20">Product</tspan><tspan x="23.04" y="45">Inventory</tspan></text>
      <text id="Get_an_overview_of_the_package_status" data-name="Get an overview of the package status" transform="translate(755.92 5692)" fill="#707070" font-size="14" font-family="HelveticaNeue, Helvetica Neue"><tspan x="0" y="13">Get an overview </tspan><tspan x="0" y="28">of the package </tspan><tspan x="0" y="43">status</tspan></text>
      <text id="Get_an_overview_of_the_schemes_being_used" data-name="Get an overview of the schemes being used" transform="translate(966.92 5692)" fill="#707070" font-size="14" font-family="HelveticaNeue, Helvetica Neue"><tspan x="0" y="13">Get an overview </tspan><tspan x="0" y="28">of the schemes </tspan><tspan x="0" y="43">being used</tspan></text>
      <text id="Add_a_package_activity_request" data-name="Add a package
activity request" transform="translate(755.92 5747)" fill="#707070" font-size="14" font-family="HelveticaNeue, Helvetica Neue"><tspan x="0" y="13">Add a package</tspan><tspan x="0" y="28">activity request</tspan></text>
      <text id="Add_a_scheme" data-name="Add a scheme" transform="translate(966.92 5747)" fill="#707070" font-size="14" font-family="HelveticaNeue, Helvetica Neue"><tspan x="0" y="13">Add a scheme</tspan></text>
      <g id="Group_1932" data-name="Group 1932" transform="translate(50 230)">
        <path id="Path_2879" data-name="Path 2879" d="M-701.719-745.744c17.865,0,18.954,14.805,18.954,24.271q.112,95.463.011,190.926c-.013,13.419-10.5,23.777-24.436,23.836q-55.478.231-110.957-.007c-13.857-.062-24.276-10.637-24.52-24.474-.2-11.159-.093-22.324-.015-33.486.014-1.979-.687-4.968,2.647-4.851,2.9.1,2.27,2.858,2.283,4.708.077,10.662-.017,21.325.065,31.988.1,13.095,8.179,21.119,21.335,21.134q53.979.062,107.958,0c12.494-.013,20.711-8.135,20.721-20.641q.074-93.714.006-187.428c0-17.823-4.585-20.864-20.107-20.864-36.485,0-72.971-.2-109.456-.012-11.979.062-20.308,8.769-20.433,20.752-.148,14.16-.091,28.322-.011,42.483a16.444,16.444,0,0,1-2.478,8.958c-17.325,28.651-34.522,57.381-51.868,86.02a18.019,18.019,0,0,0-2.689,9.9c.1,12.994.074,25.99.027,38.984-.061,16.716-10.082,26.86-26.714,26.887-35.319.057-70.64-.093-105.959.083-11.875.059-27.354,0-27.354-15.336v-47.84c3.849-.731,5.01,1.147,4.978,4.721-.1,10.823-.009,21.648-.009,32.472,0,19.2,3.443,20.861,21,20.861q53.7,0,107.409,0c13.719-.013,21.57-7.965,21.623-21.837.049-12.989.164-25.98-.065-38.965a23.463,23.463,0,0,1,3.62-13.16c16.862-27.746,33.519-55.617,50.364-83.373a20.423,20.423,0,0,0,3.112-11.3c-.148-12.654.01-25.311-.068-37.967-.077-12.474,5.06-21.452,16.98-26.086a11.315,11.315,0,0,0,2.049-1.359Z" transform="translate(1933.708 6109.438)" fill="#6c7474"/>
        <path id="Path_2880" data-name="Path 2880" d="M-701.719-745.744c17.865,0,18.954,14.805,18.954,24.271q.112,95.463.011,190.926c-.013,13.419-10.5,23.777-24.436,23.836q-55.478.231-110.957-.007c-13.857-.062-24.276-10.637-24.52-24.474-.2-11.159-.093-22.324-.015-33.486.014-1.979-.687-4.968,2.647-4.851,2.9.1,2.27,2.858,2.283,4.708.077,10.662-.017,21.325.065,31.988.1,13.095,8.179,21.119,21.335,21.134q53.979.062,107.958,0c12.494-.013,20.711-8.135,20.721-20.641q.074-93.714.006-187.428c0-17.823-4.585-20.864-20.107-20.864-36.485,0-72.971-.2-109.456-.012-11.979.062-20.308,8.769-20.433,20.752-.148,14.16-.091,28.322-.011,42.483a16.444,16.444,0,0,1-2.478,8.958c-17.325,28.651-34.522,57.381-51.868,86.02a18.019,18.019,0,0,0-2.689,9.9c.1,12.994.074,25.99.027,38.984-.061,16.716-10.082,26.86-26.714,26.887-35.319.057-70.64-.093-105.959.083-11.875.059-27.354,0-27.354-15.336v-47.84c3.849-.731,5.01,1.147,4.978,4.721-.1,10.823-.009,21.648-.009,32.472,0,19.2,3.443,20.861,21,20.861q53.7,0,107.409,0c13.719-.013,21.57-7.965,21.623-21.837.049-12.989.164-25.98-.065-38.965a23.463,23.463,0,0,1,3.62-13.16c16.862-27.746,33.519-55.617,50.364-83.373a20.423,20.423,0,0,0,3.112-11.3c-.148-12.654.01-25.311-.068-37.967-.077-12.474,5.06-21.452,16.98-26.086a11.315,11.315,0,0,0,2.049-1.359Z" transform="translate(-13.708 4857.128) rotate(180)" fill="#6c7474"/>
        <g id="Group_501" data-name="Group 501" transform="translate(667.092 5365.29)">
          <path id="Path_2100" data-name="Path 2100" d="M223.564,175.84a9.13,9.13,0,1,0-9.129,9.13A9.13,9.13,0,0,0,223.564,175.84Z" fill="#707070"/>
        </g>
        <g id="Group_500" data-name="Group 500" transform="translate(668.092 5365.29)">
          <path id="Path_2099" data-name="Path 2099" d="M417.311,175.84a9.13,9.13,0,1,1,9.129,9.13A9.131,9.131,0,0,1,417.311,175.84Z" fill="#707070"/>
        </g>
        <g id="Group_862" data-name="Group 862" transform="translate(612.092 5250.29)">
          <path id="Path_2099-2" data-name="Path 2099" d="M417.311,175.84a9.13,9.13,0,1,1,9.129,9.13A9.131,9.131,0,0,1,417.311,175.84Z" fill="#707070"/>
        </g>
        <g id="Group_863" data-name="Group 863" transform="translate(400.092 5250.29)">
          <path id="Path_2099-3" data-name="Path 2099" d="M417.311,175.84a9.13,9.13,0,1,1,9.129,9.13A9.131,9.131,0,0,1,417.311,175.84Z" fill="#707070"/>
        </g>
      </g>
      <text id="Get_an_overview_of_leased_products" data-name="Get an overview of leased
products" transform="translate(1181 5692)" fill="#707070" font-size="14" font-family="HelveticaNeue, Helvetica Neue"><tspan x="0" y="13">Get an overview </tspan><tspan x="0" y="28">of leased</tspan><tspan x="0" y="43">products</tspan></text>
      <text id="Check_availability_of_a_Product" data-name="Check availability of a
Product" transform="translate(1181 5747)" fill="#707070" font-size="14" font-family="HelveticaNeue, Helvetica Neue"><tspan x="0" y="13">Check </tspan><tspan x="0" y="28">availability of a</tspan><tspan x="0" y="43">Product</tspan></text>
      <g id="inventory_1_" data-name="inventory (1)" transform="translate(1198 5619)">
        <path id="Path_5414" data-name="Path 5414" d="M37.727,49.552h5.432V55.76a.776.776,0,0,0,.776.776h6.208a.776.776,0,0,0,.776-.776V49.552h5.432v7.76H57.9V48.776A.776.776,0,0,0,57.127,48H16.776a.776.776,0,0,0-.776.776V89.127a.776.776,0,0,0,.776.776H40.831V88.351h-3.1V69.727h3.1V68.175h-3.1Zm11.64,5.432H44.711V49.552h4.656ZM24.536,49.552h4.656v5.432H24.536Zm-1.552,0V55.76a.776.776,0,0,0,.776.776h6.208a.776.776,0,0,0,.776-.776V49.552h5.432V68.175H17.552V49.552Zm1.552,20.175h4.656v5.432H24.536Zm11.64,18.623H17.552V69.727h5.432v6.208a.776.776,0,0,0,.776.776h6.208a.776.776,0,0,0,.776-.776V69.727h5.432Z" transform="translate(-16 -44.896)" fill="#707070"/>
        <path id="Path_5415" data-name="Path 5415" d="M192,224h1.552v1.552H192Z" transform="translate(-174.928 -203.825)" fill="#707070"/>
        <path id="Path_5416" data-name="Path 5416" d="M160,224h1.552v1.552H160Z" transform="translate(-146.032 -203.825)" fill="#707070"/>
        <path id="Path_5417" data-name="Path 5417" d="M192,432h1.552v1.552H192Z" transform="translate(-174.928 -391.649)" fill="#707070"/>
        <path id="Path_5418" data-name="Path 5418" d="M160,432h1.552v1.552H160Z" transform="translate(-146.032 -391.649)" fill="#707070"/>
        <path id="Path_5419" data-name="Path 5419" d="M88,16h23.279v1.552H88Z" transform="translate(-81.016 -16)" fill="#707070"/>
        <path id="Path_5420" data-name="Path 5420" d="M344,16h1.552v1.552H344Z" transform="translate(-312.185 -16)" fill="#707070"/>
        <path id="Path_5421" data-name="Path 5421" d="M305.072,160H291.1a3.107,3.107,0,0,0-3.1,3.1v26.383a3.107,3.107,0,0,0,3.1,3.1h13.968a3.107,3.107,0,0,0,3.1-3.1V163.1A3.107,3.107,0,0,0,305.072,160Zm1.552,29.487a1.554,1.554,0,0,1-1.552,1.552H291.1a1.554,1.554,0,0,1-1.552-1.552V163.1a1.554,1.554,0,0,1,1.552-1.552h13.968a1.554,1.554,0,0,1,1.552,1.552Z" transform="translate(-261.617 -146.032)" fill="#707070"/>
        <path id="Path_5422" data-name="Path 5422" d="M368,192h1.552v1.552H368Z" transform="translate(-333.857 -174.929)" fill="#707070"/>
        <path id="Path_5423" data-name="Path 5423" d="M400,192h1.552v1.552H400Z" transform="translate(-362.753 -174.929)" fill="#707070"/>
        <path id="Path_5424" data-name="Path 5424" d="M384,448h1.552v1.552H384Z" transform="translate(-348.305 -406.097)" fill="#707070"/>
        <path id="Path_5425" data-name="Path 5425" d="M368.718,248l-1.4-1.4-1.1,1.1,1.952,1.952a.776.776,0,0,0,1.1,0l6.208-6.208-1.1-1.1Z" transform="translate(-332.247 -220.388)" fill="#707070"/>
        <path id="Path_5426" data-name="Path 5426" d="M341.443,250.863a5.438,5.438,0,0,0,5.432-5.432h-1.552a3.878,3.878,0,1,1-1.94-3.361l.777-1.343a5.432,5.432,0,1,0-2.717,10.136Z" transform="translate(-304.973 -218.272)" fill="#707070"/>
        <path id="Path_5427" data-name="Path 5427" d="M328,376h1.552v1.552H328Z" transform="translate(-297.737 -341.081)" fill="#707070"/>
        <path id="Path_5428" data-name="Path 5428" d="M360,376h9.312v1.552H360Z" transform="translate(-326.633 -341.081)" fill="#707070"/>
        <path id="Path_5429" data-name="Path 5429" d="M328,408h12.416v1.552H328Z" transform="translate(-297.737 -369.977)" fill="#707070"/>
      </g>
      <g id="Outline" transform="translate(775.795 5619)">
        <path id="Path_5430" data-name="Path 5430" d="M192.693,277.037l-3.126-4.689a.781.781,0,0,0-.65-.348H163.908a.782.782,0,0,0-.65.348l-3.126,4.689a.782.782,0,0,0,.65,1.215h2.345v14.067h-1.563v1.563h29.7v-1.563H189.7V278.252h2.345a.782.782,0,0,0,.65-1.215Zm-28.367-3.474h7.5l-2.084,3.126h-7.5Zm.363,4.689h5.471a.781.781,0,0,0,.65-.348l1.694-2.541v16.957h-7.815Zm23.446,14.067H174.067V275.363l1.694,2.541a.782.782,0,0,0,.65.348h11.723Zm-11.3-15.63-2.084-3.126H188.5l2.084,3.126Z" transform="translate(-145.933 -247.773)" fill="#707070"/>
        <path id="Path_5431" data-name="Path 5431" d="M416,448h1.563v1.563H416Z" transform="translate(-376.924 -406.58)" fill="#707070"/>
        <path id="Path_5432" data-name="Path 5432" d="M384,448h1.563v1.563H384Z" transform="translate(-348.05 -406.58)" fill="#707070"/>
        <path id="Path_5433" data-name="Path 5433" d="M320.273,70.661l5.471,4.689a.781.781,0,0,0,1.017,0l5.471-4.689a.782.782,0,0,0,.273-.593V67.723a.781.781,0,0,0-.781-.782h-2.345V56h-1.563V67.723a.782.782,0,0,0,.782.782h2.344v1.2l-4.689,4.019-4.689-4.019V68.5h2.345a.782.782,0,0,0,.782-.782V56h-1.563V66.941h-2.345a.781.781,0,0,0-.781.782v2.345a.781.781,0,0,0,.273.593Z" transform="translate(-290.302 -52.874)" fill="#707070"/>
        <path id="Path_5434" data-name="Path 5434" d="M17.563,25.563H42.572v21.1h1.563V24.782A.782.782,0,0,0,43.353,24H16.782a.782.782,0,0,0-.782.782V66.2a.782.782,0,0,0,.782.782H30.805V65.42H17.563Z" transform="translate(-16 -24)" fill="#707070"/>
        <path id="Path_5435" data-name="Path 5435" d="M63.263,50.343l-2.116,2.116H56.782A.782.782,0,0,0,56,53.24v4.689a.782.782,0,0,0,.782.782h4.689a.782.782,0,0,0,.782-.782V53.564l2.116-2.116Zm-2.573,6.8H57.563V54.022h2.021l-1.01,1.01,1.105,1.105,1.01-1.01Z" transform="translate(-52.092 -47.77)" fill="#707070"/>
        <path id="Path_5436" data-name="Path 5436" d="M152,80h1.563v1.563H152Z" transform="translate(-138.714 -74.529)" fill="#707070"/>
        <path id="Path_5437" data-name="Path 5437" d="M184,80h7.815v1.563H184Z" transform="translate(-167.588 -74.529)" fill="#707070"/>
        <path id="Path_5438" data-name="Path 5438" d="M152,112h10.941v1.563H152Z" transform="translate(-138.714 -103.403)" fill="#707070"/>
        <path id="Path_5439" data-name="Path 5439" d="M63.263,146.343l-2.116,2.116H56.782a.782.782,0,0,0-.782.782v4.689a.782.782,0,0,0,.782.781h4.689a.781.781,0,0,0,.782-.781v-4.365l2.116-2.116Zm-2.573,6.8H57.563v-3.126h2.021l-1.01,1.01,1.105,1.105,1.01-1.01Z" transform="translate(-52.092 -134.391)" fill="#707070"/>
        <path id="Path_5440" data-name="Path 5440" d="M152,176h1.563v1.563H152Z" transform="translate(-138.714 -161.151)" fill="#707070"/>
        <path id="Path_5441" data-name="Path 5441" d="M184,176h7.815v1.563H184Z" transform="translate(-167.588 -161.151)" fill="#707070"/>
        <path id="Path_5442" data-name="Path 5442" d="M152,208h10.941v1.563H152Z" transform="translate(-138.714 -190.025)" fill="#707070"/>
        <path id="Path_5443" data-name="Path 5443" d="M63.263,242.343l-2.116,2.116H56.782a.782.782,0,0,0-.782.782v4.689a.781.781,0,0,0,.782.782h4.689a.781.781,0,0,0,.782-.782v-4.365l2.116-2.116Zm-2.573,6.8H57.563v-3.126h2.021l-1.01,1.01,1.105,1.105,1.01-1.01Z" transform="translate(-52.092 -221.013)" fill="#707070"/>
        <path id="Path_5444" data-name="Path 5444" d="M152,272h1.563v1.563H152Z" transform="translate(-138.714 -247.773)" fill="#707070"/>
        <path id="Path_5445" data-name="Path 5445" d="M56.782,340.459a.782.782,0,0,0-.782.782v4.689a.781.781,0,0,0,.782.781h4.689a.781.781,0,0,0,.782-.781v-4.365l2.116-2.116-1.105-1.105-2.116,2.116Zm3.908,4.689H57.563v-3.126h2.021l-1.01,1.01,1.105,1.105,1.01-1.01Z" transform="translate(-52.092 -307.635)" fill="#707070"/>
        <path id="Path_5446" data-name="Path 5446" d="M152,368h1.563v1.563H152Z" transform="translate(-138.714 -334.395)" fill="#707070"/>
        <path id="Path_5447" data-name="Path 5447" d="M152,400h2.345v1.563H152Z" transform="translate(-138.714 -363.269)" fill="#707070"/>
      </g>
      <g id="workflow_1_" data-name="workflow (1)" transform="translate(984.408 5619.279)">
        <g id="Group_3035" data-name="Group 3035" transform="translate(0 0)">
          <g id="Group_3034" data-name="Group 3034">
            <path id="Path_5448" data-name="Path 5448" d="M51.225,39.386H45.581l-3.011-4.969a.762.762,0,0,0-.651-.367H26.755V29.12a6.923,6.923,0,1,0-5.861-2.2.762.762,0,0,0,1.121-1.03,5.382,5.382,0,1,1,2.38,1.508.762.762,0,0,0-.45,1.455,6.888,6.888,0,0,0,1.288.267v4.93H10.068a.762.762,0,0,0-.651.367L6.405,39.386H.762A.761.761,0,0,0,0,40.148V63.429a.761.761,0,0,0,.762.762H12.907a.761.761,0,0,0,.762-.762V46.251a.762.762,0,0,0-1.523,0V62.668H1.523V40.909H12.145v2.229a.762.762,0,0,0,1.523,0V40.148a.761.761,0,0,0-.762-.762H8.186L10.5,35.574H25.232v3.812H19.92a.761.761,0,0,0-.762.762V63.429a.761.761,0,0,0,.762.762H32.066a.761.761,0,0,0,.762-.762V59.688a.762.762,0,0,0-1.523,0v2.98H20.682V40.909H31.3v15.7a.762.762,0,0,0,1.523,0V40.148a.761.761,0,0,0-.762-.762H26.755V35.574H41.489L43.8,39.386H39.079a.761.761,0,0,0-.762.762V63.429a.761.761,0,0,0,.762.762H51.225a.761.761,0,0,0,.762-.762V40.148A.761.761,0,0,0,51.225,39.386Zm-.762,23.282H39.841V40.909H50.463Z" transform="translate(0 -15.315)" fill="#707070"/>
          </g>
        </g>
        <g id="Group_3037" data-name="Group 3037" transform="translate(3.027 29.438)">
          <g id="Group_3036" data-name="Group 3036">
            <path id="Path_5449" data-name="Path 5449" d="M32.079,305.245H30.57a.762.762,0,1,0,0,1.523h1.509a.762.762,0,1,0,0-1.523Z" transform="translate(-29.808 -305.245)" fill="#707070"/>
          </g>
        </g>
        <g id="Group_3039" data-name="Group 3039" transform="translate(3.027 32.995)">
          <g id="Group_3038" data-name="Group 3038">
            <path id="Path_5450" data-name="Path 5450" d="M36.929,340.278H30.57a.762.762,0,1,0,0,1.523h6.36a.762.762,0,1,0,0-1.523Z" transform="translate(-29.808 -340.278)" fill="#707070"/>
          </g>
        </g>
        <g id="Group_3041" data-name="Group 3041" transform="translate(3.027 35.712)">
          <g id="Group_3040" data-name="Group 3040">
            <path id="Path_5451" data-name="Path 5451" d="M36.929,367.035H30.57a.762.762,0,0,0,0,1.523h6.36a.762.762,0,1,0,0-1.523Z" transform="translate(-29.808 -367.035)" fill="#707070"/>
          </g>
        </g>
        <g id="Group_3043" data-name="Group 3043" transform="translate(3.027 38.429)">
          <g id="Group_3042" data-name="Group 3042">
            <path id="Path_5452" data-name="Path 5452" d="M36.929,393.791H30.57a.762.762,0,1,0,0,1.523h6.36a.762.762,0,1,0,0-1.523Z" transform="translate(-29.808 -393.791)" fill="#707070"/>
          </g>
        </g>
        <g id="Group_3045" data-name="Group 3045" transform="translate(3.027 41.145)">
          <g id="Group_3044" data-name="Group 3044">
            <path id="Path_5453" data-name="Path 5453" d="M36.929,420.548H30.57a.762.762,0,1,0,0,1.523h6.36a.762.762,0,1,0,0-1.523Z" transform="translate(-29.808 -420.548)" fill="#707070"/>
          </g>
        </g>
        <g id="Group_3047" data-name="Group 3047" transform="translate(22.052 29.438)">
          <g id="Group_3046" data-name="Group 3046">
            <path id="Path_5454" data-name="Path 5454" d="M219.454,305.245h-1.509a.762.762,0,0,0,0,1.523h1.509a.762.762,0,1,0,0-1.523Z" transform="translate(-217.183 -305.245)" fill="#707070"/>
          </g>
        </g>
        <g id="Group_3049" data-name="Group 3049" transform="translate(22.052 32.995)">
          <g id="Group_3048" data-name="Group 3048">
            <path id="Path_5455" data-name="Path 5455" d="M224.3,340.278h-6.36a.762.762,0,1,0,0,1.523h6.36a.762.762,0,1,0,0-1.523Z" transform="translate(-217.182 -340.278)" fill="#707070"/>
          </g>
        </g>
        <g id="Group_3051" data-name="Group 3051" transform="translate(22.052 35.712)">
          <g id="Group_3050" data-name="Group 3050">
            <path id="Path_5456" data-name="Path 5456" d="M224.3,367.035h-6.36a.762.762,0,1,0,0,1.523h6.36a.762.762,0,1,0,0-1.523Z" transform="translate(-217.182 -367.035)" fill="#707070"/>
          </g>
        </g>
        <g id="Group_3053" data-name="Group 3053" transform="translate(22.052 38.429)">
          <g id="Group_3052" data-name="Group 3052">
            <path id="Path_5457" data-name="Path 5457" d="M224.3,393.791h-6.36a.762.762,0,1,0,0,1.523h6.36a.762.762,0,1,0,0-1.523Z" transform="translate(-217.182 -393.791)" fill="#707070"/>
          </g>
        </g>
        <g id="Group_3055" data-name="Group 3055" transform="translate(22.052 41.145)">
          <g id="Group_3054" data-name="Group 3054">
            <path id="Path_5458" data-name="Path 5458" d="M224.3,420.548h-6.36a.762.762,0,1,0,0,1.523h6.36a.762.762,0,1,0,0-1.523Z" transform="translate(-217.182 -420.548)" fill="#707070"/>
          </g>
        </g>
        <g id="Group_3057" data-name="Group 3057" transform="translate(41.077 29.438)">
          <g id="Group_3056" data-name="Group 3056">
            <path id="Path_5459" data-name="Path 5459" d="M406.828,305.245h-1.509a.762.762,0,0,0,0,1.523h1.509a.762.762,0,1,0,0-1.523Z" transform="translate(-404.557 -305.245)" fill="#707070"/>
          </g>
        </g>
        <g id="Group_3059" data-name="Group 3059" transform="translate(41.077 32.995)">
          <g id="Group_3058" data-name="Group 3058">
            <path id="Path_5460" data-name="Path 5460" d="M411.678,340.278h-6.36a.762.762,0,0,0,0,1.523h6.36a.762.762,0,0,0,0-1.523Z" transform="translate(-404.557 -340.278)" fill="#707070"/>
          </g>
        </g>
        <g id="Group_3061" data-name="Group 3061" transform="translate(41.077 35.712)">
          <g id="Group_3060" data-name="Group 3060">
            <path id="Path_5461" data-name="Path 5461" d="M411.677,367.035h-6.36a.762.762,0,0,0,0,1.523h6.36a.762.762,0,1,0,0-1.523Z" transform="translate(-404.556 -367.035)" fill="#707070"/>
          </g>
        </g>
        <g id="Group_3063" data-name="Group 3063" transform="translate(41.077 38.429)">
          <g id="Group_3062" data-name="Group 3062">
            <path id="Path_5462" data-name="Path 5462" d="M411.677,393.791h-6.36a.762.762,0,1,0,0,1.523h6.36a.762.762,0,1,0,0-1.523Z" transform="translate(-404.556 -393.791)" fill="#707070"/>
          </g>
        </g>
        <g id="Group_3065" data-name="Group 3065" transform="translate(41.077 41.145)">
          <g id="Group_3064" data-name="Group 3064">
            <path id="Path_5463" data-name="Path 5463" d="M411.677,420.548h-6.36a.762.762,0,0,0,0,1.523h6.36a.762.762,0,1,0,0-1.523Z" transform="translate(-404.556 -420.548)" fill="#707070"/>
          </g>
        </g>
      </g>
      <circle id="Ellipse_466" data-name="Ellipse 466" cx="2" cy="2" r="2" transform="translate(742 5697)" fill="#bebebe"/>
      <circle id="Ellipse_467" data-name="Ellipse 467" cx="2" cy="2" r="2" transform="translate(742 5754)" fill="#bebebe"/>
      <circle id="Ellipse_468" data-name="Ellipse 468" cx="2" cy="2" r="2" transform="translate(954 5697)" fill="#bebebe"/>
      <circle id="Ellipse_469" data-name="Ellipse 469" cx="2" cy="2" r="2" transform="translate(954 5754)" fill="#bebebe"/>
      <circle id="Ellipse_470" data-name="Ellipse 470" cx="2" cy="2" r="2" transform="translate(1167 5697)" fill="#bebebe"/>
      <circle id="Ellipse_471" data-name="Ellipse 471" cx="2" cy="2" r="2" transform="translate(1167 5754)" fill="#bebebe"/>
    </g>
  </g>
</svg>
