<svg xmlns="http://www.w3.org/2000/svg" width="1292.919" height="611.098" viewBox="0 0 1292.919 611.098">
  <g id="Group_3069" data-name="Group 3069" transform="translate(-522 -2452)">
    <g id="Group_3019" data-name="Group 3019">
      <g id="Group_2995" data-name="Group 2995" transform="translate(590.448 2573.42)" opacity="0.452">
        <path id="Path_5233" data-name="Path 5233" d="M262.638-245.924,225.72-309.87l36.918-63.946h73.837L373.4-309.87l-36.92,63.946Z" transform="translate(-225.72 373.815)" fill="#eaeaea"/>
      </g>
      <g id="Group_2996" data-name="Group 2996" transform="translate(807.722 2452)" opacity="0.452">
        <path id="Path_5234" data-name="Path 5234" d="M385.154-318.075l-36.918-63.946,36.918-63.945h73.837l36.92,63.945-36.92,63.946Z" transform="translate(-348.236 445.966)" fill="#eaeaea"/>
      </g>
      <g id="Group_2997" data-name="Group 2997" transform="translate(1181.042 2506.415)" opacity="0.452">
        <path id="Path_5235" data-name="Path 5235" d="M586.571-342.47,565.3-379.31l21.27-36.84H629.11l21.271,36.84L629.11-342.47Z" transform="translate(-565.302 416.151)" fill="#eaeaea"/>
      </g>
      <g id="Group_3018" data-name="Group 3018" transform="translate(1596.042 2834.415)" opacity="0.452">
        <path id="Path_5235-2" data-name="Path 5235" d="M586.571-342.47,565.3-379.31l21.27-36.84H629.11l21.271,36.84L629.11-342.47Z" transform="translate(-565.302 416.151)" fill="#eaeaea"/>
      </g>
      <g id="Group_2998" data-name="Group 2998" transform="translate(653.018 2962.96)" opacity="0.452">
        <path id="Path_5236" data-name="Path 5236" d="M277.474-77.723,256.2-114.563l21.269-36.84h42.539l21.271,36.84-21.271,36.84Z" transform="translate(-256.204 151.403)" fill="#eaeaea"/>
      </g>
      <path id="Path_5237" data-name="Path 5237" d="M244.048-65.931,179.069-178.48l64.979-112.549H374.005L438.988-178.48,374.005-65.931Z" transform="translate(342.932 3007.028)" fill="#eaeaea"/>
      <path id="Path_5238" data-name="Path 5238" d="M363.843-137.695,298.864-250.244l64.979-112.549H493.8l64.983,112.549L493.8-137.695Z" transform="translate(429.135 2960.792)" fill="#eaeaea"/>
      <path id="Path_5239" data-name="Path 5239" d="M485.715-68.729,420.736-181.278l64.979-112.549H615.673l64.983,112.549L615.673-68.729Z" transform="translate(514.264 3009.827)" fill="#eaeaea"/>
      <path id="Path_5240" data-name="Path 5240" d="M605.623-140.984,540.644-253.533l64.979-112.549H735.581l64.983,112.549L735.581-140.984Z" transform="translate(600.355 2964.082)" fill="#eaeaea"/>
      <path id="Path_5241" data-name="Path 5241" d="M727.355-73.5,662.376-186.05,727.355-298.6H857.313L922.3-186.05,857.313-73.5Z" transform="translate(686.625 3014.6)" fill="#eaeaea"/>
      <g id="Group_2999" data-name="Group 2999" transform="translate(935 2476)">
        <path id="Path_5242" data-name="Path 5242" d="M483.638-208.551,418.659-321.1l64.979-112.549H613.6L678.579-321.1,613.6-208.551Z" transform="translate(-418.659 433.649)" fill="#eaeaea"/>
      </g>
      <g id="Group_3000" data-name="Group 3000" transform="translate(1346 2476)">
        <path id="Path_5243" data-name="Path 5243" d="M725.355-210.984,660.376-323.533l64.979-112.549H855.313L920.3-323.533,855.313-210.984Z" transform="translate(-660.376 436.082)" fill="#eaeaea"/>
      </g>
      <g id="Group_3017" data-name="Group 3017" transform="translate(1555 2598)">
        <path id="Path_5243-2" data-name="Path 5243" d="M725.355-210.984,660.376-323.533l64.979-112.549H855.313L920.3-323.533,855.313-210.984Z" transform="translate(-660.376 436.082)" fill="#eaeaea"/>
      </g>
      <path id="Path_5244" data-name="Path 5244" d="M607.963-1.11,542.984-113.659l64.979-112.549H737.921L802.9-113.659,737.921-1.11Z" transform="translate(598.016 3064.207)" fill="#eaeaea"/>
      <g id="Group_3001" data-name="Group 3001" transform="translate(728 2838)">
        <path id="Path_5245" data-name="Path 5245" d="M364.841,1.849,299.862-110.7l64.979-112.549H494.8L559.781-110.7,494.8,1.849Z" transform="translate(-299.862 223.249)" fill="#eaeaea"/>
      </g>
      <text id="Plant_Performance" data-name="Plant Performance" transform="translate(572 2841)" fill="#21232a" font-size="18" font-family="HelveticaNeue-Bold, Helvetica Neue" font-weight="700"><tspan x="0" y="0">Plant Performance</tspan></text>
      <text id="Plant_Utilization" data-name="Plant Utilization" transform="translate(795 2729)" fill="#21232a" font-size="18" font-family="HelveticaNeue-Bold, Helvetica Neue" font-weight="700"><tspan x="0" y="0">Plant Utilization</tspan></text>
      <text id="Add_Generation_Data" data-name="Add Generation Data" transform="translate(767 2959)" fill="#21232a" font-size="18" font-family="HelveticaNeue-Bold, Helvetica Neue" font-weight="700"><tspan x="0" y="0">Add Generation Data</tspan></text>
      <text id="Add_Consumption_Data" data-name="Add Consumption Data" transform="translate(969 2607)" fill="#21232a" font-size="18" font-family="HelveticaNeue-Bold, Helvetica Neue" font-weight="700"><tspan x="0" y="0">Add Consumption Data</tspan></text>
      <text id="Diesel_Consumption" data-name="Diesel Consumption" transform="translate(978 2847)" fill="#21232a" font-size="18" font-family="HelveticaNeue-Bold, Helvetica Neue" font-weight="700"><tspan x="0" y="0">Diesel Consumption</tspan></text>
      <text id="Plant_technical_performance_metrics" data-name="Plant technical
performance metrics" transform="translate(650 2864)" fill="#21232a" font-size="14" font-family="HelveticaNeue, Helvetica Neue"><tspan x="-46.025" y="0">Plant technical</tspan><tspan x="-64.827" y="22">performance metrics</tspan></text>
      <text id="Plant_technical_Performance_metrics-2" data-name="Plant technical
Performance metrics" transform="translate(857 2756)" fill="#21232a" font-size="14" font-family="HelveticaNeue, Helvetica Neue"><tspan x="-46.025" y="0">Plant technical</tspan><tspan x="-65.212" y="22">Performance metrics</tspan></text>
      <text id="Record_and_submit_plant_generation_data" data-name="Record and submit
plant generation data" transform="translate(857 2986)" fill="#21232a" font-size="14" font-family="HelveticaNeue, Helvetica Neue"><tspan x="-59.654" y="0">Record and submit</tspan><tspan x="-66.514" y="22">plant generation data</tspan></text>
      <text id="Record_and_submit_plant_consumption_data" data-name="Record and submit
plant consumption data" transform="translate(1064 2634)" fill="#21232a" font-size="14" font-family="HelveticaNeue, Helvetica Neue"><tspan x="-59.654" y="0">Record and submit</tspan><tspan x="-74.179" y="22">plant consumption data</tspan></text>
      <text id="Record_and_submit_diesel_consumption_data" data-name="Record and submit
diesel consumption data" transform="translate(1064 2874)" fill="#21232a" font-size="14" font-family="HelveticaNeue, Helvetica Neue"><tspan x="-59.654" y="0">Record and submit</tspan><tspan x="-76.895" y="22">diesel consumption data</tspan></text>
      <text id="Bank_Deposit" data-name="Bank Deposit" transform="translate(1209 2729)" fill="#21232a" font-size="18" font-family="HelveticaNeue-Bold, Helvetica Neue" font-weight="700"><tspan x="0" y="0">Bank Deposit</tspan></text>
      <text id="Plant_Shutdown_Information" data-name="Plant Shutdown
Information" transform="translate(1275 2959)" fill="#21232a" font-size="18" font-family="HelveticaNeue-Bold, Helvetica Neue" font-weight="700"><tspan x="-67.842" y="0">Plant Shutdown</tspan><tspan x="-49.635" y="22">Information</tspan></text>
      <text id="Bank_deposits_and_plant_cash_balance" data-name="Bank deposits and
plant cash balance" transform="translate(1270 2756)" fill="#21232a" font-size="14" font-family="HelveticaNeue, Helvetica Neue"><tspan x="-58.611" y="0">Bank deposits and</tspan><tspan x="-58.996" y="22">plant cash balance</tspan></text>
      <text id="Remote_access_to_plant_shutdowns" data-name="Remote access to plant
shutdowns" transform="translate(1271 3008)" fill="#21232a" font-size="14" font-family="HelveticaNeue, Helvetica Neue"><tspan x="-74.165" y="0">Remote access to plant</tspan><tspan x="-34.356" y="22">shutdowns</tspan></text>
      <text id="Plant_Downtime" data-name="Plant Downtime" transform="translate(1408 2607)" fill="#21232a" font-size="18" font-family="HelveticaNeue-Bold, Helvetica Neue" font-weight="700"><tspan x="0" y="0">Plant Downtime</tspan></text>
      <text id="Plant_Service" data-name="Plant Service" transform="translate(1628 2729)" fill="#21232a" font-size="18" font-family="HelveticaNeue-Bold, Helvetica Neue" font-weight="700"><tspan x="0" y="0">Plant Service</tspan></text>
      <text id="Plant_Maitenance" data-name="Plant Maitenance" transform="translate(1405 2852)" fill="#21232a" font-size="18" font-family="HelveticaNeue-Bold, Helvetica Neue" font-weight="700"><tspan x="0" y="0">Plant Maitenance</tspan></text>
      <text id="Overview_plant_downtime_details" data-name="Overview plant
downtime details" transform="translate(1471 2634)" fill="#21232a" font-size="14" font-family="HelveticaNeue, Helvetica Neue"><tspan x="-46.536" y="0">Overview plant</tspan><tspan x="-53.284" y="22">downtime details</tspan></text>
      <text id="Record_plant_Maintenance_activities" data-name="Record plant
Maintenance activities" transform="translate(1474 2874)" fill="#21232a" font-size="14" font-family="HelveticaNeue, Helvetica Neue"><tspan x="-40.194" y="0">Record plant</tspan><tspan x="-69.622" y="22">Maintenance activities</tspan></text>
      <text id="Overview_status_on_plant_service_request" data-name="Overview status
on plant service
request" transform="translate(1681 2756)" fill="#21232a" font-size="14" font-family="HelveticaNeue, Helvetica Neue"><tspan x="-50.036" y="0">Overview status</tspan><tspan x="-49.525" y="22">on plant service</tspan><tspan x="-23.471" y="44">request</tspan></text>
      <g id="personal-information" transform="translate(836.382 2645.393)">
        <path id="Path_5191" data-name="Path 5191" d="M57.345,48.608H33.136A2.139,2.139,0,0,1,31,46.472V10.842a2.139,2.139,0,0,1,2.136-2.136h4.093a.712.712,0,1,1,0,1.424H33.136a.713.713,0,0,0-.712.712v35.63a.713.713,0,0,0,.712.712H57.345a.713.713,0,0,0,.712-.712V29.905H41.68a2.139,2.139,0,0,1-2.136-2.136V2.136A2.139,2.139,0,0,1,41.68,0H63.041a2.139,2.139,0,0,1,2.136,2.136v7.12a.712.712,0,0,1-1.424,0V2.136a.713.713,0,0,0-.712-.712H41.68a.713.713,0,0,0-.712.712V27.769a.713.713,0,0,0,.712.712H63.041a.713.713,0,0,0,.712-.712V12.1a.712.712,0,0,1,.712-.712h4.272a.712.712,0,0,1,0,1.424h-3.56v2.848h3.56a.712.712,0,1,1,0,1.424h-3.56v2.848h3.56a.712.712,0,0,1,0,1.424h-3.56v2.848h3.56a.712.712,0,1,1,0,1.424h-3.56v2.136a2.127,2.127,0,0,1-.122.712h3.682a.712.712,0,0,1,0,1.424H59.481v2.848h9.256a.712.712,0,0,1,0,1.424H59.481v4.462h12.1a.713.713,0,0,0,.712-.712V6.57a.713.713,0,0,0-.712-.712H67.313a.712.712,0,1,1,0-1.424h4.272A2.139,2.139,0,0,1,73.722,6.57V37.927a2.139,2.139,0,0,1-2.136,2.136h-12.1v4.272h7.832a.713.713,0,0,0,.712-.712V42.2a.712.712,0,0,1,1.424,0v1.424a2.139,2.139,0,0,1-2.136,2.136H59.481v.712A2.139,2.139,0,0,1,57.345,48.608Zm4.272-21.551H43.1a.712.712,0,0,1-.712-.712V23.872c0-3.659,2.419-4.5,4.185-5.107,1.458-.5,2.286-.844,2.431-1.941A5.955,5.955,0,0,1,46.4,11.9V8.966a5.956,5.956,0,0,1,11.913,0V11.9a5.955,5.955,0,0,1-2.6,4.922c.146,1.1.974,1.436,2.431,1.941,1.766.611,4.185,1.448,4.185,5.107v2.473A.712.712,0,0,1,61.617,27.057Zm-17.8-1.424H60.905V23.872c0-2.645-1.5-3.162-3.227-3.762-1.279-.442-2.82-.976-3.279-2.611a5.962,5.962,0,0,1-4.078,0c-.458,1.635-2,2.169-3.279,2.611-1.732.6-3.227,1.117-3.227,3.762Zm8.544-21.2a4.538,4.538,0,0,0-4.532,4.532V11.9a4.532,4.532,0,0,0,9.065,0V8.966a4.538,4.538,0,0,0-4.532-4.532Z" transform="translate(-31)" fill="#707070" stroke="#707070" stroke-width="0.5"/>
      </g>
      <g id="knife-switch" transform="translate(1250.671 2880.393)">
        <path id="Path_5255" data-name="Path 5255" d="M82.818,214.94l-3.452-1.726,1.275-1.275a1.251,1.251,0,0,0-1.77-1.77l-2.5,2.5a1.252,1.252,0,0,0,.325,2l3.452,1.726-1.275,1.275a1.251,1.251,0,0,0,1.77,1.77l2.5-2.5A1.252,1.252,0,0,0,82.818,214.94Z" transform="translate(-70.996 -192.284)" fill="#707070"/>
        <path id="Path_5256" data-name="Path 5256" d="M52.288,7.508A3.755,3.755,0,1,0,48.9,5.371l-8.316,8.316a11.245,11.245,0,0,0-7.066-3.607V6.257A3.758,3.758,0,0,0,29.765,2.5H18.5V1.251a1.251,1.251,0,0,0-2.5,0V41.461a1.251,1.251,0,0,0,2.5,0V40.042H29.765a3.758,3.758,0,0,0,3.754-3.754V32.465a11.257,11.257,0,0,0,8.554-16.725l8.6-8.6a3.731,3.731,0,0,0,1.617.367ZM33.519,17.734a3.753,3.753,0,0,1,0,7.077Zm-2.5,18.555a1.253,1.253,0,0,1-1.251,1.251H18.5V5.005H29.765a1.253,1.253,0,0,1,1.251,1.251Zm2.5-6.346V27.4a6.257,6.257,0,0,0,0-12.261V12.6a8.759,8.759,0,0,1,0,17.339ZM52.288,2.5a1.251,1.251,0,1,1-1.251,1.251A1.253,1.253,0,0,1,52.288,2.5Z" transform="translate(-16 0)" fill="#707070"/>
        <circle id="Ellipse_461" data-name="Ellipse 461" cx="1" cy="1" r="1" transform="translate(10.328 7.608)" fill="#707070"/>
        <ellipse id="Ellipse_462" data-name="Ellipse 462" cx="1" cy="1.5" rx="1" ry="1.5" transform="translate(10.328 32.608)" fill="#707070"/>
      </g>
      <g id="work_time" data-name="work time" transform="translate(1448.521 2529.521)">
        <path id="Path_5261" data-name="Path 5261" d="M35.5,3.383h5.852V2H35.126a.691.691,0,0,0-.575.308L33.168,4.382l1.15.767Z" transform="translate(-9.621)" fill="#707070" stroke="#707070" stroke-width="0.25"/>
        <path id="Path_5262" data-name="Path 5262" d="M24.852,59.211H19v1.383h6.222a.691.691,0,0,0,.575-.308l1.383-2.074-1.15-.767Z" transform="translate(-5.247 -17.114)" fill="#707070" stroke="#707070" stroke-width="0.25"/>
        <path id="Path_5263" data-name="Path 5263" d="M30.344,17.209a12.982,12.982,0,0,0-6.814,1.922l-.359-.5a9.748,9.748,0,0,0,.4-.973L26.31,17.2a.691.691,0,0,0,.577-.682V12.37a.691.691,0,0,0-.577-.682l-2.738-.456a9.747,9.747,0,0,0-.4-.973L24.783,8a.691.691,0,0,0-.074-.89L21.776,4.178a.691.691,0,0,0-.89-.074L18.628,5.717a9.748,9.748,0,0,0-.973-.4L17.2,2.581A.691.691,0,0,0,16.518,2H12.37a.691.691,0,0,0-.682.577l-.456,2.738a9.748,9.748,0,0,0-.973.4L8,4.1a.691.691,0,0,0-.89.074L4.178,7.112A.691.691,0,0,0,4.1,8l1.62,2.268a9.162,9.162,0,0,0-.4.96l-2.751.458A.691.691,0,0,0,2,12.37v4.148a.691.691,0,0,0,.577.682l2.75.458a10.266,10.266,0,0,0,.389.968L4.1,20.886a.691.691,0,0,0,.074.89l2.933,2.933a.691.691,0,0,0,.89.074l2.257-1.612a9.747,9.747,0,0,0,.973.4l.456,2.738a.691.691,0,0,0,.682.577h4.148a.691.691,0,0,0,.682-.577l.456-2.738a9.747,9.747,0,0,0,.973-.4l.5.359a12.982,12.982,0,0,0-1.922,6.814A13.135,13.135,0,1,0,30.344,17.209ZM18.362,21.756a8.272,8.272,0,0,1-1.521.628.691.691,0,0,0-.484.548l-.425,2.573H12.955l-.429-2.573a.691.691,0,0,0-.484-.548,8.272,8.272,0,0,1-1.521-.628.691.691,0,0,0-.729.046L7.671,23.318l-2.1-2.1,1.515-2.122a.691.691,0,0,0,.046-.729,9.341,9.341,0,0,1-.638-1.552.691.691,0,0,0-.537-.449l-2.574-.429V12.955l2.573-.429a.691.691,0,0,0,.537-.449,11.338,11.338,0,0,1,.655-1.582.691.691,0,0,0-.062-.7L5.57,7.674l2.1-2.1L9.8,7.085a.691.691,0,0,0,.729.046A8.272,8.272,0,0,1,12.046,6.5a.691.691,0,0,0,.484-.548l.425-2.573h2.977l.429,2.573a.691.691,0,0,0,.484.548,8.272,8.272,0,0,1,1.521.628.691.691,0,0,0,.729-.046L21.217,5.57l2.1,2.1L21.806,9.8a.691.691,0,0,0-.046.729,8.273,8.273,0,0,1,.628,1.521.691.691,0,0,0,.548.484l2.573.429v2.977l-2.573.429a.691.691,0,0,0-.548.484,8.273,8.273,0,0,1-.628,1.521.691.691,0,0,0,.046.729l1.515,2.122-2.1,2.1-2.122-1.515A.691.691,0,0,0,18.362,21.756ZM31.036,42.062V40.023H29.653v2.039A11.748,11.748,0,0,1,18.627,31.036h2.039V29.653H18.617a11.578,11.578,0,0,1,1.64-5.318l.628.449a.691.691,0,0,0,.89-.074l2.933-2.933a.691.691,0,0,0,.074-.89l-.449-.628a11.578,11.578,0,0,1,5.318-1.64v2.048h1.383V18.627A11.748,11.748,0,0,1,42.062,29.653H40.023v1.383h2.039A11.748,11.748,0,0,1,31.036,42.062Z" fill="#707070" stroke="#707070" stroke-width="0.25"/>
        <path id="Path_5264" data-name="Path 5264" d="M43.383,31H42v8.3a.691.691,0,0,0,.691.691h5.531V38.6H43.383Z" transform="translate(-12.347 -8.952)" fill="#707070" stroke="#707070" stroke-width="0.25"/>
        <path id="Path_5265" data-name="Path 5265" d="M21.6,14.839H18.839V10.691a.691.691,0,0,0-1.32-.286l-3.457,7.6a.691.691,0,0,0,.629.978h2.765v4.148a.691.691,0,0,0,.545.676.709.709,0,0,0,.147.015.691.691,0,0,0,.629-.405l3.457-7.6a.691.691,0,0,0-.629-.978Zm-2.765,5.1V18.3a.691.691,0,0,0-.691-.691H15.765l1.692-3.721v1.647a.691.691,0,0,0,.691.691h2.383Z" transform="translate(-3.704 -2.47)" fill="#707070" stroke="#707070" stroke-width="0.25"/>
        <rect id="Rectangle_976" data-name="Rectangle 976" width="2" height="2" transform="translate(13.479 4.479)" fill="#707070" stroke="#707070" stroke-width="0.25"/>
        <rect id="Rectangle_977" data-name="Rectangle 977" width="1.383" height="1.383" transform="translate(7.111 8.089) rotate(-45)" fill="#707070" stroke="#707070" stroke-width="0.25"/>
        <rect id="Rectangle_978" data-name="Rectangle 978" width="2" height="2" transform="translate(4.479 13.479)" fill="#707070" stroke="#707070" stroke-width="0.25"/>
        <rect id="Rectangle_979" data-name="Rectangle 979" width="1.383" height="1.383" transform="translate(7.111 20.798) rotate(-45)" fill="#707070" stroke="#707070" stroke-width="0.25"/>
        <rect id="Rectangle_980" data-name="Rectangle 980" width="2" height="2" transform="translate(13.479 22.479)" fill="#707070" stroke="#707070" stroke-width="0.25"/>
        <rect id="Rectangle_981" data-name="Rectangle 981" width="1.383" height="1.383" transform="translate(19.821 20.799) rotate(-45)" fill="#707070" stroke="#707070" stroke-width="0.25"/>
        <rect id="Rectangle_982" data-name="Rectangle 982" width="2" height="2" transform="translate(22.479 13.479)" fill="#707070" stroke="#707070" stroke-width="0.25"/>
        <rect id="Rectangle_983" data-name="Rectangle 983" width="1.383" height="1.383" transform="translate(19.821 8.09) rotate(-45)" fill="#707070" stroke="#707070" stroke-width="0.25"/>
        <path id="Path_5266" data-name="Path 5266" d="M51.765,7a2.765,2.765,0,1,0,2.765,2.765A2.765,2.765,0,0,0,51.765,7Zm0,4.148a1.383,1.383,0,1,1,1.383-1.383A1.383,1.383,0,0,1,51.765,11.148Z" transform="translate(-14.508 -1.543)" fill="#707070" stroke="#707070" stroke-width="0.25"/>
        <path id="Path_5267" data-name="Path 5267" d="M55.921,6.169l-.462-.115.245-.409a.691.691,0,0,0-.1-.845L53.644,2.845a.691.691,0,0,0-.845-.1l-.409.245-.115-.462A.691.691,0,0,0,51.6,2H48.839a.691.691,0,0,0-.671.523l-.115.463-.409-.245a.691.691,0,0,0-.845.1L44.845,4.8a.691.691,0,0,0-.1.845l.245.409-.462.115A.691.691,0,0,0,44,6.839V9.6a.691.691,0,0,0,.523.671l.463.115-.245.409a.691.691,0,0,0,.1.845L46.8,13.6a.691.691,0,0,0,.845.1l.409-.245.115.462a.691.691,0,0,0,.671.523H51.6a.691.691,0,0,0,.671-.523l.115-.463.409.245a.691.691,0,0,0,.845-.1L55.6,11.644a.691.691,0,0,0,.1-.845l-.245-.409.462-.115a.691.691,0,0,0,.523-.671V6.839a.691.691,0,0,0-.523-.671Zm-.859,2.9-.844.207a.691.691,0,0,0-.424,1.027l.447.746-1.192,1.192-.746-.447a.691.691,0,0,0-1.027.424l-.211.848H49.379l-.207-.844a.691.691,0,0,0-1.027-.424l-.746.447-1.192-1.192.447-.746a.691.691,0,0,0-.424-1.027l-.848-.211V7.379l.844-.207a.691.691,0,0,0,.424-1.027L46.2,5.4,47.4,4.207l.746.447a.691.691,0,0,0,1.027-.425l.207-.843h1.685l.207.843a.691.691,0,0,0,1.027.425l.746-.447L54.233,5.4l-.447.746a.691.691,0,0,0,.424,1.027l.844.207Z" transform="translate(-12.964)" fill="#707070" stroke="#707070" stroke-width="0.25"/>
        <path id="Path_5268" data-name="Path 5268" d="M9.765,49a2.765,2.765,0,1,0,2.765,2.765A2.765,2.765,0,0,0,9.765,49Zm0,4.148a1.383,1.383,0,1,1,1.383-1.383A1.383,1.383,0,0,1,9.765,53.148Z" transform="translate(-1.543 -14.508)" fill="#707070" stroke="#707070" stroke-width="0.25"/>
        <path id="Path_5269" data-name="Path 5269" d="M13.7,52.8l-.245-.409.462-.115a.691.691,0,0,0,.523-.671V48.839a.691.691,0,0,0-.523-.671l-.463-.115.245-.409a.691.691,0,0,0-.1-.845l-1.955-1.955a.691.691,0,0,0-.845-.1l-.409.245-.115-.462A.691.691,0,0,0,9.6,44H6.839a.691.691,0,0,0-.671.523l-.115.463-.409-.245a.691.691,0,0,0-.845.1L2.845,46.8a.691.691,0,0,0-.1.845l.245.409-.462.115A.691.691,0,0,0,2,48.839V51.6a.691.691,0,0,0,.523.671l.463.115L2.74,52.8a.691.691,0,0,0,.1.845L4.8,55.6a.691.691,0,0,0,.845.1l.409-.245.115.462a.691.691,0,0,0,.671.523H9.6a.691.691,0,0,0,.671-.523l.115-.463.409.245a.691.691,0,0,0,.845-.1L13.6,53.644A.691.691,0,0,0,13.7,52.8Zm-.642-1.735-.844.207a.691.691,0,0,0-.424,1.027l.447.746-1.192,1.192-.746-.447a.691.691,0,0,0-1.027.424l-.211.848H7.379l-.207-.844a.691.691,0,0,0-1.027-.424L5.4,54.24,4.2,53.048l.447-.746a.691.691,0,0,0-.424-1.027l-.844-.211V49.379l.844-.207a.691.691,0,0,0,.424-1.027L4.2,47.4,5.4,46.207l.746.447a.691.691,0,0,0,1.027-.425l.207-.843H9.061l.207.843a.691.691,0,0,0,1.027.425l.746-.447L12.233,47.4l-.447.746a.691.691,0,0,0,.424,1.027l.844.207Z" transform="translate(0 -12.964)" fill="#707070" stroke="#707070" stroke-width="0.25"/>
      </g>
      <g id="survey_2_" data-name="survey (2)" transform="translate(822 2872.667)">
        <g id="Group_3015" data-name="Group 3015" transform="translate(0 21.333)">
          <g id="Group_3014" data-name="Group 3014" transform="translate(0 0)">
            <circle id="Ellipse_463" data-name="Ellipse 463" cx="0.845" cy="0.845" r="0.845" transform="translate(3.381 3.381)" fill="#707070"/>
            <circle id="Ellipse_464" data-name="Ellipse 464" cx="0.845" cy="0.845" r="0.845" transform="translate(6.761 3.381)" fill="#707070"/>
            <circle id="Ellipse_465" data-name="Ellipse 465" cx="0.845" cy="0.845" r="0.845" transform="translate(10.142 3.381)" fill="#707070"/>
            <path id="Path_5270" data-name="Path 5270" d="M107.511,215.023H126.1a.845.845,0,0,0,0-1.69H107.511a.845.845,0,1,0,0,1.69Z" transform="translate(-98.214 -198.12)" fill="#707070"/>
            <path id="Path_5271" data-name="Path 5271" d="M117.653,341.333H107.511a.845.845,0,1,0,0,1.69h10.142a.845.845,0,1,0,0-1.69Z" transform="translate(-98.214 -315.978)" fill="#707070"/>
            <path id="Path_5272" data-name="Path 5272" d="M37.333,31.475c-.049,0-.1.012-.145.015V24.714a3.385,3.385,0,0,0-3.381-3.381H3.381A3.385,3.385,0,0,0,0,24.714V55.14a3.385,3.385,0,0,0,3.381,3.381H33.807a3.385,3.385,0,0,0,3.381-3.381V39.431L39.621,37h0a3.235,3.235,0,0,0-2.288-5.523ZM1.69,24.714a1.692,1.692,0,0,1,1.69-1.69H33.807a1.692,1.692,0,0,1,1.69,1.69v3.381H1.69ZM35.5,55.14a1.692,1.692,0,0,1-1.69,1.69H3.381a1.692,1.692,0,0,1-1.69-1.69V29.785H35.5v2.268a3.179,3.179,0,0,0-.452.37l-9.2,9.195H9.3a.845.845,0,1,0,0,1.69h15.2l-.812,4.06a.845.845,0,0,0,.829,1.011.863.863,0,0,0,.165-.016l4.224-.845a.84.84,0,0,0,.432-.231L35.5,41.121Zm-7.179-9.23-2.73.546.546-2.734,7.672-7.672,2.186,2.186ZM38.425,35.8l-1.238,1.238L35,34.855l1.238-1.238A1.546,1.546,0,0,1,38.425,35.8Z" transform="translate(0 -21.333)" fill="#707070"/>
          </g>
        </g>
      </g>
      <g id="deposit" transform="translate(1237.672 2644.279)">
        <path id="Path_4342" data-name="Path 4342" d="M43.86,31H16.9a.9.9,0,0,0-.9.9V58.86a.9.9,0,0,0,.9.9H43.86a.9.9,0,0,0,.9-.9V31.9A.9.9,0,0,0,43.86,31Zm-.9,26.961H17.8V32.8H42.961Z" transform="translate(-1.215 -3.039)" fill="#707070"/>
        <path id="Path_4343" data-name="Path 4343" d="M19.9,54.67v1.8a.9.9,0,0,0,.9.9h20.67a.9.9,0,0,0,.9-.9V34.9a.9.9,0,0,0-.9-.9H20.8a.9.9,0,0,0-.9.9v1.8a.9.9,0,0,0-.9.9v5.392a.9.9,0,0,0,.9.9v3.595a.9.9,0,0,0-.9.9v5.392A.9.9,0,0,0,19.9,54.67Zm.9-12.582V38.494h.9v3.595Zm.9,1.8h.9a.9.9,0,0,0,.9-.9V37.595a.9.9,0,0,0-.9-.9h-.9v-.9H40.569V55.569H21.7v-.9h.9a.9.9,0,0,0,.9-.9V48.379a.9.9,0,0,0-.9-.9h-.9Zm-.9,5.392h.9v3.595h-.9Z" transform="translate(-1.519 -3.342)" fill="#707070"/>
        <path id="Path_4344" data-name="Path 4344" d="M32.088,54.177A8.088,8.088,0,1,0,24,46.088,8.1,8.1,0,0,0,32.088,54.177Zm0-14.379A6.291,6.291,0,1,1,25.8,46.088,6.3,6.3,0,0,1,32.088,39.8Z" transform="translate(-2.026 -3.748)" fill="#707070"/>
        <path id="Path_4345" data-name="Path 4345" d="M32.392,51.785A5.392,5.392,0,1,0,27,46.392,5.4,5.4,0,0,0,32.392,51.785Zm0-8.987A3.595,3.595,0,1,1,28.8,46.392,3.6,3.6,0,0,1,32.392,42.8Z" transform="translate(-2.33 -4.052)" fill="#707070"/>
        <path id="Path_4346" data-name="Path 4346" d="M20.9,26.164H40.67a.9.9,0,0,0,.9-.9V1h-1.8V24.367H21.8V1H20V25.265A.9.9,0,0,0,20.9,26.164Z" transform="translate(-1.621)" fill="#707070"/>
        <path id="Path_4347" data-name="Path 4347" d="M28.392,13.19a3.6,3.6,0,0,0,3.595-3.595,1.8,1.8,0,1,1,1.8,1.8v1.8a3.592,3.592,0,0,0,3.467-2.7h1.925V8.7H37.252a3.587,3.587,0,0,0-7.062.9,1.8,1.8,0,1,1-1.8-1.8V6a3.592,3.592,0,0,0-3.467,2.7H23v1.8h1.925A3.592,3.592,0,0,0,28.392,13.19Z" transform="translate(-1.924 -0.506)" fill="#707070"/>
        <path id="Path_4348" data-name="Path 4348" d="M23.9,22.19a1.8,1.8,0,0,1,1.8,1.8.9.9,0,0,0,.9.9h8.987a.9.9,0,0,0,.9-.9,1.8,1.8,0,0,1,1.8-1.8.9.9,0,0,0,.9-.9V15h-1.8v5.506A3.61,3.61,0,0,0,34.8,23.088H27.379A3.61,3.61,0,0,0,24.8,20.506V15H23v6.291a.9.9,0,0,0,.9.9Z" transform="translate(-1.924 -1.418)" fill="#707070"/>
        <path id="Path_4349" data-name="Path 4349" d="M31,15h1.8v1.8H31Z" transform="translate(-2.735 -1.418)" fill="#707070"/>
        <path id="Path_4350" data-name="Path 4350" d="M31,3h1.8V4.8H31Z" transform="translate(-2.735 -0.203)" fill="#707070"/>
        <path id="Path_4351" data-name="Path 4351" d="M58.514,11.845a.9.9,0,0,0-.83-.555h-2.7V5h-1.8v7.19a.9.9,0,0,0,.9.9h1.425l-3.223,3.223-3.223-3.223h1.425a.9.9,0,0,0,.9-.9V5h-1.8v6.291H46.9a.9.9,0,0,0-.635,1.534l5.392,5.392a.9.9,0,0,0,1.271,0l5.392-5.392a.9.9,0,0,0,.2-.98Z" transform="translate(-4.254 -0.405)" fill="#707070"/>
        <path id="Path_4352" data-name="Path 4352" d="M50,1h1.8V2.8H50Z" transform="translate(-4.659)" fill="#707070"/>
        <path id="Path_4353" data-name="Path 4353" d="M16.514,21.845a.9.9,0,0,0-.83-.555h-2.7V15h-1.8v7.19a.9.9,0,0,0,.9.9h1.425l-3.223,3.223L7.068,23.088H8.494a.9.9,0,0,0,.9-.9V15h-1.8v6.291H4.9a.9.9,0,0,0-.635,1.534l5.392,5.392a.9.9,0,0,0,1.271,0l5.392-5.392A.9.9,0,0,0,16.514,21.845Z" transform="translate(0 -1.418)" fill="#707070"/>
        <path id="Path_4354" data-name="Path 4354" d="M8,11H9.8v1.8H8Z" transform="translate(-0.405 -1.013)" fill="#707070"/>
      </g>
      <g id="seo-report_1_" data-name="seo-report (1)" transform="translate(979.624 2760.983)">
        <g id="Group_2581" data-name="Group 2581" transform="translate(66.67)">
          <path id="Path_4355" data-name="Path 4355" d="M103.341,0H67.411a.741.741,0,0,0-.741.741v35.2a.741.741,0,1,0,1.482,0V1.482H102.6V6.14a.741.741,0,1,0,1.482,0V.741A.741.741,0,0,0,103.341,0Z" transform="translate(-66.67)" fill="#707070"/>
          <path id="Path_4356" data-name="Path 4356" d="M103.341,89.65a.741.741,0,0,0-.741.741V129.9H68.152V120.19a.741.741,0,0,0-1.482,0v10.447a.741.741,0,0,0,.741.741h35.93a.741.741,0,0,0,.741-.741V90.391A.741.741,0,0,0,103.341,89.65Z" transform="translate(-66.67 -80.792)" fill="#707070"/>
          <path id="Path_4357" data-name="Path 4357" d="M99,103.717a5.731,5.731,0,1,0,5.731-5.731A5.738,5.738,0,0,0,99,103.717Zm5.731,4.249a4.249,4.249,0,0,1-.741-8.432v4.183a.741.741,0,0,0,.741.741h4.183A4.255,4.255,0,0,1,104.727,107.967Zm4.183-4.99h-3.442V99.534A4.259,4.259,0,0,1,108.91,102.976Z" transform="translate(-95.802 -88.305)" fill="#707070"/>
          <path id="Path_4358" data-name="Path 4358" d="M103.777,432.35a.741.741,0,0,0-.741.741v3.194a.741.741,0,0,0,.741.741h4.791a.741.741,0,0,0,.741-.741v-3.194a.741.741,0,0,0-.741-.741Zm4.05,3.194h-3.309v-1.712h3.309Z" transform="translate(-99.443 -389.633)" fill="#707070"/>
          <path id="Path_4359" data-name="Path 4359" d="M184.591,393.328h4.791a.741.741,0,0,0,.741-.741V384.6a.741.741,0,0,0-.741-.741h-4.791a.741.741,0,0,0-.741.741v7.984A.741.741,0,0,0,184.591,393.328Zm.741-7.984h3.309v6.5h-3.309Z" transform="translate(-172.272 -345.936)" fill="#707070"/>
          <path id="Path_4360" data-name="Path 4360" d="M265.4,323.252a.741.741,0,0,0-.741.741v13.973a.741.741,0,0,0,.741.741h4.791a.741.741,0,0,0,.741-.741V323.993a.741.741,0,0,0-.741-.741Zm4.05,13.973h-3.309V324.734h3.309Z" transform="translate(-245.101 -291.314)" fill="#707070"/>
          <path id="Path_4361" data-name="Path 4361" d="M351.011,286.945a.741.741,0,0,0,.741-.741v-2.613a.741.741,0,0,0-.741-.741h-4.79a.741.741,0,0,0-.741.741v17.964a.741.741,0,0,0,.741.741h4.79a.741.741,0,0,0,.741-.741V289.662a.741.741,0,0,0-1.482,0v11.152h-3.308V284.332h3.308V286.2A.741.741,0,0,0,351.011,286.945Z" transform="translate(-317.933 -254.904)" fill="#707070"/>
          <path id="Path_4362" data-name="Path 4362" d="M184.4,32.325H168.428a.741.741,0,0,0-.741.741V36.26a.741.741,0,0,0,.741.741H184.4a.741.741,0,0,0,.741-.741V33.066A.741.741,0,0,0,184.4,32.325Zm-.741,3.194H169.169V33.807h14.487v1.712Z" transform="translate(-157.706 -29.131)" fill="#707070"/>
          <path id="Path_4363" data-name="Path 4363" d="M264.012,97.986H249.241a.741.741,0,0,0,0,1.482h14.771a.741.741,0,0,0,0-1.482Z" transform="translate(-230.535 -88.305)" fill="#707070"/>
          <path id="Path_4364" data-name="Path 4364" d="M264.012,131.658H249.241a.741.741,0,0,0,0,1.482h14.771a.741.741,0,0,0,0-1.482Z" transform="translate(-230.535 -118.65)" fill="#707070"/>
          <path id="Path_4365" data-name="Path 4365" d="M264.753,166.071a.741.741,0,0,0-.741-.741H249.241a.741.741,0,0,0,0,1.482h14.771A.741.741,0,0,0,264.753,166.071Z" transform="translate(-230.535 -148.995)" fill="#707070"/>
          <path id="Path_4366" data-name="Path 4366" d="M258.765,199.743a.741.741,0,0,0-.741-.741h-8.783a.741.741,0,0,0,0,1.482h8.783A.741.741,0,0,0,258.765,199.743Z" transform="translate(-230.535 -179.34)" fill="#707070"/>
          <path id="Path_4367" data-name="Path 4367" d="M126.343,248.5H112.869a.741.741,0,1,0,0,1.482h13.474a.741.741,0,0,0,0-1.482Z" transform="translate(-107.637 -223.948)" fill="#707070"/>
          <path id="Path_4368" data-name="Path 4368" d="M127.084,282.913a.741.741,0,0,0-.741-.741H112.869a.741.741,0,1,0,0,1.482h13.474A.741.741,0,0,0,127.084,282.913Z" transform="translate(-107.637 -254.293)" fill="#707070"/>
          <path id="Path_4369" data-name="Path 4369" d="M121.1,316.585a.741.741,0,0,0-.741-.741h-7.485a.741.741,0,1,0,0,1.482h7.485A.741.741,0,0,0,121.1,316.585Z" transform="translate(-107.637 -284.638)" fill="#707070"/>
        </g>
      </g>
      <g id="seo-report_2_" data-name="seo-report (2)" transform="translate(1044.402 2528.906)">
        <path id="Path_5177" data-name="Path 5177" d="M259.449,109.661h9.088a.654.654,0,1,0,0-1.308h-9.088a.654.654,0,1,0,0,1.308Z" transform="translate(-240.465 -98.198)" fill="#707070"/>
        <path id="Path_5178" data-name="Path 5178" d="M258.8,141.642a.654.654,0,0,0,.654.654h9.088a.654.654,0,0,0,0-1.308h-9.088A.654.654,0,0,0,258.8,141.642Z" transform="translate(-240.465 -127.775)" fill="#707070"/>
        <path id="Path_5179" data-name="Path 5179" d="M259.449,174.931h9.088a.654.654,0,1,0,0-1.308h-9.088a.654.654,0,1,0,0,1.308Z" transform="translate(-240.465 -157.351)" fill="#707070"/>
        <path id="Path_5180" data-name="Path 5180" d="M275.376,356.407a.654.654,0,0,0-.654-.654h-8.448a.654.654,0,0,0,0,1.308h8.448A.654.654,0,0,0,275.376,356.407Z" transform="translate(-246.652 -322.412)" fill="#707070"/>
        <path id="Path_5181" data-name="Path 5181" d="M117.973,288.333a.654.654,0,0,0-.654-.654h-9.088a.654.654,0,0,0,0,1.308h9.088A.654.654,0,0,0,117.973,288.333Z" transform="translate(-103.42 -260.718)" fill="#707070"/>
        <path id="Path_5182" data-name="Path 5182" d="M108.232,256.353h9.088a.654.654,0,0,0,0-1.308h-9.088a.654.654,0,0,0,0,1.308Z" transform="translate(-103.42 -231.142)" fill="#707070"/>
        <path id="Path_5183" data-name="Path 5183" d="M106.857,72.694a6.776,6.776,0,1,0,6.776,6.776,6.784,6.784,0,0,0-6.776-6.776Zm0,12.146a5.37,5.37,0,0,1-.7-10.695V79.47a.7.7,0,0,0,.7.7h5.324A5.378,5.378,0,0,1,106.857,84.84Zm.7-6.073V74.146a5.382,5.382,0,0,1,4.622,4.622Z" transform="translate(-96.626 -65.881)" fill="#707070"/>
        <path id="Path_5184" data-name="Path 5184" d="M236.417,233.841v6.277a1.14,1.14,0,0,0,1.139,1.139h10.918a1.14,1.14,0,0,0,1.139-1.139v-6.277a1.14,1.14,0,0,0-1.139-1.139H237.556a1.14,1.14,0,0,0-1.139,1.139Zm1.406.267h10.384v5.742H237.823Z" transform="translate(-220.185 -210.893)" fill="#707070"/>
        <path id="Path_5185" data-name="Path 5185" d="M100.078,346.755a1.14,1.14,0,0,0,1.139,1.139h1.91a1.14,1.14,0,0,0,1.139-1.139v-9.535a1.14,1.14,0,0,0-1.139-1.139h-1.91a1.14,1.14,0,0,0-1.139,1.139Zm1.406-9.268h1.376v9h-1.376Z" transform="translate(-96.623 -304.585)" fill="#707070"/>
        <path id="Path_5186" data-name="Path 5186" d="M156.587,362.775a1.14,1.14,0,0,0-1.139,1.139v7.033a1.14,1.14,0,0,0,1.139,1.139h1.91a1.14,1.14,0,0,0,1.139-1.139v-7.033a1.14,1.14,0,0,0-1.139-1.139Zm1.643,7.9h-1.376v-6.5h1.376Z" transform="translate(-146.804 -328.776)" fill="#707070"/>
        <path id="Path_5187" data-name="Path 5187" d="M211.957,402.225h1.91a1.14,1.14,0,0,0,1.139-1.139V397.17a1.14,1.14,0,0,0-1.139-1.139h-1.91a1.14,1.14,0,0,0-1.139,1.139v3.916A1.14,1.14,0,0,0,211.957,402.225Zm.267-4.788H213.6v3.382h-1.376Z" transform="translate(-196.985 -358.915)" fill="#707070"/>
        <path id="Path_5188" data-name="Path 5188" d="M274.722,390.03h-8.448a.654.654,0,1,0,0,1.308h8.448a.654.654,0,0,0,0-1.308Z" transform="translate(-246.651 -353.477)" fill="#707070"/>
        <path id="Path_5189" data-name="Path 5189" d="M274.722,424.307h-8.448a.654.654,0,1,0,0,1.308h8.448a.654.654,0,0,0,0-1.308Z" transform="translate(-246.651 -384.541)" fill="#707070"/>
        <path id="Path_5190" data-name="Path 5190" d="M98.648,8.715a.7.7,0,0,0,.7-.7V2.356A2.359,2.359,0,0,0,96.995,0H68.824a2.359,2.359,0,0,0-2.356,2.356v.9h-.9a2.359,2.359,0,0,0-2.356,2.356V35.722a.7.7,0,1,0,1.406,0V5.609a.951.951,0,0,1,.95-.95H93.742a.951.951,0,0,1,.95.95v40.02a.951.951,0,0,1-.95.95H65.571a.951.951,0,0,1-.95-.95V39a.7.7,0,1,0-1.406,0v6.626a2.359,2.359,0,0,0,2.356,2.356H93.742A2.359,2.359,0,0,0,96.1,45.628v-.9h.9a2.359,2.359,0,0,0,2.356-2.356V11.292a.7.7,0,0,0-1.406,0V42.376a.951.951,0,0,1-.95.95h-.9V5.609a2.359,2.359,0,0,0-2.356-2.356H67.874v-.9a.951.951,0,0,1,.95-.95H96.995a.951.951,0,0,1,.95.95V8.012a.7.7,0,0,0,.7.7Z" transform="translate(-63.215 0)" fill="#707070"/>
      </g>
      <g id="customer-support" transform="translate(1661.394 2653.667)">
        <path id="Path_5195" data-name="Path 5195" d="M.4,3.664,3.008,8.233a.652.652,0,0,0,.408.309l2.435.609L14.2,17.5l.923-.923L6.644,8.1a.651.651,0,0,0-.3-.172L4,7.339,1.778,3.447,3.684,1.541,7.577,3.766l.587,2.34a.651.651,0,0,0,.172.3l8.484,8.484.923-.923L9.389,5.617,8.78,3.183a.654.654,0,0,0-.309-.409L3.9.164a.653.653,0,0,0-.783.1L.509,2.88A.653.653,0,0,0,.4,3.664Zm0,0" transform="translate(-0.038 -0.074)" fill="#707070" stroke="#707070" stroke-width="0.3"/>
        <path id="Path_5196" data-name="Path 5196" d="M189.26,174.641,174.9,189l-.923-.923,14.357-14.357Zm0,0" transform="translate(-161.769 -161.78)" fill="#707070" stroke="#707070" stroke-width="0.3"/>
        <path id="Path_5197" data-name="Path 5197" d="M54.838,399.152a.652.652,0,0,0-.559-.316H50.363a.652.652,0,0,0-.559.316l-1.958,3.263a.653.653,0,0,0,0,.672L49.8,406.35a.652.652,0,0,0,.559.317h3.916a.653.653,0,0,0,.559-.317l1.958-3.263a.653.653,0,0,0,0-.672Zm-.929,6.209H50.733l-1.566-2.61,1.566-2.611H53.91l1.566,2.611Zm0,0" transform="translate(-44.216 -371.425)" fill="#707070" stroke="#707070" stroke-width="0.3"/>
        <path id="Path_5198" data-name="Path 5198" d="M31.6,15.664A7.8,7.8,0,0,0,39.189,5.94a.652.652,0,0,0-1.094-.3L34.032,9.7,30.809,8.622,29.734,5.4,33.8,1.336a.653.653,0,0,0-.306-1.1,7.807,7.807,0,0,0-9.724,7.592,7.66,7.66,0,0,0,.159,1.529L9.634,23.654A7.7,7.7,0,0,0,8.1,23.495a7.831,7.831,0,1,0,7.831,7.831,7.68,7.68,0,0,0-.159-1.529L19.2,26.375l1.5,1.5a.653.653,0,0,0,.923,0l.326-.326a.732.732,0,0,1,1.036,1.034h0l-.326.326a.653.653,0,0,0,0,.923l7.785,7.785A5.267,5.267,0,1,0,37.92,30.2l-.034-.034L30.1,22.381a.652.652,0,0,0-.923,0l-.326.326a.732.732,0,0,1-1.037-1.034h0l.326-.326a.652.652,0,0,0,0-.923l-1.5-1.5,3.422-3.422A7.679,7.679,0,0,0,31.6,15.664Zm2.564,22.188a3.966,3.966,0,0,1-1.388-.253l5.1-5.1a3.958,3.958,0,0,1-3.709,5.35ZM26.769,20.891a2.037,2.037,0,0,0,2.871,2.867l7.324,7.33c.079.08.154.164.226.249l-5.58,5.58c-.086-.072-.17-.146-.249-.226l-7.329-7.33a2.037,2.037,0,0,0-2.871-2.868L20.116,25.45l5.609-5.6ZM29.4,14.327l-14.8,14.8a.654.654,0,0,0-.172.62A6.569,6.569,0,1,1,9.682,25a.658.658,0,0,0,.62-.172l14.8-14.8a.652.652,0,0,0,.172-.62,6.494,6.494,0,0,1,6.694-8.092L28.526,4.761a.652.652,0,0,0-.158.667l1.3,3.916a.653.653,0,0,0,.413.412L34,11.062a.653.653,0,0,0,.667-.157l3.442-3.442c.008.125.012.248.012.37a6.492,6.492,0,0,1-8.1,6.323.653.653,0,0,0-.62.172h0Zm0,0" transform="translate(0 0)" fill="#707070" stroke="#707070" stroke-width="0.3"/>
        <path id="Path_5199" data-name="Path 5199" d="M390.339,389.151l-.923.923-6.526-6.526.923-.923Zm0,0" transform="translate(-356.321 -356.328)" fill="#707070" stroke="#707070" stroke-width="0.3"/>
      </g>
      <g id="power-plant_4_" data-name="power-plant (4)" transform="translate(1452 2769)">
        <path id="Path_5273" data-name="Path 5273" d="M22.583,29.166a7.083,7.083,0,1,1,7.083-7.083A7.091,7.091,0,0,1,22.583,29.166Zm0-11.13a4.047,4.047,0,1,0,4.047,4.047A4.052,4.052,0,0,0,22.583,18.036Z" transform="translate(15.868 15.356)" fill="#707070"/>
        <path id="Path_5274" data-name="Path 5274" d="M19.768,27.583a1.518,1.518,0,0,1-1.518-1.518V22.018a1.518,1.518,0,0,1,3.036,0v4.047A1.518,1.518,0,0,1,19.768,27.583Z" transform="translate(18.683 20.986)" fill="#707070"/>
        <path id="Path_5275" data-name="Path 5275" d="M19.768,20.083a1.518,1.518,0,0,1-1.518-1.518V14.518a1.518,1.518,0,0,1,3.036,0v4.047A1.518,1.518,0,0,1,19.768,20.083Z" transform="translate(18.683 13.308)" fill="#707070"/>
        <path id="Path_5276" data-name="Path 5276" d="M22.15,20.438a1.517,1.517,0,0,1-.716-2.855l3.784-2.024a1.518,1.518,0,0,1,1.431,2.677L22.864,20.26a1.519,1.519,0,0,1-.714.178Z" transform="translate(21.12 15.746)" fill="#707070"/>
        <path id="Path_5277" data-name="Path 5277" d="M15.52,24.178a1.517,1.517,0,0,1-.716-2.855L18.587,19.3a1.518,1.518,0,0,1,1.431,2.677L16.234,24a1.518,1.518,0,0,1-.714.178Z" transform="translate(14.332 19.575)" fill="#707070"/>
        <path id="Path_5278" data-name="Path 5278" d="M19.3,20.439a1.518,1.518,0,0,1-.714-.178L14.8,18.237a1.518,1.518,0,1,1,1.431-2.677l3.784,2.024a1.517,1.517,0,0,1-.716,2.855Z" transform="translate(14.332 15.745)" fill="#707070"/>
        <path id="Path_5279" data-name="Path 5279" d="M25.931,24.179A1.518,1.518,0,0,1,25.216,24l-3.784-2.024A1.518,1.518,0,1,1,22.863,19.3l3.784,2.024a1.517,1.517,0,0,1-.716,2.855Z" transform="translate(21.119 19.574)" fill="#707070"/>
        <path id="Path_5280" data-name="Path 5280" d="M12.053,15.536H9.018a1.518,1.518,0,0,1,0-3.036h3.036a1.518,1.518,0,0,1,0,3.036Z" transform="translate(7.678 12.797)" fill="#707070"/>
        <path id="Path_5281" data-name="Path 5281" d="M7.553,15.536H4.518a1.518,1.518,0,0,1,0-3.036H7.553a1.518,1.518,0,0,1,0,3.036Z" transform="translate(3.071 12.797)" fill="#707070"/>
        <path id="Path_5282" data-name="Path 5282" d="M22.767,29.237H1.518A1.518,1.518,0,0,1,0,27.719V14.565A5.57,5.57,0,0,1,5.565,9H27.826a5.57,5.57,0,0,1,5.565,5.565v2.024a1.518,1.518,0,1,1-3.036,0V14.565a2.533,2.533,0,0,0-2.53-2.53H5.565a2.533,2.533,0,0,0-2.53,2.53V26.2H22.767a1.518,1.518,0,1,1,0,3.036Z" transform="translate(0 9.214)" fill="#707070"/>
        <path id="Path_5283" data-name="Path 5283" d="M21.437,14.514A1.518,1.518,0,0,1,19.919,13V10.042a.506.506,0,0,0-.506-.506H8.748a1.518,1.518,0,0,1,0-3.036H19.413a3.545,3.545,0,0,1,3.542,3.542V13A1.518,1.518,0,0,1,21.437,14.514Z" transform="translate(7.402 6.654)" fill="#707070"/>
        <path id="Path_5284" data-name="Path 5284" d="M13.885,21.249a1.518,1.518,0,0,1-1.5-1.269L9.637,3.457a.506.506,0,0,0-.5-.421H8.518a.506.506,0,0,0-.5.425L5.266,19.98a1.518,1.518,0,0,1-3-.5L5.023,2.959A3.535,3.535,0,0,1,8.518,0h.621a3.533,3.533,0,0,1,3.493,2.957l2.752,16.526a1.516,1.516,0,0,1-1.5,1.767Z" transform="translate(2.303)" fill="#707070"/>
      </g>
      <g id="speed" transform="translate(625 2754.877)">
        <path id="Path_5285" data-name="Path 5285" d="M48.668,9.368h-.884a5.724,5.724,0,0,0-11.331,0H34.708a8.187,8.187,0,0,0-16.293,0H16.672a5.724,5.724,0,0,0-11.331,0H4.456A2.464,2.464,0,0,0,2,11.825V48.668a2.464,2.464,0,0,0,2.456,2.456H48.668a2.464,2.464,0,0,0,2.456-2.456V11.825a2.464,2.464,0,0,0-2.456-2.456ZM38.524,8.263l3.07,2.554,1.048-1.261L39.572,7a4.161,4.161,0,1,1-1.048,1.261ZM26.562,3.637a6.488,6.488,0,0,1,4.012,1.384L25.981,9.606l1.163,1.163,4.585-4.593a6.542,6.542,0,1,1-5.166-2.538ZM11.006,6.093a4.158,4.158,0,0,1,1.539.3l-2.219,3.34,1.359.9,2.227-3.332a4.094,4.094,0,1,1-2.907-1.212Zm38.48,42.574a.819.819,0,0,1-.819.819H4.456a.819.819,0,0,1-.819-.819V11.825a.819.819,0,0,1,.819-.819H5.34a5.724,5.724,0,0,0,11.331,0h1.744a8.187,8.187,0,0,0,16.293,0h1.744a5.724,5.724,0,0,0,11.331,0h.884a.819.819,0,0,1,.819.819Z" transform="translate(0)" fill="#707070"/>
        <path id="Path_5286" data-name="Path 5286" d="M28.918,24A13.918,13.918,0,1,0,42.837,37.918,13.918,13.918,0,0,0,28.918,24Zm0,26.2A12.281,12.281,0,1,1,41.2,37.918,12.281,12.281,0,0,1,28.918,50.2Z" transform="translate(-2.356 -3.988)" fill="#707070"/>
        <path id="Path_5287" data-name="Path 5287" d="M40.287,38.644a10.644,10.644,0,1,0-21.287,0h1.637a9.006,9.006,0,1,1,18.012,0Z" transform="translate(-3.082 -4.713)" fill="#707070"/>
        <path id="Path_5288" data-name="Path 5288" d="M36.779,33.725a.819.819,0,0,0-1.04.18c-6.271,7.581-6.345,7.7-6.4,7.8a2.45,2.45,0,1,0,4.241,2.456.826.826,0,0,0,.057-.123l3.5-9.325A.819.819,0,0,0,36.779,33.725Zm-4.65,9.661a.811.811,0,0,1-1.49-.45.861.861,0,0,1,.106-.393c.229-.295,1.588-1.94,3.136-3.815Z" transform="translate(-4.895 -5.731)" fill="#707070"/>
        <path id="Path_5289" data-name="Path 5289" d="M35,49h4.912v1.637H35Z" transform="translate(-5.982 -8.52)" fill="#707070"/>
        <path id="Path_5290" data-name="Path 5290" d="M23,49h4.912v1.637H23Z" transform="translate(-3.807 -8.52)" fill="#707070"/>
        <path id="Path_5291" data-name="Path 5291" d="M19,43h1.637v1.637H19Z" transform="translate(-3.082 -7.432)" fill="#707070"/>
        <path id="Path_5292" data-name="Path 5292" d="M43,43h1.637v1.637H43Z" transform="translate(-7.432 -7.432)" fill="#707070"/>
        <path id="Path_5293" data-name="Path 5293" d="M46,52h6.55v1.637H46Z" transform="translate(-7.976 -9.064)" fill="#707070"/>
        <path id="Path_5294" data-name="Path 5294" d="M56,52h1.637v1.637H56Z" transform="translate(-9.788 -9.064)" fill="#707070"/>
        <path id="Path_5295" data-name="Path 5295" d="M56,21h1.637v1.637H56Z" transform="translate(-9.788 -3.444)" fill="#707070"/>
        <path id="Path_5296" data-name="Path 5296" d="M46,56h3.275v1.637H46Z" transform="translate(-7.976 -9.789)" fill="#707070"/>
        <path id="Path_5297" data-name="Path 5297" d="M52,56h4.912v1.637H52Z" transform="translate(-9.063 -9.789)" fill="#707070"/>
        <path id="Path_5298" data-name="Path 5298" d="M10,52h6.55v1.637H10Z" transform="translate(-1.45 -9.064)" fill="#707070"/>
        <path id="Path_5299" data-name="Path 5299" d="M6,52H7.637v1.637H6Z" transform="translate(-0.725 -9.064)" fill="#707070"/>
        <path id="Path_5300" data-name="Path 5300" d="M14,56h3.275v1.637H14Z" transform="translate(-2.175 -9.789)" fill="#707070"/>
        <path id="Path_5301" data-name="Path 5301" d="M6,56h4.912v1.637H6Z" transform="translate(-0.725 -9.789)" fill="#707070"/>
        <path id="Path_5302" data-name="Path 5302" d="M46,21h6.55v1.637H46Z" transform="translate(-7.976 -3.444)" fill="#707070"/>
        <path id="Path_5303" data-name="Path 5303" d="M46,25h3.275v1.637H46Z" transform="translate(-7.976 -4.169)" fill="#707070"/>
        <path id="Path_5304" data-name="Path 5304" d="M52,25h4.912v1.637H52Z" transform="translate(-9.063 -4.169)" fill="#707070"/>
        <path id="Path_5305" data-name="Path 5305" d="M10,21h6.55v1.637H10Z" transform="translate(-1.45 -3.444)" fill="#707070"/>
        <path id="Path_5306" data-name="Path 5306" d="M6,21H7.637v1.637H6Z" transform="translate(-0.725 -3.444)" fill="#707070"/>
        <path id="Path_5307" data-name="Path 5307" d="M14,25h3.275v1.637H14Z" transform="translate(-2.175 -4.169)" fill="#707070"/>
        <path id="Path_5308" data-name="Path 5308" d="M6,25h4.912v1.637H6Z" transform="translate(-0.725 -4.169)" fill="#707070"/>
      </g>
    </g>
  </g>
</svg>
