<svg xmlns="http://www.w3.org/2000/svg" width="973.123" height="608.098" viewBox="0 0 973.123 608.098">
  <g id="Group_3068" data-name="Group 3068" transform="translate(-537 -3559)">
    <g id="Group_2995" data-name="Group 2995" transform="translate(607.448 3677.42)" opacity="0.452">
      <path id="Path_5233" data-name="Path 5233" d="M262.638-245.924,225.72-309.87l36.918-63.946h73.837L373.4-309.87l-36.92,63.946Z" transform="translate(-213.72 373.815)" fill="#eaeaea"/>
    </g>
    <g id="Group_3020" data-name="Group 3020" transform="translate(1362.448 3870.42)" opacity="0.452">
      <path id="Path_5233-2" data-name="Path 5233" d="M262.638-245.924,225.72-309.87l36.918-63.946h73.837L373.4-309.87l-36.92,63.946Z" transform="translate(-225.72 373.815)" fill="#eaeaea"/>
    </g>
    <g id="Group_2996" data-name="Group 2996" transform="translate(823.722 3559)" opacity="0.452">
      <path id="Path_5234" data-name="Path 5234" d="M385.154-318.075l-36.918-63.946,36.918-63.945h73.837l36.92,63.945-36.92,63.946Z" transform="translate(-348.236 445.966)" fill="#eaeaea"/>
    </g>
    <g id="Group_2997" data-name="Group 2997" transform="translate(1196.042 3610.415)" opacity="0.452">
      <path id="Path_5235" data-name="Path 5235" d="M586.571-342.47,565.3-379.31l21.27-36.84H629.11l21.271,36.84L629.11-342.47Z" transform="translate(-561.302 419.151)" fill="#eaeaea"/>
    </g>
    <g id="Group_2998" data-name="Group 2998" transform="translate(667.018 4058.96)" opacity="0.452">
      <path id="Path_5236" data-name="Path 5236" d="M277.474-77.723,256.2-114.563l21.269-36.84h42.539l21.271,36.84-21.271,36.84Z" transform="translate(-256.204 151.403)" fill="#eaeaea"/>
    </g>
    <path id="Path_5237" data-name="Path 5237" d="M244.048-65.931,179.069-178.48l64.979-112.549H374.005L438.988-178.48,374.005-65.931Z" transform="translate(357.932 4111.028)" fill="#eaeaea"/>
    <path id="Path_5238" data-name="Path 5238" d="M363.843-137.695,298.864-250.244l64.979-112.549H493.8l64.983,112.549L493.8-137.695Z" transform="translate(444.135 4064.792)" fill="#eaeaea"/>
    <path id="Path_5239" data-name="Path 5239" d="M485.715-68.729,420.736-181.278l64.979-112.549H615.673l64.983,112.549L615.673-68.729Z" transform="translate(529.264 4113.827)" fill="#eaeaea"/>
    <path id="Path_5240" data-name="Path 5240" d="M605.623-140.984,540.644-253.533l64.979-112.549H735.581l64.983,112.549L735.581-140.984Z" transform="translate(615.355 4068.082)" fill="#eaeaea"/>
    <g id="Group_2999" data-name="Group 2999" transform="translate(950 3580)">
      <path id="Path_5242" data-name="Path 5242" d="M483.638-208.551,418.659-321.1l64.979-112.549H613.6L678.579-321.1,613.6-208.551Z" transform="translate(-418.659 433.649)" fill="#eaeaea"/>
    </g>
    <path id="Path_5244" data-name="Path 5244" d="M607.963-1.11,542.984-113.659l64.979-112.549H737.921L802.9-113.659,737.921-1.11Z" transform="translate(613.016 4168.207)" fill="#eaeaea"/>
    <g id="Group_3001" data-name="Group 3001" transform="translate(743 3942)">
      <path id="Path_5245" data-name="Path 5245" d="M364.841,1.849,299.862-110.7l64.979-112.549H494.8L559.781-110.7,494.8,1.849Z" transform="translate(-299.862 223.249)" fill="#eaeaea"/>
    </g>
    <text id="Change_Meter" data-name="Change Meter" transform="translate(604 3945)" fill="#21232a" font-size="18" font-family="HelveticaNeue-Bold, Helvetica Neue" font-weight="700"><tspan x="0" y="0">Change Meter</tspan></text>
    <text id="Unreleased_Meter" data-name="Unreleased Meter" transform="translate(796 3833)" fill="#21232a" font-size="18" font-family="HelveticaNeue-Bold, Helvetica Neue" font-weight="700"><tspan x="0" y="0">Unreleased Meter</tspan></text>
    <text id="Spark_Meter_Status" data-name="Spark Meter Status" transform="translate(789 4063)" fill="#21232a" font-size="18" font-family="HelveticaNeue-Bold, Helvetica Neue" font-weight="700"><tspan x="0" y="0">Spark Meter Status</tspan></text>
    <text id="Spark_Feeder_Status" data-name="Spark Feeder Status" transform="translate(993 3709)" fill="#21232a" font-size="18" font-family="HelveticaNeue-Bold, Helvetica Neue" font-weight="700"><tspan x="0" y="0">Spark Feeder Status</tspan></text>
    <text id="Meter_Reading" data-name="Meter Reading" transform="translate(1017 3955)" fill="#21232a" font-size="18" font-family="HelveticaNeue-Bold, Helvetica Neue" font-weight="700"><tspan x="0" y="0">Meter Reading</tspan></text>
    <text id="Meter_Reading_Review" data-name="Meter Reading Review" transform="translate(1189 3832)" fill="#21232a" font-size="18" font-family="HelveticaNeue-Bold, Helvetica Neue" font-weight="700"><tspan x="0" y="0">Meter Reading Review</tspan></text>
    <text id="Review_a_meter_status" data-name="Review a meter
status" transform="translate(665 3968)" fill="#21232a" font-size="14" font-family="HelveticaNeue, Helvetica Neue"><tspan x="-48.349" y="0">Review a meter</tspan><tspan x="-19.061" y="22">status</tspan></text>
    <text id="Review_the_status_of_a_Meter_replacement_Issue" data-name="Review the status of a 
Meter replacement
Issue" transform="translate(872 3860)" fill="#21232a" font-size="14" font-family="HelveticaNeue, Helvetica Neue"><tspan x="-71.169" y="0">Review the status of a </tspan><tspan x="-58.87" y="22">Meter replacement</tspan><tspan x="-16.464" y="44">Issue</tspan></text>
    <text id="Review_the_status_of_a_spark_feeder" data-name="Review the status
of a spark feeder" transform="translate(872 4090)" fill="#21232a" font-size="14" font-family="HelveticaNeue, Helvetica Neue"><tspan x="-55.482" y="0">Review the status</tspan><tspan x="-52.892" y="22">of a spark feeder</tspan></text>
    <text id="Review_the_status_of_a_spark_feeder-2" data-name="Review the status
of a spark feeder" transform="translate(1079 3738)" fill="#21232a" font-size="14" font-family="HelveticaNeue, Helvetica Neue"><tspan x="-55.482" y="0">Review the status</tspan><tspan x="-52.892" y="22">of a spark feeder</tspan></text>
    <text id="Enter_diesel_consumption_data" data-name="Enter diesel
consumption data" transform="translate(1079 3982)" fill="#21232a" font-size="14" font-family="HelveticaNeue, Helvetica Neue"><tspan x="-36.687" y="0">Enter diesel</tspan><tspan x="-56.672" y="22">consumption data</tspan></text>
    <text id="Overview_proof_of_bank_deposits" data-name="Overview proof of
bank deposits" transform="translate(1285 3859)" fill="#21232a" font-size="14" font-family="HelveticaNeue, Helvetica Neue"><tspan x="-55.475" y="0">Overview proof of</tspan><tspan x="-44.219" y="22">bank deposits</tspan></text>
    <text id="TERMS_Status" data-name="TERMS Status" transform="translate(1219 4063)" fill="#21232a" font-size="18" font-family="HelveticaNeue-Bold, Helvetica Neue" font-weight="700"><tspan x="0" y="0">TERMS Status</tspan></text>
    <text id="Review_all_TERMS_meters" data-name="Review all TERMS
meters" transform="translate(1281 4090)" fill="#21232a" font-size="14" font-family="HelveticaNeue, Helvetica Neue"><tspan x="-57.155" y="0">Review all TERMS</tspan><tspan x="-21.525" y="22">meters</tspan></text>
    <g id="seo-report_1_" data-name="seo-report (1)" transform="translate(1195.624 3747.983)">
      <g id="Group_2581" data-name="Group 2581" transform="translate(66.67)">
        <path id="Path_4355" data-name="Path 4355" d="M103.341,0H67.411a.741.741,0,0,0-.741.741v35.2a.741.741,0,1,0,1.482,0V1.482H102.6V6.14a.741.741,0,1,0,1.482,0V.741A.741.741,0,0,0,103.341,0Z" transform="translate(-66.67)" fill="#707070"/>
        <path id="Path_4356" data-name="Path 4356" d="M103.341,89.65a.741.741,0,0,0-.741.741V129.9H68.152V120.19a.741.741,0,0,0-1.482,0v10.447a.741.741,0,0,0,.741.741h35.93a.741.741,0,0,0,.741-.741V90.391A.741.741,0,0,0,103.341,89.65Z" transform="translate(-66.67 -80.792)" fill="#707070"/>
        <path id="Path_4357" data-name="Path 4357" d="M99,103.717a5.731,5.731,0,1,0,5.731-5.731A5.738,5.738,0,0,0,99,103.717Zm5.731,4.249a4.249,4.249,0,0,1-.741-8.432v4.183a.741.741,0,0,0,.741.741h4.183A4.255,4.255,0,0,1,104.727,107.967Zm4.183-4.99h-3.442V99.534A4.259,4.259,0,0,1,108.91,102.976Z" transform="translate(-95.802 -88.305)" fill="#707070"/>
        <path id="Path_4358" data-name="Path 4358" d="M103.777,432.35a.741.741,0,0,0-.741.741v3.194a.741.741,0,0,0,.741.741h4.791a.741.741,0,0,0,.741-.741v-3.194a.741.741,0,0,0-.741-.741Zm4.05,3.194h-3.309v-1.712h3.309Z" transform="translate(-99.443 -389.633)" fill="#707070"/>
        <path id="Path_4359" data-name="Path 4359" d="M184.591,393.328h4.791a.741.741,0,0,0,.741-.741V384.6a.741.741,0,0,0-.741-.741h-4.791a.741.741,0,0,0-.741.741v7.984A.741.741,0,0,0,184.591,393.328Zm.741-7.984h3.309v6.5h-3.309Z" transform="translate(-172.272 -345.936)" fill="#707070"/>
        <path id="Path_4360" data-name="Path 4360" d="M265.4,323.252a.741.741,0,0,0-.741.741v13.973a.741.741,0,0,0,.741.741h4.791a.741.741,0,0,0,.741-.741V323.993a.741.741,0,0,0-.741-.741Zm4.05,13.973h-3.309V324.734h3.309Z" transform="translate(-245.101 -291.314)" fill="#707070"/>
        <path id="Path_4361" data-name="Path 4361" d="M351.011,286.945a.741.741,0,0,0,.741-.741v-2.613a.741.741,0,0,0-.741-.741h-4.79a.741.741,0,0,0-.741.741v17.964a.741.741,0,0,0,.741.741h4.79a.741.741,0,0,0,.741-.741V289.662a.741.741,0,0,0-1.482,0v11.152h-3.308V284.332h3.308V286.2A.741.741,0,0,0,351.011,286.945Z" transform="translate(-317.933 -254.904)" fill="#707070"/>
        <path id="Path_4362" data-name="Path 4362" d="M184.4,32.325H168.428a.741.741,0,0,0-.741.741V36.26a.741.741,0,0,0,.741.741H184.4a.741.741,0,0,0,.741-.741V33.066A.741.741,0,0,0,184.4,32.325Zm-.741,3.194H169.169V33.807h14.487v1.712Z" transform="translate(-157.706 -29.131)" fill="#707070"/>
        <path id="Path_4363" data-name="Path 4363" d="M264.012,97.986H249.241a.741.741,0,0,0,0,1.482h14.771a.741.741,0,0,0,0-1.482Z" transform="translate(-230.535 -88.305)" fill="#707070"/>
        <path id="Path_4364" data-name="Path 4364" d="M264.012,131.658H249.241a.741.741,0,0,0,0,1.482h14.771a.741.741,0,0,0,0-1.482Z" transform="translate(-230.535 -118.65)" fill="#707070"/>
        <path id="Path_4365" data-name="Path 4365" d="M264.753,166.071a.741.741,0,0,0-.741-.741H249.241a.741.741,0,0,0,0,1.482h14.771A.741.741,0,0,0,264.753,166.071Z" transform="translate(-230.535 -148.995)" fill="#707070"/>
        <path id="Path_4366" data-name="Path 4366" d="M258.765,199.743a.741.741,0,0,0-.741-.741h-8.783a.741.741,0,0,0,0,1.482h8.783A.741.741,0,0,0,258.765,199.743Z" transform="translate(-230.535 -179.34)" fill="#707070"/>
        <path id="Path_4367" data-name="Path 4367" d="M126.343,248.5H112.869a.741.741,0,1,0,0,1.482h13.474a.741.741,0,0,0,0-1.482Z" transform="translate(-107.637 -223.948)" fill="#707070"/>
        <path id="Path_4368" data-name="Path 4368" d="M127.084,282.913a.741.741,0,0,0-.741-.741H112.869a.741.741,0,1,0,0,1.482h13.474A.741.741,0,0,0,127.084,282.913Z" transform="translate(-107.637 -254.293)" fill="#707070"/>
        <path id="Path_4369" data-name="Path 4369" d="M121.1,316.585a.741.741,0,0,0-.741-.741h-7.485a.741.741,0,1,0,0,1.482h7.485A.741.741,0,0,0,121.1,316.585Z" transform="translate(-107.637 -284.638)" fill="#707070"/>
      </g>
    </g>
    <g id="seo-report_2_" data-name="seo-report (2)" transform="translate(1059.402 3632.906)">
      <path id="Path_5177" data-name="Path 5177" d="M259.449,109.661h9.088a.654.654,0,1,0,0-1.308h-9.088a.654.654,0,1,0,0,1.308Z" transform="translate(-240.465 -98.198)" fill="#707070"/>
      <path id="Path_5178" data-name="Path 5178" d="M258.8,141.642a.654.654,0,0,0,.654.654h9.088a.654.654,0,0,0,0-1.308h-9.088A.654.654,0,0,0,258.8,141.642Z" transform="translate(-240.465 -127.775)" fill="#707070"/>
      <path id="Path_5179" data-name="Path 5179" d="M259.449,174.931h9.088a.654.654,0,1,0,0-1.308h-9.088a.654.654,0,1,0,0,1.308Z" transform="translate(-240.465 -157.351)" fill="#707070"/>
      <path id="Path_5180" data-name="Path 5180" d="M275.376,356.407a.654.654,0,0,0-.654-.654h-8.448a.654.654,0,0,0,0,1.308h8.448A.654.654,0,0,0,275.376,356.407Z" transform="translate(-246.652 -322.412)" fill="#707070"/>
      <path id="Path_5181" data-name="Path 5181" d="M117.973,288.333a.654.654,0,0,0-.654-.654h-9.088a.654.654,0,0,0,0,1.308h9.088A.654.654,0,0,0,117.973,288.333Z" transform="translate(-103.42 -260.718)" fill="#707070"/>
      <path id="Path_5182" data-name="Path 5182" d="M108.232,256.353h9.088a.654.654,0,0,0,0-1.308h-9.088a.654.654,0,0,0,0,1.308Z" transform="translate(-103.42 -231.142)" fill="#707070"/>
      <path id="Path_5183" data-name="Path 5183" d="M106.857,72.694a6.776,6.776,0,1,0,6.776,6.776,6.784,6.784,0,0,0-6.776-6.776Zm0,12.146a5.37,5.37,0,0,1-.7-10.695V79.47a.7.7,0,0,0,.7.7h5.324A5.378,5.378,0,0,1,106.857,84.84Zm.7-6.073V74.146a5.382,5.382,0,0,1,4.622,4.622Z" transform="translate(-96.626 -65.881)" fill="#707070"/>
      <path id="Path_5184" data-name="Path 5184" d="M236.417,233.841v6.277a1.14,1.14,0,0,0,1.139,1.139h10.918a1.14,1.14,0,0,0,1.139-1.139v-6.277a1.14,1.14,0,0,0-1.139-1.139H237.556a1.14,1.14,0,0,0-1.139,1.139Zm1.406.267h10.384v5.742H237.823Z" transform="translate(-220.185 -210.893)" fill="#707070"/>
      <path id="Path_5185" data-name="Path 5185" d="M100.078,346.755a1.14,1.14,0,0,0,1.139,1.139h1.91a1.14,1.14,0,0,0,1.139-1.139v-9.535a1.14,1.14,0,0,0-1.139-1.139h-1.91a1.14,1.14,0,0,0-1.139,1.139Zm1.406-9.268h1.376v9h-1.376Z" transform="translate(-96.623 -304.585)" fill="#707070"/>
      <path id="Path_5186" data-name="Path 5186" d="M156.587,362.775a1.14,1.14,0,0,0-1.139,1.139v7.033a1.14,1.14,0,0,0,1.139,1.139h1.91a1.14,1.14,0,0,0,1.139-1.139v-7.033a1.14,1.14,0,0,0-1.139-1.139Zm1.643,7.9h-1.376v-6.5h1.376Z" transform="translate(-146.804 -328.776)" fill="#707070"/>
      <path id="Path_5187" data-name="Path 5187" d="M211.957,402.225h1.91a1.14,1.14,0,0,0,1.139-1.139V397.17a1.14,1.14,0,0,0-1.139-1.139h-1.91a1.14,1.14,0,0,0-1.139,1.139v3.916A1.14,1.14,0,0,0,211.957,402.225Zm.267-4.788H213.6v3.382h-1.376Z" transform="translate(-196.985 -358.915)" fill="#707070"/>
      <path id="Path_5188" data-name="Path 5188" d="M274.722,390.03h-8.448a.654.654,0,1,0,0,1.308h8.448a.654.654,0,0,0,0-1.308Z" transform="translate(-246.651 -353.477)" fill="#707070"/>
      <path id="Path_5189" data-name="Path 5189" d="M274.722,424.307h-8.448a.654.654,0,1,0,0,1.308h8.448a.654.654,0,0,0,0-1.308Z" transform="translate(-246.651 -384.541)" fill="#707070"/>
      <path id="Path_5190" data-name="Path 5190" d="M98.648,8.715a.7.7,0,0,0,.7-.7V2.356A2.359,2.359,0,0,0,96.995,0H68.824a2.359,2.359,0,0,0-2.356,2.356v.9h-.9a2.359,2.359,0,0,0-2.356,2.356V35.722a.7.7,0,1,0,1.406,0V5.609a.951.951,0,0,1,.95-.95H93.742a.951.951,0,0,1,.95.95v40.02a.951.951,0,0,1-.95.95H65.571a.951.951,0,0,1-.95-.95V39a.7.7,0,1,0-1.406,0v6.626a2.359,2.359,0,0,0,2.356,2.356H93.742A2.359,2.359,0,0,0,96.1,45.628v-.9h.9a2.359,2.359,0,0,0,2.356-2.356V11.292a.7.7,0,0,0-1.406,0V42.376a.951.951,0,0,1-.95.95h-.9V5.609a2.359,2.359,0,0,0-2.356-2.356H67.874v-.9a.951.951,0,0,1,.95-.95H96.995a.951.951,0,0,1,.95.95V8.012a.7.7,0,0,0,.7.7Z" transform="translate(-63.215 0)" fill="#707070"/>
    </g>
    <g id="speed" transform="translate(640 3858.877)">
      <path id="Path_5285" data-name="Path 5285" d="M48.668,9.368h-.884a5.724,5.724,0,0,0-11.331,0H34.708a8.187,8.187,0,0,0-16.293,0H16.672a5.724,5.724,0,0,0-11.331,0H4.456A2.464,2.464,0,0,0,2,11.825V48.668a2.464,2.464,0,0,0,2.456,2.456H48.668a2.464,2.464,0,0,0,2.456-2.456V11.825a2.464,2.464,0,0,0-2.456-2.456ZM38.524,8.263l3.07,2.554,1.048-1.261L39.572,7a4.161,4.161,0,1,1-1.048,1.261ZM26.562,3.637a6.488,6.488,0,0,1,4.012,1.384L25.981,9.606l1.163,1.163,4.585-4.593a6.542,6.542,0,1,1-5.166-2.538ZM11.006,6.093a4.158,4.158,0,0,1,1.539.3l-2.219,3.34,1.359.9,2.227-3.332a4.094,4.094,0,1,1-2.907-1.212Zm38.48,42.574a.819.819,0,0,1-.819.819H4.456a.819.819,0,0,1-.819-.819V11.825a.819.819,0,0,1,.819-.819H5.34a5.724,5.724,0,0,0,11.331,0h1.744a8.187,8.187,0,0,0,16.293,0h1.744a5.724,5.724,0,0,0,11.331,0h.884a.819.819,0,0,1,.819.819Z" transform="translate(0)" fill="#707070"/>
      <path id="Path_5286" data-name="Path 5286" d="M28.918,24A13.918,13.918,0,1,0,42.837,37.918,13.918,13.918,0,0,0,28.918,24Zm0,26.2A12.281,12.281,0,1,1,41.2,37.918,12.281,12.281,0,0,1,28.918,50.2Z" transform="translate(-2.356 -3.988)" fill="#707070"/>
      <path id="Path_5287" data-name="Path 5287" d="M40.287,38.644a10.644,10.644,0,1,0-21.287,0h1.637a9.006,9.006,0,1,1,18.012,0Z" transform="translate(-3.082 -4.713)" fill="#707070"/>
      <path id="Path_5288" data-name="Path 5288" d="M36.779,33.725a.819.819,0,0,0-1.04.18c-6.271,7.581-6.345,7.7-6.4,7.8a2.45,2.45,0,1,0,4.241,2.456.826.826,0,0,0,.057-.123l3.5-9.325A.819.819,0,0,0,36.779,33.725Zm-4.65,9.661a.811.811,0,0,1-1.49-.45.861.861,0,0,1,.106-.393c.229-.295,1.588-1.94,3.136-3.815Z" transform="translate(-4.895 -5.731)" fill="#707070"/>
      <path id="Path_5289" data-name="Path 5289" d="M35,49h4.912v1.637H35Z" transform="translate(-5.982 -8.52)" fill="#707070"/>
      <path id="Path_5290" data-name="Path 5290" d="M23,49h4.912v1.637H23Z" transform="translate(-3.807 -8.52)" fill="#707070"/>
      <path id="Path_5291" data-name="Path 5291" d="M19,43h1.637v1.637H19Z" transform="translate(-3.082 -7.432)" fill="#707070"/>
      <path id="Path_5292" data-name="Path 5292" d="M43,43h1.637v1.637H43Z" transform="translate(-7.432 -7.432)" fill="#707070"/>
      <path id="Path_5293" data-name="Path 5293" d="M46,52h6.55v1.637H46Z" transform="translate(-7.976 -9.064)" fill="#707070"/>
      <path id="Path_5294" data-name="Path 5294" d="M56,52h1.637v1.637H56Z" transform="translate(-9.788 -9.064)" fill="#707070"/>
      <path id="Path_5295" data-name="Path 5295" d="M56,21h1.637v1.637H56Z" transform="translate(-9.788 -3.444)" fill="#707070"/>
      <path id="Path_5296" data-name="Path 5296" d="M46,56h3.275v1.637H46Z" transform="translate(-7.976 -9.789)" fill="#707070"/>
      <path id="Path_5297" data-name="Path 5297" d="M52,56h4.912v1.637H52Z" transform="translate(-9.063 -9.789)" fill="#707070"/>
      <path id="Path_5298" data-name="Path 5298" d="M10,52h6.55v1.637H10Z" transform="translate(-1.45 -9.064)" fill="#707070"/>
      <path id="Path_5299" data-name="Path 5299" d="M6,52H7.637v1.637H6Z" transform="translate(-0.725 -9.064)" fill="#707070"/>
      <path id="Path_5300" data-name="Path 5300" d="M14,56h3.275v1.637H14Z" transform="translate(-2.175 -9.789)" fill="#707070"/>
      <path id="Path_5301" data-name="Path 5301" d="M6,56h4.912v1.637H6Z" transform="translate(-0.725 -9.789)" fill="#707070"/>
      <path id="Path_5302" data-name="Path 5302" d="M46,21h6.55v1.637H46Z" transform="translate(-7.976 -3.444)" fill="#707070"/>
      <path id="Path_5303" data-name="Path 5303" d="M46,25h3.275v1.637H46Z" transform="translate(-7.976 -4.169)" fill="#707070"/>
      <path id="Path_5304" data-name="Path 5304" d="M52,25h4.912v1.637H52Z" transform="translate(-9.063 -4.169)" fill="#707070"/>
      <path id="Path_5305" data-name="Path 5305" d="M10,21h6.55v1.637H10Z" transform="translate(-1.45 -3.444)" fill="#707070"/>
      <path id="Path_5306" data-name="Path 5306" d="M6,21H7.637v1.637H6Z" transform="translate(-0.725 -3.444)" fill="#707070"/>
      <path id="Path_5307" data-name="Path 5307" d="M14,25h3.275v1.637H14Z" transform="translate(-2.175 -4.169)" fill="#707070"/>
      <path id="Path_5308" data-name="Path 5308" d="M6,25h4.912v1.637H6Z" transform="translate(-0.725 -4.169)" fill="#707070"/>
    </g>
    <path id="discuss-issue" d="M39.638,27.3a4.3,4.3,0,0,1-1.977,3.224c-.316.265-.9.749-.9.93a1.265,1.265,0,0,1-1.274,1.276h-.011a1.268,1.268,0,0,1-1.284-1.255,3.846,3.846,0,0,1,1.82-2.909c.64-.537,1.06-.916,1.06-1.262a1.271,1.271,0,0,0-2.542,0,1.284,1.284,0,1,1-2.569,0,3.84,3.84,0,0,1,7.68,0Zm-4.129,6.616A1.26,1.26,0,0,0,34.253,35.2v.01a1.256,1.256,0,0,0,1.256,1.28,1.287,1.287,0,0,0,0-2.574ZM9.618,42.863a1.284,1.284,0,1,0,0,2.569h.107a1.284,1.284,0,1,0,0-2.569Zm4.464,0a1.284,1.284,0,1,0,0,2.569h.107a1.284,1.284,0,1,0,0-2.569ZM51.808,22.347V36.8a6.175,6.175,0,0,1-6.168,6.2H28.982c-.326,0-.594,0-.818-.007s-.5-.007-.6,0c-.107.071-.371.313-.625.547-.1.093-.215.195-.337.307l-4.713,4.3A1.314,1.314,0,0,1,19.7,47.2V33.586H6.24a3.681,3.681,0,0,0-3.671,3.651V51.695A3.624,3.624,0,0,0,6.24,55.279H24.847a1.29,1.29,0,0,1,.857.363l3.84,3.54V46.975a1.284,1.284,0,1,1,2.569,0v15.12a1.266,1.266,0,0,1-.757,1.168,1.232,1.232,0,0,1-.509.1,1.3,1.3,0,0,1-.866-.35l-5.631-5.167H6.24A6.2,6.2,0,0,1,0,51.695V37.237a6.253,6.253,0,0,1,6.24-6.22H19.7v-8.67a6.231,6.231,0,0,1,6.261-6.173H45.64A6.151,6.151,0,0,1,51.808,22.347Zm-2.569,0a3.579,3.579,0,0,0-3.6-3.6H25.957a3.659,3.659,0,0,0-3.692,3.6V44.293l2.583-2.334c.12-.109.254-.209.351-.3a3.243,3.243,0,0,1,3.019-1.229c.21,0,.46.006.764.006H45.64a3.6,3.6,0,0,0,3.6-3.632V22.347Z" transform="translate(847 3733.287)" fill="#707070"/>
    <g id="power-plant_4_" data-name="power-plant (4)" transform="translate(1053.012 3870)">
      <path id="Path_5309" data-name="Path 5309" d="M23.018,30.035a7.518,7.518,0,1,1,7.518-7.518A7.526,7.526,0,0,1,23.018,30.035Zm0-11.813a4.3,4.3,0,1,0,4.3,4.3A4.3,4.3,0,0,0,23.018,18.222Z" transform="translate(17.792 17.218)" fill="#707070"/>
      <path id="Path_5310" data-name="Path 5310" d="M19.861,28.018a1.611,1.611,0,0,1-1.611-1.611v-4.3a1.611,1.611,0,0,1,3.222,0v4.3A1.611,1.611,0,0,1,19.861,28.018Z" transform="translate(20.949 23.531)" fill="#707070"/>
      <path id="Path_5311" data-name="Path 5311" d="M19.861,20.518a1.611,1.611,0,0,1-1.611-1.611v-4.3a1.611,1.611,0,1,1,3.222,0v4.3A1.611,1.611,0,0,1,19.861,20.518Z" transform="translate(20.949 14.922)" fill="#707070"/>
      <path id="Path_5312" data-name="Path 5312" d="M22.243,20.749a1.61,1.61,0,0,1-.76-3.031L25.5,15.57a1.611,1.611,0,1,1,1.519,2.842L23,20.56a1.612,1.612,0,0,1-.758.189Z" transform="translate(23.681 17.655)" fill="#707070"/>
      <path id="Path_5313" data-name="Path 5313" d="M15.613,24.489a1.61,1.61,0,0,1-.76-3.031l4.017-2.148a1.611,1.611,0,1,1,1.519,2.842L16.371,24.3a1.612,1.612,0,0,1-.758.189Z" transform="translate(16.07 21.948)" fill="#707070"/>
      <path id="Path_5314" data-name="Path 5314" d="M19.626,20.749a1.612,1.612,0,0,1-.758-.189l-4.017-2.148a1.611,1.611,0,0,1,1.519-2.842l4.017,2.148a1.61,1.61,0,0,1-.76,3.031Z" transform="translate(16.07 17.655)" fill="#707070"/>
      <path id="Path_5315" data-name="Path 5315" d="M26.256,24.489A1.612,1.612,0,0,1,25.5,24.3l-4.017-2.148A1.611,1.611,0,1,1,23,19.311l4.017,2.148a1.61,1.61,0,0,1-.76,3.031Z" transform="translate(23.68 21.948)" fill="#707070"/>
      <path id="Path_5316" data-name="Path 5316" d="M12.333,15.722H9.111a1.611,1.611,0,0,1,0-3.222h3.222a1.611,1.611,0,0,1,0,3.222Z" transform="translate(8.609 14.348)" fill="#707070"/>
      <path id="Path_5317" data-name="Path 5317" d="M7.833,15.722H4.611a1.611,1.611,0,0,1,0-3.222H7.833a1.611,1.611,0,0,1,0,3.222Z" transform="translate(3.444 14.348)" fill="#707070"/>
      <path id="Path_5318" data-name="Path 5318" d="M24.164,30.479H1.611A1.611,1.611,0,0,1,0,28.868V14.907A5.912,5.912,0,0,1,5.907,9H29.533a5.912,5.912,0,0,1,5.907,5.907v2.148a1.611,1.611,0,0,1-3.222,0V14.907a2.689,2.689,0,0,0-2.685-2.685H5.907a2.689,2.689,0,0,0-2.685,2.685v12.35H24.164a1.611,1.611,0,0,1,0,3.222Z" transform="translate(0 10.331)" fill="#707070"/>
      <path id="Path_5319" data-name="Path 5319" d="M22.308,15.006A1.611,1.611,0,0,1,20.7,13.395V10.259a.537.537,0,0,0-.537-.537H8.841a1.611,1.611,0,0,1,0-3.222H20.16a3.763,3.763,0,0,1,3.759,3.759v3.136A1.611,1.611,0,0,1,22.308,15.006Z" transform="translate(8.299 7.461)" fill="#707070"/>
      <path id="Path_5320" data-name="Path 5320" d="M14.6,22.553a1.611,1.611,0,0,1-1.587-1.347L10.09,3.669a.537.537,0,0,0-.531-.447H8.9a.537.537,0,0,0-.531.451L5.451,21.206a1.611,1.611,0,0,1-3.179-.528L5.193,3.14A3.751,3.751,0,0,1,8.9,0h.659a3.749,3.749,0,0,1,3.707,3.138L16.19,20.678A1.609,1.609,0,0,1,14.6,22.553Z" transform="translate(2.582)" fill="#707070"/>
    </g>
    <g id="report_1_" data-name="report (1)" transform="translate(852 3988)">
      <path id="Path_5321" data-name="Path 5321" d="M244.748,241.921l-5.86-5.86A7.92,7.92,0,0,0,240,232a8,8,0,1,0-8,8,7.92,7.92,0,0,0,4.06-1.113l5.86,5.86a2,2,0,1,0,2.827-2.827ZM225.333,232A6.667,6.667,0,1,1,232,238.667,6.667,6.667,0,0,1,225.333,232Zm18.474,11.807a.666.666,0,0,1-.947,0l-5.7-5.7a7.979,7.979,0,0,0,.947-.947l5.7,5.7a.666.666,0,0,1,0,.947Zm0,0" transform="translate(-205.333 -205.333)" fill="#707070"/>
      <path id="Path_5322" data-name="Path 5322" d="M276.5,264.226a.667.667,0,0,0-1.027,0l-3.333,4a.667.667,0,0,0,.513,1.093h1.333v2a.667.667,0,1,0,1.333,0v-2.667a.667.667,0,0,0-.667-.667h-.58l1.913-2.293,1.914,2.293h-.58a.667.667,0,0,0-.667.667v2.667a.667.667,0,1,0,1.333,0v-2h1.333a.667.667,0,0,0,.513-1.093Zm0,0" transform="translate(-249.321 -241.985)" fill="#707070"/>
      <path id="Path_5323" data-name="Path 5323" d="M31.335,36a.667.667,0,0,0-.667.667,2,2,0,0,1-2,2H3.333a2,2,0,0,1-2-2V3.333a2,2,0,0,1,2-2H28.668a2,2,0,0,1,2,2v14.34a.667.667,0,0,0,1.333,0V3.333A3.334,3.334,0,0,0,28.668,0H3.333A3.334,3.334,0,0,0,0,3.333V36.668A3.334,3.334,0,0,0,3.333,40H28.668A3.334,3.334,0,0,0,32,36.668.667.667,0,0,0,31.335,36Zm0,0" fill="#707070"/>
      <path id="Path_5324" data-name="Path 5324" d="M53.875,74.667h4.8a.667.667,0,1,0,0-1.333H54.4a7.33,7.33,0,0,0,.28-2,.667.667,0,0,0-.667-.667h-6v-6A.667.667,0,0,0,47.342,64a7.334,7.334,0,1,0,6.533,10.667Zm-6.533,2.667a6,6,0,0,1-.667-11.96v5.96a.667.667,0,0,0,.667.667H53.3a5.961,5.961,0,0,1-.3,1.333H50.675a.667.667,0,1,0,0,1.333h1.653A6,6,0,0,1,47.342,77.334Zm0,0" transform="translate(-36.675 -58.666)" fill="#707070"/>
      <path id="Path_5325" data-name="Path 5325" d="M161.334,35.333h-2.527A7.334,7.334,0,0,0,152.667,32a.667.667,0,0,0-.667.667v6.667a.667.667,0,0,0,.667.667h6.667a.667.667,0,0,0,.667-.667,7.377,7.377,0,0,0-.5-2.667h1.833a.667.667,0,0,0,0-1.333Zm-2.707,3.333h-5.294V33.373a6,6,0,0,1,3.8,1.96H156a.667.667,0,0,0,0,1.333h2.04A5.792,5.792,0,0,1,158.627,38.667Zm0,0" transform="translate(-139.333 -29.333)" fill="#707070"/>
      <path id="Path_5326" data-name="Path 5326" d="M291.333,57.333a.667.667,0,0,0,0-1.333h-2.667a.667.667,0,0,0-.667.667v2.667a.667.667,0,0,0,.667.667h2.667a.667.667,0,0,0,0-1.333h-2V57.333Zm0,0" transform="translate(-263.999 -51.333)" fill="#707070"/>
      <path id="Path_5327" data-name="Path 5327" d="M291.333,160h-2.667a.667.667,0,0,0-.667.667v2.667a.667.667,0,0,0,.667.667h2.667a.667.667,0,0,0,.667-.667v-2.667A.667.667,0,0,0,291.333,160Zm-.667,2.667h-1.333v-1.333h1.333Zm0,0" transform="translate(-263.999 -146.666)" fill="#707070"/>
      <path id="Path_5328" data-name="Path 5328" d="M67.333,366.667A.667.667,0,0,0,68,366v-5.334a.667.667,0,0,0-.667-.667H64.667a.667.667,0,0,0-.667.667V366a.667.667,0,0,0,1.333,0v-4.667h1.333V366A.667.667,0,0,0,67.333,366.667Zm0,0" transform="translate(-58.666 -329.999)" fill="#707070"/>
      <path id="Path_5329" data-name="Path 5329" d="M131.333,337.334a.667.667,0,0,0,.667-.667v-8a.667.667,0,0,0-.667-.667h-2.667a.667.667,0,0,0-.667.667v8a.667.667,0,0,0,1.333,0v-7.334h1.333v7.334A.667.667,0,0,0,131.333,337.334Zm0,0" transform="translate(-117.333 -300.666)" fill="#707070"/>
      <path id="Path_5330" data-name="Path 5330" d="M56.613,266.533v.8a.667.667,0,0,0,1.333,0v-2.667A.667.667,0,0,0,57.28,264H54.613a.667.667,0,1,0,0,1.333h1.333A8.347,8.347,0,0,1,48.693,268a.671.671,0,0,0-.16,1.333,9.239,9.239,0,0,0,1.207.08A9.673,9.673,0,0,0,56.613,266.533Zm0,0" transform="translate(-43.946 -241.999)" fill="#707070"/>
    </g>
    <g id="Accept" transform="translate(1224 3980.689)">
      <path id="Path_5331" data-name="Path 5331" d="M68.482,464H64.747a.747.747,0,0,0,0,1.494h3.735a.747.747,0,0,0,0-1.494Z" transform="translate(-21.759 -413.424)" fill="#707070"/>
      <path id="Path_5332" data-name="Path 5332" d="M129.494,464h-.747a.747.747,0,0,0,0,1.494h.747a.747.747,0,0,0,0-1.494Z" transform="translate(-79.784 -413.424)" fill="#707070"/>
      <path id="Path_5333" data-name="Path 5333" d="M80.747,108.482h23.9a.747.747,0,0,0,.747-.747v-2.988a.747.747,0,0,0-.747-.747h-23.9a.747.747,0,0,0-.747.747v2.988A.747.747,0,0,0,80.747,108.482Zm.747-2.988H103.9v1.494H81.494Z" transform="translate(-36.265 -87.037)" fill="#707070"/>
      <path id="Path_5334" data-name="Path 5334" d="M80.747,172.482h23.9a.747.747,0,0,0,.747-.747v-2.988a.747.747,0,0,0-.747-.747h-23.9a.747.747,0,0,0-.747.747v2.988A.747.747,0,0,0,80.747,172.482Zm.747-2.988H103.9v1.494H81.494Z" transform="translate(-36.265 -145.061)" fill="#707070"/>
      <path id="Path_5335" data-name="Path 5335" d="M80.747,236.482h23.9a.747.747,0,0,0,.747-.747v-2.988a.747.747,0,0,0-.747-.747h-23.9a.747.747,0,0,0-.747.747v2.988A.747.747,0,0,0,80.747,236.482Zm.747-2.988H103.9v1.494H81.494Z" transform="translate(-36.265 -203.086)" fill="#707070"/>
      <path id="Path_5336" data-name="Path 5336" d="M94.939,296H80.747a.747.747,0,0,0,0,1.494H94.939a.747.747,0,0,0,0-1.494Z" transform="translate(-36.265 -261.11)" fill="#707070"/>
      <path id="Path_5337" data-name="Path 5337" d="M90.457,320h-9.71a.747.747,0,1,0,0,1.494h9.71a.747.747,0,1,0,0-1.494Z" transform="translate(-36.265 -282.869)" fill="#707070"/>
      <path id="Path_5338" data-name="Path 5338" d="M82.241,345.494a.747.747,0,0,0,0-1.494H80.747a.747.747,0,0,0,0,1.494Z" transform="translate(-36.265 -304.628)" fill="#707070"/>
      <path id="Path_5339" data-name="Path 5339" d="M121.494,345.494a.747.747,0,0,0,0-1.494h-.747a.747.747,0,0,0,0,1.494Z" transform="translate(-72.531 -304.628)" fill="#707070"/>
      <path id="Path_5340" data-name="Path 5340" d="M81.082,43.106a8.975,8.975,0,0,0-8.216-8.932V14.722a.747.747,0,0,0-.219-.528L66.671,8.219A.747.747,0,0,0,66.143,8h-25.4A.747.747,0,0,0,40,8.747V53.564a.747.747,0,0,0,.747.747H72.119a.747.747,0,0,0,.747-.747V52.038A8.975,8.975,0,0,0,81.082,43.106ZM66.89,10.55l3.425,3.425H66.89Zm-25.4,42.266V9.494H65.4v5.229a.747.747,0,0,0,.747.747h5.229v18.7a8.963,8.963,0,0,0,0,17.864v.778Zm30.625-2.241a7.469,7.469,0,1,1,7.469-7.469,7.469,7.469,0,0,1-7.469,7.469Z" fill="#707070"/>
      <path id="Path_5341" data-name="Path 5341" d="M346.237,352.218a.747.747,0,0,0-1.056,0l-4.816,4.816-3.235-1.941a.747.747,0,1,0-.769,1.281l3.735,2.241a.747.747,0,0,0,.913-.112l5.229-5.229A.747.747,0,0,0,346.237,352.218Z" transform="translate(-268.362 -311.881)" fill="#707070"/>
    </g>
  </g>
</svg>
