<svg xmlns="http://www.w3.org/2000/svg" width="1030" height="535" viewBox="0 0 1030 535">
  <g id="Group_2645" data-name="Group 2645" transform="translate(-297 -5817)">
    <text id="How_do_I_contact_the_local_company_representative_" data-name="How do I contact the local company representative ?" transform="translate(960 5837)" fill="#21232a" font-size="20" font-family="HelveticaNeue-Bold, Helvetica Neue" font-weight="700"><tspan x="-251.1" y="0">How do I contact the local company representative ?</tspan></text>
    <text id="How_do_I_check_my_past_payments_" data-name="How do I check my past payments?" transform="translate(960 5979)" fill="#21232a" font-size="20" font-family="HelveticaNeue-Bold, Helvetica Neue" font-weight="700"><tspan x="-169.61" y="0">How do I check my past payments?</tspan></text>
    <text id="What_do_I_do_if_my_connection_unexpectedly_cuts_" data-name="What do I do if my connection unexpectedly cuts?" transform="translate(960 6115)" fill="#21232a" font-size="20" font-family="HelveticaNeue-Bold, Helvetica Neue" font-weight="700"><tspan x="-237.57" y="0">What do I do if my connection unexpectedly cuts?</tspan></text>
    <text id="Can_someone_get_a_connection_without_the_smartphone_app_" data-name="Can someone get a connection without the smartphone app?" transform="translate(960 6294)" fill="#21232a" font-size="20" font-family="HelveticaNeue-Bold, Helvetica Neue" font-weight="700"><tspan x="-291.66" y="0">Can someone get a connection without the smartphone app?</tspan></text>
    <text id="Their_number_is_shown_in_the_main_menu." data-name="Their number is shown in the main menu." transform="translate(806 5865)" fill="#707070" font-size="14" font-family="HelveticaNeue, Helvetica Neue"><tspan x="-128.772" y="0">Their number is shown in the main menu.</tspan></text>
    <text id="From_the_home_screen_Dashboard_select_Billing_and_Payment_Detail." data-name="From the home screen Dashboard, select Billing and Payment Detail." transform="translate(892 6007)" fill="#707070" font-size="14" font-family="HelveticaNeue, Helvetica Neue"><tspan x="-214.991" y="0">From the home screen Dashboard, select Billing and Payment Detail.</tspan></text>
    <text id="Check_the_notifications_page_for_any_messages_about_planned_electricity_outages." data-name="Check the notifications page for any messages about planned electricity outages." transform="translate(932 6143)" fill="#707070" font-size="14" font-family="HelveticaNeue, Helvetica Neue"><tspan x="-254.639" y="0">Check the notifications page for any messages about planned electricity outages.</tspan></text>
    <text id="Anyone_can_request_a_new_connection_for_themselves_or_for_someone_else_through_the_smartphone_app." data-name="Anyone can request a new connection for themselves or for someone else through the smartphone app." transform="translate(1002 6322)" fill="#707070" font-size="14" font-family="HelveticaNeue, Helvetica Neue"><tspan x="-324.674" y="0">Anyone can request a new connection for themselves or for someone else through the smartphone app.</tspan></text>
    <text id="In_an_emergency_you_should_visit_the_mini-grid_plant_in_person_and_the_plant_operator_will_assist_you." data-name="In an emergency, you should visit the mini-grid plant in person, and the plant operator will assist you." transform="translate(991 5892)" fill="#707070" font-size="14" font-family="HelveticaNeue, Helvetica Neue"><tspan x="-314.489" y="0">In an emergency, you should visit the mini-grid plant in person, and the plant operator will assist you.</tspan></text>
    <text id="This_shows_a_complete_searchable_list_of_all_past_transactions." data-name="This shows a complete searchable list of all past transactions." transform="translate(870 6034)" fill="#707070" font-size="14" font-family="HelveticaNeue, Helvetica Neue"><tspan x="-193.431" y="0">This shows a complete searchable list of all past transactions.</tspan></text>
    <text id="Check_your_balance_from_the_Amount_Payable_page_-_if_you_have_not_paid_your_bill_your_connection_may_be_cut_automatically." data-name="Check your balance from the Amount Payable page - if you have not paid your bill, your
connection may be cut automatically." transform="translate(677 6170)" fill="#707070" font-size="14" font-family="HelveticaNeue, Helvetica Neue"><tspan x="0" y="0">Check your balance from the Amount Payable page - if you have not paid your bill, your</tspan><tspan x="0" y="15">connection may be cut automatically.</tspan></text>
    <text id="A_company_representative_will_also_be_happy_to_assist_in_creating_an_account_and_registering_new_users." data-name="A company representative will also be happy to assist in creating an account and registering new users." transform="translate(677 6349)" fill="#707070" font-size="14" font-family="HelveticaNeue, Helvetica Neue"><tspan x="0" y="0">A company representative will also be happy to assist in creating an account and registering new users.</tspan></text>
    <text id="Log_a_service_request_through_the_Service_Request_page_by_entering_the_details_of_the_Problem_and_a_company_agent_will_be_notified." data-name="Log a service request through the Service Request page by entering the details of the
Problem, and a company agent will be notified." transform="translate(677 6212)" fill="#707070" font-size="14" font-family="HelveticaNeue, Helvetica Neue"><tspan x="0" y="0">Log a service request through the Service Request page by entering the details of the</tspan><tspan x="0" y="15">Problem, and a company agent will be notified.</tspan></text>
    <circle id="Ellipse_215" data-name="Ellipse 215" cx="2" cy="2" r="2" transform="translate(657 5857)" fill="#00b0ff"/>
    <circle id="Ellipse_225" data-name="Ellipse 225" cx="2" cy="2" r="2" transform="translate(657 5999)" fill="#00b0ff"/>
    <circle id="Ellipse_231" data-name="Ellipse 231" cx="2" cy="2" r="2" transform="translate(657 6135)" fill="#00b0ff"/>
    <circle id="Ellipse_232" data-name="Ellipse 232" cx="2" cy="2" r="2" transform="translate(657 6314)" fill="#00b0ff"/>
    <circle id="Ellipse_228" data-name="Ellipse 228" cx="2" cy="2" r="2" transform="translate(657 6204)" fill="#00b0ff"/>
    <circle id="Ellipse_216" data-name="Ellipse 216" cx="2" cy="2" r="2" transform="translate(657 5884)" fill="#00b0ff"/>
    <circle id="Ellipse_224" data-name="Ellipse 224" cx="2" cy="2" r="2" transform="translate(657 6026)" fill="#00b0ff"/>
    <circle id="Ellipse_230" data-name="Ellipse 230" cx="2" cy="2" r="2" transform="translate(657 6162)" fill="#00b0ff"/>
    <circle id="Ellipse_233" data-name="Ellipse 233" cx="2" cy="2" r="2" transform="translate(657 6341)" fill="#00b0ff"/>
    <g id="Group_861" data-name="Group 861" transform="translate(-234 -530.807)">
      <path id="Path_2843" data-name="Path 2843" d="M556.322,625.84l6.477-1.867a84.864,84.864,0,0,0,2.937-9.1l-3.042-.111,3.316-.956c.96-3.827,1.354-6.422,1.354-6.422s-13.137,3.913-23.03,11.548l-1.221,8.564-1.168-6.585a34.33,34.33,0,0,0-3.04,3.061c-9.524,10.95-13.669,22.938-9.258,26.775s15.709-1.929,25.233-12.879a45.193,45.193,0,0,0,7.072-11.821Z" transform="translate(260.401 6162.696)" fill="#e6e6e6"/>
      <path id="Path_2844" data-name="Path 2844" d="M196.566,566.165,192.874,551.6a189.1,189.1,0,0,0-20.062-7.2l-.466,6.768-1.89-7.456c-8.454-2.414-14.206-3.478-14.206-3.478s7.769,29.543,24.064,52.13L199.3,595.7l-14.751,2.127a76.5,76.5,0,0,0,6.6,6.992c23.7,22,50.107,32.1,58.972,22.548s-3.166-35.129-26.87-57.132c-7.349-6.821-16.58-12.3-25.821-16.6Z" transform="translate(374.75 6183.355)" fill="#e6e6e6"/>
      <path id="Path_2845" data-name="Path 2845" d="M252.832,535.719l4.367-14.374a189.1,189.1,0,0,0-13.453-16.531l-3.9,5.552,2.236-7.36c-5.99-6.437-10.363-10.32-10.363-10.32s-8.62,29.306-6.346,57.064l14.53,12.67-13.727-5.8a76.5,76.5,0,0,0,2.034,9.4c8.919,31.089,26.3,53.378,38.827,49.785s15.448-31.708,6.529-62.8c-2.765-9.638-7.838-19.1-13.522-27.56Z" transform="translate(353.598 6197.987)" fill="#e6e6e6"/>
      <path id="Path_2846" data-name="Path 2846" d="M194.275,413.087l1.525,6.861,10.673-.763-.762-7.623Z" transform="translate(471.223 6380.791)" fill="#ffb8b8"/>
      <path id="Path_2847" data-name="Path 2847" d="M150.314,413.087l-1.524,6.861-10.673-.763.763-7.623Z" transform="translate(488.503 6380.791)" fill="#ffb8b8"/>
      <circle id="Ellipse_246" data-name="Ellipse 246" cx="14.484" cy="14.484" r="14.484" transform="translate(621.283 6542.308)" fill="#ffb8b8"/>
      <path id="Path_2848" data-name="Path 2848" d="M136.422,76.812l-3.811,17.534,19.058,6.1-.762-22.107Z" transform="translate(490.197 6483.792)" fill="#ffb8b8"/>
      <path id="Path_2849" data-name="Path 2849" d="M295.468,329.636l-9.591-7.262s-1.844-2.649-2.606-.362-7.623,10.673-7.623,10.673l5.336,62.512,40.4.762s-15.788-72.872-17.8-70.36S296.23,328.111,295.468,329.636Z" transform="translate(338.013 6250.789)" fill="#d0cde1"/>
      <path id="Path_2850" data-name="Path 2850" d="M314.972,320.774s-3.049,3.049-1.525,5.336.381,6.528,1.906,6.885-1.525,26.277,3.049,33.138,2.287,24.395,2.287,27.444,4.574,21.345,4.574,21.345,15.247,1.525,15.247-2.287-5.336-30.493-5.336-30.493l4.574-47.265s0-4.574-5.336-6.1-16.009-5.336-16.009-5.336Z" transform="translate(326.513 6250.883)" fill="#2f2e41"/>
      <path id="Path_2851" data-name="Path 2851" d="M337.359,395.59h-3.812s-19.821,1.525-18.3-6.861,16.771-2.287,16.771-2.287l4.574,2.287Z" transform="translate(325.852 6231.337)" fill="#ffb8b8"/>
      <path id="Path_2852" data-name="Path 2852" d="M280.045,318.922s-6.261,3.95-7.024,5.475-18.3,9.91-18.3,16.009,5.336,12.96,5.336,12.96l6.861,67.086s11.435,3.812,12.2.762,3.812-70.135,2.287-73.184-1.525-22.87-1.525-22.87Z" transform="translate(344.45 6251.453)" fill="#2f2e41"/>
      <path id="Path_2853" data-name="Path 2853" d="M262.094,478.79l-.762,4.574s.762,15.247,6.861,14.484,2.287-16.009,2.287-16.009l-.762-3.049Z" transform="translate(342.417 6202.263)" fill="#ffb8b8"/>
      <path id="Path_2854" data-name="Path 2854" d="M275.647,422.631s.762,68.61,4.574,90.718,5.336,60.225,5.336,60.225,9.91,1.525,11.435,2.287,5.336-1.525,5.336-1.525l.762-112.826,14.484,51.077s2.287,61.749,6.861,63.274,18.3-1.525,18.3-1.525-5.336-58.7-6.861-60.987-5.336-69.373-11.435-81.57l-2.287-8.386S278.7,424.918,275.647,422.631Z" transform="translate(338.013 6219.543)" fill="#2f2e41"/>
      <path id="Path_2855" data-name="Path 2855" d="M351.473,645.648s-3.812-3.049-3.812-.762-3.812,16.39.762,16.39,35.068,2.668,34.305-3.431-19.107-15.837-19.107-15.837-6.813,2.115-7.575,2.877S351.473,645.648,351.473,645.648Z" transform="translate(316.312 6152.042)" fill="#2f2e41"/>
      <path id="Path_2856" data-name="Path 2856" d="M294.784,645.648s3.812-3.049,3.812-.762,3.812,16.39-.762,16.39-35.068,2.668-34.305-3.431,19.107-15.837,19.107-15.837,6.813,2.115,7.575,2.877S294.784,645.648,294.784,645.648Z" transform="translate(341.746 6152.042)" fill="#2f2e41"/>
      <path id="Path_2857" data-name="Path 2857" d="M343.918,340.044l5.336.762L359.927,371.3s3.049,15.247-1.525,17.534-13.207,1.84-13.207,1.84l-1.277-17.087,3.812.762-3.812-7.623Z" transform="translate(317.006 6244.954)" fill="#2f2e41"/>
      <path id="Path_2858" data-name="Path 2858" d="M257.137,345.55l-3.812,3.049s-3.812,38.879-3.049,42.691,5.336,50.314,5.336,50.314l12.96-3.049-9.148-92.243Z" transform="translate(345.85 6243.26)" fill="#2f2e41"/>
      <path id="Path_2859" data-name="Path 2859" d="M283.5,277.259s-4.217-5.35,0-8.025v1.337s9.037-10.031,14.459-7.356l4.819-1.337v1.337l3.012-1.337-.6,2.006H309.4l-1.807,1.337s13.856-.669,5.422,9.362c0,0,4.009,6.014.2,9.36,0,0-3.209-7.354-7.426-5.347a6.716,6.716,0,0,1-7.229-.669s-8.434-.669-7.229,3.344.6,5.35.6,5.35-3.012,2.006-2.41,3.344.6,5.35.6,5.35-3.012-4.681-4.217-4.012S278.077,285.284,283.5,277.259Z" transform="translate(336.244 6269.005)" fill="#2f2e41"/>
      <path id="Path_2860" data-name="Path 2860" d="M350.745,108.625l-32.055.8L314.376,71.2h36.369Z" transform="translate(434.269 6485.518)" fill="#2f2e41"/>
      <path id="Path_2861" data-name="Path 2861" d="M462.707,424.477l-11.7,81.123s-10.14,28.861-10.92,42.9l-3.12,20.281,14.041,3.12,14.821-56.942,20.281-51.482-2.34,59.283-4.68,48.362,14.041,2.34,8.58-61.623,9.36-45.242s7.02-39-3.9-42.9Z" transform="translate(288.376 6219.215)" fill="#2f2e41"/>
      <path id="Path_2862" data-name="Path 2862" d="M449.2,626.075l-1.561,18.986s16.709,9.66,11.347,11.532-12.7-.537-14.2-.962c-1.585-.449-4.544-1.166-6.783-1.7a4.975,4.975,0,0,1-3.851-4.48l0-.07c-.135-2.336,5.136-22.638,5.136-22.638Z" transform="translate(289.244 6156.944)" fill="#2f2e41"/>
      <path id="Path_2863" data-name="Path 2863" d="M509.732,626.761l1.315,18.154s19.027,7.069,14.122,9.931-12.568,1.9-14.122,1.769c-2.866-.241-10-.482-10-.482s-1.319,1.142-1.9-1.126.772-22.522.772-22.522Z" transform="translate(269.286 6156.733)" fill="#2f2e41"/>
      <circle id="Ellipse_247" data-name="Ellipse 247" cx="14.821" cy="14.821" r="14.821" transform="translate(752.643 6548.528)" fill="#ffb8b8"/>
      <path id="Path_2864" data-name="Path 2864" d="M327.778,93.171l-3.12,17.161,13.26,6.24,3.12-21.841Z" transform="translate(431.105 6478.758)" fill="#ffb8b8"/>
      <path id="Path_2865" data-name="Path 2865" d="M483.161,435.918l16.381,11.7s7.02,17.941,12.481,14.821-6.24-18.721-6.24-18.721l-13.261-13.261Z" transform="translate(274.162 6217.134)" fill="#ffb8b8"/>
      <path id="Path_2866" data-name="Path 2866" d="M546.871,430.458l1.56,9.36s-3.9,19.5-8.58,15.6,1.56-16.381,1.56-16.381l-.78-7.8Z" transform="translate(257.255 6217.134)" fill="#ffb8b8"/>
      <path id="Path_2867" data-name="Path 2867" d="M487.062,343.354l-1.56-6.24-9.36-4.68-3.12,3.9-10.14,3.12,11.7,62.4s39.782,2.34,40.562-3.9-7.8-23.4-7.8-23.4,2.34-8.58,1.56-13.261l-3.12-18.721-12.481-3.9-2.85-3.448-2.61,4.228Z" transform="translate(280.402 6247.296)" fill="#d0cde1"/>
      <path id="Path_2868" data-name="Path 2868" d="M462.181,344.134l-2.34-1.56s-4.68.78-6.24,7.02,0,34.321,3.9,39.782,14.821,21.841,14.821,21.841l14.821-7.02-15.6-17.941-3.9-22.621Z" transform="translate(283.441 6244.176)" fill="#d0cde1"/>
      <path id="Path_2869" data-name="Path 2869" d="M515.836,348.641l6.24-1.56s3.9,1.56,5.46,7.02,10.14,32.761,9.36,35.1,7.02,17.941,7.02,17.941l-10.92.78-6.24-16.381-6.24-16.381Z" transform="translate(264.108 6242.789)" fill="#d0cde1"/>
      <path id="Path_2870" data-name="Path 2870" d="M460.7,313.5c3.126-1.716,4.58-5.569,4.684-9.133s-.761-7.092-.829-10.657a8.235,8.235,0,0,1,.185-2.173,8.361,8.361,0,0,1,1.2-2.474c4.065-6.228,11.13-10.609,18.572-10.678a8.248,8.248,0,0,1,3.143.578c.769.308,1.021.27,1.168,1.215a7.864,7.864,0,0,1,5.4.172,18.259,18.259,0,0,1,4.72,2.811,21.282,21.282,0,0,1,2.386,2.066c3.933,4.074,4.839,10.354,3.7,15.9-.37,1.8,1.407,3.544,2.877,4.652s3.169,2.125,3.891,3.818c.695,1.629.313,3.492.453,5.258a8.992,8.992,0,0,0,5.737,7.555,2.768,2.768,0,0,1-2.67.939,6.571,6.571,0,0,1-2.782-1.325,16.55,16.55,0,0,1-6.17-9.155,26.85,26.85,0,0,0-.249,6,16.767,16.767,0,0,0,1.216,6.556,9.6,9.6,0,0,0,4.42,4.867c-1.929.945-4.055.26-5.69-1.133a11.891,11.891,0,0,1-3.274-5.455,27.19,27.19,0,0,1-1.31-10.319,14.734,14.734,0,0,0-1.849,10.045,15.358,15.358,0,0,0,5.209,9.042,29.921,29.921,0,0,1-13.695-3.449,7.752,7.752,0,0,1-2.809-2.163c-1.359-1.886-1.038-4.458-.656-6.751.3-1.813-1.964-4.434-.667-5.736a2.151,2.151,0,0,1,1.442-.62,12.764,12.764,0,0,0,9.722-5.73,14.757,14.757,0,0,0,2.457-7.567,13.77,13.77,0,1,0-26.921,4.086,27.632,27.632,0,0,1,1,4.666,36.663,36.663,0,0,0,1.118,5.428c.982,3.418,2.645,6.906,5.722,8.689a8.93,8.93,0,0,1-3.4.721c-3.861.425-7.923.332-11.418-1.364S460.449,317.372,460.7,313.5Z" transform="translate(281.078 6263.928)" fill="#2f2e41"/>
      <path id="Path_2871" data-name="Path 2871" d="M472.876,300.672c11.09-4.445,22.023-5.393,32.671,0v-8.959a5.835,5.835,0,0,0-5.835-5.835H477.486a4.61,4.61,0,0,0-4.61,4.61Z" transform="translate(277.327 6261.621)" fill="#2f2e41"/>
      <ellipse id="Ellipse_248" data-name="Ellipse 248" cx="1.635" cy="2.615" rx="1.635" ry="2.615" transform="translate(752.019 6562.61)" fill="#ffb8b8"/>
      <rect id="Rectangle_471" data-name="Rectangle 471" width="360" height="1" transform="translate(531 6813.808)" fill="#3f3d56"/>
    </g>
    <g id="Group_860" data-name="Group 860" transform="translate(-624 -639.868)">
      <rect id="Rectangle_470" data-name="Rectangle 470" width="205.049" height="102.525" transform="translate(989.131 6512.258)" fill="#e6e6e6"/>
      <path id="Path_2872" data-name="Path 2872" d="M852.8,331.558H646.71V228H852.8Zm-205.05-1.038H851.76V229.033H647.748Z" transform="translate(359.202 6269.005)" fill="#3f3d56"/>
      <path id="Path_2873" data-name="Path 2873" d="M828.557,382.518a8.359,8.359,0,1,1-2.448-5.935A8.377,8.377,0,0,1,828.557,382.518Z" transform="translate(279.802 6198.721)" fill="#a2a2a2"/>
      <path id="Path_2874" data-name="Path 2874" d="M828.557,382.518a8.359,8.359,0,1,1-2.448-5.935A8.377,8.377,0,0,1,828.557,382.518Z" transform="translate(279.802 6198.721)" opacity="0.3"/>
      <path id="Path_2875" data-name="Path 2875" d="M828.685,289.64a19.409,19.409,0,0,1-1.656,7.957,19.814,19.814,0,0,1-1.718,3.088,25.567,25.567,0,0,1-4.9,5.294c-.322.27-.675.55-1.147.914-.592.441-1.251.9-2.009,1.4a41.93,41.93,0,0,0-3.857,2.819,8.558,8.558,0,0,0-1.874,2.024c-.638,1.116-.96,3.275-.96,6.421v.519H796.57v-2.429c0-1.9.047-3.5.135-4.89A35.023,35.023,0,0,1,797.1,309a9.345,9.345,0,0,1,.976-3.14c.919-1.531,3.135-3.613,6.769-6.364.156-.114.312-.234.472-.353.151-.1.3-.213.446-.327a21.552,21.552,0,0,0,3.457-3.062,11.079,11.079,0,0,0,.841-1.121l.068-.1a8.967,8.967,0,0,0,1.152-4.734,8.3,8.3,0,0,0-.083-1.251,6.617,6.617,0,0,0-2.107-4.215,7.538,7.538,0,0,0-4.729-1.972c-.223-.021-.431-.026-.644-.026a10.041,10.041,0,0,0-2.455.291A7.4,7.4,0,0,0,797.4,285a10.036,10.036,0,0,0-1.35,2.061,30.091,30.091,0,0,0-2.325,8.9l-.052.545L780.5,293V287.19c.062-.234.13-.467.2-.7a26.213,26.213,0,0,1,3.96-8.113,20.589,20.589,0,0,1,2.559-2.891c.223-.223.467-.441.711-.654a23.658,23.658,0,0,1,5.237-3.447l.166-.078a26.359,26.359,0,0,1,11.435-2.429c.41,0,.893.005,1.37.031a26.119,26.119,0,0,1,11.259,2.87,22.942,22.942,0,0,1,4.376,2.948,18.694,18.694,0,0,1,6.753,12.291,21.93,21.93,0,0,1,.156,2.616Z" transform="translate(294.857 6249.342)" fill="#a2a2a2"/>
      <path id="Path_2876" data-name="Path 2876" d="M828.685,289.64a19.409,19.409,0,0,1-1.656,7.957,19.814,19.814,0,0,1-1.718,3.088,25.567,25.567,0,0,1-4.9,5.294c-.322.27-.675.55-1.147.914-.592.441-1.251.9-2.009,1.4a41.93,41.93,0,0,0-3.857,2.819,8.558,8.558,0,0,0-1.874,2.024c-.638,1.116-.96,3.275-.96,6.421v.519H796.57v-2.429c0-1.9.047-3.5.135-4.89A35.023,35.023,0,0,1,797.1,309a9.345,9.345,0,0,1,.976-3.14c.919-1.531,3.135-3.613,6.769-6.364.156-.114.312-.234.472-.353.151-.1.3-.213.446-.327a21.552,21.552,0,0,0,3.457-3.062,11.079,11.079,0,0,0,.841-1.121l.068-.1a8.967,8.967,0,0,0,1.152-4.734,8.3,8.3,0,0,0-.083-1.251,6.617,6.617,0,0,0-2.107-4.215,7.538,7.538,0,0,0-4.729-1.972c-.223-.021-.431-.026-.644-.026a10.041,10.041,0,0,0-2.455.291A7.4,7.4,0,0,0,797.4,285a10.036,10.036,0,0,0-1.35,2.061,30.091,30.091,0,0,0-2.325,8.9l-.052.545L780.5,293V287.19c.062-.234.13-.467.2-.7a26.213,26.213,0,0,1,3.96-8.113,20.589,20.589,0,0,1,2.559-2.891c.223-.223.467-.441.711-.654a23.658,23.658,0,0,1,5.237-3.447l.166-.078a26.359,26.359,0,0,1,11.435-2.429c.41,0,.893.005,1.37.031a26.119,26.119,0,0,1,11.259,2.87,22.942,22.942,0,0,1,4.376,2.948,18.694,18.694,0,0,1,6.753,12.291,21.93,21.93,0,0,1,.156,2.616Z" transform="translate(294.857 6249.342)" opacity="0.3"/>
      <path id="Path_2877" data-name="Path 2877" d="M817.557,382.518a8.359,8.359,0,1,1-2.448-5.935,8.377,8.377,0,0,1,2.448,5.935Z" transform="translate(285.092 6198.721)" fill="#a2a2a2"/>
      <path id="Path_2878" data-name="Path 2878" d="M816.646,289.64a19.409,19.409,0,0,1-1.656,7.957,19.808,19.808,0,0,1-1.718,3.088,25.569,25.569,0,0,1-4.9,5.294c-.322.27-.675.55-1.147.914-.592.441-1.251.9-2.009,1.4a41.93,41.93,0,0,0-3.857,2.819,8.557,8.557,0,0,0-1.874,2.024c-.638,1.116-.96,3.275-.96,6.421v.519H784.531v-2.429c0-1.9.047-3.5.135-4.89a34.992,34.992,0,0,1,.395-3.763,9.34,9.34,0,0,1,.976-3.14c.919-1.531,3.135-3.613,6.769-6.364.156-.114.311-.234.472-.353.151-.1.3-.213.446-.327a21.555,21.555,0,0,0,3.457-3.062,11.078,11.078,0,0,0,.841-1.121l.068-.1a8.967,8.967,0,0,0,1.152-4.734,8.288,8.288,0,0,0-.083-1.251,6.617,6.617,0,0,0-2.107-4.215,7.538,7.538,0,0,0-4.729-1.972c-.223-.021-.431-.026-.644-.026a10.041,10.041,0,0,0-2.455.291A7.4,7.4,0,0,0,785.362,285a10.041,10.041,0,0,0-1.35,2.061,20.625,20.625,0,0,0-1.806,7.34l-.052.545-14.814-2.113.073-.514a37.178,37.178,0,0,1,1.251-5.829,26.214,26.214,0,0,1,3.961-8.113,20.589,20.589,0,0,1,2.559-2.891c.223-.223.467-.441.711-.654a23.655,23.655,0,0,1,5.237-3.447l.166-.078a26.36,26.36,0,0,1,11.435-2.429c.41,0,.893.005,1.37.031a26.119,26.119,0,0,1,11.259,2.87,22.943,22.943,0,0,1,4.376,2.948,18.694,18.694,0,0,1,6.753,12.291,21.917,21.917,0,0,1,.156,2.616Z" transform="translate(301.186 6249.342)" fill="#a2a2a2"/>
    </g>
  </g>
</svg>
