<svg xmlns="http://www.w3.org/2000/svg" width="582" height="301.872" viewBox="0 0 582 301.872">
  <g id="Group_2646" data-name="Group 2646" transform="translate(-669 -5301)">
    <text id="Profile" transform="translate(677 5301)" fill="#21232a" font-size="20" font-family="HelveticaNeue-Bold, Helvetica Neue" font-weight="700"><tspan x="41.08" y="20">Profile</tspan></text>
    <text id="Payments" transform="translate(895.92 5301)" fill="#21232a" font-size="20" font-family="HelveticaNeue-Bold, Helvetica Neue" font-weight="700"><tspan x="16.78" y="20">Payments</tspan></text>
    <text id="Meter_Readings" data-name="Meter Readings" transform="translate(1104.17 5301)" fill="#21232a" font-size="20" font-family="HelveticaNeue-Bold, Helvetica Neue" font-weight="700"><tspan x="39.54" y="20">Meter </tspan><tspan x="22.7" y="45">Readings</tspan></text>
    <text id="Consists_of_the_profile_details_of_the_consumer" data-name="Consists of the profile details of the consumer" transform="translate(704.92 5483)" fill="#707070" font-size="14" font-family="HelveticaNeue, Helvetica Neue"><tspan x="7.241" y="13">Consists of </tspan><tspan x="11.385" y="28">the profile </tspan><tspan x="2.18" y="43">details of the </tspan><tspan x="11.378" y="58">consumer</tspan></text>
    <text id="Chronological_list_of_individual_payments" data-name="Chronological list of individual payments" transform="translate(917.92 5483)" fill="#707070" font-size="14" font-family="HelveticaNeue, Helvetica Neue"><tspan x="0.759" y="13">Chronologica</tspan><tspan x="22.151" y="28">l list of </tspan><tspan x="12.939" y="43">individual </tspan><tspan x="11.763" y="58">payments</tspan></text>
    <text id="Chronological_record_of_energy_consumption" data-name="Chronological record of energy consumption" transform="translate(1130.92 5483)" fill="#707070" font-size="14" font-family="HelveticaNeue, Helvetica Neue"><tspan x="0.759" y="13">Chronologica</tspan><tspan x="10.867" y="28">l record of </tspan><tspan x="21.437" y="43">energy </tspan><tspan x="1.648" y="58">consumption</tspan></text>
    <g id="Group_1932" data-name="Group 1932">
      <path id="Path_2879" data-name="Path 2879" d="M-701.719-745.744c17.865,0,18.954,14.805,18.954,24.271q.112,95.463.011,190.926c-.013,13.419-10.5,23.777-24.436,23.836q-55.478.231-110.957-.007c-13.857-.062-24.276-10.637-24.52-24.474-.2-11.159-.093-22.324-.015-33.486.014-1.979-.687-4.968,2.647-4.851,2.9.1,2.27,2.858,2.283,4.708.077,10.662-.017,21.325.065,31.988.1,13.095,8.179,21.119,21.335,21.134q53.979.062,107.958,0c12.494-.013,20.711-8.135,20.721-20.641q.074-93.714.006-187.428c0-17.823-4.585-20.864-20.107-20.864-36.485,0-72.971-.2-109.456-.012-11.979.062-20.308,8.769-20.433,20.752-.148,14.16-.091,28.322-.011,42.483a16.444,16.444,0,0,1-2.478,8.958c-17.325,28.651-34.522,57.381-51.868,86.02a18.019,18.019,0,0,0-2.689,9.9c.1,12.994.074,25.99.027,38.984-.061,16.716-10.082,26.86-26.714,26.887-35.319.057-70.64-.093-105.959.083-11.875.059-27.354,0-27.354-15.336v-47.84c3.849-.731,5.01,1.147,4.978,4.721-.1,10.823-.009,21.648-.009,32.472,0,19.2,3.443,20.861,21,20.861q53.7,0,107.409,0c13.719-.013,21.57-7.965,21.623-21.837.049-12.989.164-25.98-.065-38.965a23.463,23.463,0,0,1,3.62-13.16c16.862-27.746,33.519-55.617,50.364-83.373a20.423,20.423,0,0,0,3.112-11.3c-.148-12.654.01-25.311-.068-37.967-.077-12.474,5.06-21.452,16.98-26.086a11.315,11.315,0,0,0,2.049-1.359Z" transform="translate(1933.708 6109.438)" fill="#6c7474"/>
      <path id="Path_2880" data-name="Path 2880" d="M-701.719-745.744c17.865,0,18.954,14.805,18.954,24.271q.112,95.463.011,190.926c-.013,13.419-10.5,23.777-24.436,23.836q-55.478.231-110.957-.007c-13.857-.062-24.276-10.637-24.52-24.474-.2-11.159-.093-22.324-.015-33.486.014-1.979-.687-4.968,2.647-4.851,2.9.1,2.27,2.858,2.283,4.708.077,10.662-.017,21.325.065,31.988.1,13.095,8.179,21.119,21.335,21.134q53.979.062,107.958,0c12.494-.013,20.711-8.135,20.721-20.641q.074-93.714.006-187.428c0-17.823-4.585-20.864-20.107-20.864-36.485,0-72.971-.2-109.456-.012-11.979.062-20.308,8.769-20.433,20.752-.148,14.16-.091,28.322-.011,42.483a16.444,16.444,0,0,1-2.478,8.958c-17.325,28.651-34.522,57.381-51.868,86.02a18.019,18.019,0,0,0-2.689,9.9c.1,12.994.074,25.99.027,38.984-.061,16.716-10.082,26.86-26.714,26.887-35.319.057-70.64-.093-105.959.083-11.875.059-27.354,0-27.354-15.336v-47.84c3.849-.731,5.01,1.147,4.978,4.721-.1,10.823-.009,21.648-.009,32.472,0,19.2,3.443,20.861,21,20.861q53.7,0,107.409,0c13.719-.013,21.57-7.965,21.623-21.837.049-12.989.164-25.98-.065-38.965a23.463,23.463,0,0,1,3.62-13.16c16.862-27.746,33.519-55.617,50.364-83.373a20.423,20.423,0,0,0,3.112-11.3c-.148-12.654.01-25.311-.068-37.967-.077-12.474,5.06-21.452,16.98-26.086a11.315,11.315,0,0,0,2.049-1.359Z" transform="translate(-13.708 4857.128) rotate(180)" fill="#6c7474"/>
      <g id="Group_501" data-name="Group 501" transform="translate(667.092 5365.29)">
        <path id="Path_2100" data-name="Path 2100" d="M223.564,175.84a9.13,9.13,0,1,0-9.129,9.13A9.13,9.13,0,0,0,223.564,175.84Z" fill="#707070"/>
      </g>
      <g id="Group_500" data-name="Group 500" transform="translate(668.092 5365.29)">
        <path id="Path_2099" data-name="Path 2099" d="M417.311,175.84a9.13,9.13,0,1,1,9.129,9.13A9.131,9.131,0,0,1,417.311,175.84Z" fill="#707070"/>
      </g>
      <g id="Group_862" data-name="Group 862" transform="translate(612.092 5250.29)">
        <path id="Path_2099-2" data-name="Path 2099" d="M417.311,175.84a9.13,9.13,0,1,1,9.129,9.13A9.131,9.131,0,0,1,417.311,175.84Z" fill="#707070"/>
      </g>
      <g id="Group_863" data-name="Group 863" transform="translate(400.092 5250.29)">
        <path id="Path_2099-3" data-name="Path 2099" d="M417.311,175.84a9.13,9.13,0,1,1,9.129,9.13A9.131,9.131,0,0,1,417.311,175.84Z" fill="#707070"/>
      </g>
    </g>
    <g id="report" transform="translate(735 5405)">
      <path id="Path_907" data-name="Path 907" d="M31.978,16.26H27.1V4.654L22.447,0H0V33.6H27.1V30.352h4.878A1.628,1.628,0,0,0,33.6,28.726V17.886A1.628,1.628,0,0,0,31.978,16.26ZM23.848,5.42V8.672H14.092V3.252H21.68V5.42ZM22.764,4.336V1.85L25.25,4.336ZM26.016,32.52H1.084V1.084h20.6V2.168H13.008V9.756H24.932V5.42h1.084V16.26H14.634a1.628,1.628,0,0,0-1.626,1.626v10.84a1.628,1.628,0,0,0,1.626,1.626H26.016Zm6.5-3.794a.543.543,0,0,1-.542.542H14.634a.543.543,0,0,1-.542-.542V17.886a.543.543,0,0,1,.542-.542H31.978a.543.543,0,0,1,.542.542Zm0,0" fill="#707070"/>
      <path id="Path_908" data-name="Path 908" d="M233.756,273.084A1.085,1.085,0,0,0,232.672,272h-7.588A1.085,1.085,0,0,0,224,273.084v3.252a1.085,1.085,0,0,0,1.084,1.084h7.588a1.085,1.085,0,0,0,1.084-1.084Zm-1.084,3.252h-7.588v-3.252h7.589Zm0,0" transform="translate(-208.824 -253.572)" fill="#707070"/>
      <path id="Path_909" data-name="Path 909" d="M384,272h5.42v1.084H384Zm0,0" transform="translate(-357.984 -253.572)" fill="#707070"/>
      <path id="Path_910" data-name="Path 910" d="M384,304h5.42v1.084H384Zm0,0" transform="translate(-357.984 -283.404)" fill="#707070"/>
      <path id="Path_911" data-name="Path 911" d="M224,368h2.168v1.084H224Zm0,0" transform="translate(-208.824 -343.068)" fill="#707070"/>
      <path id="Path_912" data-name="Path 912" d="M272,368h2.168v1.084H272Zm0,0" transform="translate(-253.572 -343.068)" fill="#707070"/>
      <path id="Path_913" data-name="Path 913" d="M320,368h2.168v1.084H320Zm0,0" transform="translate(-298.32 -343.068)" fill="#707070"/>
      <path id="Path_914" data-name="Path 914" d="M224,400h8.672v1.084H224Zm0,0" transform="translate(-208.824 -372.9)" fill="#707070"/>
      <path id="Path_915" data-name="Path 915" d="M372.336,352a2.1,2.1,0,0,0-.378.038c-.038.007-.076.014-.113.023a2.238,2.238,0,0,0-.286.089c-.057.022-.112.049-.168.076s-.094.043-.139.069a2.14,2.14,0,0,0-1.084-.3,2.168,2.168,0,0,0,0,4.336,2.144,2.144,0,0,0,1.084-.3c.045.026.092.047.139.069s.11.054.168.076a2.209,2.209,0,0,0,.286.089l.113.023a2.166,2.166,0,1,0,.378-4.3Zm-3.252,2.168a1.085,1.085,0,0,1,1.084-1.084,1.038,1.038,0,0,1,.279.043,2.084,2.084,0,0,0,0,2.082,1.038,1.038,0,0,1-.279.043A1.085,1.085,0,0,1,369.084,354.168Zm3.252,1.084a1.025,1.025,0,0,1-.361-.067l-.025-.008a1.106,1.106,0,0,1-.335-.209l-.063-.057a1.074,1.074,0,0,1,0-1.491l.061-.055a1.106,1.106,0,0,1,.336-.208l.026-.008a1.082,1.082,0,1,1,.36,2.1Zm0,0" transform="translate(-343.068 -328.152)" fill="#707070"/>
      <path id="Path_916" data-name="Path 916" d="M41.342,314.832l-2.13,2.518H32v7.588h8.672V317.35h-.04l1.538-1.818Zm-1.754,9.022h-6.5v-5.42h5.21l-2.533,2.994-1.209-1.209-.766.766,2.043,2.043,3.76-4.445v5.271Zm0,0" transform="translate(-29.832 -293.502)" fill="#707070"/>
      <path id="Path_917" data-name="Path 917" d="M43.924,43.391a2.721,2.721,0,0,0-1.966-2.606l-1.828-.522v-.277a3.79,3.79,0,0,0,1.626-3.109V35.794a3.794,3.794,0,0,0-7.588,0v1.084a3.789,3.789,0,0,0,1.626,3.109v.277l-1.828.522A2.72,2.72,0,0,0,32,43.391v1.617H43.924Zm-8.672-6.513V35.794a2.71,2.71,0,0,1,5.42,0v1.084a2.71,2.71,0,1,1-5.42,0Zm3.707,3.657-1,1-1-1a3.692,3.692,0,0,0,1.993,0Zm3.881,3.389H33.084v-.533a1.633,1.633,0,0,1,1.179-1.564l1.915-.547,1.784,1.784,1.784-1.784,1.915.547a1.634,1.634,0,0,1,1.179,1.564Zm0,0" transform="translate(-29.832 -29.832)" fill="#707070"/>
      <path id="Path_918" data-name="Path 918" d="M32,240h9.756v1.084H32Zm0,0" transform="translate(-29.832 -223.74)" fill="#707070"/>
      <path id="Path_919" data-name="Path 919" d="M32,272h9.756v1.084H32Zm0,0" transform="translate(-29.832 -253.572)" fill="#707070"/>
      <path id="Path_920" data-name="Path 920" d="M32,304h6.5v1.084H32Zm0,0" transform="translate(-29.832 -283.404)" fill="#707070"/>
      <path id="Path_921" data-name="Path 921" d="M224,208h9.756v1.084H224Zm0,0" transform="translate(-208.824 -193.908)" fill="#707070"/>
      <path id="Path_922" data-name="Path 922" d="M224,176h9.756v1.084H224Zm0,0" transform="translate(-208.824 -164.076)" fill="#707070"/>
    </g>
    <g id="meter" transform="translate(1152.999 5407)">
      <path id="Path_893" data-name="Path 893" d="M32.436,5.565a19,19,0,0,0-26.87,26.87,19,19,0,0,0,26.87-26.87Zm-1.05,25.821A17.51,17.51,0,0,1,2.4,24.574H15.667a.742.742,0,1,0,0-1.484H1.974a17.512,17.512,0,1,1,34.053,0H22.332a.742.742,0,1,0,0,1.484H35.6A17.408,17.408,0,0,1,31.386,31.385Z" transform="translate(0 0)" fill="#707070"/>
      <path id="Path_894" data-name="Path 894" d="M67.85,53.416a.742.742,0,0,0,1.484,0V50.082a13.455,13.455,0,0,1,3.746.745l-.491,1.187a.742.742,0,1,0,1.372.568l.491-1.186a13.587,13.587,0,0,1,3.079,2.045l-2.349,2.347a.742.742,0,0,0,1.049,1.05l2.359-2.357A13.6,13.6,0,0,1,80.8,57.743l-1.186.491a.742.742,0,1,0,.568,1.372l1.187-.491a13.453,13.453,0,0,1,.745,3.746H78.779a.742.742,0,1,0,0,1.484h4.1a.528.528,0,0,0,.055,0,.742.742,0,0,0,.687-.739,15.024,15.024,0,1,0-30.048,0,.742.742,0,0,0,.742.742h4.1a.742.742,0,0,0,0-1.484H55.074a13.453,13.453,0,0,1,.745-3.747l1.187.491a.742.742,0,0,0,.568-1.372l-1.186-.491A13.591,13.591,0,0,1,58.6,54.48l2.357,2.357A.742.742,0,0,0,62,55.788L59.655,53.44A13.585,13.585,0,0,1,62.733,51.4l.492,1.187a.742.742,0,0,0,1.371-.569L64.1,50.827a13.45,13.45,0,0,1,3.746-.745v3.333Z" transform="translate(-49.592 -44.972)" fill="#707070"/>
      <path id="Path_895" data-name="Path 895" d="M222.131,166.823l-.006-.015-1.9-4.45a.742.742,0,0,0-.683-.451h0a.742.742,0,0,0-.682.451l-1.9,4.45-.008.019a3.421,3.421,0,0,0-.332,1.341,2.923,2.923,0,1,0,5.846,0A3.434,3.434,0,0,0,222.131,166.823Zm-2.59,2.785a1.44,1.44,0,0,1-1.437-1.439,2.153,2.153,0,0,1,.223-.785l1.214-2.845,1.216,2.845a2.153,2.153,0,0,1,.223.784A1.441,1.441,0,0,1,219.541,169.608Z" transform="translate(-200.541 -149.891)" fill="#707070"/>
      <path id="Path_896" data-name="Path 896" d="M232.516,353.8h-1.287l1.011-2.033a.742.742,0,1,0-1.329-.661l-1.544,3.105a.75.75,0,0,0,.667,1.073h1.285l-1.011,2.033a.742.742,0,1,0,1.329.661l1.544-3.105a.745.745,0,0,0-.665-1.073Z" transform="translate(-212.273 -324.668)" fill="#707070"/>
      <path id="Path_897" data-name="Path 897" d="M153.21,385.451h-2.634a.742.742,0,0,0,0,1.484h2.634a.742.742,0,1,0,0-1.484Z" transform="translate(-138.713 -356.843)" fill="#707070"/>
      <path id="Path_898" data-name="Path 898" d="M310.024,385.451H307.39a.742.742,0,0,0,0,1.484h2.634a.742.742,0,0,0,0-1.484Z" transform="translate(-283.888 -356.843)" fill="#707070"/>
      <path id="Path_899" data-name="Path 899" d="M246.732,312.582a.742.742,0,1,0-.746-.742.74.74,0,0,0,.746.742Z" transform="translate(-227.728 -288.009)" fill="#707070"/>
    </g>
    <g id="bill" transform="translate(925 5391)">
      <circle id="Ellipse_87" data-name="Ellipse 87" cx="0.5" cy="0.5" r="0.5" transform="translate(40 19)" fill="#707070"/>
      <circle id="Ellipse_88" data-name="Ellipse 88" cx="0.5" cy="0.5" r="0.5" transform="translate(43 19)" fill="#707070"/>
      <path id="Path_943" data-name="Path 943" d="M240,48h5.067v1.267H240Z" transform="translate(-206.267 -29.467)" fill="#707070"/>
      <path id="Path_944" data-name="Path 944" d="M240,432h5.067v1.267H240Z" transform="translate(-206.267 -383.067)" fill="#707070"/>
      <path id="Path_945" data-name="Path 945" d="M171.233,48.3h-1.9V31.725a4.958,4.958,0,0,0-4.958-4.958h-.109V17.9a1.9,1.9,0,0,0-1.9-1.9H145.9a1.9,1.9,0,0,0-1.9,1.9v1.9h1.267V17.9a.634.634,0,0,1,.633-.633h16.467A.634.634,0,0,1,163,17.9V30.976a2.649,2.649,0,0,0-3.456,4l3.194,3.194-.4.4a5.7,5.7,0,0,0-.217,7.831H151.6v1.267h10.767a1.9,1.9,0,0,0,.633-.108v3.274a.634.634,0,0,1-.633.633H145.9a.634.634,0,0,1-.633-.633v-1.9H144v1.9a1.9,1.9,0,0,0,1.9,1.9h10.767V54h1.267V52.733h4.433a1.9,1.9,0,0,0,1.9-1.9V49.567H170.6V54h1.267V48.933a.633.633,0,0,0-.633-.633Zm-6.967,0V47.033a.633.633,0,0,0-.186-.448l-.851-.851a4.433,4.433,0,0,1,0-6.27l.851-.851a.633.633,0,0,0,0-.9l-3.642-3.642a1.382,1.382,0,0,1,1.954-1.954l2.058,2.058a.633.633,0,0,0,.9-.9L164.267,32.2V28.033h.109a3.691,3.691,0,0,1,3.691,3.691V48.3Z" transform="translate(-117.867)" fill="#707070"/>
      <path id="Path_946" data-name="Path 946" d="M16.633,106.6h15.2a.633.633,0,0,0,.633-.633V102.8h5.067a2.536,2.536,0,0,0,2.533-2.533v-11.4h3.167a.633.633,0,0,0,.633-.633v-5.7A2.536,2.536,0,0,0,41.333,80h-15.2A2.536,2.536,0,0,0,23.6,82.533v15.2H18.533A2.536,2.536,0,0,0,16,100.267v5.7a.633.633,0,0,0,.633.633Zm24.7-25.333A1.268,1.268,0,0,1,42.6,82.533V87.6H40.067V82.533a1.268,1.268,0,0,1,1.267-1.267Zm-8.867,19a1.267,1.267,0,0,1,2.533,0,2.517,2.517,0,0,0,.341,1.267H32.467Zm-7.6-17.733a1.268,1.268,0,0,1,1.267-1.267H39.14a2.518,2.518,0,0,0-.34,1.267v17.733a1.267,1.267,0,1,1-2.533,0,2.536,2.536,0,0,0-2.533-2.533H24.867Zm-7.6,17.733A1.268,1.268,0,0,1,18.533,99H31.54a2.518,2.518,0,0,0-.34,1.267v5.067H17.267Z" transform="translate(0 -58.933)" fill="#707070"/>
      <path id="Path_947" data-name="Path 947" d="M152,112h10.767v1.267H152Z" transform="translate(-125.233 -88.4)" fill="#707070"/>
      <path id="Path_948" data-name="Path 948" d="M144,144h2.533v1.267H144Z" transform="translate(-117.867 -117.867)" fill="#707070"/>
      <path id="Path_949" data-name="Path 949" d="M256,144h2.533v1.267H256Z" transform="translate(-221 -117.867)" fill="#707070"/>
      <path id="Path_950" data-name="Path 950" d="M144,176h3.8v1.267H144Z" transform="translate(-117.867 -147.333)" fill="#707070"/>
      <path id="Path_951" data-name="Path 951" d="M256,176h2.533v1.267H256Z" transform="translate(-221 -147.333)" fill="#707070"/>
      <path id="Path_952" data-name="Path 952" d="M256,208h2.533v1.267H256Z" transform="translate(-221 -176.8)" fill="#707070"/>
      <path id="Path_953" data-name="Path 953" d="M256,272h2.533v1.267H256Z" transform="translate(-221 -235.733)" fill="#707070"/>
      <path id="Path_954" data-name="Path 954" d="M144,208h2.533v1.267H144Z" transform="translate(-117.867 -176.8)" fill="#707070"/>
      <path id="Path_955" data-name="Path 955" d="M144,240h11.4v1.267H144Z" transform="translate(-117.867 -206.267)" fill="#707070"/>
      <path id="Path_956" data-name="Path 956" d="M144,272h5.067v1.267H144Z" transform="translate(-117.867 -235.733)" fill="#707070"/>
      <path id="Path_957" data-name="Path 957" d="M80,336h6.333v1.267H80Z" transform="translate(-58.933 -294.667)" fill="#707070"/>
      <path id="Path_958" data-name="Path 958" d="M96,368h3.8v1.267H96Z" transform="translate(-73.667 -324.133)" fill="#707070"/>
    </g>
  </g>
</svg>
