<svg xmlns="http://www.w3.org/2000/svg" width="1001.185" height="399.292" viewBox="0 0 1001.185 399.292">
  <g id="Group_2622" data-name="Group 2622" transform="translate(-446.69 -979.5)">
    <text id="Automatic_meter_reading_to_facilitate_billing_and_collection_activities" data-name="Automatic meter reading to facilitate billing and collection activities" transform="translate(520 1011)" fill="#707070" font-size="18" font-family="HelveticaNeue, Helvetica Neue"><tspan x="0" y="17">Automatic meter </tspan><tspan x="0" y="39">reading to facilitate </tspan><tspan x="0" y="61">billing and collection </tspan><tspan x="0" y="83">activities</tspan></text>
    <text id="Remotely_adjustable_load_limits_and_ability_to_switch_meters_on_and_off" data-name="Remotely adjustable load limits and ability to switch meters on and off" transform="translate(892 1011)" fill="#707070" font-size="18" font-family="HelveticaNeue, Helvetica Neue"><tspan x="0" y="17">Remotely adjustable </tspan><tspan x="0" y="39">load limits and ability </tspan><tspan x="0" y="61">to switch meters on </tspan><tspan x="0" y="83">and off</tspan></text>
    <text id="Programmable_electricity_packages_including_multiple_time_of_day_slots" data-name="Programmable electricity packages including multiple time of day slots" transform="translate(1254 1002)" fill="#707070" font-size="18" font-family="HelveticaNeue, Helvetica Neue"><tspan x="0" y="17">Programmable </tspan><tspan x="0" y="39">electricity packages </tspan><tspan x="0" y="61">including multiple time </tspan><tspan x="0" y="83">of day slots</tspan></text>
    <text id="Sage_and_credits_limitations_with_automated_shutdown_for_non-paying_customers" data-name="Sage and credits
limitations with
automated shutdown
for non-paying customers" transform="translate(520 1250)" fill="#707070" font-size="18" font-family="HelveticaNeue, Helvetica Neue"><tspan x="0" y="17">Sage and credits</tspan><tspan x="0" y="39">limitations with</tspan><tspan x="0" y="61">automated shutdown</tspan><tspan x="0" y="83">for non-paying </tspan><tspan x="0" y="105">customers</tspan></text>
    <text id="Packaging_of_customer_power_usage_patterns" data-name="Packaging of customer
power usage patterns" transform="translate(892 1261)" fill="#707070" font-size="18" font-family="HelveticaNeue, Helvetica Neue"><tspan x="0" y="17">Packaging of </tspan><tspan x="0" y="39">customer</tspan><tspan x="0" y="61">power usage </tspan><tspan x="0" y="83">patterns</tspan></text>
    <text id="Detailed_monitoring_of_parameters_related_to_power_supply_quality" data-name="Detailed monitoring of
parameters related to
power supply quality" transform="translate(1254 1285)" fill="#707070" font-size="18" font-family="HelveticaNeue, Helvetica Neue"><tspan x="0" y="0">Detailed monitoring of</tspan><tspan x="0" y="22">parameters related to</tspan><tspan x="0" y="44">power supply quality</tspan></text>
    <path id="Path_666" data-name="Path 666" d="M132.36,158.046H366.235V306.339H132.36V287" transform="translate(341.64 821.954)" fill="none" stroke="#707070" stroke-miterlimit="10" stroke-width="1"/>
    <path id="Path_667" data-name="Path 667" d="M132.36,158.046H366.235V306.339H132.36V287" transform="translate(711.14 821.954)" fill="none" stroke="#707070" stroke-miterlimit="10" stroke-width="1"/>
    <path id="Path_668" data-name="Path 668" d="M132.36,158.046H366.235V306.339H132.36V287" transform="translate(1081.14 821.954)" fill="none" stroke="#707070" stroke-miterlimit="10" stroke-width="1"/>
    <path id="Path_669" data-name="Path 669" d="M132.36,158.046H366.235V306.339H132.36V287" transform="translate(341.64 1071.954)" fill="none" stroke="#707070" stroke-miterlimit="10" stroke-width="1"/>
    <path id="Path_670" data-name="Path 670" d="M132.36,158.046H366.235V306.339H132.36V287" transform="translate(711.14 1071.954)" fill="none" stroke="#707070" stroke-miterlimit="10" stroke-width="1"/>
    <path id="Path_671" data-name="Path 671" d="M132.36,158.046H366.235V306.339H132.36V287" transform="translate(1081.14 1071.954)" fill="none" stroke="#707070" stroke-miterlimit="10" stroke-width="1"/>
    <g id="speedometer" transform="translate(446.69 1022.66)">
      <path id="Path_690" data-name="Path 690" d="M29.593,2A27.593,27.593,0,1,0,57.186,29.593,27.593,27.593,0,0,0,29.593,2Zm0,53.347A25.754,25.754,0,1,1,55.347,29.593,25.754,25.754,0,0,1,29.593,55.347Z" transform="translate(-2 -2)" fill="#707070"/>
      <path id="Path_691" data-name="Path 691" d="M37.8,47H24.92a.92.92,0,0,0-.92.92v7.358a.92.92,0,0,0,.92.92H37.8a.92.92,0,0,0,.92-.92V47.92A.92.92,0,0,0,37.8,47Zm-.92,7.358H25.84V48.84H36.877Z" transform="translate(-3.765 -5.61)" fill="#707070"/>
      <path id="Path_692" data-name="Path 692" d="M29.994,7A23.015,23.015,0,0,0,7,29.994a.92.92,0,0,0,.92.92h7.358a.92.92,0,0,0,.92-.92A13.791,13.791,0,0,1,38.723,19.316l-5.969,4.875A6.475,6.475,0,1,0,35.8,27.235l4.875-5.969a13.726,13.726,0,0,1,3.118,8.729.92.92,0,0,0,.92.92h7.358a.92.92,0,0,0,.92-.92A23.015,23.015,0,0,0,29.994,7ZM14.386,29.075H8.858a21.1,21.1,0,0,1,2.373-8.848l4.8,2.769A15.4,15.4,0,0,0,14.386,29.075ZM16.952,21.4,12.16,18.635a21.216,21.216,0,0,1,6.475-6.475l2.759,4.783A15.785,15.785,0,0,0,16.952,21.4Zm12.123-7a15.529,15.529,0,0,0-6.08,1.619l-2.769-4.792a21.1,21.1,0,0,1,8.848-2.373Zm.92,20.189a4.6,4.6,0,0,1,0-9.2,4.981,4.981,0,0,1,1.113.138l-3,2.447a.425.425,0,0,0-.064.064,2.759,2.759,0,1,0,3.9,3.9.425.425,0,0,0,.064-.064l2.447-3a4.981,4.981,0,0,1,.138,1.113A4.6,4.6,0,0,1,29.994,34.593Zm.625-3.918a.957.957,0,0,1-1.278-.028.911.911,0,0,1-.267-.653.933.933,0,0,1,.239-.625L36.4,23.593ZM30.914,14.4V8.858a21.1,21.1,0,0,1,8.848,2.373l-2.769,4.792a15.529,15.529,0,0,0-6.08-1.619Zm12.123,7a15.42,15.42,0,0,0-1.187-1.582L43.579,17.7a.914.914,0,0,0-1.288-1.288l-2.134,1.738a16.441,16.441,0,0,0-1.564-1.2l2.759-4.783a21.215,21.215,0,0,1,6.475,6.475ZM45.6,29.075a15.4,15.4,0,0,0-1.646-6.08l4.8-2.769a21.1,21.1,0,0,1,2.373,8.848Z" transform="translate(-2.401 -2.401)" fill="#707070"/>
      <path id="Path_693" data-name="Path 693" d="M43.759,39a2.759,2.759,0,1,0,2.759,2.759A2.759,2.759,0,0,0,43.759,39Zm0,3.679a.92.92,0,1,1,.92-.92A.92.92,0,0,1,43.759,42.679Z" transform="translate(-5.129 -4.968)" fill="#707070"/>
      <path id="Path_694" data-name="Path 694" d="M51.759,39a2.759,2.759,0,1,0,2.759,2.759A2.759,2.759,0,0,0,51.759,39Zm0,3.679a.92.92,0,1,1,.92-.92A.92.92,0,0,1,51.759,42.679Z" transform="translate(-5.771 -4.968)" fill="#707070"/>
      <path id="Path_695" data-name="Path 695" d="M19.759,39a2.759,2.759,0,1,0,2.759,2.759A2.759,2.759,0,0,0,19.759,39Zm0,3.679a.92.92,0,1,1,.92-.92A.92.92,0,0,1,19.759,42.679Z" transform="translate(-3.203 -4.968)" fill="#707070"/>
      <path id="Path_696" data-name="Path 696" d="M11.759,39a2.759,2.759,0,1,0,2.759,2.759A2.759,2.759,0,0,0,11.759,39Zm0,3.679a.92.92,0,1,1,.92-.92A.92.92,0,0,1,11.759,42.679Z" transform="translate(-2.562 -4.968)" fill="#707070"/>
      <path id="Path_697" data-name="Path 697" d="M25,41h1.84v1.84H25Z" transform="translate(-3.845 -5.129)" fill="#707070"/>
      <path id="Path_698" data-name="Path 698" d="M29,41h4.6v1.84H29Z" transform="translate(-4.166 -5.129)" fill="#707070"/>
      <path id="Path_699" data-name="Path 699" d="M36,41h1.84v1.84H36Z" transform="translate(-4.728 -5.129)" fill="#707070"/>
    </g>
    <g id="switch" transform="translate(816.739 1022.66)">
      <path id="Path_700" data-name="Path 700" d="M54.3,49.845H47.175V20.471h5.341a.89.89,0,0,0,.534-1.6L28.127.177a.889.889,0,0,0-1.068,0L2.136,18.869a.89.89,0,0,0,.534,1.6H8.011V49.845H.89a.89.89,0,0,0-.89.89V54.3a.89.89,0,0,0,.89.89H54.3a.89.89,0,0,0,.89-.89v-3.56A.89.89,0,0,0,54.3,49.845ZM27.593,2,49.846,18.691H5.341Zm-17.8,18.47H45.4V49.845H9.791ZM53.406,53.405H1.78v-1.78H53.406Zm0,0" transform="translate(0 0.001)" fill="#707070"/>
      <path id="Path_701" data-name="Path 701" d="M166.556,230.057a.89.89,0,1,0-.646,1.659,8.9,8.9,0,1,1-6.475,0,.89.89,0,0,0-.646-1.659,10.681,10.681,0,1,0,7.767,0Zm0,0" transform="translate(-135.08 -204.406)" fill="#707070"/>
      <path id="Path_702" data-name="Path 702" d="M240.89,216.9a.89.89,0,0,0,.89-.89V208.89a.89.89,0,0,0-1.78,0v7.121A.89.89,0,0,0,240.89,216.9Zm0,0" transform="translate(-213.297 -184.857)" fill="#707070"/>
    </g>
    <g id="app_1_" data-name="app (1)" transform="translate(1198 1021)">
      <g id="Group_216" data-name="Group 216" transform="translate(0)">
        <g id="Group_215" data-name="Group 215">
          <path id="Path_672" data-name="Path 672" d="M132.571,0H106.129A3.733,3.733,0,0,0,102.4,3.728V52.771a3.734,3.734,0,0,0,3.729,3.729h26.442a3.734,3.734,0,0,0,3.729-3.729V3.728A3.733,3.733,0,0,0,132.571,0Zm1.846,52.771a1.848,1.848,0,0,1-1.846,1.846H106.129a1.848,1.848,0,0,1-1.846-1.846v-3.8h30.133v3.8Zm0-5.688H104.283V9.417h30.133V47.083Zm0-39.55H104.283V3.728a1.848,1.848,0,0,1,1.846-1.845h26.442a1.847,1.847,0,0,1,1.846,1.845Z" transform="translate(-102.4)" fill="#707070"/>
          <path id="Path_673" data-name="Path 673" d="M214.276,462.684h7.533a.942.942,0,1,0,0-1.883h-7.533a.942.942,0,1,0,0,1.883Z" transform="translate(-201.092 -409.951)" fill="#707070"/>
          <path id="Path_674" data-name="Path 674" d="M163.076,385.884H165.9a.942.942,0,0,0,0-1.883h-2.825a.942.942,0,1,0,0,1.883Z" transform="translate(-155.542 -341.626)" fill="#707070"/>
          <path id="Path_675" data-name="Path 675" d="M225.634,384h-2.825a.942.942,0,1,0,0,1.883h2.825a.942.942,0,1,0,0-1.883Z" transform="translate(-208.684 -341.625)" fill="#707070"/>
          <path id="Path_676" data-name="Path 676" d="M286.284,341.585l-4.708,4.708a.942.942,0,1,0,1.332,1.328l4.708-4.708a.94.94,0,1,0-1.332-1.328Z" transform="translate(-261.525 -303.646)" fill="#707070"/>
          <path id="Path_677" data-name="Path 677" d="M179.091,129.049v0h6.289l-1.507,7.1a.942.942,0,0,0,1.678.753l9.592-12.948a.942.942,0,0,0-.753-1.5h-4.746l3.736-8.08a.942.942,0,0,0-.855-1.336H185.03a.942.942,0,0,0-.868.576l-5.939,14.125a.942.942,0,0,0,.868,1.307Zm6.564-14.122h5.4l-3.736,8.08a.942.942,0,0,0,.856,1.337h4.349l-5.906,7.972.847-4.011a.942.942,0,0,0-.922-1.137h-6.031Z" transform="translate(-169.79 -100.567)" fill="#707070"/>
          <path id="Path_678" data-name="Path 678" d="M282.184,343.1a.6.6,0,0,0,.169.056,1.406,1.406,0,0,0,.188.022.942.942,0,0,0,.669-1.61c-.047-.038-.094-.075-.151-.113a.535.535,0,0,0-.16-.088.575.575,0,0,0-.18-.057.8.8,0,0,0-.366,0,.6.6,0,0,0-.169.057.735.735,0,0,0-.171.085l-.14.113a.955.955,0,0,0,0,1.337l.14.113A.735.735,0,0,0,282.184,343.1Z" transform="translate(-261.825 -303.625)" fill="#707070"/>
          <path id="Path_679" data-name="Path 679" d="M325.726,384.135a.54.54,0,0,0-.16-.086.549.549,0,0,0-.18-.056.776.776,0,0,0-.366,0,.566.566,0,0,0-.17.056.74.74,0,0,0-.17.086l-.14.113a.955.955,0,0,0,0,1.337l.14.112a.743.743,0,0,0,.17.086.663.663,0,0,0,.17.057,1.578,1.578,0,0,0,.188.019.942.942,0,0,0,.669-1.61C325.829,384.211,325.781,384.173,325.726,384.135Z" transform="translate(-299.783 -341.6)" fill="#707070"/>
        </g>
      </g>
    </g>
    <g id="battery_1_" data-name="battery (1)" transform="translate(452.938 1265)">
      <path id="Path_680" data-name="Path 680" d="M141.159,51.352h2.847l-3.895,9.737a1.128,1.128,0,0,0,1.877,1.185L155.529,47.6a1.128,1.128,0,0,0-.829-1.894h-4.423l3.047-3.808a1.128,1.128,0,0,0-.881-1.834h-7.9a1.128,1.128,0,0,0-1.057.732L140.1,49.827a1.128,1.128,0,0,0,1.057,1.525Zm4.167-9.027H150.1l-3.047,3.808a1.128,1.128,0,0,0,.881,1.834h4.193l-7.645,8.282,2.243-5.606a1.128,1.128,0,0,0-1.048-1.547h-2.885Z" transform="translate(-129.875 -34.416)" fill="#707070"/>
      <path id="Path_681" data-name="Path 681" d="M160.548,297.1a4.514,4.514,0,1,0-4.514-4.514A4.514,4.514,0,0,0,160.548,297.1Zm0-6.77a2.257,2.257,0,1,1-2.257,2.257A2.257,2.257,0,0,1,160.548,290.325Z" transform="translate(-143.622 -247.436)" fill="#707070"/>
      <path id="Path_682" data-name="Path 682" d="M115.427,42.889V39.5H113.17v3.385h-2.257V39.5h-2.257v3.385a1.128,1.128,0,0,0-1.128,1.128V47.4a4.522,4.522,0,0,0,3.385,4.371v8.042a3.389,3.389,0,0,1-3.385,3.385h-5.642V24.834a1.128,1.128,0,0,0-1.128-1.128H99.7a16.432,16.432,0,1,0-29.473,0H69.162a1.128,1.128,0,0,0-1.128,1.128V66.585a1.128,1.128,0,0,0,1.128,1.128h31.6a1.128,1.128,0,0,0,1.128-1.128V65.457h5.642a5.648,5.648,0,0,0,5.642-5.642V51.773a4.522,4.522,0,0,0,3.385-4.371V44.017A1.128,1.128,0,0,0,115.427,42.889ZM84.96,2.266A14.176,14.176,0,1,1,70.784,16.442,14.175,14.175,0,0,1,84.96,2.266Zm-9.027,63.19H70.291V25.963h1.284a16.569,16.569,0,0,0,4.358,4.2Zm11.284,0H82.7V63.2h4.514Zm0-4.514H82.7V58.686h4.514Zm0-4.514H82.7V54.173h4.514Zm4.514,9.027H89.474V53.044a1.128,1.128,0,0,0-1.128-1.128h-6.77a1.128,1.128,0,0,0-1.128,1.128V65.457H78.19V38.375H91.73Zm0-29.338H78.19v-4.7a16.424,16.424,0,0,0,13.541,0Zm7.9,29.338H93.987V30.166a16.569,16.569,0,0,0,4.358-4.2h1.284ZM114.3,47.4a2.257,2.257,0,1,1-4.514,0V45.145H114.3Z" transform="translate(-68.034 0)" fill="#707070"/>
    </g>
    <g id="battery" transform="translate(812.084 1279.914)">
      <path id="Path_683" data-name="Path 683" d="M56.272,29.879V25.588a5.82,5.82,0,0,0,5.653-5.815v-3.6a1.823,1.823,0,0,0,1.811-1.821V10.039a1.823,1.823,0,0,0-1.821-1.822H60.192V1.11a1.11,1.11,0,1,0-2.221,0V8.217h-5.62V1.11a1.11,1.11,0,0,0-2.221,0V8.217H48.412a1.825,1.825,0,0,0-1.824,1.822v4.318A1.824,1.824,0,0,0,48.4,16.178v3.6a5.82,5.82,0,0,0,5.653,5.815v4.292a9.862,9.862,0,0,0,0,19.6v.876a4.277,4.277,0,0,1-4.269,4.275H29.958a4.277,4.277,0,0,1-4.269-4.275V47.209h9.928a3.048,3.048,0,0,0,3.044-3.046V31.052a1.11,1.11,0,1,0-2.221,0V44.164a.835.835,0,0,1-.823.825H13.544a.835.835,0,0,1-.823-.825V7.968a.835.835,0,0,1,.823-.825H35.616a.835.835,0,0,1,.823.825V21.082a1.11,1.11,0,1,0,2.221,0V7.968a3.048,3.048,0,0,0-3.044-3.046h-2.1V3.571A3.574,3.574,0,0,0,29.948,0H19.209A3.574,3.574,0,0,0,15.64,3.571V4.922h-2.1A3.048,3.048,0,0,0,10.5,7.968v36.2a3.048,3.048,0,0,0,3.044,3.046h9.924v3.141a6.5,6.5,0,0,0,6.489,6.5H49.782a6.5,6.5,0,0,0,6.489-6.5v-.876a9.862,9.862,0,0,0,0-19.6ZM17.861,3.571a1.351,1.351,0,0,1,1.348-1.351H29.948A1.351,1.351,0,0,1,31.3,3.571V4.922H17.861Zm30.948,6.867H61.514v3.52H48.808Zm1.811,9.335V16.178H59.7v3.595a3.6,3.6,0,0,1-3.59,3.6H54.209A3.6,3.6,0,0,1,50.619,19.773Zm4.542,27.545a7.64,7.64,0,1,1,7.633-7.642,7.644,7.644,0,0,1-7.633,7.642Z" transform="translate(-10.5 0)" fill="#707070"/>
      <path id="Path_684" data-name="Path 684" d="M391.05,310.66h-1.873l1.481-2.978a1.11,1.11,0,0,0-1.988-.989l-2.279,4.582a1.122,1.122,0,0,0,1,1.6h1.873l-1.48,2.982a1.11,1.11,0,1,0,1.989.987l2.276-4.585a1.115,1.115,0,0,0-.994-1.6Z" transform="translate(-344.556 -272.095)" fill="#707070"/>
      <path id="Path_685" data-name="Path 685" d="M53.573,86.342a1.11,1.11,0,0,0-1.11,1.11v30.738a1.11,1.11,0,0,0,1.11,1.11H70.195a1.11,1.11,0,0,0,1.11-1.11V87.452a1.11,1.11,0,0,0-1.11-1.11ZM69.084,117.08h-14.4v-5.326h14.4Zm0-7.547h-14.4v-4.949h14.4Zm0-7.169h-14.4v-5.6h14.4Zm0-7.824h-14.4V88.563h14.4Z" transform="translate(-47.804 -76.756)" fill="#707070"/>
      <path id="Path_686" data-name="Path 686" d="M245.241,224.783a1.11,1.11,0,0,0-1.11,1.11v0a1.11,1.11,0,1,0,1.11-1.113Z" transform="translate(-218.192 -199.826)" fill="#707070"/>
    </g>
    <g id="flash-off" transform="translate(1187.709 1271.886)">
      <g id="Group_218" data-name="Group 218" transform="translate(13.66)">
        <g id="Group_217" data-name="Group 217">
          <path id="Path_687" data-name="Path 687" d="M152.871,21a1.132,1.132,0,0,0-.949-.512h-7.353L152.962,1.6a1.141,1.141,0,0,0-1.04-1.6H129.157a1.135,1.135,0,0,0-1.134,1.225l.583,7.612a1.162,1.162,0,0,0,1.222,1.047,1.139,1.139,0,0,0,1.047-1.222l-.489-6.385h19.782l-8.393,18.885a1.141,1.141,0,0,0,1.04,1.6h7.38l-2.113,4.924a1.138,1.138,0,0,0,.6,1.493,1.117,1.117,0,0,0,.448.093,1.139,1.139,0,0,0,1.047-.69l2.791-6.511A1.143,1.143,0,0,0,152.871,21Z" transform="translate(-128.02 0)" fill="#707070"/>
        </g>
      </g>
      <g id="Group_220" data-name="Group 220" transform="translate(14.783 14.798)">
        <g id="Group_219" data-name="Group 219">
          <path id="Path_688" data-name="Path 688" d="M157.228,155.844a1.139,1.139,0,0,0-1.5.578l-7.36,16.561-1.851-18.489a1.137,1.137,0,0,0-1.131-1.024h-3.5l-1.074-13.75a1.137,1.137,0,1,0-2.267.18l1.154,14.8a1.135,1.135,0,0,0,1.134,1.049h3.524l2.174,21.74a1.134,1.134,0,0,0,.952,1.011,1.2,1.2,0,0,0,.18.014,1.138,1.138,0,0,0,1.04-.676l9.106-20.488A1.139,1.139,0,0,0,157.228,155.844Z" transform="translate(-138.539 -138.673)" fill="#707070"/>
        </g>
      </g>
      <g id="Group_222" data-name="Group 222" transform="translate(0 0.002)">
        <g id="Group_221" data-name="Group 221">
          <path id="Path_689" data-name="Path 689" d="M54.306,52.707,1.947.349A1.138,1.138,0,1,0,.338,1.958L52.7,54.317a1.138,1.138,0,0,0,1.609-1.609Z" transform="translate(-0.005 -0.016)" fill="#707070"/>
        </g>
      </g>
    </g>
  </g>
</svg>
