<svg xmlns="http://www.w3.org/2000/svg" width="696.999" height="410.665" viewBox="0 0 696.999 410.665">
  <g id="Group_2648" data-name="Group 2648" transform="translate(-612 -2498)">
    <g id="Group_1135" data-name="Group 1135" transform="translate(515.398 2451.765)" opacity="0.251">
      <g id="Group_947" data-name="Group 947" transform="translate(202.961 49.815)">
        <g id="Group_926" data-name="Group 926">
          <path id="Path_3065" data-name="Path 3065" d="M297.63,94.493l-6.577-11.455-10.3,1.514-8.5-10.688,4.384-10.642L265.143,55.6l-8.575,8.648-11.291-1.98L240.7,48.987l-13.725,1.448L226.2,62.053l-10.226,5.194-10.826-7.663-10.979,8,5.706,12.3-6.534,9.845-11.872-.631-3.1,14.645,11.3,4.346.972,12.3-11.71,6.724,5.6,12.7,12.121-1.882,8.03,9.269-4.2,11.552,11.1,7.842,8.665-9.375,12.022,3.252L236,172.871l13.361-.9,1.725-11.146,11.457-6.578,9.373,7.482,11.852-8.837-5.993-10.438,5.841-10.463,12.019.886,3.685-13.625L289,113.664,287.63,101.25Zm-46.543,40.095a27.007,27.007,0,1,1,9.974-36.869A27.007,27.007,0,0,1,251.087,134.588Z" transform="translate(-178.363 -48.987)" fill="#ebebeb"/>
        </g>
        <g id="Group_928" data-name="Group 928" transform="translate(44.24 46.921)">
          <g id="Group_927" data-name="Group 927">
            <path id="Path_3066" data-name="Path 3066" d="M239.37,92.466a29.8,29.8,0,0,0-2.218-2.71,14.232,14.232,0,0,0-8.358-4.089,13.994,13.994,0,0,0-12.47,4.9,14,14,0,0,0-3.188,7.451,13.9,13.9,0,0,0,8.21,14.3,14.016,14.016,0,0,0,8.046,1,14,14,0,0,0,10.52-8.3,14.244,14.244,0,0,0,.682-9.279,29.534,29.534,0,0,0-1.223-3.282,11.126,11.126,0,0,1,1.476,3.211,14.4,14.4,0,0,1-4.407,14.969,14.582,14.582,0,0,1-6.941,3.3,14.588,14.588,0,0,1-8.42-1.012,14.506,14.506,0,0,1-8.6-14.983,14.567,14.567,0,0,1,3.371-7.78,14.568,14.568,0,0,1,6.344-4.332,14.367,14.367,0,0,1,6.666-.643,14.221,14.221,0,0,1,8.485,4.381A11.137,11.137,0,0,1,239.37,92.466Z" transform="translate(-212.372 -85.056)" fill="#ebebeb"/>
          </g>
        </g>
        <g id="Group_930" data-name="Group 930" transform="translate(67.152 24.252)">
          <g id="Group_929" data-name="Group 929">
            <path id="Path_3067" data-name="Path 3067" d="M246.921,67.631c.156.1-3.508,5.945-8.182,13.048s-8.593,12.78-8.75,12.677,3.507-5.944,8.184-13.049S246.765,67.529,246.921,67.631Z" transform="translate(-229.984 -67.63)" fill="#ebebeb"/>
          </g>
        </g>
        <g id="Group_932" data-name="Group 932" transform="translate(72.371 65.39)">
          <g id="Group_931" data-name="Group 931">
            <path id="Path_3068" data-name="Path 3068" d="M258.979,105.381a24.87,24.87,0,0,1-3.638-1.013c-2.228-.675-5.314-1.569-8.76-2.41s-6.6-1.469-8.886-1.894a24.868,24.868,0,0,1-3.7-.777,17.991,17.991,0,0,1,3.772.3,89.533,89.533,0,0,1,17.72,4.323A18.121,18.121,0,0,1,258.979,105.381Z" transform="translate(-233.997 -99.254)" fill="#ebebeb"/>
          </g>
        </g>
        <g id="Group_934" data-name="Group 934" transform="translate(64.871 74.641)">
          <g id="Group_933" data-name="Group 933">
            <path id="Path_3069" data-name="Path 3069" d="M228.248,106.366a15.315,15.315,0,0,1,1.166,3.158c.621,1.981,1.392,4.747,2.11,7.832s1.242,5.911,1.558,7.964a15.466,15.466,0,0,1,.346,3.347,17.88,17.88,0,0,1-.817-3.26c-.436-2.025-1.034-4.821-1.747-7.9s-1.41-5.847-1.912-7.857A18.014,18.014,0,0,1,228.248,106.366Z" transform="translate(-228.231 -106.366)" fill="#ebebeb"/>
          </g>
        </g>
        <g id="Group_936" data-name="Group 936" transform="translate(38.996 72.988)">
          <g id="Group_935" data-name="Group 935">
            <path id="Path_3070" data-name="Path 3070" d="M219.644,105.1c.16.1-2.239,4.368-5.358,9.54s-5.778,9.288-5.938,9.191,2.237-4.367,5.358-9.54S219.484,105,219.644,105.1Z" transform="translate(-208.34 -105.095)" fill="#ebebeb"/>
          </g>
        </g>
        <g id="Group_938" data-name="Group 938" transform="translate(48.213 26.949)">
          <g id="Group_937" data-name="Group 937">
            <path id="Path_3071" data-name="Path 3071" d="M215.443,69.7c.178-.056,1.722,4.438,3.446,10.036s2.979,10.183,2.8,10.238-1.722-4.439-3.447-10.037S215.263,69.759,215.443,69.7Z" transform="translate(-215.426 -69.704)" fill="#ebebeb"/>
          </g>
        </g>
        <g id="Group_940" data-name="Group 940" transform="translate(28.361 57.067)">
          <g id="Group_939" data-name="Group 939">
            <path id="Path_3072" data-name="Path 3072" d="M216.976,94.529c-.017.186-3.8-.023-8.437-.466s-8.392-.954-8.374-1.14,3.795.022,8.439.464S216.994,94.342,216.976,94.529Z" transform="translate(-200.165 -92.856)" fill="#ebebeb"/>
          </g>
        </g>
        <g id="Group_946" data-name="Group 946" transform="translate(47.712 50.302)">
          <g id="Group_941" data-name="Group 941">
            <path id="Path_3073" data-name="Path 3073" d="M235.84,93.25a11.138,11.138,0,1,1-15.206-4.113A11.137,11.137,0,0,1,235.84,93.25Z" transform="translate(-215.04 -87.655)" fill="#ebebeb"/>
          </g>
          <g id="Group_943" data-name="Group 943" transform="translate(5.146 8.384)">
            <g id="Group_942" data-name="Group 942">
              <path id="Path_3074" data-name="Path 3074" d="M230.373,96.942c-.109.176-2.222-1.77-5.525-2.116-3.3-.369-5.781,1.08-5.85.883-.043-.069.5-.527,1.552-.959a9.132,9.132,0,0,1,8.513.922C230,96.321,230.43,96.884,230.373,96.942Z" transform="translate(-218.996 -94.1)" fill="#e0e0e0"/>
            </g>
          </g>
          <g id="Group_945" data-name="Group 945" transform="translate(9.515 4.693)">
            <g id="Group_944" data-name="Group 944">
              <path id="Path_3075" data-name="Path 3075" d="M224.9,91.268c.178.107-1.169,2.218-1.681,5.181-.553,2.958-.025,5.405-.229,5.443-.152.073-1.016-2.435-.438-5.562C223.1,93.2,224.781,91.147,224.9,91.268Z" transform="translate(-222.355 -91.263)" fill="#e0e0e0"/>
            </g>
          </g>
        </g>
      </g>
      <g id="Group_958" data-name="Group 958" transform="translate(313.802 268.407)">
        <path id="Path_3076" data-name="Path 3076" d="M417.883,275.9l-8.511-14.822-13.329,1.959-11.005-13.828,5.672-13.769-14.861-9.862-11.095,11.189-14.61-2.561-5.924-17.184L326.462,218.9l-1,15.031-13.231,6.72-14.006-9.915-14.207,10.347,7.382,15.908-8.454,12.738-15.36-.817L263.57,287.86l14.616,5.622,1.258,15.921-15.152,8.7,7.242,16.427,15.683-2.435,10.39,11.993-5.434,14.945,14.365,10.147,11.212-12.132,15.556,4.208,4.838,16.055,17.288-1.167,2.231-14.42,14.823-8.511,12.128,9.68,15.334-11.432-7.754-13.505,7.557-13.537,15.549,1.146,4.769-17.63-13.347-7.228-1.777-16.062Zm-60.22,51.877a34.944,34.944,0,1,1,12.9-47.7A34.944,34.944,0,0,1,357.663,327.781Z" transform="translate(-263.57 -217.025)" fill="#e0e0e0"/>
        <g id="Group_948" data-name="Group 948" transform="translate(57.339 60.783)">
          <path id="Path_3077" data-name="Path 3077" d="M342.481,273.263a32.242,32.242,0,0,0-2.842-3.533,18.414,18.414,0,0,0-10.832-5.333,18.177,18.177,0,0,0-16.214,6.353,18.2,18.2,0,0,0-4.152,9.69,18.077,18.077,0,0,0,10.68,18.6,18.222,18.222,0,0,0,10.464,1.3A18.323,18.323,0,0,0,344.1,277.5a32.2,32.2,0,0,0-1.618-4.236,1.006,1.006,0,0,1,.167.251c.117.208.258.462.429.77a8.457,8.457,0,0,1,.615,1.3,13.041,13.041,0,0,1,.661,1.846,17.414,17.414,0,0,1,.751,5.323,18.656,18.656,0,0,1-6.469,13.971,18.773,18.773,0,0,1-8.942,4.237,18.781,18.781,0,0,1-10.84-1.307,18.684,18.684,0,0,1-11.072-19.286,18.8,18.8,0,0,1,4.334-10.018,18.779,18.779,0,0,1,8.167-5.587,18.663,18.663,0,0,1,15.328,1.456,17.466,17.466,0,0,1,4.219,3.331,13.086,13.086,0,0,1,1.262,1.5,8.45,8.45,0,0,1,.809,1.185c.18.3.328.553.449.76A1,1,0,0,1,342.481,273.263Z" transform="translate(-307.648 -263.751)" fill="#e0e0e0"/>
        </g>
        <g id="Group_949" data-name="Group 949" transform="translate(86.885 31.379)">
          <path id="Path_3078" data-name="Path 3078" d="M352.272,241.148c.156.1-4.622,7.637-10.67,16.826s-11.082,16.559-11.238,16.456,4.621-7.635,10.672-16.828S352.116,241.045,352.272,241.148Z" transform="translate(-330.361 -241.147)" fill="#e0e0e0"/>
        </g>
        <g id="Group_950" data-name="Group 950" transform="translate(93.638 84.621)">
          <path id="Path_3079" data-name="Path 3079" d="M367.874,289.987a43.743,43.743,0,0,1-4.687-1.378c-2.878-.891-6.87-2.058-11.332-3.149s-8.545-1.889-11.51-2.424a43.546,43.546,0,0,1-4.794-.935,4.96,4.96,0,0,1,1.315.044c.843.069,2.058.209,3.554.419,2.993.414,7.11,1.146,11.6,2.237s8.472,2.342,11.321,3.352c1.424.5,2.568.939,3.347,1.266A4.969,4.969,0,0,1,367.874,289.987Z" transform="translate(-335.552 -282.076)" fill="#e0e0e0"/>
        </g>
        <g id="Group_951" data-name="Group 951" transform="translate(83.941 96.575)">
          <path id="Path_3080" data-name="Path 3080" d="M328.111,291.265a25.047,25.047,0,0,1,1.44,4.105c.786,2.568,1.773,6.147,2.7,10.138s1.617,7.642,2.044,10.294a25.074,25.074,0,0,1,.516,4.319,30.736,30.736,0,0,1-.987-4.232c-.546-2.624-1.31-6.245-2.234-10.227s-1.836-7.567-2.5-10.162A31,31,0,0,1,328.111,291.265Z" transform="translate(-328.098 -291.265)" fill="#e0e0e0"/>
        </g>
        <g id="Group_952" data-name="Group 952" transform="translate(50.458 94.435)">
          <path id="Path_3081" data-name="Path 3081" d="M316.981,289.621c.16.1-2.983,5.6-7.018,12.293s-7.438,12.041-7.6,11.943,2.982-5.6,7.018-12.293S316.821,289.525,316.981,289.621Z" transform="translate(-302.359 -289.62)" fill="#e0e0e0"/>
        </g>
        <g id="Group_953" data-name="Group 953" transform="translate(62.389 34.869)">
          <path id="Path_3082" data-name="Path 3082" d="M311.543,243.83c.18-.056,2.133,5.772,4.364,13.015s3.9,13.161,3.718,13.217-2.132-5.772-4.364-13.018S311.365,243.885,311.543,243.83Z" transform="translate(-311.53 -243.83)" fill="#e0e0e0"/>
        </g>
        <g id="Group_954" data-name="Group 954" transform="translate(36.694 73.87)">
          <path id="Path_3083" data-name="Path 3083" d="M313.53,275.941c-.017.187-4.9-.127-10.908-.7s-10.861-1.189-10.844-1.375,4.9.128,10.909.7S313.548,275.755,313.53,275.941Z" transform="translate(-291.778 -273.811)" fill="#e0e0e0"/>
        </g>
        <g id="Group_957" data-name="Group 957" transform="translate(59.561 62.912)">
          <circle id="Ellipse_275" data-name="Ellipse 275" cx="14.412" cy="14.412" r="14.412" transform="matrix(0.164, -0.986, 0.986, 0.164, 0, 28.432)" fill="#e0e0e0"/>
          <g id="Group_955" data-name="Group 955" transform="translate(8.831 13.116)">
            <path id="Path_3084" data-name="Path 3084" d="M330.863,279.049a21.031,21.031,0,0,1-1.981-1.173,13.377,13.377,0,0,0-10.55-1.143,21.24,21.24,0,0,1-2.185.723,4.989,4.989,0,0,1,2.029-1.176,11.984,11.984,0,0,1,10.956,1.188C330.344,278.285,330.918,278.994,330.863,279.049Z" transform="translate(-316.145 -275.47)" fill="#ebebeb"/>
          </g>
          <g id="Group_956" data-name="Group 956" transform="translate(14.572 8.245)">
            <path id="Path_3085" data-name="Path 3085" d="M323.759,271.73c.189.105-1.605,2.827-2.273,6.686-.718,3.852.014,7.027-.2,7.06-.146.078-1.214-3.158-.47-7.179C321.522,274.269,323.65,271.606,323.759,271.73Z" transform="translate(-320.558 -271.726)" fill="#ebebeb"/>
          </g>
        </g>
      </g>
      <g id="Group_969" data-name="Group 969" transform="translate(395.423 46.986)">
        <path id="Path_3086" data-name="Path 3086" d="M403.987,76.448l-4.284-7.46-6.708.986-5.54-6.961,2.855-6.931-7.48-4.964-5.585,5.631-7.354-1.289-2.983-8.648-8.938.943-.506,7.566L350.805,58.7l-7.051-4.99L336.6,58.92l3.716,8.008-4.255,6.411-7.732-.41-2.019,9.537L333.67,85.3l.633,8.013-7.627,4.38,3.646,8.268,7.894-1.225,5.229,6.036-2.736,7.523,7.231,5.107,5.643-6.106,7.83,2.118,2.435,8.081,8.7-.587,1.123-7.259,7.462-4.284,6.1,4.872,7.719-5.754-3.9-6.8,3.8-6.814,7.827.578,2.4-8.874-6.718-3.638-.895-8.083ZM373.675,102.56a17.589,17.589,0,1,1,6.5-24.011A17.589,17.589,0,0,1,373.675,102.56Z" transform="translate(-326.314 -46.812)" fill="#f5f5f5"/>
        <g id="Group_959" data-name="Group 959" transform="translate(28.861 30.594)">
          <path id="Path_3087" data-name="Path 3087" d="M366.034,75.118A16.655,16.655,0,0,0,364.6,73.34a9.277,9.277,0,0,0-5.453-2.685,9.15,9.15,0,0,0-8.16,3.2,9.154,9.154,0,0,0-2.09,4.877,9.1,9.1,0,0,0,5.376,9.365,9.171,9.171,0,0,0,5.267.654,9.207,9.207,0,0,0,4.371-2.038,9.109,9.109,0,0,0,2.5-3.4,9.271,9.271,0,0,0,.431-6.062,16.432,16.432,0,0,0-.814-2.132.542.542,0,0,1,.083.126l.216.388a4.259,4.259,0,0,1,.31.653,6.487,6.487,0,0,1,.333.93,8.786,8.786,0,0,1,.379,2.678,9.4,9.4,0,0,1-3.257,7.032,9.46,9.46,0,0,1-4.5,2.133,9.477,9.477,0,0,1-5.456-.658,9.4,9.4,0,0,1-5.573-9.708,9.446,9.446,0,0,1,2.182-5.042,9.447,9.447,0,0,1,4.111-2.812,9.4,9.4,0,0,1,7.715.732,8.8,8.8,0,0,1,2.123,1.677,6.486,6.486,0,0,1,.635.757,4.209,4.209,0,0,1,.408.6l.225.382A.524.524,0,0,1,366.034,75.118Z" transform="translate(-348.5 -70.331)" fill="#f5f5f5"/>
        </g>
        <g id="Group_960" data-name="Group 960" transform="translate(43.734 15.794)">
          <path id="Path_3088" data-name="Path 3088" d="M370.961,58.954c.079.052-2.326,3.844-5.37,8.47s-5.578,8.335-5.656,8.283,2.325-3.844,5.371-8.471S370.883,58.9,370.961,58.954Z" transform="translate(-359.934 -58.954)" fill="#f5f5f5"/>
        </g>
        <g id="Group_961" data-name="Group 961" transform="translate(47.132 42.593)">
          <path id="Path_3089" data-name="Path 3089" d="M378.814,83.536a21.787,21.787,0,0,1-2.358-.693c-1.448-.447-3.458-1.035-5.7-1.584s-4.3-.951-5.793-1.22a21.884,21.884,0,0,1-2.413-.471,2.478,2.478,0,0,1,.662.022c.424.035,1.035.107,1.789.211,1.506.209,3.579.578,5.837,1.127s4.264,1.179,5.7,1.687c.717.255,1.293.474,1.685.637A2.5,2.5,0,0,1,378.814,83.536Z" transform="translate(-362.546 -79.554)" fill="#f5f5f5"/>
        </g>
        <g id="Group_962" data-name="Group 962" transform="translate(42.251 48.61)">
          <path id="Path_3090" data-name="Path 3090" d="M358.8,84.18a12.641,12.641,0,0,1,.725,2.066c.4,1.293.892,3.095,1.359,5.1s.814,3.847,1.029,5.181a12.693,12.693,0,0,1,.26,2.174,15.449,15.449,0,0,1-.5-2.129c-.275-1.322-.658-3.144-1.124-5.147s-.924-3.809-1.259-5.116A15.442,15.442,0,0,1,358.8,84.18Z" transform="translate(-358.794 -84.18)" fill="#f5f5f5"/>
        </g>
        <g id="Group_963" data-name="Group 963" transform="translate(25.397 47.532)">
          <path id="Path_3091" data-name="Path 3091" d="M353.2,83.352c.081.049-1.5,2.82-3.533,6.188s-3.744,6.061-3.824,6.011,1.5-2.818,3.533-6.188S353.118,83.3,353.2,83.352Z" transform="translate(-345.838 -83.352)" fill="#f5f5f5"/>
        </g>
        <g id="Group_964" data-name="Group 964" transform="translate(31.404 17.55)">
          <path id="Path_3092" data-name="Path 3092" d="M350.462,60.3c.09-.027,1.073,2.906,2.2,6.552s1.962,6.624,1.872,6.651-1.073-2.9-2.2-6.551S350.371,60.332,350.462,60.3Z" transform="translate(-350.455 -60.303)" fill="#f5f5f5"/>
        </g>
        <g id="Group_965" data-name="Group 965" transform="translate(18.471 37.181)">
          <path id="Path_3093" data-name="Path 3093" d="M351.461,76.467a89.043,89.043,0,0,1-10.948-1.046,88.436,88.436,0,0,1,10.948,1.046Z" transform="translate(-340.513 -75.394)" fill="#f5f5f5"/>
        </g>
        <g id="Group_968" data-name="Group 968" transform="translate(31.072 32.758)">
          <path id="Path_3094" data-name="Path 3094" d="M363.747,75.638a7.254,7.254,0,1,1-9.9-2.678A7.255,7.255,0,0,1,363.747,75.638Z" transform="translate(-350.2 -71.994)" fill="#f5f5f5"/>
          <g id="Group_966" data-name="Group 966" transform="translate(3.352 5.509)">
            <path id="Path_3095" data-name="Path 3095" d="M360.185,78.031a10.113,10.113,0,0,1-1-.591,6.734,6.734,0,0,0-5.31-.575,10.4,10.4,0,0,1-1.1.363,2.524,2.524,0,0,1,1.021-.591,6.027,6.027,0,0,1,5.514.6C359.924,77.647,360.214,78,360.185,78.031Z" transform="translate(-352.777 -76.23)" fill="#ebebeb"/>
          </g>
          <g id="Group_967" data-name="Group 967" transform="translate(6.242 3.057)">
            <path id="Path_3096" data-name="Path 3096" d="M356.611,74.346a17.462,17.462,0,0,0-1.145,3.367,17.51,17.51,0,0,0-.1,3.554,7.52,7.52,0,0,1,1.244-6.921Z" transform="translate(-354.999 -74.344)" fill="#ebebeb"/>
          </g>
        </g>
      </g>
      <g id="Group_980" data-name="Group 980" transform="translate(299.775 164.089)">
        <path id="Path_3097" data-name="Path 3097" d="M330.461,166.47l-4.284-7.462-6.71.986-5.539-6.96,2.855-6.931L309.3,141.14l-5.585,5.631-7.354-1.289-2.982-8.649-8.938.944-.506,7.566-6.66,3.382-7.049-4.991-7.151,5.209,3.715,8.008-4.255,6.411-7.731-.411-2.02,9.538,7.358,2.831.632,8.013-7.626,4.379,3.645,8.27,7.894-1.227,5.229,6.037-2.734,7.523,7.231,5.107,5.642-6.106,7.831,2.118,2.435,8.081,8.7-.587,1.123-7.259,7.462-4.284,6.1,4.872,7.719-5.754-3.9-6.8,3.8-6.814,7.826.576,2.4-8.873-6.719-3.638-.894-8.083ZM300.15,192.582a17.59,17.59,0,1,1,6.5-24.012A17.59,17.59,0,0,1,300.15,192.582Z" transform="translate(-252.787 -136.833)" fill="#f5f5f5"/>
        <g id="Group_970" data-name="Group 970" transform="translate(28.862 30.595)">
          <path id="Path_3098" data-name="Path 3098" d="M292.507,165.14a16.229,16.229,0,0,0-1.431-1.778,9.277,9.277,0,0,0-5.452-2.685,9.153,9.153,0,0,0-8.162,3.2,9.191,9.191,0,0,0-2.09,4.878,9.1,9.1,0,0,0,5.376,9.365,9.171,9.171,0,0,0,5.267.654,9.223,9.223,0,0,0,7.306-11.5,16.181,16.181,0,0,0-.814-2.132.494.494,0,0,1,.083.126l.217.388a4.271,4.271,0,0,1,.308.653,6.278,6.278,0,0,1,.333.93,8.746,8.746,0,0,1,.379,2.678,9.389,9.389,0,0,1-3.256,7.032,9.465,9.465,0,0,1-4.5,2.133,9.463,9.463,0,0,1-5.456-.66,9.406,9.406,0,0,1-5.573-9.707,9.446,9.446,0,0,1,2.182-5.042,9.447,9.447,0,0,1,4.111-2.812,9.4,9.4,0,0,1,7.715.732,8.8,8.8,0,0,1,2.123,1.677,6.751,6.751,0,0,1,.636.756,4.378,4.378,0,0,1,.407.6l.226.382A.485.485,0,0,1,292.507,165.14Z" transform="translate(-274.974 -160.353)" fill="#f5f5f5"/>
        </g>
        <g id="Group_971" data-name="Group 971" transform="translate(43.734 15.796)">
          <path id="Path_3099" data-name="Path 3099" d="M297.436,148.976c.078.051-2.327,3.844-5.371,8.47s-5.578,8.335-5.656,8.283,2.326-3.844,5.371-8.471S297.356,148.924,297.436,148.976Z" transform="translate(-286.407 -148.976)" fill="#f5f5f5"/>
        </g>
        <g id="Group_972" data-name="Group 972" transform="translate(47.132 42.594)">
          <path id="Path_3100" data-name="Path 3100" d="M305.289,173.558a21.653,21.653,0,0,1-2.36-.693c-1.448-.448-3.458-1.035-5.7-1.584s-4.3-.951-5.794-1.22a21.877,21.877,0,0,1-2.413-.471,2.478,2.478,0,0,1,.662.022c.424.035,1.035.105,1.789.211,1.508.208,3.58.578,5.837,1.127s4.265,1.179,5.7,1.687c.717.254,1.292.472,1.685.637A2.566,2.566,0,0,1,305.289,173.558Z" transform="translate(-289.019 -169.576)" fill="#f5f5f5"/>
        </g>
        <g id="Group_973" data-name="Group 973" transform="translate(42.251 48.611)">
          <path id="Path_3101" data-name="Path 3101" d="M285.274,174.2a12.408,12.408,0,0,1,.726,2.066c.4,1.293.892,3.093,1.359,5.1s.814,3.847,1.029,5.181a12.417,12.417,0,0,1,.259,2.174,15.68,15.68,0,0,1-.5-2.13c-.274-1.322-.658-3.144-1.124-5.149s-.924-3.808-1.259-5.115A15.681,15.681,0,0,1,285.274,174.2Z" transform="translate(-285.267 -174.202)" fill="#f5f5f5"/>
        </g>
        <g id="Group_974" data-name="Group 974" transform="translate(25.397 47.534)">
          <path id="Path_3102" data-name="Path 3102" d="M279.671,173.374c.081.049-1.5,2.82-3.532,6.188s-3.745,6.061-3.826,6.011,1.5-2.818,3.533-6.188S279.591,173.326,279.671,173.374Z" transform="translate(-272.311 -173.374)" fill="#f5f5f5"/>
        </g>
        <g id="Group_975" data-name="Group 975" transform="translate(31.404 17.551)">
          <path id="Path_3103" data-name="Path 3103" d="M276.935,150.325c.09-.027,1.073,2.906,2.2,6.552s1.96,6.624,1.871,6.651-1.073-2.9-2.2-6.551S276.845,150.354,276.935,150.325Z" transform="translate(-276.928 -150.325)" fill="#f5f5f5"/>
        </g>
        <g id="Group_976" data-name="Group 976" transform="translate(18.471 37.182)">
          <path id="Path_3104" data-name="Path 3104" d="M277.934,166.489a89.112,89.112,0,0,1-10.948-1.046,44.439,44.439,0,0,1,5.491.353A44.43,44.43,0,0,1,277.934,166.489Z" transform="translate(-266.986 -165.416)" fill="#f5f5f5"/>
        </g>
        <g id="Group_979" data-name="Group 979" transform="translate(31.072 32.76)">
          <path id="Path_3105" data-name="Path 3105" d="M290.22,165.66a7.254,7.254,0,1,1-9.9-2.678A7.254,7.254,0,0,1,290.22,165.66Z" transform="translate(-276.673 -162.016)" fill="#f5f5f5"/>
          <g id="Group_977" data-name="Group 977" transform="translate(3.352 5.509)">
            <path id="Path_3106" data-name="Path 3106" d="M286.658,168.053a10.446,10.446,0,0,1-1-.591,6.734,6.734,0,0,0-5.31-.575,10.393,10.393,0,0,1-1.1.363,2.521,2.521,0,0,1,1.021-.591,6.03,6.03,0,0,1,5.516.6C286.4,167.669,286.687,168.025,286.658,168.053Z" transform="translate(-279.25 -166.252)" fill="#ebebeb"/>
          </g>
          <g id="Group_978" data-name="Group 978" transform="translate(6.242 3.057)">
            <path id="Path_3107" data-name="Path 3107" d="M283.084,164.368a17.675,17.675,0,0,0-1.145,3.367,17.494,17.494,0,0,0-.1,3.553,7.518,7.518,0,0,1,1.244-6.919Z" transform="translate(-281.472 -164.366)" fill="#ebebeb"/>
          </g>
        </g>
      </g>
      <g id="Group_991" data-name="Group 991" transform="translate(96.602 185.751)">
        <path id="Path_3108" data-name="Path 3108" d="M292.145,228.1l-10.785-18.783-16.889,2.482-13.946-17.522,7.187-17.447-18.831-12.5L224.82,178.5l-18.512-3.244L198.8,153.485l-22.5,2.375-1.275,19.046-16.765,8.517L140.51,170.859l-18,13.111,9.354,20.158L121.15,220.269l-19.465-1.034L96.6,243.245l18.521,7.126,1.594,20.174-19.2,11.025,9.177,20.816,19.873-3.086,13.165,15.2-6.885,18.938,18.205,12.858,14.207-15.372,19.71,5.332L191.1,356.6l21.906-1.478,2.828-18.274,18.783-10.784,15.367,12.266,19.432-14.488-9.825-17.113,9.576-17.154,19.7,1.452,6.044-22.339L278,259.526l-2.25-20.353Zm-76.309,65.737a44.281,44.281,0,1,1,16.352-60.449A44.28,44.28,0,0,1,215.835,293.832Z" transform="translate(-96.602 -153.485)" fill="#f5f5f5"/>
        <g id="Group_981" data-name="Group 981" transform="translate(72.658 77.023)">
          <path id="Path_3109" data-name="Path 3109" d="M196.6,224.749a40.693,40.693,0,0,0-3.6-4.478,23.327,23.327,0,0,0-13.727-6.758,23.035,23.035,0,0,0-20.546,8.05,23.078,23.078,0,0,0-5.262,12.279,22.911,22.911,0,0,0,13.534,23.575,23.079,23.079,0,0,0,13.26,1.647,23.218,23.218,0,0,0,18.394-28.948,40.877,40.877,0,0,0-2.051-5.367c.013-.008.085.1.211.317.148.264.327.585.545.976a10.879,10.879,0,0,1,.779,1.643,16.551,16.551,0,0,1,.838,2.34,22.121,22.121,0,0,1,.951,6.745,23.642,23.642,0,0,1-8.2,17.7,23.789,23.789,0,0,1-11.332,5.369,23.792,23.792,0,0,1-13.736-1.657,23.673,23.673,0,0,1-14.03-24.438,23.781,23.781,0,0,1,5.493-12.7,23.788,23.788,0,0,1,10.347-7.079,23.649,23.649,0,0,1,19.423,1.845,22.115,22.115,0,0,1,5.346,4.221,16.443,16.443,0,0,1,1.6,1.9,10.771,10.771,0,0,1,1.026,1.5l.568.963A1.241,1.241,0,0,1,196.6,224.749Z" transform="translate(-152.456 -212.695)" fill="#f5f5f5"/>
        </g>
        <g id="Group_982" data-name="Group 982" transform="translate(110.099 39.763)">
          <path id="Path_3110" data-name="Path 3110" d="M209,184.053c.2.13-5.855,9.678-13.521,21.322s-14.041,20.983-14.239,20.853,5.855-9.676,13.522-21.325S208.806,183.923,209,184.053Z" transform="translate(-181.238 -184.052)" fill="#f5f5f5"/>
        </g>
        <g id="Group_983" data-name="Group 983" transform="translate(118.656 107.23)">
          <path id="Path_3111" data-name="Path 3111" d="M228.773,245.941a55.716,55.716,0,0,1-5.938-1.746c-3.646-1.129-8.705-2.608-14.359-3.991s-10.83-2.394-14.586-3.071a55.144,55.144,0,0,1-6.074-1.185,6.311,6.311,0,0,1,1.668.056c1.067.087,2.607.267,4.5.531,3.793.524,9.011,1.453,14.693,2.836s10.738,2.967,14.347,4.249c1.8.639,3.253,1.189,4.241,1.6A6.254,6.254,0,0,1,228.773,245.941Z" transform="translate(-187.816 -235.915)" fill="#f5f5f5"/>
        </g>
        <g id="Group_984" data-name="Group 984" transform="translate(106.369 122.377)">
          <path id="Path_3112" data-name="Path 3112" d="M178.388,247.56a31.9,31.9,0,0,1,1.824,5.2c1,3.253,2.247,7.788,3.423,12.847s2.05,9.684,2.59,13.044a31.553,31.553,0,0,1,.654,5.473,39.272,39.272,0,0,1-1.25-5.362c-.692-3.325-1.66-7.914-2.829-12.96s-2.327-9.589-3.171-12.877A38.782,38.782,0,0,1,178.388,247.56Z" transform="translate(-178.371 -247.56)" fill="#f5f5f5"/>
        </g>
        <g id="Group_985" data-name="Group 985" transform="translate(63.938 119.666)">
          <path id="Path_3113" data-name="Path 3113" d="M164.284,245.477c.2.122-3.779,7.1-8.894,15.576s-9.426,15.258-9.629,15.135,3.779-7.1,8.894-15.578S164.081,245.355,164.284,245.477Z" transform="translate(-145.753 -245.476)" fill="#f5f5f5"/>
        </g>
        <g id="Group_986" data-name="Group 986" transform="translate(79.058 44.184)">
          <path id="Path_3114" data-name="Path 3114" d="M157.393,187.451c.226-.07,2.7,7.315,5.53,16.493s4.938,16.677,4.712,16.747-2.7-7.315-5.531-16.495S157.167,187.521,157.393,187.451Z" transform="translate(-157.376 -187.451)" fill="#f5f5f5"/>
        </g>
        <g id="Group_987" data-name="Group 987" transform="translate(46.499 93.606)">
          <path id="Path_3115" data-name="Path 3115" d="M159.909,228.142c-.022.235-6.212-.163-13.822-.888s-13.763-1.508-13.741-1.743,6.21.161,13.823.888S159.933,227.906,159.909,228.142Z" transform="translate(-132.347 -225.442)" fill="#f5f5f5"/>
        </g>
        <g id="Group_990" data-name="Group 990" transform="translate(73.877 78.123)">
          <circle id="Ellipse_276" data-name="Ellipse 276" cx="18.263" cy="18.263" r="18.263" transform="translate(0 35.091) rotate(-73.887)" fill="#f5f5f5"/>
          <g id="Group_988" data-name="Group 988" transform="translate(12.787 18.218)">
            <path id="Path_3116" data-name="Path 3116" d="M181.873,232.08a26.715,26.715,0,0,1-2.509-1.487A16.938,16.938,0,0,0,166,229.145a26.658,26.658,0,0,1-2.77.914,6.342,6.342,0,0,1,2.572-1.489,15.185,15.185,0,0,1,13.883,1.505C181.216,231.112,181.943,232.009,181.873,232.08Z" transform="translate(-163.223 -227.545)" fill="#ebebeb"/>
          </g>
          <g id="Group_989" data-name="Group 989" transform="translate(20.064 12.045)">
            <path id="Path_3117" data-name="Path 3117" d="M172.873,222.805c.238.134-2.035,3.583-2.88,8.474-.911,4.881.018,8.9-.251,8.946-.183.1-1.538-4-.594-9.1C170.039,226.024,172.735,222.649,172.873,222.805Z" transform="translate(-168.817 -222.8)" fill="#ebebeb"/>
          </g>
        </g>
      </g>
      <g id="Group_1002" data-name="Group 1002" transform="translate(595.288 174.364)">
        <path id="Path_3118" data-name="Path 3118" d="M675.5,219.341l-10.784-18.783-16.89,2.483-13.946-17.522,7.188-17.447-18.831-12.5-14.06,14.178-18.514-3.246-7.507-21.775-22.5,2.375-1.273,19.047-16.767,8.517-17.747-12.565-18,13.111,9.354,20.159L504.5,211.517l-19.463-1.034-5.085,24.008,18.521,7.126,1.594,20.175-19.2,11.025,9.176,20.816,19.873-3.087,13.166,15.2L516.2,324.682l18.205,12.858,14.207-15.372,19.712,5.332,6.131,20.344,21.906-1.478,2.828-18.273,18.783-10.785,15.368,12.266,19.432-14.486-9.827-17.114,9.577-17.153,19.7,1.452,6.044-22.34-16.914-9.159L659.1,230.419Zm-76.308,65.737a44.28,44.28,0,1,1,16.352-60.449A44.28,44.28,0,0,1,599.191,285.078Z" transform="translate(-479.956 -144.731)" fill="#f5f5f5"/>
        <g id="Group_992" data-name="Group 992" transform="translate(72.658 77.023)">
          <path id="Path_3119" data-name="Path 3119" d="M579.952,215.995a41.135,41.135,0,0,0-3.6-4.478,23.334,23.334,0,0,0-13.725-6.758,23.035,23.035,0,0,0-20.547,8.05,23.073,23.073,0,0,0-5.261,12.28,22.9,22.9,0,0,0,13.534,23.574,23.091,23.091,0,0,0,13.26,1.648A23.218,23.218,0,0,0,582,221.363a41.222,41.222,0,0,0-2.05-5.369,1.326,1.326,0,0,1,.209.317l.545.976a10.655,10.655,0,0,1,.779,1.644,16.543,16.543,0,0,1,.838,2.34,22.1,22.1,0,0,1,.952,6.744,23.645,23.645,0,0,1-8.2,17.7,23.792,23.792,0,0,1-11.33,5.37,23.817,23.817,0,0,1-13.736-1.657,23.679,23.679,0,0,1-14.031-24.439,23.8,23.8,0,0,1,5.494-12.7,23.787,23.787,0,0,1,10.347-7.079,23.647,23.647,0,0,1,19.424,1.843,22.077,22.077,0,0,1,5.345,4.223,16.439,16.439,0,0,1,1.6,1.9,10.553,10.553,0,0,1,1.026,1.5c.228.386.415.7.57.963A1.339,1.339,0,0,1,579.952,215.995Z" transform="translate(-535.81 -203.941)" fill="#f5f5f5"/>
        </g>
        <g id="Group_993" data-name="Group 993" transform="translate(110.1 39.764)">
          <path id="Path_3120" data-name="Path 3120" d="M592.358,175.3c.2.13-5.856,9.677-13.521,21.322S564.8,217.605,564.6,217.475s5.855-9.677,13.522-21.325S592.161,175.169,592.358,175.3Z" transform="translate(-564.593 -175.299)" fill="#f5f5f5"/>
        </g>
        <g id="Group_994" data-name="Group 994" transform="translate(118.656 107.23)">
          <path id="Path_3121" data-name="Path 3121" d="M612.129,237.186a55.117,55.117,0,0,1-5.938-1.746c-3.646-1.129-8.707-2.608-14.36-3.99S581,229.056,577.245,228.38a55.6,55.6,0,0,1-6.075-1.185,6.271,6.271,0,0,1,1.668.055c1.068.088,2.607.267,4.5.531,3.793.526,9.01,1.453,14.693,2.837s10.737,2.967,14.346,4.247c1.806.639,3.253,1.189,4.242,1.6A6.325,6.325,0,0,1,612.129,237.186Z" transform="translate(-571.17 -227.162)" fill="#f5f5f5"/>
        </g>
        <g id="Group_995" data-name="Group 995" transform="translate(106.369 122.378)">
          <path id="Path_3122" data-name="Path 3122" d="M561.742,238.807a31.541,31.541,0,0,1,1.825,5.2c1,3.255,2.247,7.789,3.422,12.847s2.05,9.684,2.59,13.044a31.721,31.721,0,0,1,.654,5.473,38.746,38.746,0,0,1-1.251-5.362c-.692-3.325-1.659-7.913-2.829-12.959s-2.326-9.589-3.172-12.878A39.1,39.1,0,0,1,561.742,238.807Z" transform="translate(-561.725 -238.807)" fill="#f5f5f5"/>
        </g>
        <g id="Group_996" data-name="Group 996" transform="translate(63.94 119.666)">
          <path id="Path_3123" data-name="Path 3123" d="M547.637,236.723c.2.124-3.779,7.1-8.893,15.578s-9.426,15.258-9.629,15.135,3.778-7.1,8.894-15.579S547.434,236.6,547.637,236.723Z" transform="translate(-529.108 -236.722)" fill="#f5f5f5"/>
        </g>
        <g id="Group_997" data-name="Group 997" transform="translate(79.058 44.184)">
          <path id="Path_3124" data-name="Path 3124" d="M540.747,178.7c.226-.069,2.7,7.316,5.531,16.493s4.937,16.677,4.71,16.747-2.7-7.313-5.531-16.495S540.521,178.767,540.747,178.7Z" transform="translate(-540.73 -178.697)" fill="#f5f5f5"/>
        </g>
        <g id="Group_998" data-name="Group 998" transform="translate(46.499 93.606)">
          <path id="Path_3125" data-name="Path 3125" d="M543.265,219.388c-.023.237-6.212-.161-13.822-.889s-13.764-1.506-13.742-1.743,6.21.161,13.823.888S543.287,219.153,543.265,219.388Z" transform="translate(-515.701 -216.689)" fill="#f5f5f5"/>
        </g>
        <g id="Group_1001" data-name="Group 1001" transform="translate(74.048 78.294)">
          <circle id="Ellipse_277" data-name="Ellipse 277" cx="18.263" cy="18.263" r="18.263" transform="translate(0 35.224) rotate(-74.661)" fill="#f5f5f5"/>
          <g id="Group_999" data-name="Group 999" transform="translate(12.616 18.048)">
            <path id="Path_3126" data-name="Path 3126" d="M565.229,223.327a26.63,26.63,0,0,1-2.511-1.488,16.951,16.951,0,0,0-13.369-1.448,26.8,26.8,0,0,1-2.77.916,6.339,6.339,0,0,1,2.572-1.49,15.189,15.189,0,0,1,13.883,1.5C564.57,222.358,565.3,223.257,565.229,223.327Z" transform="translate(-546.577 -218.792)" fill="#ebebeb"/>
          </g>
          <g id="Group_1000" data-name="Group 1000" transform="translate(19.893 11.875)">
            <path id="Path_3127" data-name="Path 3127" d="M556.227,214.052c.238.133-2.035,3.583-2.88,8.472-.911,4.881.02,8.906-.25,8.947-.185.1-1.538-4-.6-9.1C553.393,217.269,556.089,213.9,556.227,214.052Z" transform="translate(-552.171 -214.047)" fill="#ebebeb"/>
          </g>
        </g>
      </g>
      <g id="Group_1013" data-name="Group 1013" transform="translate(495.553 328.413)">
        <path id="Path_3128" data-name="Path 3128" d="M499.443,299.841l-5.3-9.236-8.306,1.221-6.857-8.617,3.534-8.579-9.261-6.145-6.914,6.971-9.1-1.6-3.692-10.707-11.065,1.168-.626,9.366-8.245,4.187-8.727-6.179-8.852,6.448,4.6,9.912-5.267,7.936-9.572-.509-2.5,11.807,9.107,3.5.784,9.92-9.442,5.421,4.513,10.236,9.772-1.517,6.474,7.472-3.386,9.313,8.952,6.323,6.986-7.559,9.693,2.621,3.015,10,10.772-.727,1.391-8.986,9.236-5.3,7.557,6.031,9.556-7.123-4.833-8.415,4.709-8.435,9.69.714,2.971-10.986-8.318-4.5-1.107-10.009Zm-37.524,32.326a21.774,21.774,0,1,1,8.041-29.726A21.773,21.773,0,0,1,461.919,332.167Z" transform="translate(-403.287 -263.153)" fill="#f5f5f5"/>
        <g id="Group_1003" data-name="Group 1003" transform="translate(35.729 37.875)">
          <path id="Path_3129" data-name="Path 3129" d="M452.458,298.2a19.869,19.869,0,0,0-1.77-2.2,11.484,11.484,0,0,0-6.75-3.322,11.328,11.328,0,0,0-10.1,3.958,11.338,11.338,0,0,0-2.586,6.039A11.259,11.259,0,0,0,437.9,314.26a11.336,11.336,0,0,0,6.52.81,11.417,11.417,0,0,0,9.045-14.235,19.724,19.724,0,0,0-1.009-2.639c.007,0,.042.049.1.156l.268.48a5.3,5.3,0,0,1,.382.808,7.967,7.967,0,0,1,.412,1.151,10.878,10.878,0,0,1,.468,3.316,11.63,11.63,0,0,1-4.031,8.707,11.7,11.7,0,0,1-5.573,2.639,11.709,11.709,0,0,1-6.754-.814,11.642,11.642,0,0,1-6.9-12.017,11.689,11.689,0,0,1,2.7-6.243,11.7,11.7,0,0,1,5.089-3.481,11.621,11.621,0,0,1,9.551.907,10.854,10.854,0,0,1,2.629,2.076,8.151,8.151,0,0,1,.786.935,5.2,5.2,0,0,1,.5.739l.28.474A.584.584,0,0,1,452.458,298.2Z" transform="translate(-430.753 -292.268)" fill="#f5f5f5"/>
        </g>
        <g id="Group_1004" data-name="Group 1004" transform="translate(54.14 19.552)">
          <path id="Path_3130" data-name="Path 3130" d="M458.56,278.184c.1.065-2.88,4.76-6.649,10.486s-6.9,10.317-7,10.253,2.879-4.759,6.65-10.486S458.462,278.12,458.56,278.184Z" transform="translate(-444.906 -278.184)" fill="#f5f5f5"/>
        </g>
        <g id="Group_1005" data-name="Group 1005" transform="translate(58.347 52.729)">
          <path id="Path_3131" data-name="Path 3131" d="M468.281,308.617a27.608,27.608,0,0,1-2.92-.859c-1.793-.555-4.281-1.283-7.061-1.963s-5.324-1.177-7.172-1.51a27.181,27.181,0,0,1-2.988-.583,3.145,3.145,0,0,1,.821.027c.524.043,1.281.131,2.214.261,1.865.258,4.431.714,7.225,1.395s5.28,1.46,7.055,2.089c.888.314,1.6.584,2.087.788A3.046,3.046,0,0,1,468.281,308.617Z" transform="translate(-448.14 -303.687)" fill="#f5f5f5"/>
        </g>
        <g id="Group_1006" data-name="Group 1006" transform="translate(52.306 60.177)">
          <path id="Path_3132" data-name="Path 3132" d="M443.5,309.413a15.58,15.58,0,0,1,.9,2.559c.49,1.6,1.1,3.83,1.683,6.317s1.008,4.762,1.274,6.414a15.523,15.523,0,0,1,.321,2.69,19.189,19.189,0,0,1-.615-2.637c-.34-1.635-.816-3.891-1.391-6.373s-1.145-4.714-1.56-6.333A19.3,19.3,0,0,1,443.5,309.413Z" transform="translate(-443.496 -309.413)" fill="#f5f5f5"/>
        </g>
        <g id="Group_1007" data-name="Group 1007" transform="translate(31.442 58.844)">
          <path id="Path_3133" data-name="Path 3133" d="M436.568,308.389c.1.06-1.858,3.49-4.372,7.659s-4.636,7.5-4.735,7.442,1.858-3.489,4.373-7.659S436.469,308.329,436.568,308.389Z" transform="translate(-427.457 -308.388)" fill="#f5f5f5"/>
        </g>
        <g id="Group_1008" data-name="Group 1008" transform="translate(38.876 21.727)">
          <path id="Path_3134" data-name="Path 3134" d="M433.18,279.855c.112-.034,1.33,3.6,2.72,8.111s2.427,8.2,2.317,8.236-1.329-3.6-2.72-8.112S433.069,279.89,433.18,279.855Z" transform="translate(-433.172 -279.855)" fill="#f5f5f5"/>
        </g>
        <g id="Group_1009" data-name="Group 1009" transform="translate(22.865 46.03)">
          <path id="Path_3135" data-name="Path 3135" d="M434.419,299.865a109.951,109.951,0,0,1-13.555-1.294,109.887,109.887,0,0,1,13.555,1.294Z" transform="translate(-420.864 -298.537)" fill="#f5f5f5"/>
        </g>
        <g id="Group_1012" data-name="Group 1012" transform="translate(36.151 38.238)">
          <circle id="Ellipse_278" data-name="Ellipse 278" cx="8.981" cy="8.981" r="8.981" transform="translate(0 17.1) rotate(-72.182)" fill="#f5f5f5"/>
          <g id="Group_1010" data-name="Group 1010" transform="translate(6.466 9.136)">
            <path id="Path_3136" data-name="Path 3136" d="M445.218,301.8a12.989,12.989,0,0,1-1.233-.731,8.337,8.337,0,0,0-6.574-.712,13.389,13.389,0,0,1-1.362.45,3.1,3.1,0,0,1,1.264-.732,7.467,7.467,0,0,1,6.827.739C444.9,301.325,445.253,301.767,445.218,301.8Z" transform="translate(-436.047 -299.571)" fill="#ebebeb"/>
          </g>
          <g id="Group_1011" data-name="Group 1011" transform="translate(10.044 6.101)">
            <path id="Path_3137" data-name="Path 3137" d="M440.792,297.241a14.728,14.728,0,0,0-1.539,8.566,9.312,9.312,0,0,1,1.539-8.566Z" transform="translate(-438.798 -297.238)" fill="#ebebeb"/>
          </g>
        </g>
      </g>
      <g id="Group_1024" data-name="Group 1024" transform="translate(500.623 46.235)">
        <path id="Path_3138" data-name="Path 3138" d="M561.5,105.114l-8.511-14.823L539.657,92.25,528.652,78.422l5.672-13.768-14.861-9.862L508.368,65.979l-14.61-2.56-5.924-17.184L470.076,48.11l-1,15.03-13.231,6.722-14.006-9.915L427.628,70.293,435.011,86.2l-8.454,12.738-15.36-.817-4.012,18.947,14.616,5.624,1.258,15.921-15.152,8.7,7.242,16.427,15.683-2.435,10.39,11.993-5.434,14.945,14.365,10.147,11.212-12.132,15.556,4.208,4.838,16.055,17.288-1.167,2.231-14.42,14.823-8.511,12.128,9.68,15.334-11.432-7.754-13.505,7.557-13.537,15.549,1.146,4.769-17.63-13.347-7.228-1.777-16.062Zm-60.219,51.877a34.944,34.944,0,1,1,12.9-47.7A34.945,34.945,0,0,1,501.278,156.991Z" transform="translate(-407.184 -46.235)" fill="#e0e0e0"/>
        <g id="Group_1014" data-name="Group 1014" transform="translate(57.339 60.783)">
          <path id="Path_3139" data-name="Path 3139" d="M486.095,102.473a31.96,31.96,0,0,0-2.842-3.533,18.414,18.414,0,0,0-10.832-5.333,18.181,18.181,0,0,0-16.214,6.352,18.207,18.207,0,0,0-4.152,9.691,18.077,18.077,0,0,0,10.68,18.6,18.206,18.206,0,0,0,10.464,1.3,18.321,18.321,0,0,0,14.515-22.844,32.2,32.2,0,0,0-1.618-4.236,1.013,1.013,0,0,1,.167.25l.429.771a8.4,8.4,0,0,1,.615,1.3,13.04,13.04,0,0,1,.661,1.846,17.411,17.411,0,0,1,.751,5.322,18.656,18.656,0,0,1-6.469,13.972,18.774,18.774,0,0,1-8.942,4.237,18.781,18.781,0,0,1-10.84-1.307,18.684,18.684,0,0,1-11.072-19.286,18.795,18.795,0,0,1,4.334-10.018,18.779,18.779,0,0,1,8.167-5.587,18.663,18.663,0,0,1,15.328,1.456,17.436,17.436,0,0,1,4.219,3.331,13.081,13.081,0,0,1,1.262,1.5,8.379,8.379,0,0,1,.809,1.185c.18.3.328.553.449.76A1.009,1.009,0,0,1,486.095,102.473Z" transform="translate(-451.262 -92.961)" fill="#e0e0e0"/>
        </g>
        <g id="Group_1015" data-name="Group 1015" transform="translate(86.885 31.379)">
          <path id="Path_3140" data-name="Path 3140" d="M495.887,70.358c.156.1-4.622,7.637-10.67,16.826s-11.082,16.559-11.238,16.456S478.6,96,484.651,86.813,495.73,70.255,495.887,70.358Z" transform="translate(-473.975 -70.357)" fill="#e0e0e0"/>
        </g>
        <g id="Group_1016" data-name="Group 1016" transform="translate(93.638 84.621)">
          <path id="Path_3141" data-name="Path 3141" d="M511.488,119.2a43.758,43.758,0,0,1-4.687-1.378c-2.878-.891-6.87-2.058-11.332-3.149s-8.545-1.889-11.51-2.423a43.954,43.954,0,0,1-4.794-.935,4.96,4.96,0,0,1,1.315.044c.843.069,2.058.209,3.554.418,2.993.415,7.11,1.147,11.6,2.239s8.474,2.342,11.321,3.352c1.424.5,2.568.939,3.347,1.266A4.968,4.968,0,0,1,511.488,119.2Z" transform="translate(-479.166 -111.286)" fill="#e0e0e0"/>
        </g>
        <g id="Group_1017" data-name="Group 1017" transform="translate(83.941 96.575)">
          <path id="Path_3142" data-name="Path 3142" d="M471.725,120.475a25.051,25.051,0,0,1,1.44,4.1c.786,2.568,1.773,6.147,2.7,10.139s1.617,7.643,2.044,10.294a25.06,25.06,0,0,1,.516,4.319,30.735,30.735,0,0,1-.987-4.232c-.546-2.624-1.31-6.245-2.234-10.227s-1.836-7.567-2.5-10.162A31.006,31.006,0,0,1,471.725,120.475Z" transform="translate(-471.712 -120.475)" fill="#e0e0e0"/>
        </g>
        <g id="Group_1018" data-name="Group 1018" transform="translate(50.458 94.435)">
          <path id="Path_3143" data-name="Path 3143" d="M460.595,118.831c.16.1-2.982,5.6-7.018,12.293s-7.438,12.039-7.6,11.943,2.982-5.6,7.018-12.293S460.435,118.735,460.595,118.831Z" transform="translate(-445.973 -118.83)" fill="#e0e0e0"/>
        </g>
        <g id="Group_1019" data-name="Group 1019" transform="translate(62.389 34.869)">
          <path id="Path_3144" data-name="Path 3144" d="M455.157,73.04c.18-.056,2.133,5.772,4.364,13.015s3.9,13.161,3.718,13.215-2.132-5.771-4.364-13.016S454.979,73.095,455.157,73.04Z" transform="translate(-455.144 -73.04)" fill="#e0e0e0"/>
        </g>
        <g id="Group_1020" data-name="Group 1020" transform="translate(36.694 73.87)">
          <path id="Path_3145" data-name="Path 3145" d="M457.144,105.151c-.017.186-4.9-.127-10.906-.7s-10.862-1.189-10.845-1.375,4.9.127,10.909.7S457.162,104.965,457.144,105.151Z" transform="translate(-435.392 -103.021)" fill="#e0e0e0"/>
        </g>
        <g id="Group_1023" data-name="Group 1023" transform="translate(58.381 61.732)">
          <circle id="Ellipse_279" data-name="Ellipse 279" cx="14.412" cy="14.412" r="14.412" transform="matrix(0.963, -0.27, 0.27, 0.963, 0, 7.774)" fill="#e0e0e0"/>
          <g id="Group_1021" data-name="Group 1021" transform="translate(10.011 14.297)">
            <path id="Path_3146" data-name="Path 3146" d="M474.477,108.259a21.018,21.018,0,0,1-1.981-1.173,13.378,13.378,0,0,0-10.55-1.143,20.6,20.6,0,0,1-2.185.722,5.014,5.014,0,0,1,2.029-1.175,11.984,11.984,0,0,1,10.956,1.188C473.958,107.495,474.532,108.2,474.477,108.259Z" transform="translate(-459.759 -104.68)" fill="#ebebeb"/>
          </g>
          <g id="Group_1022" data-name="Group 1022" transform="translate(15.752 9.425)">
            <path id="Path_3147" data-name="Path 3147" d="M467.373,100.94c.189.1-1.605,2.827-2.273,6.686-.718,3.852.014,7.027-.2,7.06-.144.078-1.214-3.158-.47-7.179C465.136,103.479,467.264,100.816,467.373,100.94Z" transform="translate(-464.172 -100.936)" fill="#ebebeb"/>
          </g>
        </g>
      </g>
      <g id="Group_1046" data-name="Group 1046" transform="translate(352.35 118.236)">
        <g id="Group_1025" data-name="Group 1025">
          <path id="Path_3148" data-name="Path 3148" d="M333.2,116.844,330.991,113l-3.454.507-2.853-3.584,1.47-3.568L322.3,103.8l-2.875,2.9-3.787-.663-1.536-4.454-4.6.485-.26,3.9-3.429,1.742-3.631-2.569-3.681,2.681,1.914,4.124-2.192,3.3-3.981-.212-1.039,4.911,3.788,1.457.325,4.128-3.926,2.254,1.876,4.258,4.065-.631,2.693,3.108-1.409,3.874,3.724,2.629,2.906-3.144,4.031,1.091,1.254,4.161,4.48-.3.579-3.737,3.841-2.206,3.143,2.509,3.975-2.963-2.01-3.5,1.958-3.508,4.03.3,1.237-4.569-3.46-1.873-.461-4.163ZM317.59,130.29a9.057,9.057,0,1,1,3.344-12.365A9.058,9.058,0,0,1,317.59,130.29Z" transform="translate(-293.203 -101.584)" fill="#ebebeb"/>
        </g>
        <g id="Group_1027" data-name="Group 1027" transform="translate(14.618 15.56)">
          <g id="Group_1026" data-name="Group 1026">
            <path id="Path_3149" data-name="Path 3149" d="M313.711,116.205c-.052.033-.269-.337-.807-.848a4.785,4.785,0,0,0-2.76-1.275,4.567,4.567,0,0,0-4,1.62A4.485,4.485,0,0,0,310.329,123a4.567,4.567,0,0,0,3.417-2.641,4.783,4.783,0,0,0,.29-3.026c-.17-.722-.38-1.1-.325-1.124a2.344,2.344,0,0,1,.579,1.052,4.76,4.76,0,0,1-.1,3.283,5.01,5.01,0,0,1-3.75,3.07,5.082,5.082,0,0,1-4.773-8.311,5.01,5.01,0,0,1,4.543-1.692,4.769,4.769,0,0,1,2.887,1.566A2.357,2.357,0,0,1,313.711,116.205Z" transform="translate(-304.441 -113.546)" fill="#ebebeb"/>
          </g>
        </g>
        <g id="Group_1029" data-name="Group 1029" transform="translate(22.505 8.129)">
          <g id="Group_1028" data-name="Group 1028">
            <path id="Path_3150" data-name="Path 3150" d="M316.2,107.837c.156.1-.987,2.118-2.555,4.5s-2.966,4.229-3.123,4.126.989-2.117,2.557-4.5S316.039,107.734,316.2,107.837Z" transform="translate(-310.503 -107.833)" fill="#ebebeb"/>
          </g>
        </g>
        <g id="Group_1031" data-name="Group 1031" transform="translate(24.268 21.849)">
          <g id="Group_1030" data-name="Group 1030">
            <path id="Path_3151" data-name="Path 3151" d="M320.237,120.513c-.069.181-1.915-.373-4.211-.929s-4.189-.922-4.167-1.115,1.982-.12,4.327.457S320.3,120.346,320.237,120.513Z" transform="translate(-311.859 -118.38)" fill="#ebebeb"/>
          </g>
        </g>
        <g id="Group_1033" data-name="Group 1033" transform="translate(21.712 25.03)">
          <g id="Group_1032" data-name="Group 1032">
            <path id="Path_3152" data-name="Path 3152" d="M309.941,120.826c.176-.056.836,1.553,1.318,3.635s.6,3.817.419,3.844-.6-1.638-1.078-3.691S309.759,120.882,309.941,120.826Z" transform="translate(-309.893 -120.825)" fill="#ebebeb"/>
          </g>
        </g>
        <g id="Group_1035" data-name="Group 1035" transform="translate(13.056 24.471)">
          <g id="Group_1034" data-name="Group 1034">
            <path id="Path_3153" data-name="Path 3153" d="M307.05,120.4c.16.1-.558,1.582-1.6,3.316s-2.024,3.064-2.184,2.966.558-1.581,1.6-3.316S306.89,120.3,307.05,120.4Z" transform="translate(-303.24 -120.395)" fill="#ebebeb"/>
          </g>
        </g>
        <g id="Group_1037" data-name="Group 1037" transform="translate(16.124 9.036)">
          <g id="Group_1036" data-name="Group 1036">
            <path id="Path_3154" data-name="Path 3154" d="M305.647,108.531c.178-.055.792,1.422,1.371,3.3s.9,3.443.723,3.5-.792-1.423-1.371-3.3S305.468,108.587,305.647,108.531Z" transform="translate(-305.598 -108.53)" fill="#ebebeb"/>
          </g>
        </g>
        <g id="Group_1039" data-name="Group 1039" transform="translate(9.51 18.997)">
          <g id="Group_1038" data-name="Group 1038">
            <path id="Path_3155" data-name="Path 3155" d="M306.152,116.888c-.018.186-1.294.217-2.851.069s-2.8-.42-2.786-.607,1.294-.216,2.85-.068S306.169,116.7,306.152,116.888Z" transform="translate(-300.514 -116.188)" fill="#ebebeb"/>
          </g>
        </g>
        <g id="Group_1045" data-name="Group 1045" transform="translate(15.999 16.868)">
          <g id="Group_1040" data-name="Group 1040">
            <path id="Path_3156" data-name="Path 3156" d="M312.477,116.427a3.735,3.735,0,1,1-5.1-1.379A3.735,3.735,0,0,1,312.477,116.427Z" transform="translate(-305.502 -114.551)" fill="#ebebeb"/>
          </g>
          <g id="Group_1042" data-name="Group 1042" transform="translate(1.714 2.59)">
            <g id="Group_1041" data-name="Group 1041">
              <path id="Path_3157" data-name="Path 3157" d="M310.646,117.717c-.13.14-.861-.385-1.876-.485-1.015-.12-1.841.237-1.938.072-.125-.134.717-.879,2.011-.745S310.8,117.611,310.646,117.717Z" transform="translate(-306.82 -116.542)" fill="#e0e0e0"/>
            </g>
          </g>
          <g id="Group_1044" data-name="Group 1044" transform="translate(2.979 1.562)">
            <g id="Group_1043" data-name="Group 1043">
              <path id="Path_3158" data-name="Path 3158" d="M308.857,115.765c.159.112-.182.839-.342,1.777-.177.935-.111,1.737-.3,1.786-.17.061-.571-.8-.369-1.906S308.719,115.649,308.857,115.765Z" transform="translate(-307.792 -115.752)" fill="#e0e0e0"/>
            </g>
          </g>
        </g>
      </g>
      <g id="Group_1068" data-name="Group 1068" transform="translate(536.89 256.015)">
        <g id="Group_1047" data-name="Group 1047">
          <path id="Path_3159" data-name="Path 3159" d="M468.609,220.3l-1.85-3.222-2.9.427L461.47,214.5,462.7,211.5l-3.23-2.144-2.412,2.433-3.175-.557L452.6,207.5l-3.861.408-.219,3.266-2.876,1.461-3.044-2.156-3.088,2.249,1.6,3.459-1.837,2.77-3.339-.178-.873,4.118,3.178,1.223.273,3.462-3.294,1.89,1.574,3.571,3.41-.529,2.258,2.607-1.181,3.25,3.123,2.206,2.437-2.638,3.382.916,1.051,3.489,3.758-.252.485-3.135,3.222-1.851,2.637,2.1,3.333-2.485-1.686-2.936,1.643-2.943,3.381.248,1.037-3.832-2.9-1.571L465.8,222.2Zm-13.091,11.277a7.6,7.6,0,1,1,2.8-10.369A7.594,7.594,0,0,1,455.519,231.575Z" transform="translate(-435.064 -207.499)" fill="#ebebeb"/>
        </g>
        <g id="Group_1049" data-name="Group 1049" transform="translate(12.262 13.052)">
          <g id="Group_1048" data-name="Group 1048">
            <path id="Path_3160" data-name="Path 3160" d="M452.265,219.762c-.044.027-.226-.282-.676-.712a4.019,4.019,0,0,0-2.315-1.068,3.774,3.774,0,1,0,3.021,5.261,4.008,4.008,0,0,0,.245-2.538c-.143-.6-.319-.918-.273-.943a1.985,1.985,0,0,1,.485.883,4,4,0,0,1-.086,2.754,4.2,4.2,0,0,1-3.145,2.574,4.261,4.261,0,0,1-4-6.97,4.2,4.2,0,0,1,3.809-1.419,4,4,0,0,1,2.422,1.313A1.985,1.985,0,0,1,452.265,219.762Z" transform="translate(-444.49 -217.532)" fill="#ebebeb"/>
          </g>
        </g>
        <g id="Group_1051" data-name="Group 1051" transform="translate(18.877 6.818)">
          <g id="Group_1050" data-name="Group 1050">
            <path id="Path_3161" data-name="Path 3161" d="M454.349,212.744a33.152,33.152,0,0,1-4.762,7.235,33.146,33.146,0,0,1,4.762-7.235Z" transform="translate(-449.575 -212.74)" fill="#ebebeb"/>
          </g>
        </g>
        <g id="Group_1053" data-name="Group 1053" transform="translate(20.356 18.325)">
          <g id="Group_1052" data-name="Group 1052">
            <path id="Path_3162" data-name="Path 3162" d="M457.738,223.376a81.448,81.448,0,0,1-7.026-1.715,13.651,13.651,0,0,1,7.026,1.715Z" transform="translate(-450.712 -221.586)" fill="#ebebeb"/>
          </g>
        </g>
        <g id="Group_1055" data-name="Group 1055" transform="translate(18.211 20.993)">
          <g id="Group_1054" data-name="Group 1054">
            <path id="Path_3163" data-name="Path 3163" d="M449.1,223.638a13.615,13.615,0,0,1,1.457,6.273,28.66,28.66,0,0,1-1.457-6.273Z" transform="translate(-449.063 -223.637)" fill="#ebebeb"/>
          </g>
        </g>
        <g id="Group_1057" data-name="Group 1057" transform="translate(10.951 20.525)">
          <g id="Group_1056" data-name="Group 1056">
            <path id="Path_3164" data-name="Path 3164" d="M446.679,223.281a16.757,16.757,0,0,1-3.178,5.268,16.863,16.863,0,0,1,3.178-5.268Z" transform="translate(-443.483 -223.277)" fill="#ebebeb"/>
          </g>
        </g>
        <g id="Group_1059" data-name="Group 1059" transform="translate(13.524 7.579)">
          <g id="Group_1058" data-name="Group 1058">
            <path id="Path_3165" data-name="Path 3165" d="M445.5,213.326a15.81,15.81,0,0,1,1.757,5.7,15.834,15.834,0,0,1-1.757-5.7Z" transform="translate(-445.46 -213.325)" fill="#ebebeb"/>
          </g>
        </g>
        <g id="Group_1061" data-name="Group 1061" transform="translate(7.977 15.934)">
          <g id="Group_1060" data-name="Group 1060">
            <path id="Path_3166" data-name="Path 3166" d="M445.925,220.335a10.067,10.067,0,0,1-4.729-.451,10.107,10.107,0,0,1,4.729.451Z" transform="translate(-441.196 -219.748)" fill="#ebebeb"/>
          </g>
        </g>
        <g id="Group_1067" data-name="Group 1067" transform="translate(13.42 14.148)">
          <g id="Group_1062" data-name="Group 1062">
            <path id="Path_3167" data-name="Path 3167" d="M451.23,219.949a3.133,3.133,0,1,1-4.276-1.158A3.13,3.13,0,0,1,451.23,219.949Z" transform="translate(-445.38 -218.375)" fill="#ebebeb"/>
          </g>
          <g id="Group_1064" data-name="Group 1064" transform="translate(1.438 2.172)">
            <g id="Group_1063" data-name="Group 1063">
              <path id="Path_3168" data-name="Path 3168" d="M449.7,221.03c-.109.118-.723-.323-1.575-.407-.849-.1-1.543.2-1.625.061-.1-.113.6-.739,1.687-.626S449.822,220.943,449.7,221.03Z" transform="translate(-446.485 -220.045)" fill="#e0e0e0"/>
            </g>
          </g>
          <g id="Group_1066" data-name="Group 1066" transform="translate(2.499 1.311)">
            <g id="Group_1065" data-name="Group 1065">
              <path id="Path_3169" data-name="Path 3169" d="M448.195,219.394c.133.094-.154.7-.287,1.491s-.092,1.456-.25,1.5-.479-.671-.31-1.6S448.078,219.3,448.195,219.394Z" transform="translate(-447.301 -219.383)" fill="#e0e0e0"/>
            </g>
          </g>
        </g>
      </g>
      <g id="Group_1090" data-name="Group 1090" transform="translate(687.543 92.622)">
        <g id="Group_1069" data-name="Group 1069">
          <path id="Path_3170" data-name="Path 3170" d="M615.872,106.693l-3.585-6.243-5.615.825-4.635-5.824,2.388-5.8L598.167,85.5l-4.674,4.712-6.153-1.078-2.495-7.238-7.48.79-.424,6.331-5.573,2.831-5.9-4.176-5.983,4.358,3.109,6.7-3.56,5.365-6.47-.343-1.69,7.979,6.157,2.369.53,6.706-6.382,3.665,3.05,6.919,6.606-1.026,4.376,5.051-2.289,6.295,6.052,4.275,4.722-5.11,6.552,1.772,2.037,6.763,7.282-.492.939-6.074,6.244-3.585,5.107,4.077,6.46-4.814-3.266-5.689,3.183-5.7,6.548.483,2.01-7.425-5.622-3.044-.748-6.766Zm-25.365,21.85a14.718,14.718,0,1,1,5.436-20.092A14.716,14.716,0,0,1,590.507,128.544Z" transform="translate(-550.875 -81.894)" fill="#ebebeb"/>
        </g>
        <g id="Group_1071" data-name="Group 1071" transform="translate(23.957 25.447)">
          <g id="Group_1070" data-name="Group 1070">
            <path id="Path_3171" data-name="Path 3171" d="M584.157,105.618c-.06.038-.388-.578-1.253-1.436a7.757,7.757,0,0,0-4.524-2.161,7.49,7.49,0,1,0,5.971,10.4,7.763,7.763,0,0,0,.415-5c-.306-1.179-.671-1.772-.609-1.8.021-.012.118.129.286.412a5.96,5.96,0,0,1,.576,1.32,7.753,7.753,0,0,1-.226,5.255,8.026,8.026,0,0,1-10.666,4.3,8.047,8.047,0,0,1-4.777-8.32,8.026,8.026,0,0,1,9.09-7.043A7.748,7.748,0,0,1,583.094,104a5.925,5.925,0,0,1,.851,1.163C584.1,105.45,584.178,105.606,584.157,105.618Z" transform="translate(-569.292 -101.456)" fill="#ebebeb"/>
          </g>
        </g>
        <g id="Group_1073" data-name="Group 1073" transform="translate(36.589 13.215)">
          <g id="Group_1072" data-name="Group 1072">
            <path id="Path_3172" data-name="Path 3172" d="M588.238,92.056c.156.1-1.782,3.325-4.331,7.2s-4.74,6.926-4.9,6.823,1.782-3.324,4.331-7.195S588.082,91.953,588.238,92.056Z" transform="translate(-579.002 -92.053)" fill="#ebebeb"/>
          </g>
        </g>
        <g id="Group_1075" data-name="Group 1075" transform="translate(39.44 35.594)">
          <g id="Group_1074" data-name="Group 1074">
            <path id="Path_3173" data-name="Path 3173" d="M594.807,112.637c-.069.185-3.045-.809-6.793-1.717s-6.844-1.409-6.82-1.6c.016-.177,3.187.014,6.982.947S594.875,112.473,594.807,112.637Z" transform="translate(-581.194 -109.256)" fill="#ebebeb"/>
          </g>
        </g>
        <g id="Group_1077" data-name="Group 1077" transform="translate(35.332 40.677)">
          <g id="Group_1076" data-name="Group 1076">
            <path id="Path_3174" data-name="Path 3174" d="M578.066,113.164c.173-.055,1.154,2.581,1.934,5.955s1.068,6.171.887,6.2-.766-2.7-1.547-6.046S577.881,113.221,578.066,113.164Z" transform="translate(-578.036 -113.163)" fill="#ebebeb"/>
          </g>
        </g>
        <g id="Group_1079" data-name="Group 1079" transform="translate(21.242 39.773)">
          <g id="Group_1078" data-name="Group 1078">
            <path id="Path_3175" data-name="Path 3175" d="M573.374,112.472c.16.1-1.088,2.461-2.788,5.279s-3.208,5.026-3.368,4.93,1.088-2.46,2.788-5.28S573.214,112.375,573.374,112.472Z" transform="translate(-567.204 -112.469)" fill="#ebebeb"/>
          </g>
        </g>
        <g id="Group_1081" data-name="Group 1081" transform="translate(26.253 14.686)">
          <g id="Group_1080" data-name="Group 1080">
            <path id="Path_3176" data-name="Path 3176" d="M571.087,93.184c.179-.055,1.086,2.374,2.025,5.425s1.557,5.569,1.379,5.625-1.086-2.374-2.025-5.426S570.909,93.24,571.087,93.184Z" transform="translate(-571.056 -93.183)" fill="#ebebeb"/>
          </g>
        </g>
        <g id="Group_1083" data-name="Group 1083" transform="translate(15.455 31.021)">
          <g id="Group_1082" data-name="Group 1082">
            <path id="Path_3177" data-name="Path 3177" d="M571.918,106.731c-.017.186-2.083.142-4.613-.1s-4.566-.588-4.549-.775,2.084-.14,4.614.1S571.936,106.545,571.918,106.731Z" transform="translate(-562.756 -105.741)" fill="#ebebeb"/>
          </g>
        </g>
        <g id="Group_1089" data-name="Group 1089" transform="translate(26.001 27.413)">
          <g id="Group_1084" data-name="Group 1084">
            <path id="Path_3178" data-name="Path 3178" d="M582.2,106.016a6.071,6.071,0,1,1-8.286-2.243A6.07,6.07,0,0,1,582.2,106.016Z" transform="translate(-570.863 -102.967)" fill="#ebebeb"/>
          </g>
          <g id="Group_1086" data-name="Group 1086" transform="translate(2.797 4.417)">
            <g id="Group_1085" data-name="Group 1085">
              <path id="Path_3179" data-name="Path 3179" d="M579.221,108.064c-.124.152-1.29-.822-3.027-1-1.735-.2-3.083.5-3.171.329-.134-.126,1.228-1.215,3.244-1S579.378,107.97,579.221,108.064Z" transform="translate(-573.013 -106.362)" fill="#e0e0e0"/>
            </g>
          </g>
          <g id="Group_1088" data-name="Group 1088" transform="translate(5.042 2.552)">
            <g id="Group_1087" data-name="Group 1087">
              <path id="Path_3180" data-name="Path 3180" d="M576.269,104.937c.165.111-.493,1.275-.765,2.851-.3,1.573-.083,2.893-.276,2.939-.164.065-.712-1.315-.39-3.058C575.144,105.923,576.138,104.82,576.269,104.937Z" transform="translate(-574.739 -104.928)" fill="#e0e0e0"/>
            </g>
          </g>
        </g>
      </g>
      <g id="Group_1112" data-name="Group 1112" transform="translate(223.464 389.388)">
        <g id="Group_1091" data-name="Group 1091">
          <path id="Path_3181" data-name="Path 3181" d="M259.12,334.825l-3.584-6.243-5.614.825-4.635-5.824,2.388-5.8-6.258-4.154-4.674,4.712-6.153-1.078-2.5-7.238-7.479.79-.424,6.331-5.573,2.831-5.9-4.176-5.984,4.358,3.11,6.7-3.562,5.365-6.469-.343-1.69,7.979,6.156,2.369.531,6.706-6.382,3.664,3.05,6.919,6.606-1.026,4.375,5.051-2.288,6.295,6.052,4.275,4.722-5.11,6.551,1.773,2.038,6.762,7.281-.492.941-6.074L240,367.388l5.108,4.077,6.459-4.814-3.265-5.689,3.182-5.7,6.55.483,2.009-7.425-5.622-3.044-.748-6.766Zm-25.364,21.85a14.718,14.718,0,1,1,5.435-20.092A14.718,14.718,0,0,1,233.756,356.676Z" transform="translate(-194.124 -310.026)" fill="#ebebeb"/>
        </g>
        <g id="Group_1093" data-name="Group 1093" transform="translate(23.957 25.447)">
          <g id="Group_1092" data-name="Group 1092">
            <path id="Path_3182" data-name="Path 3182" d="M227.406,333.749c-.06.039-.388-.578-1.253-1.435a7.755,7.755,0,0,0-4.526-2.162,7.49,7.49,0,1,0,5.972,10.4,7.761,7.761,0,0,0,.414-5c-.3-1.179-.671-1.772-.607-1.8.02-.012.117.129.286.412a5.959,5.959,0,0,1,.576,1.32,7.753,7.753,0,0,1-.226,5.255,8.026,8.026,0,0,1-10.666,4.3,8.047,8.047,0,0,1-4.777-8.32,8.024,8.024,0,0,1,9.09-7.042,7.744,7.744,0,0,1,4.653,2.453,5.979,5.979,0,0,1,.851,1.163C227.354,333.582,227.427,333.738,227.406,333.749Z" transform="translate(-212.541 -329.588)" fill="#ebebeb"/>
          </g>
        </g>
        <g id="Group_1095" data-name="Group 1095" transform="translate(36.588 13.215)">
          <g id="Group_1094" data-name="Group 1094">
            <path id="Path_3183" data-name="Path 3183" d="M231.487,320.188c.156.1-1.783,3.325-4.331,7.195s-4.74,6.926-4.9,6.823,1.783-3.324,4.332-7.2S231.331,320.085,231.487,320.188Z" transform="translate(-222.25 -320.185)" fill="#ebebeb"/>
          </g>
        </g>
        <g id="Group_1097" data-name="Group 1097" transform="translate(39.439 35.594)">
          <g id="Group_1096" data-name="Group 1096">
            <path id="Path_3184" data-name="Path 3184" d="M238.057,340.769c-.07.185-3.045-.809-6.793-1.717s-6.845-1.409-6.822-1.6c.017-.177,3.187.014,6.982.947S238.123,340.6,238.057,340.769Z" transform="translate(-224.442 -337.388)" fill="#ebebeb"/>
          </g>
        </g>
        <g id="Group_1099" data-name="Group 1099" transform="translate(35.331 40.677)">
          <g id="Group_1098" data-name="Group 1098">
            <path id="Path_3185" data-name="Path 3185" d="M221.314,341.3c.174-.055,1.155,2.581,1.936,5.955s1.067,6.171.887,6.2-.766-2.7-1.547-6.045S221.131,341.353,221.314,341.3Z" transform="translate(-221.284 -341.295)" fill="#ebebeb"/>
          </g>
        </g>
        <g id="Group_1101" data-name="Group 1101" transform="translate(21.241 39.773)">
          <g id="Group_1100" data-name="Group 1100">
            <path id="Path_3186" data-name="Path 3186" d="M216.623,340.6c.16.1-1.089,2.461-2.788,5.279s-3.209,5.026-3.369,4.93,1.089-2.46,2.789-5.28S216.463,340.507,216.623,340.6Z" transform="translate(-210.452 -340.601)" fill="#ebebeb"/>
          </g>
        </g>
        <g id="Group_1103" data-name="Group 1103" transform="translate(26.253 14.686)">
          <g id="Group_1102" data-name="Group 1102">
            <path id="Path_3187" data-name="Path 3187" d="M214.336,321.316c.178-.055,1.086,2.374,2.025,5.424s1.557,5.569,1.379,5.625-1.086-2.374-2.027-5.426S214.157,321.372,214.336,321.316Z" transform="translate(-214.305 -321.315)" fill="#ebebeb"/>
          </g>
        </g>
        <g id="Group_1105" data-name="Group 1105" transform="translate(15.455 31.022)">
          <g id="Group_1104" data-name="Group 1104">
            <path id="Path_3188" data-name="Path 3188" d="M215.167,334.863c-.018.186-2.083.142-4.613-.1s-4.566-.588-4.549-.774,2.083-.142,4.614.1S215.185,334.677,215.167,334.863Z" transform="translate(-206.005 -333.873)" fill="#ebebeb"/>
          </g>
        </g>
        <g id="Group_1111" data-name="Group 1111" transform="translate(26.001 27.413)">
          <g id="Group_1106" data-name="Group 1106">
            <path id="Path_3189" data-name="Path 3189" d="M225.448,334.148a6.071,6.071,0,1,1-8.288-2.241A6.07,6.07,0,0,1,225.448,334.148Z" transform="translate(-214.112 -331.099)" fill="#ebebeb"/>
          </g>
          <g id="Group_1108" data-name="Group 1108" transform="translate(2.797 4.416)">
            <g id="Group_1107" data-name="Group 1107">
              <path id="Path_3190" data-name="Path 3190" d="M222.47,336.2c-.124.152-1.29-.822-3.027-1-1.735-.2-3.084.5-3.171.329-.134-.125,1.228-1.215,3.244-1S222.627,336.1,222.47,336.2Z" transform="translate(-216.262 -334.494)" fill="#e0e0e0"/>
            </g>
          </g>
          <g id="Group_1110" data-name="Group 1110" transform="translate(5.042 2.551)">
            <g id="Group_1109" data-name="Group 1109">
              <path id="Path_3191" data-name="Path 3191" d="M219.518,333.069c.165.111-.494,1.275-.765,2.851-.3,1.573-.083,2.893-.276,2.939-.165.065-.712-1.315-.39-3.058C218.393,334.055,219.385,332.952,219.518,333.069Z" transform="translate(-217.988 -333.06)" fill="#e0e0e0"/>
            </g>
          </g>
        </g>
      </g>
      <g id="Group_1134" data-name="Group 1134" transform="translate(425.865 174.149)">
        <g id="Group_1113" data-name="Group 1113">
          <path id="Path_3192" data-name="Path 3192" d="M447.184,181.755l-5.375-9.362-8.419,1.237-6.95-8.734,3.583-8.7-9.387-6.23-7.008,7.066-9.228-1.617-3.741-10.853-11.216,1.184-.636,9.494-8.357,4.245-8.846-6.262-8.973,6.534,4.662,10.049-5.339,8.044-9.7-.515-2.535,11.968,9.232,3.551.795,10.056-9.57,5.5,4.574,10.376,9.906-1.539,6.563,7.575-3.433,9.44,9.075,6.408,7.081-7.662,9.825,2.658,3.056,10.141,10.919-.736,1.41-9.109,9.362-5.376,7.661,6.114,9.685-7.221-4.9-8.53,4.773-8.55,9.821.725,3.013-11.135-8.431-4.566-1.121-10.144Zm-38.036,32.766a22.072,22.072,0,1,1,8.151-30.13A22.071,22.071,0,0,1,409.148,214.521Z" transform="translate(-349.716 -144.566)" fill="#ebebeb"/>
        </g>
        <g id="Group_1115" data-name="Group 1115" transform="translate(35.926 38.159)">
          <g id="Group_1114" data-name="Group 1114">
            <path id="Path_3193" data-name="Path 3193" d="M399.626,180.14c-.09.057-.58-.866-1.878-2.153a11.642,11.642,0,0,0-6.785-3.242,11.233,11.233,0,1,0,8.955,15.6,11.638,11.638,0,0,0,.62-7.494c-.457-1.769-1.007-2.659-.912-2.707.03-.017.177.194.429.618a8.98,8.98,0,0,1,.864,1.981,11.623,11.623,0,0,1-.34,7.881,12.037,12.037,0,0,1-15.994,6.451,12.066,12.066,0,0,1-7.164-12.478,12.035,12.035,0,0,1,13.633-10.559,11.619,11.619,0,0,1,6.978,3.679,9.008,9.008,0,0,1,1.276,1.744C399.548,179.889,399.655,180.123,399.626,180.14Z" transform="translate(-377.333 -173.9)" fill="#ebebeb"/>
          </g>
        </g>
        <g id="Group_1117" data-name="Group 1117" transform="translate(54.868 19.816)">
          <g id="Group_1116" data-name="Group 1116">
            <path id="Path_3194" data-name="Path 3194" d="M405.745,159.8c.234.155-2.673,4.986-6.494,10.789s-7.109,10.387-7.343,10.232,2.673-4.985,6.5-10.791S405.511,159.649,405.745,159.8Z" transform="translate(-391.895 -159.799)" fill="#ebebeb"/>
          </g>
        </g>
        <g id="Group_1119" data-name="Group 1119" transform="translate(59.144 53.375)">
          <g id="Group_1118" data-name="Group 1118">
            <path id="Path_3195" data-name="Path 3195" d="M415.6,190.666c-.1.277-4.566-1.214-10.186-2.574-5.617-1.38-10.264-2.113-10.229-2.407.023-.264,4.779.022,10.469,1.421C411.344,188.485,415.7,190.421,415.6,190.666Z" transform="translate(-395.182 -185.597)" fill="#ebebeb"/>
          </g>
        </g>
        <g id="Group_1121" data-name="Group 1121" transform="translate(52.983 60.997)">
          <g id="Group_1120" data-name="Group 1120">
            <path id="Path_3196" data-name="Path 3196" d="M390.491,191.457c.26-.083,1.733,3.871,2.9,8.93s1.6,9.256,1.331,9.3c-.285.044-1.15-4.05-2.321-9.067S390.215,191.542,390.491,191.457Z" transform="translate(-390.445 -191.456)" fill="#ebebeb"/>
          </g>
        </g>
        <g id="Group_1123" data-name="Group 1123" transform="translate(31.854 59.643)">
          <g id="Group_1122" data-name="Group 1122">
            <path id="Path_3197" data-name="Path 3197" d="M383.456,190.42c.239.144-1.633,3.689-4.181,7.916s-4.812,7.537-5.051,7.391,1.631-3.688,4.181-7.916S383.215,190.274,383.456,190.42Z" transform="translate(-374.203 -190.415)" fill="#ebebeb"/>
          </g>
        </g>
        <g id="Group_1125" data-name="Group 1125" transform="translate(39.368 22.022)">
          <g id="Group_1124" data-name="Group 1124">
            <path id="Path_3198" data-name="Path 3198" d="M380.026,161.5c.269-.083,1.629,3.559,3.039,8.134s2.335,8.351,2.067,8.433-1.629-3.558-3.039-8.134S379.758,161.578,380.026,161.5Z" transform="translate(-379.98 -161.495)" fill="#ebebeb"/>
          </g>
        </g>
        <g id="Group_1127" data-name="Group 1127" transform="translate(23.177 46.518)">
          <g id="Group_1126" data-name="Group 1126">
            <path id="Path_3199" data-name="Path 3199" d="M381.273,181.81c-.027.278-3.125.212-6.918-.151s-6.848-.882-6.822-1.162,3.125-.212,6.918.151S381.3,181.531,381.273,181.81Z" transform="translate(-367.533 -180.326)" fill="#ebebeb"/>
          </g>
        </g>
        <g id="Group_1133" data-name="Group 1133" transform="translate(38.992 41.107)">
          <g id="Group_1128" data-name="Group 1128">
            <path id="Path_3200" data-name="Path 3200" d="M396.688,180.737a9.1,9.1,0,1,1-12.427-3.361A9.1,9.1,0,0,1,396.688,180.737Z" transform="translate(-379.69 -176.166)" fill="#ebebeb"/>
          </g>
          <g id="Group_1130" data-name="Group 1130" transform="translate(4.194 6.623)">
            <g id="Group_1129" data-name="Group 1129">
              <path id="Path_3201" data-name="Path 3201" d="M392.223,183.808c-.186.228-1.936-1.232-4.54-1.5-2.6-.3-4.623.754-4.756.492-.2-.187,1.843-1.821,4.865-1.5C390.813,181.634,392.46,183.667,392.223,183.808Z" transform="translate(-382.914 -181.257)" fill="#e0e0e0"/>
            </g>
          </g>
          <g id="Group_1132" data-name="Group 1132" transform="translate(7.56 3.826)">
            <g id="Group_1131" data-name="Group 1131">
              <path id="Path_3202" data-name="Path 3202" d="M387.8,179.12c.247.167-.74,1.911-1.146,4.276-.444,2.358-.125,4.338-.415,4.407-.247.1-1.067-1.973-.585-4.587C386.11,180.6,387.6,178.944,387.8,179.12Z" transform="translate(-385.502 -179.107)" fill="#e0e0e0"/>
            </g>
          </g>
        </g>
      </g>
    </g>
    <g id="Group_841" data-name="Group 841" transform="translate(4 1629)">
      <text id="Main_Purpose" data-name="Main
Purpose" transform="translate(680 998)" fill="#21232a" font-size="20" font-family="HelveticaNeue-Bold, Helvetica Neue" font-weight="700"><tspan x="21.18" y="20">Main</tspan><tspan x="4.68" y="45">Purpose</tspan></text>
      <text id="Example_Use_Case" data-name="Example
Use Case" transform="translate(673 1135)" fill="#21232a" font-size="20" font-family="HelveticaNeue-Bold, Helvetica Neue" font-weight="700"><tspan x="10.42" y="20">Example</tspan><tspan x="5.94" y="45">Use Case</tspan></text>
      <line id="Line_158" data-name="Line 158" y2="381.054" transform="translate(791.5 881.474)" fill="none" stroke="#707070" stroke-width="1" opacity="0.2"/>
      <line id="Line_159" data-name="Line 159" x1="601.5" transform="translate(655 1083.5)" fill="none" stroke="#707070" stroke-width="1" opacity="0.2"/>
      <text id="To_notify_customers_at_a_plant_about_a_scheduled_shut_down" data-name="To notify customers at a plant about a scheduled shut down" transform="translate(832 998)" fill="#707070" font-size="14" font-family="HelveticaNeue, Helvetica Neue"><tspan x="3.263" y="13">To notify customers at </tspan><tspan x="25.558" y="28">a plant about a </tspan><tspan x="5.335" y="43">scheduled shut down</tspan></text>
      <text id="Same_as_state_In-charge" data-name="Same as state
In-charge" transform="translate(1052 998)" fill="#707070" font-size="14" font-family="HelveticaNeue, Helvetica Neue"><tspan x="33.396" y="13">Same as state</tspan><tspan x="48.25" y="28">In-charge</tspan></text>
      <text id="Messaging_all_customers_that_the_plant_requires_maintenance_for_the_next_three_hours" data-name="Messaging all customers that the plant requires maintenance for the next three hours" transform="translate(832 1135)" fill="#707070" font-size="14" font-family="HelveticaNeue, Helvetica Neue"><tspan x="29.59" y="13">Messaging all </tspan><tspan x="13.756" y="28">customers that the </tspan><tspan x="29.968" y="43">plant requires </tspan><tspan x="10.13" y="58">maintenance for the </tspan><tspan x="21.673" y="73">next three hours</tspan></text>
      <text id="Same_as_state_In-charge-2" data-name="Same as state
In-charge" transform="translate(1043 1135)" fill="#707070" font-size="14" font-family="HelveticaNeue, Helvetica Neue"><tspan x="42.396" y="13">Same as state</tspan><tspan x="57.25" y="28">In-charge</tspan></text>
      <line id="Line_157" data-name="Line 157" y2="381.054" transform="translate(1016.5 881.474)" fill="none" stroke="#707070" stroke-width="1" opacity="0.2"/>
      <text id="State_In-charge" data-name="State In-charge" transform="translate(1038 908)" fill="#21232a" font-size="20" font-family="HelveticaNeue-Bold, Helvetica Neue" font-weight="700"><tspan x="18.39" y="20">State In-charge</tspan></text>
      <text id="Cluster_In-charge" data-name="Cluster In-charge" transform="translate(812 908)" fill="#21232a" font-size="20" font-family="HelveticaNeue-Bold, Helvetica Neue" font-weight="700"><tspan x="8.96" y="20">Cluster In-charge</tspan></text>
    </g>
  </g>
</svg>
