<svg xmlns="http://www.w3.org/2000/svg" width="1302.547" height="1197" viewBox="0 0 1302.547 1197">
  <g id="Group_2647" data-name="Group 2647" transform="translate(-320.393 -3638)">
    <g id="Group_867" data-name="Group 867" transform="translate(-11427.122 -2792.643) rotate(16)" opacity="0.502">
      <path id="Path_2915" data-name="Path 2915" d="M1083.5,930.394c34.554-10.377,71.289-21.2,98.693-45.868,24.488-22.045,41.02-55.708,30.875-88.768-10.124-32.993-40.448-54.992-71.756-65.934-17.757-6.206-36.335-9.649-54.905-12.353-20.187-2.94-40.464-5.349-60.731-7.667q-123.1-14.079-247.116-17.2c-40.8-1.028-81.587-1-122.391-.411-36.44.529-74.818.516-108.623-14.972-26.288-12.044-50.147-33.955-57.472-62.749-8.455-33.238,7.141-67.087,29.513-91.159,11.793-12.689,25.575-23.368,39.793-33.188,15.424-10.653,31.386-20.552,47.694-29.792a664.146,664.146,0,0,1,100.39-46.281c17.113-6.223,34.481-11.591,52-16.544,14.793-4.182,29.631-8.37,43.928-14.068,27.638-11.015,53.924-29.674,60.952-60.262,6.66-28.991-4.569-60.463-24.256-82-22.776-24.917-57.118-35.839-90.042-37.606-36.963-1.984-73.073,7.267-107.815,19.007-37.054,12.522-73.31,26.92-111.147,37.063A747.829,747.829,0,0,1,416.691,280.9c-18.908,2.013-38.388,4.287-57.409,2.745-15.941-1.292-31.8-5.98-43.549-17.294-10.074-9.7-16.075-23.033-14.012-37.1.375-2.555,4.257-1.469,3.884,1.071-2.511,17.126,9.13,32.908,23.476,40.992,16.58,9.343,36.755,9.356,55.214,8.287a722.154,722.154,0,0,0,118.849-17.181c38.391-8.769,75.411-21.3,112.39-34.694,35.12-12.717,71.025-25.13,108.544-27.884,32.555-2.39,66.8,2.353,95.163,19.366,24.926,14.952,43.255,39.888,49.1,68.5,5.707,27.961-2.2,56.1-23.363,75.617-21.915,20.2-51.964,28.84-79.967,36.8-35.517,10.09-70.273,21.883-103.915,37.2a652.335,652.335,0,0,0-97.749,54.954c-29.87,20.412-59.349,46.1-68.8,82.511-4.4,16.963-3.588,34.953,3.775,50.975,6.547,14.246,17.33,26.229,29.891,35.472,29.97,22.053,67.743,26.581,103.944,27.031,40.659.506,81.319-.866,121.991-.2q124.333,2.041,248.157,15.136,31.027,3.284,61.976,7.26c18.558,2.385,37.179,4.754,55.425,8.989,32.443,7.53,64.012,22.009,84.177,49.516a82.334,82.334,0,0,1,16.041,40.88c1.412,15.473-2.376,30.975-9.372,44.74-15.484,30.466-44.489,49.845-75.29,62.576-16.5,6.819-33.61,11.985-50.689,17.114-2.488.747-3.551-3.139-1.071-3.884Z" transform="translate(13050.796 2788.702)" fill="#f2f2f2"/>
      <circle id="Ellipse_263" data-name="Ellipse 263" cx="32.225" cy="32.225" r="32.225" transform="translate(13322.893 2986.093)" fill="#f2f2f2"/>
      <circle id="Ellipse_264" data-name="Ellipse 264" cx="32.225" cy="32.225" r="32.225" transform="translate(13546.453 3047.186)" fill="#f2f2f2"/>
      <circle id="Ellipse_265" data-name="Ellipse 265" cx="32.225" cy="32.225" r="32.225" transform="translate(13735.774 2925)" fill="#f2f2f2"/>
      <circle id="Ellipse_266" data-name="Ellipse 266" cx="32.225" cy="32.225" r="32.225" transform="translate(13853.932 3061.956)" fill="#f2f2f2"/>
      <circle id="Ellipse_267" data-name="Ellipse 267" cx="32.225" cy="32.225" r="32.225" transform="translate(13694.15 3220.395)" fill="#f2f2f2"/>
      <circle id="Ellipse_268" data-name="Ellipse 268" cx="32.225" cy="32.225" r="32.225" transform="translate(13491.402 3296.929)" fill="#f2f2f2"/>
      <circle id="Ellipse_269" data-name="Ellipse 269" cx="32.225" cy="32.225" r="32.225" transform="translate(13706.234 3416.429)" fill="#f2f2f2"/>
      <circle id="Ellipse_257" data-name="Ellipse 257" cx="32.225" cy="32.225" r="32.225" transform="translate(13937.18 3483.565)" fill="#f2f2f2"/>
      <circle id="Ellipse_258" data-name="Ellipse 258" cx="32.225" cy="32.225" r="32.225" transform="translate(14207.063 3468.795)" fill="#f2f2f2"/>
      <circle id="Ellipse_270" data-name="Ellipse 270" cx="32.225" cy="32.225" r="32.225" transform="translate(14091.591 3690.341)" fill="#f2f2f2"/>
    </g>
    <text id="How_do_I_register_a_customer_s_payment_" data-name="How do I register a customer’s payment?" transform="translate(960 3658)" fill="#21232a" font-size="20" font-family="HelveticaNeue-Bold, Helvetica Neue" font-weight="700"><tspan x="-195.53" y="0">How do I register a customer’s payment?</tspan></text>
    <text id="How_do_I_update_a_customer_s_contact_details_" data-name="How do I update a customer’s contact details?" transform="translate(960 3849)" fill="#21232a" font-size="20" font-family="HelveticaNeue-Bold, Helvetica Neue" font-weight="700"><tspan x="-221.45" y="0">How do I update a customer’s contact details?</tspan></text>
    <text id="How_do_I_identify_which_customers_to_approach_for_billing_" data-name="How do I identify which customers to approach for billing?" transform="translate(960 4290)" fill="#21232a" font-size="20" font-family="HelveticaNeue-Bold, Helvetica Neue" font-weight="700"><tspan x="-278.06" y="0">How do I identify which customers to approach for billing?</tspan></text>
    <text id="How_do_I_monitor_which_customer_meters_to_read_" data-name="How do I monitor which customer meters to read?" transform="translate(960 4478)" fill="#21232a" font-size="20" font-family="HelveticaNeue-Bold, Helvetica Neue" font-weight="700"><tspan x="-239.76" y="0">How do I monitor which customer meters to read?</tspan></text>
    <text id="How_do_I_check_the_amount_of_cash_held_by_the_field_team_" data-name="How do I check the amount of cash held by the field team?" transform="translate(960 4711)" fill="#21232a" font-size="20" font-family="HelveticaNeue-Bold, Helvetica Neue" font-weight="700"><tspan x="-279.79" y="0">How do I check the amount of cash held by the field team?</tspan></text>
    <text id="How_do_I_assign_a_pending_task_to_a_field_agent_" data-name="How do I assign a pending task to a field agent?" transform="translate(960 4042)" fill="#21232a" font-size="20" font-family="HelveticaNeue-Bold, Helvetica Neue" font-weight="700"><tspan x="-228.86" y="0">How do I assign a pending task to a field agent?</tspan></text>
    <g id="Group_843" data-name="Group 843" transform="translate(36)">
      <text id="Navigate_to_the_receivable_module_from_the_home_page_of_the_main_menu_._" data-name="Navigate to the receivable module (from the home page of the main menu). " transform="translate(877 3686)" fill="#707070" font-size="14" font-family="HelveticaNeue, Helvetica Neue"><tspan x="-235.746" y="0">Navigate to the receivable module (from the home page of the main menu). </tspan></text>
      <text id="From_the_list_select_the_customer_who_is_making_the_payment_and_tap_Add_Transaction_." data-name="From the list, select the customer who is making the payment and tap “ Add Transaction”." transform="translate(922 3713)" fill="#707070" font-size="14" font-family="HelveticaNeue, Helvetica Neue"><tspan x="-280.742" y="0">From the list, select the customer who is making the payment and tap “ Add Transaction”.</tspan></text>
      <text id="Enter_the_amount_paid_and_for_which_service_the_payment_is_being_made." data-name="Enter the amount paid and for which service the payment is being made." transform="translate(868 3740)" fill="#707070" font-size="14" font-family="HelveticaNeue, Helvetica Neue"><tspan x="-226.919" y="0">Enter the amount paid and for which service the payment is being made.</tspan></text>
      <text id="A_customer_receipt_can_then_be_generated_from_the_Transaction_Tab." data-name="A customer receipt can then be generated from the Transaction Tab." transform="translate(854 3767)" fill="#707070" font-size="14" font-family="HelveticaNeue, Helvetica Neue"><tspan x="-212.786" y="0">A customer receipt can then be generated from the Transaction Tab.</tspan></text>
    </g>
    <text id="Meter_readings_take_place_towards_the_end_of_the_month." data-name="Meter readings take place towards the end of the month." transform="translate(677 4530)" fill="#707070" font-size="14" font-family="HelveticaNeue, Helvetica Neue"><tspan x="0" y="0">Meter readings take place towards the end of the month.</tspan></text>
    <text id="Go_to_the_bank_deposit_module_on_the_plant_section_of_Home_Page." data-name="Go to the bank deposit module on the plant section of Home Page." transform="translate(677 4763)" fill="#707070" font-size="14" font-family="HelveticaNeue, Helvetica Neue"><tspan x="0" y="0">Go to the bank deposit module on the plant section of Home Page.</tspan></text>
    <text id="The_meter_reading_page_itemises_the_number_of_pending_readings_for_each_plant." data-name="The meter reading page itemises the number of pending readings for each plant." transform="translate(677 4557)" fill="#707070" font-size="14" font-family="HelveticaNeue, Helvetica Neue"><tspan x="0" y="0">The meter reading page itemises the number of pending readings for each plant.</tspan></text>
    <text id="Select_the_In_Hand_cash_tab." data-name="Select the In Hand cash tab." transform="translate(677 4790)" fill="#707070" font-size="14" font-family="HelveticaNeue, Helvetica Neue"><tspan x="0" y="0">Select the In Hand cash tab.</tspan></text>
    <g id="Group_850" data-name="Group 850" transform="translate(137)">
      <text id="Access_a_specific_customer_account_page_through_the_customer_list_module." data-name="Access a specific customer account page through the customer list module." transform="translate(778 3901)" fill="#707070" font-size="14" font-family="HelveticaNeue, Helvetica Neue"><tspan x="-238.063" y="0">Access a specific customer account page through the customer list module.</tspan></text>
      <text id="Click_the_pencil_icon_next_to_the_relevant_section." data-name="Click the pencil icon next to the relevant section." transform="translate(692 3928)" fill="#707070" font-size="14" font-family="HelveticaNeue, Helvetica Neue"><tspan x="-151.697" y="0">Click the pencil icon next to the relevant section.</tspan></text>
      <text id="The_customer_may_have_to_confirm_the_update_through_an_OTP." data-name="The customer may have to confirm the update through an OTP." transform="translate(737 3955)" fill="#707070" font-size="14" font-family="HelveticaNeue, Helvetica Neue"><tspan x="-196.637" y="0">The customer may have to confirm the update through an OTP.</tspan></text>
    </g>
    <g id="Group_854" data-name="Group 854" transform="translate(348 -28)">
      <text id="Navigate_to_the_receivable_module_and_select_the_plant." data-name="Navigate to the receivable module and select the plant." transform="translate(329 4370)" fill="#707070" font-size="14" font-family="HelveticaNeue, Helvetica Neue"><tspan x="0" y="0">Navigate to the receivable module and select the plant.</tspan></text>
      <text id="Customers_are_listed_along_with_the_amount_owned." data-name="Customers are listed along with the amount owned." transform="translate(329 4397)" fill="#707070" font-size="14" font-family="HelveticaNeue, Helvetica Neue"><tspan x="0" y="0">Customers are listed along with the amount owned.</tspan></text>
      <text id="The_field_agent_can_sort_the_list_in_descending_size_of_bill_to_prioritise_customers._" data-name="The field agent can sort the list in descending size of bill to prioritise customers. " transform="translate(329 4424)" fill="#707070" font-size="14" font-family="HelveticaNeue, Helvetica Neue"><tspan x="0" y="0">The field agent can sort the list in descending size of bill to prioritise customers. </tspan></text>
    </g>
    <text id="Selecting_a_plant_will_show_a_list_of_meters_to_be_read." data-name="Selecting a plant will show a list of meters to be read." transform="translate(677 4584)" fill="#707070" font-size="14" font-family="HelveticaNeue, Helvetica Neue"><tspan x="0" y="0">Selecting a plant will show a list of meters to be read.</tspan></text>
    <text id="The_amount_collected_and_deposited_in_the_billing_period_will_be_shown_along_with_the_amount_of_undeposited_cash_held_locally." data-name="The amount collected and deposited in the billing period will be shown, along with the amount
of undeposited cash held locally." transform="translate(677 4817)" fill="#707070" font-size="14" font-family="HelveticaNeue, Helvetica Neue"><tspan x="0" y="0">The amount collected and deposited in the billing period will be shown, along with the amount</tspan><tspan x="0" y="15">of undeposited cash held locally.</tspan></text>
    <g id="Group_849" data-name="Group 849" transform="translate(-4)">
      <g id="Group_844" data-name="Group 844" transform="translate(35)">
        <circle id="Ellipse_215" data-name="Ellipse 215" cx="2" cy="2" r="2" transform="translate(626 3679)" fill="#00b0ff"/>
        <circle id="Ellipse_216" data-name="Ellipse 216" cx="2" cy="2" r="2" transform="translate(626 3706)" fill="#00b0ff"/>
        <circle id="Ellipse_217" data-name="Ellipse 217" cx="2" cy="2" r="2" transform="translate(626 3733)" fill="#00b0ff"/>
        <circle id="Ellipse_218" data-name="Ellipse 218" cx="2" cy="2" r="2" transform="translate(626 3760)" fill="#00b0ff"/>
      </g>
    </g>
    <g id="Group_851" data-name="Group 851" transform="translate(-301)">
      <g id="Group_846" data-name="Group 846" transform="translate(332 215)">
        <circle id="Ellipse_215-2" data-name="Ellipse 215" cx="2" cy="2" r="2" transform="translate(626 3679)" fill="#00b0ff"/>
        <circle id="Ellipse_216-2" data-name="Ellipse 216" cx="2" cy="2" r="2" transform="translate(626 3706)" fill="#00b0ff"/>
        <circle id="Ellipse_217-2" data-name="Ellipse 217" cx="2" cy="2" r="2" transform="translate(626 3733)" fill="#00b0ff"/>
      </g>
    </g>
    <g id="Group_855" data-name="Group 855" transform="translate(-301 -28)">
      <g id="Group_848" data-name="Group 848" transform="translate(332 684)">
        <circle id="Ellipse_215-3" data-name="Ellipse 215" cx="2" cy="2" r="2" transform="translate(626 3679)" fill="#00b0ff"/>
        <circle id="Ellipse_216-3" data-name="Ellipse 216" cx="2" cy="2" r="2" transform="translate(626 3706)" fill="#00b0ff"/>
        <circle id="Ellipse_217-3" data-name="Ellipse 217" cx="2" cy="2" r="2" transform="translate(626 3733)" fill="#00b0ff"/>
      </g>
    </g>
    <circle id="Ellipse_215-4" data-name="Ellipse 215" cx="2" cy="2" r="2" transform="translate(657 4525)" fill="#00b0ff"/>
    <circle id="Ellipse_221" data-name="Ellipse 221" cx="2" cy="2" r="2" transform="translate(657 4756)" fill="#00b0ff"/>
    <circle id="Ellipse_216-4" data-name="Ellipse 216" cx="2" cy="2" r="2" transform="translate(657 4552)" fill="#00b0ff"/>
    <circle id="Ellipse_222" data-name="Ellipse 222" cx="2" cy="2" r="2" transform="translate(657 4783)" fill="#00b0ff"/>
    <circle id="Ellipse_217-4" data-name="Ellipse 217" cx="2" cy="2" r="2" transform="translate(657 4579)" fill="#00b0ff"/>
    <circle id="Ellipse_223" data-name="Ellipse 223" cx="2" cy="2" r="2" transform="translate(657 4810)" fill="#00b0ff"/>
    <g id="Group_852" data-name="Group 852" transform="translate(215 -29)">
      <text id="Field_agents_must_implement_service_requests_package_changes_meter_releases_etc." data-name="Field agents must implement service requests, package changes, meter releases etc." transform="translate(728 4123)" fill="#707070" font-size="14" font-family="HelveticaNeue, Helvetica Neue"><tspan x="-265.944" y="0">Field agents must implement service requests, package changes, meter releases etc.</tspan></text>
      <text id="To_assign_such_a_task_to_a_particular_agent_go_to_that_task_s_page_and_select_the_pending_tab." data-name="To assign such a task to a particular agent, go to that task’s page and select the “pending” tab." transform="translate(759 4150)" fill="#707070" font-size="14" font-family="HelveticaNeue, Helvetica Neue"><tspan x="-296.933" y="0">To assign such a task to a particular agent, go to that task’s page and select the “pending” tab.</tspan></text>
      <text id="From_the_list_of_pending_tasks_locate_the_one_you_wish_to_assign_and_tap_its_re-assign_button." data-name="From the list of pending tasks, locate the one you wish to assign and tap its “re-assign” button." transform="translate(759 4177)" fill="#707070" font-size="14" font-family="HelveticaNeue, Helvetica Neue"><tspan x="-297.059" y="0">From the list of pending tasks, locate the one you wish to assign and tap its “re-assign” button.</tspan></text>
      <text id="The_field_agent_may_then_be_elected_from_a_list_of_available_agents._They_will_be_automatically_notified_of_the_assignment_and_can_be_contacted_through_the_app_for_clarification." data-name="The field agent may then be elected from a list of available agents. They will be automatically 
notified of the assignment, and can be contacted through the app for clarification." transform="translate(462 4204)" fill="#707070" font-size="14" font-family="HelveticaNeue, Helvetica Neue"><tspan x="0" y="0">The field agent may then be elected from a list of available agents. They will be automatically </tspan><tspan x="0" y="15">notified of the assignment, and can be contacted through the app for clarification.</tspan></text>
    </g>
    <g id="Group_853" data-name="Group 853" transform="translate(211 -28)">
      <circle id="Ellipse_215-5" data-name="Ellipse 215" cx="2" cy="2" r="2" transform="translate(446 4116)" fill="#00b0ff"/>
      <circle id="Ellipse_216-5" data-name="Ellipse 216" cx="2" cy="2" r="2" transform="translate(446 4143)" fill="#00b0ff"/>
      <circle id="Ellipse_217-5" data-name="Ellipse 217" cx="2" cy="2" r="2" transform="translate(446 4170)" fill="#00b0ff"/>
      <circle id="Ellipse_219" data-name="Ellipse 219" cx="2" cy="2" r="2" transform="translate(446 4197)" fill="#00b0ff"/>
    </g>
    <text id="Readings_can_then_be_added_to_each_meter." data-name="Readings can then be added to each meter." transform="translate(677 4611)" fill="#707070" font-size="14" font-family="HelveticaNeue, Helvetica Neue"><tspan x="0" y="0">Readings can then be added to each meter.</tspan></text>
    <circle id="Ellipse_220" data-name="Ellipse 220" cx="2" cy="2" r="2" transform="translate(657 4606)" fill="#00b0ff"/>
    <g id="Group_865" data-name="Group 865" transform="translate(-1025 274.837)">
      <path id="Path_2901" data-name="Path 2901" d="M126.54,571.011H135.8L140.2,535.3H126.538Z" transform="translate(1347.359 3439.65)" fill="#ffb8b8"/>
      <path id="Path_2902" data-name="Path 2902" d="M0,0H29.1V11.243H11.243A11.243,11.243,0,0,1,0,0H0Z" transform="translate(1501.013 4019.26) rotate(179.997)" fill="#2f2e41"/>
      <path id="Path_2903" data-name="Path 2903" d="M82.54,571.011H91.8L96.2,535.3H82.538Z" transform="translate(1358.127 3439.65)" fill="#ffb8b8"/>
      <path id="Path_2904" data-name="Path 2904" d="M0,0H29.1V11.243H11.243A11.243,11.243,0,0,1,0,0H0Z" transform="translate(1467.781 4019.259) rotate(179.997)" fill="#2f2e41"/>
      <path id="Path_2905" data-name="Path 2905" d="M266.9,680.258l-9.044-.476a3.53,3.53,0,0,1-3.337-3.751l10.81-119.683,49.78,13.433,4.8-1.308-15,105.951a3.547,3.547,0,0,1-3.292,2.979l-9.75.454a3.53,3.53,0,0,1-3.725-3.622l1.767-63.59a1.177,1.177,0,0,0-2.329-.272l-17.036,67.076a3.509,3.509,0,0,1-3.451,2.814C267.03,680.263,266.966,680.262,266.9,680.258Z" transform="translate(1181.857 3319.42)" fill="#2f2e41"/>
      <circle id="Ellipse_262" data-name="Ellipse 262" cx="18.55" cy="18.55" r="18.55" transform="translate(1457.011 3740.742)" fill="#ffb8b8"/>
      <path id="Path_2906" data-name="Path 2906" d="M265.5,464.763l2.04,44.007.737,16.01a3.506,3.506,0,0,0,2.322,3.154l47.835,17.328a3.38,3.38,0,0,0,1.208.212,3.507,3.507,0,0,0,3.522-3.616L321.2,462.732a27.892,27.892,0,0,0-23.219-26.945c-.463-.071-.933-.141-1.4-.2a27.378,27.378,0,0,0-22.027,7.131,28.123,28.123,0,0,0-9.052,22.051Z" transform="translate(1179.176 3349.027)" fill="#ccc"/>
      <path id="Path_2907" data-name="Path 2907" d="M359.284,558.248a7.6,7.6,0,0,1-4.055-11.5l-16.221-21.57,14-.866,13.258,20.616a7.636,7.636,0,0,1-6.98,13.32Z" transform="translate(1161.177 3327.26)" fill="#ffb8b8"/>
      <path id="Path_2908" data-name="Path 2908" d="M341.974,525.134a3.508,3.508,0,0,1-1.919-1.9l-24.439-58.226a9.413,9.413,0,0,1,17.359-7.286l24.439,58.227a3.534,3.534,0,0,1-1.889,4.621l-10.85,4.553a3.505,3.505,0,0,1-2.7.013Z" transform="translate(1167.083 3344.971)" fill="#ccc"/>
      <path id="Path_2909" data-name="Path 2909" d="M298.372,530.926l23.473-44.945a3.684,3.684,0,0,1,4.966-1.558l34.071,17.794a3.684,3.684,0,0,1,1.558,4.966l-23.473,44.945A3.684,3.684,0,0,1,334,553.686l-34.071-17.794A3.684,3.684,0,0,1,298.372,530.926Z" transform="translate(1171.225 3337.125)" fill="#3f3d56"/>
      <path id="Path_2910" data-name="Path 2910" d="M308.253,513.017a7.6,7.6,0,0,0-11.719-3.369l-22.49-14.919L274,508.753l21.363,12.018a7.636,7.636,0,0,0,12.885-7.754Z" transform="translate(1177.086 3334.501)" fill="#ffb8b8"/>
      <path id="Path_2911" data-name="Path 2911" d="M272.881,503.766,254.5,489.206a12.963,12.963,0,0,1-5.909-20.494l16.689-21.872a7.625,7.625,0,0,1,12.937,7.767l-13.2,21.6,19.406,9.2a3.53,3.53,0,0,1,1.471,5.075l-7.833,12.4a3.536,3.536,0,0,1-2.392,1.594l-.058.009A3.546,3.546,0,0,1,272.881,503.766Z" transform="translate(1184.023 3346.905)" fill="#ccc"/>
      <path id="Path_2912" data-name="Path 2912" d="M284.89,406.082a1.612,1.612,0,0,1,1.4-2.129,3.724,3.724,0,0,1,2.625,1.3,10.449,10.449,0,0,0,2.32,1.992,2,2,0,0,0,2.626-.475c.48-.81.151-1.894-.14-2.835a27.873,27.873,0,0,1-1.231-7.379c-.084-2.795.311-5.711,1.858-7.891,2-2.813,5.567-3.881,8.946-3.8s6.7,1.121,10.05,1.78c1.155.228,2.514.344,3.287-.552.822-.952.52-2.493.17-3.779-.907-3.336-1.869-6.786-3.977-9.48a14.273,14.273,0,0,0-9.109-5.128,21.855,21.855,0,0,0-10.168,1.154,27.262,27.262,0,0,0-13.355,9.3,22.081,22.081,0,0,0-4.213,16.314,20.14,20.14,0,0,0,7.466,12.73Z" transform="translate(1176.654 3365.631)" fill="#2f2e41"/>
      <path id="Path_2914" data-name="Path 2914" d="M402.116,745.883H177.979a.317.317,0,1,1,0-.634H402.116a.317.317,0,0,1,0,.634Z" transform="translate(1167.73 3273.771)" fill="#3f3d56"/>
    </g>
    <g id="Group_866" data-name="Group 866" transform="translate(-358 370.815)">
      <circle id="Ellipse_249" data-name="Ellipse 249" cx="29.426" cy="29.426" r="29.426" transform="translate(1727.051 3863.627)" fill="#a2a2a2"/>
      <path id="Path_2884" data-name="Path 2884" d="M556.643,220.371a85.154,85.154,0,0,0-84.3,83.682c-.006.425-.009,3.41-.008,7.314a21.588,21.588,0,0,0,21.585,21.587h0a21.6,21.6,0,0,0,21.6-21.615c0-2.661,0-4.5,0-4.612a40.941,40.941,0,1,1,63.023,34.466l.007.009s-30.723,19.779-40.09,46.912l.008,0a60.134,60.134,0,0,0-2.478,17.123c0,2.383.14,23.235.411,40.158a22.253,22.253,0,0,0,22.255,21.892h0a22.259,22.259,0,0,0,22.257-22.4c-.094-15.5-.145-33.547-.145-34.856,0-16.661,16.073-33.261,29.275-44.086a88.792,88.792,0,0,0,30.537-48.616,55.5,55.5,0,0,0,1.6-12.048,84.919,84.919,0,0,0-85.533-84.917Z" transform="translate(1196.682 3365.631)" fill="#a2a2a2"/>
      <path id="Path_2891" data-name="Path 2891" d="M706.077,418.175a6.433,6.433,0,0,0,6.777,7.167l8.782,21.105,6.643-9.848-9.358-18.532a6.467,6.467,0,0,0-12.844.108Z" transform="translate(1112.48 3296.435)" fill="#a0616a"/>
      <path id="Path_2898" data-name="Path 2898" d="M499.848,342.543h0a21.588,21.588,0,0,1-21.586-21.585c0-3.907,0-6.892.008-7.317a84.124,84.124,0,0,1,9.825-38.323,84.313,84.313,0,0,0-16.222,48.558c-.006.425-.009,3.41-.008,7.314a21.588,21.588,0,0,0,21.585,21.587h0a21.6,21.6,0,0,0,20.782-15.73A21.508,21.508,0,0,1,499.848,342.543Z" transform="translate(1196.853 3345.832)" fill="#3f3d56"/>
      <path id="Path_2900" data-name="Path 2900" d="M600.427,541.236h0a22.254,22.254,0,0,1-22.255-21.9c-.271-16.919-.411-37.77-.411-40.154a60.132,60.132,0,0,1,2.478-17.123l-.008,0a60.8,60.8,0,0,1,3.515-8.125,70.4,70.4,0,0,0-9.911,18.36l.008,0a60.134,60.134,0,0,0-2.478,17.123c0,2.383.14,23.235.411,40.158a22.253,22.253,0,0,0,22.255,21.892h0a22.262,22.262,0,0,0,21.366-16.02,22.172,22.172,0,0,1-14.969,5.785Z" transform="translate(1161.002 3281.475)" fill="#3f3d56"/>
      <path id="Path_2913" data-name="Path 2913" d="M585.969,709.391a29.422,29.422,0,0,1-10.92-45.731,29.424,29.424,0,1,0,40.025,42.517,29.406,29.406,0,0,1-29.105,3.214Z" transform="translate(1164.025 3205.91)" fill="#3f3d56"/>
      <path id="Path_2916" data-name="Path 2916" d="M515.125,746.2H178.139a.476.476,0,1,1,0-.953H515.125a.476.476,0,0,1,0,.953Z" transform="translate(1465.338 3176.799)" fill="#3f3d56"/>
      <circle id="Ellipse_259" data-name="Ellipse 259" cx="19.191" cy="19.191" r="19.191" transform="translate(1863.342 3678.753)" fill="#2f2e41"/>
      <path id="Path_2886" data-name="Path 2886" d="M566.493,565.091h-7.842l-3.731-30.25H566.5Z" transform="translate(1280.577 3349.794)" fill="#a0616a"/>
      <path id="Path_2887" data-name="Path 2887" d="M546.632,578.626h15.125v9.523H537.109A9.523,9.523,0,0,1,546.632,578.626Z" transform="translate(1286.994 3334.018)" fill="#2f2e41"/>
      <path id="Path_2888" data-name="Path 2888" d="M661.493,565.091h-7.842l-3.731-30.25H661.5Z" transform="translate(1246.348 3349.794)" fill="#a0616a"/>
      <path id="Path_2889" data-name="Path 2889" d="M641.632,578.626h15.125v9.523H632.109A9.523,9.523,0,0,1,641.632,578.626Z" transform="translate(1252.765 3334.018)" fill="#2f2e41"/>
      <circle id="Ellipse_260" data-name="Ellipse 260" cx="15.712" cy="15.712" r="15.712" transform="translate(1863.905 3685.823)" fill="#a0616a"/>
      <path id="Path_2890" data-name="Path 2890" d="M784.551,479.521l7.03-16.152a20.075,20.075,0,0,0-4.446-22.773,20.379,20.379,0,0,0-1.964-1.708,19.789,19.789,0,0,0-12.148-4.2,20.585,20.585,0,0,0-8.572,1.906c-.231.1-.454.211-.685.32-.441.211-.876.441-1.3.678a20.264,20.264,0,0,0-10.043,15.276l-3.1,26c-.78,2.041-28.62,75.733-18.883,131.994a2.858,2.858,0,0,0,2.444,2.348l9.871,1.343a2.876,2.876,0,0,0,3.2-2.258l16.562-78.945a2.241,2.241,0,0,1,4.35-.147l23.4,83.019a2.86,2.86,0,0,0,2.757,2.1,3.274,3.274,0,0,0,.557-.051l12.058-2.322a2.86,2.86,0,0,0,2.322-3.077C806.192,593.105,796.775,494.125,784.551,479.521Z" transform="translate(1104.43 3288.411)" fill="#2f2e41"/>
      <path id="Path_2892" data-name="Path 2892" d="M796.091,523.416a6.433,6.433,0,0,0,5.39-8.26L819.959,501.7l-11.125-4.166-15.841,13.419a6.467,6.467,0,0,0,3.1,12.466Z" transform="translate(1082.654 3265.767)" fill="#a0616a"/>
      <path id="Path_2893" data-name="Path 2893" d="M740.311,469.876a10.914,10.914,0,0,1-2.11-.208,10.43,10.43,0,0,1-7.643-6.151l-12.3-15a2.879,2.879,0,0,1,.711-4.274l8.754-5.419a2.879,2.879,0,0,1,3.976.953l8.672,14.287,16.607-12.273a6.219,6.219,0,0,1,7.235,9.955l-16.576,15.12A10.4,10.4,0,0,1,740.311,469.876Z" transform="translate(1108.312 3287.076)" fill="#2f2e41"/>
      <path id="Path_2894" data-name="Path 2894" d="M817.247,495.082h-.068a2.883,2.883,0,0,1-2.118-1L807.279,485a2.878,2.878,0,0,1,.589-4.269l14.573-9.715-13.2-15.872a6.218,6.218,0,0,1,9.523-7.793l16.046,15.681a10.571,10.571,0,0,1-2.351,17.234l-13.115,13.916a2.883,2.883,0,0,1-2.095.9Z" transform="translate(1076.251 3284.434)" fill="#2f2e41"/>
      <path id="Path_2895" data-name="Path 2895" d="M790.412,456.748a2.964,2.964,0,0,1-.374-.024,2.854,2.854,0,0,1-2.373-1.963l-5.848-17.93a1.972,1.972,0,0,1,1.02-2.383l.19-.09c.172-.082.342-.163.516-.24a20.837,20.837,0,0,1,8.7-1.934,20.039,20.039,0,0,1,10.978,3.3,2,2,0,0,1,.577,2.747l-10.971,17.187a2.85,2.85,0,0,1-2.416,1.33Z" transform="translate(1085.21 3289.312)" fill="#e6e6e6"/>
      <circle id="Ellipse_261" data-name="Ellipse 261" cx="6.28" cy="6.28" r="6.28" transform="translate(1891.383 3676.817)" fill="#2f2e41"/>
      <path id="Path_2896" data-name="Path 2896" d="M786.743,361.365h0A16.632,16.632,0,0,0,770.111,378v7.037h8.655L782.905,378l1.242,7.037h26.265L803.375,378a16.632,16.632,0,0,0-16.632-16.632Z" transform="translate(1089.393 3314.829)" fill="#2f2e41"/>
      <path id="Path_2897" data-name="Path 2897" d="M834.809,361.635a9.691,9.691,0,0,1,10.543-6.65c4,.669,7.166,3.886,9.051,7.479s2.756,7.614,4.023,11.468,3.065,7.73,6.265,10.225,8.109,3.172,11.252.605a12.869,12.869,0,0,1-23.974,4.594c-1.658-2.95-2.086-6.408-2.578-9.756s-1.131-6.813-3.11-9.557-5.685-4.537-8.83-3.287Z" transform="translate(1066.082 3317.16)" fill="#2f2e41"/>
    </g>
  </g>
</svg>
