<svg xmlns="http://www.w3.org/2000/svg" width="957" height="385.569" viewBox="0 0 957 385.569">
  <g id="Group_412" data-name="Group 412" transform="translate(-520 -6001)">
    <line id="Line_66" data-name="Line 66" x2="97" transform="translate(1094.5 6114.5)" fill="none" stroke="#707070" stroke-width="1" opacity="0.2"/>
    <line id="Line_67" data-name="Line 67" x2="97" transform="translate(1094.5 6295.5)" fill="none" stroke="#707070" stroke-width="1" opacity="0.2"/>
    <g id="Rectangle_328" data-name="Rectangle 328" transform="translate(1191 6231)" fill="#fff" stroke="#707070" stroke-width="1" opacity="0.195">
      <rect width="286" height="120" rx="10" stroke="none"/>
      <rect x="0.5" y="0.5" width="285" height="119" rx="9.5" fill="none"/>
    </g>
    <g id="Rectangle_327" data-name="Rectangle 327" transform="translate(1191 6051)" fill="#fff" stroke="#707070" stroke-width="1" opacity="0.195">
      <rect width="286" height="120" rx="10" stroke="none"/>
      <rect x="0.5" y="0.5" width="285" height="119" rx="9.5" fill="none"/>
    </g>
    <g id="Rectangle_326" data-name="Rectangle 326" transform="translate(520 6231)" fill="#fff" stroke="#707070" stroke-width="1" opacity="0.2">
      <rect width="286" height="120" rx="10" stroke="none"/>
      <rect x="0.5" y="0.5" width="285" height="119" rx="9.5" fill="none"/>
    </g>
    <line id="Line_61" data-name="Line 61" y2="120" transform="translate(603.5 6231.5)" fill="none" stroke="#707070" stroke-width="1" opacity="0.2"/>
    <g id="error" transform="translate(547 6269.15)">
      <path id="Path_1057" data-name="Path 1057" d="M38.69,4H1.9A1.905,1.905,0,0,0,0,5.9V38.885a.634.634,0,0,0,.634.634H39.958a.634.634,0,0,0,.634-.634V5.9A1.905,1.905,0,0,0,38.69,4ZM1.269,7.8H39.324V38.251H1.269ZM1.9,5.267H2.55a.638.638,0,1,0,.007,0h1.9a.638.638,0,1,0,.007,0h1.9a.638.638,0,1,0,.007,0H38.69a.634.634,0,0,1,.634.634v.634H1.269V5.9A.634.634,0,0,1,1.9,5.267Z" transform="translate(0 0)" fill="#707070"/>
      <path id="Path_1058" data-name="Path 1058" d="M26.513,31.025a9.513,9.513,0,1,0-6.727-2.786,9.452,9.452,0,0,0,6.727,2.786ZM20.684,15.681a8.246,8.246,0,1,1-2.415,5.831A8.194,8.194,0,0,1,20.684,15.681Z" transform="translate(-6.218 -2.926)" fill="#707070"/>
      <path id="Path_1059" data-name="Path 1059" d="M33.368,51H22.577a1.586,1.586,0,0,0,0,3.171H33.368a1.586,1.586,0,0,0,0-3.171Zm-10.791,1.9a.317.317,0,0,1,0-.634H33.368a.317.317,0,0,1,0,.634Z" transform="translate(-7.677 -17.192)" fill="#707070"/>
      <path id="Path_1060" data-name="Path 1060" d="M37.81,44.008H8.625a.634.634,0,1,0,0,1.269H37.81a.634.634,0,1,0,0-1.269Z" transform="translate(-2.923 -14.633)" fill="#707070"/>
      <path id="Path_1061" data-name="Path 1061" d="M35.393,47.009H17.627a.634.634,0,1,0,0,1.269H35.393a.634.634,0,1,0,0-1.269Z" transform="translate(-6.215 -15.731)" fill="#707070"/>
      <path id="Path_1062" data-name="Path 1062" d="M26.237,28.409a.634.634,0,0,0,.9,0l2.691-2.69,2.69,2.69a.634.634,0,0,0,.9-.9l-2.69-2.69,2.69-2.69a.634.634,0,1,0-.9-.9l-2.69,2.69-2.691-2.69a.634.634,0,0,0-.9.9l2.691,2.69-2.691,2.69A.634.634,0,0,0,26.237,28.409Z" transform="translate(-9.528 -6.237)" fill="#707070"/>
    </g>
    <g id="Group_410" data-name="Group 410" transform="translate(211 119.175)">
      <path id="Path_1044" data-name="Path 1044" d="M44.2,26.864V11.738A5.4,5.4,0,1,0,38.026,6.4H1V37.255H24.181A12.334,12.334,0,1,0,44.2,26.864ZM43.426,2.543A3.857,3.857,0,1,1,39.569,6.4,3.861,3.861,0,0,1,43.426,2.543ZM2.543,7.942H38.254a5.4,5.4,0,0,0,.854,1.685L34.39,14.346a2.234,2.234,0,0,0-1.983,0l-1.554-1.554a2.293,2.293,0,0,0,.231-.992,2.314,2.314,0,1,0-4.628,0,2.276,2.276,0,0,0,.232.991l-3.868,3.868a2.293,2.293,0,0,0-.992-.231,2.314,2.314,0,1,0,2.314,2.314,2.276,2.276,0,0,0-.232-.991l3.868-3.868a2.237,2.237,0,0,0,1.983,0l1.554,1.554a2.293,2.293,0,0,0-.231.992,2.314,2.314,0,1,0,4.628,0,2.276,2.276,0,0,0-.232-.991L40.2,10.719a5.367,5.367,0,0,0,2.456,1.02V25.812a12.267,12.267,0,0,0-15.427,2.536V24.913H22.6v9.256h1.768a12.374,12.374,0,0,0-.186,1.543H2.543ZM33.4,15.656a.771.771,0,1,1-.771.771A.772.772,0,0,1,33.4,15.656ZM28,11.8a.771.771,0,1,1,.771.771A.772.772,0,0,1,28,11.8Zm-5.4,6.942a.771.771,0,1,1-.771-.771A.772.772,0,0,1,22.6,18.742ZM36.483,42.654a6.171,6.171,0,1,1,6.171-6.171A6.178,6.178,0,0,1,36.483,42.654Zm-10.8-12.133a12.249,12.249,0,0,0-.917,2.105h-.626V26.455h1.543Zm10.028-4.8v3.085a7.7,7.7,0,0,0-6.255,10.84l-2.676,1.545a10.762,10.762,0,0,1,8.931-15.471Zm.771,21.559a10.794,10.794,0,0,1-8.939-4.748l2.687-1.551a7.688,7.688,0,0,0,12.5,0l2.687,1.551A10.794,10.794,0,0,1,36.483,47.282Zm9.7-6.088c-.943.791-2.676-1.545-2.676-1.545a7.7,7.7,0,0,0-6.255-10.84V25.723a10.8,10.8,0,0,1,10.028,10.76C47.282,38.173,47.129,40.4,46.186,41.194Z" transform="translate(999 5969)" fill="#707070"/>
      <path id="Path_1046" data-name="Path 1046" d="M5,12H6.543v1.543H5Z" transform="translate(998.086 5966.485)" fill="#707070"/>
      <path id="Path_1047" data-name="Path 1047" d="M9,12H19.8v1.543H9Z" transform="translate(997.171 5966.485)" fill="#707070"/>
      <path id="Path_1048" data-name="Path 1048" d="M5,16H6.543v1.543H5Z" transform="translate(998.086 5965.571)" fill="#707070"/>
      <path id="Path_1049" data-name="Path 1049" d="M9,16H19.8v1.543H9Z" transform="translate(997.171 5965.571)" fill="#707070"/>
      <path id="Path_1050" data-name="Path 1050" d="M5,20H6.543v1.543H5Z" transform="translate(998.086 5964.656)" fill="#707070"/>
      <path id="Path_1051" data-name="Path 1051" d="M9,20H19.8v1.543H9Z" transform="translate(997.171 5964.656)" fill="#707070"/>
      <path id="Path_1052" data-name="Path 1052" d="M5,24H6.543v1.543H5Z" transform="translate(998.086 5963.742)" fill="#707070"/>
      <path id="Path_1053" data-name="Path 1053" d="M9,24H19.8v1.543H9Z" transform="translate(997.171 5963.742)" fill="#707070"/>
      <path id="Path_1054" data-name="Path 1054" d="M5,41.714H9.628V34H5Zm1.543-6.171H8.085v4.628H6.543Z" transform="translate(998.086 5961.456)" fill="#707070"/>
      <path id="Path_1055" data-name="Path 1055" d="M13,42.171h4.628V36H13Zm1.543-4.628h1.543v3.085H14.543Z" transform="translate(996.256 5960.998)" fill="#707070"/>
      <path id="Path_1056" data-name="Path 1056" d="M21,40.342h4.628V28H21Zm1.543-10.8h1.543V38.8H22.543Z" transform="translate(994.427 5962.827)" fill="#707070"/>
      <g id="Group_385" data-name="Group 385" transform="translate(1031.242 6000.455)">
        <g id="Group_384" data-name="Group 384" transform="translate(0 0)">
          <path id="Path_1082" data-name="Path 1082" d="M324.356,295.2h-.5v-2.485a3.145,3.145,0,0,0-2.633-3.14v-.861a.514.514,0,0,0-1.027,0v.861a3.188,3.188,0,0,0-2.7,3.14V295.2h-.482a.514.514,0,0,0,0,1.027h3.179v.822a.514.514,0,1,0,1.027,0v-.822h3.134a.514.514,0,0,0,0-1.027Zm-1.528,0h-4.3v-2.485a2.151,2.151,0,0,1,4.3,0Z" transform="translate(-316.502 -288.201)" fill="#707070" stroke="#707070" stroke-width="1"/>
        </g>
      </g>
    </g>
    <g id="Group_411" data-name="Group 411" transform="translate(172 423)">
      <g id="gear-graph-service-tool-process" transform="translate(1035 5846)">
        <path id="Path_1041" data-name="Path 1041" d="M33.787,15.384H32.109a.558.558,0,0,1-.53-.39,12.875,12.875,0,0,0-1.121-2.7.558.558,0,0,1,.1-.652l1.182-1.188a1.673,1.673,0,0,0,0-2.365L29.376,5.72a1.673,1.673,0,0,0-2.365,0L25.824,6.9a.558.558,0,0,1-.652.1,13.2,13.2,0,0,0-2.7-1.126.545.545,0,0,1-.39-.524V3.673A1.678,1.678,0,0,0,20.4,2H17.057a1.678,1.678,0,0,0-1.673,1.673V5.352a.558.558,0,0,1-.39.53A12.876,12.876,0,0,0,12.289,7a.558.558,0,0,1-.652-.1L10.449,5.72a1.673,1.673,0,0,0-2.365,0L5.72,8.084a1.673,1.673,0,0,0,0,2.365L6.9,11.637a.558.558,0,0,1,.1.652,13.2,13.2,0,0,0-1.126,2.7.545.545,0,0,1-.524.39H3.673A1.678,1.678,0,0,0,2,17.057V20.4a1.678,1.678,0,0,0,1.673,1.673H5.352a.558.558,0,0,1,.53.39A12.876,12.876,0,0,0,7,25.171a.558.558,0,0,1-.1.652L5.72,27.012a1.67,1.67,0,0,0,0,2.365l2.365,2.365a1.673,1.673,0,0,0,2.365,0l1.188-1.182a.558.558,0,0,1,.652-.1,13.2,13.2,0,0,0,2.7,1.126.545.545,0,0,1,.39.524v1.679a1.678,1.678,0,0,0,1.673,1.673H20.4a1.678,1.678,0,0,0,1.673-1.673V32.109a.558.558,0,0,1,.39-.53,12.875,12.875,0,0,0,2.7-1.121.558.558,0,0,1,.652.1l1.188,1.182a1.673,1.673,0,0,0,2.365,0l2.365-2.365a1.67,1.67,0,0,0,0-2.365l-1.182-1.188a.558.558,0,0,1-.1-.652,13.2,13.2,0,0,0,1.127-2.7.545.545,0,0,1,.524-.39h1.679A1.678,1.678,0,0,0,35.46,20.4V17.057a1.678,1.678,0,0,0-1.673-1.673Zm.558,5.019a.558.558,0,0,1-.558.558H32.109a1.673,1.673,0,0,0-1.6,1.193,11.884,11.884,0,0,1-1.026,2.482,1.684,1.684,0,0,0,.284,1.98L30.954,27.8a.565.565,0,0,1,0,.792L28.59,30.954a.573.573,0,0,1-.792,0l-1.182-1.188a1.684,1.684,0,0,0-1.98-.284,11.884,11.884,0,0,1-2.482,1.026,1.673,1.673,0,0,0-1.193,1.6v1.679a.558.558,0,0,1-.558.558H17.057a.558.558,0,0,1-.558-.558V32.109a1.673,1.673,0,0,0-1.193-1.6,11.884,11.884,0,0,1-2.482-1.026,1.654,1.654,0,0,0-.792-.2,1.694,1.694,0,0,0-1.188.485L9.662,30.954a.573.573,0,0,1-.792,0L6.506,28.59a.565.565,0,0,1,0-.792l1.188-1.182a1.684,1.684,0,0,0,.284-1.98,11.884,11.884,0,0,1-1.026-2.482,1.673,1.673,0,0,0-1.6-1.193H3.673a.558.558,0,0,1-.558-.558V17.057a.558.558,0,0,1,.558-.558H5.352a1.673,1.673,0,0,0,1.6-1.193,11.884,11.884,0,0,1,1.026-2.482,1.684,1.684,0,0,0-.284-1.98L6.506,9.662a.565.565,0,0,1,0-.792L8.871,6.506a.573.573,0,0,1,.792,0l1.182,1.188a1.684,1.684,0,0,0,1.98.284,11.884,11.884,0,0,1,2.482-1.026,1.673,1.673,0,0,0,1.193-1.6V3.673a.558.558,0,0,1,.558-.558H20.4a.558.558,0,0,1,.558.558V5.352a1.673,1.673,0,0,0,1.193,1.6,11.884,11.884,0,0,1,2.482,1.026,1.684,1.684,0,0,0,1.98-.284L27.8,6.506a.573.573,0,0,1,.792,0l2.365,2.365a.565.565,0,0,1,0,.792l-1.188,1.182a1.684,1.684,0,0,0-.284,1.98,11.884,11.884,0,0,1,1.026,2.482,1.673,1.673,0,0,0,1.6,1.193h1.679a.558.558,0,0,1,.558.558Z" transform="translate(-2 -2)" fill="#707070"/>
        <path id="Path_1042" data-name="Path 1042" d="M24.038,14A10.038,10.038,0,1,0,34.076,24.038,10.038,10.038,0,0,0,24.038,14Zm0,18.961a8.923,8.923,0,1,1,8.923-8.923A8.923,8.923,0,0,1,24.038,32.961Z" transform="translate(-7.308 -7.308)" fill="#707070"/>
        <path id="Path_1043" data-name="Path 1043" d="M32.384,30.923V22.558A.558.558,0,0,0,31.826,22H29.6a.558.558,0,0,0-.558.558v8.365H27.923V24.788a.558.558,0,0,0-.558-.558H25.134a.558.558,0,0,0-.558.558v6.134H23.461V28.134a.558.558,0,0,0-.558-.558H20.673a.558.558,0,0,0-.558.558v2.788H19v1.115H33.5V30.923Zm-10.038,0H21.231V28.692h1.115Zm4.461,0H25.692V25.346h1.115Zm4.461,0H30.153V23.115h1.115Z" transform="translate(-9.52 -10.847)" fill="#707070"/>
      </g>
      <g id="Group_403" data-name="Group 403" transform="translate(1065.114 5864.961)">
        <g id="gear-graph-service-tool-process-2" data-name="gear-graph-service-tool-process" transform="translate(0 0)">
          <g id="Group_402" data-name="Group 402" transform="translate(0 0)">
            <path id="Path_1041-2" data-name="Path 1041" d="M22.309,10.551H21.237A.356.356,0,0,1,20.9,10.3a8.226,8.226,0,0,0-.716-1.728.356.356,0,0,1,.064-.417L21,7.4a1.069,1.069,0,0,0,0-1.511L19.491,4.377a1.069,1.069,0,0,0-1.511,0l-.759.755A.356.356,0,0,1,16.8,5.2a8.432,8.432,0,0,0-1.728-.72.348.348,0,0,1-.249-.335V3.069A1.072,1.072,0,0,0,13.758,2H11.62a1.072,1.072,0,0,0-1.069,1.069V4.141a.356.356,0,0,1-.249.338A8.226,8.226,0,0,0,8.574,5.2a.356.356,0,0,1-.417-.064L7.4,4.377a1.069,1.069,0,0,0-1.511,0L4.377,5.887a1.069,1.069,0,0,0,0,1.511l.755.759a.356.356,0,0,1,.064.417,8.432,8.432,0,0,0-.72,1.728.348.348,0,0,1-.335.249H3.069A1.072,1.072,0,0,0,2,11.62v2.138a1.072,1.072,0,0,0,1.069,1.069H4.141a.356.356,0,0,1,.338.249A8.226,8.226,0,0,0,5.2,16.8a.356.356,0,0,1-.064.417l-.755.759a1.067,1.067,0,0,0,0,1.511L5.887,21A1.069,1.069,0,0,0,7.4,21l.759-.755a.356.356,0,0,1,.417-.064,8.432,8.432,0,0,0,1.728.72.348.348,0,0,1,.249.335v1.072a1.072,1.072,0,0,0,1.069,1.069h2.138a1.072,1.072,0,0,0,1.069-1.069V21.237a.356.356,0,0,1,.249-.338,8.226,8.226,0,0,0,1.728-.716.356.356,0,0,1,.417.064L17.98,21a1.069,1.069,0,0,0,1.511,0L21,19.491a1.067,1.067,0,0,0,0-1.511l-.755-.759a.356.356,0,0,1-.064-.417,8.432,8.432,0,0,0,.72-1.728.348.348,0,0,1,.335-.249h1.072a1.072,1.072,0,0,0,1.069-1.069V11.62A1.072,1.072,0,0,0,22.309,10.551Zm.356,3.207a.356.356,0,0,1-.356.356H21.237a1.069,1.069,0,0,0-1.023.762,7.593,7.593,0,0,1-.656,1.586,1.076,1.076,0,0,0,.182,1.265l.759.755a.361.361,0,0,1,0,.506L18.988,20.5a.366.366,0,0,1-.506,0l-.755-.759a1.076,1.076,0,0,0-1.265-.182,7.593,7.593,0,0,1-1.586.656,1.069,1.069,0,0,0-.762,1.023v1.072a.356.356,0,0,1-.356.356H11.62a.356.356,0,0,1-.356-.356V21.237a1.069,1.069,0,0,0-.762-1.023,7.593,7.593,0,0,1-1.586-.656,1.057,1.057,0,0,0-.506-.128,1.082,1.082,0,0,0-.759.31L6.9,20.5a.366.366,0,0,1-.506,0L4.879,18.988a.361.361,0,0,1,0-.506l.759-.755a1.076,1.076,0,0,0,.182-1.265,7.593,7.593,0,0,1-.656-1.586,1.069,1.069,0,0,0-1.023-.762H3.069a.356.356,0,0,1-.356-.356V11.62a.356.356,0,0,1,.356-.356H4.141A1.069,1.069,0,0,0,5.164,10.5,7.593,7.593,0,0,1,5.82,8.916a1.076,1.076,0,0,0-.182-1.265L4.879,6.9a.361.361,0,0,1,0-.506L6.39,4.879a.366.366,0,0,1,.506,0l.755.759a1.076,1.076,0,0,0,1.265.182A7.593,7.593,0,0,1,10.5,5.164a1.069,1.069,0,0,0,.762-1.023V3.069a.356.356,0,0,1,.356-.356h2.138a.356.356,0,0,1,.356.356V4.141a1.069,1.069,0,0,0,.762,1.023,7.593,7.593,0,0,1,1.586.656,1.076,1.076,0,0,0,1.265-.182l.755-.759a.366.366,0,0,1,.506,0L20.5,6.39a.361.361,0,0,1,0,.506l-.759.755a1.076,1.076,0,0,0-.182,1.265,7.593,7.593,0,0,1,.656,1.586,1.069,1.069,0,0,0,1.023.762h1.072a.356.356,0,0,1,.356.356Z" transform="translate(-2 -2)" fill="#707070"/>
          </g>
          <path id="Path_1042-2" data-name="Path 1042" d="M20.413,14a6.413,6.413,0,1,0,6.413,6.413A6.413,6.413,0,0,0,20.413,14Zm0,12.114a5.7,5.7,0,1,1,5.7-5.7A5.7,5.7,0,0,1,20.413,26.114Z" transform="translate(-9.724 -9.724)" fill="#707070"/>
        </g>
        <g id="Group_401" data-name="Group 401" transform="translate(7.175 6.941)">
          <g id="Group_384-2" data-name="Group 384" transform="translate(0 0)">
            <path id="Path_1082-2" data-name="Path 1082" d="M322.98,293.974h-.413v-2.05a2.594,2.594,0,0,0-2.172-2.59v-.71a.424.424,0,0,0-.847,0v.71a2.63,2.63,0,0,0-2.225,2.59v2.05h-.4a.424.424,0,1,0,0,.848h2.622v.678a.424.424,0,1,0,.847,0v-.678h2.585a.424.424,0,0,0,0-.848Zm-1.261,0H318.17v-2.05a1.774,1.774,0,0,1,3.549,0Z" transform="translate(-316.502 -288.201)" fill="#707070"/>
          </g>
        </g>
      </g>
    </g>
    <g id="Group_409" data-name="Group 409" transform="translate(95 -223)">
      <path id="Path_1095" data-name="Path 1095" d="M663.693,185.257h-2.119V127.221a33.59,33.59,0,0,0-33.59-33.59H505.027a33.59,33.59,0,0,0-33.59,33.59V445.611a33.59,33.59,0,0,0,33.59,33.59H627.984a33.59,33.59,0,0,0,33.59-33.59V226.568h2.119Z" transform="translate(336.613 6130.369)" fill="#3f3d56"/>
      <path id="Path_1096" data-name="Path 1096" d="M659.953,129.445V452.334a25.476,25.476,0,0,1-25.466,25.472H509a25.48,25.48,0,0,1-25.482-25.475V129.445A25.479,25.479,0,0,1,509,103.974h15.221a12.114,12.114,0,0,0,11.206,16.677h71.539a12.114,12.114,0,0,0,11.206-16.677h16.3a25.476,25.476,0,0,1,25.472,25.466Z" transform="translate(331.386 6125.895)" fill="#e6e6e6"/>
      <rect id="Rectangle_291" data-name="Rectangle 291" width="126.589" height="126.589" transform="translate(839.828 6423.487)" fill="#fff"/>
      <rect id="Rectangle_292" data-name="Rectangle 292" width="71.404" height="5.367" transform="translate(867.779 6366.409)" fill="#fff"/>
      <rect id="Rectangle_293" data-name="Rectangle 293" width="89.862" height="5.367" transform="translate(858.225 6380.355)" fill="#fff"/>
      <rect id="Rectangle_294" data-name="Rectangle 294" width="49.276" height="3.704" transform="translate(876.306 6435.708)" fill="#e6e6e6"/>
      <rect id="Rectangle_295" data-name="Rectangle 295" width="76.094" height="3.704" transform="translate(876.306 6446.581)" fill="#00b0ff"/>
      <rect id="Rectangle_296" data-name="Rectangle 296" width="62.015" height="3.704" transform="translate(877.097 6456.936)" fill="#e6e6e6"/>
      <rect id="Rectangle_297" data-name="Rectangle 297" width="36.203" height="3.704" transform="translate(876.306 6468.297)" fill="#e6e6e6"/>
      <rect id="Rectangle_298" data-name="Rectangle 298" width="54.64" height="3.704" transform="translate(876.306 6479.396)" fill="#00b0ff"/>
      <rect id="Rectangle_299" data-name="Rectangle 299" width="6.034" height="6.034" transform="translate(853.846 6434.542)" fill="#e6e6e6"/>
      <rect id="Rectangle_300" data-name="Rectangle 300" width="6.034" height="6.034" transform="translate(853.846 6445.416)" fill="#00b0ff"/>
      <rect id="Rectangle_301" data-name="Rectangle 301" width="6.034" height="6.034" transform="translate(853.846 6455.771)" fill="#e6e6e6"/>
      <rect id="Rectangle_302" data-name="Rectangle 302" width="6.034" height="6.034" transform="translate(853.846 6467.132)" fill="#e6e6e6"/>
      <rect id="Rectangle_303" data-name="Rectangle 303" width="6.034" height="6.034" transform="translate(853.846 6478.23)" fill="#00b0ff"/>
      <rect id="Rectangle_304" data-name="Rectangle 304" width="49.276" height="3.704" transform="translate(876.306 6490.563)" fill="#e6e6e6"/>
      <rect id="Rectangle_305" data-name="Rectangle 305" width="76.094" height="3.704" transform="translate(876.306 6501.436)" fill="#00b0ff"/>
      <rect id="Rectangle_306" data-name="Rectangle 306" width="62.015" height="3.704" transform="translate(877.097 6511.791)" fill="#e6e6e6"/>
      <rect id="Rectangle_307" data-name="Rectangle 307" width="36.203" height="3.704" transform="translate(876.306 6523.153)" fill="#e6e6e6"/>
      <rect id="Rectangle_308" data-name="Rectangle 308" width="54.64" height="3.704" transform="translate(876.306 6534.251)" fill="#e6e6e6"/>
      <rect id="Rectangle_309" data-name="Rectangle 309" width="6.034" height="6.034" transform="translate(853.846 6489.398)" fill="#e6e6e6"/>
      <rect id="Rectangle_310" data-name="Rectangle 310" width="6.034" height="6.034" transform="translate(853.846 6500.271)" fill="#00b0ff"/>
      <rect id="Rectangle_311" data-name="Rectangle 311" width="6.034" height="6.034" transform="translate(853.846 6510.626)" fill="#e6e6e6"/>
      <rect id="Rectangle_312" data-name="Rectangle 312" width="6.034" height="6.034" transform="translate(853.846 6521.988)" fill="#e6e6e6"/>
      <rect id="Rectangle_313" data-name="Rectangle 313" width="6.034" height="6.034" transform="translate(853.846 6533.085)" fill="#e6e6e6"/>
      <circle id="Ellipse_93" data-name="Ellipse 93" cx="41.272" cy="41.272" r="41.272" transform="translate(861.851 6267.726)" fill="#fff"/>
      <path id="Path_1097" data-name="Path 1097" d="M622.877,207.756A20.346,20.346,0,1,0,643.223,228.1a20.346,20.346,0,0,0-20.346-20.346Zm0,6.1a6.1,6.1,0,1,1-6.1,6.1A6.1,6.1,0,0,1,622.877,213.86Zm0,29.384a14.822,14.822,0,0,1-12.207-6.514c.1-4.069,8.138-6.309,12.207-6.309s12.109,2.24,12.207,6.309A14.846,14.846,0,0,1,622.877,243.244Z" transform="translate(279.905 6081.001)" fill="#00b0ff"/>
    </g>
    <g id="Rectangle_325" data-name="Rectangle 325" transform="translate(520 6051)" fill="#fff" stroke="#707070" stroke-width="1" opacity="0.195">
      <rect width="286" height="120" rx="10" stroke="none"/>
      <rect x="0.5" y="0.5" width="285" height="119" rx="9.5" fill="none"/>
    </g>
    <g id="Group_400" data-name="Group 400" transform="translate(399 -239)">
      <g id="power-plant_2_" data-name="power-plant (2)" transform="translate(137 6324.95)">
        <rect id="Rectangle_314" data-name="Rectangle 314" width="2" height="2" transform="translate(18 41.05)" fill="#707070"/>
        <rect id="Rectangle_315" data-name="Rectangle 315" width="2" height="2" transform="translate(18 38.05)" fill="#707070"/>
        <rect id="Rectangle_316" data-name="Rectangle 316" width="3" height="2" transform="translate(25 41.05)" fill="#707070"/>
        <rect id="Rectangle_317" data-name="Rectangle 317" width="3" height="2" transform="translate(25 38.05)" fill="#707070"/>
        <rect id="Rectangle_318" data-name="Rectangle 318" width="2" height="2" transform="translate(33 41.05)" fill="#707070"/>
        <rect id="Rectangle_319" data-name="Rectangle 319" width="2" height="2" transform="translate(33 38.05)" fill="#707070"/>
        <path id="Path_1118" data-name="Path 1118" d="M16.812,150.965H53.341a.812.812,0,0,0,.812-.812V132.294a.812.812,0,0,0-1.31-.641l-6,4.663v-4.023a.812.812,0,0,0-1.31-.641l-6,4.663v-4.023a.812.812,0,0,0-1.31-.641l-6,4.663v-.775a.812.812,0,0,0-.812-.812H29.8v-3.247h2.435a.812.812,0,0,0,.812-.812h1.624v-1.624H33.047v-.812h6.494a.812.812,0,0,0,.757-1.106l-5.682-14.612a.812.812,0,0,0-.757-.518H16.812a.812.812,0,0,0-.757,1.106l5.682,14.612a.812.812,0,0,0,.757.518h2.435v6.494h-.99l-.658-2.632a.812.812,0,0,0-.787-.615H17.624a.812.812,0,0,0-.788.615l-.812,3.247h0a.81.81,0,0,0-.025.2v14.612a.812.812,0,0,0,.812.812Zm.812-11.365h4.059v3.247H17.624Zm9.741,0v3.247H23.306V139.6Zm4.871-.812h5.682v10.553H32.235Zm7.306,0h5.682v10.553H39.541Zm12.988,10.553H46.847V138.788h5.682Zm0-12.176H48.4l4.128-3.211Zm-7.306,0H41.1l4.128-3.211Zm-7.306,0H33.79l4.128-3.211Zm-7.306,12.176H17.624v-4.871H28.176a.812.812,0,0,0,.812-.812v-4.871a.812.812,0,0,0-.812-.812H17.624v-1.624H30.612ZM19.893,118.494h3.94l1.263,3.247h-3.94Zm5.682,0h3.94l1.263,3.247h-3.94Zm-.631-1.624-1.263-3.247h3.94l1.263,3.247Zm11.517,4.871H32.52l-1.263-3.247H35.2Zm-5.051,1.624,1.263,3.247h-3.94l-1.263-3.247Zm.014,6.494H29.8v-1.624h1.624Zm2.991-3.247-1.263-3.247h3.94l1.263,3.247Zm.152-9.741h-3.94l-1.263-3.247H33.3Zm-12.627-3.247,1.263,3.247h-3.94L18,113.624Zm-.152,9.741h3.94l1.263,3.247h-3.94Zm4.766,4.871h1.624v6.494H26.553Zm-4.693,4.871.406,1.624H17.851l.406-1.624Z" transform="translate(-16 -102.259)" fill="#707070"/>
        <path id="Path_1119" data-name="Path 1119" d="M278.875,38.041,272.381,42.1a.812.812,0,0,0,.43,1.5h14.032l2.886,19.482h-2.306v1.624h3.247a.812.812,0,0,0,.8-.931L288.484,43.6h5.433a.812.812,0,0,0,.43-1.5l-6.494-4.059a.811.811,0,0,0-.206-.092l-.365-2.467h5.012a.812.812,0,0,0,.43-1.5l-6.243-3.9-.4-2.716h4.591a.812.812,0,0,0,.4-1.517L285.39,22.6l-.019-.009-.318-2.143,4.442-2.962a.812.812,0,0,0-.45-1.487H277.681a.812.812,0,0,0-.45,1.487l4.442,2.962-.318,2.143-.018.009-5.682,3.247a.812.812,0,0,0,.4,1.517h4.591l-.4,2.716L274,33.982a.812.812,0,0,0,.43,1.5h5.012l-.365,2.467A.811.811,0,0,0,278.875,38.041Zm-.1,1.977-.29,1.958h-2.843Zm1.351,1.958.361-2.435h5.755l.361,2.435Zm10.961,0h-2.843l-.29-1.958Zm-1.624-8.118h-2.422l-.247-1.668Zm-7.774-2.435h3.35l.361,2.435h-4.071Zm5.924-5.682h-1.775l-.164-1.108Zm-4.36-4.871h.223l.241,1.624h-.7Zm-.481,3.247h1.185l.241,1.624h-1.666Zm3.594-6.494-2.435,1.624H282.8l-2.435-1.624Zm-7.25,8.118,1.939-1.108-.164,1.108Zm5.323,1.624L284.8,29.8H281.93l.361-2.435Zm-7.172,6.494,2.669-1.668-.247,1.668Zm8.375,1.624L286,37.918h-5.274l.361-2.435Z" transform="translate(-246.023 -16)" fill="#707070"/>
        <rect id="Rectangle_320" data-name="Rectangle 320" width="2" height="1" transform="translate(3 44.05)" fill="#707070"/>
        <rect id="Rectangle_321" data-name="Rectangle 321" width="2" height="1" transform="translate(6 44.05)" fill="#707070"/>
        <rect id="Rectangle_322" data-name="Rectangle 322" width="1" height="1" transform="translate(10 44.05)" fill="#707070"/>
      </g>
      <circle id="Ellipse_97" data-name="Ellipse 97" cx="10.5" cy="10.5" r="10.5" transform="translate(168 6358)" fill="#fff"/>
      <g id="Group_399" data-name="Group 399" transform="translate(168.704 6359.565)">
        <g id="Group_394" data-name="Group 394" transform="translate(0 0)">
          <g id="Group_393" data-name="Group 393" transform="translate(0 0)">
            <path id="Path_1116" data-name="Path 1116" d="M320.075,197.922h-1.486l1.051-1.052a.846.846,0,0,0,0-1.2l-2.393-2.393a.846.846,0,0,0-1.2,0L315,194.333v-1.486a.846.846,0,0,0-.846-.846h-3.384a.846.846,0,0,0-.846.846v1.486l-1.052-1.051a.846.846,0,0,0-1.2,0l-2.393,2.393a.846.846,0,0,0,0,1.2l1.051,1.052h-1.486a.846.846,0,0,0-.846.846v3.384a.846.846,0,0,0,.846.846h1.486l-1.051,1.052a.846.846,0,0,0,0,1.2l2.393,2.393a.846.846,0,0,0,1.2,0l1.052-1.052v1.487a.846.846,0,0,0,.846.846h3.384a.846.846,0,0,0,.846-.846v-1.487l1.052,1.052a.871.871,0,0,0,1.2,0l2.393-2.393a.846.846,0,0,0,0-1.2L318.588,203h1.486a.846.846,0,0,0,.846-.846v-3.384A.846.846,0,0,0,320.075,197.922Zm-.846,3.384h-1.987a.846.846,0,0,0-.8.56q-.074.211-.169.414a.846.846,0,0,0,.169.963l1.405,1.405-1.2,1.2-1.405-1.408a.846.846,0,0,0-.961-.169,4.3,4.3,0,0,1-.411.169.846.846,0,0,0-.564.8v1.994h-1.692v-1.987a.846.846,0,0,0-.564-.8,4.3,4.3,0,0,1-.411-.169.846.846,0,0,0-.961.169l-1.405,1.4-1.2-1.2,1.408-1.405a.846.846,0,0,0,.169-.963q-.095-.2-.169-.414a.846.846,0,0,0-.8-.56h-1.987v-1.692h1.987a.846.846,0,0,0,.8-.56q.074-.211.169-.414a.846.846,0,0,0-.169-.963l-1.4-1.405,1.2-1.2,1.406,1.408a.846.846,0,0,0,.963.169,3.958,3.958,0,0,1,.409-.169.846.846,0,0,0,.564-.8v-1.987h1.692v1.987a.846.846,0,0,0,.564.8,3.955,3.955,0,0,1,.409.169.846.846,0,0,0,.963-.169l1.406-1.405,1.2,1.2-1.408,1.409a.846.846,0,0,0-.169.963q.095.2.169.414a.846.846,0,0,0,.8.56h2Z" transform="translate(-304 -192)" fill="#707070"/>
          </g>
        </g>
        <g id="Group_396" data-name="Group 396" transform="translate(5.076 5.076)">
          <g id="Group_395" data-name="Group 395" transform="translate(0)">
            <path id="Path_1117" data-name="Path 1117" d="M355.384,240a3.384,3.384,0,1,0,3.384,3.384A3.384,3.384,0,0,0,355.384,240Zm0,5.076a1.692,1.692,0,1,1,1.692-1.692A1.692,1.692,0,0,1,355.384,245.076Z" transform="translate(-352 -240)" fill="#707070"/>
          </g>
        </g>
      </g>
    </g>
    <text id="Plant_Maintenance_Reminder" data-name="Plant Maintenance 
Reminder" transform="translate(706 6080)" fill="#21232a" font-size="20" font-family="HelveticaNeue-Bold, Helvetica Neue" font-weight="700"><tspan x="-91.66" y="0">Plant Maintenance </tspan><tspan x="-46.27" y="25">Reminder</tspan></text>
    <text id="Generation_Error" data-name="Generation Error" transform="translate(608 6253)" fill="#21232a" font-size="20" font-family="HelveticaNeue-Bold, Helvetica Neue" font-weight="700"><tspan x="17.37" y="20">Generation Error</tspan></text>
    <text id="Consumption_Data_Reminder" data-name="Consumption Data
Reminder" transform="translate(1373 6078)" fill="#21232a" font-size="20" font-family="HelveticaNeue-Bold, Helvetica Neue" font-weight="700"><tspan x="-89.25" y="0">Consumption Data</tspan><tspan x="-46.27" y="25">Reminder</tspan></text>
    <text id="Generation_Data_Reminder" data-name="Generation Data 
Reminder" transform="translate(1378 6259)" fill="#21232a" font-size="20" font-family="HelveticaNeue-Bold, Helvetica Neue" font-weight="700"><tspan x="-80.74" y="0">Generation Data </tspan><tspan x="-46.27" y="25">Reminder</tspan></text>
    <text id="Concerns_technical_servicing_issues_across_various_plants" data-name="Concerns technical
servicing issues across various plants" transform="translate(618 6113)" fill="#21232a" font-size="14" font-family="HelveticaNeue, Helvetica Neue"><tspan x="28.09" y="13">Concerns technical</tspan><tspan x="16.295" y="29">servicing issues across </tspan><tspan x="44.939" y="45">various plants</tspan></text>
    <text id="Alerts_user_to_anomalies_in_solar_generation" data-name="Alerts user to anomalies
in solar generation" transform="translate(603 6295)" fill="#21232a" font-size="14" font-family="HelveticaNeue, Helvetica Neue"><tspan x="26.306" y="13">Alerts user to anomalies</tspan><tspan x="43.813" y="29">in solar generation</tspan></text>
    <text id="Notifies_a_user_on_incomplete_consumption_data_logging" data-name="Notifies a user on
incomplete consumption data logging" transform="translate(1281 6114)" fill="#21232a" font-size="14" font-family="HelveticaNeue, Helvetica Neue"><tspan x="33.795" y="13">Notifies a user on</tspan><tspan x="11.08" y="29">incomplete consumption </tspan><tspan x="49.608" y="45">data logging</tspan></text>
    <text id="Notifies_a_user_on_incomplete_generation_data_logging" data-name="Notifies a user on
incomplete generation
data logging" transform="translate(1286 6295)" fill="#21232a" font-size="14" font-family="HelveticaNeue, Helvetica Neue"><tspan x="33.795" y="13">Notifies a user on</tspan><tspan x="18.745" y="29">incomplete generation</tspan><tspan x="49.608" y="45">data logging</tspan></text>
    <line id="Line_60" data-name="Line 60" y2="120" transform="translate(603.5 6051.5)" fill="none" stroke="#707070" stroke-width="1" opacity="0.2"/>
    <line id="Line_62" data-name="Line 62" y2="120" transform="translate(1274.5 6051.5)" fill="none" stroke="#707070" stroke-width="1" opacity="0.2"/>
    <line id="Line_63" data-name="Line 63" y2="120" transform="translate(1274.5 6231.5)" fill="none" stroke="#707070" stroke-width="1" opacity="0.2"/>
    <line id="Line_64" data-name="Line 64" x2="97" transform="translate(806.5 6114.5)" fill="none" stroke="#707070" stroke-width="1" opacity="0.2"/>
    <line id="Line_65" data-name="Line 65" x2="97" transform="translate(806.5 6295.5)" fill="none" stroke="#707070" stroke-width="1" opacity="0.2"/>
  </g>
</svg>
