<svg xmlns="http://www.w3.org/2000/svg" width="1173.409" height="339.872" viewBox="0 0 1173.409 339.872">
  <g id="Group_2636" data-name="Group 2636" transform="translate(-374.091 -3048.468)">
    <text id="Technician" transform="translate(830 3064)" fill="#21232a" font-size="20" font-family="HelveticaNeue-Bold, Helvetica Neue" font-weight="700"><tspan x="0.09" y="20">Technician</tspan></text>
    <text id="Main_Purpose" data-name="Main
Purpose" transform="translate(677 3154)" fill="#21232a" font-size="20" font-family="HelveticaNeue-Bold, Helvetica Neue" font-weight="700"><tspan x="21.18" y="20">Main</tspan><tspan x="4.68" y="45">Purpose</tspan></text>
    <text id="Example_Use_Case" data-name="Example
Use Case" transform="translate(670 3281)" fill="#21232a" font-size="20" font-family="HelveticaNeue-Bold, Helvetica Neue" font-weight="700"><tspan x="10.42" y="20">Example</tspan><tspan x="5.94" y="45">Use Case</tspan></text>
    <text id="CSA" transform="translate(981 3064)" fill="#21232a" font-size="20" font-family="HelveticaNeue-Bold, Helvetica Neue" font-weight="700"><tspan x="64.25" y="20">CSA</tspan></text>
    <line id="Line_89" data-name="Line 89" y2="339.872" transform="translate(788.5 3048.468)" fill="none" stroke="#707070" stroke-width="1" opacity="0.2"/>
    <line id="Line_90" data-name="Line 90" x1="895.5" transform="translate(652 3249.5)" fill="none" stroke="#707070" stroke-width="1" opacity="0.2"/>
    <text id="Access_to_the_list_of_active_members_on_the_plant" data-name="Access to the list of active members on the plant" transform="translate(808 3154)" fill="#707070" font-size="14" font-family="HelveticaNeue, Helvetica Neue"><tspan x="10.921" y="13">Access to the list of </tspan><tspan x="0.918" y="29">active members on the </tspan><tspan x="56.939" y="45">plant</tspan></text>
    <text id="Same_as_Technician" data-name="Same as
Technician" transform="translate(1026 3154)" fill="#707070" font-size="14" font-family="HelveticaNeue, Helvetica Neue"><tspan x="13.27" y="13">Same as</tspan><tspan x="7.439" y="29">Technician</tspan></text>
    <text id="To_check_the_consumer_ID_of_a_particular_consumer" data-name="To check the consumer ID of a particular consumer" transform="translate(808 3281)" fill="#707070" font-size="14" font-family="HelveticaNeue, Helvetica Neue"><tspan x="32.691" y="13">To check the </tspan><tspan x="18.95" y="29">consumer ID of a </tspan><tspan x="10.137" y="45">particular consumer</tspan></text>
    <text id="To_check_the_number_of_active_customers" data-name="To check the number of active customers" transform="translate(1001 3281)" fill="#707070" font-size="14" font-family="HelveticaNeue, Helvetica Neue"><tspan x="25.191" y="13">To check the </tspan><tspan x="12.486" y="29">number of active </tspan><tspan x="32.065" y="45">customers</tspan></text>
    <line id="Line_91" data-name="Line 91" y2="339.872" transform="translate(973.5 3048.468)" fill="none" stroke="#707070" stroke-width="1" opacity="0.2"/>
    <line id="Line_92" data-name="Line 92" y2="339.872" transform="translate(1157.5 3048.468)" fill="none" stroke="#707070" stroke-width="1" opacity="0.2"/>
    <text id="Cluster_In-charge" data-name="Cluster
In-charge" transform="translate(1200 3064)" fill="#21232a" font-size="20" font-family="HelveticaNeue-Bold, Helvetica Neue" font-weight="700"><tspan x="16.56" y="20">Cluster</tspan><tspan x="5.18" y="45">In-charge</tspan></text>
    <text id="State_In-carge" data-name="State
In-carge" transform="translate(1368 3064)" fill="#21232a" font-size="20" font-family="HelveticaNeue-Bold, Helvetica Neue" font-weight="700"><tspan x="42.49" y="20">State</tspan><tspan x="27.61" y="45">In-carge</tspan></text>
    <text id="Summary_of_total_number_of_customers_in_the_cluster" data-name="Summary of total number of customers in the cluster" transform="translate(1185 3154)" fill="#707070" font-size="14" font-family="HelveticaNeue, Helvetica Neue"><tspan x="12.317" y="13">Summary of total </tspan><tspan x="33.968" y="29">number of </tspan><tspan x="13.871" y="45">customers in the </tspan><tspan x="45" y="61">cluster</tspan></text>
    <text id="Summary_of_the_total_number_of_customers_in_the_state" data-name="Summary of the total number of customers in the state" transform="translate(1372 3154)" fill="#707070" font-size="14" font-family="HelveticaNeue, Helvetica Neue"><tspan x="13.702" y="13">Summary of the </tspan><tspan x="15.781" y="29">total number of </tspan><tspan x="11.371" y="45">customers in the </tspan><tspan x="48.072" y="61">state</tspan></text>
    <text id="To_create_a_report_on_the_customers_served_at_a_cluster_in_a_given_time_frame" data-name="To create a report on the customers served at a cluster in a given time frame" transform="translate(1184 3281)" fill="#707070" font-size="14" font-family="HelveticaNeue, Helvetica Neue"><tspan x="1.673" y="13">To create a report on </tspan><tspan x="21.763" y="29">the customers </tspan><tspan x="1.547" y="45">served at a cluster in </tspan><tspan x="8.799" y="61">a given time frame</tspan></text>
    <text id="To_create_a_report_on_the_customers_served_in_a_state_in_a_given_time_frame" data-name="To create a report on the customers served in a state in a given time frame" transform="translate(1370 3281)" fill="#707070" font-size="14" font-family="HelveticaNeue, Helvetica Neue"><tspan x="1.173" y="13">To create a report on </tspan><tspan x="21.263" y="29">the customers </tspan><tspan x="1.432" y="45">served in a state in a </tspan><tspan x="14.004" y="61">given time frame</tspan></text>
    <line id="Line_93" data-name="Line 93" y2="339.872" transform="translate(1341.5 3048.468)" fill="none" stroke="#707070" stroke-width="1" opacity="0.2"/>
    <g id="undraw_referral_4ki4" transform="translate(374.091 3090.5)">
      <path id="Path_2396" data-name="Path 2396" d="M646.483,570.785l-76.749.254c-20.362-6.118-37.044-27.368-37.149-59.228a90.211,90.211,0,0,1,1.084-14.335l61.818-13.888,47.689-10.713a94.849,94.849,0,0,1,9.8,10.186l-45.6,24.079L585.858,518.5l24.173-8.34L660.2,492.85a121.671,121.671,0,0,1,8.343,14.958l-15.138,15.645,17.125-11.211q.11.258.219.516C681.606,538.523,668.14,570.713,646.483,570.785Z" transform="translate(-435.727 -334.415)" fill="#f2f2f2"/>
      <path id="Path_2397" data-name="Path 2397" d="M636.695,428.114c-11.606,3.333-25.876,7.545-40.547,11.922-21.212,6.331-43.264,13.012-59.318,17.9l.01-.057a22.066,22.066,0,0,1,4.072-9.451c11.892-15.462,27.036-26.264,43.889-30.276h0a63.254,63.254,0,0,1,14.465-1.726C612.677,416.378,625.378,420.584,636.695,428.114Z" transform="translate(-438.551 -296.866)" fill="#f2f2f2"/>
      <ellipse id="Ellipse_161" data-name="Ellipse 161" cx="76.343" cy="5.692" rx="76.343" ry="5.692" transform="translate(44.271 232.221)" fill="#3f3d56"/>
      <path id="Path_2398" data-name="Path 2398" d="M352.546,302.506c0,41.131-24.452,55.493-54.615,55.493s-54.615-14.361-54.615-55.493,54.615-93.456,54.615-93.456S352.546,261.375,352.546,302.506Z" transform="translate(-243.316 -158.929)" fill="#f2f2f2"/>
      <path id="Path_2399" data-name="Path 2399" d="M113.561,292.344l.559-34.423L137.4,215.335l-23.19,37.186.251-15.478L130.5,206.233l-15.977,26.715h0l.452-27.838,17.179-24.529-17.108,20.151.283-51.045-1.776,67.574.146-2.788L96.235,187.739l17.186,32.086-1.627,31.09-.049-.825L91.61,221.955l20.075,31.05-.2,3.888-.036.058.017.319-4.129,78.878h5.516l.662-40.742,20.026-30.974Z" transform="translate(-60.936 -99.566)" fill="#3f3d56"/>
      <path id="Path_2400" data-name="Path 2400" d="M550.429,69.116V286.157a9.757,9.757,0,0,1-9.754,9.747H452.563a9.737,9.737,0,0,1-9.754-9.747V69.116a9.753,9.753,0,0,1,9.755-9.754h13.185v1.691a8.032,8.032,0,0,0,8.03,8.033h44.814a7.965,7.965,0,0,0,4.761-1.567,7.462,7.462,0,0,0,.79-.663,8.008,8.008,0,0,0,2.478-5.8V59.362h14.053A9.751,9.751,0,0,1,550.429,69.116Z" transform="translate(-376.012 -59.362)" fill="#707070"/>
      <path id="Path_2401" data-name="Path 2401" d="M559.591,285.833c0,6.057-3.6,8.173-8.038,8.175q-.155,0-.308,0-.309-.006-.611-.028c-4.009-.282-7.124-2.5-7.127-8.137,0-5.829,7.444-13.19,8-13.734h0l.032-.031S559.588,279.776,559.591,285.833Z" transform="translate(-442.992 -200.851)" fill="#00b0ff"/>
      <path id="Path_2402" data-name="Path 2402" d="M560.229,293.082l2.939-4.111-2.947,4.562-.008.472q-.309-.007-.611-.028l.314-6.06,0-.047.005-.009.03-.573-2.958-4.571,2.967,4.142.008.121.237-4.578-2.533-4.723,2.564,3.919.245-9.492v0l-.038,7.485,2.517-2.969-2.528,3.613-.065,4.1,2.351-3.935-2.36,4.538-.036,2.279,3.412-5.478-3.425,6.273Z" transform="translate(-451.962 -200.851)" fill="#3f3d56"/>
      <path id="Path_2403" data-name="Path 2403" d="M322.541,484.7H246.2v25.211l6.392-6.391h69.951Z" transform="translate(-163.762 -322.405)" fill="#00b0ff"/>
      <rect id="Rectangle_413" data-name="Rectangle 413" width="42.948" height="3.482" transform="translate(99.468 166.865)" fill="#fff"/>
      <rect id="Rectangle_414" data-name="Rectangle 414" width="42.948" height="3.482" transform="translate(99.468 172.089)" fill="#fff"/>
      <path id="Path_2404" data-name="Path 2404" d="M246.2,382.2h76.343v25.211l-6.391-6.391H246.2Z" transform="translate(-163.762 -254.226)" fill="#00b0ff"/>
      <rect id="Rectangle_415" data-name="Rectangle 415" width="42.948" height="3.482" transform="translate(95.45 132.879)" fill="#fff"/>
      <rect id="Rectangle_416" data-name="Rectangle 416" width="42.948" height="3.482" transform="translate(95.45 138.103)" fill="#fff"/>
      <path id="Path_2405" data-name="Path 2405" d="M480.515,205.808v61.473h82.37V205.808Zm10.614.774a1.327,1.327,0,1,1-1.327,1.327A1.327,1.327,0,0,1,491.129,206.582Zm-7.961,2.654a1.327,1.327,0,1,1,1.327-1.327A1.327,1.327,0,0,1,483.168,209.235Zm2.654-1.327a1.327,1.327,0,1,1,1.327,1.327A1.327,1.327,0,0,1,485.822,207.909Zm45.663,42.125H487.148V217.085h44.336Z" transform="translate(-401.092 -156.773)" fill="#f2f2f2"/>
      <rect id="Rectangle_417" data-name="Rectangle 417" width="2.654" height="0.332" transform="translate(157.37 50.141)" fill="#fff"/>
      <rect id="Rectangle_418" data-name="Rectangle 418" width="2.654" height="0.332" transform="translate(157.37 51.136)" fill="#fff"/>
      <rect id="Rectangle_419" data-name="Rectangle 419" width="2.654" height="0.332" transform="translate(157.37 52.131)" fill="#fff"/>
      <rect id="Rectangle_420" data-name="Rectangle 420" width="20.012" height="0.995" transform="translate(137.358 59.76)" fill="#fff"/>
      <rect id="Rectangle_421" data-name="Rectangle 421" width="20.012" height="0.995" transform="translate(137.358 63.188)" fill="#fff"/>
      <rect id="Rectangle_422" data-name="Rectangle 422" width="20.012" height="0.995" transform="translate(137.358 66.615)" fill="#fff"/>
      <rect id="Rectangle_423" data-name="Rectangle 423" width="20.012" height="0.995" transform="translate(137.358 70.042)" fill="#fff"/>
      <rect id="Rectangle_424" data-name="Rectangle 424" width="20.012" height="0.995" transform="translate(137.358 73.47)" fill="#fff"/>
      <rect id="Rectangle_425" data-name="Rectangle 425" width="20.012" height="0.995" transform="translate(137.358 76.897)" fill="#fff"/>
      <rect id="Rectangle_426" data-name="Rectangle 426" width="20.012" height="0.995" transform="translate(137.358 80.325)" fill="#fff"/>
      <rect id="Rectangle_427" data-name="Rectangle 427" width="20.012" height="0.995" transform="translate(137.358 83.752)" fill="#fff"/>
      <rect id="Rectangle_428" data-name="Rectangle 428" width="20.012" height="0.995" transform="translate(137.358 87.18)" fill="#fff"/>
      <rect id="Rectangle_429" data-name="Rectangle 429" width="20.012" height="0.995" transform="translate(137.358 90.607)" fill="#fff"/>
      <circle id="Ellipse_162" data-name="Ellipse 162" cx="1.327" cy="1.327" r="1.327" transform="translate(87.383 94.256)" fill="#fff"/>
      <circle id="Ellipse_163" data-name="Ellipse 163" cx="1.327" cy="1.327" r="1.327" transform="translate(91.916 94.256)" fill="#fff"/>
      <circle id="Ellipse_164" data-name="Ellipse 164" cx="1.327" cy="1.327" r="1.327" transform="translate(96.449 94.256)" fill="#fff"/>
      <rect id="Rectangle_430" data-name="Rectangle 430" width="20.012" height="5.639" transform="translate(137.358 102.106)" fill="#00b0ff"/>
      <path id="Path_2406" data-name="Path 2406" d="M358.592,594.882l-.734,25.675-7.825,30.077s1.712,5.135.489,6.358-6.847,3.423-6.847,3.423l4.646-64.066Z" transform="translate(-310.071 -415.571)" fill="#2f2e41"/>
      <path id="Path_2407" data-name="Path 2407" d="M335.568,778.893s-2.79,6.139,1.116,6.7,21.952,2.046,20.836-1.116-14.7-6.139-14.7-6.139Z" transform="translate(-304.037 -537.596)" fill="#2f2e41"/>
      <path id="Path_2408" data-name="Path 2408" d="M306.431,526.81s2.934,15.894,4.891,18.584-.978,22.252-.978,22.252-4.4,28.121-2.445,32.522,1.467,2.934,1.223,5.38-.734,4.4,0,6.6a19.331,19.331,0,0,1,.978,3.179c.245,1.223,0,7.825,0,7.825s10.515,3.668,12.226-1.712c0,0-2.445-3.423-1.712-6.113a32.564,32.564,0,0,0,1.223-8.314V601.88l11.248-42.059,2.69-15.161s-.734-15.405-3.423-16.872S306.431,526.81,306.431,526.81Z" transform="translate(-285.298 -370.239)" fill="#2f2e41"/>
      <path id="Path_2409" data-name="Path 2409" d="M317.055,809.59s-3.668,8.069,1.467,8.8,28.854,2.69,27.387-1.467-19.318-8.069-19.318-8.069Z" transform="translate(-291.52 -557.899)" fill="#2f2e41"/>
      <circle id="Ellipse_165" data-name="Ellipse 165" cx="9.781" cy="9.781" r="9.781" transform="translate(20.402 66.595)" fill="#ffb9b9"/>
      <path id="Path_2410" data-name="Path 2410" d="M312.932,299.518l.182,12.491,11.992.041s-3.043-9.778-1.68-11.823S312.932,299.518,312.932,299.518Z" transform="translate(-289.622 -218.82)" fill="#ffb9b9"/>
      <path id="Path_2411" data-name="Path 2411" d="M318.224,343.366s-8.558-11-15.161-6.358-9.047,15.65-9.047,15.65l1.467,30.81s3.668,4.4,1.467,7.336-3.423,2.2-1.712,4.4,3.668,3.912,2.934,4.646.734,1.223.734,1.223l25.92.734s-.734-.978,1.467-3.912-.489-6.847,0-8.314.978.245,1.223-3.179S318.224,343.366,318.224,343.366Z" transform="translate(-277.04 -243.281)" fill="#3f3d56"/>
      <path id="Path_2412" data-name="Path 2412" d="M359.011,541.826s.489,6.113,4.157,7.091a2.877,2.877,0,0,0,3.159-1.35,6.005,6.005,0,0,0,.192-6.737l-.906-1.45Z" transform="translate(-320.272 -378.653)" fill="#ffb9b9"/>
      <path id="Path_2413" data-name="Path 2413" d="M290.773,319.643a42.762,42.762,0,0,0,0,5.624,2.338,2.338,0,0,1,0,2.2c-.489.734-.244,3.179.245,3.423s-.978,2.445-.489,3.912a10.607,10.607,0,0,0,1.223,2.445c.245.489.638,1.365.638,1.365s7.186-15.3,13.055-11.635a42.53,42.53,0,0,0,10.515,4.891S312.78,314.753,290.773,319.643Z" transform="translate(-274.653 -231.907)" fill="#3f3d56"/>
      <path id="Path_2414" data-name="Path 2414" d="M307.2,355.231s-7.825.734-7.336,11-.734,26.409-.734,26.409,13.449,20.54,15.65,22.007,2.445,1.223,2.2,2.445-.489,2.2.489,3.179a8.444,8.444,0,0,0,1.956,1.467s7.825-2.69,7.091-5.135-4.157-6.358-4.157-6.358-5.869-9.537-6.113-11-.245-1.223-.978-1.956-2.69-3.668-2.69-5.135v-4.646l2.05-24.828a7.2,7.2,0,0,0-1.909-5.574A6.228,6.228,0,0,0,307.2,355.231Z" transform="translate(-280.44 -256.124)" fill="#3f3d56"/>
      <path id="Path_2415" data-name="Path 2415" d="M314.957,250.277a3.986,3.986,0,0,0,3.693-.846,3.016,3.016,0,0,0,.6-3.612,4.763,4.763,0,0,0-2.816-1.792,24.936,24.936,0,0,0-7.406-1.13,6.649,6.649,0,0,0-3.472.721c-.507.307-.936.727-1.437,1.043a17.931,17.931,0,0,1-3.04,1.177,7.8,7.8,0,0,0-4.444,4.707,9.4,9.4,0,0,0-.432,2.211,12.113,12.113,0,0,0,1.057,6c1.364,2.975,3.961,5.477,4.328,8.729,1.4-1.173,1.808-3.142,2.89-4.611a5.978,5.978,0,0,1,3.264-2.215,1.9,1.9,0,0,0,.988-.442,1.638,1.638,0,0,0,.309-.891l.671-4.832a4.164,4.164,0,0,1,1.076-2.7,3.825,3.825,0,0,1,1.6-.7,25.848,25.848,0,0,1,4.183-.682" transform="translate(-278.466 -181.444)" fill="#2f2e41"/>
      <path id="Path_2416" data-name="Path 2416" d="M302.68,477.514l13.727,17.814S303.767,484.761,302.68,477.514Z" transform="translate(-282.803 -337.501)" opacity="0.1"/>
      <path id="Path_2417" data-name="Path 2417" d="M98.455,359.249l-.13,16.823,7.972,11.959-6.523-13.408Z" transform="translate(-65.402 -238.959)" opacity="0.1"/>
      <path id="Path_2418" data-name="Path 2418" d="M781.088,749.278,779.5,748.1s-1.052,5.874.122,6.754,5.574,2.347,5.574,4.107,9.975,4.107,10.268,1.467a5.818,5.818,0,0,0-.88-4.107s-4.694-4.694-5.281-5.574-2.054-2.64-2.054-2.64Z" transform="translate(-599.677 -517.484)" fill="#2f2e41"/>
      <path id="Path_2419" data-name="Path 2419" d="M804.019,527.048s-.044.258-.12.73c-.07.42-.167,1.012-.285,1.743-1.232,7.519-4.826,29.654-4.582,30.384.293.88,2.347,4.107,0,4.987a1.819,1.819,0,0,0-.73.795,17.046,17.046,0,0,0-1.241,2.928,128.634,128.634,0,0,0-3.761,15.059c-.378,1.977-.637,3.567-.713,4.4a2.39,2.39,0,0,0-.009.581c.293,1.174-1.76,5.281-2.64,6.454s-2.347,2.347-2.054,3.52-7.334,4.4-8.214,2.347a37.437,37.437,0,0,1-1.173-3.814c-.293-.587-.587-4.694.88-5.281s.587-10.855,2.054-12.908a28.2,28.2,0,0,0,2.021-5.782c.308-1.091.619-2.253.924-3.418,1.238-4.773,2.335-9.576,2.335-9.576l-.293-34.324,16.135-2.054.414.912.824,1.81Z" transform="translate(-599.138 -368.303)" fill="#2f2e41"/>
      <path id="Path_2420" data-name="Path 2420" d="M851.415,699.61s2.347-2.347,3.52,0,2.347,11.442,4.4,13.5,4.694,12.322,1.76,12.908-6.161-.88-6.454-2.64-6.454-10.855-6.454-11.735,4.107-4.107,4.107-4.107Z" transform="translate(-645.655 -484.538)" fill="#2f2e41"/>
      <path id="Path_2421" data-name="Path 2421" d="M750.058,483.67s3.814,34.324,4.694,37.551,5.574,15.549,7.041,17.6,10.855,18.776,12.028,19.656,3.52,3.227,3.52,3.227,4.4,4.4,4.987,5.281,5.574-1.76,5.867-3.52a18.088,18.088,0,0,0-.587-5.868c-.293-1.173.587-2.934-.293-3.814s-5.281-5.281-5.281-7.334-7.628-14.082-10.561-16.722-2.347-7.041-2.347-7.041v-17.9l16.135-4.987s-.88-14.082-2.934-14.082S753.285,481.029,750.058,483.67Z" transform="translate(-580.382 -341.06)" fill="#2f2e41"/>
      <circle id="Ellipse_166" data-name="Ellipse 166" cx="9.681" cy="9.681" r="9.681" transform="translate(183.757 74.254)" fill="#9f616a"/>
      <path id="Path_2422" data-name="Path 2422" d="M805.633,322.9s-1.173,4.4-2.64,5.574,3.814,6.161,3.814,6.161l9.975.587,1.76-5.574s-3.227-6.454-2.347-10.561S805.633,322.9,805.633,322.9Z" transform="translate(-615.421 -231.332)" fill="#9f616a"/>
      <path id="Path_2423" data-name="Path 2423" d="M768.141,347.713s2.64.293,3.227,1.173,4.694,3.52,7.921,2.934,5.281-1.467,5.867-1.173,1.76,6.454,1.76,6.454l-3.227,9.388.587,25.817.88,7.041s1.76-2.347-5.281-.88-16.135-1.173-19.069-1.467-7.921-1.173-8.214-2.934.88-8.214.88-8.214l4.694-19.656,2.934-10.561Z" transform="translate(-582.037 -251.163)" fill="#3f3d56"/>
      <path id="Path_2424" data-name="Path 2424" d="M759.374,342.508s-2.482-1.316-3.362-.143-12.028,2.934-12.028,3.814-2.347,24.643-1.76,26.7-1.174,4.4-1.174,4.4l-2.054,8.8s-5.574,16.722-3.227,17.309a15.274,15.274,0,0,0,5.281,0c.88,0,.587-11.148,2.934-14.082s5.574-10.268,6.161-11.735,7.921-21.709,7.628-24.056S759.374,342.508,759.374,342.508Z" transform="translate(-570.495 -247.281)" fill="#d0cde1"/>
      <path id="Path_2425" data-name="Path 2425" d="M831.339,347.713s2.347,0,2.64.587a32.109,32.109,0,0,0,4.4,5.281c1.173.88,5.281,4.694,5.281,5.574s-8.508,7.334-8.508,7.334-3.52,17.309-1.76,23.176,4.4,19.949,3.227,20.829-3.814,1.173-3.814,0-1.76-13.788-3.227-16.429-5.867-19.362-4.107-24.056S831.339,347.713,831.339,347.713Z" transform="translate(-630.272 -251.163)" fill="#d0cde1"/>
      <path id="Path_2426" data-name="Path 2426" d="M728.14,434.453s-.293,9.095,2.934,13.788a55.753,55.753,0,0,1,5.281,9.975s5.281-1.467,6.161-3.227,6.454-.293,6.454-.88-6.748-3.52-7.334-4.107-2.64-.587-3.814-1.76-1.467-3.814-1.467-3.814l-1.174-7.628Z" transform="translate(-565.799 -308.859)" fill="#9f616a"/>
      <path id="Path_2427" data-name="Path 2427" d="M794.035,274.206a5.579,5.579,0,0,1-2.171-.5,2.907,2.907,0,0,1-.743-4.3,5.56,5.56,0,0,1,1.031-.829l2.23-1.518a10.908,10.908,0,0,1,3.146-1.67,9.821,9.821,0,0,1,3.216-.19,21.733,21.733,0,0,1,6.161,1.12,10.311,10.311,0,0,1,4.992,3.653c1.888,2.732,1.914,6.417.874,9.57a32.463,32.463,0,0,1-4.962,8.591L806.8,283.2a1.819,1.819,0,0,0-.571-1.18c-.907-.646-2.017.68-3.131.671a1.875,1.875,0,0,1-1.587-1.256,7.16,7.16,0,0,1-.352-2.108c-.133-1.51-.661-3.61-2.09-4.443C797.737,274.113,795.533,274.342,794.035,274.206Z" transform="translate(-607.265 -196.24)" fill="#2f2e41"/>
      <path id="Path_2428" data-name="Path 2428" d="M802.735,533.987s.991,28.66,1.578,29.54,0-29.63,0-29.63Z" transform="translate(-615.421 -375.006)" opacity="0.1"/>
      <path id="Path_2429" data-name="Path 2429" d="M737.242,354.722H734.9s-9.975,13.5-8.8,14.375,0,3.227,0,3.227l-2.347,4.4s-2.934,2.64-2.054,3.227a10.721,10.721,0,0,1,2.054,2.934s5.867-.88,7.628,2.64l3.805-4.8Z" transform="translate(-561.406 -255.825)" fill="#d0cde1"/>
      <path id="Path_2430" data-name="Path 2430" d="M775.906,398.188s-6.454.293-13.789-4.4l-7.334-3.227s-6.454-9.975-7.041-8.214.88,5.281.88,5.281-9.611,1.831-9.081,4.638c.109.578,4.974-.824,4.974-.824s-.88,5.574,4.107,5.867,6.454-.88,6.454-.88,21.123,17.6,24.643,12.028S775.906,398.188,775.906,398.188Z" transform="translate(-573.373 -274.061)" fill="#9f616a"/>
      <path id="Path_2431" data-name="Path 2431" d="M852.827,378.379l3.227,1.173v8.8l1.173,1.76s-.293,3.52-1.173,4.4-2.64.587-2.054,2.64a11.119,11.119,0,0,1,.293,4.107s-5.281,6.747-5.574,5.867-4.4-11.735-4.987-11.735,5.867-17.015,5.867-17.015Z" transform="translate(-642.666 -271.56)" fill="#d0cde1"/>
      <path id="Path_2432" data-name="Path 2432" d="M751.9,500.979s-3.033-2.934-1.517-3.08,6.8-3.08,7.678-1.614S751.9,500.979,751.9,500.979Z" transform="translate(-580.314 -349.715)" fill="#2f2e41"/>
      <path id="Path_2433" data-name="Path 2433" d="M414.318,710.052c0,7.523-4.472,10.15-9.99,10.15q-.192,0-.383,0c-.256-.006-.509-.018-.759-.035-4.979-.352-8.848-3.114-8.848-10.111,0-7.241,9.253-16.378,9.948-17.054h0l.04-.039S414.318,702.528,414.318,710.052Z" transform="translate(-343.771 -480.807)" fill="#00b0ff"/>
      <path id="Path_2434" data-name="Path 2434" d="M415.109,719.051l3.654-5.105-3.663,5.666-.01.586c-.256-.006-.509-.018-.759-.035l.394-7.527,0-.058.007-.011.037-.711-3.672-5.68,3.683,5.147.009.151.3-5.687-3.144-5.869,3.182,4.871.31-11.79v0l-.052,9.3,3.13-3.686-3.142,4.487-.083,5.092,2.922-4.887-2.934,5.636-.046,2.831,4.242-6.8-4.258,7.789Z" transform="translate(-354.916 -480.807)" fill="#3f3d56"/>
    </g>
  </g>
</svg>
