<svg xmlns="http://www.w3.org/2000/svg" width="815.188" height="275.723" viewBox="0 0 815.188 275.723">
  <g id="Group_2861" data-name="Group 2861" transform="translate(-534 -2913)">
    <g id="Group_429" data-name="Group 429" transform="translate(534 2966.387)">
      <path id="Path_1214" data-name="Path 1214" d="M233.068,192.886v3.639l-2.9,2.9-67.106,67.121v18.242h.279V304.9a19.387,19.387,0,0,1-19.363,19.37h-95.8A19.39,19.39,0,0,1,28.812,304.9V121.3a19.39,19.39,0,0,1,19.367-19.37h95.8a19.387,19.387,0,0,1,19.363,19.37v20.846h-.161v14.235h69.168v2.574H160.612V142.146h-.161V121.3a16.49,16.49,0,0,0-16.469-16.475h-95.8A16.492,16.492,0,0,0,31.706,121.3V304.9A16.492,16.492,0,0,0,48.179,321.37h95.8A16.49,16.49,0,0,0,160.451,304.9V284.783h.041v-19.31l.377-.376,69.3-69.316Z" transform="translate(-28.812 -101.93)" fill="#707070"/>
      <path id="Path_1215" data-name="Path 1215" d="M404.019,192.886v3.639l-2.894,2.9-67.107,67.121v18.242h.28V304.9a19.388,19.388,0,0,1-19.363,19.37H219.13a19.391,19.391,0,0,1-19.367-19.37V121.3a19.391,19.391,0,0,1,19.367-19.37h95.805A19.388,19.388,0,0,1,334.3,121.3v20.846h-.161v14.235h69.168v2.574H331.564V142.146H331.4V121.3a16.49,16.49,0,0,0-16.468-16.475H219.13A16.491,16.491,0,0,0,202.658,121.3V304.9A16.491,16.491,0,0,0,219.13,321.37h95.805A16.49,16.49,0,0,0,331.4,304.9V284.783h.043v-19.31l.376-.376,69.3-69.316Z" transform="translate(2.26 -101.93)" fill="#707070"/>
      <path id="Path_1216" data-name="Path 1216" d="M574.971,192.886v3.639l-2.9,2.9L504.97,266.542v18.242h.28V304.9a19.388,19.388,0,0,1-19.364,19.37h-95.8a19.391,19.391,0,0,1-19.367-19.37V121.3a19.391,19.391,0,0,1,19.367-19.37h95.8A19.388,19.388,0,0,1,505.25,121.3v20.846h-.161v14.235h69.168v2.574H502.515V142.146h-.161V121.3a16.49,16.49,0,0,0-16.469-16.475h-95.8A16.491,16.491,0,0,0,373.61,121.3V304.9a16.491,16.491,0,0,0,16.471,16.475h95.8A16.49,16.49,0,0,0,502.354,304.9V284.783h.041v-19.31l.377-.376,69.3-69.316Z" transform="translate(33.331 -101.93)" fill="#707070"/>
      <path id="Path_1217" data-name="Path 1217" d="M745.28,156.463v-.082H676.114V142.146h.161V121.3a19.389,19.389,0,0,0-19.365-19.369H561.1A19.389,19.389,0,0,0,541.74,121.3V304.9A19.389,19.389,0,0,0,561.1,324.266h95.805A19.389,19.389,0,0,0,676.275,304.9V284.782h-.282V266.54l74.4-74.415.377-.377V156.463Zm2.918,34.219L673.8,265.1l-.377.377v19.308h-.039V304.9a16.491,16.491,0,0,1-16.47,16.474H561.1a16.491,16.491,0,0,1-16.47-16.474V121.3a16.491,16.491,0,0,1,16.47-16.474h95.805a16.491,16.491,0,0,1,16.47,16.474v20.847h.161v16.809h70.52v.082H748.2Z" transform="translate(64.416 -101.93)" fill="#707070"/>
    </g>
    <g id="Group_432" data-name="Group 432" transform="translate(655.306 3048.752)">
      <g id="Group_430" data-name="Group 430">
        <path id="Path_1218" data-name="Path 1218" d="M141.095,210.941a9.247,9.247,0,0,1-5.352-1.506,8.34,8.34,0,0,1-3.219-4,15.073,15.073,0,0,1-1.064-5.917V183.035c0-3.541.793-6.328,2.414-8.341,1.6-2.06,4.013-3.067,7.221-3.067,3.185,0,5.586,1.051,7.2,3.067q2.418,3.047,2.414,8.341v16.478a13.044,13.044,0,0,1-2.458,8.31A8.593,8.593,0,0,1,141.095,210.941Zm0-4.534q4.111,0,4.114-6.893V183.035c0-.768-.035-1.47-.079-2.067a9.164,9.164,0,0,0-.357-1.847,5.376,5.376,0,0,0-.715-1.574,3.389,3.389,0,0,0-1.191-1.013,3.907,3.907,0,0,0-1.771-.372,4.048,4.048,0,0,0-1.8.372,3.286,3.286,0,0,0-1.163,1.013,5.579,5.579,0,0,0-.74,1.574,12.462,12.462,0,0,0-.339,1.847c-.056.6-.1,1.3-.1,2.067v16.478a15.532,15.532,0,0,0,.195,2.525,9.107,9.107,0,0,0,.63,2.157,3.663,3.663,0,0,0,1.263,1.627A3.524,3.524,0,0,0,141.095,206.406Z" transform="translate(-131.46 -171.627)" fill="#707070"/>
      </g>
      <g id="Group_431" data-name="Group 431" transform="translate(22.693 0.397)">
        <path id="Path_1219" data-name="Path 1219" d="M154.77,210.466V180.227h-4.107V176.1c2.781-.992,4.6-2.377,5.486-4.137h4.136v38.5Z" transform="translate(-150.663 -171.963)" fill="#707070"/>
      </g>
    </g>
    <g id="Group_437" data-name="Group 437" transform="translate(856.617 3050.324)">
      <g id="Group_435" data-name="Group 435">
        <path id="Path_1226" data-name="Path 1226" d="M310.741,209.322a8.9,8.9,0,0,1-4.957-1.374,8.307,8.307,0,0,1-3.011-3.723,14.42,14.42,0,0,1-.963-5.463V183.476a12.17,12.17,0,0,1,2.236-7.709c1.474-1.877,3.719-2.81,6.7-2.81,2.947,0,5.18.934,6.66,2.81a12.072,12.072,0,0,1,2.244,7.709v15.286a11.885,11.885,0,0,1-2.28,7.657A7.919,7.919,0,0,1,310.741,209.322Zm0-4.2c2.52,0,3.776-2.13,3.776-6.365V183.476c0-.678,0-1.359-.032-1.906a8.415,8.415,0,0,0-.339-1.709,4.232,4.232,0,0,0-.652-1.429,2.912,2.912,0,0,0-1.121-.941,3.356,3.356,0,0,0-1.631-.36,3.412,3.412,0,0,0-1.659.36,2.738,2.738,0,0,0-1.1.941,4.084,4.084,0,0,0-.659,1.429A7.642,7.642,0,0,0,307,181.57a16.641,16.641,0,0,0-.08,1.906v15.286a19.2,19.2,0,0,0,.163,2.309,8.328,8.328,0,0,0,.576,2.015,3.89,3.89,0,0,0,1.2,1.516A3.21,3.21,0,0,0,310.741,205.127Z" transform="translate(-301.809 -172.957)" fill="#707070"/>
      </g>
      <g id="Group_436" data-name="Group 436" transform="translate(21.171)">
        <path id="Path_1227" data-name="Path 1227" d="M319.724,208.952v-5.1l8.915-12.717c.079-.147.329-.473.694-.965.345-.5.594-.838.713-1.036.1-.165.33-.48.624-.941a10.978,10.978,0,0,0,.613-1.048c.11-.246.266-.589.445-1.052a7.287,7.287,0,0,0,.412-1.2c.067-.345.16-.758.214-1.241a10.087,10.087,0,0,0,.09-1.423,6.431,6.431,0,0,0-.973-3.608,3.2,3.2,0,0,0-2.833-1.483,3.42,3.42,0,0,0-1.871.531,3.726,3.726,0,0,0-1.186,1.484,8.63,8.63,0,0,0-.591,2.03,14.418,14.418,0,0,0-.183,2.3v1.3h-5.077v-1.3c0-3.314.688-5.9,2.135-7.763s3.681-2.756,6.773-2.756c2.91,0,5.087.8,6.625,2.437a9.59,9.59,0,0,1,2.277,6.828,15.408,15.408,0,0,1-.288,3.057,11.567,11.567,0,0,1-.9,2.753,19.8,19.8,0,0,1-1.17,2.171c-.346.576-.841,1.306-1.458,2.169l-8.919,11.476h12.733v5.1Z" transform="translate(-319.724 -172.957)" fill="#707070"/>
      </g>
    </g>
    <g id="Group_442" data-name="Group 442" transform="translate(1058.732 3051.224)">
      <g id="Group_440" data-name="Group 440">
        <path id="Path_1234" data-name="Path 1234" d="M481.926,210.748a8.721,8.721,0,0,1-5.052-1.418,8.416,8.416,0,0,1-3.069-3.763,14.948,14.948,0,0,1-.966-5.572V184.429a12.452,12.452,0,0,1,2.239-7.833c1.548-1.918,3.808-2.878,6.847-2.878,2.993,0,5.262.96,6.768,2.878A12.188,12.188,0,0,1,491,184.429V200a12.187,12.187,0,0,1-2.339,7.8A8.067,8.067,0,0,1,481.926,210.748Zm0-4.246c2.577,0,3.879-2.169,3.879-6.507V184.429c0-.733-.037-1.355-.071-1.918a10.826,10.826,0,0,0-.342-1.766,4.993,4.993,0,0,0-.69-1.461,3.1,3.1,0,0,0-1.1-.965,3.7,3.7,0,0,0-1.673-.342,3.757,3.757,0,0,0-1.7.342,3.12,3.12,0,0,0-1.118.965,4.618,4.618,0,0,0-.665,1.461,8.506,8.506,0,0,0-.351,1.766c-.05.563-.056,1.185-.056,1.918V200a14.107,14.107,0,0,0,.16,2.359,9.246,9.246,0,0,0,.577,2.016A3.255,3.255,0,0,0,480,205.928,3.17,3.17,0,0,0,481.926,206.5Z" transform="translate(-472.839 -173.719)" fill="#707070"/>
      </g>
      <g id="Group_441" data-name="Group 441" transform="translate(21.666)">
        <path id="Path_1235" data-name="Path 1235" d="M500.252,210.748c-2.953,0-5.18-.831-6.761-2.505-1.546-1.637-2.319-3.946-2.319-6.958V200h5.195c0,.806.009,1.51.071,2.089a10.954,10.954,0,0,0,.3,1.741,4.091,4.091,0,0,0,.617,1.436,3.235,3.235,0,0,0,1.139.869,3.816,3.816,0,0,0,1.756.372,3.646,3.646,0,0,0,1.729-.372,3.188,3.188,0,0,0,1.151-.869,4.242,4.242,0,0,0,.636-1.436,11.081,11.081,0,0,0,.3-1.741c.056-.579.073-1.283.073-2.089a8.411,8.411,0,0,0-1.2-4.8,4.606,4.606,0,0,0-3.982-1.662V188.34c1.881,0,3.219-.379,4.01-1.168.788-.769,1.176-2.126,1.176-4.032a7.008,7.008,0,0,0-.864-3.855,3.29,3.29,0,0,0-3.024-1.307,4.073,4.073,0,0,0-1.756.342,3.235,3.235,0,0,0-1.139.869,4.291,4.291,0,0,0-.617,1.459,10.207,10.207,0,0,0-.3,1.723,20.25,20.25,0,0,0-.071,2.059h-5.195V183.14a9.71,9.71,0,0,1,2.352-6.933q2.322-2.492,6.728-2.488c2.947,0,5.189.826,6.748,2.476a9.78,9.78,0,0,1,2.308,6.945,8.673,8.673,0,0,1-1.365,5.053,6.9,6.9,0,0,1-3.8,2.761,6.83,6.83,0,0,1,3.873,3.159,11.985,11.985,0,0,1,1.3,5.883c0,3.421-.709,6.042-2.159,7.924C505.665,209.832,503.377,210.748,500.252,210.748Z" transform="translate(-491.173 -173.719)" fill="#707070"/>
      </g>
    </g>
    <g id="Group_447" data-name="Group 447" transform="translate(1259.367 3050.503)">
      <g id="Group_445" data-name="Group 445">
        <path id="Path_1242" data-name="Path 1242" d="M651.91,210.958a9.087,9.087,0,0,1-5.147-1.389,8.472,8.472,0,0,1-3.128-3.875,14.248,14.248,0,0,1-1.02-5.693v-15.93c0-3.42.786-6.107,2.336-8.049s3.862-2.914,6.958-2.914c3.063,0,5.386.967,6.937,2.94,1.558,1.955,2.344,4.642,2.344,8.023V200a12.439,12.439,0,0,1-2.381,7.991A8.294,8.294,0,0,1,651.91,210.958Zm0-4.336c2.647,0,3.978-2.219,3.978-6.62v-15.93a17.564,17.564,0,0,0-.091-1.959,8.35,8.35,0,0,0-.338-1.8,5.026,5.026,0,0,0-.681-1.5,3.193,3.193,0,0,0-1.13-.968,4.383,4.383,0,0,0-3.465,0,2.859,2.859,0,0,0-1.136.968,4.562,4.562,0,0,0-.708,1.5,7.594,7.594,0,0,0-.3,1.8,13.671,13.671,0,0,0-.116,1.959V200a13.794,13.794,0,0,0,.2,2.414,8.123,8.123,0,0,0,.571,2.078,3.75,3.75,0,0,0,1.246,1.552A3.279,3.279,0,0,0,651.91,206.622Z" transform="translate(-642.615 -173.109)" fill="#707070"/>
      </g>
      <g id="Group_446" data-name="Group 446" transform="translate(22.287 0.344)">
        <path id="Path_1243" data-name="Path 1243" d="M672.085,210.562v-9.547H661.474v-5.889l9.267-21.725h6.62V196h4.108v5.012h-4.108v9.547ZM666.764,196h5.321V180.027Z" transform="translate(-661.474 -173.4)" fill="#707070"/>
      </g>
    </g>
    <text id="Request" transform="translate(566 2913)" fill="#21232a" font-size="20" font-family="HelveticaNeue-Bold, Helvetica Neue" font-weight="700"><tspan x="0.87" y="20">Request</tspan></text>
    <text id="In-Process" transform="translate(750 2913)" fill="#21232a" font-size="20" font-family="HelveticaNeue-Bold, Helvetica Neue" font-weight="700"><tspan x="0.84" y="20">In-Process</tspan></text>
    <text id="Review" transform="translate(970 2913)" fill="#21232a" font-size="20" font-family="HelveticaNeue-Bold, Helvetica Neue" font-weight="700"><tspan x="0.88" y="20">Review</tspan></text>
    <text id="Completed" transform="translate(1150 2914)" fill="#21232a" font-size="20" font-family="HelveticaNeue-Bold, Helvetica Neue" font-weight="700"><tspan x="4.62" y="20">Completed</tspan></text>
    <text id="Information_on_package_requests" data-name="Information on package requests" transform="translate(555 3033)" fill="#707070" font-size="14" font-family="HelveticaNeue, Helvetica Neue"><tspan x="0" y="13">Information </tspan><tspan x="0" y="28">on package </tspan><tspan x="0" y="43">requests</tspan></text>
    <text id="Lists_requests_that_are_being_worked_on" data-name="Lists requests that are being worked on" transform="translate(760 3027)" fill="#707070" font-size="14" font-family="HelveticaNeue, Helvetica Neue"><tspan x="0" y="13">Lists </tspan><tspan x="0" y="28">requests that </tspan><tspan x="0" y="43">are being </tspan><tspan x="0" y="58">worked on</tspan></text>
    <text id="Completed_requests_that_are_awaiting_approval" data-name="Completed requests that are awaiting approval" transform="translate(960 3027)" fill="#707070" font-size="14" font-family="HelveticaNeue, Helvetica Neue"><tspan x="0" y="13">Completed </tspan><tspan x="0" y="28">requests that </tspan><tspan x="0" y="43">are awaiting </tspan><tspan x="0" y="58">approval</tspan></text>
    <text id="Details_of_historical_package_requests" data-name="Details of historical package requests" transform="translate(1164 3027)" fill="#707070" font-size="14" font-family="HelveticaNeue, Helvetica Neue"><tspan x="0" y="13">Details of </tspan><tspan x="0" y="28">historical </tspan><tspan x="0" y="43">package </tspan><tspan x="0" y="58">requests</tspan></text>
    <g id="review-2" data-name="review" transform="translate(987 3063.524)">
      <path id="Path_4059" data-name="Path 4059" d="M35.2,73.537H11.159a.743.743,0,0,0,0,1.485H35.2a.743.743,0,0,1,.742.742V93.307a.743.743,0,0,1-.742.742h-13a.742.742,0,0,0-.583.282l-2.994,3.794-3.176-3.809a.743.743,0,0,0-.57-.267H2.227a.743.743,0,0,1-.742-.742V75.764a.743.743,0,0,1,.742-.742H5.052a.743.743,0,0,0,0-1.485H2.227A2.23,2.23,0,0,0,0,75.764V93.307a2.23,2.23,0,0,0,2.227,2.227h12.3l3.539,4.245a.747.747,0,0,0,1.153-.016l3.338-4.229H35.2a2.23,2.23,0,0,0,2.227-2.227V75.764A2.23,2.23,0,0,0,35.2,73.537Z" fill="#707070"/>
      <path id="Path_4060" data-name="Path 4060" d="M54.924,161.022a.742.742,0,0,0,.134.7L56.5,163.47l-.144,2.262c-.113,1.772,2.547-.11,3.121-.1s3.232,1.85,3.121.1l-.144-2.262,1.446-1.745a.753.753,0,0,0-.388-1.193l-2.2-.562-1.213-1.914a.753.753,0,0,0-1.254,0l-1.213,1.914-2.2.562A.742.742,0,0,0,54.924,161.022Zm3.371.313c.549-.14.91-1.059,1.186-1.5.272.429.643,1.356,1.186,1.5l1.346.345-.886,1.07a.742.742,0,0,0-.169.521l.088,1.386-1.291-.512a.743.743,0,0,0-.547,0l-1.291.512L58,163.27a.742.742,0,0,0-.169-.521l-.886-1.07Z" transform="translate(-50.813 -77.933)" fill="#707070"/>
      <path id="Path_4061" data-name="Path 4061" d="M198.341,161.021a.742.742,0,0,0-.522-.49l-2.2-.562-1.213-1.914a.753.753,0,0,0-1.254,0l-1.213,1.914-2.2.562a.742.742,0,0,0-.388,1.193l1.446,1.745-.144,2.262c-.113,1.772,2.547-.11,3.121-.1s3.232,1.85,3.121.1l-.144-2.262,1.446-1.745A.742.742,0,0,0,198.341,161.021Zm-2.911,1.728a.742.742,0,0,0-.169.521l.088,1.386a2.451,2.451,0,0,0-3.13,0l.088-1.386a.742.742,0,0,0-.169-.521l-.886-1.07,1.346-.345c.549-.14.91-1.059,1.186-1.5.272.429.643,1.356,1.186,1.5l1.346.345Z" transform="translate(-175.146 -77.932)" fill="#707070"/>
      <path id="Path_4062" data-name="Path 4062" d="M332.721,161.021a.742.742,0,0,0-.522-.49l-2.2-.562-1.213-1.914a.753.753,0,0,0-1.254,0l-1.213,1.914-2.2.562a.753.753,0,0,0-.388,1.193l1.445,1.745-.144,2.262c-.113,1.771,2.546-.11,3.121-.1s3.232,1.85,3.121.1l-.144-2.262,1.445-1.745A.742.742,0,0,0,332.721,161.021Zm-2.911,1.728a.742.742,0,0,0-.169.521l.088,1.386-1.291-.512a.743.743,0,0,0-.548,0l-1.291.512.088-1.386a.742.742,0,0,0-.169-.521l-.886-1.07,1.346-.345c.549-.14.91-1.059,1.186-1.5.272.429.643,1.356,1.186,1.5l1.346.345Z" transform="translate(-299.556 -77.932)" fill="#707070"/>
      <path id="Path_4063" data-name="Path 4063" d="M99.756,74.9a.742.742,0,1,0-.281-.884A.747.747,0,0,0,99.756,74.9Z" transform="translate(-92.046 -0.004)" fill="#707070"/>
    </g>
    <path id="check_1_" data-name="check (1)" d="M10.785,19.926a.973.973,0,0,0,.368.776,2.06,2.06,0,0,0,.606.342c.408.067,5.084.624,8.15.985l-.221,2.33c-2.388-.281-7.979-.943-8.3-1.009a3.864,3.864,0,0,1-1.417-.712,3.113,3.113,0,0,1-.695-.741l-.01.011L4.221,16.389a.976.976,0,0,0-1.486.015,1.269,1.269,0,0,0,.014,1.657l7.8,8.535a3.128,3.128,0,0,0,2.321,1.058H27.237V30H12.87a5.114,5.114,0,0,1-3.793-1.729l-7.8-8.535a3.807,3.807,0,0,1-.042-4.971A2.985,2.985,0,0,1,3.456,13.71a2.976,2.976,0,0,1,2.238,1.006l3.341,3.656a3.16,3.16,0,0,1,1.181-1.325A9.888,9.888,0,0,1,6.848,9.492C6.848,4.258,10.667,0,15.361,0a7.849,7.849,0,0,1,4.631,1.532L18.518,3.273a5.87,5.87,0,0,0-3.157-.929c-3.535,0-6.411,3.207-6.411,7.148s2.876,7.148,6.411,7.148c3.48,0,6.321-3.108,6.409-6.965l1.9-2.245a10.536,10.536,0,0,1,.2,2.062A9.935,9.935,0,0,1,20.786,16.8a11.72,11.72,0,0,1,5.365,2.436l1.086.866v2.882l-2.309-1.842a9.612,9.612,0,0,0-5.9-2.156H18.9l-7.271,0A.894.894,0,0,0,10.785,19.926ZM12.459,7l-1.448,1.7L15.6,13.553l8.517-10.06L22.584,1.885l-7.069,8.349Zm0,0" transform="translate(1195.513 3138.156)" fill="#707070"/>
    <g id="Group_2747" data-name="Group 2747" transform="translate(-676 270)">
      <g id="execution" transform="translate(1461 2868)">
        <g id="Group_2729" data-name="Group 2729" transform="translate(0 0)">
          <g id="Group_2728" data-name="Group 2728" transform="translate(0 0)">
            <path id="Path_4788" data-name="Path 4788" d="M14.881,6.275l-1.021-.45c-.046-.171-.1-.334-.152-.49l.567-.977a.585.585,0,0,0,0-.579,7.764,7.764,0,0,0-.995-1.391.581.581,0,0,0-.567-.18l-1.074.246q-.188-.15-.392-.289l-.1-1.137a.585.585,0,0,0-.337-.477A7.425,7.425,0,0,0,9.21.014.582.582,0,0,0,8.647.2l-.749.87h-.45L6.7.2A.581.581,0,0,0,6.135.014a7.433,7.433,0,0,0-1.6.538.585.585,0,0,0-.337.477l-.1,1.136c-.135.093-.267.189-.392.289L2.626,2.209a.58.58,0,0,0-.567.18,7.751,7.751,0,0,0-.995,1.391.585.585,0,0,0,0,.579l.567.977c-.056.157-.106.319-.152.49l-1.021.45a.585.585,0,0,0-.348.535V8.4a.585.585,0,0,0,.348.535l1.021.45c.046.171.1.334.152.49l-.567.977a.585.585,0,0,0,0,.579,7.764,7.764,0,0,0,.995,1.391.582.582,0,0,0,.567.18L3.7,12.754q.188.15.392.289l.1,1.137a.585.585,0,0,0,.337.477,7.425,7.425,0,0,0,1.6.538A.583.583,0,0,0,6.7,15l.749-.87H7.9l.749.87a.584.584,0,0,0,.443.2.571.571,0,0,0,.12-.013,7.433,7.433,0,0,0,1.6-.538.585.585,0,0,0,.337-.477l.1-1.136c.135-.093.267-.189.392-.289L12.718,13a.582.582,0,0,0,.567-.18,7.751,7.751,0,0,0,.995-1.391.585.585,0,0,0,0-.579l-.567-.977c.056-.157.106-.319.152-.49l1.021-.45a.585.585,0,0,0,.348-.535V6.81A.584.584,0,0,0,14.881,6.275ZM14.06,8.018l-.934.412a.586.586,0,0,0-.334.4,5.375,5.375,0,0,1-.271.868.585.585,0,0,0,.034.517l.535.922a6.631,6.631,0,0,1-.457.639l-1.011-.231a.58.58,0,0,0-.518.131,5.337,5.337,0,0,1-.717.531.584.584,0,0,0-.274.444l-.1,1.073a6.469,6.469,0,0,1-.715.243l-.692-.8a.585.585,0,0,0-.443-.2H7.179a.585.585,0,0,0-.443.2l-.692.8a6.478,6.478,0,0,1-.716-.243l-.1-1.074a.585.585,0,0,0-.274-.443,5.271,5.271,0,0,1-.717-.53.58.58,0,0,0-.518-.131l-1.011.231a6.644,6.644,0,0,1-.457-.639l.535-.922A.586.586,0,0,0,2.823,9.7a5.375,5.375,0,0,1-.271-.868.586.586,0,0,0-.334-.4l-.934-.412V7.191l.934-.412a.586.586,0,0,0,.334-.4,5.375,5.375,0,0,1,.271-.868.585.585,0,0,0-.034-.517l-.535-.922a6.63,6.63,0,0,1,.457-.639l1.011.231a.582.582,0,0,0,.518-.131A5.337,5.337,0,0,1,4.957,3a.584.584,0,0,0,.274-.444l.1-1.073a6.469,6.469,0,0,1,.715-.243l.692.8a.585.585,0,0,0,.443.2h.986a.586.586,0,0,0,.443-.2l.692-.8a6.478,6.478,0,0,1,.716.243l.1,1.074A.585.585,0,0,0,10.388,3a5.272,5.272,0,0,1,.717.53.582.582,0,0,0,.518.131l1.011-.231a6.631,6.631,0,0,1,.457.639l-.535.922a.586.586,0,0,0-.034.517,5.375,5.375,0,0,1,.271.868.586.586,0,0,0,.334.4l.934.412v.827Z" transform="translate(-0.115 -0.001)" fill="#707070"/>
          </g>
        </g>
        <g id="Group_2731" data-name="Group 2731" transform="translate(3.463 3.509)">
          <g id="Group_2730" data-name="Group 2730">
            <path id="Path_4789" data-name="Path 4789" d="M51.585,48.005A4.094,4.094,0,1,0,55.679,52.1,4.094,4.094,0,0,0,51.585,48.005Zm0,7.018A2.924,2.924,0,1,1,54.509,52.1,2.924,2.924,0,0,1,51.585,55.023Z" transform="translate(-47.491 -48.005)" fill="#707070"/>
          </g>
        </g>
        <g id="Group_2733" data-name="Group 2733" transform="translate(22.215 0)">
          <g id="Group_2732" data-name="Group 2732" transform="translate(0 0)">
            <path id="Path_4790" data-name="Path 4790" d="M316.449,5.236l-.808-.356c-.031-.113-.066-.222-.1-.327l.45-.776a.587.587,0,0,0,0-.579,6.606,6.606,0,0,0-.842-1.176.581.581,0,0,0-.566-.18l-.85.194q-.125-.1-.257-.19l-.082-.9a.584.584,0,0,0-.337-.477A6.331,6.331,0,0,0,311.7.012.581.581,0,0,0,311.14.2l-.6.691h-.286l-.6-.691A.58.58,0,0,0,309.1.012a6.33,6.33,0,0,0-1.356.455.584.584,0,0,0-.337.477l-.082.9q-.132.092-.257.19l-.85-.194a.582.582,0,0,0-.566.18,6.567,6.567,0,0,0-.841,1.177.585.585,0,0,0,0,.579l.45.775q-.055.158-.1.328l-.808.356a.584.584,0,0,0-.349.535V7.095a.584.584,0,0,0,.349.535l.808.356c.031.113.066.222.1.327l-.45.776a.587.587,0,0,0,0,.579,6.608,6.608,0,0,0,.842,1.176.582.582,0,0,0,.567.18l.849-.195c.083.066.17.129.258.19l.082.9a.584.584,0,0,0,.337.477,6.331,6.331,0,0,0,1.356.455.583.583,0,0,0,.563-.191l.6-.691h.286l.6.691a.584.584,0,0,0,.443.2.571.571,0,0,0,.12-.013,6.327,6.327,0,0,0,1.356-.455.584.584,0,0,0,.337-.477l.082-.9q.132-.092.257-.19l.85.194a.582.582,0,0,0,.566-.18,6.609,6.609,0,0,0,.842-1.176.587.587,0,0,0,0-.579l-.45-.776c.037-.106.071-.214.1-.327l.808-.356a.584.584,0,0,0,.349-.535V5.771A.584.584,0,0,0,316.449,5.236Zm-.821,1.478-.72.318a.583.583,0,0,0-.334.406,4.368,4.368,0,0,1-.22.705.586.586,0,0,0,.034.518l.416.717q-.141.219-.3.427l-.784-.179a.579.579,0,0,0-.517.131,4.33,4.33,0,0,1-.584.431.586.586,0,0,0-.275.444l-.076.835c-.157.062-.315.115-.472.16l-.536-.622a.585.585,0,0,0-.443-.2h-.821a.585.585,0,0,0-.443.2l-.536.622c-.157-.045-.315-.1-.472-.16l-.076-.835a.585.585,0,0,0-.275-.444,4.291,4.291,0,0,1-.583-.431.588.588,0,0,0-.518-.132l-.783.179c-.109-.138-.211-.28-.3-.427l.416-.717a.587.587,0,0,0,.034-.518,4.368,4.368,0,0,1-.22-.705.583.583,0,0,0-.334-.406l-.72-.318V6.152l.72-.318a.583.583,0,0,0,.334-.406,4.4,4.4,0,0,1,.22-.706.586.586,0,0,0-.034-.517L306,3.487c.094-.146.2-.288.3-.427l.784.179a.582.582,0,0,0,.517-.131,4.329,4.329,0,0,1,.584-.431.586.586,0,0,0,.275-.444l.076-.835c.157-.062.315-.115.472-.16l.536.622a.585.585,0,0,0,.443.2h.821a.585.585,0,0,0,.443-.2l.536-.622c.157.045.315.1.472.16l.076.835a.585.585,0,0,0,.275.444,4.332,4.332,0,0,1,.584.431.58.58,0,0,0,.517.131l.784-.179q.164.207.3.427l-.416.717a.587.587,0,0,0-.034.518,4.371,4.371,0,0,1,.22.705.583.583,0,0,0,.334.406l.72.318Z" transform="translate(-304.007 0.001)" fill="#707070"/>
          </g>
        </g>
        <g id="Group_2735" data-name="Group 2735" transform="translate(25.687 3.509)">
          <g id="Group_2734" data-name="Group 2734">
            <path id="Path_4791" data-name="Path 4791" d="M354.415,48.005a2.924,2.924,0,1,0,2.924,2.924A2.924,2.924,0,0,0,354.415,48.005Zm0,4.679a1.754,1.754,0,1,1,1.754-1.754A1.754,1.754,0,0,1,354.415,52.684Z" transform="translate(-351.491 -48.005)" fill="#707070"/>
          </g>
        </g>
        <g id="Group_2737" data-name="Group 2737" transform="translate(17.566 17.612)">
          <g id="Group_2736" data-name="Group 2736">
            <path id="Path_4792" data-name="Path 4792" d="M257.349,248.052l-.848-.178c-.035-.147-.074-.294-.118-.439l.65-.583a.584.584,0,0,0,.148-.665,8.789,8.789,0,0,0-1.074-1.84.587.587,0,0,0-.65-.2l-.817.268c-.1-.11-.212-.218-.322-.322l.268-.817a.585.585,0,0,0-.2-.649,8.752,8.752,0,0,0-1.841-1.075.588.588,0,0,0-.665.148l-.583.65c-.146-.045-.292-.084-.439-.119l-.178-.848a.585.585,0,0,0-.572-.464h-1.994a.585.585,0,0,0-.572.464l-.178.848c-.147.035-.294.074-.439.118l-.583-.65a.587.587,0,0,0-.665-.148,8.788,8.788,0,0,0-1.84,1.074.585.585,0,0,0-.2.65l.268.817c-.11.1-.218.212-.322.322l-.817-.268a.588.588,0,0,0-.649.2,8.753,8.753,0,0,0-1.075,1.841.584.584,0,0,0,.148.665l.65.583c-.045.146-.084.292-.119.439l-.848.178a.585.585,0,0,0-.464.572v1.994a.585.585,0,0,0,.464.572l.848.178c.035.147.074.294.118.439l-.65.583a.585.585,0,0,0-.148.665,8.788,8.788,0,0,0,1.074,1.84.587.587,0,0,0,.65.2l.817-.268c.1.11.212.218.322.322l-.268.817a.585.585,0,0,0,.2.649,8.753,8.753,0,0,0,1.841,1.075.583.583,0,0,0,.665-.148l.583-.65c.146.044.292.084.439.119l.178.848a.585.585,0,0,0,.572.464H250.1a.585.585,0,0,0,.572-.464l.178-.848c.147-.035.294-.074.439-.118l.583.65a.583.583,0,0,0,.665.148,8.788,8.788,0,0,0,1.84-1.074.585.585,0,0,0,.2-.65l-.268-.817c.11-.1.218-.212.322-.322l.817.268a.587.587,0,0,0,.649-.2,8.752,8.752,0,0,0,1.075-1.841.584.584,0,0,0-.148-.665l-.65-.583c.045-.146.084-.292.119-.439l.848-.178a.585.585,0,0,0,.464-.572v-1.994A.585.585,0,0,0,257.349,248.052Zm-.705,2.092-.757.159a.585.585,0,0,0-.455.468,6.363,6.363,0,0,1-.275,1.019.584.584,0,0,0,.16.633l.613.549a7.682,7.682,0,0,1-.517.881l-.773-.254a.587.587,0,0,0-.629.178,6.389,6.389,0,0,1-.748.749.586.586,0,0,0-.177.629l.254.772a7.634,7.634,0,0,1-.881.517l-.55-.613a.588.588,0,0,0-.634-.16,6.3,6.3,0,0,1-1.018.275.585.585,0,0,0-.468.455l-.159.757h-1.045l-.159-.757a.585.585,0,0,0-.468-.455,6.362,6.362,0,0,1-1.019-.275h0a.589.589,0,0,0-.633.16l-.549.613a7.689,7.689,0,0,1-.881-.517l.254-.773a.586.586,0,0,0-.178-.629,6.388,6.388,0,0,1-.749-.748.587.587,0,0,0-.629-.177l-.772.254a7.633,7.633,0,0,1-.517-.881l.613-.55a.585.585,0,0,0,.16-.634,6.3,6.3,0,0,1-.275-1.018.585.585,0,0,0-.455-.468l-.757-.159V249.1l.757-.159a.585.585,0,0,0,.455-.468,6.36,6.36,0,0,1,.275-1.019.584.584,0,0,0-.16-.633l-.613-.549a7.681,7.681,0,0,1,.517-.881l.773.254a.587.587,0,0,0,.629-.178,6.388,6.388,0,0,1,.748-.749.586.586,0,0,0,.177-.629l-.254-.772a7.636,7.636,0,0,1,.881-.517l.55.613a.587.587,0,0,0,.634.16,6.3,6.3,0,0,1,1.018-.275.585.585,0,0,0,.468-.455l.159-.757h1.045l.159.757a.585.585,0,0,0,.468.455,6.36,6.36,0,0,1,1.019.275.585.585,0,0,0,.633-.16l.549-.613a7.68,7.68,0,0,1,.881.517l-.254.773a.586.586,0,0,0,.178.629,6.387,6.387,0,0,1,.749.748.59.59,0,0,0,.629.177l.772-.254a7.638,7.638,0,0,1,.517.881l-.613.55a.585.585,0,0,0-.16.634,6.3,6.3,0,0,1,.275,1.018.585.585,0,0,0,.455.468l.757.159Z" transform="translate(-240.402 -240.916)" fill="#707070"/>
          </g>
        </g>
        <g id="Group_2739" data-name="Group 2739" transform="translate(21.008 21.054)">
          <g id="Group_2738" data-name="Group 2738">
            <path id="Path_4793" data-name="Path 4793" d="M292.754,288.005a5.263,5.263,0,1,0,5.263,5.263A5.263,5.263,0,0,0,292.754,288.005Zm0,9.357a4.094,4.094,0,1,1,4.094-4.094A4.1,4.1,0,0,1,292.754,297.362Z" transform="translate(-287.491 -288.005)" fill="#707070"/>
          </g>
        </g>
        <g id="Group_2741" data-name="Group 2741" transform="translate(16.329 6.433)">
          <g id="Group_2740" data-name="Group 2740">
            <rect id="Rectangle_871" data-name="Rectangle 871" width="4.679" height="1.17" fill="#707070"/>
          </g>
        </g>
        <g id="Group_2743" data-name="Group 2743" transform="translate(2.879 15.791)">
          <g id="Group_2742" data-name="Group 2742">
            <path id="Path_4794" data-name="Path 4794" d="M52.895,225.716a.584.584,0,0,0-.308-.308h0l-4.094-1.754a.584.584,0,0,0-.815.537v1.17H40.661V216h-1.17v9.942a.584.584,0,0,0,.584.585h7.6v1.17a.584.584,0,0,0,.584.585h0a.576.576,0,0,0,.23-.047l4.094-1.754A.584.584,0,0,0,52.895,225.716Zm-4.047,1.1v-1.735l2.024.867Z" transform="translate(-39.491 -216.004)" fill="#707070"/>
          </g>
        </g>
        <g id="Group_2745" data-name="Group 2745" transform="translate(23.519 24.188)">
          <g id="Group_2744" data-name="Group 2744">
            <path id="Path_4795" data-name="Path 4795" d="M326.477,330.88l-2.514,3.017-1.3-1.3-.827.827,1.754,1.754a.583.583,0,0,0,.413.171h.026a.586.586,0,0,0,.423-.21l2.924-3.509Z" transform="translate(-321.834 -330.88)" fill="#707070"/>
          </g>
        </g>
      </g>
    </g>
    <g id="Group_2746" data-name="Group 2746" transform="translate(-945.332 148.311)">
      <path id="Path_4801" data-name="Path 4801" d="M12.046,34.689a.548.548,0,0,1-.428-.205L9.593,31.951H1.64A1.642,1.642,0,0,1,0,30.311V22.64A1.642,1.642,0,0,1,1.64,21h12.05a1.642,1.642,0,0,1,1.641,1.64v7.67a1.642,1.642,0,0,1-1.64,1.64h-1.1v2.19a.549.549,0,0,1-.548.548ZM1.64,22.1a.546.546,0,0,0-.545.545v7.67a.546.546,0,0,0,.545.545H9.856a.548.548,0,0,1,.428.205L11.5,32.58V31.4a.547.547,0,0,1,.548-.548h1.645a.546.546,0,0,0,.545-.545V22.64a.546.546,0,0,0-.545-.545Z" transform="translate(1529 2962)" fill="#707070" stroke="#fff" stroke-width="0.1"/>
      <path id="Path_4802" data-name="Path 4802" d="M11.118,27.1H4.548a.548.548,0,1,1,0-1.1h6.571a.548.548,0,1,1,0,1.1Z" transform="translate(1527.19 2959.738)" fill="#707070" stroke="#fff" stroke-width="0.1"/>
      <path id="Path_4803" data-name="Path 4803" d="M21.643,27.1h-1.1a.548.548,0,0,1,0-1.1h1.1a.548.548,0,0,1,0,1.1Z" transform="translate(1519.951 2959.738)" fill="#707070" stroke="#fff" stroke-width="0.1"/>
      <path id="Path_4804" data-name="Path 4804" d="M11.118,35.1H4.548a.548.548,0,1,1,0-1.1h6.571a.548.548,0,1,1,0,1.1Z" transform="translate(1527.19 2956.118)" fill="#707070" stroke="#fff" stroke-width="0.1"/>
      <path id="Path_4805" data-name="Path 4805" d="M21.643,35.1h-1.1a.548.548,0,0,1,0-1.1h1.1a.548.548,0,0,1,0,1.1Z" transform="translate(1519.951 2956.118)" fill="#707070" stroke="#fff" stroke-width="0.1"/>
      <path id="Path_4806" data-name="Path 4806" d="M17.118,31.1H10.548a.548.548,0,1,1,0-1.1h6.571a.548.548,0,1,1,0,1.1Z" transform="translate(1524.476 2957.928)" fill="#707070" stroke="#fff" stroke-width="0.1"/>
      <path id="Path_4807" data-name="Path 4807" d="M5.643,31.1h-1.1a.548.548,0,1,1,0-1.1h1.1a.548.548,0,1,1,0,1.1Z" transform="translate(1527.19 2957.928)" fill="#707070" stroke="#fff" stroke-width="0.1"/>
    </g>
    <g id="box_2_" data-name="box (2)" transform="translate(571.84 3147.512)">
      <g id="Group_2749" data-name="Group 2749" transform="translate(16.032 -0.001)">
        <g id="Group_2748" data-name="Group 2748" transform="translate(0 0)">
          <path id="Path_4808" data-name="Path 4808" d="M37.9,5.193,27.214.034a.345.345,0,0,0-.3,0L16.227,5.193a.345.345,0,0,0-.195.31V18.033a.345.345,0,0,0,.195.31L26.914,23.5a.345.345,0,0,0,.3,0L37.9,18.343a.345.345,0,0,0,.195-.31V5.5A.345.345,0,0,0,37.9,5.193ZM27.064.727,36.957,5.5,34.089,6.888a.342.342,0,0,0-.058-.037L24.2,2.107ZM23.426,2.5l9.879,4.769-2.023.977L21.406,3.476ZM33.536,7.921v3.611l-1.89.912V8.833Zm3.869,9.9-10,4.826V10.879l2.385-1.151a.345.345,0,0,0-.3-.621l-2.43,1.173-.956-.462a.345.345,0,0,0-.3.621l.911.44V22.643l-10-4.826V6.053l7.613,3.675a.345.345,0,0,0,.3-.621L17.17,5.5,20.595,3.85l10.357,5,0,.006v4.137a.345.345,0,0,0,.495.31l2.58-1.245a.345.345,0,0,0,.195-.31V7.588l3.18-1.535Z" transform="translate(-16.032 0.001)" fill="#707070"/>
        </g>
      </g>
      <g id="Group_2751" data-name="Group 2751" transform="translate(17.504 15.688)">
        <g id="Group_2750" data-name="Group 2750" transform="translate(0)">
          <path id="Path_4809" data-name="Path 4809" d="M50.111,342.053l-1.568-.757a.345.345,0,1,0-.3.621l1.568.757a.345.345,0,0,0,.3-.621Z" transform="translate(-48.048 -341.261)" fill="#707070"/>
        </g>
      </g>
      <g id="Group_2753" data-name="Group 2753" transform="translate(17.506 14.053)">
        <g id="Group_2752" data-name="Group 2752">
          <path id="Path_4810" data-name="Path 4810" d="M51.6,307.178l-3.01-1.453a.345.345,0,0,0-.3.621L51.3,307.8a.345.345,0,0,0,.3-.621Z" transform="translate(-48.096 -305.69)" fill="#707070"/>
        </g>
      </g>
    </g>
  </g>
</svg>
