<svg xmlns="http://www.w3.org/2000/svg" width="1302.456" height="290.751" viewBox="0 0 1302.456 290.751">
  <g id="Group_2757" data-name="Group 2757" transform="translate(-283.5 -2405.5)">
    <text id="Cluster_In-charge" data-name="Cluster
In-charge" transform="translate(882 2414)" fill="#21232a" font-size="20" font-family="HelveticaNeue-Bold, Helvetica Neue" font-weight="700"><tspan x="50.56" y="20">Cluster</tspan><tspan x="39.18" y="45">In-charge</tspan></text>
    <text id="Main_Purpose" data-name="Main
Purpose" transform="translate(294.5 2509)" fill="#21232a" font-size="20" font-family="HelveticaNeue-Bold, Helvetica Neue" font-weight="700"><tspan x="50.36" y="20">Main</tspan><tspan x="17.36" y="45">Purpose</tspan></text>
    <text id="Example_Use_Case" data-name="Example
Use Case" transform="translate(283.5 2620)" fill="#21232a" font-size="20" font-family="HelveticaNeue-Bold, Helvetica Neue" font-weight="700"><tspan x="25.84" y="20">Example</tspan><tspan x="16.88" y="45">Use Case</tspan></text>
    <text id="State_In-carge" data-name="State
In-carge" transform="translate(1112.5 2414)" fill="#21232a" font-size="20" font-family="HelveticaNeue-Bold, Helvetica Neue" font-weight="700"><tspan x="59.99" y="20">State</tspan><tspan x="45.11" y="45">In-carge</tspan></text>
    <line id="Line_123" data-name="Line 123" y2="290.751" transform="translate(857 2405.5)" fill="none" stroke="#707070" stroke-width="1" opacity="0.2"/>
    <line id="Line_125" data-name="Line 125" y2="290.751" transform="translate(637 2405.5)" fill="none" stroke="#707070" stroke-width="1" opacity="0.2"/>
    <text id="CSA" transform="translate(711.5 2414)" fill="#21232a" font-size="20" font-family="HelveticaNeue-Bold, Helvetica Neue" font-weight="700"><tspan x="15.25" y="20">CSA</tspan></text>
    <line id="Line_126" data-name="Line 126" y2="290.751" transform="translate(416 2405.5)" fill="none" stroke="#707070" stroke-width="1" opacity="0.2"/>
    <line id="Line_124" data-name="Line 124" x1="1042" transform="translate(283.5 2578.5)" fill="none" stroke="#707070" stroke-width="1" opacity="0.2"/>
    <text id="To_implement_package_changes_requested_by_customers" data-name="To implement package changes requested by customers" transform="translate(432.5 2500)" fill="#707070" font-size="14" font-family="HelveticaNeue, Helvetica Neue"><tspan x="24.195" y="13">To implement package </tspan><tspan x="25.497" y="29">changes requested by </tspan><tspan x="62.065" y="45">customers</tspan></text>
    <text id="To_register_and_view_package_change_requests" data-name="To register and view package change requests" transform="translate(643.5 2500)" fill="#707070" font-size="14" font-family="HelveticaNeue, Helvetica Neue"><tspan x="12.867" y="13">To register and view package </tspan><tspan x="52.004" y="29">change requests</tspan></text>
    <text id="To_check_the_number_of_requests_and_assign_to_field_personnel" data-name="To check the number of requests and assign to field personnel" transform="translate(870 2500)" fill="#707070" font-size="14" font-family="HelveticaNeue, Helvetica Neue"><tspan x="23.713" y="13">To check the number of </tspan><tspan x="11.407" y="29">requests and assign to field </tspan><tspan x="66.644" y="45">personnel</tspan></text>
    <text id="Reviewing_the_list_of_customers_who_require_up_downgrades_to_their_connection" data-name="Reviewing the list of customers who require up/downgrades to their connection" transform="translate(427.5 2609)" fill="#707070" font-size="14" font-family="HelveticaNeue, Helvetica Neue"><tspan x="1.885" y="13">Reviewing the list of customers </tspan><tspan x="3.439" y="29">who require up/downgrades to </tspan><tspan x="49.065" y="45">their connection</tspan></text>
    <text id="Registering_a_change_on_behalf_of_a_customer_who_isn_t_using_the_customer_smartphone_app" data-name="Registering a change on behalf of a customer who isn’t using the customer smartphone app" transform="translate(645.5 2609)" fill="#707070" font-size="14" font-family="HelveticaNeue, Helvetica Neue"><tspan x="5.396" y="13">Registering a change on behalf </tspan><tspan x="10.443" y="29">of a customer who isn’t using </tspan><tspan x="7.832" y="45">the customer smartphone app</tspan></text>
    <text id="Notifying_a_field_agent_that_they_are_responsible_for_following_up_with_the_customer" data-name="Notifying a field agent that they are responsible for following up with the customer" transform="translate(864 2609)" fill="#707070" font-size="14" font-family="HelveticaNeue, Helvetica Neue"><tspan x="6.004" y="13">Notifying a field agent that they </tspan><tspan x="5.5" y="29">are responsible for following up </tspan><tspan x="47.36" y="45">with the customer</tspan></text>
    <line id="Line_122" data-name="Line 122" y2="290.751" transform="translate(1078 2405.5)" fill="none" stroke="#707070" stroke-width="1" opacity="0.2"/>
    <text id="Technician" transform="translate(455.5 2414)" fill="#21232a" font-size="20" font-family="HelveticaNeue-Bold, Helvetica Neue" font-weight="700"><tspan x="20.59" y="20">Technician</tspan></text>
    <text id="To_check_the_number_of_requests_at_plants_in_the_state" data-name="To check the number of requests at plants in the state" transform="translate(1099.5 2500)" fill="#707070" font-size="14" font-family="HelveticaNeue, Helvetica Neue"><tspan x="23.713" y="13">To check the number of </tspan><tspan x="5.044" y="29">requests at plants in the state</tspan></text>
    <text id="Checking_how_many_package_change_requests_are_pending_and_at_which_plants" data-name="Checking how many package change requests are pending and at which plants" transform="translate(1093.5 2609)" fill="#707070" font-size="14" font-family="HelveticaNeue, Helvetica Neue"><tspan x="10.925" y="13">Checking how many package </tspan><tspan x="12.472" y="29">change requests are pending </tspan><tspan x="42.432" y="45">and at which plants</tspan></text>
    <g id="Group_2756" data-name="Group 2756" transform="translate(-100)">
      <g id="Group_2755" data-name="Group 2755" transform="translate(-60)">
        <path id="Path_4812" data-name="Path 4812" d="M939.755,688.163c.9-1.657-.12-3.687-1.287-5.166s-2.589-3.007-2.559-4.9c.042-2.706,2.914-4.3,5.212-5.738A25.5,25.5,0,0,0,945.8,668.6a6.852,6.852,0,0,0,1.44-1.925,7.854,7.854,0,0,0,.43-3.422q-.15-5.792-.571-11.572" transform="translate(737.885 1945.915)" fill="none" stroke="#3f3d56" stroke-miterlimit="10" stroke-width="4"/>
        <path id="Path_4813" data-name="Path 4813" d="M967.993,641.637a4.228,4.228,0,0,0-2.105-3.458l-.944,1.87.027-2.261a4.22,4.22,0,1,0,3.007,3.849Z" transform="translate(721.352 1955.753)" fill="#57b793"/>
        <path id="Path_4814" data-name="Path 4814" d="M944.1,731.729a4.21,4.21,0,1,1,.2-3.4l-2.634,2.144,2.9-.674A4.21,4.21,0,0,1,944.1,731.729Z" transform="translate(737.721 1894.23)" fill="#57b793"/>
        <path id="Path_4815" data-name="Path 4815" d="M945.4,699.084a4.21,4.21,0,0,1-4.409-4.021,4.149,4.149,0,0,1,.364-1.922,4.228,4.228,0,0,1,2.707-2.34l-.021,1.741.956-1.895h0a4.222,4.222,0,1,1,.394,8.435Z" transform="translate(734.337 1918.668)" fill="#57b793"/>
        <path id="Path_4816" data-name="Path 4816" d="M979.468,676.408a4.215,4.215,0,1,1,1.864-7.885l-.746,2.045,1.534-1.474a4.21,4.21,0,0,1,1.365,2.914,4.113,4.113,0,0,1-.108,1.161,4.21,4.21,0,0,1-3.909,3.239Z" transform="translate(710.511 1934.515)" fill="#57b793"/>
        <path id="Path_4817" data-name="Path 4817" d="M967.534,648.106c-.974.108-1.922.412-2.9.472a3.155,3.155,0,0,1-2.67-.935,13.367,13.367,0,0,1-.782-1.371,3.007,3.007,0,0,0-1.062-1,4.21,4.21,0,1,0,7.891,2.8C967.85,648.079,967.69,648.091,967.534,648.106Z" transform="translate(721.242 1950.397)" opacity="0.1"/>
        <path id="Path_4818" data-name="Path 4818" d="M979.444,682.014A4.21,4.21,0,0,1,975.429,676a3.127,3.127,0,0,1,.848.851,13.586,13.586,0,0,0,.836,1.4,3.442,3.442,0,0,0,2.8.977c1.019-.048,2-.334,3.007-.427.138,0,.283-.024.424-.027A4.21,4.21,0,0,1,979.444,682.014Z" transform="translate(710.535 1928.909)" opacity="0.1"/>
        <path id="Path_4819" data-name="Path 4819" d="M945.4,704.892a4.21,4.21,0,0,1-4.409-4.021,4.149,4.149,0,0,1,.364-1.922,3.462,3.462,0,0,1,.9.857c.328.463.532,1,.9,1.422a3.9,3.9,0,0,0,2.989,1.047c1.08-.027,2.051-.28,3.091-.358A4.228,4.228,0,0,1,945.4,704.892Z" transform="translate(734.337 1912.86)" opacity="0.1"/>
        <path id="Path_4820" data-name="Path 4820" d="M943.831,737.958a4.218,4.218,0,1,1-7.7-3.458,4.38,4.38,0,0,1,.926.827,16.636,16.636,0,0,0,1.131,1.5,5.253,5.253,0,0,0,3.494,1.227,18.1,18.1,0,0,0,2.144-.1Z" transform="translate(737.986 1888.001)" opacity="0.1"/>
        <path id="Path_4821" data-name="Path 4821" d="M927.54,762.462s3.329-.1,4.333-.818,5.112-1.57,5.374-.421,5.007,5.714,1.245,5.732-8.739-.6-9.74-1.2S927.54,762.462,927.54,762.462Z" transform="translate(743.737 1869.707)" fill="#656380"/>
        <path id="Path_4822" data-name="Path 4822" d="M938.558,770.715c-3.759.03-8.739-.6-9.74-1.2-.761-.463-1.068-2.132-1.167-2.9h-.111s.21,2.685,1.2,3.308,5.978,1.227,9.74,1.2c1.086,0,1.461-.4,1.44-.968C939.782,770.492,939.367,770.709,938.558,770.715Z" transform="translate(743.737 1865.547)" opacity="0.2"/>
      </g>
      <path id="Path_4811" data-name="Path 4811" d="M748.889,223.641l2.246-1.386c.214-.135.424-.28.641-.415a21.456,21.456,0,0,1-17.8-20.148,21.233,21.233,0,0,1,1.852-9.773,21.492,21.492,0,0,1,13.776-11.884l-.111,8.841,4.857-9.623a.193.193,0,0,1,.06,0,21.453,21.453,0,0,1,22.431,20.431c.018.409,0,.812,0,1.2a25.647,25.647,0,0,0,4.24-6.258c2.057-4.586,2.105-9.779,1.934-16.092-.325-12.51-.863-25.113-1.567-37.68a21.441,21.441,0,0,1-19.051-20.3c-.03-.659-.021-1.305,0-1.949a3.226,3.226,0,0,1,.024-.481c.042-.622.1-1.239.2-1.846a1.754,1.754,0,0,1,.054-.3q.132-.773.316-1.528c.048-.186.093-.376.144-.562a16.272,16.272,0,0,1,.508-1.618c.063-.177.138-.349.2-.523.153-.391.319-.776.493-1.158.093-.2.183-.4.283-.6.024-.051.045-.1.072-.153h0a21.438,21.438,0,0,1,25.188-10.88l-.144,11.506,4.812-9.5a21.321,21.321,0,0,1,10.224,23.116h.024c-.033.153-.081.3-.117.451-.066.283-.138.562-.216.842-.1.358-.217.71-.334,1.062-.09.262-.177.529-.277.788-.144.379-.3.749-.475,1.119-.1.217-.183.436-.3.65q-.412.83-.9,1.624c-.111.183-.238.358-.355.541-.229.355-.46.707-.71,1.05-.153.21-.319.412-.481.619-.235.3-.475.6-.725.875-.177.2-.358.4-.544.6-.262.277-.532.544-.812.809-.183.177-.37.355-.562.523-.316.28-.647.547-.98.809-.168.132-.331.271-.505.4q-.761.565-1.573,1.062c-.1.06-.21.111-.3.171-.451.268-.9.517-1.386.752-.2.1-.412.186-.62.28-.388.174-.779.343-1.179.5-.232.087-.469.168-.707.25-.394.135-.794.259-1.2.37-.241.066-.478.132-.722.189-.439.105-.887.192-1.338.268a.153.153,0,0,0-.087.018q.445,7.951.791,15.911a21.441,21.441,0,0,1,29.771-9.307l-3.792,10.39,7.8-7.491a21.393,21.393,0,0,1,6.917,14.813,20.994,20.994,0,0,1-.544,5.909,21.444,21.444,0,0,1-39.445,5.843c0,.538.039,1.08.054,1.618.141,5.569.319,12.5-2.457,18.687-1.88,4.2-4.908,7.6-7.9,10.655-1.946,1.988-3.964,3.909-6.032,5.771a21.453,21.453,0,0,1-7.747,6.441q-5.1,3.927-10.555,7.356l-2.21,1.425c-2.042,1.266-4.135,2.565-6.189,3.909.361-.036.719-.075,1.086-.09A21.462,21.462,0,0,1,768.056,246.5L754.65,257.409l14.735-3.419a21.462,21.462,0,0,1-30.758,19.321c.331.415.665.827,1,1.239.659.821,1.314,1.636,1.955,2.445,8.721,11.045,11.151,21.535,6.829,29.531l-5.251-2.839c4.21-7.783-2.105-17.742-6.264-22.993-.629-.794-1.272-1.594-1.922-2.406-5.572-6.917-11.887-14.771-11.728-24.4C723.469,239.4,737.569,230.654,748.889,223.641Z" transform="translate(846.6 2333.035)" fill="#f2f2f2"/>
      <ellipse id="Ellipse_418" data-name="Ellipse 418" cx="127.978" cy="7.315" rx="127.978" ry="7.315" transform="translate(1430 2630.118)" fill="#f2f2f2"/>
      <path id="Path_4823" data-name="Path 4823" d="M274.7,535.331c-2.183-4.042.3-8.992,3.14-12.594s6.315-7.35,6.24-11.942c-.108-6.6-7.109-10.492-12.7-13.99a62.035,62.035,0,0,1-11.406-9.169,16.66,16.66,0,0,1-3.506-4.694c-1.155-2.58-1.125-5.512-1.05-8.339q.361-14.134,1.4-28.214" transform="translate(1213.76 2089.47)" fill="none" stroke="#3f3d56" stroke-miterlimit="10" stroke-width="4"/>
      <path id="Path_4824" data-name="Path 4824" d="M224.734,421.892a10.288,10.288,0,0,1,5.136-8.42l2.3,4.556-.069-5.515a10.291,10.291,0,1,1-7.371,9.388Z" transform="translate(1235.203 2113.454)" fill="#57b793"/>
      <path id="Path_4825" data-name="Path 4825" d="M283.137,641.422a10.285,10.285,0,0,0,19.423-4.21,10.152,10.152,0,0,0-.671-4.174,10.291,10.291,0,0,0-19.246.111l6.426,5.227L282,636.73A10.173,10.173,0,0,0,283.137,641.422Z" transform="translate(1195.15 1963.559)" fill="#57b793"/>
      <path id="Path_4826" data-name="Path 4826" d="M279.889,561.991a10.291,10.291,0,0,0,3.263-20.184l.054,4.237-2.316-4.61h-.027a10.291,10.291,0,0,0-.959,20.56Z" transform="translate(1203.477 2023.016)" fill="#57b793"/>
      <path id="Path_4827" data-name="Path 4827" d="M196.777,506.719a10.291,10.291,0,1,0-4.547-19.246l1.8,4.983-3.726-3.6a10.242,10.242,0,0,0-3.338,7.1,10.035,10.035,0,0,0,.262,2.833,10.288,10.288,0,0,0,9.545,7.927Z" transform="translate(1261.611 2061.667)" fill="#57b793"/>
      <path id="Path_4828" data-name="Path 4828" d="M226.626,437.717c2.376.262,4.685,1,7.067,1.146s5-.421,6.508-2.273a32.079,32.079,0,0,0,1.9-3.35A7.3,7.3,0,0,1,244.7,430.8a10.291,10.291,0,1,1-19.246,6.829C225.85,437.647,226.241,437.674,226.626,437.717Z" transform="translate(1234.694 2100.372)" opacity="0.1"/>
      <path id="Path_4829" data-name="Path 4829" d="M197.443,520.425a10.3,10.3,0,0,0,9.788-14.675,7.611,7.611,0,0,0-2.069,2.069,33.352,33.352,0,0,1-2.039,3.4c-1.6,1.883-4.339,2.5-6.823,2.388s-4.881-.821-7.353-1.047c-.343-.03-.692-.054-1.037-.063A10.288,10.288,0,0,0,197.443,520.425Z" transform="translate(1260.945 2047.961)" opacity="0.1"/>
      <path id="Path_4830" data-name="Path 4830" d="M280.915,576.136a10.288,10.288,0,0,0,9.87-14.486,8.321,8.321,0,0,0-2.174,2.105,35.26,35.26,0,0,1-2.234,3.467c-1.735,1.934-4.652,2.616-7.283,2.553-2.547-.054-5-.68-7.533-.875A10.3,10.3,0,0,0,280.915,576.136Z" transform="translate(1202.45 2008.871)" opacity="0.1"/>
      <path id="Path_4831" data-name="Path 4831" d="M285.78,656.744a10.285,10.285,0,0,0,19.424-4.21,10.152,10.152,0,0,0-.671-4.174,10.3,10.3,0,0,0-2.255,2.012,39.563,39.563,0,0,1-2.755,3.657c-2.105,2.063-5.5,2.917-8.522,3.007a44.143,44.143,0,0,1-5.221-.292Z" transform="translate(1192.507 1948.237)" opacity="0.1"/>
      <path id="Path_4832" data-name="Path 4832" d="M255.7,554.862l-39.7,8.119-.9-.09-34.884-3.518V515.167l42.7-7.217,30.974,3.609.009.2,0,.1Z" transform="translate(1303.976 2075.947)" fill="#bdbdbd"/>
      <path id="Path_4833" data-name="Path 4833" d="M336.817,563.708l-39.7,8.119-.9-.09V526.419l38.8-5.819Z" transform="translate(1222.859 2067.101)" opacity="0.1"/>
      <path id="Path_4834" data-name="Path 4834" d="M253.909,511.85l-.012.009L215.1,517.573l-34.884-2.406,42.7-7.217,30.974,3.609.009.2Z" transform="translate(1303.976 2075.947)" opacity="0.05"/>
      <path id="Path_4835" data-name="Path 4835" d="M400.7,560.862l-39.7,8.119-.9-.09-34.884-3.518V521.167l42.7-7.217,30.974,3.609.009.2,0,.1Z" transform="translate(1202.58 2071.751)" fill="#bebebe"/>
      <path id="Path_4836" data-name="Path 4836" d="M481.817,569.708l-39.7,8.119-.9-.09V532.419l38.8-5.819Z" transform="translate(1121.464 2062.906)" fill="#707070" opacity="0.1"/>
      <path id="Path_4837" data-name="Path 4837" d="M398.909,517.85l-.012.009L360.1,523.573l-34.884-2.406,42.7-7.217,30.974,3.609.009.2Z" transform="translate(1202.58 2071.751)" opacity="0.05"/>
      <path id="Path_4838" data-name="Path 4838" d="M309.7,416.862l-39.7,8.119-.9-.09-34.884-3.518V377.167l42.7-7.217,30.974,3.609.009.2,0,.1Z" transform="translate(1266.215 2172.448)" fill="#bebebe"/>
      <path id="Path_4839" data-name="Path 4839" d="M390.817,425.708l-39.7,8.119-.9-.09V388.419l38.8-5.819Z" transform="translate(1185.098 2163.602)" fill="#707070" opacity="0.1"/>
      <path id="Path_4840" data-name="Path 4840" d="M307.909,373.85l-.012.009L269.1,379.573l-34.884-2.406,42.7-7.217,30.974,3.609.009.2Z" transform="translate(1266.215 2172.448)" opacity="0.05"/>
      <path id="Path_4841" data-name="Path 4841" d="M468.614,475.175l-20.717,4.24-.472-.048-18.206-1.837V454.458l22.286-3.768,16.167,1.885.006.1v.048Z" transform="translate(1129.855 2115.988)" fill="#bebebe"/>
      <path id="Path_4842" data-name="Path 4842" d="M510.949,479.8l-20.717,4.24-.472-.048V460.337l20.254-3.037Z" transform="translate(1087.521 2111.366)" fill="#707070" opacity="0.1"/>
      <path id="Path_4843" data-name="Path 4843" d="M467.679,452.726l-.006.006-20.247,2.983-18.206-1.257,22.286-3.768,16.167,1.885.006.1Z" transform="translate(1129.855 2115.988)" opacity="0.05"/>
      <path id="Path_4844" data-name="Path 4844" d="M283.614,326.175,262.9,330.412l-.472-.045-18.206-1.837V305.458l22.286-3.768,16.167,1.885.006.1v.048Z" transform="translate(1259.222 2220.181)" fill="#bebebe"/>
      <path id="Path_4845" data-name="Path 4845" d="M325.949,330.8l-20.717,4.237-.472-.045V311.337l20.254-3.037Z" transform="translate(1216.888 2215.559)" fill="#707070" opacity="0.1"/>
      <path id="Path_4846" data-name="Path 4846" d="M282.679,303.726l-.006.006-20.247,2.983-18.206-1.257,22.286-3.768,16.167,1.885.006.1Z" transform="translate(1259.222 2220.181)" opacity="0.05"/>
      <path id="Path_4847" data-name="Path 4847" d="M404.614,323.175,383.9,327.412l-.472-.045-18.206-1.837V302.458l22.286-3.768,16.167,1.885.006.1v.048Z" transform="translate(1174.609 2222.279)" fill="#bdbdbd"/>
      <path id="Path_4848" data-name="Path 4848" d="M446.949,327.8l-20.717,4.237-.472-.045V308.337l20.254-3.037Z" transform="translate(1132.274 2217.656)" opacity="0.1"/>
      <path id="Path_4849" data-name="Path 4849" d="M403.679,300.726l-.006.006-20.247,2.983-18.206-1.257,22.286-3.768,16.167,1.885.006.1Z" transform="translate(1174.609 2222.279)" opacity="0.05"/>
      <path id="Path_4850" data-name="Path 4850" d="M440.614,246.175,419.9,250.412l-.472-.045-18.206-1.837V225.458l22.286-3.768,16.167,1.886.006.1v.048Z" transform="translate(1149.435 2276.123)" fill="#bebebe"/>
      <path id="Path_4851" data-name="Path 4851" d="M482.949,250.8l-20.717,4.237-.472-.045V231.337l20.254-3.037Z" transform="translate(1107.101 2271.501)" fill="#707070" opacity="0.1"/>
      <path id="Path_4852" data-name="Path 4852" d="M439.679,223.726l-.006.006-20.247,2.983-18.206-1.257,22.286-3.768,16.167,1.886.006.1Z" transform="translate(1149.435 2276.123)" opacity="0.05"/>
      <path id="Path_4868" data-name="Path 4868" d="M313.614,249.175,292.9,253.412l-.472-.045-18.206-1.837V228.458l22.286-3.768,16.167,1.886.006.1v.048Z" transform="translate(1238.244 2274.025)" fill="#bdbdbd"/>
      <path id="Path_4869" data-name="Path 4869" d="M355.949,253.8l-20.717,4.237-.472-.045V234.337l20.253-3.037Z" transform="translate(1195.909 2269.403)" opacity="0.1"/>
      <path id="Path_4870" data-name="Path 4870" d="M312.679,226.726l-.006.006-20.247,2.983-18.206-1.257,22.286-3.768,16.167,1.886.006.1Z" transform="translate(1238.244 2274.025)" opacity="0.05"/>
      <path id="Path_4871" data-name="Path 4871" d="M349.614,173.175l-20.717,4.24-.472-.048-18.206-1.837V152.458l22.286-3.768,16.167,1.886.006.1v.048Z" transform="translate(1213.069 2327.17)" fill="#bebebe"/>
      <path id="Path_4872" data-name="Path 4872" d="M391.949,177.8l-20.717,4.24-.472-.048V158.337l20.253-3.037Z" transform="translate(1170.735 2322.548)" fill="#707070" opacity="0.1"/>
      <path id="Path_4873" data-name="Path 4873" d="M348.679,150.726l-.006.006-20.247,2.983-18.206-1.257,22.286-3.768,16.167,1.886.006.1Z" transform="translate(1213.069 2327.17)" opacity="0.05"/>
    </g>
  </g>
</svg>
