<svg xmlns="http://www.w3.org/2000/svg" width="1337.5" height="290.751" viewBox="0 0 1337.5 290.751">
  <g id="Group_2669" data-name="Group 2669" transform="translate(-295 -5593.5)">
    <text id="Cluster_In-charge" data-name="Cluster
In-charge" transform="translate(1272 5602)" fill="#21232a" font-size="20" font-family="HelveticaNeue-Bold, Helvetica Neue" font-weight="700"><tspan x="25.56" y="20">Cluster</tspan><tspan x="14.18" y="45">In-charge</tspan></text>
    <text id="Main_Purpose" data-name="Main
Purpose" transform="translate(654 5697)" fill="#21232a" font-size="20" font-family="HelveticaNeue-Bold, Helvetica Neue" font-weight="700"><tspan x="56.36" y="20">Main</tspan><tspan x="23.36" y="45">Purpose</tspan></text>
    <text id="Example_Use_Case" data-name="Example
Use Case" transform="translate(611 5808)" fill="#21232a" font-size="20" font-family="HelveticaNeue-Bold, Helvetica Neue" font-weight="700"><tspan x="63.84" y="20">Example</tspan><tspan x="54.88" y="45">Use Case</tspan></text>
    <text id="State_In-carge" data-name="State
In-carge" transform="translate(1477 5600)" fill="#21232a" font-size="20" font-family="HelveticaNeue-Bold, Helvetica Neue" font-weight="700"><tspan x="35.49" y="20">State</tspan><tspan x="20.61" y="45">In-carge</tspan></text>
    <line id="Line_150" data-name="Line 150" y2="290.751" transform="translate(1222.5 5593.5)" fill="none" stroke="#707070" stroke-width="1" opacity="0.2"/>
    <line id="Line_149" data-name="Line 149" y2="290.751" transform="translate(1002.5 5593.5)" fill="none" stroke="#707070" stroke-width="1" opacity="0.2"/>
    <line id="Line_148" data-name="Line 148" y2="290.751" transform="translate(781.5 5593.5)" fill="none" stroke="#707070" stroke-width="1" opacity="0.2"/>
    <line id="Line_151" data-name="Line 151" x1="1039" transform="translate(593.5 5766.5)" fill="none" stroke="#707070" stroke-width="1" opacity="0.2"/>
    <text id="To_add_dispatch_data_for_a_particular_date" data-name="To add dispatch data for a particular date" transform="translate(797 5688)" fill="#707070" font-size="14" font-family="HelveticaNeue, Helvetica Neue"><tspan x="12.925" y="13">To add dispatch data for a </tspan><tspan x="49.885" y="29">particular date</tspan></text>
    <text id="Same_as_Operator" data-name="Same as
Operator" transform="translate(1079 5688)" fill="#707070" font-size="14" font-family="HelveticaNeue, Helvetica Neue"><tspan x="5.27" y="13">Same as</tspan><tspan x="4.626" y="29">Operator</tspan></text>
    <text id="Same_as_Operator-2" data-name="Same as
Operator" transform="translate(1300 5688)" fill="#707070" font-size="14" font-family="HelveticaNeue, Helvetica Neue"><tspan x="4.77" y="13">Same as</tspan><tspan x="4.126" y="29">Operator</tspan></text>
    <text id="Reading_units_through_each_feeder_daily_and_recording_in_the_app" data-name="Reading units through each feeder daily, and recording in the app" transform="translate(792 5797)" fill="#707070" font-size="14" font-family="HelveticaNeue, Helvetica Neue"><tspan x="13.4" y="13">Reading units through each </tspan><tspan x="9.13" y="29">feeder daily, and recording in </tspan><tspan x="75.637" y="45">the app</tspan></text>
    <text id="Same_as_Operator-3" data-name="Same as
Operator" transform="translate(1080 5797)" fill="#707070" font-size="14" font-family="HelveticaNeue, Helvetica Neue"><tspan x="4.27" y="13">Same as</tspan><tspan x="3.626" y="29">Operator</tspan></text>
    <text id="Same_as_Operator-4" data-name="Same as
Operator" transform="translate(1297 5797)" fill="#707070" font-size="14" font-family="HelveticaNeue, Helvetica Neue"><tspan x="7.77" y="13">Same as</tspan><tspan x="7.126" y="29">Operator</tspan></text>
    <line id="Line_152" data-name="Line 152" y2="290.751" transform="translate(1443.5 5593.5)" fill="none" stroke="#707070" stroke-width="1" opacity="0.2"/>
    <text id="Operator" transform="translate(820 5602)" fill="#21232a" font-size="20" font-family="HelveticaNeue-Bold, Helvetica Neue" font-weight="700"><tspan x="28.72" y="20">Operator</tspan></text>
    <text id="Same_as_Operator-5" data-name="Same as
Operator" transform="translate(1501 5688)" fill="#707070" font-size="14" font-family="HelveticaNeue, Helvetica Neue"><tspan x="9.27" y="13">Same as</tspan><tspan x="8.626" y="29">Operator</tspan></text>
    <text id="Same_as_Operator-6" data-name="Same as
Operator" transform="translate(1502 5797)" fill="#707070" font-size="14" font-family="HelveticaNeue, Helvetica Neue"><tspan x="8.27" y="13">Same as</tspan><tspan x="7.626" y="29">Operator</tspan></text>
    <text id="Technician" transform="translate(1040 5602)" fill="#21232a" font-size="20" font-family="HelveticaNeue-Bold, Helvetica Neue" font-weight="700"><tspan x="20.59" y="20">Technician</tspan></text>
    <g id="undraw_data_processing_yrrv" transform="translate(295 5619)">
      <circle id="Ellipse_390" data-name="Ellipse 390" cx="5.496" cy="5.496" r="5.496" transform="translate(10.444 39.147)" fill="#e6e6e6"/>
      <circle id="Ellipse_391" data-name="Ellipse 391" cx="5.496" cy="5.496" r="5.496" transform="translate(26.931 39.147)" fill="#e6e6e6"/>
      <circle id="Ellipse_392" data-name="Ellipse 392" cx="5.496" cy="5.496" r="5.496" transform="translate(43.418 39.147)" fill="#e6e6e6"/>
      <circle id="Ellipse_393" data-name="Ellipse 393" cx="5.496" cy="5.496" r="5.496" transform="translate(59.904 39.147)" fill="#e6e6e6"/>
      <circle id="Ellipse_394" data-name="Ellipse 394" cx="5.496" cy="5.496" r="5.496" transform="translate(76.391 39.147)" fill="#e6e6e6"/>
      <circle id="Ellipse_395" data-name="Ellipse 395" cx="5.496" cy="5.496" r="5.496" transform="translate(92.878 39.147)" fill="#e6e6e6"/>
      <circle id="Ellipse_396" data-name="Ellipse 396" cx="5.496" cy="5.496" r="5.496" transform="translate(109.364 39.147)" fill="#e6e6e6"/>
      <path id="Path_4567" data-name="Path 4567" d="M301.337,252.125H177.019a2.239,2.239,0,0,1-2.236-2.236v-8.912a2.239,2.239,0,0,1,2.236-2.236H301.337a2.239,2.239,0,0,1,2.236,2.236v8.912A2.239,2.239,0,0,1,301.337,252.125Zm-124.318-12.49a1.343,1.343,0,0,0-1.342,1.342v8.912a1.343,1.343,0,0,0,1.342,1.342H301.337a1.343,1.343,0,0,0,1.342-1.342v-8.912a1.343,1.343,0,0,0-1.342-1.342Z" transform="translate(-173.778 -200.79)" fill="#e6e6e6"/>
      <path id="Path_4568" data-name="Path 4568" d="M202.137,145.9a1.286,1.286,0,0,1,1.285,1.285v27.844a1.286,1.286,0,0,1-1.285,1.285H174.861a1.286,1.286,0,0,1-1.285-1.285V147.182a1.286,1.286,0,0,1,1.285-1.285h27.276m0-1.285H174.861a2.57,2.57,0,0,0-2.57,2.57v27.844a2.57,2.57,0,0,0,2.57,2.57h27.276a2.57,2.57,0,0,0,2.57-2.57V147.182a2.57,2.57,0,0,0-2.57-2.57Z" transform="translate(-172.291 -144.612)" fill="#e6e6e6"/>
      <path id="Path_4569" data-name="Path 4569" d="M207.875,164.051h-18.2a.642.642,0,1,1,0-1.285h18.2a.642.642,0,1,1,0,1.285Z" transform="translate(-182.284 -155.447)" fill="#a2a2a2"/>
      <path id="Path_4570" data-name="Path 4570" d="M207.875,175.335h-18.2a.642.642,0,1,1,0-1.285h18.2a.642.642,0,1,1,0,1.285Z" transform="translate(-182.284 -162.182)" fill="#a2a2a2"/>
      <path id="Path_4571" data-name="Path 4571" d="M207.875,186.619h-18.2a.642.642,0,1,1,0-1.285h18.2a.642.642,0,1,1,0,1.285Z" transform="translate(-182.284 -168.916)" fill="#a2a2a2"/>
      <path id="Path_4572" data-name="Path 4572" d="M207.875,197.9h-18.2a.642.642,0,1,1,0-1.285h18.2a.642.642,0,1,1,0,1.285Z" transform="translate(-182.284 -175.651)" fill="#a2a2a2"/>
      <path id="Path_4573" data-name="Path 4573" d="M207.875,209.189h-18.2a.642.642,0,1,1,0-1.285h18.2a.642.642,0,1,1,0,1.285Z" transform="translate(-182.284 -182.386)" fill="#a2a2a2"/>
      <path id="Path_4574" data-name="Path 4574" d="M433.2,145.9a1.286,1.286,0,0,1,1.285,1.285v27.844a1.286,1.286,0,0,1-1.285,1.285H405.922a1.286,1.286,0,0,1-1.285-1.285V147.182a1.286,1.286,0,0,1,1.285-1.285H433.2m0-1.285H405.922a2.57,2.57,0,0,0-2.57,2.57v27.844a2.57,2.57,0,0,0,2.57,2.57H433.2a2.57,2.57,0,0,0,2.57-2.57V147.182a2.57,2.57,0,0,0-2.57-2.57Z" transform="translate(-310.193 -144.612)" fill="#e6e6e6"/>
      <path id="Path_4575" data-name="Path 4575" d="M438.936,164.051h-18.2a.642.642,0,1,1,0-1.285h18.2a.642.642,0,0,1,0,1.285Z" transform="translate(-320.186 -155.447)" fill="#a2a2a2"/>
      <path id="Path_4576" data-name="Path 4576" d="M438.936,175.335h-18.2a.642.642,0,1,1,0-1.285h18.2a.642.642,0,0,1,0,1.285Z" transform="translate(-320.186 -162.182)" fill="#a2a2a2"/>
      <path id="Path_4577" data-name="Path 4577" d="M438.936,186.619h-18.2a.642.642,0,1,1,0-1.285h18.2a.642.642,0,0,1,0,1.285Z" transform="translate(-320.186 -168.916)" fill="#a2a2a2"/>
      <path id="Path_4578" data-name="Path 4578" d="M438.936,197.9h-18.2a.642.642,0,1,1,0-1.285h18.2a.642.642,0,0,1,0,1.285Z" transform="translate(-320.186 -175.651)" fill="#a2a2a2"/>
      <path id="Path_4579" data-name="Path 4579" d="M438.936,209.189h-18.2a.642.642,0,1,1,0-1.285h18.2a.642.642,0,0,1,0,1.285Z" transform="translate(-320.186 -182.386)" fill="#a2a2a2"/>
      <path id="Path_4580" data-name="Path 4580" d="M663.137,278.689a1.286,1.286,0,0,1,1.285,1.285v27.844a1.286,1.286,0,0,1-1.285,1.285H635.861a1.286,1.286,0,0,1-1.285-1.285V279.974a1.286,1.286,0,0,1,1.285-1.285h27.276m0-1.285H635.861a2.57,2.57,0,0,0-2.57,2.57v27.844a2.57,2.57,0,0,0,2.57,2.57h27.276a2.57,2.57,0,0,0,2.57-2.57V279.974a2.57,2.57,0,0,0-2.57-2.57Z" transform="translate(-447.426 -223.865)" fill="#a2a2a2"/>
      <path id="Path_4581" data-name="Path 4581" d="M668.875,296.842h-18.2a.642.642,0,0,1,0-1.285h18.2a.642.642,0,0,1,0,1.285Z" transform="translate(-457.419 -234.7)" fill="#a2a2a2"/>
      <path id="Path_4582" data-name="Path 4582" d="M668.875,308.127h-18.2a.642.642,0,0,1,0-1.285h18.2a.642.642,0,0,1,0,1.285Z" transform="translate(-457.419 -241.435)" fill="#a2a2a2"/>
      <path id="Path_4583" data-name="Path 4583" d="M668.875,319.411h-18.2a.642.642,0,0,1,0-1.285h18.2a.642.642,0,0,1,0,1.285Z" transform="translate(-457.419 -248.169)" fill="#a2a2a2"/>
      <path id="Path_4584" data-name="Path 4584" d="M668.875,330.7h-18.2a.642.642,0,0,1,0-1.285h18.2a.642.642,0,0,1,0,1.285Z" transform="translate(-457.419 -254.904)" fill="#a2a2a2"/>
      <path id="Path_4585" data-name="Path 4585" d="M668.875,341.98h-18.2a.642.642,0,0,1,0-1.285h18.2a.642.642,0,0,1,0,1.285Z" transform="translate(-457.419 -261.639)" fill="#a2a2a2"/>
      <path id="Path_4586" data-name="Path 4586" d="M317.073,188.322h-27.99a2.858,2.858,0,0,1-2.855-2.855V165.439a2.858,2.858,0,0,1,2.855-2.855h27.99a2.859,2.859,0,0,1,2.855,2.855v20.028A2.858,2.858,0,0,1,317.073,188.322Zm-27.99-24.454a1.572,1.572,0,0,0-1.57,1.57v20.028a1.572,1.572,0,0,0,1.57,1.57h27.99a1.572,1.572,0,0,0,1.57-1.57V165.439a1.572,1.572,0,0,0-1.57-1.57Z" transform="translate(-240.291 -155.338)" fill="#e6e6e6"/>
      <path id="Path_4587" data-name="Path 4587" d="M322.7,182.91H304.5a.642.642,0,1,1,0-1.285h18.2a.642.642,0,0,1,0,1.285Z" transform="translate(-250.814 -166.703)" fill="#a2a2a2"/>
      <path id="Path_4588" data-name="Path 4588" d="M322.7,194.195H304.5a.642.642,0,1,1,0-1.285h18.2a.642.642,0,0,1,0,1.285Z" transform="translate(-250.814 -173.437)" fill="#a2a2a2"/>
      <path id="Path_4589" data-name="Path 4589" d="M322.7,205.479H304.5a.642.642,0,1,1,0-1.285h18.2a.642.642,0,0,1,0,1.285Z" transform="translate(-250.814 -180.172)" fill="#a2a2a2"/>
      <path id="Path_4590" data-name="Path 4590" d="M550.248,205.65l-26.882-7.8a2.858,2.858,0,0,1-1.947-3.537L527,175.081a2.858,2.858,0,0,1,3.537-1.947l26.882,7.8a2.858,2.858,0,0,1,1.947,3.538L553.786,203.7a2.859,2.859,0,0,1-3.538,1.947Zm-20.071-31.282a1.572,1.572,0,0,0-1.945,1.071l-5.578,19.236a1.572,1.572,0,0,0,1.071,1.945l26.882,7.8a1.572,1.572,0,0,0,1.946-1.071l5.578-19.236a1.572,1.572,0,0,0-1.071-1.946Z" transform="translate(-380.591 -161.567)" fill="#e6e6e6"/>
      <path id="Path_4591" data-name="Path 4591" d="M566.459,201.236l-17.478-5.069a.642.642,0,0,1,.358-1.234L566.817,200a.642.642,0,1,1-.358,1.234Z" transform="translate(-396.831 -174.63)" fill="#a2a2a2"/>
      <path id="Path_4592" data-name="Path 4592" d="M563.316,212.074l-17.478-5.069a.642.642,0,1,1,.358-1.234l17.478,5.069a.642.642,0,0,1-.358,1.234Z" transform="translate(-394.955 -181.098)" fill="#a2a2a2"/>
      <path id="Path_4593" data-name="Path 4593" d="M560.173,222.912,542.7,217.843a.642.642,0,1,1,.358-1.234l17.478,5.069a.642.642,0,1,1-.358,1.234Z" transform="translate(-393.08 -187.566)" fill="#a2a2a2"/>
      <rect id="Rectangle_820" data-name="Rectangle 820" width="281.947" height="1.21" transform="translate(62.938 245.041)" fill="#e6e6e6"/>
      <path id="Path_4594" data-name="Path 4594" d="M494.27,573.177H448.421l1.554-20.2h42.74Z" transform="translate(-267.628 -330.027)" fill="#e6e6e6"/>
      <rect id="Rectangle_821" data-name="Rectangle 821" width="51.288" height="4.663" transform="translate(178.462 240.819)" fill="#e6e6e6"/>
      <path id="Path_4595" data-name="Path 4595" d="M629.068,374.74H453.833a4.663,4.663,0,0,0-4.663,4.663h0V486.254H633.731V379.4a4.663,4.663,0,0,0-4.663-4.663Z" transform="translate(-337.539 -281.958)" fill="#3f3d56"/>
      <path id="Path_4596" data-name="Path 4596" d="M449.171,651.327v17.485a4.663,4.663,0,0,0,4.663,4.663H629.068a4.663,4.663,0,0,0,4.663-4.663h0V651.327Z" transform="translate(-337.539 -447.031)" fill="#e6e6e6"/>
      <rect id="Rectangle_822" data-name="Rectangle 822" width="166.299" height="93.252" transform="translate(120.957 102.496)" fill="#e6e6e6"/>
      <circle id="Ellipse_397" data-name="Ellipse 397" cx="4.663" cy="4.663" r="4.663" transform="translate(199.444 210.513)" fill="#3f3d56"/>
      <circle id="Ellipse_398" data-name="Ellipse 398" cx="0.885" cy="0.885" r="0.885" transform="translate(125.257 104.665)" fill="#fff"/>
      <circle id="Ellipse_399" data-name="Ellipse 399" cx="0.885" cy="0.885" r="0.885" transform="translate(128.616 104.665)" fill="#fff"/>
      <circle id="Ellipse_400" data-name="Ellipse 400" cx="0.885" cy="0.885" r="0.885" transform="translate(131.975 104.665)" fill="#fff"/>
      <rect id="Rectangle_823" data-name="Rectangle 823" width="157.205" height="78.316" transform="translate(125.257 108.557)" fill="#fff"/>
      <path id="Path_4597" data-name="Path 4597" d="M508.062,443.411a.556.556,0,0,0-.556.556v28.092a.556.556,0,0,0,.556.556H540.5a.556.556,0,0,0,.556-.556V443.967a.556.556,0,0,0-.556-.556Z" transform="translate(-372.355 -322.942)" fill="#e6e6e6"/>
      <path id="Path_4598" data-name="Path 4598" d="M637.258,443.635a.556.556,0,0,0-.556.556v28a.556.556,0,0,0,.556.556H669.6a.556.556,0,0,0,.556-.556v-28a.556.556,0,0,0-.555-.556Z" transform="translate(-449.462 -323.076)" fill="#e6e6e6"/>
      <path id="Path_4599" data-name="Path 4599" d="M765.1,442.907a.556.556,0,0,0-.556.556v28.295a.556.556,0,0,0,.556.556h32.674a.556.556,0,0,0,.556-.556V443.463a.556.556,0,0,0-.556-.556Z" transform="translate(-525.76 -322.641)" fill="#e6e6e6"/>
      <path id="Path_4600" data-name="Path 4600" d="M508.655,550.333a1.149,1.149,0,1,0,0,2.3h30.5a1.149,1.149,0,0,0,0-2.3Z" transform="translate(-372.355 -386.755)" fill="#e6e6e6"/>
      <path id="Path_4601" data-name="Path 4601" d="M508.655,563.889a1.149,1.149,0,0,0,0,2.3h13.733a1.149,1.149,0,0,0,0-2.3Z" transform="translate(-372.355 -394.846)" fill="#a2a2a2"/>
      <path id="Path_4602" data-name="Path 4602" d="M639.239,550.333a1.149,1.149,0,0,0,0,2.3h30.5a1.149,1.149,0,0,0,0-2.3Z" transform="translate(-450.29 -386.755)" fill="#e6e6e6"/>
      <path id="Path_4603" data-name="Path 4603" d="M639.239,563.889a1.149,1.149,0,0,0,0,2.3h13.733a1.149,1.149,0,0,0,0-2.3Z" transform="translate(-450.29 -394.846)" fill="#a2a2a2"/>
      <path id="Path_4604" data-name="Path 4604" d="M766.56,550.333a1.149,1.149,0,0,0,0,2.3h30.5a1.149,1.149,0,0,0,0-2.3Z" transform="translate(-526.278 -386.755)" fill="#e6e6e6"/>
      <path id="Path_4605" data-name="Path 4605" d="M508.655,536.333a1.149,1.149,0,1,0,0,2.3h30.5a1.149,1.149,0,0,0,0-2.3Z" transform="translate(-372.355 -378.4)" fill="#e6e6e6"/>
      <path id="Path_4606" data-name="Path 4606" d="M639.239,536.333a1.149,1.149,0,0,0,0,2.3h30.5a1.149,1.149,0,0,0,0-2.3Z" transform="translate(-450.29 -378.4)" fill="#e6e6e6"/>
      <path id="Path_4607" data-name="Path 4607" d="M766.56,536.333a1.149,1.149,0,0,0,0,2.3h30.5a1.149,1.149,0,0,0,0-2.3Z" transform="translate(-526.278 -378.4)" fill="#e6e6e6"/>
      <path id="Path_4608" data-name="Path 4608" d="M766.559,563.889a1.149,1.149,0,0,0,0,2.3h13.733a1.149,1.149,0,0,0,0-2.3Z" transform="translate(-526.278 -394.846)" fill="#a2a2a2"/>
    </g>
  </g>
</svg>
