<svg xmlns="http://www.w3.org/2000/svg" width="582" height="338.872" viewBox="0 0 582 338.872">
  <g id="Group_2665" data-name="Group 2665" transform="translate(-669 -304)">
    <text id="Bank_Deposit" data-name="Bank Deposit" transform="translate(679.5 304)" fill="#21232a" font-size="20" font-family="HelveticaNeue-Bold, Helvetica Neue" font-weight="700"><tspan x="7.93" y="20">Bank Deposit</tspan></text>
    <text id="In_Hand_Cash_Report" data-name="In Hand
Cash Report" transform="translate(896 304)" fill="#21232a" font-size="20" font-family="HelveticaNeue-Bold, Helvetica Neue" font-weight="700"><tspan x="27.15" y="20">In Hand</tspan><tspan x="4.18" y="45">Cash Report</tspan></text>
    <text id="Bank_Deposit_Review" data-name="Bank Deposit
Review" transform="translate(1104.25 304)" fill="#21232a" font-size="20" font-family="HelveticaNeue-Bold, Helvetica Neue" font-weight="700"><tspan x="3.43" y="20">Bank Deposit</tspan><tspan x="32.88" y="45">Review</tspan></text>
    <text id="Detailed_list_of_historical_bank_deposits" data-name="Detailed list of historical bank deposits" transform="translate(705 522)" fill="#707070" font-size="14" font-family="HelveticaNeue, Helvetica Neue"><tspan x="6.072" y="13">Detailed list </tspan><tspan x="6.338" y="28">of historical </tspan><tspan x="27.065" y="43">bank </tspan><tspan x="15.662" y="58">deposits</tspan></text>
    <text id="Plant-wise_overview_of_collections_and_deposits" data-name="Plant-wise overview of collections and deposits" transform="translate(918 522)" fill="#707070" font-size="14" font-family="HelveticaNeue, Helvetica Neue"><tspan x="9.712" y="13">Plant-wise </tspan><tspan x="6.737" y="28">overview of </tspan><tspan x="8.928" y="43">collections </tspan><tspan x="1.914" y="58">and deposits</tspan></text>
    <text id="Overview_of_all_the_bank_deposits_made_and_confirmed" data-name="Overview of all the bank deposits made and confirmed" transform="translate(1131 522)" fill="#707070" font-size="14" font-family="HelveticaNeue, Helvetica Neue"><tspan x="5.435" y="13">Overview of </tspan><tspan x="6.45" y="28">all the bank </tspan><tspan x="15.662" y="43">deposits </tspan><tspan x="11.112" y="58">made and </tspan><tspan x="10.993" y="73">confirmed</tspan></text>
    <g id="Group_2580" data-name="Group 2580" transform="translate(0 -4960)">
      <path id="Path_2879" data-name="Path 2879" d="M-701.719-745.744c17.865,0,18.954,14.805,18.954,24.271q.112,95.463.011,190.926c-.013,13.419-10.5,23.777-24.436,23.836q-55.478.231-110.957-.007c-13.857-.062-24.276-10.637-24.52-24.474-.2-11.159-.093-22.324-.015-33.486.014-1.979-.687-4.968,2.647-4.851,2.9.1,2.27,2.858,2.283,4.708.077,10.662-.017,21.325.065,31.988.1,13.095,8.179,21.119,21.335,21.134q53.979.062,107.958,0c12.494-.013,20.711-8.135,20.721-20.641q.074-93.714.006-187.428c0-17.823-4.585-20.864-20.107-20.864-36.485,0-72.971-.2-109.456-.012-11.979.062-20.308,8.769-20.433,20.752-.148,14.16-.091,28.322-.011,42.483a16.444,16.444,0,0,1-2.478,8.958c-17.325,28.651-34.522,57.381-51.868,86.02a18.019,18.019,0,0,0-2.689,9.9c.1,12.994.074,25.99.027,38.984-.061,16.716-10.082,26.86-26.714,26.887-35.319.057-70.64-.093-105.959.083-11.875.059-27.354,0-27.354-15.336v-47.84c3.849-.731,5.01,1.147,4.978,4.721-.1,10.823-.009,21.648-.009,32.472,0,19.2,3.443,20.861,21,20.861q53.7,0,107.409,0c13.719-.013,21.57-7.965,21.623-21.837.049-12.989.164-25.98-.065-38.965a23.463,23.463,0,0,1,3.62-13.16c16.862-27.746,33.519-55.617,50.364-83.373a20.423,20.423,0,0,0,3.112-11.3c-.148-12.654.01-25.311-.068-37.967-.077-12.474,5.06-21.452,16.98-26.086a11.315,11.315,0,0,0,2.049-1.359Z" transform="translate(1933.708 6109.438)" fill="#6c7474"/>
      <path id="Path_2880" data-name="Path 2880" d="M-701.719-745.744c17.865,0,18.954,14.805,18.954,24.271q.112,95.463.011,190.926c-.013,13.419-10.5,23.777-24.436,23.836q-55.478.231-110.957-.007c-13.857-.062-24.276-10.637-24.52-24.474-.2-11.159-.093-22.324-.015-33.486.014-1.979-.687-4.968,2.647-4.851,2.9.1,2.27,2.858,2.283,4.708.077,10.662-.017,21.325.065,31.988.1,13.095,8.179,21.119,21.335,21.134q53.979.062,107.958,0c12.494-.013,20.711-8.135,20.721-20.641q.074-93.714.006-187.428c0-17.823-4.585-20.864-20.107-20.864-36.485,0-72.971-.2-109.456-.012-11.979.062-20.308,8.769-20.433,20.752-.148,14.16-.091,28.322-.011,42.483a16.444,16.444,0,0,1-2.478,8.958c-17.325,28.651-34.522,57.381-51.868,86.02a18.019,18.019,0,0,0-2.689,9.9c.1,12.994.074,25.99.027,38.984-.061,16.716-10.082,26.86-26.714,26.887-35.319.057-70.64-.093-105.959.083-11.875.059-27.354,0-27.354-15.336v-47.84c3.849-.731,5.01,1.147,4.978,4.721-.1,10.823-.009,21.648-.009,32.472,0,19.2,3.443,20.861,21,20.861q53.7,0,107.409,0c13.719-.013,21.57-7.965,21.623-21.837.049-12.989.164-25.98-.065-38.965a23.463,23.463,0,0,1,3.62-13.16c16.862-27.746,33.519-55.617,50.364-83.373a20.423,20.423,0,0,0,3.112-11.3c-.148-12.654.01-25.311-.068-37.967-.077-12.474,5.06-21.452,16.98-26.086a11.315,11.315,0,0,0,2.049-1.359Z" transform="translate(-13.708 4857.128) rotate(180)" fill="#6c7474"/>
      <g id="Group_501" data-name="Group 501" transform="translate(667.092 5365.29)">
        <path id="Path_2100" data-name="Path 2100" d="M223.564,175.84a9.13,9.13,0,1,0-9.129,9.13A9.13,9.13,0,0,0,223.564,175.84Z" fill="#707070"/>
      </g>
      <g id="Group_500" data-name="Group 500" transform="translate(668.092 5365.29)">
        <path id="Path_2099" data-name="Path 2099" d="M417.311,175.84a9.13,9.13,0,1,1,9.129,9.13A9.131,9.131,0,0,1,417.311,175.84Z" fill="#707070"/>
      </g>
      <g id="Group_862" data-name="Group 862" transform="translate(612.092 5250.29)">
        <path id="Path_2099-2" data-name="Path 2099" d="M417.311,175.84a9.13,9.13,0,1,1,9.129,9.13A9.131,9.131,0,0,1,417.311,175.84Z" fill="#707070"/>
      </g>
      <g id="Group_863" data-name="Group 863" transform="translate(400.092 5250.29)">
        <path id="Path_2099-3" data-name="Path 2099" d="M417.311,175.84a9.13,9.13,0,1,1,9.129,9.13A9.131,9.131,0,0,1,417.311,175.84Z" fill="#707070"/>
      </g>
    </g>
    <g id="deposit" transform="translate(718.672 439.28)">
      <path id="Path_4342" data-name="Path 4342" d="M43.86,31H16.9a.9.9,0,0,0-.9.9V58.86a.9.9,0,0,0,.9.9H43.86a.9.9,0,0,0,.9-.9V31.9A.9.9,0,0,0,43.86,31Zm-.9,26.961H17.8V32.8H42.961Z" transform="translate(-1.215 -3.039)" fill="#707070"/>
      <path id="Path_4343" data-name="Path 4343" d="M19.9,54.67v1.8a.9.9,0,0,0,.9.9h20.67a.9.9,0,0,0,.9-.9V34.9a.9.9,0,0,0-.9-.9H20.8a.9.9,0,0,0-.9.9v1.8a.9.9,0,0,0-.9.9v5.392a.9.9,0,0,0,.9.9v3.595a.9.9,0,0,0-.9.9v5.392A.9.9,0,0,0,19.9,54.67Zm.9-12.582V38.494h.9v3.595Zm.9,1.8h.9a.9.9,0,0,0,.9-.9V37.595a.9.9,0,0,0-.9-.9h-.9v-.9H40.569V55.569H21.7v-.9h.9a.9.9,0,0,0,.9-.9V48.379a.9.9,0,0,0-.9-.9h-.9Zm-.9,5.392h.9v3.595h-.9Z" transform="translate(-1.519 -3.342)" fill="#707070"/>
      <path id="Path_4344" data-name="Path 4344" d="M32.088,54.177A8.088,8.088,0,1,0,24,46.088,8.1,8.1,0,0,0,32.088,54.177Zm0-14.379A6.291,6.291,0,1,1,25.8,46.088,6.3,6.3,0,0,1,32.088,39.8Z" transform="translate(-2.026 -3.748)" fill="#707070"/>
      <path id="Path_4345" data-name="Path 4345" d="M32.392,51.785A5.392,5.392,0,1,0,27,46.392,5.4,5.4,0,0,0,32.392,51.785Zm0-8.987A3.595,3.595,0,1,1,28.8,46.392,3.6,3.6,0,0,1,32.392,42.8Z" transform="translate(-2.33 -4.052)" fill="#707070"/>
      <path id="Path_4346" data-name="Path 4346" d="M20.9,26.164H40.67a.9.9,0,0,0,.9-.9V1h-1.8V24.367H21.8V1H20V25.265A.9.9,0,0,0,20.9,26.164Z" transform="translate(-1.621)" fill="#707070"/>
      <path id="Path_4347" data-name="Path 4347" d="M28.392,13.19a3.6,3.6,0,0,0,3.595-3.595,1.8,1.8,0,1,1,1.8,1.8v1.8a3.592,3.592,0,0,0,3.467-2.7h1.925V8.7H37.252a3.587,3.587,0,0,0-7.062.9,1.8,1.8,0,1,1-1.8-1.8V6a3.592,3.592,0,0,0-3.467,2.7H23v1.8h1.925A3.592,3.592,0,0,0,28.392,13.19Z" transform="translate(-1.924 -0.506)" fill="#707070"/>
      <path id="Path_4348" data-name="Path 4348" d="M23.9,22.19a1.8,1.8,0,0,1,1.8,1.8.9.9,0,0,0,.9.9h8.987a.9.9,0,0,0,.9-.9,1.8,1.8,0,0,1,1.8-1.8.9.9,0,0,0,.9-.9V15h-1.8v5.506A3.61,3.61,0,0,0,34.8,23.088H27.379A3.61,3.61,0,0,0,24.8,20.506V15H23v6.291a.9.9,0,0,0,.9.9Z" transform="translate(-1.924 -1.418)" fill="#707070"/>
      <path id="Path_4349" data-name="Path 4349" d="M31,15h1.8v1.8H31Z" transform="translate(-2.735 -1.418)" fill="#707070"/>
      <path id="Path_4350" data-name="Path 4350" d="M31,3h1.8V4.8H31Z" transform="translate(-2.735 -0.203)" fill="#707070"/>
      <path id="Path_4351" data-name="Path 4351" d="M58.514,11.845a.9.9,0,0,0-.83-.555h-2.7V5h-1.8v7.19a.9.9,0,0,0,.9.9h1.425l-3.223,3.223-3.223-3.223h1.425a.9.9,0,0,0,.9-.9V5h-1.8v6.291H46.9a.9.9,0,0,0-.635,1.534l5.392,5.392a.9.9,0,0,0,1.271,0l5.392-5.392a.9.9,0,0,0,.2-.98Z" transform="translate(-4.254 -0.405)" fill="#707070"/>
      <path id="Path_4352" data-name="Path 4352" d="M50,1h1.8V2.8H50Z" transform="translate(-4.659)" fill="#707070"/>
      <path id="Path_4353" data-name="Path 4353" d="M16.514,21.845a.9.9,0,0,0-.83-.555h-2.7V15h-1.8v7.19a.9.9,0,0,0,.9.9h1.425l-3.223,3.223L7.068,23.088H8.494a.9.9,0,0,0,.9-.9V15h-1.8v6.291H4.9a.9.9,0,0,0-.635,1.534l5.392,5.392a.9.9,0,0,0,1.271,0l5.392-5.392A.9.9,0,0,0,16.514,21.845Z" transform="translate(0 -1.418)" fill="#707070"/>
      <path id="Path_4354" data-name="Path 4354" d="M8,11H9.8v1.8H8Z" transform="translate(-0.405 -1.013)" fill="#707070"/>
    </g>
    <g id="seo-report_1_" data-name="seo-report (1)" transform="translate(874.624 439.984)">
      <g id="Group_2581" data-name="Group 2581" transform="translate(66.67)">
        <path id="Path_4355" data-name="Path 4355" d="M103.341,0H67.411a.741.741,0,0,0-.741.741v35.2a.741.741,0,1,0,1.482,0V1.482H102.6V6.14a.741.741,0,1,0,1.482,0V.741A.741.741,0,0,0,103.341,0Z" transform="translate(-66.67)" fill="#707070"/>
        <path id="Path_4356" data-name="Path 4356" d="M103.341,89.65a.741.741,0,0,0-.741.741V129.9H68.152V120.19a.741.741,0,0,0-1.482,0v10.447a.741.741,0,0,0,.741.741h35.93a.741.741,0,0,0,.741-.741V90.391A.741.741,0,0,0,103.341,89.65Z" transform="translate(-66.67 -80.792)" fill="#707070"/>
        <path id="Path_4357" data-name="Path 4357" d="M99,103.717a5.731,5.731,0,1,0,5.731-5.731A5.738,5.738,0,0,0,99,103.717Zm5.731,4.249a4.249,4.249,0,0,1-.741-8.432v4.183a.741.741,0,0,0,.741.741h4.183A4.255,4.255,0,0,1,104.727,107.967Zm4.183-4.99h-3.442V99.534A4.259,4.259,0,0,1,108.91,102.976Z" transform="translate(-95.802 -88.305)" fill="#707070"/>
        <path id="Path_4358" data-name="Path 4358" d="M103.777,432.35a.741.741,0,0,0-.741.741v3.194a.741.741,0,0,0,.741.741h4.791a.741.741,0,0,0,.741-.741v-3.194a.741.741,0,0,0-.741-.741Zm4.05,3.194h-3.309v-1.712h3.309Z" transform="translate(-99.443 -389.633)" fill="#707070"/>
        <path id="Path_4359" data-name="Path 4359" d="M184.591,393.328h4.791a.741.741,0,0,0,.741-.741V384.6a.741.741,0,0,0-.741-.741h-4.791a.741.741,0,0,0-.741.741v7.984A.741.741,0,0,0,184.591,393.328Zm.741-7.984h3.309v6.5h-3.309Z" transform="translate(-172.272 -345.936)" fill="#707070"/>
        <path id="Path_4360" data-name="Path 4360" d="M265.4,323.252a.741.741,0,0,0-.741.741v13.973a.741.741,0,0,0,.741.741h4.791a.741.741,0,0,0,.741-.741V323.993a.741.741,0,0,0-.741-.741Zm4.05,13.973h-3.309V324.734h3.309Z" transform="translate(-245.101 -291.314)" fill="#707070"/>
        <path id="Path_4361" data-name="Path 4361" d="M351.011,286.945a.741.741,0,0,0,.741-.741v-2.613a.741.741,0,0,0-.741-.741h-4.79a.741.741,0,0,0-.741.741v17.964a.741.741,0,0,0,.741.741h4.79a.741.741,0,0,0,.741-.741V289.662a.741.741,0,0,0-1.482,0v11.152h-3.308V284.332h3.308V286.2A.741.741,0,0,0,351.011,286.945Z" transform="translate(-317.933 -254.904)" fill="#707070"/>
        <path id="Path_4362" data-name="Path 4362" d="M184.4,32.325H168.428a.741.741,0,0,0-.741.741V36.26a.741.741,0,0,0,.741.741H184.4a.741.741,0,0,0,.741-.741V33.066A.741.741,0,0,0,184.4,32.325Zm-.741,3.194H169.169V33.807h14.487v1.712Z" transform="translate(-157.706 -29.131)" fill="#707070"/>
        <path id="Path_4363" data-name="Path 4363" d="M264.012,97.986H249.241a.741.741,0,0,0,0,1.482h14.771a.741.741,0,0,0,0-1.482Z" transform="translate(-230.535 -88.305)" fill="#707070"/>
        <path id="Path_4364" data-name="Path 4364" d="M264.012,131.658H249.241a.741.741,0,0,0,0,1.482h14.771a.741.741,0,0,0,0-1.482Z" transform="translate(-230.535 -118.65)" fill="#707070"/>
        <path id="Path_4365" data-name="Path 4365" d="M264.753,166.071a.741.741,0,0,0-.741-.741H249.241a.741.741,0,0,0,0,1.482h14.771A.741.741,0,0,0,264.753,166.071Z" transform="translate(-230.535 -148.995)" fill="#707070"/>
        <path id="Path_4366" data-name="Path 4366" d="M258.765,199.743a.741.741,0,0,0-.741-.741h-8.783a.741.741,0,0,0,0,1.482h8.783A.741.741,0,0,0,258.765,199.743Z" transform="translate(-230.535 -179.34)" fill="#707070"/>
        <path id="Path_4367" data-name="Path 4367" d="M126.343,248.5H112.869a.741.741,0,1,0,0,1.482h13.474a.741.741,0,0,0,0-1.482Z" transform="translate(-107.637 -223.948)" fill="#707070"/>
        <path id="Path_4368" data-name="Path 4368" d="M127.084,282.913a.741.741,0,0,0-.741-.741H112.869a.741.741,0,1,0,0,1.482h13.474A.741.741,0,0,0,127.084,282.913Z" transform="translate(-107.637 -254.293)" fill="#707070"/>
        <path id="Path_4369" data-name="Path 4369" d="M121.1,316.585a.741.741,0,0,0-.741-.741h-7.485a.741.741,0,1,0,0,1.482h7.485A.741.741,0,0,0,121.1,316.585Z" transform="translate(-107.637 -284.638)" fill="#707070"/>
      </g>
    </g>
    <g id="review_1_" data-name="review (1)" transform="translate(1150 436)">
      <g id="Group_2583" data-name="Group 2583">
        <g id="Group_2582" data-name="Group 2582">
          <path id="Path_4370" data-name="Path 4370" d="M47.258,9.845A2.954,2.954,0,0,0,44.3,6.892H40.366V8.861H44.3a.985.985,0,0,1,.985.985V36.122l-4.907-4.907A11.053,11.053,0,0,0,38.552,18c-.051-.051-.1-.1-.155-.151V.985A.985.985,0,0,0,37.413,0H16.737a.986.986,0,0,0-.156.014l-.034.005L16.5.029l-.05.013-.031.011c-.02.007-.04.013-.06.021l-.023.011c-.022.01-.043.019-.064.03l-.022.013c-.021.012-.041.023-.061.037l-.031.023c-.016.011-.031.022-.047.035s-.05.043-.073.066L9.149,7.18a.984.984,0,0,0-.288.7V27.567H6.892v1.969H20.333a11.05,11.05,0,0,0,15.809,5.917l2.94,2.944H2.954a.985.985,0,0,1-.985-.985V9.845a.985.985,0,0,1,.985-.985H6.892V6.892H2.954A2.954,2.954,0,0,0,0,9.845V37.413a2.954,2.954,0,0,0,2.954,2.954H17.181c-.479,4.733-4.406,4.918-4.875,4.923a.985.985,0,0,0,0,1.969H34.951a.985.985,0,0,0,0-1.969c-.185,0-4.374-.06-4.874-4.923H41.05l1.092,1.093a3,3,0,0,0,5.111-2.077h.005ZM30.215,45.289H17.043A7.8,7.8,0,0,0,19.2,40.366h8.857A7.794,7.794,0,0,0,30.215,45.289ZM10.83,27.567V8.284l4.923-4.923V6.892H13.784V8.861h2.954a.985.985,0,0,0,.985-.985V1.969H36.428V16.346a11.06,11.06,0,0,0-10.254-.593H13.784v1.969h9.437a11.09,11.09,0,0,0-2.263,2.954H13.784v1.969h6.37a11.109,11.109,0,0,0-.324,4.923h-9Zm10.831-1.749A9.079,9.079,0,1,1,37.2,32.2l-.083.083a9.079,9.079,0,0,1-15.457-6.461Zm17.617,7.089,1.452,1.451-1.454,1.454-1.452-1.451Zm4.256,7.164L40.668,37.2l1.454-1.454,2.866,2.866a1.026,1.026,0,0,1,.3.722v.01a1.027,1.027,0,0,1-1.754.722Z" fill="#707070"/>
          <path id="Path_4371" data-name="Path 4371" d="M279.232,205.7l1.392,1.392a5.061,5.061,0,0,1,7.148,0l1.392-1.392A7.032,7.032,0,0,0,279.232,205.7Z" transform="translate(-253.459 -184.854)" fill="#707070"/>
          <path id="Path_4372" data-name="Path 4372" d="M42.667,341.333v3.938a.985.985,0,0,0,.985.985H47.59v-1.969H44.636v-2.954H42.667Z" transform="translate(-38.729 -309.828)" fill="#707070"/>
          <rect id="Rectangle_713" data-name="Rectangle 713" width="1.969" height="1.969" transform="translate(10.83 34.459)" fill="#707070"/>
          <rect id="Rectangle_714" data-name="Rectangle 714" width="19.691" height="1.969" transform="translate(13.784 10.83)" fill="#707070"/>
        </g>
      </g>
    </g>
  </g>
</svg>
