<svg xmlns="http://www.w3.org/2000/svg" xmlns:xlink="http://www.w3.org/1999/xlink" width="1239.762" height="293.113" viewBox="0 0 1239.762 293.113">
  <defs>
    <linearGradient id="linear-gradient" x1="0.5" y1="1" x2="0.5" gradientUnits="objectBoundingBox">
      <stop offset="0" stop-color="#d6d6d6"/>
      <stop offset="0.993" stop-color="#f7f7f7"/>
    </linearGradient>
    <linearGradient id="linear-gradient-2" x1="1" y1="0.5" x2="0" y2="0.5" gradientUnits="objectBoundingBox">
      <stop offset="0" stop-color="#dedede"/>
      <stop offset="1" stop-color="#ebebeb"/>
    </linearGradient>
    <linearGradient id="linear-gradient-6" y1="0.5" x2="1" y2="0.5" gradientUnits="objectBoundingBox">
      <stop offset="0" stop-color="#f2f2f2"/>
      <stop offset="1" stop-color="#fff"/>
    </linearGradient>
  </defs>
  <g id="Group_2700" data-name="Group 2700" transform="translate(-312.5 -4544.9)">
    <text id="Cluster_In-charge" data-name="Cluster In-charge" transform="translate(777 4554)" fill="#21232a" font-size="20" font-family="HelveticaNeue-Bold, Helvetica Neue" font-weight="700"><tspan x="1.96" y="20">Cluster In-charge</tspan></text>
    <text id="State_In-carge" data-name="State In-carge" transform="translate(1026 4554)" fill="#21232a" font-size="20" font-family="HelveticaNeue-Bold, Helvetica Neue" font-weight="700"><tspan x="17.32" y="20">State In-carge</tspan></text>
    <line id="Line_139" data-name="Line 139" y2="293.113" transform="translate(983.5 4544.9)" fill="none" stroke="#707070" stroke-width="1" opacity="0.2"/>
    <line id="Line_140" data-name="Line 140" y2="293.113" transform="translate(742.5 4544.9)" fill="none" stroke="#707070" stroke-width="1" opacity="0.2"/>
    <text id="To_assess_the_performance_of_equipment_at_the_plant" data-name="To assess the performance of equipment at the plant" transform="translate(552 4635)" fill="#707070" font-size="14" font-family="HelveticaNeue, Helvetica Neue"><tspan x="27.975" y="13">To assess the </tspan><tspan x="22.662" y="29">performance of </tspan><tspan x="17.454" y="45">equipment at the </tspan><tspan x="54.939" y="61">plant</tspan></text>
    <text id="To_check_units_consumed_by_different_user_groups" data-name="To check units consumed by different user groups" transform="translate(782 4635)" fill="#707070" font-size="14" font-family="HelveticaNeue, Helvetica Neue"><tspan x="0.616" y="13">To check units consumed </tspan><tspan x="6.181" y="29">by different user groups</tspan></text>
    <text id="To_compare_technical_performance_of_multiple_plants" data-name="To compare technical performance of multiple plants" transform="translate(1029 4635)" fill="#707070" font-size="14" font-family="HelveticaNeue, Helvetica Neue"><tspan x="15.094" y="13">To compare technical </tspan><tspan x="7.576" y="29">performance of multiple </tspan><tspan x="62.939" y="45">plants</tspan></text>
    <text id="Calculating_in-plant_and_distribution_efficiency" data-name="Calculating in-plant and distribution efficiency" transform="translate(549 4747)" fill="#707070" font-size="14" font-family="HelveticaNeue, Helvetica Neue"><tspan x="12.324" y="13">Calculating in-plant </tspan><tspan x="24.245" y="29">and distribution </tspan><tspan x="43.425" y="45">efficiency</tspan></text>
    <text id="Comparing_month-on-month_electricity_demand_from_micro-enterprises" data-name="Comparing month-on-month electricity demand from micro-enterprises" transform="translate(781 4747)" fill="#707070" font-size="14" font-family="HelveticaNeue, Helvetica Neue"><tspan x="10.972" y="13">Comparing month-on-</tspan><tspan x="1.508" y="29">month electricity demand </tspan><tspan x="9.817" y="45">from micro-enterprises</tspan></text>
    <text id="Calculating_the_utilisation_of_the_plant_to_inform_whether_more_customers_can_be_connected" data-name="Calculating the utilisation of the plant to inform whether more customers can be connected" transform="translate(1029 4747)" fill="#707070" font-size="14" font-family="HelveticaNeue, Helvetica Neue"><tspan x="4.065" y="13">Calculating the utilisation </tspan><tspan x="17.148" y="29">of the plant to inform </tspan><tspan x="4.576" y="45">whether more customers </tspan></text>
    <text id="Main_Purpose" data-name="Main
Purpose" transform="translate(331 4633)" fill="#21232a" font-size="20" font-family="HelveticaNeue-Bold, Helvetica Neue" font-weight="700"><tspan x="27.18" y="20">Main</tspan><tspan x="10.68" y="45">Purpose</tspan></text>
    <text id="Example_Use_Case" data-name="Example
Use Case" transform="translate(316 4747)" fill="#21232a" font-size="20" font-family="HelveticaNeue-Bold, Helvetica Neue" font-weight="700"><tspan x="27.92" y="20">Example</tspan><tspan x="23.44" y="45">Use Case</tspan></text>
    <line id="Line_141" data-name="Line 141" x1="914" transform="translate(312.5 4722.5)" fill="none" stroke="#707070" stroke-width="1" opacity="0.2"/>
    <text id="Technician" transform="translate(565 4554)" fill="#21232a" font-size="20" font-family="HelveticaNeue-Bold, Helvetica Neue" font-weight="700"><tspan x="6.59" y="20">Technician</tspan></text>
    <line id="Line_142" data-name="Line 142" y2="293.113" transform="translate(501.5 4544.9)" fill="none" stroke="#707070" stroke-width="1" opacity="0.2"/>
    <g id="Group_2699" data-name="Group 2699" transform="translate(1773.83 3595.786)" opacity="0.56">
      <g id="Group_2697" data-name="Group 2697" transform="translate(-516.831 961.857)">
        <g id="Group_2692" data-name="Group 2692">
          <g id="Group_2679" data-name="Group 2679" transform="translate(46.733 87.473)">
            <g id="Group_2677" data-name="Group 2677">
              <path id="Path_4634" data-name="Path 4634" d="M-439.8,1086.671h-2.411l-1.683,87.517h5.707Z" transform="translate(475.876 -1039.441)" fill="#fff"/>
              <path id="Path_4635" data-name="Path 4635" d="M-442.57,1077.284l-3.429,5.656a2.018,2.018,0,0,0,1.726,3.063h6.856a2.017,2.017,0,0,0,1.725-3.063l-3.428-5.656A2.018,2.018,0,0,0-442.57,1077.284Z" transform="translate(475.686 -1040.261)" fill="#e0e0e0"/>
              <g id="Group_2674" data-name="Group 2674" transform="translate(0 45.008)">
                <path id="Path_4636" data-name="Path 4636" d="M-456.917,1090.21l12.37-5.6-28.292,19.788a.434.434,0,0,1-.524-.692Z" transform="translate(473.528 -1084.612)" fill="#fff"/>
                <path id="Path_4637" data-name="Path 4637" d="M-454.085,1094.311l9.5-9.7-28.292,19.788a.435.435,0,0,0,.471.731Z" transform="translate(473.565 -1084.612)" fill="#f2f2f2"/>
              </g>
              <g id="Group_2675" data-name="Group 2675" transform="translate(40.7 45.008)">
                <path id="Path_4638" data-name="Path 4638" d="M-423.446,1090.21l-12.37-5.6,28.292,19.788a.435.435,0,0,0,.526-.692Z" transform="translate(435.816 -1084.612)" fill="#f2f2f2"/>
                <path id="Path_4639" data-name="Path 4639" d="M-426.314,1094.311l-9.5-9.7,28.292,19.788a.435.435,0,0,1-.469.731Z" transform="translate(435.816 -1084.612)" fill="#fff"/>
              </g>
              <g id="Group_2676" data-name="Group 2676" transform="translate(32.341)">
                <path id="Path_4640" data-name="Path 4640" d="M-438.74,1064.523l-2.5,13.346v-34.526a.435.435,0,0,1,.869-.034Z" transform="translate(443.745 -1042.908)" fill="#fff"/>
                <path id="Path_4641" data-name="Path 4641" d="M-443.561,1064.523l2.5,13.346v-34.526a.434.434,0,0,0-.868-.034Z" transform="translate(443.561 -1042.908)" fill="#f2f2f2"/>
              </g>
            </g>
            <g id="Group_2678" data-name="Group 2678" transform="translate(29.393 36.052)">
              <path id="Path_4642" data-name="Path 4642" d="M-443.2,1082.883a6.348,6.348,0,0,0,3.576-2.008,4.969,4.969,0,0,0,1.136-2.511l-.653-1.079a2.018,2.018,0,0,0-3.45,0l-3.411,5.629A7.623,7.623,0,0,0-443.2,1082.883Z" transform="translate(446.316 -1076.313)" fill="none"/>
              <path id="Path_4643" data-name="Path 4643" d="M-443.178,1082.733a7.623,7.623,0,0,1-2.8.03l-.016.027a2.017,2.017,0,0,0,1.725,3.063h6.856a2.017,2.017,0,0,0,1.725-3.063l-2.775-4.577a4.97,4.97,0,0,1-1.136,2.511A6.348,6.348,0,0,1-443.178,1082.733Z" transform="translate(446.293 -1076.162)" fill="#d6d6d6"/>
            </g>
          </g>
          <g id="Group_2685" data-name="Group 2685">
            <g id="Group_2683" data-name="Group 2683">
              <path id="Path_4644" data-name="Path 4644" d="M-463.705,1030.72h-3.655l-2.552,147.9h8.654Z" transform="translate(520.548 -956.401)" fill="#fff"/>
              <path id="Path_4645" data-name="Path 4645" d="M-467.913,1016.487l-5.2,8.577a3.058,3.058,0,0,0,2.615,4.644h10.4a3.058,3.058,0,0,0,2.616-4.644l-5.2-8.577A3.058,3.058,0,0,0-467.913,1016.487Z" transform="translate(520.259 -957.645)" fill="#e0e0e0"/>
              <g id="Group_2680" data-name="Group 2680" transform="translate(0 70.95)">
                <path id="Path_4646" data-name="Path 4646" d="M-489.509,1036.086l18.757-8.488-45.2,31.616a.551.551,0,0,1-.666-.877Z" transform="translate(516.831 -1027.598)" fill="#fff"/>
                <path id="Path_4647" data-name="Path 4647" d="M-485.206,1042.306-470.8,1027.6l-45.2,31.616a.551.551,0,0,0,.6.926Z" transform="translate(516.877 -1027.598)" fill="#f2f2f2"/>
              </g>
              <g id="Group_2681" data-name="Group 2681" transform="translate(63.847 70.95)">
                <path id="Path_4648" data-name="Path 4648" d="M-438.914,1036.086l-18.757-8.488,45.2,31.616a.551.551,0,0,0,.665-.877Z" transform="translate(457.671 -1027.598)" fill="#f2f2f2"/>
                <path id="Path_4649" data-name="Path 4649" d="M-443.264,1042.306l-14.407-14.708,45.2,31.616a.551.551,0,0,1-.6.926Z" transform="translate(457.671 -1027.598)" fill="#fff"/>
              </g>
              <g id="Group_2682" data-name="Group 2682" transform="translate(51.171)">
                <path id="Path_4650" data-name="Path 4650" d="M-462.105,997.336l-3.795,20.235V962.408a.551.551,0,0,1,1.1-.042Z" transform="translate(469.695 -961.857)" fill="#fff"/>
                <path id="Path_4651" data-name="Path 4651" d="M-469.416,997.336l3.795,20.235V962.408a.551.551,0,0,0-1.1-.042Z" transform="translate(469.416 -961.857)" fill="#f2f2f2"/>
              </g>
            </g>
            <g id="Group_2684" data-name="Group 2684" transform="translate(46.701 57.369)">
              <path id="Path_4652" data-name="Path 4652" d="M-468.87,1024.976a9.617,9.617,0,0,0,5.422-3.046,7.532,7.532,0,0,0,1.724-3.807l-.992-1.636a3.058,3.058,0,0,0-5.231,0l-5.173,8.536A11.553,11.553,0,0,0-468.87,1024.976Z" transform="translate(473.593 -1015.014)" fill="none"/>
              <path id="Path_4653" data-name="Path 4653" d="M-468.835,1024.748a11.553,11.553,0,0,1-4.25.046l-.025.041a3.058,3.058,0,0,0,2.616,4.644h10.4a3.058,3.058,0,0,0,2.616-4.644l-4.207-6.941a7.532,7.532,0,0,1-1.724,3.807A9.617,9.617,0,0,1-468.835,1024.748Z" transform="translate(473.558 -1014.786)" fill="#d6d6d6"/>
            </g>
          </g>
          <g id="Group_2691" data-name="Group 2691" transform="translate(3.648 133.085)">
            <g id="Group_2689" data-name="Group 2689">
              <path id="Path_4654" data-name="Path 4654" d="M-491.051,1114.312h-1.8L-494.1,1172h4.251Z" transform="translate(514.983 -1082.863)" fill="#fff"/>
              <path id="Path_4655" data-name="Path 4655" d="M-493.117,1107.32l-2.553,4.213a1.5,1.5,0,0,0,1.284,2.281h5.108a1.5,1.5,0,0,0,1.284-2.281l-2.553-4.213A1.5,1.5,0,0,0-493.117,1107.32Z" transform="translate(514.841 -1083.475)" fill="#e0e0e0"/>
              <g id="Group_2686" data-name="Group 2686" transform="translate(0 29.793)">
                <path id="Path_4656" data-name="Path 4656" d="M-504.021,1116.948l9.216-4.17-17.894,12.515a.473.473,0,0,1-.572-.753Z" transform="translate(513.45 -1112.778)" fill="#fff"/>
                <path id="Path_4657" data-name="Path 4657" d="M-501.924,1120l7.079-7.226-17.894,12.515a.473.473,0,0,0,.512.8Z" transform="translate(513.49 -1112.778)" fill="#f2f2f2"/>
              </g>
              <g id="Group_2687" data-name="Group 2687" transform="translate(27.374 29.793)">
                <path id="Path_4658" data-name="Path 4658" d="M-478.872,1116.948l-9.214-4.17,17.893,12.515a.473.473,0,0,0,.572-.753Z" transform="translate(488.086 -1112.778)" fill="#f2f2f2"/>
                <path id="Path_4659" data-name="Path 4659" d="M-481.008,1120l-7.078-7.226,17.893,12.515a.473.473,0,0,1-.512.8Z" transform="translate(488.086 -1112.778)" fill="#fff"/>
              </g>
              <g id="Group_2688" data-name="Group 2688" transform="translate(21.147)">
                <path id="Path_4660" data-name="Path 4660" d="M-490.264,1097.539l-1.865,9.942v-21.836a.473.473,0,0,1,.945-.036Z" transform="translate(493.993 -1085.172)" fill="#fff"/>
                <path id="Path_4661" data-name="Path 4661" d="M-493.856,1097.539l1.864,9.942v-21.836a.473.473,0,0,0-.944-.036Z" transform="translate(493.856 -1085.172)" fill="#f2f2f2"/>
              </g>
            </g>
            <g id="Group_2690" data-name="Group 2690" transform="translate(18.95 23.121)">
              <path id="Path_4662" data-name="Path 4662" d="M-493.588,1111.49a4.725,4.725,0,0,0,2.664-1.5,3.7,3.7,0,0,0,.847-1.87l-.488-.8a1.5,1.5,0,0,0-2.57,0l-2.542,4.193A5.684,5.684,0,0,0-493.588,1111.49Z" transform="translate(495.908 -1106.596)" fill="none"/>
              <path id="Path_4663" data-name="Path 4663" d="M-493.571,1111.378a5.684,5.684,0,0,1-2.088.023l-.012.021a1.5,1.5,0,0,0,1.284,2.281h5.108a1.5,1.5,0,0,0,1.284-2.281l-2.066-3.41a3.7,3.7,0,0,1-.847,1.87A4.725,4.725,0,0,1-493.571,1111.378Z" transform="translate(495.891 -1106.484)" fill="#d6d6d6"/>
            </g>
          </g>
        </g>
        <g id="Group_2693" data-name="Group 2693" transform="translate(133.318 113.559)">
          <rect id="Rectangle_851" data-name="Rectangle 851" width="107.611" height="76.617" transform="translate(0 0)" fill="#fff"/>
          <path id="Path_4664" data-name="Path 4664" d="M-393.3,1143.7h107.611v-76.617Z" transform="translate(393.3 -1067.079)" fill="#f7f7f7"/>
          <path id="Path_4665" data-name="Path 4665" d="M-288.861,1067.079H-393.3v24.83h0v2.2h0v22.558h0v2.2h0V1143.7h107.611v-76.617Zm-18.909,3.172v21.658h-19.683v-21.658Zm18.909,46.416H-305.57v-22.558h16.709Zm-18.909,0h-19.683v-22.558h19.683Zm-41.565-22.558h19.682v22.558h-19.682Zm-2.2,22.558h-19.683v-22.558h19.683Zm21.882-46.416v21.658h-19.682v-21.658Zm-21.882,0v21.658h-19.683v-21.658Zm-38.592,0h16.71v21.658h-16.71Zm0,23.858h16.71v22.558h-16.71Zm0,46.417v-21.658h16.71v21.658Zm18.909,0v-21.658h19.683v21.658Zm21.884,0v-21.658h19.682v21.658Zm21.882,0v-21.658h19.683v21.658Zm21.883,0v-21.658h16.709v21.658Zm16.709-48.616H-305.57v-21.658h16.709Z" transform="translate(393.3 -1067.079)" fill="url(#linear-gradient)"/>
          <path id="Path_4666" data-name="Path 4666" d="M-336.425,1161.461H-348.5a7.369,7.369,0,0,0-7.369,7.368h26.808A7.368,7.368,0,0,0-336.425,1161.461Z" transform="translate(396.266 -1059.601)" fill="#d6d6d6"/>
          <rect id="Rectangle_852" data-name="Rectangle 852" width="3.709" height="28.334" transform="translate(51.951 75.032)" fill="#d6d6d6"/>
        </g>
        <g id="Group_2696" data-name="Group 2696" transform="translate(260.874 144.543)">
          <g id="Group_2694" data-name="Group 2694">
            <path id="Path_4667" data-name="Path 4667" d="M-274.839,1128.67a4.1,4.1,0,0,1,5.294-2.382l26.177,12.074a4.1,4.1,0,0,1,2.381,5.294h0a4.1,4.1,0,0,1-5.294,2.382l-26.177-12.074a4.1,4.1,0,0,1-2.381-5.294Z" transform="translate(275.108 -1093.393)" fill="url(#linear-gradient-2)"/>
            <path id="Path_4668" data-name="Path 4668" d="M-269.546,1116.212l26.177,12.073a4.1,4.1,0,0,1,2.381,5.295h0a4.1,4.1,0,0,1-5.294,2.381l-26.177-12.073a4.1,4.1,0,0,1-2.381-5.295A4.1,4.1,0,0,1-269.546,1116.212Z" transform="translate(275.108 -1094.192)" fill="url(#linear-gradient-2)"/>
            <path id="Path_4669" data-name="Path 4669" d="M-274.839,1108.516a4.1,4.1,0,0,1,5.294-2.382l26.177,12.074a4.1,4.1,0,0,1,2.381,5.294h0a4.1,4.1,0,0,1-5.294,2.382l-26.177-12.074a4.1,4.1,0,0,1-2.381-5.293Z" transform="translate(275.108 -1094.99)" fill="url(#linear-gradient-2)"/>
            <path id="Path_4670" data-name="Path 4670" d="M-240.988,1113.425a4.1,4.1,0,0,1-5.294,2.381l-26.177-12.073a4.1,4.1,0,0,1-2.381-5.295,4.1,4.1,0,0,1,5.294-2.381l26.177,12.073a4.1,4.1,0,0,1,2.381,5.295Z" transform="translate(275.108 -1095.789)" fill="url(#linear-gradient-2)"/>
          </g>
          <path id="Path_4671" data-name="Path 4671" d="M-246.282,1127.353l-26.177,9.729a4.1,4.1,0,0,0-2.381,5.295h0a4.1,4.1,0,0,0,5.294,2.381l26.177-9.729a4.1,4.1,0,0,0,2.381-5.293h0A4.1,4.1,0,0,0-246.282,1127.353Z" transform="translate(275.108 -1093.309)" fill="url(#linear-gradient-6)"/>
          <path id="Path_4672" data-name="Path 4672" d="M-246.282,1117.276l-26.177,9.729a4.1,4.1,0,0,0-2.381,5.294h0a4.1,4.1,0,0,0,5.294,2.382l26.177-9.729a4.1,4.1,0,0,0,2.381-5.295h0A4.1,4.1,0,0,0-246.282,1117.276Z" transform="translate(275.108 -1094.108)" fill="url(#linear-gradient-6)"/>
          <path id="Path_4673" data-name="Path 4673" d="M-246.282,1107.2l-26.177,9.729a4.1,4.1,0,0,0-2.381,5.295h0a4.1,4.1,0,0,0,5.294,2.381l26.177-9.729a4.1,4.1,0,0,0,2.381-5.294h0A4.1,4.1,0,0,0-246.282,1107.2Z" transform="translate(275.108 -1094.906)" fill="url(#linear-gradient-6)"/>
          <path id="Path_4674" data-name="Path 4674" d="M-246.282,1097.121l-26.177,9.729a4.1,4.1,0,0,0-2.381,5.294h0a4.1,4.1,0,0,0,5.294,2.382l26.177-9.729a4.1,4.1,0,0,0,2.381-5.295h0A4.1,4.1,0,0,0-246.282,1097.121Z" transform="translate(275.108 -1095.704)" fill="url(#linear-gradient-6)"/>
          <path id="Rectangle_853" data-name="Rectangle 853" d="M0,0H25.516a0,0,0,0,1,0,0V4.169A11.821,11.821,0,0,1,13.694,15.991H11.821A11.821,11.821,0,0,1,0,4.169V0A0,0,0,0,1,0,0Z" transform="translate(4.436 53.291)" fill="#fff"/>
          <rect id="Rectangle_854" data-name="Rectangle 854" width="10.791" height="1.17" rx="0.542" transform="translate(11.798 70.163)" fill="#d6d6d6"/>
          <rect id="Rectangle_855" data-name="Rectangle 855" width="10.791" height="1.17" rx="0.542" transform="translate(11.798 71.896)" fill="#d6d6d6"/>
          <rect id="Rectangle_856" data-name="Rectangle 856" width="10.791" height="1.17" rx="0.542" transform="translate(11.798 73.63)" fill="#d6d6d6"/>
          <rect id="Rectangle_857" data-name="Rectangle 857" width="10.791" height="1.17" rx="0.542" transform="translate(11.798 75.363)" fill="#d6d6d6"/>
          <path id="Path_4675" data-name="Path 4675" d="M-256.165,1168.395h-5.23a3.891,3.891,0,0,1-2.738-1.128l-.043-.042h10.792l-.043.042A3.891,3.891,0,0,1-256.165,1168.395Z" transform="translate(275.974 -1090.129)" fill="#d6d6d6"/>
          <g id="Group_2695" data-name="Group 2695" transform="translate(7.169 53.292)">
            <path id="Path_4676" data-name="Path 4676" d="M-247.822,1145.168v1.093a12.757,12.757,0,0,1-12.758,12.757h0a12.7,12.7,0,0,1-7.886-2.733,12.733,12.733,0,0,0,10.025,4.872h0a12.757,12.757,0,0,0,12.758-12.758v-3.232Z" transform="translate(268.465 -1145.168)" fill="#f7f7f7"/>
          </g>
          <rect id="Rectangle_858" data-name="Rectangle 858" width="27.862" height="2.25" transform="translate(3.263 53.291)" fill="#f7f7f7"/>
        </g>
      </g>
      <g id="Group_2698" data-name="Group 2698" transform="translate(-516.831 961.857)" opacity="0.18" style="mix-blend-mode: multiply;isolation: isolate">
        <path id="Path_4677" data-name="Path 4677" d="M-442.206,1086.671l-1.683,87.517h5.707l-1.613-87.517Z" transform="translate(522.61 -951.968)" fill="#848484"/>
        <path id="Path_4678" data-name="Path 4678" d="M-462.291,1098.891l-1.128-68.171h-3.655l-1.262,73.132-5.027,4.126a.434.434,0,0,0,.524.692.435.435,0,0,0,.471.731l3.977-2.348-1.235,71.569h8.653l-1.244-75.216,8.169-4.824,9.5-9.7-12.37,5.6Z" transform="translate(520.261 -956.401)" fill="#848484"/>
        <path id="Path_4679" data-name="Path 4679" d="M-423.446,1090.21l-12.37-5.6,9.5,9.7,18.321,10.819a.435.435,0,0,0,.469-.731.435.435,0,0,0,.526-.692Z" transform="translate(523.249 -952.131)" fill="#848484"/>
        <path id="Path_4680" data-name="Path 4680" d="M-435.692,1082.941l-1.114-1.837-2.021-3.336-.292-.484a2.018,2.018,0,0,0-3.45,0l-3.411,5.629-.011.016-.006.011a2.067,2.067,0,0,0-.223.518,1.974,1.974,0,0,0-.071.528,2.02,2.02,0,0,0,2.02,2.017h6.856a2,2,0,0,0,1.757-1.027,2.006,2.006,0,0,0,.192-1.517A2.072,2.072,0,0,0-435.692,1082.941Z" transform="translate(522.419 -952.789)" fill="#848484"/>
        <path id="Path_4681" data-name="Path 4681" d="M-470.752,1027.6l-18.757,8.489-27.112,22.249a.551.551,0,0,0,.666.877.551.551,0,0,0,.6.926l30.2-17.834Z" transform="translate(516.831 -956.648)" fill="#848484"/>
        <path id="Path_4682" data-name="Path 4682" d="M-439.865,1044.313a.427.427,0,0,0-.077.243.434.434,0,0,0-.868-.034l-1.634,21.213,2.5,13.346,2.5-13.346-1.613-20.943,25.988,15.347a.551.551,0,0,0,.6-.926.551.551,0,0,0,.665-.877l-27.111-22.249-18.757-8.489,14.407,14.708Z" transform="translate(521.518 -956.648)" fill="#848484"/>
        <path id="Path_4683" data-name="Path 4683" d="M-461.827,997.336l-2.694-34.97a.551.551,0,0,0-1.1.043.551.551,0,0,0-1.1-.043l-2.694,34.97,3.795,20.235Z" transform="translate(520.587 -961.857)" fill="#848484"/>
        <path id="Path_4684" data-name="Path 4684" d="M-470.494,1029.707h10.4a3.058,3.058,0,0,0,2.616-4.644l-1.987-3.278-3.212-5.3a2.9,2.9,0,0,0-.287-.357,3.042,3.042,0,0,0-4.944.357l-5.173,8.536-.008.012-.017.029a3.046,3.046,0,0,0-.408,1.118A3.06,3.06,0,0,0-470.494,1029.707Z" transform="translate(520.259 -957.645)" fill="#848484"/>
        <path id="Path_4685" data-name="Path 4685" d="M-492.846,1114.312-494.1,1172h4.251l-1.2-57.686Z" transform="translate(518.631 -949.778)" fill="#848484"/>
        <path id="Path_4686" data-name="Path 4686" d="M-513.271,1124.54a.473.473,0,0,0,.572.753.473.473,0,0,0,.512.8l10.3-6.085,7.079-7.226-9.216,4.17Z" transform="translate(517.098 -949.9)" fill="#848484"/>
        <path id="Path_4687" data-name="Path 4687" d="M-478.872,1116.948l-9.214-4.17,7.078,7.226,10.3,6.085a.473.473,0,0,0,.512-.8.473.473,0,0,0,.572-.753Z" transform="translate(519.108 -949.9)" fill="#848484"/>
        <path id="Path_4688" data-name="Path 4688" d="M-491.992,1085.645a.473.473,0,0,0-.944-.036l-.919,11.93,1.864,9.942,1.865-9.942-.919-11.93A.473.473,0,0,0-491.992,1085.645Z" transform="translate(518.651 -952.087)" fill="#848484"/>
        <path id="Path_4689" data-name="Path 4689" d="M-490.06,1108.123l-.488-.8a1.49,1.49,0,0,0-.2-.255c-.018-.019-.031-.044-.05-.062a1.5,1.5,0,0,0-2.316.317l-2.415,3.985-.138.229a1.47,1.47,0,0,0-.167.385,1.479,1.479,0,0,0,0,.776,1.521,1.521,0,0,0,.674.9,1.492,1.492,0,0,0,.779.216h5.108a1.489,1.489,0,0,0,1.309-.765,1.512,1.512,0,0,0,.2-.738,1.477,1.477,0,0,0-.22-.778Z" transform="translate(518.49 -950.39)" fill="#848484"/>
        <path id="Path_4690" data-name="Path 4690" d="M-288.861,1067.079H-393.3v24.83h0v2.2h0v22.558h0v2.2h0V1143.7h51.951v25.242h-4.181a7.368,7.368,0,0,0-7.368,7.368h26.807a7.368,7.368,0,0,0-7.368-7.368h-4.181V1143.7h51.951v-76.617h-3.172Z" transform="translate(526.618 -953.521)" fill="#848484"/>
        <path id="Path_4691" data-name="Path 4691" d="M-240.751,1111.6a4.171,4.171,0,0,0-.071-.527c-.011-.046-.025-.091-.037-.136a4.041,4.041,0,0,0-.129-.479,4.083,4.083,0,0,0-2.65-2.456l-3.634-1.675,3.9-1.451a4.1,4.1,0,0,0,2.381-5.295,4.1,4.1,0,0,0-5.294-2.381l-11.5,4.276-11.759-5.424a4.1,4.1,0,0,0-5.294,2.381,4.1,4.1,0,0,0,2.381,5.295l3.844,1.773-3.844,1.429c-.035.013-.063.035-.1.049a4.053,4.053,0,0,0-.427.213c-.1.055-.2.106-.294.168a4.114,4.114,0,0,0-.346.27c-.093.078-.188.15-.273.235a4.067,4.067,0,0,0-.273.317c-.08.1-.163.193-.233.3s-.133.226-.2.342a4.11,4.11,0,0,0-.188.378c-.016.039-.041.071-.055.11-.031.082-.042.166-.067.248a3.954,3.954,0,0,0-.112.417,3.638,3.638,0,0,0-.052.389c-.014.134-.025.268-.026.4s.012.271.026.406.026.257.052.386a4.067,4.067,0,0,0,.112.419c.026.082.036.165.067.246.014.039.039.071.054.11a4.124,4.124,0,0,0,.19.379c.063.117.122.233.194.341s.153.2.233.3a3.86,3.86,0,0,0,.274.318c.084.084.179.157.272.234a4.27,4.27,0,0,0,.345.271c.094.062.2.112.3.167a3.942,3.942,0,0,0,.426.214c.033.014.062.034.1.047l3.844,1.773-3.844,1.429c-.035.013-.063.035-.1.049a4.188,4.188,0,0,0-.425.213c-.1.055-.2.106-.3.168a4.115,4.115,0,0,0-.345.271c-.093.077-.188.15-.273.234a4.109,4.109,0,0,0-.273.318c-.08.1-.163.193-.233.3s-.133.226-.2.341-.134.247-.188.378c-.016.039-.041.071-.055.11-.031.082-.042.166-.067.249a3.929,3.929,0,0,0-.112.416,3.689,3.689,0,0,0-.052.39c-.014.134-.025.266-.026.4s.012.271.026.406.026.258.052.386a4,4,0,0,0,.112.419c.026.082.036.165.067.247.014.039.039.071.054.109a4.115,4.115,0,0,0,.19.38c.063.115.122.232.194.34s.153.2.233.3a3.687,3.687,0,0,0,.274.318c.084.085.18.158.272.235a4.129,4.129,0,0,0,.345.27c.094.063.2.113.3.169a4.188,4.188,0,0,0,.424.212c.033.014.063.036.1.048l3.844,1.773-3.844,1.429c-.035.013-.063.035-.1.047a4.086,4.086,0,0,0-.427.214c-.1.055-.2.106-.294.167a4.262,4.262,0,0,0-.346.271c-.093.078-.188.15-.272.234a4.135,4.135,0,0,0-.275.319c-.08.1-.162.192-.232.3s-.133.225-.2.342a4.2,4.2,0,0,0-.188.377c-.016.039-.041.071-.055.111-.031.082-.042.166-.067.249a3.907,3.907,0,0,0-.112.414,3.7,3.7,0,0,0-.052.39c-.014.134-.025.268-.026.4s.012.271.026.406.026.257.052.386a3.982,3.982,0,0,0,.112.418c.026.082.036.166.067.247.014.039.039.071.054.11.055.131.122.254.19.379s.122.233.194.34.153.2.233.3a4.072,4.072,0,0,0,.274.318c.084.084.179.156.272.234.113.094.224.189.345.271.094.062.2.113.3.168a4.214,4.214,0,0,0,.425.213c.035.013.063.035.1.047l3.844,1.773-3.844,1.429a4.1,4.1,0,0,0-2.381,5.295,4.1,4.1,0,0,0,5.294,2.381l11.446-4.254,11.818,5.451a4.1,4.1,0,0,0,5.294-2.382h0a4.1,4.1,0,0,0-2.381-5.294l-3.9-1.8,3.316-1.232a4.1,4.1,0,0,0,2.967-2.549h0a3.824,3.824,0,0,0,.128-.478c.012-.047.027-.092.038-.138a4.184,4.184,0,0,0,.071-.524c.01-.115.019-.227.021-.341s-.011-.227-.021-.34a4.177,4.177,0,0,0-.071-.526c-.011-.046-.025-.091-.037-.136a3.973,3.973,0,0,0-.129-.479,4.08,4.08,0,0,0-2.651-2.456l-3.633-1.675,3.316-1.234a4.092,4.092,0,0,0,2.967-2.549h0a3.824,3.824,0,0,0,.128-.478c.012-.047.027-.091.038-.138a4.132,4.132,0,0,0,.071-.524c.01-.113.019-.226.021-.34s-.011-.227-.021-.34a4.2,4.2,0,0,0-.071-.527c-.011-.045-.025-.089-.037-.136a4.1,4.1,0,0,0-.129-.479h0a4.079,4.079,0,0,0-2.65-2.455l-3.634-1.676,3.316-1.233a4.094,4.094,0,0,0,2.967-2.549h0a3.826,3.826,0,0,0,.128-.478c.013-.046.027-.092.038-.138a4.187,4.187,0,0,0,.071-.524c.01-.113.019-.226.021-.341S-240.741,1111.716-240.751,1111.6Zm-14.806,21.675-2.23.829-2.542-1.173,2.229-.828Zm0-10.875-2.23.829-2.542-1.173,2.229-.829Zm-4.771-11.22,2.229-.829,2.543,1.172-2.23.829Z" transform="translate(535.982 -951.246)" fill="#848484"/>
        <path id="Path_4692" data-name="Path 4692" d="M-253.969,1160.8h-9.621a.586.586,0,0,0-.586.585.585.585,0,0,0,.586.585h9.621a.585.585,0,0,0,.585-.585h0A.585.585,0,0,0-253.969,1160.8Z" transform="translate(536.848 -946.095)" fill="#848484"/>
        <path id="Path_4693" data-name="Path 4693" d="M-253.969,1162.407h-9.621a.586.586,0,0,0-.586.585.586.586,0,0,0,.586.585h9.621a.585.585,0,0,0,.585-.585A.585.585,0,0,0-253.969,1162.407Z" transform="translate(536.848 -945.968)" fill="#848484"/>
        <path id="Path_4694" data-name="Path 4694" d="M-253.969,1164.013h-9.621a.586.586,0,0,0-.586.585.586.586,0,0,0,.586.585h9.621a.585.585,0,0,0,.585-.585A.585.585,0,0,0-253.969,1164.013Z" transform="translate(536.848 -945.841)" fill="#848484"/>
        <path id="Path_4695" data-name="Path 4695" d="M-253.969,1165.619h-9.621a.585.585,0,0,0-.586.585.586.586,0,0,0,.586.585h9.621a.585.585,0,0,0,.585-.585A.585.585,0,0,0-253.969,1165.619Z" transform="translate(536.848 -945.713)" fill="#848484"/>
        <path id="Path_4696" data-name="Path 4696" d="M-264.133,1167.267a3.891,3.891,0,0,0,2.738,1.128h5.23a3.891,3.891,0,0,0,2.738-1.128l.043-.043h-10.792Z" transform="translate(536.848 -945.586)" fill="#848484"/>
        <path id="Path_4697" data-name="Path 4697" d="M-270.911,1145.167h-1.173v2.25h1.173v.983a12.69,12.69,0,0,0,2.752,7.9l-.019-.014c.018.023.039.042.057.065q.4.5.84.953c.016.016.029.033.045.05a12.517,12.517,0,0,0,1.032.939c.017.014.037.026.054.04a12.515,12.515,0,0,0,1.02.741c.1.068.211.129.317.193.274.168.551.329.839.476.137.071.277.136.418.2.268.125.539.242.816.349.155.06.312.119.471.173.276.095.557.176.842.251.163.043.324.088.489.126.307.068.62.119.935.165.147.022.29.05.438.067a13,13,0,0,0,1.414.082h0a12.844,12.844,0,0,0,2.571-.259q.623-.128,1.223-.314a12.72,12.72,0,0,0,2.288-.967q.542-.295,1.051-.639A12.743,12.743,0,0,0-245.4,1148.4v-.983h1.173v-2.25h-26.688Z" transform="translate(536.221 -947.334)" fill="#848484"/>
      </g>
    </g>
  </g>
</svg>
