<svg xmlns="http://www.w3.org/2000/svg" width="856.54" height="381.054" viewBox="0 0 856.54 381.054">
  <g id="Group_2663" data-name="Group 2663" transform="translate(-659 -1401.474)">
    <g id="Group_514" data-name="Group 514" transform="translate(4 520)">
      <text id="Main_Purpose" data-name="Main
Purpose" transform="translate(680 998)" fill="#21232a" font-size="20" font-family="HelveticaNeue-Bold, Helvetica Neue" font-weight="700"><tspan x="21.18" y="20">Main</tspan><tspan x="4.68" y="45">Purpose</tspan></text>
      <text id="Example_Use_Case" data-name="Example
Use Case" transform="translate(673 1135)" fill="#21232a" font-size="20" font-family="HelveticaNeue-Bold, Helvetica Neue" font-weight="700"><tspan x="10.42" y="20">Example</tspan><tspan x="5.94" y="45">Use Case</tspan></text>
      <line id="Line_158" data-name="Line 158" y2="381.054" transform="translate(791.5 881.474)" fill="none" stroke="#707070" stroke-width="1" opacity="0.2"/>
      <line id="Line_159" data-name="Line 159" x1="601.5" transform="translate(655 1083.5)" fill="none" stroke="#707070" stroke-width="1" opacity="0.2"/>
      <text id="To_register_a_plant_maintenance_activity" data-name="To register a plant maintenance activity" transform="translate(832 998)" fill="#707070" font-size="14" font-family="HelveticaNeue, Helvetica Neue"><tspan x="16.752" y="13">To register a plant </tspan><tspan x="8.317" y="28">maintenance activity</tspan></text>
      <text id="Same_as_Cluster_In-charge" data-name="Same as Cluster
In-charge" transform="translate(1052 998)" fill="#707070" font-size="14" font-family="HelveticaNeue, Helvetica Neue"><tspan x="26.529" y="13">Same as Cluster</tspan><tspan x="48.25" y="28">In-charge</tspan></text>
      <text id="Creating_a_log_of_DG_servicing_or_PV_panel_repair" data-name="Creating a log of DG servicing or PV panel repair" transform="translate(832 1135)" fill="#707070" font-size="14" font-family="HelveticaNeue, Helvetica Neue"><tspan x="8.59" y="13">Creating a log of DG </tspan><tspan x="6.518" y="28">servicing or PV panel </tspan><tspan x="54.741" y="43">repair</tspan></text>
      <text id="Same_as_Cluster_In-charge-2" data-name="Same as Cluster
In-charge" transform="translate(1043 1135)" fill="#707070" font-size="14" font-family="HelveticaNeue, Helvetica Neue"><tspan x="35.529" y="13">Same as Cluster</tspan><tspan x="57.25" y="28">In-charge</tspan></text>
      <line id="Line_157" data-name="Line 157" y2="381.054" transform="translate(1016.5 881.474)" fill="none" stroke="#707070" stroke-width="1" opacity="0.2"/>
      <text id="State_In-charge" data-name="State In-charge" transform="translate(1038 908)" fill="#21232a" font-size="20" font-family="HelveticaNeue-Bold, Helvetica Neue" font-weight="700"><tspan x="18.39" y="20">State In-charge</tspan></text>
      <text id="Cluster_In-charge" data-name="Cluster In-charge" transform="translate(812 908)" fill="#21232a" font-size="20" font-family="HelveticaNeue-Bold, Helvetica Neue" font-weight="700"><tspan x="8.96" y="20">Cluster In-charge</tspan></text>
    </g>
    <g id="power-plant_3_" data-name="power-plant (3)" transform="translate(1261.417 1453.173)">
      <path id="Path_4522" data-name="Path 4522" d="M228.043,46.6c0,50.347,26.08,84.921,26.08,109.181s-13.946,75.211-125.551,75.211S.583,162.444.583,135.76c0-124.954,227.46-178.329,227.46-89.164Z" transform="translate(0 0)" fill="#efefef"/>
      <g id="Group_2662" data-name="Group 2662" transform="translate(177.586 43.149)">
        <path id="Path_4523" data-name="Path 4523" d="M0,0H7.279V14.557H0Z" transform="translate(0 5.146) rotate(-45)" fill="#a4afc1"/>
        <path id="Path_4524" data-name="Path 4524" d="M0,0H7.279V14.557H0Z" transform="translate(29.59 34.741) rotate(-45)" fill="#a4afc1"/>
        <path id="Path_4525" data-name="Path 4525" d="M0,0H14.557V7.279H0Z" transform="translate(28.318 10.332) rotate(-45)" fill="#a4afc1"/>
      </g>
      <path id="Path_4526" data-name="Path 4526" d="M115.931,77.619H6.75V30.307A14.6,14.6,0,0,1,21.307,15.75h80.066a14.553,14.553,0,0,1,14.557,14.557Z" transform="translate(38.721 84.511)" fill="#f3f3f1"/>
      <circle id="Ellipse_389" data-name="Ellipse 389" cx="20.017" cy="20.017" r="20.017" transform="translate(158.291 143.934)" fill="#2fdf84"/>
      <path id="Path_4527" data-name="Path 4527" d="M45.394,72.259,35.487,12.835A7.282,7.282,0,0,0,28.31,6.75H26.083a7.27,7.27,0,0,0-7.177,6.085L9,72.259Z" transform="translate(52.848 28.003)" fill="#2fdf84"/>
      <path id="Path_4528" data-name="Path 4528" d="M13.75,13.25H53.783a7.281,7.281,0,0,1,7.279,7.279V31.447H13.75Z" transform="translate(82.672 68.815)" fill="#2fdf84"/>
      <path id="Path_4529" data-name="Path 4529" d="M37.685,15.75H21.307A14.6,14.6,0,0,0,6.75,30.307V77.619H23.127V30.307A14.6,14.6,0,0,1,37.685,15.75Z" transform="translate(38.721 84.511)" fill="#d5dbe1"/>
      <path id="Path_4530" data-name="Path 4530" d="M38.627,41.767A19.987,19.987,0,0,1,50.455,23.541a20.017,20.017,0,1,0,0,36.452A19.987,19.987,0,0,1,38.627,41.767Z" transform="translate(136.041 122.184)" fill="#00b871"/>
      <path id="Path_4531" data-name="Path 4531" d="M35.385,12.544A7.251,7.251,0,0,0,28.31,6.75H26.083a7.27,7.27,0,0,0-7.177,6.085L9,72.259H25.377l9.906-59.424C35.3,12.726,35.364,12.646,35.385,12.544Z" transform="translate(52.848 28.003)" fill="#00b871"/>
      <path id="Path_4532" data-name="Path 4532" d="M13.75,13.25H30.127v18.2H13.75Z" transform="translate(82.672 68.815)" fill="#00b871"/>
      <path id="Path_4533" data-name="Path 4533" d="M46.976,71.951A25.476,25.476,0,1,1,72.451,46.476,25.5,25.5,0,0,1,46.976,71.951Zm0-40.033A14.557,14.557,0,1,0,61.533,46.476,14.572,14.572,0,0,0,46.976,31.918Z" transform="translate(131.332 117.475)"/>
      <path id="Path_4534" data-name="Path 4534" d="M24.25,26.5H35.168V51.976H24.25Z" transform="translate(148.599 152.008)"/>
      <path id="Path_4535" data-name="Path 4535" d="M24.25,19H35.168V44.476H24.25Z" transform="translate(148.599 104.917)"/>
      <path id="Path_4536" data-name="Path 4536" d="M0,0H26.349V10.918H0Z" transform="matrix(0.882, -0.471, 0.471, 0.882, 188.199, 151.826)"/>
      <path id="Path_4537" data-name="Path 4537" d="M0,0H26.349V10.918H0Z" transform="matrix(0.882, -0.471, 0.471, 0.882, 139.925, 179.03)"/>
      <path id="Path_4538" data-name="Path 4538" d="M0,0H10.918V26.349H0Z" transform="translate(140.077 148.959) rotate(-61.847)"/>
      <path id="Path_4539" data-name="Path 4539" d="M0,0H10.918V26.349H0Z" transform="translate(188.35 176.186) rotate(-61.847)"/>
      <path id="Path_4540" data-name="Path 4540" d="M13.5,18.5H35.336V29.418H13.5Z" transform="translate(81.102 101.778)"/>
      <path id="Path_4541" data-name="Path 4541" d="M9,18.5H30.836V29.418H9Z" transform="translate(52.848 101.778)"/>
      <path id="Path_4542" data-name="Path 4542" d="M93.345,87.787H11.459A5.461,5.461,0,0,1,6,82.328V35.017A20.033,20.033,0,0,1,26.017,15h80.066A20.033,20.033,0,0,1,126.1,35.017V47.754H115.181V35.017a9.111,9.111,0,0,0-9.1-9.1H26.017a9.111,9.111,0,0,0-9.1,9.1V76.869H93.345Z" transform="translate(34.012 79.802)"/>
      <path id="Path_4543" data-name="Path 4543" d="M65.077,35.865H54.159V25.238a1.82,1.82,0,0,0-1.82-1.82H13.98V12.5H52.339A12.752,12.752,0,0,1,65.077,25.238Z" transform="translate(84.116 64.106)"/>
      <path id="Path_4544" data-name="Path 4544" d="M44.654,77.863l-9.9-59.431a1.821,1.821,0,0,0-1.8-1.514H30.722a1.821,1.821,0,0,0-1.8,1.529L19.033,77.863,8.26,76.072l9.9-59.431A12.713,12.713,0,0,1,30.729,6h2.235A12.706,12.706,0,0,1,45.527,16.634l9.906,59.438Z" transform="translate(48.202 23.294)"/>
    </g>
  </g>
</svg>
