<svg xmlns="http://www.w3.org/2000/svg" width="582" height="316.872" viewBox="0 0 582 316.872">
  <g id="Group_2763" data-name="Group 2763" transform="translate(-669 -3671)">
    <text id="View_of_pending_meter_requests_assign_to_agents" data-name="View of pending meter requests, assign to agents" transform="translate(705 3858)" fill="#707070" font-size="14" font-family="HelveticaNeue, Helvetica Neue"><tspan x="19.694" y="13">View of </tspan><tspan x="17.083" y="28">pending </tspan><tspan x="24.475" y="43">meter </tspan><tspan x="13.583" y="58">requests, </tspan><tspan x="14.108" y="73">assign to </tspan><tspan x="21.367" y="88">agents</tspan></text>
    <text id="View_of_pending_meter_requests_assign_to_agents-2" data-name="View of pending meter requests, assign to agents" transform="translate(705 3858)" fill="#707070" font-size="14" font-family="HelveticaNeue, Helvetica Neue"><tspan x="19.694" y="13">View of </tspan><tspan x="17.083" y="28">pending </tspan><tspan x="24.475" y="43">meter </tspan><tspan x="13.583" y="58">requests, </tspan><tspan x="14.108" y="73">assign to </tspan><tspan x="21.367" y="88">agents</tspan></text>
    <text id="List_of_completed_meter_requests_which_are_pending_final_review_" data-name="List of completed meter requests which are pending final review " transform="translate(918 3858)" fill="#707070" font-size="14" font-family="HelveticaNeue, Helvetica Neue"><tspan x="23.313" y="13">List of </tspan><tspan x="9.173" y="28">completed </tspan><tspan x="24.475" y="43">meter </tspan><tspan x="15.529" y="58">requests </tspan><tspan x="12.428" y="73">which are </tspan><tspan x="2.306" y="88">pending final </tspan><tspan x="22.417" y="103">review </tspan></text>
    <text id="List_of_historical_completed_and_acknowledged_meter_requests" data-name="List of historical completed and acknowledged meter requests" transform="translate(1124.92 3858)" fill="#707070" font-size="14" font-family="HelveticaNeue, Helvetica Neue"><tspan x="27.813" y="13">List of </tspan><tspan x="18.874" y="28">historical </tspan><tspan x="13.673" y="43">completed </tspan><tspan x="35.198" y="58">and </tspan><tspan x="1.241" y="73">acknowledged </tspan><tspan x="0.058" y="88">meter requests</tspan></text>
    <text id="Pending" transform="translate(679.42 3671)" fill="#21232a" font-size="20" font-family="HelveticaNeue-Bold, Helvetica Neue" font-weight="700"><tspan x="32.93" y="20">Pending</tspan></text>
    <text id="Review" transform="translate(895.92 3671)" fill="#21232a" font-size="20" font-family="HelveticaNeue-Bold, Helvetica Neue" font-weight="700"><tspan x="29.38" y="20">Review</tspan></text>
    <text id="Completed" transform="translate(1104.17 3671)" fill="#21232a" font-size="20" font-family="HelveticaNeue-Bold, Helvetica Neue" font-weight="700"><tspan x="15.12" y="20">Completed</tspan></text>
    <g id="Group_1933" data-name="Group 1933" transform="translate(0 -1615)">
      <path id="Path_2879" data-name="Path 2879" d="M-701.719-745.744c17.865,0,18.954,14.805,18.954,24.271q.112,95.463.011,190.926c-.013,13.419-10.5,23.777-24.436,23.836q-55.478.231-110.957-.007c-13.857-.062-24.276-10.637-24.52-24.474-.2-11.159-.093-22.324-.015-33.486.014-1.979-.687-4.968,2.647-4.851,2.9.1,2.27,2.858,2.283,4.708.077,10.662-.017,21.325.065,31.988.1,13.095,8.179,21.119,21.335,21.134q53.979.062,107.958,0c12.494-.013,20.711-8.135,20.721-20.641q.074-93.714.006-187.428c0-17.823-4.585-20.864-20.107-20.864-36.485,0-72.971-.2-109.456-.012-11.979.062-20.308,8.769-20.433,20.752-.148,14.16-.091,28.322-.011,42.483a16.444,16.444,0,0,1-2.478,8.958c-17.325,28.651-34.522,57.381-51.868,86.02a18.019,18.019,0,0,0-2.689,9.9c.1,12.994.074,25.99.027,38.984-.061,16.716-10.082,26.86-26.714,26.887-35.319.057-70.64-.093-105.959.083-11.875.059-27.354,0-27.354-15.336v-47.84c3.849-.731,5.01,1.147,4.978,4.721-.1,10.823-.009,21.648-.009,32.472,0,19.2,3.443,20.861,21,20.861q53.7,0,107.409,0c13.719-.013,21.57-7.965,21.623-21.837.049-12.989.164-25.98-.065-38.965a23.463,23.463,0,0,1,3.62-13.16c16.862-27.746,33.519-55.617,50.364-83.373a20.423,20.423,0,0,0,3.112-11.3c-.148-12.654.01-25.311-.068-37.967-.077-12.474,5.06-21.452,16.98-26.086a11.315,11.315,0,0,0,2.049-1.359Z" transform="translate(1933.708 6109.438)" fill="#6c7474"/>
      <path id="Path_2880" data-name="Path 2880" d="M-701.719-745.744c17.865,0,18.954,14.805,18.954,24.271q.112,95.463.011,190.926c-.013,13.419-10.5,23.777-24.436,23.836q-55.478.231-110.957-.007c-13.857-.062-24.276-10.637-24.52-24.474-.2-11.159-.093-22.324-.015-33.486.014-1.979-.687-4.968,2.647-4.851,2.9.1,2.27,2.858,2.283,4.708.077,10.662-.017,21.325.065,31.988.1,13.095,8.179,21.119,21.335,21.134q53.979.062,107.958,0c12.494-.013,20.711-8.135,20.721-20.641q.074-93.714.006-187.428c0-17.823-4.585-20.864-20.107-20.864-36.485,0-72.971-.2-109.456-.012-11.979.062-20.308,8.769-20.433,20.752-.148,14.16-.091,28.322-.011,42.483a16.444,16.444,0,0,1-2.478,8.958c-17.325,28.651-34.522,57.381-51.868,86.02a18.019,18.019,0,0,0-2.689,9.9c.1,12.994.074,25.99.027,38.984-.061,16.716-10.082,26.86-26.714,26.887-35.319.057-70.64-.093-105.959.083-11.875.059-27.354,0-27.354-15.336v-47.84c3.849-.731,5.01,1.147,4.978,4.721-.1,10.823-.009,21.648-.009,32.472,0,19.2,3.443,20.861,21,20.861q53.7,0,107.409,0c13.719-.013,21.57-7.965,21.623-21.837.049-12.989.164-25.98-.065-38.965a23.463,23.463,0,0,1,3.62-13.16c16.862-27.746,33.519-55.617,50.364-83.373a20.423,20.423,0,0,0,3.112-11.3c-.148-12.654.01-25.311-.068-37.967-.077-12.474,5.06-21.452,16.98-26.086a11.315,11.315,0,0,0,2.049-1.359Z" transform="translate(-13.708 4857.128) rotate(180)" fill="#6c7474"/>
      <g id="Group_501" data-name="Group 501" transform="translate(667.092 5365.29)">
        <path id="Path_2100" data-name="Path 2100" d="M223.564,175.84a9.13,9.13,0,1,0-9.129,9.13A9.13,9.13,0,0,0,223.564,175.84Z" fill="#707070"/>
      </g>
      <g id="Group_500" data-name="Group 500" transform="translate(668.092 5365.29)">
        <path id="Path_2099" data-name="Path 2099" d="M417.311,175.84a9.13,9.13,0,1,1,9.129,9.13A9.131,9.131,0,0,1,417.311,175.84Z" fill="#707070"/>
      </g>
      <g id="Group_862" data-name="Group 862" transform="translate(612.092 5250.29)">
        <path id="Path_2099-2" data-name="Path 2099" d="M417.311,175.84a9.13,9.13,0,1,1,9.129,9.13A9.131,9.131,0,0,1,417.311,175.84Z" fill="#707070"/>
      </g>
      <g id="Group_863" data-name="Group 863" transform="translate(400.092 5250.29)">
        <path id="Path_2099-3" data-name="Path 2099" d="M417.311,175.84a9.13,9.13,0,1,1,9.129,9.13A9.131,9.131,0,0,1,417.311,175.84Z" fill="#707070"/>
      </g>
    </g>
    <g id="Group_1935" data-name="Group 1935" transform="translate(-2)">
      <g id="meter_1_" data-name="meter (1)" transform="translate(732 3786.442)">
        <path id="Path_4044" data-name="Path 4044" d="M24.813,4.257A14.535,14.535,0,0,0,4.258,24.812,14.535,14.535,0,0,0,24.813,4.257Zm-.8,19.752A13.4,13.4,0,0,1,1.835,18.8h10.15a.568.568,0,1,0,0-1.136H1.511a13.4,13.4,0,1,1,26.05,0H17.084a.568.568,0,1,0,0,1.136H27.236A13.317,13.317,0,0,1,24.01,24.009Z" transform="translate(-0.001)" fill="#707070"/>
        <path id="Path_4045" data-name="Path 4045" d="M64.494,52.278a.568.568,0,1,0,1.136,0v-2.55a10.293,10.293,0,0,1,2.866.57l-.376.908a.568.568,0,1,0,1.049.434l.375-.907A10.394,10.394,0,0,1,71.9,52.3l-1.8,1.8a.568.568,0,0,0,.8.8l1.8-1.8a10.4,10.4,0,0,1,1.689,2.5l-.907.375a.568.568,0,1,0,.434,1.049l.908-.376A10.291,10.291,0,0,1,75.4,59.5h-2.55a.568.568,0,1,0,0,1.136h3.134l.042,0a.567.567,0,0,0,.526-.566,11.493,11.493,0,1,0-22.986,0,.568.568,0,0,0,.568.568H57.27a.568.568,0,1,0,0-1.136H54.72a10.291,10.291,0,0,1,.57-2.866l.908.376a.568.568,0,1,0,.434-1.049l-.907-.375a10.4,10.4,0,0,1,1.689-2.5l1.8,1.8a.568.568,0,1,0,.8-.8l-1.8-1.8a10.392,10.392,0,0,1,2.355-1.564l.377.908A.568.568,0,1,0,62,51.206l-.377-.908a10.289,10.289,0,0,1,2.865-.57v2.55Z" transform="translate(-50.528 -45.819)" fill="#707070"/>
        <path id="Path_4046" data-name="Path 4046" d="M220.836,165.668l0-.011-1.455-3.4a.568.568,0,0,0-.522-.345h0a.568.568,0,0,0-.522.345l-1.453,3.4-.006.015a2.617,2.617,0,0,0-.254,1.026,2.236,2.236,0,1,0,4.472,0A2.627,2.627,0,0,0,220.836,165.668Zm-1.982,2.131a1.1,1.1,0,0,1-1.1-1.1,1.647,1.647,0,0,1,.171-.6l.929-2.176.93,2.176a1.647,1.647,0,0,1,.171.6A1.1,1.1,0,0,1,218.854,167.8Z" transform="translate(-204.32 -152.715)" fill="#707070"/>
        <path id="Path_4047" data-name="Path 4047" d="M231.758,353.072h-.984l.773-1.555a.568.568,0,0,0-1.017-.506l-1.181,2.375a.574.574,0,0,0,.51.821h.983l-.773,1.555a.568.568,0,1,0,1.017.506l1.181-2.375a.58.58,0,0,0,.027-.066A.574.574,0,0,0,231.758,353.072Z" transform="translate(-216.273 -330.785)" fill="#707070"/>
        <path id="Path_4048" data-name="Path 4048" d="M152.417,385.451H150.4a.568.568,0,1,0,0,1.136h2.015a.568.568,0,0,0,0-1.136Z" transform="translate(-141.327 -363.567)" fill="#707070"/>
        <path id="Path_4049" data-name="Path 4049" d="M309.231,385.451h-2.015a.568.568,0,0,0,0,1.136h2.015a.568.568,0,0,0,0-1.136Z" transform="translate(-289.238 -363.567)" fill="#707070"/>
        <path id="Path_4050" data-name="Path 4050" d="M246.557,312.234a.568.568,0,1,0-.571-.568.566.566,0,0,0,.571.568Z" transform="translate(-232.02 -293.435)" fill="#707070"/>
      </g>
      <g id="Ellipse_370" data-name="Ellipse 370" transform="translate(751 3805)" fill="#fff" stroke="#707070" stroke-width="1.4">
        <circle cx="8" cy="8" r="8" stroke="none"/>
        <circle cx="8" cy="8" r="7.3" fill="none"/>
      </g>
      <g id="time" transform="translate(755.475 3809.063)">
        <g id="Layer_1_64_" transform="translate(0)">
          <g id="Group_1934" data-name="Group 1934" transform="translate(0)">
            <path id="Path_4051" data-name="Path 4051" d="M18.029,12.716a.181.181,0,0,0,.362,0,.9.9,0,0,1,.212-.58,3.718,3.718,0,0,0,.676-1.161.181.181,0,0,0-.171-.241h-1.8a.181.181,0,0,0-.171.241,3.725,3.725,0,0,0,.676,1.161A.9.9,0,0,1,18.029,12.716Z" transform="translate(-14.68 -8.915)" fill="#707070"/>
            <path id="Path_4052" data-name="Path 4052" d="M13.922,25.824a.181.181,0,0,0-.362,0,.942.942,0,0,1-.439.729A4.754,4.754,0,0,0,11.773,28a.181.181,0,0,0,.158.27h3.62a.181.181,0,0,0,.158-.27,4.753,4.753,0,0,0-1.347-1.444A.942.942,0,0,1,13.922,25.824Z" transform="translate(-10.212 -21.298)" fill="#707070"/>
            <path id="Path_4053" data-name="Path 4053" d="M9.367,7.24H9.259a5.988,5.988,0,0,0-1.59-3.258A5.99,5.99,0,0,0,9.259.724h.108a.362.362,0,0,0,0-.724H3.033a.362.362,0,0,0,0,.724h.108a5.987,5.987,0,0,0,1.59,3.258A5.99,5.99,0,0,0,3.141,7.24H3.033a.362.362,0,0,0,0,.724H9.368a.362.362,0,1,0,0-.724Zm-5.5,0A5.712,5.712,0,0,1,5.448,4.255l.033-.039a.362.362,0,0,0,0-.467L5.449,3.71A5.715,5.715,0,0,1,3.867.725H8.534A5.715,5.715,0,0,1,6.952,3.71l-.033.039a.362.362,0,0,0,0,.467l.033.039A5.713,5.713,0,0,1,8.534,7.24H3.867Z" transform="translate(-2.671)" fill="#707070"/>
          </g>
        </g>
      </g>
    </g>
    <g id="review-2" data-name="review" transform="translate(942 3712.524)">
      <path id="Path_4059" data-name="Path 4059" d="M35.2,73.537H11.159a.743.743,0,0,0,0,1.485H35.2a.743.743,0,0,1,.742.742V93.307a.743.743,0,0,1-.742.742h-13a.742.742,0,0,0-.583.282l-2.994,3.794-3.176-3.809a.743.743,0,0,0-.57-.267H2.227a.743.743,0,0,1-.742-.742V75.764a.743.743,0,0,1,.742-.742H5.052a.743.743,0,0,0,0-1.485H2.227A2.23,2.23,0,0,0,0,75.764V93.307a2.23,2.23,0,0,0,2.227,2.227h12.3l3.539,4.245a.747.747,0,0,0,1.153-.016l3.338-4.229H35.2a2.23,2.23,0,0,0,2.227-2.227V75.764A2.23,2.23,0,0,0,35.2,73.537Z" fill="#707070"/>
      <path id="Path_4060" data-name="Path 4060" d="M54.924,161.022a.742.742,0,0,0,.134.7L56.5,163.47l-.144,2.262c-.113,1.772,2.547-.11,3.121-.1s3.232,1.85,3.121.1l-.144-2.262,1.446-1.745a.753.753,0,0,0-.388-1.193l-2.2-.562-1.213-1.914a.753.753,0,0,0-1.254,0l-1.213,1.914-2.2.562A.742.742,0,0,0,54.924,161.022Zm3.371.313c.549-.14.91-1.059,1.186-1.5.272.429.643,1.356,1.186,1.5l1.346.345-.886,1.07a.742.742,0,0,0-.169.521l.088,1.386-1.291-.512a.743.743,0,0,0-.547,0l-1.291.512L58,163.27a.742.742,0,0,0-.169-.521l-.886-1.07Z" transform="translate(-50.813 -77.933)" fill="#707070"/>
      <path id="Path_4061" data-name="Path 4061" d="M198.341,161.021a.742.742,0,0,0-.522-.49l-2.2-.562-1.213-1.914a.753.753,0,0,0-1.254,0l-1.213,1.914-2.2.562a.742.742,0,0,0-.388,1.193l1.446,1.745-.144,2.262c-.113,1.772,2.547-.11,3.121-.1s3.232,1.85,3.121.1l-.144-2.262,1.446-1.745A.742.742,0,0,0,198.341,161.021Zm-2.911,1.728a.742.742,0,0,0-.169.521l.088,1.386a2.451,2.451,0,0,0-3.13,0l.088-1.386a.742.742,0,0,0-.169-.521l-.886-1.07,1.346-.345c.549-.14.91-1.059,1.186-1.5.272.429.643,1.356,1.186,1.5l1.346.345Z" transform="translate(-175.146 -77.932)" fill="#707070"/>
      <path id="Path_4062" data-name="Path 4062" d="M332.721,161.021a.742.742,0,0,0-.522-.49l-2.2-.562-1.213-1.914a.753.753,0,0,0-1.254,0l-1.213,1.914-2.2.562a.753.753,0,0,0-.388,1.193l1.445,1.745-.144,2.262c-.113,1.771,2.546-.11,3.121-.1s3.232,1.85,3.121.1l-.144-2.262,1.445-1.745A.742.742,0,0,0,332.721,161.021Zm-2.911,1.728a.742.742,0,0,0-.169.521l.088,1.386-1.291-.512a.743.743,0,0,0-.548,0l-1.291.512.088-1.386a.742.742,0,0,0-.169-.521l-.886-1.07,1.346-.345c.549-.14.91-1.059,1.186-1.5.272.429.643,1.356,1.186,1.5l1.346.345Z" transform="translate(-299.556 -77.932)" fill="#707070"/>
      <path id="Path_4063" data-name="Path 4063" d="M99.756,74.9a.742.742,0,1,0-.281-.884A.747.747,0,0,0,99.756,74.9Z" transform="translate(-92.046 -0.004)" fill="#707070"/>
    </g>
    <path id="check_1_" data-name="check (1)" d="M10.228,16.92a.8.8,0,0,0,.349.659,2.029,2.029,0,0,0,.574.291c.386.057,4.813.53,7.716.836l-.209,1.979c-2.261-.239-7.554-.8-7.861-.857a3.828,3.828,0,0,1-1.341-.6,2.787,2.787,0,0,1-.658-.629L8.79,18.6,4.014,13.916a1,1,0,0,0-1.394,1.42l7.385,7.247a3.118,3.118,0,0,0,2.2.9H25.8v1.99H12.2A5.1,5.1,0,0,1,8.611,24L1.227,16.757A2.985,2.985,0,0,1,5.408,12.5l3.163,3.1a2.807,2.807,0,0,1,1.118-1.125A8.056,8.056,0,0,1,18.946,1.3l-1.4,1.478a6.068,6.068,0,1,0,3.078,5.436l1.8-1.907A8.054,8.054,0,0,1,19.7,14.266a11.733,11.733,0,0,1,5.08,2.068l1.028.735v2.447l-2.186-1.564a9.757,9.757,0,0,0-5.587-1.831h-.123l-6.884,0A.8.8,0,0,0,10.228,16.92ZM11.814,5.94,10.443,7.383l4.34,4.126,8.064-8.542L21.4,1.6,14.707,8.69Zm0,0" transform="translate(1158.668 3782.681)" fill="#707070"/>
    <text id="List_of_completed_meter_requests_which_are_pending_final_review_2" data-name="List of completed meter requests which are pending final review " transform="translate(918 3858)" fill="#707070" font-size="14" font-family="HelveticaNeue, Helvetica Neue"><tspan x="23.313" y="13">List of </tspan><tspan x="9.173" y="28">completed </tspan><tspan x="24.475" y="43">meter </tspan><tspan x="15.529" y="58">requests </tspan><tspan x="12.428" y="73">which are </tspan><tspan x="2.306" y="88">pending final </tspan><tspan x="22.417" y="103">review </tspan></text>
    <text id="List_of_historical_completed_and_acknowledged_meter_requests-2" data-name="List of historical completed and acknowledged meter requests" transform="translate(1124.92 3858)" fill="#707070" font-size="14" font-family="HelveticaNeue, Helvetica Neue"><tspan x="27.813" y="13">List of </tspan><tspan x="18.874" y="28">historical </tspan><tspan x="13.673" y="43">completed </tspan><tspan x="35.198" y="58">and </tspan><tspan x="1.241" y="73">acknowledged </tspan><tspan x="0.058" y="88">meter requests</tspan></text>
    <text id="Pending-2" data-name="Pending" transform="translate(679.42 3671)" fill="#21232a" font-size="20" font-family="HelveticaNeue-Bold, Helvetica Neue" font-weight="700"><tspan x="32.93" y="20">Pending</tspan></text>
    <text id="Review-3" data-name="Review" transform="translate(895.92 3671)" fill="#21232a" font-size="20" font-family="HelveticaNeue-Bold, Helvetica Neue" font-weight="700"><tspan x="29.38" y="20">Review</tspan></text>
    <text id="Completed-2" data-name="Completed" transform="translate(1104.17 3671)" fill="#21232a" font-size="20" font-family="HelveticaNeue-Bold, Helvetica Neue" font-weight="700"><tspan x="15.12" y="20">Completed</tspan></text>
    <g id="Group_1933-2" data-name="Group 1933" transform="translate(0 -1615)">
      <path id="Path_2879-2" data-name="Path 2879" d="M-701.719-745.744c17.865,0,18.954,14.805,18.954,24.271q.112,95.463.011,190.926c-.013,13.419-10.5,23.777-24.436,23.836q-55.478.231-110.957-.007c-13.857-.062-24.276-10.637-24.52-24.474-.2-11.159-.093-22.324-.015-33.486.014-1.979-.687-4.968,2.647-4.851,2.9.1,2.27,2.858,2.283,4.708.077,10.662-.017,21.325.065,31.988.1,13.095,8.179,21.119,21.335,21.134q53.979.062,107.958,0c12.494-.013,20.711-8.135,20.721-20.641q.074-93.714.006-187.428c0-17.823-4.585-20.864-20.107-20.864-36.485,0-72.971-.2-109.456-.012-11.979.062-20.308,8.769-20.433,20.752-.148,14.16-.091,28.322-.011,42.483a16.444,16.444,0,0,1-2.478,8.958c-17.325,28.651-34.522,57.381-51.868,86.02a18.019,18.019,0,0,0-2.689,9.9c.1,12.994.074,25.99.027,38.984-.061,16.716-10.082,26.86-26.714,26.887-35.319.057-70.64-.093-105.959.083-11.875.059-27.354,0-27.354-15.336v-47.84c3.849-.731,5.01,1.147,4.978,4.721-.1,10.823-.009,21.648-.009,32.472,0,19.2,3.443,20.861,21,20.861q53.7,0,107.409,0c13.719-.013,21.57-7.965,21.623-21.837.049-12.989.164-25.98-.065-38.965a23.463,23.463,0,0,1,3.62-13.16c16.862-27.746,33.519-55.617,50.364-83.373a20.423,20.423,0,0,0,3.112-11.3c-.148-12.654.01-25.311-.068-37.967-.077-12.474,5.06-21.452,16.98-26.086a11.315,11.315,0,0,0,2.049-1.359Z" transform="translate(1933.708 6109.438)" fill="#6c7474"/>
      <path id="Path_2880-2" data-name="Path 2880" d="M-701.719-745.744c17.865,0,18.954,14.805,18.954,24.271q.112,95.463.011,190.926c-.013,13.419-10.5,23.777-24.436,23.836q-55.478.231-110.957-.007c-13.857-.062-24.276-10.637-24.52-24.474-.2-11.159-.093-22.324-.015-33.486.014-1.979-.687-4.968,2.647-4.851,2.9.1,2.27,2.858,2.283,4.708.077,10.662-.017,21.325.065,31.988.1,13.095,8.179,21.119,21.335,21.134q53.979.062,107.958,0c12.494-.013,20.711-8.135,20.721-20.641q.074-93.714.006-187.428c0-17.823-4.585-20.864-20.107-20.864-36.485,0-72.971-.2-109.456-.012-11.979.062-20.308,8.769-20.433,20.752-.148,14.16-.091,28.322-.011,42.483a16.444,16.444,0,0,1-2.478,8.958c-17.325,28.651-34.522,57.381-51.868,86.02a18.019,18.019,0,0,0-2.689,9.9c.1,12.994.074,25.99.027,38.984-.061,16.716-10.082,26.86-26.714,26.887-35.319.057-70.64-.093-105.959.083-11.875.059-27.354,0-27.354-15.336v-47.84c3.849-.731,5.01,1.147,4.978,4.721-.1,10.823-.009,21.648-.009,32.472,0,19.2,3.443,20.861,21,20.861q53.7,0,107.409,0c13.719-.013,21.57-7.965,21.623-21.837.049-12.989.164-25.98-.065-38.965a23.463,23.463,0,0,1,3.62-13.16c16.862-27.746,33.519-55.617,50.364-83.373a20.423,20.423,0,0,0,3.112-11.3c-.148-12.654.01-25.311-.068-37.967-.077-12.474,5.06-21.452,16.98-26.086a11.315,11.315,0,0,0,2.049-1.359Z" transform="translate(-13.708 4857.128) rotate(180)" fill="#6c7474"/>
      <g id="Group_501-2" data-name="Group 501" transform="translate(667.092 5365.29)">
        <path id="Path_2100-2" data-name="Path 2100" d="M223.564,175.84a9.13,9.13,0,1,0-9.129,9.13A9.13,9.13,0,0,0,223.564,175.84Z" fill="#707070"/>
      </g>
      <g id="Group_500-2" data-name="Group 500" transform="translate(668.092 5365.29)">
        <path id="Path_2099-4" data-name="Path 2099" d="M417.311,175.84a9.13,9.13,0,1,1,9.129,9.13A9.131,9.131,0,0,1,417.311,175.84Z" fill="#707070"/>
      </g>
      <g id="Group_862-2" data-name="Group 862" transform="translate(612.092 5250.29)">
        <path id="Path_2099-5" data-name="Path 2099" d="M417.311,175.84a9.13,9.13,0,1,1,9.129,9.13A9.131,9.131,0,0,1,417.311,175.84Z" fill="#707070"/>
      </g>
      <g id="Group_863-2" data-name="Group 863" transform="translate(400.092 5250.29)">
        <path id="Path_2099-6" data-name="Path 2099" d="M417.311,175.84a9.13,9.13,0,1,1,9.129,9.13A9.131,9.131,0,0,1,417.311,175.84Z" fill="#707070"/>
      </g>
    </g>
    <g id="Group_1935-2" data-name="Group 1935" transform="translate(-2)">
      <g id="meter_1_2" data-name="meter (1)" transform="translate(732 3786.442)">
        <path id="Path_4044-2" data-name="Path 4044" d="M24.813,4.257A14.535,14.535,0,0,0,4.258,24.812,14.535,14.535,0,0,0,24.813,4.257Zm-.8,19.752A13.4,13.4,0,0,1,1.835,18.8h10.15a.568.568,0,1,0,0-1.136H1.511a13.4,13.4,0,1,1,26.05,0H17.084a.568.568,0,1,0,0,1.136H27.236A13.317,13.317,0,0,1,24.01,24.009Z" transform="translate(-0.001)" fill="#707070"/>
        <path id="Path_4045-2" data-name="Path 4045" d="M64.494,52.278a.568.568,0,1,0,1.136,0v-2.55a10.293,10.293,0,0,1,2.866.57l-.376.908a.568.568,0,1,0,1.049.434l.375-.907A10.394,10.394,0,0,1,71.9,52.3l-1.8,1.8a.568.568,0,0,0,.8.8l1.8-1.8a10.4,10.4,0,0,1,1.689,2.5l-.907.375a.568.568,0,1,0,.434,1.049l.908-.376A10.291,10.291,0,0,1,75.4,59.5h-2.55a.568.568,0,1,0,0,1.136h3.134l.042,0a.567.567,0,0,0,.526-.566,11.493,11.493,0,1,0-22.986,0,.568.568,0,0,0,.568.568H57.27a.568.568,0,1,0,0-1.136H54.72a10.291,10.291,0,0,1,.57-2.866l.908.376a.568.568,0,1,0,.434-1.049l-.907-.375a10.4,10.4,0,0,1,1.689-2.5l1.8,1.8a.568.568,0,1,0,.8-.8l-1.8-1.8a10.392,10.392,0,0,1,2.355-1.564l.377.908A.568.568,0,1,0,62,51.206l-.377-.908a10.289,10.289,0,0,1,2.865-.57v2.55Z" transform="translate(-50.528 -45.819)" fill="#707070"/>
        <path id="Path_4046-2" data-name="Path 4046" d="M220.836,165.668l0-.011-1.455-3.4a.568.568,0,0,0-.522-.345h0a.568.568,0,0,0-.522.345l-1.453,3.4-.006.015a2.617,2.617,0,0,0-.254,1.026,2.236,2.236,0,1,0,4.472,0A2.627,2.627,0,0,0,220.836,165.668Zm-1.982,2.131a1.1,1.1,0,0,1-1.1-1.1,1.647,1.647,0,0,1,.171-.6l.929-2.176.93,2.176a1.647,1.647,0,0,1,.171.6A1.1,1.1,0,0,1,218.854,167.8Z" transform="translate(-204.32 -152.715)" fill="#707070"/>
        <path id="Path_4047-2" data-name="Path 4047" d="M231.758,353.072h-.984l.773-1.555a.568.568,0,0,0-1.017-.506l-1.181,2.375a.574.574,0,0,0,.51.821h.983l-.773,1.555a.568.568,0,1,0,1.017.506l1.181-2.375a.58.58,0,0,0,.027-.066A.574.574,0,0,0,231.758,353.072Z" transform="translate(-216.273 -330.785)" fill="#707070"/>
        <path id="Path_4048-2" data-name="Path 4048" d="M152.417,385.451H150.4a.568.568,0,1,0,0,1.136h2.015a.568.568,0,0,0,0-1.136Z" transform="translate(-141.327 -363.567)" fill="#707070"/>
        <path id="Path_4049-2" data-name="Path 4049" d="M309.231,385.451h-2.015a.568.568,0,0,0,0,1.136h2.015a.568.568,0,0,0,0-1.136Z" transform="translate(-289.238 -363.567)" fill="#707070"/>
        <path id="Path_4050-2" data-name="Path 4050" d="M246.557,312.234a.568.568,0,1,0-.571-.568.566.566,0,0,0,.571.568Z" transform="translate(-232.02 -293.435)" fill="#707070"/>
      </g>
      <g id="Ellipse_370-2" data-name="Ellipse 370" transform="translate(751 3805)" fill="#fff" stroke="#707070" stroke-width="1.4">
        <circle cx="8" cy="8" r="8" stroke="none"/>
        <circle cx="8" cy="8" r="7.3" fill="none"/>
      </g>
      <g id="time-2" data-name="time" transform="translate(755.475 3809.063)">
        <g id="Layer_1_64_2" data-name="Layer_1_64_" transform="translate(0)">
          <g id="Group_1934-2" data-name="Group 1934" transform="translate(0)">
            <path id="Path_4051-2" data-name="Path 4051" d="M18.029,12.716a.181.181,0,0,0,.362,0,.9.9,0,0,1,.212-.58,3.718,3.718,0,0,0,.676-1.161.181.181,0,0,0-.171-.241h-1.8a.181.181,0,0,0-.171.241,3.725,3.725,0,0,0,.676,1.161A.9.9,0,0,1,18.029,12.716Z" transform="translate(-14.68 -8.915)" fill="#707070"/>
            <path id="Path_4052-2" data-name="Path 4052" d="M13.922,25.824a.181.181,0,0,0-.362,0,.942.942,0,0,1-.439.729A4.754,4.754,0,0,0,11.773,28a.181.181,0,0,0,.158.27h3.62a.181.181,0,0,0,.158-.27,4.753,4.753,0,0,0-1.347-1.444A.942.942,0,0,1,13.922,25.824Z" transform="translate(-10.212 -21.298)" fill="#707070"/>
            <path id="Path_4053-2" data-name="Path 4053" d="M9.367,7.24H9.259a5.988,5.988,0,0,0-1.59-3.258A5.99,5.99,0,0,0,9.259.724h.108a.362.362,0,0,0,0-.724H3.033a.362.362,0,0,0,0,.724h.108a5.987,5.987,0,0,0,1.59,3.258A5.99,5.99,0,0,0,3.141,7.24H3.033a.362.362,0,0,0,0,.724H9.368a.362.362,0,1,0,0-.724Zm-5.5,0A5.712,5.712,0,0,1,5.448,4.255l.033-.039a.362.362,0,0,0,0-.467L5.449,3.71A5.715,5.715,0,0,1,3.867.725H8.534A5.715,5.715,0,0,1,6.952,3.71l-.033.039a.362.362,0,0,0,0,.467l.033.039A5.713,5.713,0,0,1,8.534,7.24H3.867Z" transform="translate(-2.671)" fill="#707070"/>
          </g>
        </g>
      </g>
    </g>
    <g id="review-4" data-name="review" transform="translate(942 3712.524)">
      <path id="Path_4059-2" data-name="Path 4059" d="M35.2,73.537H11.159a.743.743,0,0,0,0,1.485H35.2a.743.743,0,0,1,.742.742V93.307a.743.743,0,0,1-.742.742h-13a.742.742,0,0,0-.583.282l-2.994,3.794-3.176-3.809a.743.743,0,0,0-.57-.267H2.227a.743.743,0,0,1-.742-.742V75.764a.743.743,0,0,1,.742-.742H5.052a.743.743,0,0,0,0-1.485H2.227A2.23,2.23,0,0,0,0,75.764V93.307a2.23,2.23,0,0,0,2.227,2.227h12.3l3.539,4.245a.747.747,0,0,0,1.153-.016l3.338-4.229H35.2a2.23,2.23,0,0,0,2.227-2.227V75.764A2.23,2.23,0,0,0,35.2,73.537Z" fill="#707070"/>
      <path id="Path_4060-2" data-name="Path 4060" d="M54.924,161.022a.742.742,0,0,0,.134.7L56.5,163.47l-.144,2.262c-.113,1.772,2.547-.11,3.121-.1s3.232,1.85,3.121.1l-.144-2.262,1.446-1.745a.753.753,0,0,0-.388-1.193l-2.2-.562-1.213-1.914a.753.753,0,0,0-1.254,0l-1.213,1.914-2.2.562A.742.742,0,0,0,54.924,161.022Zm3.371.313c.549-.14.91-1.059,1.186-1.5.272.429.643,1.356,1.186,1.5l1.346.345-.886,1.07a.742.742,0,0,0-.169.521l.088,1.386-1.291-.512a.743.743,0,0,0-.547,0l-1.291.512L58,163.27a.742.742,0,0,0-.169-.521l-.886-1.07Z" transform="translate(-50.813 -77.933)" fill="#707070"/>
      <path id="Path_4061-2" data-name="Path 4061" d="M198.341,161.021a.742.742,0,0,0-.522-.49l-2.2-.562-1.213-1.914a.753.753,0,0,0-1.254,0l-1.213,1.914-2.2.562a.742.742,0,0,0-.388,1.193l1.446,1.745-.144,2.262c-.113,1.772,2.547-.11,3.121-.1s3.232,1.85,3.121.1l-.144-2.262,1.446-1.745A.742.742,0,0,0,198.341,161.021Zm-2.911,1.728a.742.742,0,0,0-.169.521l.088,1.386a2.451,2.451,0,0,0-3.13,0l.088-1.386a.742.742,0,0,0-.169-.521l-.886-1.07,1.346-.345c.549-.14.91-1.059,1.186-1.5.272.429.643,1.356,1.186,1.5l1.346.345Z" transform="translate(-175.146 -77.932)" fill="#707070"/>
      <path id="Path_4062-2" data-name="Path 4062" d="M332.721,161.021a.742.742,0,0,0-.522-.49l-2.2-.562-1.213-1.914a.753.753,0,0,0-1.254,0l-1.213,1.914-2.2.562a.753.753,0,0,0-.388,1.193l1.445,1.745-.144,2.262c-.113,1.771,2.546-.11,3.121-.1s3.232,1.85,3.121.1l-.144-2.262,1.445-1.745A.742.742,0,0,0,332.721,161.021Zm-2.911,1.728a.742.742,0,0,0-.169.521l.088,1.386-1.291-.512a.743.743,0,0,0-.548,0l-1.291.512.088-1.386a.742.742,0,0,0-.169-.521l-.886-1.07,1.346-.345c.549-.14.91-1.059,1.186-1.5.272.429.643,1.356,1.186,1.5l1.346.345Z" transform="translate(-299.556 -77.932)" fill="#707070"/>
      <path id="Path_4063-2" data-name="Path 4063" d="M99.756,74.9a.742.742,0,1,0-.281-.884A.747.747,0,0,0,99.756,74.9Z" transform="translate(-92.046 -0.004)" fill="#707070"/>
    </g>
    <path id="check_1_2" data-name="check (1)" d="M10.228,16.92a.8.8,0,0,0,.349.659,2.029,2.029,0,0,0,.574.291c.386.057,4.813.53,7.716.836l-.209,1.979c-2.261-.239-7.554-.8-7.861-.857a3.828,3.828,0,0,1-1.341-.6,2.787,2.787,0,0,1-.658-.629L8.79,18.6,4.014,13.916a1,1,0,0,0-1.394,1.42l7.385,7.247a3.118,3.118,0,0,0,2.2.9H25.8v1.99H12.2A5.1,5.1,0,0,1,8.611,24L1.227,16.757A2.985,2.985,0,0,1,5.408,12.5l3.163,3.1a2.807,2.807,0,0,1,1.118-1.125A8.056,8.056,0,0,1,18.946,1.3l-1.4,1.478a6.068,6.068,0,1,0,3.078,5.436l1.8-1.907A8.054,8.054,0,0,1,19.7,14.266a11.733,11.733,0,0,1,5.08,2.068l1.028.735v2.447l-2.186-1.564a9.757,9.757,0,0,0-5.587-1.831h-.123l-6.884,0A.8.8,0,0,0,10.228,16.92ZM11.814,5.94,10.443,7.383l4.34,4.126,8.064-8.542L21.4,1.6,14.707,8.69Zm0,0" transform="translate(1158.668 3782.681)" fill="#707070"/>
  </g>
</svg>
