<svg xmlns="http://www.w3.org/2000/svg" width="362.889" height="727.778" viewBox="0 0 362.889 727.778">
  <g id="Group_2867" data-name="Group 2867" transform="translate(-350.232 -1142)">
    <path id="Path_2808" data-name="Path 2808" d="M658.006,259.058h-4V149.513a63.4,63.4,0,0,0-63.4-63.4H358.518a63.4,63.4,0,0,0-63.4,63.4V750.487a63.4,63.4,0,0,0,63.4,63.4H590.6a63.4,63.4,0,0,0,63.4-63.4V337.034h4Z" transform="translate(55.116 1055.889)" fill="#3f3d56"/>
    <g id="Rectangle_923" data-name="Rectangle 923" transform="translate(371 1230)" fill="#fff" stroke="#707070" stroke-width="1">
      <rect width="321" height="552" stroke="none"/>
      <rect x="0.5" y="0.5" width="320" height="551" fill="none"/>
    </g>
    <circle id="Ellipse_244" data-name="Ellipse 244" cx="11" cy="11" r="11" transform="translate(520.75 1812.676)" fill="#fff"/>
    <rect id="Rectangle_469" data-name="Rectangle 469" width="45.251" height="9.189" rx="2.542" transform="translate(481.263 1171.381)" fill="#e6e8ec"/>
    <ellipse id="Ellipse_245" data-name="Ellipse 245" cx="5.212" cy="5.212" rx="5.212" ry="5.212" transform="translate(533.356 1170.764)" fill="#e6e8ec"/>
  </g>
</svg>
