<svg xmlns="http://www.w3.org/2000/svg" width="1177" height="643.248" viewBox="0 0 1177 643.248">
  <g id="Group_2617" data-name="Group 2617" transform="translate(-372 -1749)">
    <path id="Path_79" data-name="Path 79" d="M469.83,256.31l-51,63.17,40.65-70.43a101.891,101.891,0,0,0-19.68-9.36,101.35,101.35,0,1,0-202.11-5.53l92.12,6.06-90.5,8.13A101.5,101.5,0,0,0,284.19,315l50.43-32.72-41.94,37.6a101.566,101.566,0,0,0,12.88,5.54A101.33,101.33,0,0,0,373,431,101.34,101.34,0,0,0,510.86,535.32a34.76,34.76,0,0,0,4.69,11.17,33.28,33.28,0,0,0,12.83,11.89,34.62,34.62,0,0,0,18.21,28.54,34.68,34.68,0,0,0,18.21,28.53A34.66,34.66,0,0,0,583,644a33.4,33.4,0,0,0,5.38,16.64c8.23,12.89,22.89,18.25,32.74,12s11.16-21.83,2.93-34.73A33.44,33.44,0,0,0,611.24,626,34.68,34.68,0,0,0,593,597.43a34.66,34.66,0,0,0-18.22-28.53,34.62,34.62,0,0,0-18.21-28.53,33.39,33.39,0,0,0-5.39-16.64,34.6,34.6,0,0,0-8-8.86,101.33,101.33,0,0,0-35.91-169.55,101.41,101.41,0,0,0-37.43-89Z" transform="translate(360.5 1620.638)" fill="#f2f2f2" opacity="0.745"/>
    <path id="Path_80" data-name="Path 80" d="M679.07,205.6l-9.1,5.77,5.53-10.05a9,9,0,0,0-5.51-2h-.14a10.792,10.792,0,0,1-1.89-.14l-3.09,2,1.33-2.41a11,11,0,0,1-5.4-4.09l-5.52,3.5,3.49-6.34a16.17,16.17,0,0,0-12.37-6.26c-5.75,0-10.86,3.42-14.16,8.74a10.57,10.57,0,0,1-9.36,5h-.31c-6.34,0-11.48,7.19-11.48,16s5.14,16.05,11.48,16.05a8.62,8.62,0,0,0,4-1,16.56,16.56,0,0,1,13.89-.27,14.52,14.52,0,0,0,11.81,0,16.58,16.58,0,0,1,13.77.27,8.61,8.61,0,0,0,4,1c6.34,0,11.48-7.18,11.48-16.05a20.279,20.279,0,0,0-2.45-9.72Z" transform="translate(360.5 1620.638)" fill="#f2f2f2" opacity="0.2"/>
    <path id="Path_81" data-name="Path 81" d="M661.92,229.09a17,17,0,0,0-9.83,1.07,14.52,14.52,0,0,1-11.81,0,16.58,16.58,0,0,0-13.9.27,8.55,8.55,0,0,1-4,1c-5.64,0-10.32-5.67-11.3-13.15a10.93,10.93,0,0,0,2.82-3c3.3-5.32,8.42-8.73,14.16-8.73s10.79,3.37,14.09,8.63a10.85,10.85,0,0,0,9.36,5.14h.15C656.15,220.25,660,223.85,661.92,229.09Z" transform="translate(360.5 1620.638)" opacity="0.03"/>
    <path id="Path_82" data-name="Path 82" d="M1016.07,166.6l-9.1,5.77,5.53-10.05a9,9,0,0,0-5.51-2h-.14a10.791,10.791,0,0,1-1.89-.14l-3.09,2,1.33-2.41a11,11,0,0,1-5.4-4.09l-5.52,3.5,3.49-6.34a16.17,16.17,0,0,0-12.37-6.26c-5.75,0-10.86,3.42-14.16,8.74a10.57,10.57,0,0,1-9.36,5h-.31c-6.34,0-11.48,7.19-11.48,16s5.14,16.05,11.48,16.05a8.62,8.62,0,0,0,4-1,16.56,16.56,0,0,1,13.89-.27,14.52,14.52,0,0,0,11.81,0,16.58,16.58,0,0,1,13.77.27,8.61,8.61,0,0,0,4,1c6.34,0,11.48-7.18,11.48-16.05a20.279,20.279,0,0,0-2.45-9.72Z" transform="translate(360.5 1620.638)" fill="#f2f2f2" opacity="0.2"/>
    <path id="Path_83" data-name="Path 83" d="M998.92,190.09a17,17,0,0,0-9.83,1.07,14.52,14.52,0,0,1-11.81,0,16.58,16.58,0,0,0-13.9.27,8.55,8.55,0,0,1-4,1c-5.64,0-10.32-5.67-11.3-13.15a10.929,10.929,0,0,0,2.82-3c3.3-5.32,8.42-8.73,14.16-8.73s10.79,3.37,14.09,8.63a10.85,10.85,0,0,0,9.36,5.14h.15C993.15,181.25,997,184.85,998.92,190.09Z" transform="translate(360.5 1620.638)" opacity="0.03"/>
    <path id="Path_84" data-name="Path 84" d="M791.34,261,806,270.32l-8.88-16.15a14.48,14.48,0,0,1,8.85-3.15h.23a17.079,17.079,0,0,0,3-.22l4.95,3.14L812,250.08a17.78,17.78,0,0,0,8.67-6.58l8.87,5.62L824,238.93c5.19-6.22,12.18-10,19.87-10,9.23,0,17.44,5.48,22.75,14a17,17,0,0,0,15,8.11h.5c10.18,0,18.43,11.54,18.43,25.78s-8.25,25.79-18.43,25.79a13.86,13.86,0,0,1-6.43-1.61,26.59,26.59,0,0,0-22.31-.43,23.28,23.28,0,0,1-19,0,26.64,26.64,0,0,0-22.12.43,13.9,13.9,0,0,1-6.35,1.57c-10.19,0-18.44-11.54-18.44-25.79A32.78,32.78,0,0,1,791.34,261Z" transform="translate(360.5 1620.638)" fill="#f2f2f2" opacity="0.2"/>
    <path id="Path_85" data-name="Path 85" d="M818.89,298.77a27.36,27.36,0,0,1,15.8,1.72,23.28,23.28,0,0,0,19,0,26.61,26.61,0,0,1,22.32.43,13.82,13.82,0,0,0,6.42,1.61c9.05,0,16.57-9.11,18.14-21.13a17.438,17.438,0,0,1-4.52-4.88c-5.31-8.54-13.52-14-22.75-14s-17.33,5.42-22.64,13.88a17.44,17.44,0,0,1-15,8.25h-.23C828.17,284.58,821.93,290.36,818.89,298.77Z" transform="translate(360.5 1620.638)" opacity="0.03"/>
    <ellipse id="Ellipse_23" data-name="Ellipse 23" cx="588.5" cy="21" rx="588.5" ry="21" transform="translate(372 2350.248)" fill="#3f3d56"/>
    <rect id="Rectangle_17" data-name="Rectangle 17" width="834" height="456" rx="20.42" transform="translate(543.5 1904.998)" fill="#f2f2f2"/>
    <path id="Path_86" data-name="Path 86" d="M1017,304.78v11.58H183V304.78a20.42,20.42,0,0,1,20.42-20.42H996.58A20.42,20.42,0,0,1,1017,304.78Z" transform="translate(360.5 1620.638)" fill="#3f3d56"/>
    <circle id="Ellipse_24" data-name="Ellipse 24" cx="6" cy="6" r="6" transform="translate(559 1915.498)" fill="#00bfa6"/>
    <circle id="Ellipse_25" data-name="Ellipse 25" cx="6" cy="6" r="6" transform="translate(574 1915.498)" fill="#00bfa6"/>
    <circle id="Ellipse_26" data-name="Ellipse 26" cx="6" cy="6" r="6" transform="translate(589 1915.498)" fill="#00bfa6"/>
    <path id="Path_87" data-name="Path 87" d="M347.5,503.86" transform="translate(360.5 1642.64)" fill="none" stroke="#f2f2f2" stroke-miterlimit="10" stroke-width="2"/>
    <path id="Path_88" data-name="Path 88" d="M333.5,502.86" transform="translate(360.5 1643.64)" fill="none" stroke="#f2f2f2" stroke-miterlimit="10" stroke-width="2"/>
    <path id="Path_93" data-name="Path 93" d="M1023.9,746.78c-3-5.51.4-12.27,4.29-17.18s8.61-10,8.51-16.29c-.15-9-9.7-14.32-17.33-19.09a84,84,0,0,1-15.56-12.51,22.8,22.8,0,0,1-4.78-6.4c-1.58-3.52-1.54-7.52-1.44-11.37q.51-19.26,1.91-38.49" transform="translate(360.5 1620.638)" fill="none" stroke="#3f3d56" stroke-miterlimit="10" stroke-width="4"/>
    <path id="Path_94" data-name="Path 94" d="M985,624.75a14,14,0,0,1,7-11.5l3.14,6.22-.1-7.53a14.22,14.22,0,0,1,4.63-.56A14,14,0,1,1,985,624.75Z" transform="translate(360.5 1620.638)" fill="#57b894"/>
    <path id="Path_95" data-name="Path 95" d="M1010,719.74a14,14,0,1,0-.68-11.3l8.77,7.13-9.65-2.23a14,14,0,0,0,1.56,6.4Z" transform="translate(360.5 1620.638)" fill="#57b894"/>
    <path id="Path_96" data-name="Path 96" d="M1017,692.49a14,14,0,0,0,4.4-27.49l.08,5.78-3.18-6.29h0a14,14,0,0,0-14.67,13.36,13.843,13.843,0,0,0,.6,4.79,14,14,0,0,0,12.77,9.85Z" transform="translate(360.5 1620.638)" fill="#57b894"/>
    <path id="Path_97" data-name="Path 97" d="M982.88,669.82a14,14,0,1,0-6.21-26.27l2.48,6.8-5.1-4.9a14,14,0,0,0-4.53,9.69,13.789,13.789,0,0,0,.35,3.87,14,14,0,0,0,13.01,10.81Z" transform="translate(360.5 1620.638)" fill="#57b894"/>
    <path id="Path_98" data-name="Path 98" d="M986.88,628.49c3.24.35,6.39,1.36,9.64,1.56s6.82-.57,8.88-3.1c1.1-1.36,1.66-3.08,2.59-4.57a10,10,0,0,1,3.54-3.33,14,14,0,1,1-26.24,9.32Q986.09,628.4,986.88,628.49Z" transform="translate(360.5 1620.638)" opacity="0.1"/>
    <path id="Path_99" data-name="Path 99" d="M982.88,669.82a14,14,0,0,0,13.35-20,10.369,10.369,0,0,0-2.82,2.82c-1,1.51-1.61,3.26-2.78,4.64-2.19,2.57-5.92,3.41-9.31,3.26s-6.66-1.12-10-1.43c-.47,0-.94-.07-1.42-.08a14,14,0,0,0,12.98,10.79Z" transform="translate(360.5 1620.638)" opacity="0.1"/>
    <path id="Path_100" data-name="Path 100" d="M1017,692.49a14,14,0,0,0,13.46-19.76,11.48,11.48,0,0,0-3,2.85c-1.09,1.54-1.77,3.31-3,4.73-2.37,2.64-6.35,3.57-9.93,3.49s-6.83-.93-10.28-1.2a14,14,0,0,0,12.75,9.89Z" transform="translate(360.5 1620.638)" opacity="0.1"/>
    <path id="Path_101" data-name="Path 101" d="M1010,719.74a14.017,14.017,0,1,0,25.59-11.45,13.587,13.587,0,0,0-3.08,2.75c-1.34,1.62-2.22,3.47-3.76,5-2.87,2.82-7.5,4-11.63,4.09a59.978,59.978,0,0,1-7.12-.39Z" transform="translate(360.5 1620.638)" opacity="0.1"/>
    <path id="Path_102" data-name="Path 102" d="M1045.07,740.43s-11.08-.34-14.42-2.72-17-5.21-17.86-1.4-16.65,19-4.15,19.06,29.06-2,32.4-4S1045.07,740.43,1045.07,740.43Z" transform="translate(360.5 1620.638)" fill="#656380"/>
    <path id="Path_103" data-name="Path 103" d="M1008.42,754.05c12.51.1,29.06-1.95,32.39-4,2.54-1.55,3.55-7.09,3.89-9.65h.37s-.7,8.94-4,11-19.89,4.08-32.4,4c-3.61,0-4.85-1.31-4.78-3.21C1004.36,753.31,1005.73,754,1008.42,754.05Z" transform="translate(360.5 1620.638)" opacity="0.2"/>
    <path id="Path_104" data-name="Path 104" d="M195.79,741.86c-4.39-8.12.59-18.08,6.31-25.33s12.7-14.78,12.56-24c-.22-13.27-14.3-21.1-25.56-28.14a124.611,124.611,0,0,1-22.94-18.44,33.79,33.79,0,0,1-7-9.44c-2.33-5.19-2.26-11.09-2.11-16.78q.72-28.4,2.8-56.75" transform="translate(360.5 1620.638)" fill="none" stroke="#3f3d56" stroke-miterlimit="10" stroke-width="4"/>
    <path id="Path_105" data-name="Path 105" d="M138.41,561.93a20.68,20.68,0,0,1,10.33-17l4.64,9.17-.14-11.1a20.7,20.7,0,1,1-14.83,18.89Z" transform="translate(360.5 1620.638)" fill="#57b894"/>
    <path id="Path_106" data-name="Path 106" d="M175.32,702a20.69,20.69,0,1,0-1-16.66l12.92,10.51L173,692.56a20.609,20.609,0,0,0,2.32,9.44Z" transform="translate(360.5 1620.638)" fill="#57b894"/>
    <path id="Path_107" data-name="Path 107" d="M185.54,661.82a20.7,20.7,0,0,0,6.56-40.6l.11,8.52-4.69-9.27h-.05a20.7,20.7,0,1,0-1.93,41.352Z" transform="translate(360.5 1620.638)" fill="#57b894"/>
    <path id="Path_108" data-name="Path 108" d="M135.3,628.39a20.71,20.71,0,0,0,21.64-19.71,20.44,20.44,0,0,0-2-9.81,20.67,20.67,0,0,0-28.83-9.21l3.65,10-7.52-7.22a20.7,20.7,0,0,0,13,35.93Z" transform="translate(360.5 1620.638)" fill="#57b894"/>
    <path id="Path_109" data-name="Path 109" d="M141.2,567.44c4.77.53,9.42,2,14.21,2.31s10.06-.85,13.09-4.58c1.63-2,2.45-4.54,3.83-6.73a14.77,14.77,0,0,1,5.21-4.91,20.7,20.7,0,1,1-38.69,13.74C139.63,567.3,140.42,567.36,141.2,567.44Z" transform="translate(360.5 1620.638)" opacity="0.1"/>
    <path id="Path_110" data-name="Path 110" d="M135.3,628.39a20.71,20.71,0,0,0,21.64-19.71,20.44,20.44,0,0,0-2-9.81,15.39,15.39,0,0,0-4.16,4.16c-1.47,2.23-2.37,4.8-4.1,6.84-3.22,3.79-8.73,5-13.72,4.8s-9.82-1.64-14.79-2.1c-.69-.06-1.39-.11-2.09-.13a20.69,20.69,0,0,0,19.22,15.95Z" transform="translate(360.5 1620.638)" opacity="0.1"/>
    <path id="Path_111" data-name="Path 111" d="M185.54,661.82a20.69,20.69,0,0,0,19.85-29.14,16.689,16.689,0,0,0-4.37,4.21c-1.61,2.27-2.61,4.88-4.5,7-3.49,3.89-9.36,5.26-14.65,5.14-5.12-.12-10.06-1.37-15.15-1.76a20.71,20.71,0,0,0,18.82,14.55Z" transform="translate(360.5 1620.638)" opacity="0.1"/>
    <path id="Path_112" data-name="Path 112" d="M175.32,702a20.7,20.7,0,0,0,37.73-16.89,20.9,20.9,0,0,0-4.55,4c-2,2.4-3.26,5.12-5.54,7.36-4.23,4.15-11.06,5.86-17.14,6a89.066,89.066,0,0,1-10.5-.47Z" transform="translate(360.5 1620.638)" opacity="0.1"/>
    <path id="Path_113" data-name="Path 113" d="M227,732.51s-16.33-.5-21.26-4-25.12-7.69-26.34-2.07-24.55,28-6.11,28.11,42.85-2.87,47.76-5.87S227,732.51,227,732.51Z" transform="translate(360.5 1620.638)" fill="#656380"/>
    <path id="Path_114" data-name="Path 114" d="M173,752.58c18.44.15,42.85-2.87,47.76-5.86,3.74-2.28,5.24-10.46,5.73-14.23h.55s-1,13.17-5.95,16.16-29.32,6-47.76,5.87c-5.32,0-7.16-1.94-7.06-4.74C167,751.49,169,752.55,173,752.58Z" transform="translate(360.5 1620.638)" opacity="0.2"/>
    <path id="Path_122" data-name="Path 122" d="M922.46,601.24a61.517,61.517,0,0,0-8.26,4.84,6.717,6.717,0,0,0-1.09.89,8.158,8.158,0,0,0-.67.88,16.521,16.521,0,0,0-2.82,5.62" transform="translate(360.5 1620.638)" fill="none" stroke="#000" stroke-miterlimit="10" stroke-width="1" opacity="0.1"/>
    <text id="Portfolio_Performance_Monitoring" data-name="Portfolio
Performance
Monitoring" transform="translate(673 2003)" fill="#21232a" font-size="14" font-family="HelveticaNeue, Helvetica Neue"><tspan x="0" y="0">Portfolio</tspan><tspan x="0" y="16">Performance</tspan><tspan x="0" y="32">Monitoring</tspan></text>
    <text id="Customer_Management" data-name="Customer
Management" transform="translate(673 2143)" fill="#21232a" font-size="14" font-family="HelveticaNeue, Helvetica Neue"><tspan x="0" y="0">Customer</tspan><tspan x="0" y="16">Management</tspan></text>
    <text id="Remote_Monitoring_Control" data-name="Remote
Monitoring &amp; 
Control" transform="translate(673 2263)" fill="#21232a" font-size="14" font-family="HelveticaNeue, Helvetica Neue"><tspan x="0" y="0">Remote</tspan><tspan x="0" y="16">Monitoring &amp; </tspan><tspan x="0" y="32">Control</tspan></text>
    <text id="Financial_Reporting" data-name="Financial
Reporting" transform="translate(856 2011)" fill="#21232a" font-size="14" font-family="HelveticaNeue, Helvetica Neue"><tspan x="0" y="0">Financial</tspan><tspan x="0" y="16">Reporting</tspan></text>
    <text id="Customer_Service" data-name="Customer
Service" transform="translate(856 2143)" fill="#21232a" font-size="14" font-family="HelveticaNeue, Helvetica Neue"><tspan x="0" y="0">Customer</tspan><tspan x="0" y="16">Service</tspan></text>
    <text id="Plant_Maintenance_" data-name="Plant 
Maintenance " transform="translate(856 2271)" fill="#21232a" font-size="14" font-family="HelveticaNeue, Helvetica Neue"><tspan x="0" y="0">Plant </tspan><tspan x="0" y="16">Maintenance </tspan></text>
    <text id="Technical_Analysis" data-name="Technical
Analysis" transform="translate(1025 2011)" fill="#21232a" font-size="14" font-family="HelveticaNeue, Helvetica Neue"><tspan x="0" y="0">Technical</tspan><tspan x="0" y="16">Analysis</tspan></text>
    <text id="Tariffs_and_Management" data-name="Tariffs and
Management" transform="translate(1025 2143)" fill="#21232a" font-size="14" font-family="HelveticaNeue, Helvetica Neue"><tspan x="0" y="0">Tariffs and</tspan><tspan x="0" y="16">Management</tspan></text>
    <text id="Installation_Commissioning" data-name="Installation &amp;
Commissioning" transform="translate(1025 2271)" fill="#21232a" font-size="14" font-family="HelveticaNeue, Helvetica Neue"><tspan x="0" y="0">Installation &amp;</tspan><tspan x="0" y="16">Commissioning</tspan></text>
    <text id="Field_Force_Management" data-name="Field Force
Management" transform="translate(1203 2011)" fill="#21232a" font-size="14" font-family="HelveticaNeue, Helvetica Neue"><tspan x="0" y="0">Field Force</tspan><tspan x="0" y="16">Management</tspan></text>
    <text id="Inventory_Management" data-name="Inventory
Management" transform="translate(1203 2143)" fill="#21232a" font-size="14" font-family="HelveticaNeue, Helvetica Neue"><tspan x="0" y="0">Inventory</tspan><tspan x="0" y="16">Management</tspan></text>
    <text id="Standardised_Reports" data-name="Standardised
Reports" transform="translate(1203 2271)" fill="#21232a" font-size="14" font-family="HelveticaNeue, Helvetica Neue"><tspan x="0" y="0">Standardised</tspan><tspan x="0" y="16">Reports</tspan></text>
    <g id="money" transform="translate(633 1999)" opacity="0.701">
      <g id="Group_6" data-name="Group 6">
        <g id="Group_5" data-name="Group 5">
          <path id="Path_123" data-name="Path 123" d="M30.557,14.985A15.151,15.151,0,0,0,15.278,0a15.466,15.466,0,0,0-7.5,1.934H5.914V0H2.957V6.133A14.659,14.659,0,0,0,0,14.985,15.151,15.151,0,0,0,15.278,29.969a15.477,15.477,0,0,0,5.447-.982,6.486,6.486,0,0,0,7.61-.544l-.644-.732A5.483,5.483,0,0,1,24.15,29a5.318,5.318,0,1,1,5.421-5.317,5.2,5.2,0,0,1-1.2,3.331l.768.606a6.229,6.229,0,0,0,1.413-3.937,6.154,6.154,0,0,0-1-3.36A14.671,14.671,0,0,0,30.557,14.985ZM7.886,4.834h.986V11.6H7.886ZM5.914,2.9H6.9v8.7H5.914ZM3.943.967h.986V11.6H3.943ZM14.786,28.991A14.171,14.171,0,0,1,1,15.468H14.786Zm0-14.489H1.005A13.656,13.656,0,0,1,2.957,7.895v4.673H13.8V7.734H11.828V5.8H9.857V3.867H7.886V2.993a14.436,14.436,0,0,1,6.9-2.009ZM9.857,11.6V6.767h.986V11.6Zm1.971,0V8.7h.986v2.9Zm17.73,2.9H25.339l3.624-3.555A13.7,13.7,0,0,1,29.559,14.5Zm-2.483-7.42-5.5,5.4.7.683,5.347-5.245a13.886,13.886,0,0,1,.991,2.011L23.946,14.5H20.9l.637-.625-.7-.683L19.51,14.5H16.468L25.72,5.427A14.235,14.235,0,0,1,27.075,7.081Zm-11.3-6.1a14.473,14.473,0,0,1,3.624.583L15.771,5.117Zm0,9.856,5.99-5.874-.7-.683L15.771,9.467V6.484l4.66-4.571a14.292,14.292,0,0,1,2.051.972l-.794.779.7.683.951-.933a14.363,14.363,0,0,1,1.687,1.329l-9.252,9.074ZM24.15,17.4a6.354,6.354,0,0,0-6.407,6.284,6.207,6.207,0,0,0,2.058,4.6,14.457,14.457,0,0,1-4.03.7V15.468H29.56a13.7,13.7,0,0,1-.72,3.951A6.44,6.44,0,0,0,24.15,17.4Z" fill="#3f3d56"/>
        </g>
      </g>
      <g id="Group_8" data-name="Group 8" transform="translate(5.903 16.982)">
        <g id="Group_7" data-name="Group 7" transform="translate(0 0)">
          <rect id="Rectangle_19" data-name="Rectangle 19" width="9.153" height="1.079" transform="translate(0 6.472) rotate(-45)" fill="#3f3d56"/>
        </g>
      </g>
      <g id="Group_10" data-name="Group 10" transform="translate(9.757 21.005)">
        <g id="Group_9" data-name="Group 9">
          <path id="Path_124" data-name="Path 124" d="M161.618,352a1.618,1.618,0,1,0,1.618,1.618A1.62,1.62,0,0,0,161.618,352Zm0,2.157a.539.539,0,1,1,.539-.539A.54.54,0,0,1,161.618,354.157Z" transform="translate(-160 -352)" fill="#3f3d56"/>
        </g>
      </g>
      <g id="Group_12" data-name="Group 12" transform="translate(5.854 17.186)">
        <g id="Group_11" data-name="Group 11">
          <path id="Path_125" data-name="Path 125" d="M97.618,288a1.618,1.618,0,1,0,1.618,1.618A1.62,1.62,0,0,0,97.618,288Zm0,2.157a.539.539,0,1,1,.539-.539A.54.54,0,0,1,97.618,290.157Z" transform="translate(-96 -288)" fill="#3f3d56"/>
        </g>
      </g>
      <g id="Group_14" data-name="Group 14" transform="translate(21.388 18.104)">
        <g id="Group_13" data-name="Group 13">
          <path id="Path_126" data-name="Path 126" d="M362.157,324.315a1.079,1.079,0,1,1,1.079-1.079h1.079a2.155,2.155,0,0,0-1.618-2.081V320h-1.079v1.155a2.153,2.153,0,0,0,.539,4.238,1.079,1.079,0,1,1-1.079,1.079H360a2.155,2.155,0,0,0,1.618,2.081v1.155H362.7v-1.155a2.153,2.153,0,0,0-.539-4.238Z" transform="translate(-360 -320)" fill="#3f3d56"/>
        </g>
      </g>
      <g id="Group_16" data-name="Group 16" transform="translate(27.557 22.718)">
        <g id="Group_15" data-name="Group 15" transform="translate(0 0)">
          <rect id="Rectangle_20" data-name="Rectangle 20" width="1" height="1" transform="translate(0 -0.279)" fill="#3f3d56"/>
        </g>
      </g>
      <g id="Group_18" data-name="Group 18" transform="translate(19.534 22.718)">
        <g id="Group_17" data-name="Group 17" transform="translate(0 0)">
          <rect id="Rectangle_21" data-name="Rectangle 21" width="1" height="1" transform="translate(0.023 -0.279)" fill="#3f3d56"/>
        </g>
      </g>
    </g>
    <g id="up" transform="translate(808 1990.8)" opacity="0.697">
      <g id="Group_20" data-name="Group 20" transform="translate(3.43 8.2)">
        <g id="Group_19" data-name="Group 19" transform="translate(0 0)">
          <path id="Path_135" data-name="Path 135" d="M71.225,8.2V9.29H73L62.821,20.5,57.88,15.054l-6.28,6.92.694.771L57.88,16.6l4.941,5.444L73.7,10.061v1.948h.989V8.2Z" transform="translate(-51.6 -8.2)" fill="#3f3d56"/>
        </g>
      </g>
      <g id="Group_22" data-name="Group 22" transform="translate(0 15.825)">
        <g id="Group_21" data-name="Group 21">
          <path id="Path_136" data-name="Path 136" d="M30.4,143.853h0V122.9H25.339v20.953H24.324V125.76H19.259v18.1H18.245V132.426H13.173v11.427H12.159V129.566H7.094v14.286H6.08v-6.666H1.014v6.666H0v.953H31.418v-.953Zm-25.332,0H2.029v-5.713H5.071Zm6.08,0H8.108V130.52h3.043Zm6.08.006H14.188V133.379H17.23Zm6.08,0H20.267V126.713H23.31Zm6.086-.006H26.353v-20H29.4Z" transform="translate(0 -122.9)" fill="#3f3d56"/>
        </g>
      </g>
    </g>
    <g id="technical-support" transform="translate(968.599 1999)" opacity="0.698" style="isolation: isolate">
      <path id="Path_127" data-name="Path 127" d="M167.854,74.551a5.394,5.394,0,1,0-5.4-5.394A5.4,5.4,0,0,0,167.854,74.551Zm0-9.635a4.241,4.241,0,1,1-4.242,4.242A4.247,4.247,0,0,1,167.854,64.916Z" transform="translate(-135.749 -60.084)" fill="#3f3d56"/>
      <path id="Path_128" data-name="Path 128" d="M246.577,110.725a.577.577,0,0,0,.577-.577v-2.062a.577.577,0,1,0-1.154,0v2.062A.577.577,0,0,0,246.577,110.725Z" transform="translate(-214.472 -101.308)" fill="#3f3d56"/>
      <path id="Path_129" data-name="Path 129" d="M246.577,188.2a.577.577,0,1,0-.577-.578v0A.576.576,0,0,0,246.577,188.2Z" transform="translate(-214.472 -176.255)" fill="#3f3d56"/>
      <path id="Path_130" data-name="Path 130" d="M44.054,7.558H41.036a1.248,1.248,0,0,0-1.1-.67h-.253A7.809,7.809,0,0,0,39,5.263l.177-.178a1.246,1.246,0,0,0,0-1.764L37.857,1.993a1.249,1.249,0,0,0-1.763,0l-.18.18A7.772,7.772,0,0,0,34.29,1.5V1.247A1.248,1.248,0,0,0,33.044,0H31.167A1.248,1.248,0,0,0,29.92,1.247V1.5a7.77,7.77,0,0,0-1.624.673l-.18-.18a1.249,1.249,0,0,0-1.763,0L25.029,3.32a1.246,1.246,0,0,0,0,1.763l.179.18a7.807,7.807,0,0,0-.674,1.624h-.253a1.248,1.248,0,0,0-1.1.67H20.142A1.75,1.75,0,0,0,18.4,9.313V22.481a1.757,1.757,0,0,0,1.755,1.755h8.033l-.859,1.83h-.659A1.735,1.735,0,0,0,24.938,27.8v1.154a.577.577,0,0,0,.577.577h13.18a.577.577,0,0,0,.577-.577V27.8a1.735,1.735,0,0,0-1.733-1.733H36.88l-.859-1.83h8.033a1.757,1.757,0,0,0,1.755-1.755V9.313a1.757,1.757,0,0,0-1.755-1.755Zm-19.868.577a.1.1,0,0,1,.093-.093h.7a.577.577,0,0,0,.563-.451,6.67,6.67,0,0,1,.875-2.11.577.577,0,0,0-.079-.715l-.5-.5a.089.089,0,0,1-.026-.064.091.091,0,0,1,.028-.066l1.326-1.328a.1.1,0,0,1,.131,0l.5.5a.577.577,0,0,0,.717.079,6.631,6.631,0,0,1,2.109-.875.577.577,0,0,0,.451-.563v-.7a.094.094,0,0,1,.093-.093h1.877a.094.094,0,0,1,.093.093v.7a.577.577,0,0,0,.451.563,6.632,6.632,0,0,1,2.109.875.577.577,0,0,0,.717-.079l.5-.5a.1.1,0,0,1,.131,0l1.328,1.329a.089.089,0,0,1,.026.064.091.091,0,0,1-.028.066l-.495.5a.577.577,0,0,0-.079.715,6.669,6.669,0,0,1,.875,2.11.577.577,0,0,0,.563.451h.7a.1.1,0,0,1,.093.093V10.01a.1.1,0,0,1-.093.093h-.7a.577.577,0,0,0-.563.451,6.674,6.674,0,0,1-.875,2.112.577.577,0,0,0,.08.716l.495.495a.094.094,0,0,1,0,.133l-1.326,1.326a.1.1,0,0,1-.131,0l-.5-.5a.577.577,0,0,0-.717-.079,6.631,6.631,0,0,1-2.109.875.577.577,0,0,0-.451.563v.7a.094.094,0,0,1-.093.093H31.166a.094.094,0,0,1-.093-.093v-.7a.577.577,0,0,0-.451-.563,6.632,6.632,0,0,1-2.109-.875.577.577,0,0,0-.717.079l-.5.5a.1.1,0,0,1-.131,0l-1.326-1.326a.094.094,0,0,1,0-.133l.495-.495a.577.577,0,0,0,.08-.716,6.672,6.672,0,0,1-.875-2.112.577.577,0,0,0-.563-.451h-.7a.1.1,0,0,1-.093-.093ZM38.118,27.8v.578H26.092V27.8a.58.58,0,0,1,.579-.579H37.539A.58.58,0,0,1,38.118,27.8Zm-2.513-1.733h-7l.859-1.83h5.283Zm8.448-2.984h-23.9a.6.6,0,0,1-.6-.6V21.5H35.41a.577.577,0,1,0,0-1.154H19.555V9.313a.6.6,0,0,1,.588-.6h2.89v1.3a1.248,1.248,0,0,0,1.247,1.247h.253a7.814,7.814,0,0,0,.674,1.625l-.178.178a1.249,1.249,0,0,0,0,1.764l1.326,1.326a1.249,1.249,0,0,0,1.763,0l.18-.18a7.773,7.773,0,0,0,1.624.673V16.9a1.248,1.248,0,0,0,1.247,1.247h1.877A1.248,1.248,0,0,0,34.29,16.9v-.253a7.77,7.77,0,0,0,1.624-.673l.18.18a1.249,1.249,0,0,0,1.763,0l1.326-1.326a1.249,1.249,0,0,0,0-1.764L39,12.882a7.814,7.814,0,0,0,.674-1.625h.253a1.248,1.248,0,0,0,1.247-1.247v-1.3h2.876a.6.6,0,0,1,.6.6V20.345H40.8a.577.577,0,1,0,0,1.154h3.859v.982A.6.6,0,0,1,44.054,23.083Z" transform="translate(0 0)" fill="#3f3d56"/>
      <path id="Path_131" data-name="Path 131" d="M350.575,352.742a.577.577,0,1,0,0,1.154h0a.577.577,0,1,0,0-1.154Z" transform="translate(-312.471 -332.397)" fill="#3f3d56"/>
    </g>
    <g id="Outline" transform="translate(1146 1983)" opacity="0.698" style="isolation: isolate">
      <rect id="Rectangle_22" data-name="Rectangle 22" width="1" height="1" transform="translate(18 22)" fill="#3f3d56"/>
      <rect id="Rectangle_23" data-name="Rectangle 23" width="1" height="1" transform="translate(20 22)" fill="#3f3d56"/>
      <rect id="Rectangle_24" data-name="Rectangle 24" width="1" height="1" transform="translate(22 22)" fill="#3f3d56"/>
      <path id="Path_132" data-name="Path 132" d="M138,168a2,2,0,1,0,2,2A2,2,0,0,0,138,168Zm0,3a1,1,0,1,1,1-1A1,1,0,0,1,138,171Z" transform="translate(-112.492 -142.49)" fill="#3f3d56"/>
      <path id="Path_133" data-name="Path 133" d="M43.024,33.653l-3.032-.432-.967-.507V30.668c.05-.036.1-.073.145-.11a4.512,4.512,0,0,0,1.6-2.451,8.4,8.4,0,0,0,.246-1.6h.015a2,2,0,0,0,.545-3.928,1.993,1.993,0,0,0-.045-1.164V19.5a3.5,3.5,0,0,0-3.5-3.5h-4a3.5,3.5,0,0,0-3.5,3.5H18a2,2,0,0,0-2,2V35.02a2,2,0,0,0,2,2h5.312l-.667,2h-.64a1.5,1.5,0,1,0,0,3h4v3.5h1v-4.5h3v4.5h1V38.523h-1v1.5h-3v-2.9a2.52,2.52,0,0,1,2.147-2.478l2.643-.373.724,3.844a.5.5,0,0,0,.492.408,1.174,1.174,0,0,0,.449-.165l2.054-1.027v4.2h1v-4.2L38.8,38.471a.5.5,0,0,0,.716-.355l.725-3.847,2.64.376a2.521,2.521,0,0,1,2.149,2.478v2.9h-3v-1.5h-1v7.007h1v-4.5h3v4.5h1V37.122a3.528,3.528,0,0,0-3.008-3.469Zm-7,2.007-2-2.8V31.21c.118.045.238.086.36.12a4.351,4.351,0,0,0,1.267.185H36.4a4.477,4.477,0,0,0,1.627-.3v1.646Zm3.774-7.8a3.507,3.507,0,0,1-1.243,1.909l-.009.007a2.625,2.625,0,0,1-.281.2l-.009.005a3.451,3.451,0,0,1-1.858.537h-.751a3.351,3.351,0,0,1-.98-.143l-.01,0a3.3,3.3,0,0,1-.871-.393,3.469,3.469,0,0,1-1.537-2.117,7.462,7.462,0,0,1-.23-1.848V24.047a2.037,2.037,0,0,0,.739.012l.306-.051a.751.751,0,1,0,1.3-.214,11.482,11.482,0,0,1,3.327,0,.751.751,0,1,0,1.3.214c.042.118.888.07,1.049.04-.024.651,0,1.309,0,1.962A7.463,7.463,0,0,1,39.8,27.86Zm-9.486-2.644a1,1,0,0,1,.7-1.708l.005.005v2A1.008,1.008,0,0,1,30.309,25.216Zm-2.07,4.317.457.457-.708.708-.457-.457a.5.5,0,0,0-.592-.086,2.982,2.982,0,0,1-.57.235.5.5,0,0,0-.358.48v.648h-1v-.648a.5.5,0,0,0-.358-.48,2.983,2.983,0,0,1-.57-.235.5.5,0,0,0-.592.086l-.457.457-.708-.708.457-.457a.5.5,0,0,0,.086-.592,2.985,2.985,0,0,1-.235-.57.5.5,0,0,0-.48-.358h-.648v-1h.648a.5.5,0,0,0,.48-.358,2.985,2.985,0,0,1,.235-.57.5.5,0,0,0-.086-.592l-.457-.457.708-.708.457.457a.5.5,0,0,0,.592.086,2.984,2.984,0,0,1,.57-.234.5.5,0,0,0,.358-.48v-.648h1v.648a.5.5,0,0,0,.358.48,2.985,2.985,0,0,1,.57.234.5.5,0,0,0,.592-.086l.457-.457.708.708-.457.457a.5.5,0,0,0-.086.592,2.986,2.986,0,0,1,.235.57.5.5,0,0,0,.48.358h.648v1h-.648a.5.5,0,0,0-.48.358,2.984,2.984,0,0,1-.235.57A.5.5,0,0,0,28.238,29.533Zm.983-3.522-.025-.061.228-.228a1.984,1.984,0,0,0,.176.2c.03.03.061.059.093.087Zm11.188-3.3a1,1,0,0,1-.959.365l-1.373-.229a12.484,12.484,0,0,0-4.114,0l-1.373.229a1.018,1.018,0,0,1-1.183-1.065h9.225a1,1,0,0,1-.224.7Zm1.618,1.8a1,1,0,0,1-1,1v-2l.006-.006A1,1,0,0,1,42.027,24.509ZM31.516,19.5a2.5,2.5,0,0,1,2.5-2.5h4a2.5,2.5,0,0,1,2.5,2.5v1.5H31.516ZM24.369,37.022h1.644c0,.033,0,.067,0,.1v1.9H23.7Zm-2.363,4a.5.5,0,0,1-.5-.5.479.479,0,0,1,.144-.347l.01-.01a.479.479,0,0,1,.347-.144h4v1Zm4.185-5.005H18a1,1,0,0,1-1-1v-.5H27.18a3.547,3.547,0,0,0-.989,1.5Zm5.85-2.794-2.066.292H17V21.506a1,1,0,0,1,1-1H30.515v.914a1.993,1.993,0,0,0-.045,1.164A2.009,2.009,0,0,0,29.079,24l-.737-.737a.5.5,0,0,0-.708,0l-.561.561-.061-.025v-.793a.5.5,0,0,0-.5-.5h-2a.5.5,0,0,0-.5.5V23.8l-.061.025-.561-.561a.5.5,0,0,0-.708,0L21.263,24.68a.5.5,0,0,0,0,.708l.561.561-.025.061h-.793a.5.5,0,0,0-.5.5v2a.5.5,0,0,0,.5.5H21.8l.025.061-.561.561a.5.5,0,0,0,0,.708l1.416,1.416a.5.5,0,0,0,.708,0l.561-.561.061.025v.793a.5.5,0,0,0,.5.5h2a.5.5,0,0,0,.5-.5v-.793l.061-.025.561.561a.5.5,0,0,0,.708,0l1.416-1.416a.5.5,0,0,0,0-.708l-.561-.561.025-.061h.793a.5.5,0,0,0,.5-.5v-2a.5.5,0,0,0,0-.066,1.982,1.982,0,0,0,.505.066h.015a8.378,8.378,0,0,0,.245,1.592,4.455,4.455,0,0,0,1.742,2.563v2.049Zm1.346,4.052-.622-3.3.6-.314,1.909,2.672Zm5.268,0-1.886-.943,1.909-2.672.6.314Z" fill="#3f3d56"/>
      <path id="Path_134" data-name="Path 134" d="M312.7,185.087H312v1h.7a7.043,7.043,0,0,0,2.478-.429l-.356-.936A6.037,6.037,0,0,1,312.7,185.087Z" transform="translate(-277.481 -158.168)" fill="#3f3d56"/>
      <rect id="Rectangle_25" data-name="Rectangle 25" width="3" height="1" transform="translate(34 19)" fill="#3f3d56"/>
      <rect id="Rectangle_26" data-name="Rectangle 26" height="1" transform="translate(34 39)" fill="#3f3d56"/>
    </g>
    <g id="Browser-Management-Gear-Profile-Online" transform="translate(632 2130)" opacity="0.701">
      <path id="Path_137" data-name="Path 137" d="M17.4,27.032h-13a1.444,1.444,0,0,1-1.444-1.444V6.814H27.032V17.886h.963V4.407A2.41,2.41,0,0,0,25.588,2H4.407A2.41,2.41,0,0,0,2,4.407V25.588a2.41,2.41,0,0,0,2.407,2.407h13Zm-13-24.069H25.588a1.444,1.444,0,0,1,1.444,1.444V5.851H2.963V4.407A1.444,1.444,0,0,1,4.407,2.963Z" fill="#3f3d56"/>
      <path id="Path_138" data-name="Path 138" d="M8,6h.963v.963H8Z" transform="translate(-3.112 -2.074)" fill="#3f3d56"/>
      <path id="Path_139" data-name="Path 139" d="M12,6h.963v.963H12Z" transform="translate(-5.186 -2.074)" fill="#3f3d56"/>
      <path id="Path_140" data-name="Path 140" d="M16,6h.963v.963H16Z" transform="translate(-7.261 -2.074)" fill="#3f3d56"/>
      <path id="Path_141" data-name="Path 141" d="M14.094,19.57l-1.333-.886A1.9,1.9,0,0,0,13.3,17.37V15.926a1.926,1.926,0,1,0-3.851,0V17.37a1.9,1.9,0,0,0,.53,1.319l-1.329.881A1.447,1.447,0,0,0,8,20.773v1.41a.481.481,0,0,0,.481.481h5.777a.481.481,0,0,0,.481-.481v-1.41a1.447,1.447,0,0,0-.645-1.2Zm-3.687-3.644a.963.963,0,0,1,1.9-.231l-.111-.111a.485.485,0,0,0-.684,0l-.679.679a.481.481,0,0,1-.342.144h-.082Zm.082,1.444a1.444,1.444,0,0,0,1.025-.424l.337-.342.481.481v.284a.954.954,0,0,1-.323.717.979.979,0,0,1-1.28,0l-.039-.039a.955.955,0,0,1-.284-.679ZM11.947,19.3l-.578.385-.578-.385.106-.067a1.685,1.685,0,0,0,.944,0ZM13.777,21.7H8.963v-.929a.481.481,0,0,1,.217-.4l.746-.5,1.179.785a.469.469,0,0,0,.53,0l1.179-.785.746.5a.481.481,0,0,1,.217.4Z" transform="translate(-3.112 -6.223)" fill="#3f3d56"/>
      <path id="Path_142" data-name="Path 142" d="M14.094,39.57l-1.333-.886A1.9,1.9,0,0,0,13.3,37.37V35.926a1.926,1.926,0,1,0-3.851,0V37.37a1.9,1.9,0,0,0,.53,1.319l-1.329.881A1.447,1.447,0,0,0,8,40.773v1.41a.481.481,0,0,0,.481.481h5.777a.481.481,0,0,0,.481-.481v-1.41a1.447,1.447,0,0,0-.645-1.2Zm-3.687-3.644a.963.963,0,0,1,1.9-.231l-.111-.111a.485.485,0,0,0-.684,0l-.679.679a.481.481,0,0,1-.342.144h-.082Zm.082,1.444a1.444,1.444,0,0,0,1.025-.424l.337-.342.481.481v.284a.954.954,0,0,1-.323.717.979.979,0,0,1-1.28,0l-.039-.039a.955.955,0,0,1-.284-.679ZM11.947,39.3l-.578.385-.578-.385.106-.067a1.685,1.685,0,0,0,.944,0ZM13.777,41.7H8.963v-.929a.481.481,0,0,1,.217-.4l.746-.5,1.179.785a.469.469,0,0,0,.53,0l1.179-.785.746.5a.481.481,0,0,1,.217.4Z" transform="translate(-3.112 -16.596)" fill="#3f3d56"/>
      <path id="Path_143" data-name="Path 143" d="M27,60h4.814v.963H27Z" transform="translate(-12.965 -30.08)" fill="#3f3d56"/>
      <path id="Path_144" data-name="Path 144" d="M23,60h.963v.963H23Z" transform="translate(-10.891 -30.08)" fill="#3f3d56"/>
      <path id="Path_145" data-name="Path 145" d="M60,34h.963v.963H60Z" transform="translate(-30.08 -16.596)" fill="#3f3d56"/>
      <path id="Path_146" data-name="Path 146" d="M60,22h.963v4.814H60Z" transform="translate(-30.08 -10.372)" fill="#3f3d56"/>
      <path id="Path_147" data-name="Path 147" d="M27,28h6.739v.963H27Z" transform="translate(-12.965 -13.484)" fill="#3f3d56"/>
      <path id="Path_148" data-name="Path 148" d="M27,24h6.739v.963H27Z" transform="translate(-12.965 -11.41)" fill="#3f3d56"/>
      <path id="Path_149" data-name="Path 149" d="M31,20h4.814v.963H31Z" transform="translate(-15.04 -9.335)" fill="#3f3d56"/>
      <path id="Path_150" data-name="Path 150" d="M27,20h.963v.963H27Z" transform="translate(-12.965 -9.335)" fill="#3f3d56"/>
      <path id="Path_151" data-name="Path 151" d="M27,48h2.407v.963H27Z" transform="translate(-12.965 -23.857)" fill="#3f3d56"/>
      <path id="Path_152" data-name="Path 152" d="M27,44h2.407v.963H27Z" transform="translate(-12.965 -21.782)" fill="#3f3d56"/>
      <path id="Path_153" data-name="Path 153" d="M31,40h1.926v.963H31Z" transform="translate(-15.04 -19.708)" fill="#3f3d56"/>
      <path id="Path_154" data-name="Path 154" d="M27,40h.963v.963H27Z" transform="translate(-12.965 -19.708)" fill="#3f3d56"/>
      <path id="Path_155" data-name="Path 155" d="M47.066,39.3l-1.291-.184a5.229,5.229,0,0,0-.327-.789l.782-1.043a.481.481,0,0,0-.045-.629l-1.361-1.361a.481.481,0,0,0-.629-.045l-1.043.782a5.248,5.248,0,0,0-.789-.326l-.184-1.291A.481.481,0,0,0,41.7,34H39.777a.481.481,0,0,0-.477.413L39.116,35.7a5.226,5.226,0,0,0-.789.326l-1.043-.782a.481.481,0,0,0-.629.045l-1.361,1.361a.481.481,0,0,0-.045.629l.782,1.043a5.229,5.229,0,0,0-.327.789l-1.291.184a.481.481,0,0,0-.413.477V41.7a.481.481,0,0,0,.413.477l1.291.184a5.229,5.229,0,0,0,.327.789l-.782,1.043a.481.481,0,0,0,.045.629l1.361,1.361a.481.481,0,0,0,.629.045l1.043-.782a5.226,5.226,0,0,0,.789.326l.184,1.291a.481.481,0,0,0,.477.413H41.7a.481.481,0,0,0,.477-.413l.184-1.291a5.247,5.247,0,0,0,.789-.326l1.043.782a.481.481,0,0,0,.629-.045l1.361-1.361a.481.481,0,0,0,.045-.629l-.782-1.043a5.229,5.229,0,0,0,.327-.789l1.291-.184a.481.481,0,0,0,.413-.477V39.777a.481.481,0,0,0-.413-.477Zm-.55,1.985-1.186.169a.481.481,0,0,0-.4.357,4.3,4.3,0,0,1-.47,1.135.481.481,0,0,0,.029.535l.718.958-.77.77-.958-.718a.481.481,0,0,0-.534-.029,4.264,4.264,0,0,1-1.134.469.481.481,0,0,0-.358.4l-.169,1.186H40.194l-.169-1.186a.481.481,0,0,0-.358-.4,4.265,4.265,0,0,1-1.134-.469.481.481,0,0,0-.534.029l-.958.718-.77-.77.718-.958a.481.481,0,0,0,.029-.535,4.3,4.3,0,0,1-.47-1.135.481.481,0,0,0-.4-.357l-1.186-.17V40.194l1.186-.169a.481.481,0,0,0,.4-.357,4.3,4.3,0,0,1,.47-1.135A.481.481,0,0,0,36.987,38l-.718-.958.77-.77.958.718a.481.481,0,0,0,.534.029,4.265,4.265,0,0,1,1.134-.469.481.481,0,0,0,.358-.4l.169-1.186h1.091l.169,1.186a.481.481,0,0,0,.358.4,4.265,4.265,0,0,1,1.134.469.481.481,0,0,0,.534-.029l.958-.718.77.77L44.491,38a.481.481,0,0,0-.029.535,4.3,4.3,0,0,1,.47,1.135.481.481,0,0,0,.4.357l1.186.17Z" transform="translate(-16.596 -16.596)" fill="#3f3d56"/>
      <path id="Path_156" data-name="Path 156" d="M44.888,42a2.888,2.888,0,1,0,2.888,2.888A2.888,2.888,0,0,0,44.888,42Zm0,4.814a1.926,1.926,0,1,1,1.926-1.926A1.926,1.926,0,0,1,44.888,46.814Z" transform="translate(-20.745 -20.745)" fill="#3f3d56"/>
      <path id="Path_157" data-name="Path 157" d="M47,38h.963v.963H47Z" transform="translate(-23.338 -18.67)" fill="#3f3d56"/>
      <path id="Path_158" data-name="Path 158" d="M0,0H.963V.963H0Z" transform="translate(20.395 21.075) rotate(-45)" fill="#3f3d56"/>
      <path id="Path_159" data-name="Path 159" d="M38,47h.963v.963H38Z" transform="translate(-18.67 -23.338)" fill="#3f3d56"/>
      <path id="Path_160" data-name="Path 160" d="M0,0H.963V.963H0Z" transform="translate(20.395 27.206) rotate(-45)" fill="#3f3d56"/>
      <path id="Path_161" data-name="Path 161" d="M47,56h.963v.963H47Z" transform="translate(-23.338 -28.005)" fill="#3f3d56"/>
      <path id="Path_162" data-name="Path 162" d="M0,0H.963V.963H0Z" transform="translate(26.521 27.201) rotate(-45)" fill="#3f3d56"/>
      <path id="Path_163" data-name="Path 163" d="M56,47h.963v.963H56Z" transform="translate(-28.005 -23.338)" fill="#3f3d56"/>
      <path id="Path_164" data-name="Path 164" d="M0,0H.963V.963H0Z" transform="translate(26.522 21.086) rotate(-45)" fill="#3f3d56"/>
    </g>
    <g id="Page-1" transform="translate(1160.738 2132)" opacity="0.701">
      <g id="_023---Inventory" data-name="023---Inventory" transform="translate(0 0)">
        <path id="Shape" d="M27.439,0H1.444A1.444,1.444,0,0,0,0,1.444V27.439a1.444,1.444,0,0,0,1.444,1.444H27.439a1.444,1.444,0,0,0,1.444-1.444V1.444A1.444,1.444,0,0,0,27.439,0Zm.481,27.439a.481.481,0,0,1-.481.481H1.444a.481.481,0,0,1-.481-.481V1.444A.481.481,0,0,1,1.444.963H27.439a.481.481,0,0,1,.481.481Z" transform="translate(0 0)" fill="#3f3d56"/>
        <path id="Shape-2" data-name="Shape" d="M53.778,4.141a.481.481,0,0,0-.681,0l-.141.141-.141-.141a.481.481,0,0,0-.681.681l.141.141-.141.141a.481.481,0,1,0,.681.681l.141-.141.141.141a.481.481,0,0,0,.681-.681l-.141-.141.141-.141A.481.481,0,0,0,53.778,4.141Z" transform="translate(-26.962 -2.075)" fill="#3f3d56"/>
        <path id="Shape-3" data-name="Shape" d="M11.7,4H4.963A.963.963,0,0,0,4,4.963V11.7a.963.963,0,0,0,.963.963H11.7a.963.963,0,0,0,.963-.963V4.963A.963.963,0,0,0,11.7,4ZM4.963,11.7V4.963H11.7V11.7Z" transform="translate(-2.074 -2.074)" fill="#3f3d56"/>
        <path id="Shape-4" data-name="Shape" d="M24.481,5.963h4.332a.481.481,0,0,0,0-.963H24.481a.481.481,0,1,0,0,.963Z" transform="translate(-12.447 -2.593)" fill="#3f3d56"/>
        <path id="Shape-5" data-name="Shape" d="M24.481,11.963h1.444a.481.481,0,1,0,0-.963H24.481a.481.481,0,1,0,0,.963Z" transform="translate(-12.447 -5.705)" fill="#3f3d56"/>
        <path id="Shape-6" data-name="Shape" d="M31,11.481a.481.481,0,0,0,.481.481h3.37a.481.481,0,1,0,0-.963h-3.37A.481.481,0,0,0,31,11.481Z" transform="translate(-16.077 -5.705)" fill="#3f3d56"/>
        <path id="Shape-7" data-name="Shape" d="M32.183,15h-7.7a.481.481,0,1,0,0,.963h7.7a.481.481,0,1,0,0-.963Z" transform="translate(-12.447 -7.779)" fill="#3f3d56"/>
        <path id="Shape-8" data-name="Shape" d="M25.926,19.963a.481.481,0,1,0,0-.963H24.481a.481.481,0,0,0,0,.963Z" transform="translate(-12.447 -9.854)" fill="#3f3d56"/>
        <path id="Shape-9" data-name="Shape" d="M34.851,19h-3.37a.481.481,0,1,0,0,.963h3.37a.481.481,0,1,0,0-.963Z" transform="translate(-16.077 -9.854)" fill="#3f3d56"/>
        <path id="Shape-10" data-name="Shape" d="M9.777,24H4.963A.963.963,0,0,0,4,24.963v4.814a.963.963,0,0,0,.963.963H9.777a.963.963,0,0,0,.963-.963V24.963A.963.963,0,0,0,9.777,24ZM4.963,29.777V24.963H9.777v4.814Z" transform="translate(-2.074 -12.447)" fill="#3f3d56"/>
        <path id="Shape-11" data-name="Shape" d="M28.777,24H23.963a.963.963,0,0,0-.963.963v4.814a.963.963,0,0,0,.963.963h4.814a.963.963,0,0,0,.963-.963V24.963A.963.963,0,0,0,28.777,24Zm-4.814,5.777V24.963h4.814v4.814Z" transform="translate(-11.928 -12.447)" fill="#3f3d56"/>
        <path id="Shape-12" data-name="Shape" d="M47.777,24H42.963a.963.963,0,0,0-.963.963v4.814a.963.963,0,0,0,.963.963h4.814a.963.963,0,0,0,.963-.963V24.963A.963.963,0,0,0,47.777,24Zm-4.814,5.777V24.963h4.814v4.814Z" transform="translate(-21.782 -12.447)" fill="#3f3d56"/>
        <path id="Shape-13" data-name="Shape" d="M9.777,42H4.963A.963.963,0,0,0,4,42.963v4.814a.963.963,0,0,0,.963.963H9.777a.963.963,0,0,0,.963-.963V42.963A.963.963,0,0,0,9.777,42ZM4.963,47.777V42.963H9.777v4.814Z" transform="translate(-2.074 -21.782)" fill="#3f3d56"/>
        <path id="Shape-14" data-name="Shape" d="M28.777,42H23.963a.963.963,0,0,0-.963.963v4.814a.963.963,0,0,0,.963.963h4.814a.963.963,0,0,0,.963-.963V42.963A.963.963,0,0,0,28.777,42Zm-4.814,5.777V42.963h4.814v4.814Z" transform="translate(-11.928 -21.782)" fill="#3f3d56"/>
        <path id="Shape-15" data-name="Shape" d="M47.777,42H42.963a.963.963,0,0,0-.963.963v4.814a.963.963,0,0,0,.963.963h4.814a.963.963,0,0,0,.963-.963V42.963A.963.963,0,0,0,47.777,42Zm-4.814,5.777V42.963h4.814v4.814Z" transform="translate(-21.782 -21.782)" fill="#3f3d56"/>
        <path id="Shape-16" data-name="Shape" d="M12.326,8H10.641a2.169,2.169,0,0,0-2.166,2.166,2.146,2.146,0,0,0,.337,1.149l-.677.677a.481.481,0,1,0,.681.681L9.493,12a2.146,2.146,0,0,0,1.149.337,2.169,2.169,0,0,0,2.166-2.166V8.481A.481.481,0,0,0,12.326,8Zm-.481,2.166a1.2,1.2,0,0,1-2.047.856l0-.007s-.005,0-.007,0a1.2,1.2,0,0,1,.856-2.047h1.2Z" transform="translate(-4.143 -4.149)" fill="#3f3d56"/>
        <path id="Shape-17" data-name="Shape" d="M10.06,28.147,8.135,30.073a.481.481,0,1,0,.681.681l1.926-1.926a.481.481,0,0,0-.681-.681Z" transform="translate(-4.143 -14.528)" fill="#3f3d56"/>
        <path id="Shape-18" data-name="Shape" d="M29.06,28.147l-1.926,1.926a.481.481,0,1,0,.681.681l1.926-1.926a.481.481,0,0,0-.681-.681Z" transform="translate(-13.996 -14.528)" fill="#3f3d56"/>
      </g>
    </g>
    <g id="support" transform="translate(808 2131)" opacity="0.701">
      <g id="Group_24" data-name="Group 24" transform="translate(0 4.839)">
        <g id="Group_23" data-name="Group 23">
          <path id="Path_165" data-name="Path 165" d="M24.891,101.29l-1.12-3.361a3.387,3.387,0,0,0-2.608-2.261L17.93,95.08v-.251a4.87,4.87,0,0,0,1.442-1.281h.977A1.453,1.453,0,0,0,21.8,92.1V86.29a6.29,6.29,0,1,0-12.581,0v3.387a1.939,1.939,0,0,0,1.543,1.9,4.848,4.848,0,0,0,2.328,3.256v.251l-3.234.588A3.387,3.387,0,0,0,7.25,97.929l-.194.581L5.408,96.862a.485.485,0,0,1,0-.685l1.911-1.911L3.732,90.68l-2.16,2.16a3.387,3.387,0,0,0,0,4.79l6.54,6.54a3.385,3.385,0,0,0,4.775.015l2.357-2.16-.735-.734ZM20.833,92.1a.484.484,0,0,1-.484.484h-.407a4.806,4.806,0,0,0,.315-1.008,1.916,1.916,0,0,0,.575-.229Zm-.484-1.586V88.844a.959.959,0,0,1,0,1.666Zm-9.677,0a.959.959,0,0,1,0-1.666Zm0-3.253v.553a1.919,1.919,0,0,0-.484.2V86.29a5.323,5.323,0,1,1,10.645,0v1.721a1.9,1.9,0,0,0-.484-.2v-.553h-.484a5.324,5.324,0,0,1-3.788-1.569l-.567-.567-.567.567a5.324,5.324,0,0,1-3.788,1.569Zm.968,3.387V88.207a6.273,6.273,0,0,0,3.871-1.72,6.271,6.271,0,0,0,3.871,1.72v2.438a3.842,3.842,0,0,1-.524,1.935H15.51v.968h2.552a3.865,3.865,0,0,1-6.423-2.9Zm5.323,4.616v.023L15.51,96.735l-1.452-1.452v-.023a4.835,4.835,0,0,0,2.9,0ZM8.167,98.235A2.42,2.42,0,0,1,10.03,96.62l3.382-.615,2.1,2.1,2.1-2.1,3.382.615a2.419,2.419,0,0,1,1.862,1.616l.7,2.087H13.54l-1.885-1.885-2.094,1.894a.494.494,0,0,1-.684,0L7.821,99.275ZM3.731,92.048,5.95,94.267l-.525.525L3.206,92.573Zm8.485,11.438a2.42,2.42,0,0,1-3.421,0l-6.54-6.539a2.42,2.42,0,0,1,0-3.421l.266-.266L4.74,95.477l-.017.017a1.454,1.454,0,0,0,0,2.053l3.47,3.47a1.444,1.444,0,0,0,1.027.425,1.425,1.425,0,0,0,1.009-.408l.036-.032,2.229,2.229Zm.992-.91-2.224-2.224.639-.578,2.22,2.22Z" transform="translate(-0.58 -80)" fill="#3f3d56"/>
        </g>
      </g>
      <g id="Group_26" data-name="Group 26" transform="translate(20.253)">
        <g id="Group_25" data-name="Group 25">
          <path id="Path_166" data-name="Path 166" d="M343.654,0H336.88a1.453,1.453,0,0,0-1.452,1.452V5.323a1.453,1.453,0,0,0,1.452,1.452h1.292l-.5,2.918,4.669-2.918h1.313a1.453,1.453,0,0,0,1.452-1.452V1.452A1.453,1.453,0,0,0,343.654,0Zm.484,5.323a.485.485,0,0,1-.484.484h-1.59l-3.073,1.92.33-1.92h-2.44a.485.485,0,0,1-.484-.484V1.452a.485.485,0,0,1,.484-.484h6.774a.485.485,0,0,1,.484.484Z" transform="translate(-335.428)" fill="#3f3d56"/>
        </g>
      </g>
      <g id="Group_28" data-name="Group 28" transform="translate(22.189 1.935)">
        <g id="Group_27" data-name="Group 27">
          <rect id="Rectangle_27" data-name="Rectangle 27" width="5.806" height="0.968" fill="#3f3d56"/>
        </g>
      </g>
      <g id="Group_30" data-name="Group 30" transform="translate(22.189 3.871)">
        <g id="Group_29" data-name="Group 29">
          <rect id="Rectangle_28" data-name="Rectangle 28" width="3.871" height="0.968" fill="#3f3d56"/>
        </g>
      </g>
      <g id="Group_32" data-name="Group 32" transform="translate(27.028 3.871)">
        <g id="Group_31" data-name="Group 31">
          <rect id="Rectangle_29" data-name="Rectangle 29" width="0.968" height="0.968" fill="#3f3d56"/>
        </g>
      </g>
      <g id="Group_34" data-name="Group 34" transform="translate(0 1.452)">
        <g id="Group_33" data-name="Group 33">
          <path id="Path_167" data-name="Path 167" d="M15.5,24A13.54,13.54,0,0,0,2.319,34.473L1.4,32.945l-.83.5,1.7,2.834,2.834-1.7-.5-.83L3.3,34.533a12.584,12.584,0,0,1,15.933-9l.286-.924A13.54,13.54,0,0,0,15.5,24Z" transform="translate(-0.572 -24)" fill="#3f3d56"/>
        </g>
      </g>
      <g id="Group_36" data-name="Group 36" transform="translate(24.705 9.013)">
        <g id="Group_35" data-name="Group 35">
          <path id="Path_168" data-name="Path 168" d="M414.026,150.717l-2.834-1.7-1.7,2.835.83.5.847-1.411a12.591,12.591,0,0,1-2.132,11.987l.751.61a13.55,13.55,0,0,0,2.319-12.84l1.422.853Z" transform="translate(-409.036 -149.016)" fill="#3f3d56"/>
        </g>
      </g>
    </g>
    <g id="Outline-2" data-name="Outline" transform="translate(986 2132)" opacity="0.701">
      <path id="Path_169" data-name="Path 169" d="M42.957,16H17.926A1.928,1.928,0,0,0,16,17.926V42.957a1.928,1.928,0,0,0,1.926,1.926H42.957a1.928,1.928,0,0,0,1.926-1.926V17.926A1.928,1.928,0,0,0,42.957,16Zm-25.032.963H42.957a.964.964,0,0,1,.963.963v1.926H16.963V17.926A.964.964,0,0,1,17.926,16.963ZM42.957,43.92H17.926a.964.964,0,0,1-.963-.963V20.814H43.92V42.957A.964.964,0,0,1,42.957,43.92Z" transform="translate(-16 -16)" fill="#3f3d56"/>
      <path id="Path_170" data-name="Path 170" d="M48,48h.963v.963H48Z" transform="translate(-46.074 -46.074)" fill="#3f3d56"/>
      <path id="Path_171" data-name="Path 171" d="M80,48h.963v.963H80Z" transform="translate(-76.149 -46.074)" fill="#3f3d56"/>
      <path id="Path_172" data-name="Path 172" d="M112,48h.963v.963H112Z" transform="translate(-106.223 -46.074)" fill="#3f3d56"/>
      <path id="Path_173" data-name="Path 173" d="M335.221,120h-6.739a.481.481,0,0,0-.481.481v6.739a.481.481,0,0,0,.481.481h6.739a.481.481,0,0,0,.481-.481v-6.739A.481.481,0,0,0,335.221,120Zm-4.332.963h1.926v1.444h-1.926Zm3.851,5.777h-5.777v-5.777h.963v1.926a.481.481,0,0,0,.481.481H333.3a.481.481,0,0,0,.481-.481v-1.926h.963Z" transform="translate(-309.226 -113.742)" fill="#3f3d56"/>
      <path id="Path_174" data-name="Path 174" d="M408,200h.963v.963H408Z" transform="translate(-384.412 -188.928)" fill="#3f3d56"/>
      <path id="Path_175" data-name="Path 175" d="M154.407,126.739a.48.48,0,0,0,.34-.141c.084-.084,2.066-2.091,2.066-4.191a2.407,2.407,0,1,0-4.814,0c0,2.1,1.982,4.107,2.066,4.191A.48.48,0,0,0,154.407,126.739Zm0-5.777a1.446,1.446,0,0,1,1.444,1.444,5.56,5.56,0,0,1-1.444,3.13,5.56,5.56,0,0,1-1.444-3.13A1.446,1.446,0,0,1,154.407,120.963Z" transform="translate(-143.817 -113.742)" fill="#3f3d56"/>
      <path id="Path_176" data-name="Path 176" d="M139.37,206.442c1.889,0,3.37-1.057,3.37-2.407a1.943,1.943,0,0,0-.5-1.278l-.727.631a.982.982,0,0,1,.269.647c0,.783-1.1,1.444-2.407,1.444s-2.407-.661-2.407-1.444a.982.982,0,0,1,.269-.647l-.727-.631a1.943,1.943,0,0,0-.5,1.278C136,205.385,137.48,206.442,139.37,206.442Z" transform="translate(-128.779 -191.519)" fill="#3f3d56"/>
      <path id="Path_177" data-name="Path 177" d="M290.407,286.739a.48.48,0,0,0,.34-.141c.084-.084,2.066-2.091,2.066-4.191a2.407,2.407,0,0,0-4.814,0c0,2.1,1.982,4.107,2.067,4.191A.48.48,0,0,0,290.407,286.739Zm0-5.777a1.446,1.446,0,0,1,1.444,1.444,5.56,5.56,0,0,1-1.444,3.13,5.561,5.561,0,0,1-1.444-3.13A1.446,1.446,0,0,1,290.407,280.963Z" transform="translate(-271.633 -264.114)" fill="#3f3d56"/>
      <path id="Path_178" data-name="Path 178" d="M275.37,366.442c1.889,0,3.37-1.057,3.37-2.407a1.943,1.943,0,0,0-.5-1.278l-.727.631a.982.982,0,0,1,.269.647c0,.783-1.1,1.444-2.407,1.444s-2.407-.661-2.407-1.444a.982.982,0,0,1,.269-.647l-.727-.631a1.943,1.943,0,0,0-.5,1.278C272,365.385,273.48,366.442,275.37,366.442Z" transform="translate(-256.596 -341.892)" fill="#3f3d56"/>
      <path id="Path_179" data-name="Path 179" d="M248,160h1.926v.963H248Z" transform="translate(-234.04 -151.335)" fill="#3f3d56"/>
      <path id="Path_180" data-name="Path 180" d="M296,160h.963v.963H296Z" transform="translate(-279.152 -151.335)" fill="#3f3d56"/>
      <path id="Path_181" data-name="Path 181" d="M64.665,330.888h.481a.481.481,0,0,0,.467-.6l-.481-1.926a.481.481,0,0,0-.467-.365h-7.7a.481.481,0,0,0-.467.365l-.481,1.926a.481.481,0,0,0,.467.6h.481v3.851H56v.963h9.628v-.963h-.963Zm-7.326-1.925h6.95l.241.963H57.1Zm.587,1.925H63.7v3.851H62.258v-.963a1.444,1.444,0,0,0-2.888,0v.963H57.926Zm3.37,3.851h-.963v-.963a.481.481,0,1,1,.963,0Z" transform="translate(-53.593 -309.226)" fill="#3f3d56"/>
      <path id="Path_182" data-name="Path 182" d="M58.637,168.315l9.465.394.04-.962-9.465-.394a3.2,3.2,0,1,1,.133-6.406h.647v-.963h-.647a4.166,4.166,0,1,0-.173,8.331Z" transform="translate(-52.237 -151.32)" fill="#3f3d56"/>
      <path id="Path_183" data-name="Path 183" d="M270.854,293.011l-.094,0-.04.962.094,0a3.941,3.941,0,1,1-.164,7.88H264v.963h6.649a4.9,4.9,0,1,0,.2-9.8Z" transform="translate(-249.077 -276.339)" fill="#3f3d56"/>
      <path id="Path_184" data-name="Path 184" d="M232,440h.963v.963H232Z" transform="translate(-219.003 -414.487)" fill="#3f3d56"/>
    </g>
    <g id="maintenance" transform="translate(807 2257)" opacity="0.701">
      <path id="Path_187" data-name="Path 187" d="M24.414,16.942a7.423,7.423,0,0,0-3.487.869V15.077a7.473,7.473,0,1,0-3.19-9.941L12.656,1.392a2.068,2.068,0,0,0-2.389,0L1,8.221v2.742H2V20.7a7.469,7.469,0,1,0,13.949,3.712,7.5,7.5,0,0,0-.15-1.495h1.3a7.473,7.473,0,1,0,7.322-5.978ZM24.414,2a6.476,6.476,0,1,1-6.476,6.476A6.484,6.484,0,0,1,24.414,2ZM16.967,8.971a7.449,7.449,0,0,0,.126,1H11.96v-1ZM14.223,3.784,12.956,5.3V6.978h1V6.29l1.272.636.446-.891-1.43-.715.786-.944,2.315,1.706a7.42,7.42,0,0,0-.374,1.893H11.96V2.141a.908.908,0,0,1,.106.053ZM10.858,2.195a.87.87,0,0,1,.106-.053V7.975H3.014L6.642,5.3l.479,1.118,2.748.55.2-.977L7.832,5.545l-.365-.851ZM2,8.971h8.967v1H2Zm1,1.993h7.971v6.414a7.368,7.368,0,0,0-1-.285V11.96H3.989v6.49a7.53,7.53,0,0,0-1,.9Zm5.978,6c-.165-.011-.33-.025-.5-.025a7.423,7.423,0,0,0-3.487.869V12.956H8.971Zm-.5,13.924a6.476,6.476,0,1,1,6.476-6.476A6.484,6.484,0,0,1,8.473,30.891Zm7.037-8.967a7.5,7.5,0,0,0-3.55-4.113V10.964h5.418a7.458,7.458,0,0,0,1.073,1.993H12.956v4.982h5.978v-4.4a7.53,7.53,0,0,0,1,.9v4.014a7.493,7.493,0,0,0-2.553,3.473Zm2.429-7.971v2.989H13.953V13.953Zm6.476,16.938a6.476,6.476,0,1,1,6.476-6.476A6.484,6.484,0,0,1,24.414,30.891Z" fill="#3f3d56"/>
      <path id="Path_188" data-name="Path 188" d="M14.473,39H10.487a1.493,1.493,0,0,0-1.4,1H7v2.88l3.985,1v1.2a1.493,1.493,0,0,0-1,1.4v1a1.495,1.495,0,0,0,2.989,0v-1a1.493,1.493,0,0,0-1-1.4V43.094L8,42.1v-1.1H9.084a1.493,1.493,0,0,0,1.4,1h3.985a1.495,1.495,0,1,0,0-2.989Zm-2.491,8.469a.5.5,0,0,1-1,0v-1a.5.5,0,0,1,1,0Zm2.491-6.476H10.487a.5.5,0,1,1,0-1h3.985a.5.5,0,1,1,0,1Z" transform="translate(-3.011 -19.069)" fill="#3f3d56"/>
      <path id="Path_189" data-name="Path 189" d="M40.989,12.978a2.891,2.891,0,0,0,.771-.105l2.656,2.656a1.494,1.494,0,1,0,2.113-2.113L43.873,10.76a2.909,2.909,0,0,0,.105-.771A2.992,2.992,0,0,0,40.989,7h-.206l-1,1,1.185,1.185a1,1,0,0,1-.79.79L39,8.786l-1,1v.206a2.992,2.992,0,0,0,2.989,2.989Zm-1.2-1.993h.206a2,2,0,0,0,1.993-1.993V8.786l-.778-.779a1.981,1.981,0,0,1,1.633,2.705l-.12.3,3.1,3.1a.5.5,0,0,1,0,.7.5.5,0,0,1-.7,0l-3.1-3.1-.3.119a1.981,1.981,0,0,1-2.705-1.633Z" transform="translate(-18.567 -3.011)" fill="#3f3d56"/>
      <path id="Path_190" data-name="Path 190" d="M41.983,40.961l-.881.351,2.176,2.175-1.151,1.151a1.531,1.531,0,0,0-1.692.283l-1,1a1.494,1.494,0,1,0,2.113,2.113l1-1a1.476,1.476,0,0,0,.288-1.7l1.146-1.146,2.175,2.175.352-.88a13.387,13.387,0,0,0,.96-4.989V40h-.5A13.362,13.362,0,0,0,41.983,40.961Zm-.139,5.369-1,1a.505.505,0,0,1-.7,0,.5.5,0,0,1,0-.7l1-1a.5.5,0,1,1,.7.7Zm3.94-1.747-2.9-2.9a12.35,12.35,0,0,1,3.577-.68,12.367,12.367,0,0,1-.68,3.576Z" transform="translate(-19.069 -19.571)" fill="#3f3d56"/>
    </g>
    <g id="investor" transform="translate(969.003 2242)" opacity="0.702" style="isolation: isolate">
      <path id="Path_185" data-name="Path 185" d="M27.632,44.931l-1.853-1.39V29.384h5.334a.844.844,0,0,0,.843-.844.834.834,0,0,0-.022-.186h4.655a.515.515,0,0,0,.515-.515V21.663a.515.515,0,0,0-.515-.515h-2.2l-.4-1.192A.515.515,0,0,0,33.5,19.6H30.411a.515.515,0,0,0-.488.352l-.4,1.192h-2.2a.515.515,0,0,0-.515.515v.874l-.5-.757a2.569,2.569,0,0,0-2.134-1.146,2.056,2.056,0,0,0,.065-.515V18.7l.372-.745A1.348,1.348,0,0,0,23.4,16H22.175a2.061,2.061,0,0,0-2.059,2.059v2.059a2.055,2.055,0,0,0,.065.515h-.5a3.688,3.688,0,0,0-2.4,6.489l.256.22V46.372a.515.515,0,0,0,.515.515h9.266a.515.515,0,0,0,.515-.515v-1.03a.515.515,0,0,0-.206-.412Zm-4.456-1.24-.486-10.213a.515.515,0,0,0-1.023-.052l-1.491,9.938-1.6.321V30.929h6.177V43.376Zm-1.01.428-.974-.585.718-4.789Zm5.158-15.764V26.183l1.466-.366-.382.764a.515.515,0,0,0,.2.672l1.838,1.1Zm3.4-1.03-1.185-.711L29.8,26.1a.931.931,0,0,0-.833-1.348,1.315,1.315,0,0,0-.318.039l-.809.2V23.13l1.142,1.428a.515.515,0,0,0,.4.193h1.03v1.03a.515.515,0,0,0,.515.515h2.059a.515.515,0,0,0,.515-.515v-1.03h1.03a.515.515,0,0,0,.4-.193l1.142-1.428v4.2Zm2.26-4.633H30.926a.515.515,0,0,0-.515.515v.515h-.782l-1.236-1.544h7.124l-1.236,1.544H33.5v-.515a.515.515,0,0,0-.515-.515Zm-.515,1.03v1.544h-1.03V23.722Zm-1.688-3.089h2.347l.172.515h-2.69ZM25.447,22.35l1.361,2.042v.858l-.063.016H23.564l-.334-1.49.228-.508.468.351.618-.824-1.258-.944a2.072,2.072,0,0,0,.25-.189h.627A1.541,1.541,0,0,1,25.447,22.35ZM23.2,20.118a1.03,1.03,0,1,1-2.059,0v-.3l.728-.728H23.2Zm-1.03,2.188.438.329-.257.572h-.378l-.274-.548Zm-.113,1.93h.215l.231,1.03h-.7Zm.113-7.207H23.4a.318.318,0,0,1,.285.46l-.285.569H21.66a.515.515,0,0,0-.364.151l-.151.151v-.3A1.031,1.031,0,0,1,22.175,17.03Zm-5.148,7.292a2.662,2.662,0,0,1,2.659-2.659h1.129a2.072,2.072,0,0,0,.25.189l-1.258.944.618.824.443-.332.247.495-.248.992L19.45,23.358l-.728.728,2.059,2.059a.515.515,0,0,0,.364.151h5.148v2.059H21.068a2.061,2.061,0,0,1-1.34-.5L17.955,26.34A2.656,2.656,0,0,1,17.027,24.321Zm2.031,4.32a3.091,3.091,0,0,0,2.01.744h3.681V29.9H18.571V28.224Zm-.486,17.217V44.735l1.965-.393,2.153,1.292v.223Zm8.237,0H23.719v-.515a.515.515,0,0,0-.25-.441l-.265-.159v-.007l1.934-.387L26.808,45.6Z" transform="translate(0)" fill="#3f3d56"/>
      <path id="Path_186" data-name="Path 186" d="M233.5,240H216.515a.515.515,0,0,0-.515.515v15.444a.515.515,0,0,0,.515.515H233.5a.515.515,0,0,0,.515-.515V240.515A.515.515,0,0,0,233.5,240Zm-.515,9.266H227.84v-1.03h2.574a.515.515,0,0,0,.515-.515.515.515,0,0,1,.515-.515.515.515,0,0,0,.515-.515V243.6a.515.515,0,0,0-.515-.515.515.515,0,0,1-.515-.515.515.515,0,0,0-.515-.515H227.84v-1.03h5.148Zm-5.148,3.089h5.148v1.03H227.84Zm0-1.03V250.3h5.148v1.03Zm0-5.663h1.544v-1.03H227.84v-1.544h2.147a1.552,1.552,0,0,0,.941.941v2.236a1.552,1.552,0,0,0-.941.941H227.84Zm-1.03-4.633v8.237h-3.089V241.03Zm-4.118,3.6h-1.544v1.03h1.544v1.544H220.03a1.552,1.552,0,0,0-.941-.941V244.03a1.552,1.552,0,0,0,.941-.941h2.662Zm0-3.6v1.03H219.6a.515.515,0,0,0-.515.515.515.515,0,0,1-.515.515.515.515,0,0,0-.515.515v3.089a.515.515,0,0,0,.515.515.515.515,0,0,1,.515.515.515.515,0,0,0,.515.515h3.089v1.03H217.03V241.03Zm0,10.3h-4.118v1.03h4.118v1.03H217.03V250.3h5.663Zm-5.663,3.089h5.663v1.03H217.03Zm6.692,1.03V250.3h3.089v5.148Zm4.118,0v-1.03h5.148v1.03Z" transform="translate(-187.133 -209.586)" fill="#3f3d56"/>
    </g>
    <g id="research" transform="translate(632.999 2258)" opacity="0.701">
      <g id="Group_38" data-name="Group 38" transform="translate(0.001)">
        <g id="Group_37" data-name="Group 37">
          <path id="Path_191" data-name="Path 191" d="M23.81,0H1.931A1.93,1.93,0,0,0,0,1.93V17.374a1.93,1.93,0,0,0,1.93,1.93H10.3V18.018H1.931a.644.644,0,0,1-.644-.644V1.93a.644.644,0,0,1,.644-.644H23.81a.644.644,0,0,1,.644.644V13.513H25.74V1.93A1.93,1.93,0,0,0,23.81,0Z" transform="translate(-0.001)" fill="#3f3d56"/>
        </g>
      </g>
      <g id="Group_40" data-name="Group 40" transform="translate(7.723 18.661)">
        <g id="Group_39" data-name="Group 39">
          <rect id="Rectangle_30" data-name="Rectangle 30" width="1.287" height="3.861" fill="#3f3d56"/>
        </g>
      </g>
      <g id="Group_42" data-name="Group 42" transform="translate(2.575 13.513)">
        <g id="Group_41" data-name="Group 41">
          <path id="Path_192" data-name="Path 192" d="M44.6,225.93a.644.644,0,0,1-.644-.644V224H42.668v1.287a1.93,1.93,0,0,0,1.93,1.93h1.287V225.93Z" transform="translate(-42.668 -224)" fill="#3f3d56"/>
        </g>
      </g>
      <g id="Group_44" data-name="Group 44" transform="translate(2.575 10.939)">
        <g id="Group_43" data-name="Group 43">
          <rect id="Rectangle_31" data-name="Rectangle 31" width="1.287" height="1.287" fill="#3f3d56"/>
        </g>
      </g>
      <g id="Group_46" data-name="Group 46" transform="translate(11.583 11.582)">
        <g id="Group_45" data-name="Group 45">
          <path id="Path_193" data-name="Path 193" d="M203.922,194.037a6.991,6.991,0,1,0,0,9.887A6.991,6.991,0,0,0,203.922,194.037Zm-4.948,10.648a5.7,5.7,0,1,1,5.706-5.7A5.7,5.7,0,0,1,198.974,204.686Z" transform="translate(-191.986 -191.989)" fill="#3f3d56"/>
        </g>
      </g>
      <g id="Group_48" data-name="Group 48" transform="translate(23.767 23.765)">
        <g id="Group_47" data-name="Group 47">
          <path id="Path_194" data-name="Path 194" d="M400.889,398.168l-4.039-4.038a.643.643,0,0,0-.91,0l-1.8,1.8a.643.643,0,0,0,0,.91l4.039,4.04a.643.643,0,0,0,.455.188h0a.643.643,0,0,0,.455-.19l1.8-1.8A.643.643,0,0,0,400.889,398.168Zm-2.25,1.342-3.129-3.13.885-.885,3.129,3.13Z" transform="translate(-393.956 -393.942)" fill="#3f3d56"/>
        </g>
      </g>
      <g id="Group_50" data-name="Group 50" transform="translate(22.608 22.607)">
        <g id="Group_49" data-name="Group 49">
          <rect id="Rectangle_32" data-name="Rectangle 32" width="1.287" height="3.174" transform="translate(0 0.91) rotate(-45)" fill="#3f3d56"/>
        </g>
      </g>
      <g id="Group_52" data-name="Group 52" transform="translate(18.662 14.157)">
        <g id="Group_51" data-name="Group 51">
          <path id="Path_195" data-name="Path 195" d="M309.334,234.667v1.287a3.221,3.221,0,0,1,3.217,3.217h1.287A4.509,4.509,0,0,0,309.334,234.667Z" transform="translate(-309.334 -234.667)" fill="#3f3d56"/>
        </g>
      </g>
      <g id="Group_54" data-name="Group 54" transform="translate(6.436 21.878)">
        <g id="Group_53" data-name="Group 53">
          <rect id="Rectangle_33" data-name="Rectangle 33" width="5.148" height="1.287" fill="#3f3d56"/>
        </g>
      </g>
      <g id="Group_56" data-name="Group 56" transform="translate(7.723 2.574)">
        <g id="Group_55" data-name="Group 55">
          <path id="Path_196" data-name="Path 196" d="M129.931,42.667a1.93,1.93,0,1,0,1.93,1.93A1.93,1.93,0,0,0,129.931,42.667Zm0,2.574a.644.644,0,1,1,.644-.644A.644.644,0,0,1,129.931,45.241Z" transform="translate(-128.001 -42.667)" fill="#3f3d56"/>
        </g>
      </g>
      <g id="Group_58" data-name="Group 58" transform="translate(12.227 7.078)">
        <g id="Group_57" data-name="Group 57">
          <path id="Path_197" data-name="Path 197" d="M204.6,117.333a1.93,1.93,0,1,0,1.93,1.93A1.93,1.93,0,0,0,204.6,117.333Zm0,2.574a.644.644,0,1,1,.643-.644A.644.644,0,0,1,204.6,119.907Z" transform="translate(-202.668 -117.333)" fill="#3f3d56"/>
        </g>
      </g>
      <g id="Group_60" data-name="Group 60" transform="translate(5.337 4.693)">
        <g id="Group_59" data-name="Group 59" transform="translate(0 0)">
          <rect id="Rectangle_34" data-name="Rectangle 34" width="4.55" height="1.287" transform="translate(0 3.217) rotate(-45)" fill="#3f3d56"/>
        </g>
      </g>
      <g id="Group_62" data-name="Group 62" transform="translate(9.839 4.695)">
        <g id="Group_61" data-name="Group 61">
          <rect id="Rectangle_35" data-name="Rectangle 35" width="1.287" height="4.55" transform="translate(0 0.91) rotate(-45)" fill="#3f3d56"/>
        </g>
      </g>
      <g id="Group_64" data-name="Group 64" transform="translate(16.732 2.574)">
        <g id="Group_63" data-name="Group 63">
          <path id="Path_198" data-name="Path 198" d="M279.264,42.667a1.93,1.93,0,1,0,1.93,1.93A1.93,1.93,0,0,0,279.264,42.667Zm0,2.574a.644.644,0,1,1,.643-.644A.644.644,0,0,1,279.264,45.241Z" transform="translate(-277.334 -42.667)" fill="#3f3d56"/>
        </g>
      </g>
      <g id="Group_66" data-name="Group 66" transform="translate(14.346 4.695)">
        <g id="Group_65" data-name="Group 65" transform="translate(0 0)">
          <rect id="Rectangle_36" data-name="Rectangle 36" width="4.55" height="1.287" transform="translate(0 3.217) rotate(-45)" fill="#3f3d56"/>
        </g>
      </g>
    </g>
    <g id="seo-report" transform="translate(1159 2258)" opacity="0.702" style="isolation: isolate">
      <g id="Group_68" data-name="Group 68">
        <g id="Group_67" data-name="Group 67">
          <path id="Path_199" data-name="Path 199" d="M30.284,12.593H26.423a.6.6,0,0,0-.6.6v3.046a.6.6,0,1,0,1.207,0V13.8h2.654V29.681H27.026V20.767a.6.6,0,0,0-1.207,0v8.913H24.613V17.193a.6.6,0,0,0-.6-.6H20.149a.6.6,0,0,0-.6.6V29.681H18.339V21.416a.6.6,0,0,0-.6-.6H13.875a.6.6,0,0,0-.6.6v8.265H12.065v-4.8a.6.6,0,0,0-.6-.6H7.6a.6.6,0,0,0-.6.6v4.8H1.81a.6.6,0,0,1-.6-.6V1.81a.6.6,0,0,1,.6-.6H17.373V5.188A1.812,1.812,0,0,0,19.182,7h3.982v7.42a.6.6,0,1,0,1.207,0V6.395a.6.6,0,0,0-.177-.427L18.4.177A.6.6,0,0,0,17.976,0H1.81A1.812,1.812,0,0,0,0,1.81V29.077a1.812,1.812,0,0,0,1.81,1.81H30.284a.6.6,0,0,0,.6-.6V13.2A.6.6,0,0,0,30.284,12.593ZM18.579,2.06l3.732,3.732H19.182a.6.6,0,0,1-.6-.6Zm-7.72,27.621H8.2v-4.2h2.654Zm6.274,0H14.478V22.019h2.654Zm6.274,0H20.752V17.8h2.654Z" fill="#3f3d56"/>
        </g>
      </g>
      <g id="Group_70" data-name="Group 70" transform="translate(25.82 17.79)">
        <g id="Group_69" data-name="Group 69">
          <path id="Path_200" data-name="Path 200" d="M429.03,295.067a.6.6,0,1,0,.177.427A.605.605,0,0,0,429.03,295.067Z" transform="translate(-428 -294.89)" fill="#3f3d56"/>
        </g>
      </g>
      <g id="Group_72" data-name="Group 72" transform="translate(3.234 3.302)">
        <g id="Group_71" data-name="Group 71">
          <path id="Path_201" data-name="Path 201" d="M59.151,54.729a.6.6,0,0,0-.6.6v1.085a5.549,5.549,0,1,0,6.119,6.119h1.085a.6.6,0,0,0,.6-.6A7.213,7.213,0,0,0,59.151,54.729Zm0,11.546a4.342,4.342,0,0,1-.6-8.642v4.3a.6.6,0,0,0,.6.6h4.3A4.349,4.349,0,0,1,59.151,66.275Zm.6-4.945h0V55.966a6.009,6.009,0,0,1,5.364,5.365Z" transform="translate(-53.602 -54.729)" fill="#3f3d56"/>
        </g>
      </g>
      <g id="Group_74" data-name="Group 74" transform="translate(3.258 17.751)">
        <g id="Group_73" data-name="Group 73">
          <path id="Path_202" data-name="Path 202" d="M66.126,294.25H54.6a.6.6,0,1,0,0,1.207H66.126a.6.6,0,1,0,0-1.207Z" transform="translate(-54 -294.25)" fill="#3f3d56"/>
        </g>
      </g>
      <g id="Group_76" data-name="Group 76" transform="translate(3.258 20.662)">
        <g id="Group_75" data-name="Group 75">
          <path id="Path_203" data-name="Path 203" d="M58.464,342.5H54.6a.6.6,0,1,0,0,1.207h3.861a.6.6,0,1,0,0-1.207Z" transform="translate(-54 -342.5)" fill="#3f3d56"/>
        </g>
      </g>
      <g id="Group_78" data-name="Group 78" transform="translate(10.14 20.662)">
        <g id="Group_77" data-name="Group 77">
          <path id="Path_204" data-name="Path 204" d="M169.11,342.677a.6.6,0,1,0,.177.427A.608.608,0,0,0,169.11,342.677Z" transform="translate(-168.08 -342.5)" fill="#3f3d56"/>
        </g>
      </g>
    </g>
  </g>
</svg>
