<svg xmlns="http://www.w3.org/2000/svg" width="880.79" height="582.581" viewBox="0 0 880.79 582.581">
  <g id="Group_2849" data-name="Group 2849" transform="translate(-520 -3581)">
    <g id="Group_351" data-name="Group 351" transform="translate(-3539.5 1569)" opacity="0.196">
      <path id="Path_828" data-name="Path 828" d="M731.726,225.882l-2.1,230.393h17.73l-8.226-230.393Z" transform="translate(4116.23 1981.64)" fill="#efefef"/>
      <path id="Path_829" data-name="Path 829" d="M735.306,214.257h0a5.694,5.694,0,0,1,5.676,5.678v6.555a1.821,1.821,0,0,1-1.814,1.815h-7.725a1.822,1.822,0,0,1-1.815-1.815v-6.555A5.7,5.7,0,0,1,735.306,214.257Z" transform="translate(4116.23 1981.64)" fill="#cecef9"/>
      <path id="Path_830" data-name="Path 830" d="M731.53,228.3l13.7,168.336L739.255,228.3Z" transform="translate(4116.23 1981.64)" fill="#c6d5f2"/>
      <path id="Path_831" data-name="Path 831" d="M731.829,218.462,670.152,280.6a1.4,1.4,0,0,0-.394,1.2h0a1.412,1.412,0,0,0,2.065,1.044l.733-.393a1.4,1.4,0,0,0,.282-.2l17.407-15.885,33.684-30.143a10.609,10.609,0,0,0,3.189-5.226h0a10.573,10.573,0,0,1,2.285-4.313l3.584-4.09Z" transform="translate(4116.23 1981.64)" fill="#efefef"/>
      <path id="Path_832" data-name="Path 832" d="M738.153,221.356l84.1,24.331a1.416,1.416,0,0,0,1.24-.227h0a1.412,1.412,0,0,0-.074-2.312l-.7-.456a1.413,1.413,0,0,0-.315-.153l-22.284-7.658-42.605-15.107a10.6,10.6,0,0,0-6.113-.292h0a10.624,10.624,0,0,1-4.882.062l-5.307-1.185Z" transform="translate(4116.23 1981.64)" fill="#efefef"/>
      <path id="Path_833" data-name="Path 833" d="M737.67,214.9l-22.346-84.651a1.412,1.412,0,0,0-.834-.946h0a1.412,1.412,0,0,0-1.944,1.254l-.031.829a1.385,1.385,0,0,0,.028.346l4.882,23.054,8.934,44.312a10.608,10.608,0,0,0,2.892,5.395h0a10.58,10.58,0,0,1,2.562,4.154l1.71,5.162Z" transform="translate(4116.23 1981.64)" fill="#efefef"/>
      <path id="Path_834" data-name="Path 834" d="M741.548,219.488a5.96,5.96,0,1,1-5.959-5.959A5.958,5.958,0,0,1,741.548,219.488Z" transform="translate(4116.23 1981.64)" fill="#fff"/>
      <path id="Path_835" data-name="Path 835" d="M663.748,185.23,661.34,449.654h20.348l-9.44-264.425Z" transform="translate(4116.23 1981.64)" fill="#efefef"/>
      <path id="Path_836" data-name="Path 836" d="M667.854,171.888h0a6.535,6.535,0,0,1,6.517,6.514v7.524a2.088,2.088,0,0,1-2.083,2.083h-8.865a2.087,2.087,0,0,1-2.083-2.083V178.4A6.533,6.533,0,0,1,667.854,171.888Z" transform="translate(4116.23 1981.64)" fill="#cecef9"/>
      <path id="Path_837" data-name="Path 837" d="M663.52,188.009l15.725,193.2-6.857-193.2Z" transform="translate(4116.23 1981.64)" fill="#c6d5f2"/>
      <path id="Path_838" data-name="Path 838" d="M664.888,175.225l-98.743,18.621a1.618,1.618,0,0,0-1.153.874h0a1.621,1.621,0,0,0,1.275,2.33l.947.1a1.531,1.531,0,0,0,.4-.005l26.792-3.693,51.46-6.584a12.181,12.181,0,0,0,6.415-2.865h0a12.16,12.16,0,0,1,4.967-2.592l6.05-1.535Z" transform="translate(4116.23 1981.64)" fill="#efefef"/>
      <path id="Path_839" data-name="Path 839" d="M668.984,182.075,732.67,259.8a1.628,1.628,0,0,0,1.321.593h0a1.622,1.622,0,0,0,1.433-2.237l-.363-.881a1.551,1.551,0,0,0-.2-.348l-16.087-21.741-30.452-42a12.17,12.17,0,0,0-5.591-4.255h0a12.165,12.165,0,0,1-4.655-3.116l-4.247-4.574Z" transform="translate(4116.23 1981.64)" fill="#efefef"/>
      <path id="Path_840" data-name="Path 840" d="M672.725,175.66l33.949-94.573a1.622,1.622,0,0,0-.173-1.438h0a1.62,1.62,0,0,0-2.653-.08l-.571.764a1.651,1.651,0,0,0-.2.347L692.7,105.653,672.313,153.36a12.163,12.163,0,0,0-.777,6.983h0a12.19,12.19,0,0,1-.28,5.6l-1.741,5.994Z" transform="translate(4116.23 1981.64)" fill="#efefef"/>
      <path id="Path_841" data-name="Path 841" d="M675.017,177.892a6.839,6.839,0,1,1-6.838-6.84A6.837,6.837,0,0,1,675.017,177.892Z" transform="translate(4116.23 1981.64)" fill="#fff"/>
      <path id="Path_842" data-name="Path 842" d="M595.784,135.931l-3.04,333.709h25.681L606.509,135.931Z" transform="translate(4116.23 1981.64)" fill="#efefef"/>
      <path id="Rectangle_156" data-name="Rectangle 156" d="M8.059,0h.328a8.06,8.06,0,0,1,8.06,8.06v9.71a2.576,2.576,0,0,1-2.576,2.576H2.576A2.576,2.576,0,0,1,0,17.769V8.059A8.059,8.059,0,0,1,8.059,0Z" transform="translate(4708.974 2100.733)" fill="#cecef9"/>
      <path id="Path_843" data-name="Path 843" d="M595.5,139.439l19.843,243.827-8.652-243.827Z" transform="translate(4116.23 1981.64)" fill="#c6d5f2"/>
      <path id="Path_844" data-name="Path 844" d="M598.179,130.617l37.083,121.269a2.045,2.045,0,0,0,1.256,1.324h0a2.047,2.047,0,0,0,2.746-1.923v-1.2a2.015,2.015,0,0,0-.062-.5l-8.357-33.093-15.411-63.633a15.347,15.347,0,0,0-4.487-7.648h0a15.369,15.369,0,0,1-3.941-5.872l-2.765-7.374Z" transform="translate(4116.23 1981.64)" fill="#efefef"/>
      <path id="Path_845" data-name="Path 845" d="M606.2,124.526l88.64-90.688A2.044,2.044,0,0,0,695.4,32.1h0a2.047,2.047,0,0,0-3-1.488l-1.054.578a1.98,1.98,0,0,0-.41.294L665.9,54.685,617.447,98.72a15.357,15.357,0,0,0-4.559,7.6h0a15.349,15.349,0,0,1-3.264,6.273l-5.146,5.963Z" transform="translate(4116.23 1981.64)" fill="#efefef"/>
      <path id="Path_846" data-name="Path 846" d="M597.638,120.726,474.291,91.288a2.048,2.048,0,0,0-1.779.414h0a2.047,2.047,0,0,0,.267,3.341l1.037.609a2.119,2.119,0,0,0,.464.2l32.768,9.553,62.674,18.936a15.35,15.35,0,0,0,8.868,0h0a15.339,15.339,0,0,1,7.057-.424l7.76,1.35Z" transform="translate(4116.23 1981.64)" fill="#efefef"/>
      <path id="Path_847" data-name="Path 847" d="M610.008,126.67a8.632,8.632,0,1,1-8.633-8.631A8.632,8.632,0,0,1,610.008,126.67Z" transform="translate(4116.23 1981.64)" fill="#efefef"/>
    </g>
    <rect id="Rectangle_269" data-name="Rectangle 269" width="113" height="62" transform="translate(900.5 4080)" fill="#e8ffec" opacity="0.646"/>
    <rect id="Rectangle_273" data-name="Rectangle 273" width="113" height="62" transform="translate(1257.5 4080)" fill="#e8ffec" opacity="0.646"/>
    <rect id="Rectangle_266" data-name="Rectangle 266" width="113" height="62" transform="translate(900.5 3732)" fill="rgba(252,195,28,0.16)"/>
    <rect id="Rectangle_264" data-name="Rectangle 264" width="113" height="62" transform="translate(743.5 3732)" fill="#e8ffec" opacity="0.646"/>
    <rect id="Rectangle_267" data-name="Rectangle 267" width="113" height="62" transform="translate(900.5 3856)" fill="#e8ffec" opacity="0.646"/>
    <rect id="Rectangle_263" data-name="Rectangle 263" width="113" height="62" transform="translate(587.5 3973)" fill="#e8ffec" opacity="0.646"/>
    <rect id="Rectangle_270" data-name="Rectangle 270" width="113" height="62" transform="translate(1122.5 3999)" fill="rgba(252,195,28,0.16)"/>
    <rect id="Rectangle_261" data-name="Rectangle 261" width="113" height="62" transform="translate(586.5 3858)" fill="rgba(252,195,28,0.16)"/>
    <rect id="Rectangle_262" data-name="Rectangle 262" width="113" height="62" transform="translate(587.5 3732)" fill="#e8ffec" opacity="0.646"/>
    <rect id="Rectangle_265" data-name="Rectangle 265" width="113" height="61" transform="translate(743 3857)" fill="rgba(219,249,255,0.55)"/>
    <rect id="Rectangle_271" data-name="Rectangle 271" width="113" height="61" transform="translate(1122.5 4081)" fill="rgba(219,249,255,0.55)"/>
    <rect id="Rectangle_268" data-name="Rectangle 268" width="113" height="61" transform="translate(900.5 3973)" fill="rgba(255,225,219,0.55)"/>
    <rect id="Rectangle_272" data-name="Rectangle 272" width="113" height="61" transform="translate(1257.5 3999)" fill="rgba(255,225,219,0.55)"/>
    <text id="Metering" transform="translate(643.5 3614.5)" fill="#707070" font-size="20" font-family="HelveticaNeue-Bold, Helvetica Neue" font-weight="700"><tspan x="-42.58" y="0">Metering</tspan></text>
    <text id="Billing" transform="translate(799.5 3614.5)" fill="#707070" font-size="20" font-family="HelveticaNeue-Bold, Helvetica Neue" font-weight="700"><tspan x="-29.4" y="0">Billing</tspan></text>
    <text id="Collection" transform="translate(965.5 3616)" fill="#707070" font-size="20" font-family="HelveticaNeue-Bold, Helvetica Neue" font-weight="700"><tspan x="-48.3" y="0">Collection</tspan></text>
    <text id="Automatic_server_update_through_Smart_Meter_api" data-name="Automatic server
update through
Smart Meter api" transform="translate(643.5 3754)" fill="#21232a" font-size="14" font-family="HelveticaNeue, Helvetica Neue"><tspan x="-53.025" y="0">Automatic server</tspan><tspan x="-47.985" y="15">update through</tspan><tspan x="-50.309" y="30">Smart Meter api</tspan></text>
    <text id="Bill_outstanding_calculated" data-name="Bill +
outstanding
calculated" transform="translate(799.5 3754)" fill="#21232a" font-size="14" font-family="HelveticaNeue, Helvetica Neue"><tspan x="-15.603" y="0">Bill +</tspan><tspan x="-37.086" y="15">outstanding</tspan><tspan x="-32.151" y="30">calculated</tspan></text>
    <text id="In-person_collection" data-name="In-person
collection" transform="translate(957.5 3761)" fill="#21232a" font-size="14" font-family="HelveticaNeue, Helvetica Neue"><tspan x="-30.079" y="0">In-person</tspan><tspan x="-30.072" y="15">collection</tspan></text>
    <text id="Conventional_Meters:_In_person_metering" data-name="Conventional
Meters:
In person
metering" transform="translate(643.5 3870)" fill="#21232a" font-size="14" font-family="HelveticaNeue, Helvetica Neue"><tspan x="-41.097" y="0">Conventional</tspan><tspan x="-23.597" y="15">Meters:</tspan><tspan x="-29.302" y="30">In person</tspan><tspan x="-27.489" y="45">metering</tspan></text>
    <text id="Hard_copy_receipt_generated" data-name="Hard copy
receipt
generated" transform="translate(957.5 3877)" fill="#21232a" font-size="14" font-family="HelveticaNeue, Helvetica Neue"><tspan x="-32.543" y="0">Hard copy</tspan><tspan x="-21.392" y="15">receipt</tspan><tspan x="-31.633" y="30">generated</tspan></text>
    <text id="Electronic_Notification_to_customer" data-name="Electronic
Notification to
 customer" transform="translate(799.5 3878)" fill="#21232a" font-size="14" font-family="HelveticaNeue, Helvetica Neue"><tspan x="-30.982" y="0">Electronic</tspan><tspan x="-43.813" y="15">Notification to</tspan><tspan x="-31.381" y="30" xml:space="preserve"> customer</tspan></text>
    <text id="Data_entry_templates_on_the_field_force_app" data-name="Data entry
templates
on the field
force app" transform="translate(643.5 3986)" fill="#21232a" font-size="14" font-family="HelveticaNeue, Helvetica Neue"><tspan x="-32.284" y="0">Data entry</tspan><tspan x="-30.863" y="15">templates</tspan><tspan x="-34.748" y="30">on the field</tspan><tspan x="-29.82" y="45">force app</tspan></text>
    <text id="Electronic_receipt_generated" data-name="Electronic
receipt
generated" transform="translate(957.5 3994)" fill="#21232a" font-size="14" font-family="HelveticaNeue, Helvetica Neue"><tspan x="-30.982" y="0">Electronic</tspan><tspan x="-21.392" y="15">receipt</tspan><tspan x="-31.633" y="30">generated</tspan></text>
    <text id="Automated_Field_Force_App_" data-name="Automated
(Field Force App)" transform="translate(1313.5 4027)" fill="#21232a" font-size="14" font-family="HelveticaNeue, Helvetica Neue"><tspan x="-34.496" y="0">Automated</tspan><tspan x="-53.151" y="16">(Field Force App)</tspan></text>
    <text id="Manual" transform="translate(1179.5 4035)" fill="#21232a" font-size="14" font-family="HelveticaNeue, Helvetica Neue"><tspan x="-22.953" y="0">Manual</tspan></text>
    <text id="LEGENDS" transform="translate(1249.5 3970)" fill="#707070" font-size="20" font-family="HelveticaNeue-Bold, Helvetica Neue" font-weight="700" letter-spacing="0.2em"><tspan x="-59.79" y="0">LEGENDS</tspan></text>
    <text id="DMS_Server" data-name="DMS Server" transform="translate(1314.5 4116)" fill="#21232a" font-size="14" font-family="HelveticaNeue, Helvetica Neue"><tspan x="-37.723" y="0">DMS Server</tspan></text>
    <text id="Automated_Customer_App_" data-name="Automated
(Customer App)" transform="translate(1179.5 4109)" fill="#21232a" font-size="14" font-family="HelveticaNeue, Helvetica Neue"><tspan x="-34.496" y="0">Automated</tspan><tspan x="-49.14" y="16">(Customer App)</tspan></text>
    <text id="Collection_Updated_in_server" data-name="Collection
Updated in
server" transform="translate(957.5 4101)" fill="#21232a" font-size="14" font-family="HelveticaNeue, Helvetica Neue"><tspan x="-31.367" y="0">Collection</tspan><tspan x="-34.622" y="15">Updated in</tspan><tspan x="-19.18" y="30">server</tspan></text>
    <line id="Line_48" data-name="Line 48" y2="577.081" transform="translate(721.5 3586.5)" fill="none" stroke="rgba(112,112,112,0.53)" stroke-width="1" opacity="0.297"/>
    <line id="Line_47" data-name="Line 47" y2="577.081" transform="translate(878.5 3586.5)" fill="none" stroke="rgba(112,112,112,0.53)" stroke-width="1" opacity="0.297"/>
    <path id="Polygon_16" data-name="Polygon 16" d="M6,0l6,10H0Z" transform="translate(731.5 3669) rotate(90)" fill="#707070" opacity="0.303"/>
    <g id="Group_353" data-name="Group 353" transform="translate(-160.5)">
      <line id="Line_49" data-name="Line 49" x1="540.5" transform="translate(680.5 3709.5)" fill="none" stroke="rgba(112,112,112,0.53)" stroke-width="1" opacity="0.281"/>
      <line id="Line_50" data-name="Line 50" x1="552.5" transform="translate(680.5 3825.5)" fill="none" stroke="rgba(112,112,112,0.53)" stroke-width="1" opacity="0.281"/>
      <line id="Line_51" data-name="Line 51" x1="552.5" transform="translate(680.5 3941.5)" fill="none" stroke="rgba(112,112,112,0.53)" stroke-width="1" opacity="0.281"/>
      <line id="Line_52" data-name="Line 52" x1="552.5" transform="translate(680.5 4057.5)" fill="none" stroke="rgba(112,112,112,0.53)" stroke-width="1" opacity="0.281"/>
    </g>
    <path id="Polygon_17" data-name="Polygon 17" d="M6,0l6,10H0Z" transform="translate(888.5 3669) rotate(90)" fill="#707070" opacity="0.303"/>
    <g id="Smart_phone_shopping" data-name="Smart phone shopping" transform="translate(945.5 3648)">
      <path id="Path_959" data-name="Path 959" d="M38.413,35.783l-3.867,2.235a2,2,0,0,0-1.879-1.351H29.648a.679.679,0,0,1-.3-.067l-.771-.386A2.009,2.009,0,0,0,27.685,36H24.219a2.009,2.009,0,0,0-.633.1l-1.693.564h-.559V35.333a.667.667,0,0,0-.667-.667h-4a.667.667,0,0,0-.667.667V36H13.333V34H12V46h1.333V44H16v.667a.667.667,0,0,0,.667.667h4a.667.667,0,0,0,.667-.667v-1.34l.506.005.915.457a2.009,2.009,0,0,0,.894.211h7.995a2,2,0,0,0,1-.267l7.767-4.486a2.005,2.005,0,0,0,1.01-1.741,1.985,1.985,0,0,0-.271-1A2.007,2.007,0,0,0,38.413,35.783ZM13.333,42.667V37.333H16v5.333ZM20,44H17.333V36H20Zm19.747-5.911-7.771,4.488a.667.667,0,0,1-.333.089H23.648a.679.679,0,0,1-.3-.067L22.161,42l-.827-.007V38H22a.667.667,0,0,0,.211-.034l1.794-.6a.675.675,0,0,1,.212-.033h3.467a.679.679,0,0,1,.3.067l.771.386a2.009,2.009,0,0,0,.9.214h3.019a.667.667,0,0,1,0,1.333H30a.667.667,0,1,0,0,1.333h2.667A1.994,1.994,0,0,0,34.4,39.645l4.683-2.711a.663.663,0,0,1,.917.248.644.644,0,0,1,.09.325.667.667,0,0,1-.343.583Z" transform="translate(-3.333 -10.667)" fill="#707070"/>
      <path id="Path_960" data-name="Path 960" d="M24,34.667a.667.667,0,0,0-.667.667v1.333h-20V7.333h20V8a.667.667,0,1,0,1.333,0V6.667A4.672,4.672,0,0,0,20,2H6.667A4.672,4.672,0,0,0,2,6.667V37.333A4.672,4.672,0,0,0,6.667,42H20a4.672,4.672,0,0,0,4.667-4.667v-2A.667.667,0,0,0,24,34.667ZM6.667,3.333H20A3.339,3.339,0,0,1,23.267,6H3.4A3.339,3.339,0,0,1,6.667,3.333ZM20,40.667H6.667A3.339,3.339,0,0,1,3.4,38H23.267A3.339,3.339,0,0,1,20,40.667Z" fill="#707070"/>
      <path id="Path_961" data-name="Path 961" d="M16,5h1.333V6.333H16Z" transform="translate(-4.667 -1)" fill="#707070"/>
      <path id="Path_962" data-name="Path 962" d="M20,5h1.333V6.333H20Z" transform="translate(-6 -1)" fill="#707070"/>
      <path id="Path_963" data-name="Path 963" d="M16,57h4v1.333H16Z" transform="translate(-4.667 -18.333)" fill="#707070"/>
      <path id="Path_964" data-name="Path 964" d="M50.667,13h-16a.667.667,0,0,0-.667.667V15H32.667a.667.667,0,0,0-.667.667V17H30.667a.667.667,0,0,0-.667.667V27a.667.667,0,0,0,.667.667h16A.667.667,0,0,0,47.333,27V25.667h1.333A.667.667,0,0,0,49.333,25V23.667h1.333A.667.667,0,0,0,51.333,23V13.667A.667.667,0,0,0,50.667,13ZM46,26.333H31.333v-8H46Zm2-2h-.667V17.667A.667.667,0,0,0,46.667,17H33.333v-.667H48Zm2-2h-.667V15.667A.667.667,0,0,0,48.667,15H35.333v-.667H50Z" transform="translate(-9.333 -3.667)" fill="#707070"/>
      <path id="Path_965" data-name="Path 965" d="M41.667,23a2.667,2.667,0,1,0,2.667,2.667A2.667,2.667,0,0,0,41.667,23Zm0,4A1.333,1.333,0,1,1,43,25.667,1.333,1.333,0,0,1,41.667,27Z" transform="translate(-12.333 -7)" fill="#707070"/>
      <path id="Path_966" data-name="Path 966" d="M50.333,26h-.667a.667.667,0,1,0,0,1.333h.667a.667.667,0,1,0,0-1.333Z" transform="translate(-15.667 -8)" fill="#707070"/>
      <path id="Path_967" data-name="Path 967" d="M35.333,26h-.667a.667.667,0,1,0,0,1.333h.667a.667.667,0,1,0,0-1.333Z" transform="translate(-10.667 -8)" fill="#707070"/>
      <path id="Path_968" data-name="Path 968" d="M12,14.667A.667.667,0,0,0,11.333,14H8.667A.667.667,0,0,0,8,14.667v2.667A.667.667,0,0,0,8.667,18h2.667A.667.667,0,0,0,12,17.333Zm-1.333,2H9.333V15.333h1.333Z" transform="translate(-2 -4)" fill="#707070"/>
      <path id="Path_969" data-name="Path 969" d="M20,14.667A.667.667,0,0,0,19.333,14H16.667a.667.667,0,0,0-.667.667v2.667a.667.667,0,0,0,.667.667h2.667A.667.667,0,0,0,20,17.333Zm-1.333,2H17.333V15.333h1.333Z" transform="translate(-4.667 -4)" fill="#707070"/>
      <path id="Path_970" data-name="Path 970" d="M11.333,24H8.667A.667.667,0,0,0,8,24.667v2.667A.667.667,0,0,0,8.667,28h2.667A.667.667,0,0,0,12,27.333V24.667A.667.667,0,0,0,11.333,24Zm-.667,2.667H9.333V25.333h1.333Z" transform="translate(-2 -7.333)" fill="#707070"/>
      <path id="Path_971" data-name="Path 971" d="M19.333,24H16.667a.667.667,0,0,0-.667.667v2.667a.667.667,0,0,0,.667.667h2.667A.667.667,0,0,0,20,27.333V24.667A.667.667,0,0,0,19.333,24Zm-.667,2.667H17.333V25.333h1.333Z" transform="translate(-4.667 -7.333)" fill="#707070"/>
      <path id="Path_972" data-name="Path 972" d="M27.333,15.333a.667.667,0,1,0,0-1.333H24.667a.667.667,0,0,0-.667.667v2.667a.667.667,0,0,0,.667.667H26a.667.667,0,1,0,0-1.333h-.667V15.333Z" transform="translate(-7.333 -4)" fill="#707070"/>
      <path id="Path_973" data-name="Path 973" d="M26,25.333A.667.667,0,1,0,26,24H24.667a.667.667,0,0,0-.667.667v2.667a.667.667,0,0,0,.667.667H26a.667.667,0,1,0,0-1.333h-.667V25.333Z" transform="translate(-7.333 -7.333)" fill="#707070"/>
    </g>
    <g id="meter" transform="translate(621.499 3647)">
      <path id="Path_893" data-name="Path 893" d="M32.436,5.565a19,19,0,0,0-26.87,26.87,19,19,0,0,0,26.87-26.87Zm-1.05,25.821A17.51,17.51,0,0,1,2.4,24.574H15.667a.742.742,0,1,0,0-1.484H1.974a17.512,17.512,0,1,1,34.053,0H22.332a.742.742,0,1,0,0,1.484H35.6A17.408,17.408,0,0,1,31.386,31.385Z" transform="translate(0 0)" fill="#707070"/>
      <path id="Path_894" data-name="Path 894" d="M67.85,53.416a.742.742,0,0,0,1.484,0V50.082a13.455,13.455,0,0,1,3.746.745l-.491,1.187a.742.742,0,1,0,1.372.568l.491-1.186a13.587,13.587,0,0,1,3.079,2.045l-2.349,2.347a.742.742,0,0,0,1.049,1.05l2.359-2.357A13.6,13.6,0,0,1,80.8,57.743l-1.186.491a.742.742,0,1,0,.568,1.372l1.187-.491a13.453,13.453,0,0,1,.745,3.746H78.779a.742.742,0,1,0,0,1.484h4.1a.528.528,0,0,0,.055,0,.742.742,0,0,0,.687-.739,15.024,15.024,0,1,0-30.048,0,.742.742,0,0,0,.742.742h4.1a.742.742,0,0,0,0-1.484H55.074a13.453,13.453,0,0,1,.745-3.747l1.187.491a.742.742,0,0,0,.568-1.372l-1.186-.491A13.591,13.591,0,0,1,58.6,54.48l2.357,2.357A.742.742,0,0,0,62,55.788L59.655,53.44A13.585,13.585,0,0,1,62.733,51.4l.492,1.187a.742.742,0,0,0,1.371-.569L64.1,50.827a13.45,13.45,0,0,1,3.746-.745v3.333Z" transform="translate(-49.592 -44.972)" fill="#707070"/>
      <path id="Path_895" data-name="Path 895" d="M222.131,166.823l-.006-.015-1.9-4.45a.742.742,0,0,0-.683-.451h0a.742.742,0,0,0-.682.451l-1.9,4.45-.008.019a3.421,3.421,0,0,0-.332,1.341,2.923,2.923,0,1,0,5.846,0A3.434,3.434,0,0,0,222.131,166.823Zm-2.59,2.785a1.44,1.44,0,0,1-1.437-1.439,2.153,2.153,0,0,1,.223-.785l1.214-2.845,1.216,2.845a2.153,2.153,0,0,1,.223.784A1.441,1.441,0,0,1,219.541,169.608Z" transform="translate(-200.541 -149.891)" fill="#707070"/>
      <path id="Path_896" data-name="Path 896" d="M232.516,353.8h-1.287l1.011-2.033a.742.742,0,1,0-1.329-.661l-1.544,3.105a.75.75,0,0,0,.667,1.073h1.285l-1.011,2.033a.742.742,0,1,0,1.329.661l1.544-3.105a.745.745,0,0,0-.665-1.073Z" transform="translate(-212.273 -324.668)" fill="#707070"/>
      <path id="Path_897" data-name="Path 897" d="M153.21,385.451h-2.634a.742.742,0,0,0,0,1.484h2.634a.742.742,0,1,0,0-1.484Z" transform="translate(-138.713 -356.843)" fill="#707070"/>
      <path id="Path_898" data-name="Path 898" d="M310.024,385.451H307.39a.742.742,0,0,0,0,1.484h2.634a.742.742,0,0,0,0-1.484Z" transform="translate(-283.888 -356.843)" fill="#707070"/>
      <path id="Path_899" data-name="Path 899" d="M246.732,312.582a.742.742,0,1,0-.746-.742.74.74,0,0,0,.746.742Z" transform="translate(-227.728 -288.009)" fill="#707070"/>
    </g>
    <g id="invoice" transform="translate(685.291 3647)">
      <g id="Group_2816" data-name="Group 2816" transform="translate(120.245 5.939)">
        <g id="Group_2815" data-name="Group 2815" transform="translate(0)">
          <path id="Path_5043" data-name="Path 5043" d="M322.686,80.161H321.2a.556.556,0,0,0,0,1.111h1.485a.556.556,0,1,0,0-1.111Z" transform="translate(-320.645 -80.161)" fill="#707070"/>
        </g>
      </g>
      <g id="Group_2818" data-name="Group 2818" transform="translate(120.245 8.909)">
        <g id="Group_2817" data-name="Group 2817" transform="translate(0)">
          <path id="Path_5044" data-name="Path 5044" d="M322.686,120.242H321.2a.556.556,0,0,0,0,1.111h1.485a.556.556,0,1,0,0-1.111Z" transform="translate(-320.645 -120.242)" fill="#707070"/>
        </g>
      </g>
      <g id="Group_2820" data-name="Group 2820" transform="translate(120.245 11.879)">
        <g id="Group_2819" data-name="Group 2819" transform="translate(0)">
          <path id="Path_5045" data-name="Path 5045" d="M322.686,160.322H321.2a.556.556,0,0,0,0,1.111h1.485a.556.556,0,1,0,0-1.111Z" transform="translate(-320.645 -160.322)" fill="#707070"/>
        </g>
      </g>
      <g id="Group_2822" data-name="Group 2822" transform="translate(120.245 14.848)">
        <g id="Group_2821" data-name="Group 2821" transform="translate(0)">
          <path id="Path_5046" data-name="Path 5046" d="M322.686,200.4H321.2a.556.556,0,0,0,0,1.111h1.485a.556.556,0,1,0,0-1.111Z" transform="translate(-320.645 -200.404)" fill="#707070"/>
        </g>
      </g>
      <g id="Group_2824" data-name="Group 2824" transform="translate(120.245 17.818)">
        <g id="Group_2823" data-name="Group 2823" transform="translate(0)">
          <path id="Path_5047" data-name="Path 5047" d="M322.686,240.484H321.2a.556.556,0,0,0,0,1.111h1.485a.556.556,0,1,0,0-1.111Z" transform="translate(-320.645 -240.484)" fill="#707070"/>
        </g>
      </g>
      <g id="Group_2826" data-name="Group 2826" transform="translate(120.245 20.787)">
        <g id="Group_2825" data-name="Group 2825" transform="translate(0)">
          <path id="Path_5048" data-name="Path 5048" d="M322.686,280.565H321.2a.556.556,0,0,0,0,1.111h1.485a.556.556,0,1,0,0-1.111Z" transform="translate(-320.645 -280.565)" fill="#707070"/>
        </g>
      </g>
      <g id="Group_2828" data-name="Group 2828" transform="translate(120.245 23.757)">
        <g id="Group_2827" data-name="Group 2827" transform="translate(0)">
          <path id="Path_5049" data-name="Path 5049" d="M322.686,320.646H321.2a.556.556,0,0,0,0,1.111h1.485a.556.556,0,1,0,0-1.111Z" transform="translate(-320.645 -320.646)" fill="#707070"/>
        </g>
      </g>
      <g id="Group_2830" data-name="Group 2830" transform="translate(107.773 5.939)">
        <g id="Group_2829" data-name="Group 2829" transform="translate(0)">
          <path id="Path_5050" data-name="Path 5050" d="M159.4,80.161h-6.533a.556.556,0,1,0,0,1.111H159.4a.556.556,0,1,0,0-1.111Z" transform="translate(-152.307 -80.161)" fill="#707070"/>
        </g>
      </g>
      <g id="Group_2832" data-name="Group 2832" transform="translate(107.773 8.909)">
        <g id="Group_2831" data-name="Group 2831" transform="translate(0)">
          <path id="Path_5051" data-name="Path 5051" d="M161.484,120.242h-8.621a.556.556,0,0,0,0,1.111h8.621a.556.556,0,0,0,0-1.111Z" transform="translate(-152.307 -120.242)" fill="#707070"/>
        </g>
      </g>
      <g id="Group_2834" data-name="Group 2834" transform="translate(107.773 11.879)">
        <g id="Group_2833" data-name="Group 2833" transform="translate(0)">
          <path id="Path_5052" data-name="Path 5052" d="M157.614,160.322h-4.751a.556.556,0,0,0,0,1.111h4.751a.556.556,0,1,0,0-1.111Z" transform="translate(-152.307 -160.322)" fill="#707070"/>
        </g>
      </g>
      <g id="Group_2836" data-name="Group 2836" transform="translate(107.773 14.848)">
        <g id="Group_2835" data-name="Group 2835" transform="translate(0)">
          <path id="Path_5053" data-name="Path 5053" d="M159.4,200.4h-6.533a.556.556,0,1,0,0,1.111H159.4a.556.556,0,1,0,0-1.111Z" transform="translate(-152.307 -200.404)" fill="#707070"/>
        </g>
      </g>
      <g id="Group_2838" data-name="Group 2838" transform="translate(107.773 17.818)">
        <g id="Group_2837" data-name="Group 2837" transform="translate(0)">
          <path id="Path_5054" data-name="Path 5054" d="M161.771,240.484h-8.909a.556.556,0,0,0,0,1.111h8.909a.556.556,0,1,0,0-1.111Z" transform="translate(-152.307 -240.484)" fill="#707070"/>
        </g>
      </g>
      <g id="Group_2840" data-name="Group 2840" transform="translate(107.773 20.787)">
        <g id="Group_2839" data-name="Group 2839" transform="translate(0)">
          <path id="Path_5055" data-name="Path 5055" d="M157.614,280.565h-4.751a.556.556,0,0,0,0,1.111h4.751a.556.556,0,1,0,0-1.111Z" transform="translate(-152.307 -280.565)" fill="#707070"/>
        </g>
      </g>
      <g id="Group_2842" data-name="Group 2842" transform="translate(107.773 23.757)">
        <g id="Group_2841" data-name="Group 2841" transform="translate(0)">
          <path id="Path_5056" data-name="Path 5056" d="M159.4,320.646h-6.533a.556.556,0,1,0,0,1.111H159.4a.556.556,0,1,0,0-1.111Z" transform="translate(-152.307 -320.646)" fill="#707070"/>
        </g>
      </g>
      <g id="Group_2844" data-name="Group 2844" transform="translate(110.742 27.914)">
        <g id="Group_2843" data-name="Group 2843" transform="translate(0)">
          <path id="Path_5057" data-name="Path 5057" d="M201.258,376.758h-8.315a.556.556,0,0,0,0,1.111h8.315a.556.556,0,1,0,0-1.111Z" transform="translate(-192.387 -376.758)" fill="#707070"/>
        </g>
      </g>
      <g id="Group_2846" data-name="Group 2846" transform="translate(112.524 30.884)">
        <g id="Group_2845" data-name="Group 2845" transform="translate(0)">
          <path id="Path_5058" data-name="Path 5058" d="M221.743,416.839h-4.751a.556.556,0,1,0,0,1.111h4.751a.556.556,0,1,0,0-1.111Z" transform="translate(-216.436 -416.839)" fill="#707070"/>
        </g>
      </g>
      <g id="Group_2848" data-name="Group 2848" transform="translate(104.209 0)">
        <g id="Group_2847" data-name="Group 2847" transform="translate(0 0)">
          <path id="Path_5059" data-name="Path 5059" d="M126.42.072a.556.556,0,0,0-.56.007L124.153,1.1l-1.9-1.036a.556.556,0,0,0-.532,0l-1.912,1.043L117.9.068a.556.556,0,0,0-.532,0l-1.912,1.043L113.544.068a.556.556,0,0,0-.532,0L111.1,1.111,109.188.068a.556.556,0,0,0-.532,0l-1.9,1.036L105.051.079a.556.556,0,0,0-.842.476V37.379a.556.556,0,0,0,.842.476l1.707-1.024,1.9,1.036a.556.556,0,0,0,.532,0l1.912-1.043,1.912,1.043a.556.556,0,0,0,.532,0l1.912-1.043,1.912,1.043a.556.556,0,0,0,.532,0l1.912-1.043,1.912,1.043a.556.556,0,0,0,.532,0l1.9-1.036,1.707,1.024a.556.556,0,0,0,.842-.477V.556A.556.556,0,0,0,126.42.072ZM125.59,36.4h0l-1.138-.683a.556.556,0,0,0-.552-.011l-1.912,1.043L120.077,35.7a.556.556,0,0,0-.532,0l-1.912,1.043L115.721,35.7a.555.555,0,0,0-.532,0l-1.912,1.043L111.366,35.7a.555.555,0,0,0-.532,0l-1.912,1.043L107.011,35.7a.556.556,0,0,0-.552.011l-1.138.683V1.537l1.138.683a.556.556,0,0,0,.552.011l1.912-1.043,1.912,1.043a.556.556,0,0,0,.532,0l1.912-1.043,1.912,1.043a.556.556,0,0,0,.532,0l1.912-1.043,1.912,1.043a.556.556,0,0,0,.532,0l1.912-1.043L123.9,2.231a.556.556,0,0,0,.552-.011l1.138-.683Z" transform="translate(-104.209 0)" fill="#707070"/>
        </g>
      </g>
    </g>
  </g>
</svg>
