<svg xmlns="http://www.w3.org/2000/svg" xmlns:xlink="http://www.w3.org/1999/xlink" width="1920" height="635.559" viewBox="0 0 1920 635.559">
  <defs>
    <linearGradient id="linear-gradient" y1="-119.484" x2="1" y2="-119.484" gradientUnits="objectBoundingBox">
      <stop offset="0" stop-color="#3a71bf"/>
      <stop offset="1" stop-color="#3a71bf" stop-opacity="0.2"/>
    </linearGradient>
  </defs>
  <g id="Group_2624" data-name="Group 2624" transform="translate(0 -2712.5)">
    <path id="Path_778" data-name="Path 778" d="M-282.219,605S-38.937,445.4,295.149,504.869s630.479-18.883,727.263-97.932,380.728-169.9,615.37,2.644v238.3h-1920Z" transform="translate(282.219 2577.827)" opacity="0.097" fill="url(#linear-gradient)"/>
    <g id="Group_345" data-name="Group 345" transform="translate(196.907 2877.973)" opacity="0.232">
      <g id="Group_310" data-name="Group 310" transform="translate(80.093 372.027)">
        <rect id="Rectangle_144" data-name="Rectangle 144" width="61.265" height="82.541" transform="translate(147.648 15.518)" fill="#b5bddf"/>
        <g id="Group_277" data-name="Group 277" transform="translate(1.288 6.151)">
          <path id="Path_779" data-name="Path 779" d="M80.854,467.568,133.182,376.5l178.686-.845L264.4,467.568Z" transform="translate(-80.854 -375.66)" fill="#c6d5f2"/>
        </g>
        <g id="Group_278" data-name="Group 278" transform="translate(223.402 0.113)">
          <path id="Path_780" data-name="Path 780" d="M220.959,378.131l-2.838-6.037-6.062,5.8,4.45,8.85Z" transform="translate(-212.059 -372.094)" fill="#c6d5f2"/>
        </g>
        <g id="Group_279" data-name="Group 279" transform="translate(0.391 91.176)">
          <path id="Path_781" data-name="Path 781" d="M80.324,425.886v6.882h5.132l2.162-6.882Z" transform="translate(-80.324 -425.886)" fill="#c6d5f2"/>
        </g>
        <g id="Group_280" data-name="Group 280" transform="translate(0.391 0.113)">
          <path id="Path_782" data-name="Path 782" d="M80.324,463.157l52.328-91.063H307.521l-48.93,91.063Z" transform="translate(-80.324 -372.094)" fill="#94ece1"/>
        </g>
        <g id="Group_281" data-name="Group 281">
          <path id="Path_783" data-name="Path 783" d="M263,463.412H80.093l52.8-91.385h176.7ZM89.6,457.925h170.04l41-80.41H136.058Z" transform="translate(-80.093 -372.027)" fill="#fff"/>
        </g>
        <g id="Group_282" data-name="Group 282" transform="translate(47.391 1.505)">
          <rect id="Rectangle_145" data-name="Rectangle 145" width="96.415" height="5.489" transform="translate(0 85.882) rotate(-62.969)" fill="#fff"/>
        </g>
        <g id="Group_283" data-name="Group 283" transform="translate(91.183 1.505)">
          <rect id="Rectangle_146" data-name="Rectangle 146" width="96.415" height="5.489" transform="translate(0 85.883) rotate(-62.969)" fill="#fff"/>
        </g>
        <g id="Group_284" data-name="Group 284" transform="translate(134.973 1.506)">
          <rect id="Rectangle_147" data-name="Rectangle 147" width="96.415" height="5.489" transform="translate(0 85.88) rotate(-62.965)" fill="#fff"/>
        </g>
        <g id="Group_285" data-name="Group 285" transform="translate(33.059 40.395)">
          <rect id="Rectangle_148" data-name="Rectangle 148" width="173.285" height="5.487" fill="#fff"/>
        </g>
        <g id="Group_288" data-name="Group 288" transform="translate(35.624 4.674)">
          <g id="Group_286" data-name="Group 286" transform="translate(8.293)" opacity="0.38">
            <path id="Path_784" data-name="Path 784" d="M151.279,375.567l-45.243,20.91,12.641-21.688Z" transform="translate(-106.036 -374.788)" fill="#fff"/>
          </g>
          <g id="Group_287" data-name="Group 287" transform="translate(0 9.717)" opacity="0.38">
            <path id="Path_785" data-name="Path 785" d="M150.057,380.528l-45.809,20.782-3.111,5.373h6.646l36.9-15.694Z" transform="translate(-101.137 -380.528)" fill="#fff"/>
          </g>
        </g>
        <g id="Group_291" data-name="Group 291" transform="translate(74.486 4.674)">
          <g id="Group_289" data-name="Group 289" transform="translate(8.292)" opacity="0.38">
            <path id="Path_786" data-name="Path 786" d="M179.44,375.567l-50.45,20.91,12.642-21.688Z" transform="translate(-128.99 -374.788)" fill="#fff"/>
          </g>
          <g id="Group_290" data-name="Group 290" transform="translate(0 6.93)" opacity="0.38">
            <path id="Path_787" data-name="Path 787" d="M179.127,378.882,127.2,402.452l-3.11,5.373h6.645l43.016-18.481Z" transform="translate(-124.092 -378.882)" fill="#fff"/>
          </g>
        </g>
        <g id="Group_294" data-name="Group 294" transform="translate(119.701 4.674)">
          <g id="Group_292" data-name="Group 292" transform="translate(8.292)" opacity="0.38">
            <path id="Path_788" data-name="Path 788" d="M206.15,375.567,155.7,396.476l10.734-21.688Z" transform="translate(-155.699 -374.788)" fill="#fff"/>
          </g>
          <g id="Group_293" data-name="Group 293" transform="translate(0 6.93)" opacity="0.38">
            <path id="Path_789" data-name="Path 789" d="M205.835,378.882l-51.924,23.57-3.11,5.373h6.646l43.016-18.481Z" transform="translate(-150.801 -378.882)" fill="#fff"/>
          </g>
        </g>
        <g id="Group_297" data-name="Group 297" transform="translate(162.5 4.674)">
          <g id="Group_295" data-name="Group 295" transform="translate(8.292)" opacity="0.38">
            <path id="Path_790" data-name="Path 790" d="M231.431,375.567l-50.449,20.91,10.734-21.688Z" transform="translate(-180.982 -374.788)" fill="#fff"/>
          </g>
          <g id="Group_296" data-name="Group 296" transform="translate(0 6.93)" opacity="0.38">
            <path id="Path_791" data-name="Path 791" d="M231.119,378.882l-51.925,23.57-3.111,5.373h6.645l43.018-18.481Z" transform="translate(-176.083 -378.882)" fill="#fff"/>
          </g>
        </g>
        <g id="Group_300" data-name="Group 300" transform="translate(10.341 45.08)">
          <g id="Group_298" data-name="Group 298" transform="translate(9.817)" opacity="0.38">
            <path id="Path_792" data-name="Path 792" d="M137.245,399.433,92,420.345l12.643-21.688Z" transform="translate(-92.001 -398.656)" fill="#fff"/>
          </g>
          <g id="Group_299" data-name="Group 299" transform="translate(0 7.543)" opacity="0.38">
            <path id="Path_793" data-name="Path 793" d="M142.02,403.112,90.837,426.067l-3.111,5.373L86.2,434.751l50.446-21.176Z" transform="translate(-86.202 -403.112)" fill="#fff"/>
          </g>
        </g>
        <g id="Group_303" data-name="Group 303" transform="translate(51.341 45.694)">
          <g id="Group_301" data-name="Group 301" transform="translate(8.292)" opacity="0.38">
            <path id="Path_794" data-name="Path 794" d="M167.811,399.019l-52.493,21.688,12.641-21.688Z" transform="translate(-115.319 -399.019)" fill="#fff"/>
          </g>
          <g id="Group_302" data-name="Group 302" transform="translate(0 4.999)" opacity="0.38">
            <path id="Path_795" data-name="Path 795" d="M170.137,401.972l-56.606,25.5-3.111,5.373h6.646l47.7-20.412Z" transform="translate(-110.42 -401.972)" fill="#fff"/>
          </g>
        </g>
        <g id="Group_306" data-name="Group 306" transform="translate(96.557 45.08)">
          <g id="Group_304" data-name="Group 304" transform="translate(8.292)" opacity="0.38">
            <path id="Path_796" data-name="Path 796" d="M193.911,398.656l-51.883,22.3,10.734-21.688Z" transform="translate(-142.028 -398.656)" fill="#fff"/>
          </g>
          <g id="Group_305" data-name="Group 305" transform="translate(0 6.226)" opacity="0.38">
            <path id="Path_797" data-name="Path 797" d="M194.851,402.334l-54.61,24.887-3.111,5.373,2.649,1.723,49.7-21.52Z" transform="translate(-137.13 -402.334)" fill="#fff"/>
          </g>
        </g>
        <g id="Group_309" data-name="Group 309" transform="translate(139.356 45.694)">
          <g id="Group_307" data-name="Group 307" transform="translate(8.292)" opacity="0.38">
            <path id="Path_798" data-name="Path 798" d="M220.014,399.019l-52.7,21.688,10.735-21.688Z" transform="translate(-167.31 -399.019)" fill="#fff"/>
          </g>
          <g id="Group_308" data-name="Group 308" transform="translate(0 5.021)" opacity="0.38">
            <path id="Path_799" data-name="Path 799" d="M219.357,401.984l-53.833,25.479-3.111,5.373h6.646l44.926-20.389Z" transform="translate(-162.412 -401.984)" fill="#fff"/>
          </g>
        </g>
      </g>
      <g id="Group_344" data-name="Group 344" transform="translate(327.24 372.027)">
        <rect id="Rectangle_149" data-name="Rectangle 149" width="61.264" height="82.541" transform="translate(147.812 15.518)" fill="#b5bddf"/>
        <g id="Group_311" data-name="Group 311" transform="translate(1.289 6.151)">
          <path id="Path_800" data-name="Path 800" d="M226.847,467.568,279.175,376.5l178.686-.845-47.473,91.908Z" transform="translate(-226.847 -375.66)" fill="#c6d5f2"/>
        </g>
        <g id="Group_312" data-name="Group 312" transform="translate(223.402 0.113)">
          <path id="Path_801" data-name="Path 801" d="M366.952,378.131l-2.838-6.037-6.063,5.8,4.45,8.85Z" transform="translate(-358.051 -372.094)" fill="#c6d5f2"/>
        </g>
        <g id="Group_313" data-name="Group 313" transform="translate(0.393 91.176)">
          <path id="Path_802" data-name="Path 802" d="M226.317,425.886v6.882h5.132l2.163-6.882Z" transform="translate(-226.317 -425.886)" fill="#c6d5f2"/>
        </g>
        <g id="Group_314" data-name="Group 314" transform="translate(0.393 0.113)">
          <path id="Path_803" data-name="Path 803" d="M226.317,463.157l52.327-91.063H453.513l-48.929,91.063Z" transform="translate(-226.317 -372.094)" fill="#94ece1"/>
        </g>
        <g id="Group_315" data-name="Group 315">
          <path id="Path_804" data-name="Path 804" d="M408.994,463.412H226.085l52.8-91.385h176.7Zm-173.4-5.487H405.632l41-80.41H282.052Z" transform="translate(-226.085 -372.027)" fill="#fff"/>
        </g>
        <g id="Group_316" data-name="Group 316" transform="translate(47.387 1.508)">
          <rect id="Rectangle_150" data-name="Rectangle 150" width="96.415" height="5.488" transform="matrix(0.455, -0.891, 0.891, 0.455, 0, 85.876)" fill="#fff"/>
        </g>
        <g id="Group_317" data-name="Group 317" transform="translate(91.182 1.506)">
          <rect id="Rectangle_151" data-name="Rectangle 151" width="96.415" height="5.488" transform="translate(0 85.88) rotate(-62.965)" fill="#fff"/>
        </g>
        <g id="Group_318" data-name="Group 318" transform="translate(134.972 1.508)">
          <rect id="Rectangle_152" data-name="Rectangle 152" width="96.415" height="5.487" transform="matrix(0.455, -0.891, 0.891, 0.455, 0, 85.876)" fill="#fff"/>
        </g>
        <g id="Group_319" data-name="Group 319" transform="translate(33.06 40.395)">
          <rect id="Rectangle_153" data-name="Rectangle 153" width="173.285" height="5.487" fill="#fff"/>
        </g>
        <g id="Group_322" data-name="Group 322" transform="translate(35.626 4.674)">
          <g id="Group_320" data-name="Group 320" transform="translate(8.292)" opacity="0.38">
            <path id="Path_805" data-name="Path 805" d="M297.273,375.567l-45.245,20.91,12.642-21.688Z" transform="translate(-252.028 -374.788)" fill="#fff"/>
          </g>
          <g id="Group_321" data-name="Group 321" transform="translate(0 9.717)" opacity="0.38">
            <path id="Path_806" data-name="Path 806" d="M296.049,380.528,250.24,401.311l-3.111,5.373h6.645l36.9-15.694Z" transform="translate(-247.13 -380.528)" fill="#fff"/>
          </g>
        </g>
        <g id="Group_325" data-name="Group 325" transform="translate(74.487 4.674)">
          <g id="Group_323" data-name="Group 323" transform="translate(8.292)" opacity="0.38">
            <path id="Path_807" data-name="Path 807" d="M325.433,375.567l-50.45,20.91,12.64-21.688Z" transform="translate(-274.983 -374.788)" fill="#fff"/>
          </g>
          <g id="Group_324" data-name="Group 324" transform="translate(0 6.93)" opacity="0.38">
            <path id="Path_808" data-name="Path 808" d="M325.12,378.882,273.2,402.452l-3.111,5.373h6.646l43.016-18.481Z" transform="translate(-270.085 -378.882)" fill="#fff"/>
          </g>
        </g>
        <g id="Group_328" data-name="Group 328" transform="translate(119.703 4.674)">
          <g id="Group_326" data-name="Group 326" transform="translate(8.291)" opacity="0.38">
            <path id="Path_809" data-name="Path 809" d="M352.142,375.567l-50.45,20.91,10.735-21.688Z" transform="translate(-301.692 -374.788)" fill="#fff"/>
          </g>
          <g id="Group_327" data-name="Group 327" transform="translate(0 6.93)" opacity="0.38">
            <path id="Path_810" data-name="Path 810" d="M351.829,378.882,299.9,402.452l-3.111,5.373h6.644l43.018-18.481Z" transform="translate(-296.794 -378.882)" fill="#fff"/>
          </g>
        </g>
        <g id="Group_331" data-name="Group 331" transform="translate(162.502 4.674)">
          <g id="Group_329" data-name="Group 329" transform="translate(8.293)" opacity="0.38">
            <path id="Path_811" data-name="Path 811" d="M377.424,375.567l-50.449,20.91,10.733-21.688Z" transform="translate(-326.975 -374.788)" fill="#fff"/>
          </g>
          <g id="Group_330" data-name="Group 330" transform="translate(0 6.93)" opacity="0.38">
            <path id="Path_812" data-name="Path 812" d="M377.111,378.882l-51.924,23.57-3.111,5.373h6.646l43.016-18.481Z" transform="translate(-322.076 -378.882)" fill="#fff"/>
          </g>
        </g>
        <g id="Group_334" data-name="Group 334" transform="translate(10.342 45.08)">
          <g id="Group_332" data-name="Group 332" transform="translate(9.818)" opacity="0.38">
            <path id="Path_813" data-name="Path 813" d="M283.238,399.433l-45.244,20.911,12.641-21.688Z" transform="translate(-237.994 -398.656)" fill="#fff"/>
          </g>
          <g id="Group_333" data-name="Group 333" transform="translate(0 7.543)" opacity="0.38">
            <path id="Path_814" data-name="Path 814" d="M288.011,403.112l-51.181,22.955-3.111,5.373-1.526,3.311,50.444-21.176Z" transform="translate(-232.194 -403.112)" fill="#fff"/>
          </g>
        </g>
        <g id="Group_337" data-name="Group 337" transform="translate(51.343 45.694)">
          <g id="Group_335" data-name="Group 335" transform="translate(8.292)" opacity="0.38">
            <path id="Path_815" data-name="Path 815" d="M313.8,399.019l-52.492,21.688,12.641-21.688Z" transform="translate(-261.312 -399.019)" fill="#fff"/>
          </g>
          <g id="Group_336" data-name="Group 336" transform="translate(0 4.999)" opacity="0.38">
            <path id="Path_816" data-name="Path 816" d="M316.131,401.972l-56.606,25.5-3.111,5.373h6.645l47.7-20.412Z" transform="translate(-256.414 -401.972)" fill="#fff"/>
          </g>
        </g>
        <g id="Group_340" data-name="Group 340" transform="translate(96.558 45.08)">
          <g id="Group_338" data-name="Group 338" transform="translate(8.293)" opacity="0.38">
            <path id="Path_817" data-name="Path 817" d="M339.9,398.656l-51.882,22.3,10.733-21.688Z" transform="translate(-288.021 -398.656)" fill="#fff"/>
          </g>
          <g id="Group_339" data-name="Group 339" transform="translate(0 6.226)" opacity="0.38">
            <path id="Path_818" data-name="Path 818" d="M340.844,402.334l-54.61,24.887-3.11,5.373,2.648,1.723,49.7-21.52Z" transform="translate(-283.123 -402.334)" fill="#fff"/>
          </g>
        </g>
        <g id="Group_343" data-name="Group 343" transform="translate(139.357 45.694)">
          <g id="Group_341" data-name="Group 341" transform="translate(8.292)" opacity="0.38">
            <path id="Path_819" data-name="Path 819" d="M366.007,399.019l-52.7,21.688,10.735-21.688Z" transform="translate(-313.303 -399.019)" fill="#fff"/>
          </g>
          <g id="Group_342" data-name="Group 342" transform="translate(0 5.021)" opacity="0.38">
            <path id="Path_820" data-name="Path 820" d="M365.35,401.984l-53.834,25.479-3.111,5.373h6.646l44.926-20.389Z" transform="translate(-308.405 -401.984)" fill="#fff"/>
          </g>
        </g>
      </g>
    </g>
    <g id="Group_350" data-name="Group 350" transform="translate(443.263 2739.274)" opacity="0.195">
      <g id="Group_349" data-name="Group 349" transform="translate(1100.866 104.689)">
        <g id="Group_348" data-name="Group 348">
          <g id="Group_346" data-name="Group 346" transform="translate(18.887)">
            <path id="Path_821" data-name="Path 821" d="M631.61,104.689a13.032,13.032,0,0,0-12.994,13v50.679a13,13,0,0,0,25.991,0V117.684A13.034,13.034,0,0,0,631.61,104.689Zm-.584,20.921a6.327,6.327,0,1,1,6.327-6.327A6.347,6.347,0,0,1,631.026,125.61Z" transform="translate(-618.616 -104.689)" fill="#77718c"/>
            <path id="Path_822" data-name="Path 822" d="M655.309,104.689h0a13.033,13.033,0,0,0-13,13v50.679a13.033,13.033,0,0,0,13,12.994h0A13.031,13.031,0,0,0,668.3,168.363V117.684A13.031,13.031,0,0,0,655.309,104.689Zm0,20.921a6.327,6.327,0,1,1,6.325-6.327A6.345,6.345,0,0,1,655.309,125.61Z" transform="translate(-603.978 -104.689)" fill="#77718c"/>
          </g>
          <g id="Group_347" data-name="Group 347" transform="translate(14.954)">
            <path id="Path_823" data-name="Path 823" d="M629.182,104.689a13.034,13.034,0,0,0-13,13v50.679a13,13,0,0,0,25.992,0V117.684A13.032,13.032,0,0,0,629.182,104.689Zm-.587,20.921a6.327,6.327,0,1,1,6.328-6.327A6.344,6.344,0,0,1,628.595,125.61Z" transform="translate(-616.185 -104.689)" fill="#8780a0"/>
            <path id="Path_824" data-name="Path 824" d="M652.877,104.689h0a13.031,13.031,0,0,0-12.994,13v50.679a13.031,13.031,0,0,0,12.994,12.994h0a13.031,13.031,0,0,0,12.994-12.994V117.684A13.031,13.031,0,0,0,652.877,104.689Zm0,20.921a6.327,6.327,0,1,1,6.327-6.327A6.346,6.346,0,0,1,652.877,125.61Z" transform="translate(-601.546 -104.689)" fill="#8780a0"/>
          </g>
          <path id="Path_825" data-name="Path 825" d="M687.248,161.362a36.893,36.893,0,1,1-73.785,0Z" transform="translate(-602.913 -69.68)" fill="#fff"/>
          <path id="Rectangle_154" data-name="Rectangle 154" d="M2.04,0H92.847a2.039,2.039,0,0,1,2.039,2.039V38.963A2.04,2.04,0,0,1,92.846,41H2.04A2.04,2.04,0,0,1,0,38.963V2.04A2.04,2.04,0,0,1,2.04,0Z" transform="translate(0 50.679)" fill="#2a1768"/>
        </g>
        <path id="Rectangle_155" data-name="Rectangle 155" d="M2.066,0H37.775a0,0,0,0,1,0,0V41a0,0,0,0,1,0,0H2.066A2.066,2.066,0,0,1,0,38.937V2.066A2.066,2.066,0,0,1,2.066,0Z" transform="translate(0 50.679)" fill="#170c4e"/>
        <path id="Path_826" data-name="Path 826" d="M636.6,161.362s.654,13.029,9.38,21.6c5.546,5.449,14.357,9.095,28.338,6.443,0,0-24.334,21.592-50.372-2.286a35.957,35.957,0,0,1-10.488-25.758Z" transform="translate(-602.913 -69.68)" fill="#c6d5f2"/>
      </g>
      <path id="Path_827" data-name="Path 827" d="M1148.31,178.434V509.976c0,15.737-19.544,28.495-43.647,28.495H289.753" transform="translate(0 45.555)" fill="none" stroke="#c6d5f2" stroke-miterlimit="10" stroke-width="3"/>
    </g>
    <g id="Group_2623" data-name="Group 2623">
      <rect id="Rectangle_258" data-name="Rectangle 258" width="113" height="62" transform="translate(898 3255)" fill="rgba(252,195,28,0.16)"/>
      <rect id="Rectangle_259" data-name="Rectangle 259" width="113" height="62" transform="translate(1016 3255)" fill="#e8ffec" opacity="0.646"/>
      <rect id="Rectangle_260" data-name="Rectangle 260" width="113" height="61" transform="translate(1134 3256)" fill="rgba(219,249,255,0.55)"/>
      <rect id="Rectangle_257" data-name="Rectangle 257" width="113" height="62" transform="translate(1461 3013)" fill="#e8ffec" opacity="0.646"/>
      <rect id="Rectangle_256" data-name="Rectangle 256" width="113" height="61" transform="translate(1461 3124)" fill="rgba(219,249,255,0.55)"/>
      <rect id="Rectangle_255" data-name="Rectangle 255" width="113" height="62" transform="translate(1461 2897)" fill="rgba(219,249,255,0.55)"/>
      <rect id="Rectangle_253" data-name="Rectangle 253" width="113" height="61" transform="translate(1294 3014)" fill="rgba(219,249,255,0.55)"/>
      <rect id="Rectangle_254" data-name="Rectangle 254" width="113" height="61" transform="translate(1294 2897)" fill="rgba(219,249,255,0.55)"/>
      <rect id="Rectangle_252" data-name="Rectangle 252" width="113" height="62" transform="translate(1139 3013)" fill="#e8ffec" opacity="0.646"/>
      <rect id="Rectangle_251" data-name="Rectangle 251" width="113" height="61" transform="translate(1139 2897)" fill="rgba(219,249,255,0.55)"/>
      <rect id="Rectangle_250" data-name="Rectangle 250" width="113" height="61" transform="translate(983 3014)" fill="rgba(219,249,255,0.55)"/>
      <rect id="Rectangle_249" data-name="Rectangle 249" width="113" height="61" transform="translate(983 2897)" fill="rgba(219,249,255,0.55)"/>
      <rect id="Rectangle_248" data-name="Rectangle 248" width="113" height="62" transform="translate(825 3013)" fill="rgba(252,195,28,0.16)"/>
      <rect id="Rectangle_247" data-name="Rectangle 247" width="113" height="61" transform="translate(825 2897)" fill="rgba(219,249,255,0.55)"/>
      <rect id="Rectangle_246" data-name="Rectangle 246" width="113" height="61" transform="translate(668 3128)" fill="rgba(219,249,255,0.55)"/>
      <rect id="Rectangle_245" data-name="Rectangle 245" width="113" height="62" transform="translate(668 3011)" fill="#e8ffec" opacity="0.646"/>
      <rect id="Rectangle_244" data-name="Rectangle 244" width="113" height="62" transform="translate(668 2898)" fill="rgba(252,195,28,0.16)"/>
      <text id="Door-to-door_group_Discussion_leaflets_Word-of-mouth" data-name="Door-to-door,
group Discussion,
leaflets
Word-of-mouth" transform="translate(570 2912)" fill="#21232a" font-size="14" font-family="HelveticaNeue, Helvetica Neue"><tspan x="-42.399" y="0">Door-to-door,</tspan><tspan x="-56.273" y="15">group Discussion,</tspan><tspan x="-22.162" y="30">leaflets</tspan><tspan x="-47.971" y="45">Word-of-mouth</tspan></text>
      <rect id="Rectangle_243" data-name="Rectangle 243" width="113" height="62" transform="translate(513.192 2898)" fill="rgba(252,195,28,0.16)"/>
      <rect id="Rectangle_241" data-name="Rectangle 241" width="113" height="62" transform="translate(358 2898)" fill="rgba(252,195,28,0.16)"/>
      <text id="Survey_potential_Customers_within_30m_of_Distribution_poles" data-name="Survey potential
Customers within
30m of
Distribution poles" transform="translate(415 2910)" fill="#21232a" font-size="14" font-family="HelveticaNeue, Helvetica Neue"><tspan x="-50.561" y="0">Survey potential</tspan><tspan x="-54.579" y="15">Customers within</tspan><tspan x="-21.791" y="30">30m of</tspan><tspan x="-54.712" y="45">Distribution poles</tspan></text>
      <rect id="Rectangle_220" data-name="Rectangle 220" width="113" height="61" transform="translate(358 3128)" fill="rgba(219,249,255,0.55)"/>
      <text id="Data_entry_templates_on_the_field_force_app" data-name="Data entry
templates on the
field force app" transform="translate(415 3149)" fill="#21232a" font-size="14" font-family="HelveticaNeue, Helvetica Neue"><tspan x="-32.284" y="0">Data entry</tspan><tspan x="-52.521" y="15">templates on the</tspan><tspan x="-44.856" y="30">field force app</tspan></text>
      <rect id="Rectangle_242" data-name="Rectangle 242" width="113" height="62" transform="translate(1294 3124)" fill="rgba(252,195,28,0.16)"/>
      <text id="Catchment_Survey" data-name="Catchment
Survey" transform="translate(415 2746)" fill="#707070" font-size="20" font-family="HelveticaNeue-Bold, Helvetica Neue" font-weight="700"><tspan x="-52.59" y="0">Catchment</tspan><tspan x="-32.44" y="25">Survey</tspan></text>
      <text id="Marketing" transform="translate(568 2746)" fill="#707070" font-size="20" font-family="HelveticaNeue-Bold, Helvetica Neue" font-weight="700"><tspan x="-48.32" y="0">Marketing</tspan></text>
      <text id="Customer_Acquisition" data-name="Customer
Acquisition" transform="translate(725 2746)" fill="#707070" font-size="20" font-family="HelveticaNeue-Bold, Helvetica Neue" font-weight="700"><tspan x="-47.03" y="0">Customer</tspan><tspan x="-53.3" y="25">Acquisition</tspan></text>
      <text id="Customer_KYC" data-name="Customer
KYC" transform="translate(881 2746)" fill="#707070" font-size="20" font-family="HelveticaNeue-Bold, Helvetica Neue" font-weight="700"><tspan x="-47.03" y="0">Customer</tspan><tspan x="-21.3" y="25">KYC</tspan></text>
      <text id="Package_Assignment" data-name="Package
Assignment" transform="translate(1040 2746)" fill="#707070" font-size="20" font-family="HelveticaNeue-Bold, Helvetica Neue" font-weight="700"><tspan x="-41.48" y="0">Package</tspan><tspan x="-56.46" y="25">Assignment</tspan></text>
      <text id="Customer_Account_Creation" data-name="Customer
Account
Creation" transform="translate(1195 2746)" fill="#707070" font-size="20" font-family="HelveticaNeue-Bold, Helvetica Neue" font-weight="700"><tspan x="-47.03" y="0">Customer</tspan><tspan x="-39.82" y="25">Account</tspan><tspan x="-40.74" y="50">Creation</tspan></text>
      <text id="Meter_Installation" data-name="Meter
Installation" transform="translate(1351 2746)" fill="#707070" font-size="20" font-family="HelveticaNeue-Bold, Helvetica Neue" font-weight="700"><tspan x="-27.96" y="0">Meter</tspan><tspan x="-52.55" y="25">Installation</tspan></text>
      <text id="Customer_Activation" data-name="Customer
Activation" transform="translate(1517 2746)" fill="#707070" font-size="20" font-family="HelveticaNeue-Bold, Helvetica Neue" font-weight="700"><tspan x="-47.03" y="0">Customer</tspan><tspan x="-47.77" y="25">Activation</tspan></text>
      <line id="Line_27" data-name="Line 27" y2="501.979" transform="translate(490 2712.5)" fill="none" stroke="rgba(112,112,112,0.53)" stroke-width="1" opacity="0.297"/>
      <line id="Line_38" data-name="Line 38" y2="501.979" transform="translate(647 2712.5)" fill="none" stroke="rgba(112,112,112,0.53)" stroke-width="1" opacity="0.297"/>
      <line id="Line_39" data-name="Line 39" y2="501.979" transform="translate(803 2712.5)" fill="none" stroke="rgba(112,112,112,0.53)" stroke-width="1" opacity="0.297"/>
      <line id="Line_40" data-name="Line 40" y2="501.979" transform="translate(960 2712.5)" fill="none" stroke="rgba(112,112,112,0.53)" stroke-width="1" opacity="0.297"/>
      <line id="Line_41" data-name="Line 41" y2="501.979" transform="translate(1117 2712.5)" fill="none" stroke="rgba(112,112,112,0.53)" stroke-width="1" opacity="0.297"/>
      <line id="Line_42" data-name="Line 42" y2="501.979" transform="translate(1273 2712.5)" fill="none" stroke="rgba(112,112,112,0.53)" stroke-width="1" opacity="0.297"/>
      <line id="Line_43" data-name="Line 43" y2="501.979" transform="translate(1430 2712.5)" fill="none" stroke="rgba(112,112,112,0.53)" stroke-width="1" opacity="0.297"/>
      <line id="Line_35" data-name="Line 35" x1="1290.5" transform="translate(314.5 2869.5)" fill="none" stroke="rgba(112,112,112,0.53)" stroke-width="1" opacity="0.281"/>
      <g id="mentor" transform="translate(704 2811)">
        <path id="Path_879" data-name="Path 879" d="M51.725,39.271a4.541,4.541,0,1,0-5.177,0A7.144,7.144,0,0,0,42,45.921v4.541a.651.651,0,0,0,.649.649H55.624a.651.651,0,0,0,.649-.649V45.921a7.144,7.144,0,0,0-4.548-6.65Zm-3.964-.791a2.587,2.587,0,0,0,1.375-2.29h-1.3a1.3,1.3,0,0,1-1.3,1.3,3.206,3.206,0,0,1-.649-1.946,3.241,3.241,0,1,1,1.868,2.939Zm7.214,11.333H43.3V45.921a5.839,5.839,0,0,1,11.677,0Z" transform="translate(-14.753 -10.187)" fill="#707070"/>
        <path id="Path_880" data-name="Path 880" d="M21.4,39.271a4.541,4.541,0,1,0-6.942-5.028H12.326v1.3h1.946a4.54,4.54,0,0,0,1.953,3.73,7.159,7.159,0,0,0-3.257,2.556,7.1,7.1,0,0,0-3.25-2.55,4.543,4.543,0,1,0-5.17-.006,7.009,7.009,0,0,0-2.459,1.6A7.085,7.085,0,0,0,0,45.921v4.541a.651.651,0,0,0,.649.649H25.3a.651.651,0,0,0,.649-.649V45.921a7.144,7.144,0,0,0-4.548-6.65ZM3.892,35.541a3.244,3.244,0,1,1,6.487,0,3.206,3.206,0,0,1-.649,1.946,1.3,1.3,0,0,1-1.3-1.3h-1.3a2.587,2.587,0,0,0,1.375,2.29,3.246,3.246,0,0,1-4.619-2.939Zm7.785,10.38v3.892H1.3V45.921a5.835,5.835,0,0,1,10.951-2.809A7.218,7.218,0,0,0,11.677,45.921ZM18.813,32.3a3.262,3.262,0,0,1,2.978,1.946H15.836A3.262,3.262,0,0,1,18.813,32.3Zm-2.595,5.19a3.206,3.206,0,0,1-.649-1.946h6.487a3.246,3.246,0,0,1-4.619,2.939,2.587,2.587,0,0,0,1.375-2.29h-1.3a1.3,1.3,0,0,1-1.3,1.3Zm8.434,12.326H12.975V45.921a5.839,5.839,0,0,1,11.677,0Z" transform="translate(0 -10.187)" fill="#707070"/>
        <path id="Path_881" data-name="Path 881" d="M52,47h1.3v1.3H52Z" transform="translate(-18.266 -15.807)" fill="#707070"/>
        <path id="Path_882" data-name="Path 882" d="M52,51h1.3v1.3H52Z" transform="translate(-18.266 -17.212)" fill="#707070"/>
        <path id="Path_883" data-name="Path 883" d="M11.595,47v1.3h-.649V52.19h-1.3V48.3H9V47Z" transform="translate(-3.161 -15.807)" fill="#707070"/>
        <path id="Path_884" data-name="Path 884" d="M29.892,10.541h-1.3v-1.3a.649.649,0,0,1,.491-.629l2.1-.526V7.3H27.3v.649H26v-1.3A.649.649,0,0,1,26.649,6h5.19a.649.649,0,0,1,.649.649V8.595A.649.649,0,0,1,32,9.224l-2.1.526Z" transform="translate(-9.133 -1.405)" fill="#707070"/>
        <path id="Path_885" data-name="Path 885" d="M30,15h1.3v1.3H30Z" transform="translate(-10.538 -4.566)" fill="#707070"/>
        <path id="Path_886" data-name="Path 886" d="M26.541,18.218a.641.641,0,0,1-.248-.049.649.649,0,0,1-.4-.6V14.326H22.649A.649.649,0,0,1,22,13.677V2.649A.649.649,0,0,1,22.649,2h10.38a.649.649,0,0,1,.649.649V13.677a.649.649,0,0,1-.649.649H30.7l-3.7,3.7A.649.649,0,0,1,26.541,18.218ZM23.3,13.029h3.244a.649.649,0,0,1,.649.649V16l2.785-2.785a.647.647,0,0,1,.459-.19H32.38V3.3H23.3Z" transform="translate(-7.728)" fill="#707070"/>
        <path id="Path_887" data-name="Path 887" d="M49.839,18.867a.648.648,0,0,1-.563-.327l-2.408-4.214H44.649A.649.649,0,0,1,44,13.677V2.649A.649.649,0,0,1,44.649,2h10.38a.649.649,0,0,1,.649.649V13.677a.649.649,0,0,1-.649.649H52.81L50.4,18.54a.648.648,0,0,1-.563.327ZM45.3,13.029h1.946a.648.648,0,0,1,.563.327l2.032,3.555,2.032-3.555a.648.648,0,0,1,.563-.327H54.38V3.3H45.3Z" transform="translate(-15.455)" fill="#707070"/>
        <path id="Path_888" data-name="Path 888" d="M7.839,18.218a.649.649,0,0,1-.5-.233l-3.049-3.66H2.649A.649.649,0,0,1,2,13.677V2.649A.649.649,0,0,1,2.649,2h10.38a.649.649,0,0,1,.649.649V13.677a.649.649,0,0,1-.649.649H8.487V17.57a.65.65,0,0,1-.649.649ZM3.3,13.029h1.3a.65.65,0,0,1,.5.233l2.1,2.516v-2.1a.649.649,0,0,1,.649-.649H12.38V3.3H3.3Z" transform="translate(-0.703)" fill="#707070"/>
        <path id="Path_889" data-name="Path 889" d="M7.7,13.293a.647.647,0,0,1-.459-.19L5.293,11.157l.917-.917L7.7,11.727l3.434-3.434.917.917L8.157,13.1a.647.647,0,0,1-.459.19Z" transform="translate(-1.859 -2.21)" fill="#707070"/>
        <path id="Path_890" data-name="Path 890" d="M49,8h1.3V9.3H49Z" transform="translate(-17.212 -2.108)" fill="#707070"/>
        <path id="Path_891" data-name="Path 891" d="M55,8h1.3V9.3H55Z" transform="translate(-19.319 -2.108)" fill="#707070"/>
        <path id="Path_892" data-name="Path 892" d="M51.595,14.595A2.6,2.6,0,0,1,49,12h1.3a1.3,1.3,0,1,0,2.595,0h1.3A2.6,2.6,0,0,1,51.595,14.595Z" transform="translate(-17.212 -3.513)" fill="#707070"/>
      </g>
      <path id="marketing-2" data-name="marketing" d="M34.927,22.792a4.467,4.467,0,0,0-4.409-7.637l-2.789-4.831a3.013,3.013,0,0,0-5.159-.1A44.328,44.328,0,0,1,9.142,23.805a.72.72,0,0,0-.241.948c.029.054,4.65,8.056,4.68,8.109a.72.72,0,0,0,1.247-.72l-4.333-7.5A45.745,45.745,0,0,0,23.788,10.991a1.573,1.573,0,0,1,2.694.053l9.988,17.3a1.574,1.574,0,0,1-1.3,2.36A45.77,45.77,0,0,0,16.093,35.7c-.025.013-6.761,3.9-7.225,4.17a2.524,2.524,0,0,1-3.444-.923L1.777,32.63A2.524,2.524,0,0,1,2.7,29.186l4.389-2.534a.72.72,0,1,0-.72-1.247L1.98,27.939A3.966,3.966,0,0,0,.53,33.35l3.646,6.316a3.966,3.966,0,0,0,5.411,1.45l.166-.1,4.5,7.8a2.339,2.339,0,0,0,3.2.857l1.579-.912a2.339,2.339,0,0,0,.857-3.2L16.7,40.039a.72.72,0,1,0-1.247.72l3.191,5.526a.9.9,0,0,1-.33,1.23l-1.579.912a.9.9,0,0,1-1.23-.33L11,40.3l5.764-3.328a44.327,44.327,0,0,1,18.461-4.83,3.013,3.013,0,0,0,2.492-4.518Zm-.206-4.972a3.033,3.033,0,0,1-.528,3.7l-2.941-5.094A3.027,3.027,0,0,1,34.722,17.82Zm7.041-3.2L39.9,15.7a.72.72,0,1,1-.72-1.247l1.863-1.075a.72.72,0,1,1,.72,1.247Zm-8.01-4.1.454-1.695a.72.72,0,1,1,1.391.373l-.454,1.695a.72.72,0,1,1-1.391-.373Zm9.415,11.79a.72.72,0,0,1-.695.534,11.812,11.812,0,0,1-1.882-.479.72.72,0,1,1,.373-1.391l1.7.454a.72.72,0,0,1,.509.882Z" transform="translate(547 2804.712)" fill="#707070"/>
      <g id="report" transform="translate(862 2816)">
        <path id="Path_907" data-name="Path 907" d="M37.289,18.961H31.6V5.427L26.175,0H0V39.186H31.6V35.393h5.688a1.9,1.9,0,0,0,1.9-1.9V20.857A1.9,1.9,0,0,0,37.289,18.961ZM27.809,6.32v3.792H16.433V3.792h8.848V6.32ZM26.545,5.056v-2.9l2.9,2.9Zm3.792,32.865H1.264V1.264H25.281V2.528H15.169v8.848h13.9V6.32h1.264v12.64H17.065a1.9,1.9,0,0,0-1.9,1.9V33.5a1.9,1.9,0,0,0,1.9,1.9H30.337ZM37.921,33.5a.633.633,0,0,1-.632.632H17.065a.633.633,0,0,1-.632-.632V20.857a.633.633,0,0,1,.632-.632H37.289a.633.633,0,0,1,.632.632Zm0,0" fill="#707070"/>
        <path id="Path_908" data-name="Path 908" d="M235.376,273.264A1.265,1.265,0,0,0,234.112,272h-8.848A1.265,1.265,0,0,0,224,273.264v3.792a1.265,1.265,0,0,0,1.264,1.264h8.848a1.265,1.265,0,0,0,1.264-1.264Zm-1.264,3.792h-8.848v-3.792h8.849Zm0,0" transform="translate(-206.303 -250.511)" fill="#707070"/>
        <path id="Path_909" data-name="Path 909" d="M384,272h6.32v1.264H384Zm0,0" transform="translate(-353.663 -250.511)" fill="#707070"/>
        <path id="Path_910" data-name="Path 910" d="M384,304h6.32v1.264H384Zm0,0" transform="translate(-353.663 -279.983)" fill="#707070"/>
        <path id="Path_911" data-name="Path 911" d="M224,368h2.528v1.264H224Zm0,0" transform="translate(-206.303 -338.927)" fill="#707070"/>
        <path id="Path_912" data-name="Path 912" d="M272,368h2.528v1.264H272Zm0,0" transform="translate(-250.511 -338.927)" fill="#707070"/>
        <path id="Path_913" data-name="Path 913" d="M320,368h2.528v1.264H320Zm0,0" transform="translate(-294.719 -338.927)" fill="#707070"/>
        <path id="Path_914" data-name="Path 914" d="M224,400h10.112v1.264H224Zm0,0" transform="translate(-206.303 -368.399)" fill="#707070"/>
        <path id="Path_915" data-name="Path 915" d="M373.056,352a2.456,2.456,0,0,0-.441.045c-.045.008-.088.017-.132.027a2.61,2.61,0,0,0-.334.1c-.067.026-.131.057-.2.089s-.109.051-.162.081a2.5,2.5,0,0,0-1.264-.345,2.528,2.528,0,0,0,0,5.056,2.5,2.5,0,0,0,1.264-.344c.052.03.107.054.162.081s.128.063.2.089a2.562,2.562,0,0,0,.334.1l.132.027a2.526,2.526,0,1,0,.441-5.012Zm-3.792,2.528a1.265,1.265,0,0,1,1.264-1.264,1.21,1.21,0,0,1,.325.05,2.43,2.43,0,0,0,0,2.428,1.209,1.209,0,0,1-.325.05A1.265,1.265,0,0,1,369.264,354.528Zm3.792,1.264a1.2,1.2,0,0,1-.421-.078l-.029-.009a1.29,1.29,0,0,1-.391-.243l-.074-.066a1.252,1.252,0,0,1,0-1.738l.071-.064a1.29,1.29,0,0,1,.391-.243l.03-.01a1.262,1.262,0,1,1,.42,2.45Zm0,0" transform="translate(-338.927 -324.191)" fill="#707070"/>
        <path id="Path_916" data-name="Path 916" d="M42.893,314.832l-2.484,2.936H32v8.848H42.112v-8.848h-.047l1.794-2.12Zm-2.045,10.521H33.264v-6.32H39.34l-2.954,3.491-1.41-1.41-.894.894,2.382,2.382,4.385-5.183v6.146Zm0,0" transform="translate(-29.472 -289.959)" fill="#707070"/>
        <path id="Path_917" data-name="Path 917" d="M45.9,45.283a3.173,3.173,0,0,0-2.292-3.039l-2.132-.609v-.322a4.419,4.419,0,0,0,1.9-3.625V36.424a4.424,4.424,0,0,0-8.848,0v1.264a4.419,4.419,0,0,0,1.9,3.625v.322l-2.132.609A3.172,3.172,0,0,0,32,45.283v1.885H45.9Zm-10.112-7.6V36.424a3.16,3.16,0,0,1,6.32,0v1.264a3.16,3.16,0,1,1-6.32,0Zm4.322,4.264-1.162,1.162L37.79,41.953a4.3,4.3,0,0,0,2.324,0ZM44.64,45.9H33.264v-.621a1.9,1.9,0,0,1,1.375-1.824l2.233-.638,2.08,2.08,2.08-2.08,2.233.638a1.906,1.906,0,0,1,1.375,1.824Zm0,0" transform="translate(-29.472 -29.472)" fill="#707070"/>
        <path id="Path_918" data-name="Path 918" d="M32,240H43.376v1.264H32Zm0,0" transform="translate(-29.472 -221.039)" fill="#707070"/>
        <path id="Path_919" data-name="Path 919" d="M32,272H43.376v1.264H32Zm0,0" transform="translate(-29.472 -250.511)" fill="#707070"/>
        <path id="Path_920" data-name="Path 920" d="M32,304h7.584v1.264H32Zm0,0" transform="translate(-29.472 -279.983)" fill="#707070"/>
        <path id="Path_921" data-name="Path 921" d="M224,208h11.376v1.264H224Zm0,0" transform="translate(-206.303 -191.567)" fill="#707070"/>
        <path id="Path_922" data-name="Path 922" d="M224,176h11.376v1.264H224Zm0,0" transform="translate(-206.303 -162.095)" fill="#707070"/>
      </g>
      <g id="Delivery" transform="translate(1026.278 2814.956)">
        <path id="Path_872" data-name="Path 872" d="M39.092,3.907H5.719L4.041,2.229a.631.631,0,1,0-.892.891l13.1,13.1L6.441,26.026,2.8,22.384a.63.63,0,1,0-.891.891l2.512,2.512V36.058a.63.63,0,0,0,.63.63H16.212l2.265,2.265a1.85,1.85,0,0,0,1.3.55h.049a1.856,1.856,0,0,0,1.324-.55,1.877,1.877,0,0,0,.4-.586,1.9,1.9,0,0,0,2.675-.89,1.841,1.841,0,0,0,.93.244,1.954,1.954,0,0,0,1.347-.55,1.891,1.891,0,0,0,.372-.528,1.9,1.9,0,0,0,2.387.045h9.828a.63.63,0,0,0,.63-.63V4.538A.63.63,0,0,0,39.092,3.907Zm-14.5,1.261v6.3H19.549v-6.3ZM5.68,35.428v-8.38l.315.315a.63.63,0,0,0,.891,0l.891-.891.166.166a3.163,3.163,0,0,1,.82,1.432l.111.428a4.419,4.419,0,0,0,1.15,2.005l4.927,4.925Zm22.409.4a.652.652,0,0,1-.436-.18L26.5,34.5h0a.631.631,0,1,0-.892.891.63.63,0,0,1,0,.891.605.605,0,0,1-.455.181.642.642,0,0,1-.437-.18l-.891-.891a.63.63,0,0,0-.891.891h0a.63.63,0,0,1,0,.89.659.659,0,0,1-.454.181.542.542,0,0,1-.438-.181l-.891-.89a.631.631,0,0,0-.892.891.63.63,0,0,1,0,.891.582.582,0,0,1-.454.181.622.622,0,0,1-.438-.181L10.92,29.611a3.152,3.152,0,0,1-.82-1.432l-.112-.428a4.421,4.421,0,0,0-1.149-2l-.166-.166,6.682-6.687.635.635a1.887,1.887,0,0,0,.913.5l3.152.724a9.474,9.474,0,0,1,5.435,3.53l3.221,4.278-.059.059a1.249,1.249,0,0,1-.891.369h0a1.255,1.255,0,0,1-.891-.37L25.3,27.047a1.536,1.536,0,0,0-1.1-.455h0A1.586,1.586,0,0,0,23.087,29.3L28.5,34.708a.683.683,0,0,1,.09.9h0a.664.664,0,0,1-.5.222Zm10.372-.4h-8.5a2,2,0,0,0-.576-1.613L23.975,28.4a.321.321,0,0,1-.093-.226.342.342,0,0,1,.11-.243.289.289,0,0,1,.409,0l1.576,1.576a2.508,2.508,0,0,0,1.783.739h0a2.5,2.5,0,0,0,1.782-.739l.446-.446a.63.63,0,0,0,.058-.825l-3.551-4.715a10.733,10.733,0,0,0-6.159-4L17.183,18.8a.634.634,0,0,1-.306-.17L16.242,18l1.338-1.338a.63.63,0,0,0,0-.891L6.98,5.168H18.288V12.1a.63.63,0,0,0,.63.63h6.3a.63.63,0,0,0,.63-.63V5.168H38.461Z" fill="#707070"/>
        <path id="Path_873" data-name="Path 873" d="M47.63,46.261h3.152a.63.63,0,1,0,0-1.261H47.63a.63.63,0,0,0,0,1.261Z" transform="translate(-16.734 -15.876)" fill="#707070"/>
        <path id="Path_874" data-name="Path 874" d="M55.63,46.261h.63a.63.63,0,1,0,0-1.261h-.63a.63.63,0,0,0,0,1.261Z" transform="translate(-19.691 -15.876)" fill="#707070"/>
        <path id="Path_875" data-name="Path 875" d="M47.63,42.261h3.152a.63.63,0,1,0,0-1.261H47.63a.63.63,0,0,0,0,1.261Z" transform="translate(-16.734 -14.398)" fill="#707070"/>
        <path id="Path_876" data-name="Path 876" d="M55.63,42.261h.63a.63.63,0,1,0,0-1.261h-.63a.63.63,0,0,0,0,1.261Z" transform="translate(-19.691 -14.398)" fill="#707070"/>
        <path id="Path_877" data-name="Path 877" d="M50.043,49H45.63a.63.63,0,0,0,0,1.261h4.413a.63.63,0,0,0,0-1.261Z" transform="translate(-15.995 -17.354)" fill="#707070"/>
        <path id="Path_878" data-name="Path 878" d="M55.63,50.261h.63a.63.63,0,1,0,0-1.261h-.63a.63.63,0,0,0,0,1.261Z" transform="translate(-19.691 -17.354)" fill="#707070"/>
      </g>
      <g id="profile" transform="translate(1177 2790.519)">
        <path id="Path_900" data-name="Path 900" d="M33.739,28.481H2.606A2.611,2.611,0,0,0,0,31.092v27.53a2.159,2.159,0,0,0,2.152,2.161H34.193a2.159,2.159,0,0,0,2.152-2.161V31.092a2.611,2.611,0,0,0-2.606-2.611ZM1.42,31.092A1.19,1.19,0,0,1,2.606,29.9H33.739a1.19,1.19,0,0,1,1.186,1.191v4.219H1.42Zm33.505,27.53a.737.737,0,0,1-.732.741H2.152a.737.737,0,0,1-.732-.741V36.731H34.925Z" transform="translate(0 0)" fill="#707070"/>
        <path id="Path_901" data-name="Path 901" d="M307.2,76.589h-.954a.71.71,0,1,0,0,1.42h.954a.71.71,0,0,0,0-1.42Z" transform="translate(-283.85 -44.693)" fill="#707070"/>
        <path id="Path_902" data-name="Path 902" d="M369.334,76.589h-.954a.71.71,0,1,0,0,1.42h.954a.71.71,0,1,0,0-1.42Z" transform="translate(-341.571 -44.693)" fill="#707070"/>
        <path id="Path_903" data-name="Path 903" d="M431.466,76.589h-.954a.71.71,0,0,0,0,1.42h.954a.71.71,0,1,0,0-1.42Z" transform="translate(-399.293 -44.693)" fill="#707070"/>
        <path id="Path_904" data-name="Path 904" d="M68.859,76.589H61.977a.71.71,0,1,0,0,1.42h6.882a.71.71,0,0,0,0-1.42Z" transform="translate(-56.918 -44.693)" fill="#707070"/>
        <path id="Path_905" data-name="Path 905" d="M127.436,186.285a9.824,9.824,0,1,0-9.824-9.824A9.835,9.835,0,0,0,127.436,186.285Zm0-18.228a8.4,8.4,0,1,1-8.4,8.4A8.413,8.413,0,0,1,127.436,168.058Z" transform="translate(-109.263 -128.35)" fill="#707070"/>
        <path id="Path_906" data-name="Path 906" d="M193.113,232.145h7.609a.71.71,0,0,0,.71-.71V229a3.2,3.2,0,0,0-1.676-2.8,3.657,3.657,0,1,0-5.678,0A3.2,3.2,0,0,0,192.4,229v2.433A.71.71,0,0,0,193.113,232.145Zm3.8-10.488a2.238,2.238,0,1,1-2.237,2.238A2.24,2.24,0,0,1,196.918,221.658ZM193.823,229a1.773,1.773,0,0,1,1.618-1.762,3.656,3.656,0,0,0,2.954,0A1.775,1.775,0,0,1,200.012,229v1.723h-6.189V229Z" transform="translate(-178.745 -178.145)" fill="#707070"/>
      </g>
      <g id="meter" transform="translate(1331.999 2817)">
        <path id="Path_893" data-name="Path 893" d="M32.436,5.565a19,19,0,0,0-26.87,26.87,19,19,0,0,0,26.87-26.87Zm-1.05,25.821A17.51,17.51,0,0,1,2.4,24.574H15.667a.742.742,0,1,0,0-1.484H1.974a17.512,17.512,0,1,1,34.053,0H22.332a.742.742,0,1,0,0,1.484H35.6A17.408,17.408,0,0,1,31.386,31.385Z" transform="translate(0 0)" fill="#707070"/>
        <path id="Path_894" data-name="Path 894" d="M67.85,53.416a.742.742,0,0,0,1.484,0V50.082a13.455,13.455,0,0,1,3.746.745l-.491,1.187a.742.742,0,1,0,1.372.568l.491-1.186a13.587,13.587,0,0,1,3.079,2.045l-2.349,2.347a.742.742,0,0,0,1.049,1.05l2.359-2.357A13.6,13.6,0,0,1,80.8,57.743l-1.186.491a.742.742,0,1,0,.568,1.372l1.187-.491a13.453,13.453,0,0,1,.745,3.746H78.779a.742.742,0,1,0,0,1.484h4.1a.528.528,0,0,0,.055,0,.742.742,0,0,0,.687-.739,15.024,15.024,0,1,0-30.048,0,.742.742,0,0,0,.742.742h4.1a.742.742,0,0,0,0-1.484H55.074a13.453,13.453,0,0,1,.745-3.747l1.187.491a.742.742,0,0,0,.568-1.372l-1.186-.491A13.591,13.591,0,0,1,58.6,54.48l2.357,2.357A.742.742,0,0,0,62,55.788L59.655,53.44A13.585,13.585,0,0,1,62.733,51.4l.492,1.187a.742.742,0,0,0,1.371-.569L64.1,50.827a13.45,13.45,0,0,1,3.746-.745v3.333Z" transform="translate(-49.592 -44.972)" fill="#707070"/>
        <path id="Path_895" data-name="Path 895" d="M222.131,166.823l-.006-.015-1.9-4.45a.742.742,0,0,0-.683-.451h0a.742.742,0,0,0-.682.451l-1.9,4.45-.008.019a3.421,3.421,0,0,0-.332,1.341,2.923,2.923,0,1,0,5.846,0A3.434,3.434,0,0,0,222.131,166.823Zm-2.59,2.785a1.44,1.44,0,0,1-1.437-1.439,2.153,2.153,0,0,1,.223-.785l1.214-2.845,1.216,2.845a2.153,2.153,0,0,1,.223.784A1.441,1.441,0,0,1,219.541,169.608Z" transform="translate(-200.541 -149.891)" fill="#707070"/>
        <path id="Path_896" data-name="Path 896" d="M232.516,353.8h-1.287l1.011-2.033a.742.742,0,1,0-1.329-.661l-1.544,3.105a.75.75,0,0,0,.667,1.073h1.285l-1.011,2.033a.742.742,0,1,0,1.329.661l1.544-3.105a.745.745,0,0,0-.665-1.073Z" transform="translate(-212.273 -324.668)" fill="#707070"/>
        <path id="Path_897" data-name="Path 897" d="M153.21,385.451h-2.634a.742.742,0,0,0,0,1.484h2.634a.742.742,0,1,0,0-1.484Z" transform="translate(-138.713 -356.843)" fill="#707070"/>
        <path id="Path_898" data-name="Path 898" d="M310.024,385.451H307.39a.742.742,0,0,0,0,1.484h2.634a.742.742,0,0,0,0-1.484Z" transform="translate(-283.888 -356.843)" fill="#707070"/>
        <path id="Path_899" data-name="Path 899" d="M246.732,312.582a.742.742,0,1,0-.746-.742.74.74,0,0,0,.746.742Z" transform="translate(-227.728 -288.009)" fill="#707070"/>
      </g>
      <g id="Group_352" data-name="Group 352" transform="translate(3.328 60)">
        <g id="Outline" transform="translate(1491.672 2755)">
          <path id="Path_927" data-name="Path 927" d="M40.672,146.077h2.687v12.764H44.7V146.077H71.574v12.764h1.344V146.077H75.6a.672.672,0,0,0,.642-.869l-2.687-8.733a.672.672,0,0,0-.642-.474H70.9v1.344h1.519l2.274,7.39H41.581l2.274-7.39h1.519V136H43.359a.672.672,0,0,0-.642.474l-2.687,8.733a.672.672,0,0,0,.642.869Z" transform="translate(-38.656 -125.923)" fill="#707070"/>
          <rect id="Rectangle_216" data-name="Rectangle 216" width="1.204" height="1.505" transform="translate(18.156 29.494)" fill="#707070"/>
          <path id="Path_928" data-name="Path 928" d="M120,304.672v6.718a.672.672,0,0,0,.672.672H124.7a.672.672,0,0,0,.672-.672v-6.718A.672.672,0,0,0,124.7,304h-4.031A.672.672,0,0,0,120,304.672Zm1.344,6.046v-1.344h2.687v1.344Zm2.687-5.374v2.687h-2.687v-2.687Z" transform="translate(-111.938 -279.816)" fill="#707070"/>
          <path id="Path_929" data-name="Path 929" d="M328,304.672v6.718a.672.672,0,0,0,.672.672H332.7a.672.672,0,0,0,.672-.672v-6.718A.672.672,0,0,0,332.7,304h-4.031A.672.672,0,0,0,328,304.672Zm1.344,6.046v-1.344h2.687v1.344Zm2.687-5.374v2.687h-2.687v-2.687Z" transform="translate(-302.471 -279.816)" fill="#707070"/>
          <rect id="Rectangle_217" data-name="Rectangle 217" width="1.505" height="1.505" transform="translate(10.03 21.368)" fill="#707070"/>
          <rect id="Rectangle_218" data-name="Rectangle 218" width="1.505" height="1.505" transform="translate(27.486 21.368)" fill="#707070"/>
          <path id="Path_930" data-name="Path 930" d="M104.672,84.092h24.184a.672.672,0,0,0,.652-.835l-2.687-10.749a.672.672,0,0,0-.652-.509h-18.81a.672.672,0,0,0-.652.509L104.02,83.258a.672.672,0,0,0,.652.835Zm15.159-5.374h3.058l.5,4.031h-3.31Zm-1.094,4.031h-3.944l.252-4.031h3.44Zm1.01-5.374-.252-4.031h2.723l.5,4.031Zm-1.346,0h-3.272l.252-4.031h2.768Zm-4.619,0h-2.975l.5-4.031h2.723Zm-.084,1.344-.252,4.031h-3.31l.5-4.031Zm11.049,4.031-.5-4.031h2.745L128,82.749Zm1.906-5.374h-2.577l-.5-4.031h2.073Zm-18.769-4.031h2.073l-.5,4.031h-2.577Zm-1.344,5.374h2.745l-.5,4.031h-3.249Z" transform="translate(-97.282 -67.297)" fill="#707070"/>
          <path id="Path_931" data-name="Path 931" d="M274.352,17.343A10.083,10.083,0,0,1,283.7,31.2l1.245.5A11.422,11.422,0,0,0,266.5,19.127l.924.976A10.035,10.035,0,0,1,274.352,17.343Z" transform="translate(-242.136 -21)" fill="#707070"/>
          <path id="Path_932" data-name="Path 932" d="M59.6,306.077a3.371,3.371,0,0,0-2.739,1.416,2.685,2.685,0,0,0-2.945,3.958H50.607l-1.158-2.316a.672.672,0,0,0-.6-.371H47.5v-8.733a4.031,4.031,0,1,0-8.061,0v8.733H38.1a.672.672,0,0,0-.6.371l-1.158,2.316h-3.3a2.686,2.686,0,0,0-2.945-3.958,3.359,3.359,0,1,0-2.74,5.3H59.6a3.359,3.359,0,0,0,0-6.718Zm-18.81-6.046a2.687,2.687,0,1,1,5.374,0v8.733H40.787Zm-2.272,10.077h9.918l.672,1.344H37.843Zm-7.8,1.344H27.351a2.015,2.015,0,1,1,1.831-2.857.672.672,0,0,0,.917.317,1.328,1.328,0,0,1,.611-.147,1.344,1.344,0,1,1,0,2.687Zm28.887,0H56.238a1.344,1.344,0,1,1,0-2.687,1.328,1.328,0,0,1,.611.147.672.672,0,0,0,.917-.317,2.015,2.015,0,1,1,1.831,2.857Z" transform="translate(-23.992 -272.487)" fill="#707070"/>
        </g>
        <g id="security_1_" data-name="security (1)" transform="translate(1472 2704.549)">
          <path id="Path_934" data-name="Path 934" d="M16.558,20.115a.764.764,0,0,1-.541-.225l-2.042-2.042a.766.766,0,0,1,1.083-1.083l1.464,1.463,5.034-4.467a.766.766,0,1,1,1.153,1.01l-5.573,5.084a.777.777,0,0,1-.552.26Z" transform="translate(36.667 38.669)" fill="#707070"/>
        </g>
      </g>
      <g id="survey_1_" data-name="survey (1)" transform="translate(393 2812.394)">
        <path id="Path_935" data-name="Path 935" d="M22.2,25a7.2,7.2,0,1,0,7.2,7.2A7.213,7.213,0,0,0,22.2,25Zm0,13.1A5.894,5.894,0,1,1,28.1,32.2,5.9,5.9,0,0,1,22.2,38.1Z" transform="translate(-4.831 -8.281)" fill="#707070"/>
        <path id="Path_936" data-name="Path 936" d="M31.127,25.888v3.188l4.783-3.188h1.111A3.278,3.278,0,0,0,40.3,22.613V14.754a3.278,3.278,0,0,0-3.275-3.275h-3.5a3.923,3.923,0,0,0-7.4,0h-3.5a3.272,3.272,0,0,0-.655.066V6.894A3.278,3.278,0,0,0,18.683,3.62h-3.5a3.923,3.923,0,0,0-7.4,0h-3.5A3.278,3.278,0,0,0,1,6.894v7.859a3.278,3.278,0,0,0,3.275,3.275H9.533A9.758,9.758,0,0,0,9.14,29.265L8.2,30.2l-.655-.655L1.87,35.226a2.97,2.97,0,0,0,4.2,4.2l5.679-5.68-.655-.655.936-.936A9.809,9.809,0,0,0,27,25.888Zm2.62-13.1h3.275a1.967,1.967,0,0,1,1.965,1.965v7.859a1.967,1.967,0,0,1-1.965,1.965H35.513l-3.076,2.051V24.578H27.164c.014-.217.033-.434.033-.655s-.019-.437-.033-.655h9.2v-1.31a6.556,6.556,0,0,0-4.129-6.08A3.922,3.922,0,0,0,33.747,12.789Zm-2.015,9.169-.4-5.014a5.248,5.248,0,0,1,3.725,5.014ZM30,16.728l.418,5.23h-1.2l.417-5.228c.062,0,.122-.011.183-.011S29.939,16.726,30,16.728Zm-2.1,5.23H27a9.748,9.748,0,0,0-1.3-3.225,5.222,5.222,0,0,1,2.6-1.781Zm1.915-11.789a2.62,2.62,0,1,1-2.62,2.62A2.622,2.622,0,0,1,29.817,10.169Zm-3.93,2.62a3.923,3.923,0,0,0,1.507,3.088,6.541,6.541,0,0,0-2.489,1.751,9.853,9.853,0,0,0-4.25-2.952,1.963,1.963,0,0,1,1.957-1.886ZM15.409,4.93h3.275a1.967,1.967,0,0,1,1.965,1.965v5.257a3.258,3.258,0,0,0-1.265,2.157,9.7,9.7,0,0,0-1.355-.175V14.1A6.556,6.556,0,0,0,13.9,8.019,3.922,3.922,0,0,0,15.409,4.93ZM6.24,14.1A5.248,5.248,0,0,1,9.965,9.085l-.4,5.014ZM11.3,8.868c.061,0,.121-.009.183-.009s.122.007.183.009l.418,5.23h-1.2Zm1.7.216A5.248,5.248,0,0,1,16.719,14.1H13.394ZM11.479,2.31a2.62,2.62,0,1,1-2.62,2.62A2.622,2.622,0,0,1,11.479,2.31ZM2.31,14.754V6.894A1.967,1.967,0,0,1,4.275,4.93H7.549A3.922,3.922,0,0,0,9.058,8.019,6.556,6.556,0,0,0,4.93,14.1v1.31h7.564a9.862,9.862,0,0,0-1.776,1.31H4.275A1.967,1.967,0,0,1,2.31,14.754ZM5.145,38.5A1.661,1.661,0,1,1,2.8,36.152L7.549,31.4,9.9,33.747Zm5.024-6.335L9.13,31.127l.8-.8a9.97,9.97,0,0,0,1.039,1.039Zm7.2.271a8.514,8.514,0,1,1,8.514-8.514A8.524,8.524,0,0,1,17.373,32.437Z" fill="#707070"/>
        <path id="Path_937" data-name="Path 937" d="M52.754,45H40.965A1.967,1.967,0,0,0,39,46.965v7.859a1.967,1.967,0,0,0,1.965,1.965H52.754a1.967,1.967,0,0,0,1.965-1.965V46.965A1.967,1.967,0,0,0,52.754,45Zm.655,9.824a.656.656,0,0,1-.655.655H40.965a.656.656,0,0,1-.655-.655V46.965a.656.656,0,0,1,.655-.655H52.754a.656.656,0,0,1,.655.655Z" transform="translate(-13.112 -15.183)" fill="#707070"/>
        <path id="Path_938" data-name="Path 938" d="M52.169,50.31h-1.31v3.93h-1.31V51.62H48.24v2.62H46.93V52.93H45.62v1.31H44.31V49H43v6.549H53.479V54.24h-1.31Z" transform="translate(-14.493 -16.563)" fill="#707070"/>
        <path id="Path_939" data-name="Path 939" d="M55,21h1.31v1.31H55Z" transform="translate(-18.633 -6.901)" fill="#707070"/>
        <path id="Path_940" data-name="Path 940" d="M55,25h1.31v1.31H55Z" transform="translate(-18.633 -8.281)" fill="#707070"/>
        <path id="Path_941" data-name="Path 941" d="M5,9H6.31v1.31H5Z" transform="translate(-1.38 -2.76)" fill="#707070"/>
        <path id="Path_942" data-name="Path 942" d="M5,13H6.31v1.31H5Z" transform="translate(-1.38 -4.141)" fill="#707070"/>
      </g>
      <text id="Identify_customer_segments_and_asses_requirements" data-name="Identify customer
segments
and asses
requirements" transform="translate(415 3026)" fill="#21232a" font-size="14" font-family="HelveticaNeue, Helvetica Neue"><tspan x="-54.327" y="0">Identify customer</tspan><tspan x="-30.604" y="15">segments</tspan><tspan x="-31.766" y="30">and asses</tspan><tspan x="-40.852" y="45">requirements</tspan></text>
      <text id="In-person_acquisition_during_field_personnel_visit" data-name="In-person
acquisition
during field
personnel visit" transform="translate(725 2910)" fill="#21232a" font-size="14" font-family="HelveticaNeue, Helvetica Neue"><tspan x="-30.079" y="0">In-person</tspan><tspan x="-33.838" y="15">acquisition</tspan><tspan x="-34.874" y="30">during field</tspan><tspan x="-45.115" y="45">personnel visit</tspan></text>
      <text id="or_referral_self-referral_through_customer_app" data-name="or referral 
 self-referral
through
customer app" transform="translate(725 3024)" fill="#21232a" font-size="14" font-family="HelveticaNeue, Helvetica Neue"><tspan x="-32.011" y="0">or referral </tspan><tspan x="-37.324" y="15" xml:space="preserve"> self-referral</tspan><tspan x="-24.122" y="30">through</tspan><tspan x="-45.388" y="45">customer app</tspan></text>
      <text id="Connection_request_assigned_to_sales_team" data-name="Connection
request assigned
to sales team" transform="translate(725 3148)" fill="#21232a" font-size="14" font-family="HelveticaNeue, Helvetica Neue"><tspan x="-36.043" y="0">Connection</tspan><tspan x="-53.55" y="15">request assigned</tspan><tspan x="-41.881" y="30">to sales team</tspan></text>
      <text id="Required_info_KYC_ID_Proof_entered_into_field_force_app" data-name="Required info,
KYC, ID Proof
entered into field
force app" transform="translate(881 2909)" fill="#21232a" font-size="14" font-family="HelveticaNeue, Helvetica Neue"><tspan x="-43.694" y="0">Required info,</tspan><tspan x="-43.687" y="15">KYC, ID Proof</tspan><tspan x="-52.381" y="30">entered into field</tspan><tspan x="-29.82" y="45">force app</tspan></text>
      <text id="Customer_given_hard_copy_of_supplier_s_commitments" data-name="Customer given
hard copy of
suppliers
commitments" transform="translate(881 3027)" fill="#21232a" font-size="14" font-family="HelveticaNeue, Helvetica Neue"><tspan x="-49.399" y="0">Customer given</tspan><tspan x="-39.417" y="15">hard copy of</tspan><tspan x="-29.82" y="30">suppliers</tspan><tspan x="-42.805" y="45">commitments</tspan></text>
      <text id="Assign_package_to_customer_using_field_force_app" data-name="Assign package
to customer
using field
force app" transform="translate(1039.192 2909)" fill="#21232a" font-size="14" font-family="HelveticaNeue, Helvetica Neue"><tspan x="-49.784" y="0">Assign package</tspan><tspan x="-37.604" y="15">to customer</tspan><tspan x="-31.892" y="30">using field</tspan><tspan x="-29.82" y="45">force app</tspan></text>
      <text id="Security_deposit_and_activation_charge_notifications" data-name="Security deposit
and activation
charge
notifications" transform="translate(1038.885 3027)" fill="#21232a" font-size="14" font-family="HelveticaNeue, Helvetica Neue"><tspan x="-50.82" y="0">Security deposit</tspan><tspan x="-43.953" y="15">and activation</tspan><tspan x="-21.322" y="30">charge</tspan><tspan x="-37.982" y="45">notifications</tspan></text>
      <text id="Customer_profile_created_with_unique_ID" data-name="Customer profile
created with
unique ID" transform="translate(1195 2917)" fill="#21232a" font-size="14" font-family="HelveticaNeue, Helvetica Neue"><tspan x="-51.989" y="0">Customer profile</tspan><tspan x="-38.5" y="15">created with</tspan><tspan x="-29.827" y="30">unique ID</tspan></text>
      <text id="Customer_profile_pushed_to_customer_app" data-name="Customer profile
pushed to
customer app" transform="translate(1195 3032)" fill="#21232a" font-size="14" font-family="HelveticaNeue, Helvetica Neue"><tspan x="-51.989" y="0">Customer profile</tspan><tspan x="-31.514" y="15">pushed to</tspan><tspan x="-43.442" y="30">customer app</tspan></text>
      <text id="Sales_team_submit_connection_details_to_technical_team" data-name="Sales team
submit connection
details to
technical team" transform="translate(1351 2910)" fill="#21232a" font-size="14" font-family="HelveticaNeue, Helvetica Neue" letter-spacing="-0.02em"><tspan x="-33.488" y="0">Sales team</tspan><tspan x="-55.727" y="15">submit connection</tspan><tspan x="-27.391" y="30">details to</tspan><tspan x="-43.953" y="45">technical team</tspan></text>
      <text id="Meter_ID_selected_from_inventory_and_assigned_to_customer" data-name="Meter ID selected
from inventory
and assigned
to customer" transform="translate(1350 3027)" fill="#21232a" font-size="14" font-family="HelveticaNeue, Helvetica Neue"><tspan x="-55.23" y="0">Meter ID selected</tspan><tspan x="-44.863" y="15">from inventory</tspan><tspan x="-41.881" y="30">and assigned</tspan><tspan x="-37.604" y="45">to customer</tspan></text>
      <text id="Technical_team_confirm_connection_using_field_force_app" data-name="Technical team
confirm
connection using
field force app" transform="translate(1517 2910)" fill="#21232a" font-size="14" font-family="HelveticaNeue, Helvetica Neue"><tspan x="-46.809" y="0">Technical team</tspan><tspan x="-23.597" y="15">confirm</tspan><tspan x="-53.55" y="30">connection using</tspan><tspan x="-44.856" y="45">field force app</tspan></text>
      <text id="Customer_account_activated" data-name="Customer
account
activated" transform="translate(1518 3034)" fill="#21232a" font-size="14" font-family="HelveticaNeue, Helvetica Neue"><tspan x="-30.73" y="0">Customer</tspan><tspan x="-25.284" y="15">account</tspan><tspan x="-28.651" y="30">activated</tspan></text>
      <line id="Line_44" data-name="Line 44" x1="1290.5" transform="translate(314.5 2985.5)" fill="none" stroke="rgba(112,112,112,0.53)" stroke-width="1" opacity="0.281"/>
      <line id="Line_45" data-name="Line 45" x1="1290.5" transform="translate(314.5 3101.5)" fill="none" stroke="rgba(112,112,112,0.53)" stroke-width="1" opacity="0.281"/>
      <text id="Meter_installed_by_technical_team" data-name="Meter installed
by
technical team" transform="translate(1351 3145)" fill="#21232a" font-size="14" font-family="HelveticaNeue, Helvetica Neue"><tspan x="-46.025" y="0">Meter installed</tspan><tspan x="-7.651" y="15">by</tspan><tspan x="-45.773" y="30">technical team</tspan></text>
      <text id="Customer_added_to_plant_register" data-name="Customer added
to plant register" transform="translate(1517 3150)" fill="#21232a" font-size="14" font-family="HelveticaNeue, Helvetica Neue"><tspan x="-52.647" y="0">Customer added</tspan><tspan x="-49.007" y="15">to plant register</tspan></text>
      <text id="Manual" transform="translate(956 3293)" fill="#21232a" font-size="14" font-family="HelveticaNeue, Helvetica Neue"><tspan x="-22.953" y="0">Manual</tspan></text>
      <text id="Automated_Customer_App_" data-name="Automated
(Customer App)" transform="translate(1073 3283)" fill="#21232a" font-size="14" font-family="HelveticaNeue, Helvetica Neue"><tspan x="-34.496" y="0">Automated</tspan><tspan x="-49.14" y="16">(Customer App)</tspan></text>
      <text id="Automated_Field_Force_App_" data-name="Automated
(Field Force App)" transform="translate(1191 3283)" fill="#21232a" font-size="14" font-family="HelveticaNeue, Helvetica Neue"><tspan x="-34.496" y="0">Automated</tspan><tspan x="-53.151" y="16">(Field Force App)</tspan></text>
      <text id="LEGENDS" transform="translate(960 3251)" fill="#008fba" font-size="20" font-family="HelveticaNeue-Bold, Helvetica Neue" font-weight="700" letter-spacing="0.2em"><tspan x="-59.79" y="0">LEGENDS</tspan></text>
      <path id="Polygon_9" data-name="Polygon 9" d="M6,0l6,10H0Z" transform="translate(500 2828) rotate(90)" fill="#707070" opacity="0.303"/>
      <path id="Polygon_10" data-name="Polygon 10" d="M6,0l6,10H0Z" transform="translate(657 2828) rotate(90)" fill="#707070" opacity="0.299"/>
      <path id="Polygon_11" data-name="Polygon 11" d="M6,0l6,10H0Z" transform="translate(813 2828) rotate(90)" fill="#707070" opacity="0.299"/>
      <path id="Polygon_12" data-name="Polygon 12" d="M6,0l6,10H0Z" transform="translate(970 2828) rotate(90)" fill="#707070" opacity="0.301"/>
      <path id="Polygon_13" data-name="Polygon 13" d="M6,0l6,10H0Z" transform="translate(1127 2828) rotate(90)" fill="#707070" opacity="0.301"/>
      <path id="Polygon_14" data-name="Polygon 14" d="M6,0l6,10H0Z" transform="translate(1283 2828) rotate(90)" fill="#707070" opacity="0.301"/>
      <path id="Polygon_15" data-name="Polygon 15" d="M6,0l6,10H0Z" transform="translate(1440 2828) rotate(90)" fill="#707070" opacity="0.301"/>
    </g>
  </g>
</svg>
