<svg xmlns="http://www.w3.org/2000/svg" width="1032.5" height="290" viewBox="0 0 1032.5 290">
  <g id="Group_2634" data-name="Group 2634" transform="translate(-393 -1459.5)">
    <line id="Line_80" data-name="Line 80" y2="290" transform="translate(960.5 1459.5)" fill="none" stroke="#707070" stroke-width="1" opacity="0.2"/>
    <text id="All_Employees_" data-name="All Employees " transform="translate(1008 1484)" fill="#21232a" font-size="20" font-family="HelveticaNeue-Bold, Helvetica Neue" font-weight="700"><tspan x="12.33" y="20">All Employees </tspan></text>
    <line id="Line_79" data-name="Line 79" x1="450.15" transform="translate(734.5 1538.5)" fill="none" stroke="#707070" stroke-width="1" opacity="0.2"/>
    <text id="Access_to_individual_employees_contact" data-name="Access to individual
employees contact" transform="translate(967 1564)" fill="#707070" font-size="14" font-family="HelveticaNeue, Helvetica Neue"><tspan x="58.011" y="13">Access to individual</tspan><tspan x="60.986" y="29">employees contact</tspan></text>
    <text id="Main_Purpose" data-name="Main Purpose" transform="translate(776 1564)" fill="#21232a" font-size="20" font-family="HelveticaNeue-Bold, Helvetica Neue" font-weight="700"><tspan x="5.58" y="20">Main Purpose</tspan></text>
    <text id="Designation" transform="translate(776 1484)" fill="#21232a" font-size="20" font-family="HelveticaNeue-Bold, Helvetica Neue" font-weight="700"><tspan x="14.48" y="20">Designation</tspan></text>
    <text id="Example_Use_Case" data-name="Example Use Case" transform="translate(776 1653)" fill="#21232a" font-size="20" font-family="HelveticaNeue-Bold, Helvetica Neue" font-weight="700"><tspan x="9.12" y="20">Example Use </tspan><tspan x="47.24" y="45">Case</tspan></text>
    <line id="Line_82" data-name="Line 82" x1="450.15" transform="translate(734.5 1625.5)" fill="none" stroke="#707070" stroke-width="1" opacity="0.2"/>
    <text id="To_verify_a_decision_made_by_another_agent_working_at_the_company" data-name="To verify a decision made by another agent working at the company" transform="translate(1010 1653)" fill="#707070" font-size="14" font-family="HelveticaNeue, Helvetica Neue"><tspan x="17.741" y="13">To verify a decision </tspan><tspan x="4.882" y="29">made by another agent </tspan><tspan x="2.04" y="45">working at the company</tspan></text>
    <g id="Group_707" data-name="Group 707" transform="translate(65 -1)">
      <path id="Path_2356" data-name="Path 2356" d="M362.013,239.286q-.657,3.454-1.576,6.838c-.066.262-.141.52-.215.782a193.936,193.936,0,0,1-16.236,35.76,277.63,277.63,0,0,1-95.27,95.216l2.315-5.223-2.549-.176c-18.472-1.263-37.007-2.662-55.046-6.814-18.871-4.343-37.332-11.877-52.121-24.368s-25.639-30.338-27.144-49.643a56.642,56.642,0,0,1,1.982-19.708c3.468-12.323,11.044-23.41,21.975-29.97,17.17-10.3,39.568-8.2,57.669.368s32.828,22.745,47.211,36.679a182.348,182.348,0,0,0-59-61.582c-8.038-5.145-16.568-9.727-23.4-16.392s-11.869-16-10.661-25.466c1.372-10.735,10.165-18.883,18.973-25.165,3.519-2.51,7.15-4.891,10.9-7.08,10.567-6.193,22-10.864,34.071-12.6,16.353-2.35,34.017,1.216,46.554,11.975,14.125,12.123,19.919,31.675,19.368,50.378,8.7-12.651,22.124-22.335,37.281-22.745,15.736-.422,30.694,9.52,38.575,23.148S364.957,223.824,362.013,239.286Z" transform="translate(213.991 1330.677)" fill="#e6e6e6"/>
      <path id="Path_2357" data-name="Path 2357" d="M492.7,363.4c9.216-.812,17.73-1.76,26.661-4.287,8.657-2.45,16.987-6.55,23.15-13.246,6.628-7.2,10.207-16.555,12.731-25.866,1.408-5.191,2.564-10.455,3.655-15.72q1.776-8.57,3.156-17.215,2.747-17.209,3.922-34.62.142-2.113.26-4.228c.049-.87-1.3-.867-1.353,0q-.965,17.163-3.474,34.191c-1.65,11.154-3.761,22.259-6.44,33.213-2.269,9.28-5.207,18.7-11.027,26.429-5.458,7.244-13.34,11.978-21.851,14.808-8.661,2.88-17.792,4.03-26.842,4.885-1.11.1-1.439.2-2.55.3-.86.076-.868,1.429,0,1.353Z" transform="translate(-16.259 1259.105)" fill="#fff"/>
      <path id="Path_2358" data-name="Path 2358" d="M120.475,493.451a146.6,146.6,0,0,1,34.287,6.042,148.175,148.175,0,0,1,31.931,13.9,144.559,144.559,0,0,1,26.889,20.246,148.116,148.116,0,0,1,21,25.045,146.642,146.642,0,0,1,15.031,29.139q.714,1.881,1.376,3.781c.285.817,1.592.465,1.3-.36a148.029,148.029,0,0,0-14.359-29.863,149.951,149.951,0,0,0-20.6-25.956,146.2,146.2,0,0,0-26.3-20.991,149.31,149.31,0,0,0-66.295-22.04q-2.129-.178-4.263-.294c-.87-.048-.867,1.305,0,1.353Z" transform="translate(210.45 1110.173)" fill="#fff"/>
      <path id="Path_2359" data-name="Path 2359" d="M282.533,166.008a79.676,79.676,0,0,1,20.916,10.221A98.225,98.225,0,0,1,321.3,192.086a131.456,131.456,0,0,1,14.786,20.377,173.846,173.846,0,0,1,11.756,23.9,216.267,216.267,0,0,1,8.561,26,244.4,244.4,0,0,1,7.831,54.477,216.382,216.382,0,0,1-.774,26.2,166.9,166.9,0,0,1-3.934,24.124,113.986,113.986,0,0,1-7.1,20.86q-1.054,2.283-2.237,4.5c-.409.768.758,1.452,1.168.683a104.272,104.272,0,0,0,7.989-20.106,155.714,155.714,0,0,0,4.764-23.652,205.789,205.789,0,0,0,1.574-26.15,239.941,239.941,0,0,0-1.637-27.479,247.5,247.5,0,0,0-4.766-27.457,224.05,224.05,0,0,0-7.968-26.741,186.061,186.061,0,0,0-11.08-24.608,142.66,142.66,0,0,0-14.208-21.444,105.784,105.784,0,0,0-17.357-17.2A83.931,83.931,0,0,0,288.32,166.63q-2.677-1.065-5.427-1.927C282.06,164.442,281.7,165.747,282.533,166.008Z" transform="translate(111.638 1309.593)" fill="#fff"/>
      <ellipse id="Ellipse_126" data-name="Ellipse 126" cx="96.76" cy="3.909" rx="96.76" ry="3.909" transform="translate(377.648 1703.077)" fill="#e6e6e6"/>
      <path id="Path_2360" data-name="Path 2360" d="M667.723,441.805a4.118,4.118,0,0,0-.094.641l-16.794,9.689-4.082-2.35-4.352,5.7,8.733,6.224,19.16-15.115a4.1,4.1,0,1,0-2.571-4.786Z" transform="translate(-107.827 1142.732)" fill="#ffb8b8"/>
      <path id="Path_2361" data-name="Path 2361" d="M605.933,447.218l13.224,9.425,5.914-7.415-12.854-10.314a5.209,5.209,0,0,0-7.5,1.04h0a5.209,5.209,0,0,0,1.219,7.265Z" transform="translate(-84.284 1143.263)" fill="#00b0ff"/>
      <path id="Path_2362" data-name="Path 2362" d="M425.519,579.1l4.637,1.215,6.892-17.305-6.843-1.793Z" transform="translate(68.833 1118.922)" fill="#ffb8b8"/>
      <path id="Path_2363" data-name="Path 2363" d="M0,0H15.064V5.82H5.82A5.82,5.82,0,0,1,0,0H0Z" transform="matrix(-0.967, -0.253, 0.253, -0.967, 506.803, 1705.882)" fill="#2f2e41"/>
      <path id="Path_2364" data-name="Path 2364" d="M525.878,585.111l4.718-.843-1.006-18.6-6.964,1.244Z" transform="translate(9.689 1116.208)" fill="#ffb8b8"/>
      <path id="Path_2365" data-name="Path 2365" d="M0,0H15.064V5.82H5.82A5.82,5.82,0,0,1,0,0H0Z" transform="translate(550.166 1703.233) rotate(169.872)" fill="#2f2e41"/>
      <path id="Path_2366" data-name="Path 2366" d="M608.349,393.727a4.5,4.5,0,0,1,2.677,2.84,19.812,19.812,0,0,1,1.057,4.462c.446,2.837.875,5.908-.048,8.536-1.082,3.08-3.965,4.693-6.466,3.935s-4.49-3.6-5.169-6.878a16.659,16.659,0,0,1,1.143-9.807,7.974,7.974,0,0,1,2.991-3.839,2.952,2.952,0,0,1,3.936.82" transform="translate(-82.073 1170.803)" fill="#2f2e41"/>
      <path id="Path_2367" data-name="Path 2367" d="M576.793,526.948l8.983,80.455-7.419,2.817-13.683-53.951L545.623,605.6l-8.121.451s11.142-76.756,19.4-78.5Z" transform="translate(-43.938 1088.947)" fill="#2f2e41"/>
      <circle id="Ellipse_127" data-name="Ellipse 127" cx="9.602" cy="9.602" r="9.602" transform="translate(515.708 1555.593)" fill="#ffb8b8"/>
      <path id="Path_2368" data-name="Path 2368" d="M601.482,430.019l-10.377-1.353s-6.767,8.121-6.316,22.106-1.128,18.272-1.128,18.272l21.635.391C602.169,465.134,615.251,440.435,601.482,430.019Z" transform="translate(-72.051 1148.806)" fill="#00b0ff"/>
      <path id="Path_2369" data-name="Path 2369" d="M607.407,504.423a4.108,4.108,0,0,0-.646.056l-13.275-14.131,1.353-4.511L588.3,482.9l-4.06,9.925,19.1,15.192a4.1,4.1,0,1,0,4.07-3.6Z" transform="translate(-72.402 1115.773)" fill="#ffb8b8"/>
      <path id="Path_2370" data-name="Path 2370" d="M596.734,441.146l-6.148,15.029,8.572,4.06,7.1-14.874a5.209,5.209,0,0,0-2.729-7.065h0a5.209,5.209,0,0,0-6.794,2.849Z" transform="translate(-76.269 1143.177)" fill="#00b0ff"/>
      <path id="Path_2371" data-name="Path 2371" d="M588.357,387.561c1.5-.868,1.665-2.962,1.461-4.687s-.546-3.648.468-5.058c1.21-1.683,3.641-1.717,5.714-1.772s4.6-.662,5.133-2.664a3.569,3.569,0,0,0-1.494-3.573,10.481,10.481,0,0,0-3.777-1.547c-2.963-.781-6.023-1.568-9.057-1.139a11.547,11.547,0,0,0-9.837,12.894c.491,3.851,1.2,5.533.736,7.231-.871,3.163-4.625,5.195-4.7,8.474-.058,2.565,2.208,4.544,4.418,5.847a14.832,14.832,0,0,0,5.667,2.152,7.226,7.226,0,0,0,5.7-1.591c1.942-1.767,2.422-4.718,1.865-7.284a22.289,22.289,0,0,0-3.4-7.056" transform="translate(-65.559 1186.363)" fill="#2f2e41"/>
    </g>
    <g id="Group_706" data-name="Group 706" transform="translate(1190 1531.662)">
      <path id="Path_2372" data-name="Path 2372" d="M851.836,426.948h-135.4A3.438,3.438,0,0,0,713,430.381v86.962a3.438,3.438,0,0,0,3.433,3.433h135.4a3.438,3.438,0,0,0,3.433-3.433V430.381A3.438,3.438,0,0,0,851.836,426.948Zm2.67,90.394a2.673,2.673,0,0,1-2.67,2.67h-135.4a2.673,2.673,0,0,1-2.67-2.67V430.381a2.673,2.673,0,0,1,2.67-2.67h135.4a2.673,2.673,0,0,1,2.67,2.67Z" transform="translate(-713.002 -426.948)" fill="#3f3d56"/>
      <path id="Path_2373" data-name="Path 2373" d="M757.878,495.286H736.519a3.246,3.246,0,0,1-3.242-3.242V470.685a3.246,3.246,0,0,1,3.242-3.242h21.359a3.246,3.246,0,0,1,3.242,3.242v21.359A3.246,3.246,0,0,1,757.878,495.286Z" transform="translate(-725.544 -451.998)" fill="#00b0ff"/>
      <path id="Path_2374" data-name="Path 2374" d="M857.781,591.911H736.492a2.479,2.479,0,1,1,0-4.958H857.781a2.479,2.479,0,1,1,0,4.958Z" transform="translate(-725.999 -525.925)" fill="#ccc"/>
      <path id="Path_2375" data-name="Path 2375" d="M857.994,560.411H736.706a2.479,2.479,0,0,1,0-4.958H857.994a2.479,2.479,0,1,1,0,4.958Z" transform="translate(-726.131 -506.439)" fill="#ccc"/>
      <path id="Path_2376" data-name="Path 2376" d="M868.632,517.4H850.706a2.479,2.479,0,1,1,0-4.958h17.926a2.479,2.479,0,1,1,0,4.958Z" transform="translate(-796.65 -479.834)" fill="#ccc"/>
      <path id="Path_2377" data-name="Path 2377" d="M928.514,485.411H850.706a2.479,2.479,0,1,1,0-4.958h77.808a2.479,2.479,0,1,1,0,4.958Z" transform="translate(-796.65 -460.045)" fill="#ccc"/>
      <path id="Path_2378" data-name="Path 2378" d="M794.93,623.911H736.492a2.479,2.479,0,1,1,0-4.958H794.93a2.479,2.479,0,1,1,0,4.958Z" transform="translate(-725.999 -545.72)" fill="#ccc"/>
    </g>
    <g id="Group_708" data-name="Group 708" transform="translate(1312.316 1465.8)">
      <path id="Path_2372-2" data-name="Path 2372" d="M823.455,426.948H715.733A2.735,2.735,0,0,0,713,429.679v69.185a2.735,2.735,0,0,0,2.731,2.731H823.455a2.735,2.735,0,0,0,2.731-2.731V429.679A2.735,2.735,0,0,0,823.455,426.948Zm2.124,71.916a2.126,2.126,0,0,1-2.124,2.124H715.733a2.126,2.126,0,0,1-2.124-2.124V429.679a2.126,2.126,0,0,1,2.124-2.124H823.455a2.126,2.126,0,0,1,2.124,2.124Z" transform="translate(-713.002 -426.948)" fill="#3f3d56"/>
      <path id="Path_2373-2" data-name="Path 2373" d="M752.849,489.595H735.857a2.582,2.582,0,0,1-2.579-2.579V470.023a2.582,2.582,0,0,1,2.579-2.579h16.993a2.582,2.582,0,0,1,2.579,2.579v16.993A2.582,2.582,0,0,1,752.849,489.595Z" transform="translate(-727.125 -455.155)" fill="#00b0ff"/>
      <path id="Path_2374-2" data-name="Path 2374" d="M832.48,590.9H735.985a1.972,1.972,0,0,1,0-3.945H832.48a1.972,1.972,0,1,1,0,3.945Z" transform="translate(-727.638 -538.401)" fill="#ccc"/>
      <path id="Path_2375-2" data-name="Path 2375" d="M832.694,559.4H736.2a1.972,1.972,0,0,1,0-3.945h96.495a1.972,1.972,0,1,1,0,3.945Z" transform="translate(-727.786 -516.459)" fill="#ccc"/>
      <path id="Path_2376-2" data-name="Path 2376" d="M864.461,516.388H850.2a1.972,1.972,0,1,1,0-3.945h14.262a1.972,1.972,0,1,1,0,3.945Z" transform="translate(-807.194 -486.5)" fill="#ccc"/>
      <path id="Path_2377-2" data-name="Path 2377" d="M912.1,484.4H850.2a1.972,1.972,0,1,1,0-3.945h61.9a1.972,1.972,0,1,1,0,3.945Z" transform="translate(-807.194 -464.217)" fill="#ccc"/>
      <path id="Path_2378-2" data-name="Path 2378" d="M782.477,622.9H735.985a1.972,1.972,0,0,1,0-3.945h46.492a1.972,1.972,0,1,1,0,3.945Z" transform="translate(-727.638 -560.69)" fill="#ccc"/>
    </g>
    <g id="Group_709" data-name="Group 709" transform="translate(65 -46)">
      <path id="Path_2372-3" data-name="Path 2372" d="M812.231,426.948H715.455A2.457,2.457,0,0,0,713,429.4v62.155a2.457,2.457,0,0,0,2.453,2.453h96.776a2.457,2.457,0,0,0,2.453-2.453V429.4A2.457,2.457,0,0,0,812.231,426.948Zm1.908,64.608a1.91,1.91,0,0,1-1.908,1.908H715.455a1.91,1.91,0,0,1-1.908-1.908V429.4a1.91,1.91,0,0,1,1.908-1.908h96.776a1.91,1.91,0,0,1,1.908,1.908Z" transform="translate(-150.826 1149.852)" fill="#3f3d56"/>
      <path id="Path_2373-3" data-name="Path 2373" d="M750.86,487.344H735.594a2.32,2.32,0,0,1-2.317-2.317V469.76a2.32,2.32,0,0,1,2.317-2.317H750.86a2.32,2.32,0,0,1,2.317,2.317v15.266A2.32,2.32,0,0,1,750.86,487.344Z" transform="translate(-165.574 1120.396)" fill="#00b0ff"/>
      <path id="Path_2374-3" data-name="Path 2374" d="M822.474,590.5H735.785a1.772,1.772,0,0,1,0-3.544h86.689a1.772,1.772,0,1,1,0,3.544Z" transform="translate(-166.11 1033.466)" fill="#ccc"/>
      <path id="Path_2375-3" data-name="Path 2375" d="M822.688,559H736a1.772,1.772,0,0,1,0-3.544h86.689a1.772,1.772,0,1,1,0,3.544Z" transform="translate(-166.265 1056.379)" fill="#ccc"/>
      <path id="Path_2376-3" data-name="Path 2376" d="M862.811,515.987H850a1.772,1.772,0,1,1,0-3.544h12.813a1.772,1.772,0,1,1,0,3.544Z" transform="translate(-249.187 1087.664)" fill="#ccc"/>
      <path id="Path_2377-3" data-name="Path 2377" d="M905.611,484H850a1.772,1.772,0,0,1,0-3.544h55.612a1.772,1.772,0,1,1,0,3.544Z" transform="translate(-249.187 1110.933)" fill="#ccc"/>
      <path id="Path_2378-3" data-name="Path 2378" d="M777.552,622.5H735.785a1.772,1.772,0,0,1,0-3.544h41.767a1.772,1.772,0,1,1,0,3.544Z" transform="translate(-166.11 1010.189)" fill="#ccc"/>
    </g>
  </g>
</svg>
