<svg xmlns="http://www.w3.org/2000/svg" width="933.042" height="193.98" viewBox="0 0 933.042 193.98">
  <g id="Group_3071" data-name="Group 3071" transform="translate(-691 -1106)">
    <g id="Group_2994" data-name="Group 2994" transform="translate(207 -375)">
      <text id="Home" transform="translate(484 1481)" fill="#21232a" font-size="20" font-family="HelveticaNeue-Bold, Helvetica Neue" font-weight="700"><tspan x="21.68" y="20">Home</tspan></text>
      <text id="Dashboard" transform="translate(620 1481)" fill="#21232a" font-size="20" font-family="HelveticaNeue-Bold, Helvetica Neue" font-weight="700"><tspan x="8.77" y="20">Dashboard</tspan></text>
      <text id="Cash_Register" data-name="Cash
Register" transform="translate(807 1481)" fill="#21232a" font-size="20" font-family="HelveticaNeue-Bold, Helvetica Neue" font-weight="700"><tspan x="17.55" y="20">Cash</tspan><tspan x="1.83" y="45">Register</tspan></text>
      <text id="Spark_Server" data-name="Spark
Server" transform="translate(976 1481)" fill="#21232a" font-size="20" font-family="HelveticaNeue-Bold, Helvetica Neue" font-weight="700"><tspan x="22.03" y="20">Spark</tspan><tspan x="19.05" y="45">Server</tspan></text>
      <text id="Receivable" transform="translate(1141 1481)" fill="#21232a" font-size="20" font-family="HelveticaNeue-Bold, Helvetica Neue" font-weight="700"><tspan x="3.61" y="20">Receivable</tspan></text>
      <text id="Contacts" transform="translate(1307 1481)" fill="#21232a" font-size="20" font-family="HelveticaNeue-Bold, Helvetica Neue" font-weight="700"><tspan x="6.66" y="20">Contacts</tspan></text>
      <path id="Path_1169" data-name="Path 1169" d="M135.282,753.517a54.013,54.013,0,0,1,0-108.027,49.041,49.041,0,1,1,0,98.082,43.976,43.976,0,0,1,0-87.951v.031A37.8,37.8,0,0,1,173.035,693.4h2.652a40.45,40.45,0,0,0-40.4-40.4v-.031a46.627,46.627,0,1,0,0,93.255,51.693,51.693,0,1,0,0-103.385,56.659,56.659,0,0,0-.671,113.314v.017h95.538v-2.652Z" transform="translate(405.384 915.171)" fill="#707070"/>
      <path id="Path_1184" data-name="Path 1184" d="M877.846,753l-9.608-4.966v3.64H767.733a54.013,54.013,0,1,1,0-108.026,49.041,49.041,0,0,1,0,98.082,43.976,43.976,0,1,1,0-87.951v.031a37.8,37.8,0,0,1,37.752,37.752h2.652a40.45,40.45,0,0,0-40.4-40.4v-.032a46.627,46.627,0,1,0,0,93.255,51.693,51.693,0,0,0,0-103.385H669.379v-3.641l-9.607,4.967,9.607,4.966v-3.64H750.6a56.664,56.664,0,0,0,17.128,110.679H868.238v3.64Z" transform="translate(258.229 917.014)" fill="#707070"/>
      <path id="Path_1193" data-name="Path 1193" d="M993.05,642.9v-.076H895.188v2.652h79.1a51.686,51.686,0,0,0,16.275,100.745,46.627,46.627,0,1,0,0-93.255V653a40.451,40.451,0,0,0-40.406,40.405h2.652a37.8,37.8,0,0,1,37.753-37.753v-.032a43.975,43.975,0,0,1,0,87.951,49.04,49.04,0,1,1,0-98.081,54.014,54.014,0,0,1,0,108.028v2.651A56.661,56.661,0,0,0,993.05,642.9Z" transform="translate(369.813 915.175)" fill="#707070"/>
      <path id="Path_1171" data-name="Path 1171" d="M651.526,753l-9.608-4.966v3.64H547.145a54.013,54.013,0,1,1,0-108.026,49.041,49.041,0,1,1,0,98.082,43.976,43.976,0,0,1,0-87.951v.031A37.8,37.8,0,0,1,584.9,691.562h2.652a40.45,40.45,0,0,0-40.4-40.4v-.032a46.627,46.627,0,1,0,0,93.255,51.693,51.693,0,0,0,0-103.385H451.658v-3.641l-9.607,4.967,9.607,4.966v-3.64h78.359a56.664,56.664,0,0,0,17.128,110.679h94.773v3.64Z" transform="translate(309.949 917.014)" fill="#707070"/>
      <path id="Path_1170" data-name="Path 1170" d="M432.526,753l-9.607-4.966v3.64H322.413a54.013,54.013,0,1,1,0-108.026,49.041,49.041,0,0,1,0,98.082,43.976,43.976,0,1,1,0-87.951v.031a37.8,37.8,0,0,1,37.753,37.752h2.652a40.45,40.45,0,0,0-40.4-40.4v-.032a46.627,46.627,0,1,0,0,93.255,51.693,51.693,0,1,0,0-103.385H236.482v-3.641l-9.608,4.967,9.608,4.966v-3.64h68.8a56.664,56.664,0,0,0,17.128,110.679H422.919v3.64Z" transform="translate(364.126 917.014)" fill="#707070"/>
      <path id="Path_1213" data-name="Path 1213" d="M877.846,753l-9.608-4.966v3.64H767.733a54.013,54.013,0,1,1,0-108.026,49.041,49.041,0,0,1,0,98.082,43.976,43.976,0,1,1,0-87.951v.031a37.8,37.8,0,0,1,37.752,37.752h2.652a40.45,40.45,0,0,0-40.4-40.4v-.032a46.627,46.627,0,1,0,0,93.255,51.693,51.693,0,0,0,0-103.385H669.379v-3.641l-9.607,4.967,9.607,4.966v-3.64H750.6a56.664,56.664,0,0,0,17.128,110.679H868.238v3.64Z" transform="translate(431.229 917.014)" fill="#707070"/>
      <g id="invoice" transform="translate(741.291 1596)">
        <g id="Group_2816" data-name="Group 2816" transform="translate(120.245 5.939)">
          <g id="Group_2815" data-name="Group 2815" transform="translate(0)">
            <path id="Path_5043" data-name="Path 5043" d="M322.686,80.161H321.2a.556.556,0,0,0,0,1.111h1.485a.556.556,0,1,0,0-1.111Z" transform="translate(-320.645 -80.161)" fill="#707070"/>
          </g>
        </g>
        <g id="Group_2818" data-name="Group 2818" transform="translate(120.245 8.909)">
          <g id="Group_2817" data-name="Group 2817" transform="translate(0)">
            <path id="Path_5044" data-name="Path 5044" d="M322.686,120.242H321.2a.556.556,0,0,0,0,1.111h1.485a.556.556,0,1,0,0-1.111Z" transform="translate(-320.645 -120.242)" fill="#707070"/>
          </g>
        </g>
        <g id="Group_2820" data-name="Group 2820" transform="translate(120.245 11.879)">
          <g id="Group_2819" data-name="Group 2819" transform="translate(0)">
            <path id="Path_5045" data-name="Path 5045" d="M322.686,160.322H321.2a.556.556,0,0,0,0,1.111h1.485a.556.556,0,1,0,0-1.111Z" transform="translate(-320.645 -160.322)" fill="#707070"/>
          </g>
        </g>
        <g id="Group_2822" data-name="Group 2822" transform="translate(120.245 14.848)">
          <g id="Group_2821" data-name="Group 2821" transform="translate(0)">
            <path id="Path_5046" data-name="Path 5046" d="M322.686,200.4H321.2a.556.556,0,0,0,0,1.111h1.485a.556.556,0,1,0,0-1.111Z" transform="translate(-320.645 -200.404)" fill="#707070"/>
          </g>
        </g>
        <g id="Group_2824" data-name="Group 2824" transform="translate(120.245 17.818)">
          <g id="Group_2823" data-name="Group 2823" transform="translate(0)">
            <path id="Path_5047" data-name="Path 5047" d="M322.686,240.484H321.2a.556.556,0,0,0,0,1.111h1.485a.556.556,0,1,0,0-1.111Z" transform="translate(-320.645 -240.484)" fill="#707070"/>
          </g>
        </g>
        <g id="Group_2826" data-name="Group 2826" transform="translate(120.245 20.787)">
          <g id="Group_2825" data-name="Group 2825" transform="translate(0)">
            <path id="Path_5048" data-name="Path 5048" d="M322.686,280.565H321.2a.556.556,0,0,0,0,1.111h1.485a.556.556,0,1,0,0-1.111Z" transform="translate(-320.645 -280.565)" fill="#707070"/>
          </g>
        </g>
        <g id="Group_2828" data-name="Group 2828" transform="translate(120.245 23.757)">
          <g id="Group_2827" data-name="Group 2827" transform="translate(0)">
            <path id="Path_5049" data-name="Path 5049" d="M322.686,320.646H321.2a.556.556,0,0,0,0,1.111h1.485a.556.556,0,1,0,0-1.111Z" transform="translate(-320.645 -320.646)" fill="#707070"/>
          </g>
        </g>
        <g id="Group_2830" data-name="Group 2830" transform="translate(107.773 5.939)">
          <g id="Group_2829" data-name="Group 2829" transform="translate(0)">
            <path id="Path_5050" data-name="Path 5050" d="M159.4,80.161h-6.533a.556.556,0,1,0,0,1.111H159.4a.556.556,0,1,0,0-1.111Z" transform="translate(-152.307 -80.161)" fill="#707070"/>
          </g>
        </g>
        <g id="Group_2832" data-name="Group 2832" transform="translate(107.773 8.909)">
          <g id="Group_2831" data-name="Group 2831" transform="translate(0)">
            <path id="Path_5051" data-name="Path 5051" d="M161.484,120.242h-8.621a.556.556,0,0,0,0,1.111h8.621a.556.556,0,0,0,0-1.111Z" transform="translate(-152.307 -120.242)" fill="#707070"/>
          </g>
        </g>
        <g id="Group_2834" data-name="Group 2834" transform="translate(107.773 11.879)">
          <g id="Group_2833" data-name="Group 2833" transform="translate(0)">
            <path id="Path_5052" data-name="Path 5052" d="M157.614,160.322h-4.751a.556.556,0,0,0,0,1.111h4.751a.556.556,0,1,0,0-1.111Z" transform="translate(-152.307 -160.322)" fill="#707070"/>
          </g>
        </g>
        <g id="Group_2836" data-name="Group 2836" transform="translate(107.773 14.848)">
          <g id="Group_2835" data-name="Group 2835" transform="translate(0)">
            <path id="Path_5053" data-name="Path 5053" d="M159.4,200.4h-6.533a.556.556,0,1,0,0,1.111H159.4a.556.556,0,1,0,0-1.111Z" transform="translate(-152.307 -200.404)" fill="#707070"/>
          </g>
        </g>
        <g id="Group_2838" data-name="Group 2838" transform="translate(107.773 17.818)">
          <g id="Group_2837" data-name="Group 2837" transform="translate(0)">
            <path id="Path_5054" data-name="Path 5054" d="M161.771,240.484h-8.909a.556.556,0,0,0,0,1.111h8.909a.556.556,0,1,0,0-1.111Z" transform="translate(-152.307 -240.484)" fill="#707070"/>
          </g>
        </g>
        <g id="Group_2840" data-name="Group 2840" transform="translate(107.773 20.787)">
          <g id="Group_2839" data-name="Group 2839" transform="translate(0)">
            <path id="Path_5055" data-name="Path 5055" d="M157.614,280.565h-4.751a.556.556,0,0,0,0,1.111h4.751a.556.556,0,1,0,0-1.111Z" transform="translate(-152.307 -280.565)" fill="#707070"/>
          </g>
        </g>
        <g id="Group_2842" data-name="Group 2842" transform="translate(107.773 23.757)">
          <g id="Group_2841" data-name="Group 2841" transform="translate(0)">
            <path id="Path_5056" data-name="Path 5056" d="M159.4,320.646h-6.533a.556.556,0,1,0,0,1.111H159.4a.556.556,0,1,0,0-1.111Z" transform="translate(-152.307 -320.646)" fill="#707070"/>
          </g>
        </g>
        <g id="Group_2844" data-name="Group 2844" transform="translate(110.742 27.914)">
          <g id="Group_2843" data-name="Group 2843" transform="translate(0)">
            <path id="Path_5057" data-name="Path 5057" d="M201.258,376.758h-8.315a.556.556,0,0,0,0,1.111h8.315a.556.556,0,1,0,0-1.111Z" transform="translate(-192.387 -376.758)" fill="#707070"/>
          </g>
        </g>
        <g id="Group_2846" data-name="Group 2846" transform="translate(112.524 30.884)">
          <g id="Group_2845" data-name="Group 2845" transform="translate(0)">
            <path id="Path_5058" data-name="Path 5058" d="M221.743,416.839h-4.751a.556.556,0,1,0,0,1.111h4.751a.556.556,0,1,0,0-1.111Z" transform="translate(-216.436 -416.839)" fill="#707070"/>
          </g>
        </g>
        <g id="Group_2848" data-name="Group 2848" transform="translate(104.209 0)">
          <g id="Group_2847" data-name="Group 2847" transform="translate(0 0)">
            <path id="Path_5059" data-name="Path 5059" d="M126.42.072a.556.556,0,0,0-.56.007L124.153,1.1l-1.9-1.036a.556.556,0,0,0-.532,0l-1.912,1.043L117.9.068a.556.556,0,0,0-.532,0l-1.912,1.043L113.544.068a.556.556,0,0,0-.532,0L111.1,1.111,109.188.068a.556.556,0,0,0-.532,0l-1.9,1.036L105.051.079a.556.556,0,0,0-.842.476V37.379a.556.556,0,0,0,.842.476l1.707-1.024,1.9,1.036a.556.556,0,0,0,.532,0l1.912-1.043,1.912,1.043a.556.556,0,0,0,.532,0l1.912-1.043,1.912,1.043a.556.556,0,0,0,.532,0l1.912-1.043,1.912,1.043a.556.556,0,0,0,.532,0l1.9-1.036,1.707,1.024a.556.556,0,0,0,.842-.477V.556A.556.556,0,0,0,126.42.072ZM125.59,36.4h0l-1.138-.683a.556.556,0,0,0-.552-.011l-1.912,1.043L120.077,35.7a.556.556,0,0,0-.532,0l-1.912,1.043L115.721,35.7a.555.555,0,0,0-.532,0l-1.912,1.043L111.366,35.7a.555.555,0,0,0-.532,0l-1.912,1.043L107.011,35.7a.556.556,0,0,0-.552.011l-1.138.683V1.537l1.138.683a.556.556,0,0,0,.552.011l1.912-1.043,1.912,1.043a.556.556,0,0,0,.532,0l1.912-1.043,1.912,1.043a.556.556,0,0,0,.532,0l1.912-1.043,1.912,1.043a.556.556,0,0,0,.532,0l1.912-1.043L123.9,2.231a.556.556,0,0,0,.552-.011l1.138-.683Z" transform="translate(-104.209 0)" fill="#707070"/>
          </g>
        </g>
      </g>
      <g id="home_1_" data-name="home (1)" transform="translate(670 1599.065)">
        <g id="Group_2895" data-name="Group 2895" transform="translate(0 0)">
          <g id="Group_2894" data-name="Group 2894">
            <path id="Path_5221" data-name="Path 5221" d="M48.738,34.378a.735.735,0,0,0-.963.007l-2.006,1.8v-.235a.5.5,0,0,0-1,0v1.128l-.831.744a.5.5,0,0,0,.665.743l3.655-3.272,3.655,3.272a.5.5,0,1,0,.665-.743Z" transform="translate(-41.279 -32.207)" fill="#707070"/>
            <path id="Path_5222" data-name="Path 5222" d="M67.267,119.52a.5.5,0,0,0-.5.5v3.489H61.784v-3.489a.5.5,0,1,0-1,0v3.806a.689.689,0,0,0,.7.68h5.583a.691.691,0,0,0,.7-.682v-3.8A.5.5,0,0,0,67.267,119.52Z" transform="translate(-57.295 -112.542)" fill="#707070"/>
            <path id="Path_5223" data-name="Path 5223" d="M64.276,221.92a3.489,3.489,0,1,0,3.489,3.489A3.489,3.489,0,0,0,64.276,221.92Zm-2.492,3.489a2.5,2.5,0,0,1,1.994-2.442v2.16l-1.844,1.106A2.457,2.457,0,0,1,61.784,225.409Zm.663,1.678,1.752-1.051,1.45,1.449A2.468,2.468,0,0,1,62.447,227.087Zm3.906-.306L64.775,225.2v-2.236a2.488,2.488,0,0,1,1.579,3.814Z" transform="translate(-57.295 -208.96)" fill="#707070"/>
            <path id="Path_5224" data-name="Path 5224" d="M252.947,41.165V39.459a.787.787,0,0,0-.786-.786h-1.419a.787.787,0,0,0-.786.786v1.706h-1V38.04a.863.863,0,0,0-.862-.862h-1.266a.863.863,0,0,0-.862.862v3.125h-1V35.682a1,1,0,0,0-1-1h-1a1,1,0,0,0-1,1v5.483h-.5a.5.5,0,0,1-.5-.5V34.685a.5.5,0,0,0-1,0v5.981a1.5,1.5,0,0,0,1.5,1.5h11.464a.5.5,0,0,0,0-1Zm-8.972,0h-1V35.682h1Zm3.988,0h-1V38.175h1Zm3.988,0h-1v-1.5h1v1.5Z" transform="translate(-226.027 -32.193)" fill="#707070"/>
            <path id="Path_5225" data-name="Path 5225" d="M252.947,211.832H241.482a.5.5,0,0,1-.5-.5v-.791l1.641-1.641a.509.509,0,0,1,.7,0l.584.584a1.5,1.5,0,0,0,2.114,0l2.08-2.08a.509.509,0,0,1,.7,0l.584.585a1.5,1.5,0,0,0,2.114,0L253.3,206.2a.5.5,0,0,0-.7-.7l-1.787,1.787a.5.5,0,0,1-.7,0l-.584-.584a1.531,1.531,0,0,0-2.114,0l-2.08,2.08a.5.5,0,0,1-.7,0l-.584-.584a1.532,1.532,0,0,0-2.115,0l-.937.937v-3.781a.5.5,0,1,0-1,0v5.981a1.5,1.5,0,0,0,1.5,1.5h11.464a.5.5,0,1,0,0-1Z" transform="translate(-226.027 -192.891)" fill="#707070"/>
            <path id="Path_5226" data-name="Path 5226" d="M30.91,23.208V2.817A2.642,2.642,0,0,0,28.418.053H3.5A2.642,2.642,0,0,0,1,2.817V23.208A2.642,2.642,0,0,0,3.5,25.973h7.975v1H9.477a1.994,1.994,0,0,0-1.994,1.994v.5a.5.5,0,0,0,.5.5H23.932a.5.5,0,0,0,.5-.5v-.5a1.994,1.994,0,0,0-1.994-1.994H20.443v-1h7.975A2.642,2.642,0,0,0,30.91,23.208Zm-8.474,4.758a1,1,0,0,1,1,1H8.48a1,1,0,0,1,1-1Zm-9.969-1v-1h6.978v1Zm15.951-1.994H3.5A1.651,1.651,0,0,1,2,23.208V21.985H29.914v1.223A1.651,1.651,0,0,1,28.418,24.976Zm1.5-22.159V20.988H2V2.817A1.65,1.65,0,0,1,3.5,1.05H28.418A1.65,1.65,0,0,1,29.914,2.817Z" transform="translate(-1 -0.053)" fill="#707070"/>
          </g>
        </g>
      </g>
      <path id="home-2" data-name="home" d="M31.78,13.982l0,0L18.664.867a2.959,2.959,0,0,0-4.185,0L1.372,13.973l-.013.013a2.958,2.958,0,0,0,1.969,5.042c.03,0,.061,0,.091,0h.522v9.65a3.468,3.468,0,0,0,3.464,3.464h5.13a.942.942,0,0,0,.942-.942V23.639a1.582,1.582,0,0,1,1.58-1.58h3.026a1.582,1.582,0,0,1,1.58,1.58v7.566a.942.942,0,0,0,.942.942h5.13A3.468,3.468,0,0,0,29.2,28.683v-9.65h.485a2.96,2.96,0,0,0,2.095-5.051Zm-1.334,2.852a1.069,1.069,0,0,1-.761.315H28.259a.942.942,0,0,0-.942.942V28.683a1.582,1.582,0,0,1-1.58,1.58H21.548V23.639a3.468,3.468,0,0,0-3.464-3.464H15.058a3.468,3.468,0,0,0-3.464,3.464v6.624H7.406a1.582,1.582,0,0,1-1.58-1.58V18.091a.942.942,0,0,0-.942-.942h-1.4l-.044,0A1.075,1.075,0,0,1,2.7,15.312h0L15.811,2.2a1.075,1.075,0,0,1,1.521,0l13.11,13.11.006.006A1.078,1.078,0,0,1,30.446,16.834Zm0,0" transform="translate(522.309 1598.072)" fill="#707070"/>
      <g id="phone-book" transform="translate(1342.616 1595.065)">
        <path id="Path_5227" data-name="Path 5227" d="M76.469,0H52.236A1.033,1.033,0,0,0,51.2,1.033V5.576h-1.17a1.033,1.033,0,0,0,0,2.065H51.2v3.442h-1.17a1.033,1.033,0,0,0,0,2.065H51.2v3.442h-1.17a1.033,1.033,0,0,0,0,2.065H51.2V22.1h-1.17a1.033,1.033,0,1,0,0,2.065H51.2v3.442h-1.17a1.033,1.033,0,0,0,0,2.065H51.2v4.544a1.033,1.033,0,0,0,1.033,1.033H76.469A1.033,1.033,0,0,0,77.5,34.215V1.033A1.033,1.033,0,0,0,76.469,0ZM75.436,33.183H53.268V29.672h1.17a1.033,1.033,0,0,0,0-2.065h-1.17V24.164h1.17a1.033,1.033,0,1,0,0-2.065h-1.17V18.657h1.17a1.033,1.033,0,1,0,0-2.065h-1.17V13.149h1.17a1.033,1.033,0,0,0,0-2.065h-1.17V7.642h1.17a1.033,1.033,0,0,0,0-2.065h-1.17V2.065H75.436Z" transform="translate(-49)" fill="#707070"/>
        <path id="Path_5228" data-name="Path 5228" d="M177,152.352a1.033,1.033,0,1,0,2.065,0c0-2.741,1.674-5.576,4.475-5.576s4.475,2.835,4.475,5.576a1.033,1.033,0,0,0,2.065,0,8,8,0,0,0-3.391-6.73,4.888,4.888,0,1,0-6.3,0A8,8,0,0,0,177,152.352Zm3.718-10.464a2.823,2.823,0,1,1,2.823,2.823A2.826,2.826,0,0,1,180.718,141.888Z" transform="translate(-168.188 -127.568)" fill="#707070"/>
      </g>
      <g id="server" transform="translate(1011.062 1600.065)">
        <g id="Group_2897" data-name="Group 2897">
          <g id="Group_2896" data-name="Group 2896">
            <path id="Path_5229" data-name="Path 5229" d="M28.441,8.982a1.5,1.5,0,0,0,1.5-1.5V1.5a1.5,1.5,0,0,0-1.5-1.5H1.5A1.5,1.5,0,0,0,0,1.5V7.485a1.5,1.5,0,0,0,1.5,1.5h1.5v1.5H1.5a1.5,1.5,0,0,0-1.5,1.5v5.988a1.5,1.5,0,0,0,1.5,1.5h1.5v1.5H1.5a1.5,1.5,0,0,0-1.5,1.5v5.988a1.5,1.5,0,0,0,1.5,1.5H28.441a1.5,1.5,0,0,0,1.5-1.5V22.454a1.5,1.5,0,0,0-1.5-1.5h-1.5v-1.5h1.5a1.5,1.5,0,0,0,1.5-1.5V11.975a1.5,1.5,0,0,0-1.5-1.5h-1.5v-1.5Zm0,12.973a.5.5,0,0,1,.5.5v5.988a.5.5,0,0,1-.5.5H1.5a.5.5,0,0,1-.5-.5V22.454a.5.5,0,0,1,.5-.5Zm-24.45-1v-1.5h1v1.5Zm2,0v-1.5H23.951v1.5Zm18.961,0v-1.5h1v1.5Zm3.493-9.48a.5.5,0,0,1,.5.5v5.988a.5.5,0,0,1-.5.5H1.5a.5.5,0,0,1-.5-.5V11.975a.5.5,0,0,1,.5-.5Zm-24.45-1v-1.5h1v1.5Zm2,0v-1.5H23.951v1.5Zm18.961,0v-1.5h1v1.5ZM1.5,7.984a.5.5,0,0,1-.5-.5V1.5A.5.5,0,0,1,1.5,1H28.441a.5.5,0,0,1,.5.5V7.485a.5.5,0,0,1-.5.5Z" fill="#707070"/>
          </g>
        </g>
        <g id="Group_2899" data-name="Group 2899" transform="translate(2.987 2.993)">
          <g id="Group_2898" data-name="Group 2898">
            <path id="Path_5230" data-name="Path 5230" d="M60.874,48.992H50.8a1.5,1.5,0,1,0,0,1H60.874a.5.5,0,0,0,0-1Zm-11.476,1a.5.5,0,1,1,.5-.5A.5.5,0,0,1,49.4,49.99Z" transform="translate(-47.894 -47.994)" fill="#707070"/>
          </g>
        </g>
        <g id="Group_2901" data-name="Group 2901" transform="translate(21.869 1.53)">
          <g id="Group_2900" data-name="Group 2900" transform="translate(0 0)">
            <rect id="Rectangle_924" data-name="Rectangle 924" width="1" height="1" transform="translate(0.069 0.405)" fill="#707070"/>
          </g>
        </g>
        <g id="Group_2903" data-name="Group 2903" transform="translate(24.451 1.53)">
          <g id="Group_2902" data-name="Group 2902" transform="translate(0 0)">
            <rect id="Rectangle_925" data-name="Rectangle 925" height="1" transform="translate(0.487 0.405)" fill="#707070"/>
          </g>
        </g>
        <g id="Group_2905" data-name="Group 2905" transform="translate(25.742 1.53)">
          <g id="Group_2904" data-name="Group 2904" transform="translate(0 0)">
            <rect id="Rectangle_926" data-name="Rectangle 926" width="1" height="1" transform="translate(0.196 0.405)" fill="#707070"/>
          </g>
        </g>
        <g id="Group_2907" data-name="Group 2907" transform="translate(20.579 1.53)">
          <g id="Group_2906" data-name="Group 2906" transform="translate(0 0)">
            <rect id="Rectangle_927" data-name="Rectangle 927" height="1" transform="translate(0.359 0.405)" fill="#707070"/>
          </g>
        </g>
        <g id="Group_2909" data-name="Group 2909" transform="translate(17.995 1.53)">
          <g id="Group_2908" data-name="Group 2908" transform="translate(0 0)">
            <rect id="Rectangle_928" data-name="Rectangle 928" width="1" height="1" transform="translate(-0.057 0.405)" fill="#707070"/>
          </g>
        </g>
        <g id="Group_2911" data-name="Group 2911" transform="translate(21.869 4.112)">
          <g id="Group_2910" data-name="Group 2910" transform="translate(0 0)">
            <rect id="Rectangle_929" data-name="Rectangle 929" width="1" height="1" transform="translate(0.069 -0.177)" fill="#707070"/>
          </g>
        </g>
        <g id="Group_2913" data-name="Group 2913" transform="translate(24.451 4.112)">
          <g id="Group_2912" data-name="Group 2912" transform="translate(0 0)">
            <rect id="Rectangle_930" data-name="Rectangle 930" height="1" transform="translate(0.487 -0.177)" fill="#707070"/>
          </g>
        </g>
        <g id="Group_2915" data-name="Group 2915" transform="translate(25.742 4.112)">
          <g id="Group_2914" data-name="Group 2914" transform="translate(0 0)">
            <rect id="Rectangle_931" data-name="Rectangle 931" width="1" height="1" transform="translate(0.196 -0.177)" fill="#707070"/>
          </g>
        </g>
        <g id="Group_2917" data-name="Group 2917" transform="translate(20.579 4.112)">
          <g id="Group_2916" data-name="Group 2916" transform="translate(0 0)">
            <rect id="Rectangle_932" data-name="Rectangle 932" height="1" transform="translate(0.359 -0.177)" fill="#707070"/>
          </g>
        </g>
        <g id="Group_2919" data-name="Group 2919" transform="translate(17.995 4.112)">
          <g id="Group_2918" data-name="Group 2918" transform="translate(0 0)">
            <rect id="Rectangle_933" data-name="Rectangle 933" width="1" height="1" transform="translate(-0.057 -0.177)" fill="#707070"/>
          </g>
        </g>
        <g id="Group_2921" data-name="Group 2921" transform="translate(21.869 5.403)">
          <g id="Group_2920" data-name="Group 2920" transform="translate(0 0)">
            <rect id="Rectangle_934" data-name="Rectangle 934" width="1" height="2" transform="translate(0.069 -0.469)" fill="#707070"/>
          </g>
        </g>
        <g id="Group_2923" data-name="Group 2923" transform="translate(24.451 5.403)">
          <g id="Group_2922" data-name="Group 2922" transform="translate(0 0)">
            <rect id="Rectangle_935" data-name="Rectangle 935" height="2" transform="translate(0.487 -0.469)" fill="#707070"/>
          </g>
        </g>
        <g id="Group_2925" data-name="Group 2925" transform="translate(25.742 5.403)">
          <g id="Group_2924" data-name="Group 2924" transform="translate(0 0)">
            <rect id="Rectangle_936" data-name="Rectangle 936" width="1" height="2" transform="translate(0.196 -0.469)" fill="#707070"/>
          </g>
        </g>
        <g id="Group_2927" data-name="Group 2927" transform="translate(20.579 5.403)">
          <g id="Group_2926" data-name="Group 2926" transform="translate(0 0)">
            <rect id="Rectangle_937" data-name="Rectangle 937" height="2" transform="translate(0.359 -0.469)" fill="#707070"/>
          </g>
        </g>
        <g id="Group_2929" data-name="Group 2929" transform="translate(17.995 5.403)">
          <g id="Group_2928" data-name="Group 2928" transform="translate(0 0)">
            <rect id="Rectangle_938" data-name="Rectangle 938" width="1" height="2" transform="translate(-0.057 -0.469)" fill="#707070"/>
          </g>
        </g>
        <g id="Group_2931" data-name="Group 2931" transform="translate(2.987 13.472)">
          <g id="Group_2930" data-name="Group 2930">
            <path id="Path_5231" data-name="Path 5231" d="M60.874,216.992H50.8a1.5,1.5,0,1,0,0,1H60.874a.5.5,0,1,0,0-1Zm-11.476,1a.5.5,0,1,1,.5-.5A.5.5,0,0,1,49.4,217.99Z" transform="translate(-47.894 -215.994)" fill="#707070"/>
          </g>
        </g>
        <g id="Group_2933" data-name="Group 2933" transform="translate(21.869 13.15)">
          <g id="Group_2932" data-name="Group 2932" transform="translate(0 0)">
            <rect id="Rectangle_939" data-name="Rectangle 939" width="1" transform="translate(0.069 -0.216)" fill="#707070"/>
          </g>
        </g>
        <g id="Group_2935" data-name="Group 2935" transform="translate(24.451 13.15)">
          <g id="Group_2934" data-name="Group 2934" transform="translate(0 0)">
            <rect id="Rectangle_940" data-name="Rectangle 940" transform="translate(0.487 -0.216)" fill="#707070"/>
          </g>
        </g>
        <g id="Group_2937" data-name="Group 2937" transform="translate(25.742 13.15)">
          <g id="Group_2936" data-name="Group 2936" transform="translate(0 0)">
            <rect id="Rectangle_941" data-name="Rectangle 941" width="1" transform="translate(0.196 -0.216)" fill="#707070"/>
          </g>
        </g>
        <g id="Group_2939" data-name="Group 2939" transform="translate(20.579 13.15)">
          <g id="Group_2938" data-name="Group 2938" transform="translate(0 0)">
            <rect id="Rectangle_942" data-name="Rectangle 942" transform="translate(0.359 -0.216)" fill="#707070"/>
          </g>
        </g>
        <g id="Group_2941" data-name="Group 2941" transform="translate(17.995 13.15)">
          <g id="Group_2940" data-name="Group 2940" transform="translate(0 0)">
            <rect id="Rectangle_943" data-name="Rectangle 943" width="1" transform="translate(-0.057 -0.216)" fill="#707070"/>
          </g>
        </g>
        <g id="Group_2943" data-name="Group 2943" transform="translate(21.869 14.441)">
          <g id="Group_2942" data-name="Group 2942" transform="translate(0 0)">
            <rect id="Rectangle_944" data-name="Rectangle 944" width="1" height="1" transform="translate(0.069 0.493)" fill="#707070"/>
          </g>
        </g>
        <g id="Group_2945" data-name="Group 2945" transform="translate(24.451 14.441)">
          <g id="Group_2944" data-name="Group 2944" transform="translate(0 0)">
            <rect id="Rectangle_945" data-name="Rectangle 945" height="1" transform="translate(0.487 0.493)" fill="#707070"/>
          </g>
        </g>
        <g id="Group_2947" data-name="Group 2947" transform="translate(25.742 14.441)">
          <g id="Group_2946" data-name="Group 2946" transform="translate(0 0)">
            <rect id="Rectangle_946" data-name="Rectangle 946" width="1" height="1" transform="translate(0.196 0.493)" fill="#707070"/>
          </g>
        </g>
        <g id="Group_2949" data-name="Group 2949" transform="translate(20.579 14.441)">
          <g id="Group_2948" data-name="Group 2948" transform="translate(0 0)">
            <rect id="Rectangle_947" data-name="Rectangle 947" height="1" transform="translate(0.359 0.493)" fill="#707070"/>
          </g>
        </g>
        <g id="Group_2951" data-name="Group 2951" transform="translate(17.995 14.441)">
          <g id="Group_2950" data-name="Group 2950" transform="translate(0 0)">
            <rect id="Rectangle_948" data-name="Rectangle 948" width="1" height="1" transform="translate(-0.057 0.493)" fill="#707070"/>
          </g>
        </g>
        <g id="Group_2953" data-name="Group 2953" transform="translate(21.869 17.022)">
          <g id="Group_2952" data-name="Group 2952" transform="translate(0 0)">
            <rect id="Rectangle_949" data-name="Rectangle 949" width="1" transform="translate(0.069 -0.088)" fill="#707070"/>
          </g>
        </g>
        <g id="Group_2955" data-name="Group 2955" transform="translate(24.451 17.022)">
          <g id="Group_2954" data-name="Group 2954" transform="translate(0 0)">
            <rect id="Rectangle_950" data-name="Rectangle 950" transform="translate(0.487 -0.088)" fill="#707070"/>
          </g>
        </g>
        <g id="Group_2957" data-name="Group 2957" transform="translate(25.742 17.022)">
          <g id="Group_2956" data-name="Group 2956" transform="translate(0 0)">
            <rect id="Rectangle_951" data-name="Rectangle 951" width="1" transform="translate(0.196 -0.088)" fill="#707070"/>
          </g>
        </g>
        <g id="Group_2959" data-name="Group 2959" transform="translate(20.579 17.022)">
          <g id="Group_2958" data-name="Group 2958" transform="translate(0 0)">
            <rect id="Rectangle_952" data-name="Rectangle 952" transform="translate(0.359 -0.088)" fill="#707070"/>
          </g>
        </g>
        <g id="Group_2961" data-name="Group 2961" transform="translate(17.995 17.022)">
          <g id="Group_2960" data-name="Group 2960" transform="translate(0 0)">
            <rect id="Rectangle_953" data-name="Rectangle 953" width="1" transform="translate(-0.057 -0.088)" fill="#707070"/>
          </g>
        </g>
        <g id="Group_2963" data-name="Group 2963" transform="translate(2.987 23.95)">
          <g id="Group_2962" data-name="Group 2962">
            <path id="Path_5232" data-name="Path 5232" d="M60.874,384.992H50.8a1.5,1.5,0,1,0,0,1H60.874a.5.5,0,1,0,0-1Zm-11.476,1a.5.5,0,1,1,.5-.5A.5.5,0,0,1,49.4,385.99Z" transform="translate(-47.894 -383.994)" fill="#707070"/>
          </g>
        </g>
        <g id="Group_2965" data-name="Group 2965" transform="translate(21.869 23.478)">
          <g id="Group_2964" data-name="Group 2964" transform="translate(0 0)">
            <rect id="Rectangle_954" data-name="Rectangle 954" width="1" transform="translate(0.069 0.457)" fill="#707070"/>
          </g>
        </g>
        <g id="Group_2967" data-name="Group 2967" transform="translate(24.451 23.478)">
          <g id="Group_2966" data-name="Group 2966" transform="translate(0 0)">
            <rect id="Rectangle_955" data-name="Rectangle 955" transform="translate(0.487 0.457)" fill="#707070"/>
          </g>
        </g>
        <g id="Group_2969" data-name="Group 2969" transform="translate(25.742 23.478)">
          <g id="Group_2968" data-name="Group 2968" transform="translate(0 0)">
            <rect id="Rectangle_956" data-name="Rectangle 956" width="1" transform="translate(0.196 0.457)" fill="#707070"/>
          </g>
        </g>
        <g id="Group_2971" data-name="Group 2971" transform="translate(20.579 23.478)">
          <g id="Group_2970" data-name="Group 2970" transform="translate(0 0)">
            <rect id="Rectangle_957" data-name="Rectangle 957" transform="translate(0.359 0.457)" fill="#707070"/>
          </g>
        </g>
        <g id="Group_2973" data-name="Group 2973" transform="translate(17.995 23.478)">
          <g id="Group_2972" data-name="Group 2972" transform="translate(0 0)">
            <rect id="Rectangle_958" data-name="Rectangle 958" width="1" transform="translate(-0.057 0.457)" fill="#707070"/>
          </g>
        </g>
        <g id="Group_2975" data-name="Group 2975" transform="translate(21.869 24.769)">
          <g id="Group_2974" data-name="Group 2974" transform="translate(0 0)">
            <rect id="Rectangle_959" data-name="Rectangle 959" width="1" height="1" transform="translate(0.069 0.165)" fill="#707070"/>
          </g>
        </g>
        <g id="Group_2977" data-name="Group 2977" transform="translate(24.451 24.769)">
          <g id="Group_2976" data-name="Group 2976" transform="translate(0 0)">
            <rect id="Rectangle_960" data-name="Rectangle 960" height="1" transform="translate(0.487 0.165)" fill="#707070"/>
          </g>
        </g>
        <g id="Group_2979" data-name="Group 2979" transform="translate(25.742 24.769)">
          <g id="Group_2978" data-name="Group 2978" transform="translate(0 0)">
            <rect id="Rectangle_961" data-name="Rectangle 961" width="1" height="1" transform="translate(0.196 0.165)" fill="#707070"/>
          </g>
        </g>
        <g id="Group_2981" data-name="Group 2981" transform="translate(20.579 24.769)">
          <g id="Group_2980" data-name="Group 2980" transform="translate(0 0)">
            <rect id="Rectangle_962" data-name="Rectangle 962" height="1" transform="translate(0.359 0.165)" fill="#707070"/>
          </g>
        </g>
        <g id="Group_2983" data-name="Group 2983" transform="translate(17.995 24.769)">
          <g id="Group_2982" data-name="Group 2982" transform="translate(0 0)">
            <rect id="Rectangle_963" data-name="Rectangle 963" width="1" height="1" transform="translate(-0.057 0.165)" fill="#707070"/>
          </g>
        </g>
        <g id="Group_2985" data-name="Group 2985" transform="translate(21.869 27.351)">
          <g id="Group_2984" data-name="Group 2984" transform="translate(0 0)">
            <rect id="Rectangle_964" data-name="Rectangle 964" width="1" transform="translate(0.069 -0.417)" fill="#707070"/>
          </g>
        </g>
        <g id="Group_2987" data-name="Group 2987" transform="translate(24.451 27.351)">
          <g id="Group_2986" data-name="Group 2986" transform="translate(0 0)">
            <rect id="Rectangle_965" data-name="Rectangle 965" transform="translate(0.487 -0.417)" fill="#707070"/>
          </g>
        </g>
        <g id="Group_2989" data-name="Group 2989" transform="translate(25.742 27.351)">
          <g id="Group_2988" data-name="Group 2988" transform="translate(0 0)">
            <rect id="Rectangle_966" data-name="Rectangle 966" width="1" transform="translate(0.196 -0.417)" fill="#707070"/>
          </g>
        </g>
        <g id="Group_2991" data-name="Group 2991" transform="translate(20.579 27.351)">
          <g id="Group_2990" data-name="Group 2990" transform="translate(0 0)">
            <rect id="Rectangle_967" data-name="Rectangle 967" transform="translate(0.359 -0.417)" fill="#707070"/>
          </g>
        </g>
        <g id="Group_2993" data-name="Group 2993" transform="translate(17.995 27.351)">
          <g id="Group_2992" data-name="Group 2992" transform="translate(0 0)">
            <rect id="Rectangle_968" data-name="Rectangle 968" width="1" transform="translate(-0.057 -0.417)" fill="#707070"/>
          </g>
        </g>
      </g>
      <g id="Page-1" transform="translate(1180 1594.065)">
        <g id="_072---Walkie-Talkie" data-name="072---Walkie-Talkie" transform="translate(0.001)">
          <path id="Shape" d="M20.322,0a1.9,1.9,0,0,0-1.9,1.9V7.7a1.9,1.9,0,0,0-1.264,1.78v.632A3.165,3.165,0,0,0,14,13.277v21.5a3.165,3.165,0,0,0,3.161,3.161H31.071a3.165,3.165,0,0,0,3.161-3.161v-21.5a3.165,3.165,0,0,0-3.161-3.161H23.484V9.484A1.9,1.9,0,0,0,22.219,7.7V1.9A1.9,1.9,0,0,0,20.322,0ZM19.69,1.9a.632.632,0,0,1,1.264,0v5.69H19.69ZM15.264,34.773V27.038l1.283.769a1.271,1.271,0,0,1,.614,1.086V36.67a1.9,1.9,0,0,1-1.9-1.9Zm15.806,1.9V28.893a1.271,1.271,0,0,1,.614-1.084l1.283-.771v7.735A1.9,1.9,0,0,1,31.071,36.67Zm1.9-23.393V25.564l-1.933,1.16a2.539,2.539,0,0,0-1.228,2.169V36.67H18.426V28.893A2.539,2.539,0,0,0,17.2,26.726l-1.933-1.161V13.277a1.9,1.9,0,0,1,1.9-1.9H31.071a1.9,1.9,0,0,1,1.9,1.9ZM18.426,10.116V9.484a.632.632,0,0,1,.632-.632h2.529a.632.632,0,0,1,.632.632v.632Z" transform="translate(-5.149)" fill="#707070"/>
          <path id="Shape-2" data-name="Shape" d="M28.9,37.793A1.9,1.9,0,1,0,27,35.9,1.9,1.9,0,0,0,28.9,37.793Zm0-2.529a.632.632,0,1,1-.632.632A.632.632,0,0,1,28.9,35.264Z" transform="translate(-9.93 -12.504)" fill="#707070"/>
          <ellipse id="Oval" cx="1" cy="0.5" rx="1" ry="0.5" transform="translate(18 28.934)" fill="#707070"/>
          <ellipse id="Oval-2" data-name="Oval" cx="1" cy="0.5" rx="1" ry="0.5" transform="translate(18 31.934)" fill="#707070"/>
          <circle id="Oval-3" data-name="Oval" cx="0.5" cy="0.5" r="0.5" transform="translate(15 31.934)" fill="#707070"/>
          <circle id="Oval-4" data-name="Oval" cx="0.5" cy="0.5" r="0.5" transform="translate(22 31.934)" fill="#707070"/>
          <ellipse id="Oval-5" data-name="Oval" cx="1" cy="0.5" rx="1" ry="0.5" transform="translate(18 33.934)" fill="#707070"/>
          <circle id="Oval-6" data-name="Oval" cx="1" cy="1" r="1" transform="translate(16 29.934)" fill="#707070"/>
          <ellipse id="Oval-7" data-name="Oval" cx="1" cy="0.5" rx="1" ry="0.5" transform="translate(16 32.934)" fill="#707070"/>
          <ellipse id="Oval-8" data-name="Oval" cx="0.5" cy="1" rx="0.5" ry="1" transform="translate(20 29.934)" fill="#707070"/>
          <circle id="Oval-9" data-name="Oval" cx="0.5" cy="0.5" r="0.5" transform="translate(20 32.934)" fill="#707070"/>
          <path id="Shape-3" data-name="Shape" d="M21,21.9V25.69a1.9,1.9,0,0,0,1.9,1.9h7.587a1.9,1.9,0,0,0,1.9-1.9V21.9a1.9,1.9,0,0,0-1.9-1.9H22.9A1.9,1.9,0,0,0,21,21.9Zm1.264,3.793V21.9a.632.632,0,0,1,.632-.632h2.39l-1.012,5.058H22.9A.632.632,0,0,1,22.264,25.69Zm4.312-4.426h1.239L26.8,26.322H25.565Zm4.54.632V25.69a.632.632,0,0,1-.632.632h-2.39l1.012-5.058h1.378A.632.632,0,0,1,31.116,21.9Z" transform="translate(-7.723 -7.355)" fill="#707070"/>
          <path id="Shape-4" data-name="Shape" d="M21.161,34H19.9a1.9,1.9,0,0,0,0,3.793h1.264a1.264,1.264,0,0,0,1.264-1.264V35.264A1.264,1.264,0,0,0,21.161,34ZM19.9,36.529a.632.632,0,0,1,0-1.264h1.264v1.264Z" transform="translate(-6.62 -12.504)" fill="#707070"/>
          <path id="Shape-5" data-name="Shape" d="M36.264,34A1.264,1.264,0,0,0,35,35.264v1.264a1.264,1.264,0,0,0,1.264,1.264h1.264a1.9,1.9,0,0,0,0-3.793Zm1.9,1.9a.632.632,0,0,1-.632.632H36.264V35.264h1.264A.632.632,0,0,1,38.161,35.9Z" transform="translate(-12.872 -12.504)" fill="#707070"/>
          <path id="Shape-6" data-name="Shape" d="M9.575,30.082a.632.632,0,0,0-.861.24,6,6,0,0,0,0,5.678.632.632,0,0,0,.551.322.626.626,0,0,0,.31-.082.632.632,0,0,0,.24-.861,4.742,4.742,0,0,1,0-4.436.632.632,0,0,0-.24-.862Z" transform="translate(-2.942 -11.033)" fill="#707070"/>
          <path id="Shape-7" data-name="Shape" d="M6.239,27.1a.632.632,0,0,0-.874.19,9.008,9.008,0,0,0,0,9.535.632.632,0,1,0,1.063-.684,7.746,7.746,0,0,1,0-8.167.632.632,0,0,0-.188-.874Z" transform="translate(-1.471 -9.929)" fill="#707070"/>
          <path id="Shape-8" data-name="Shape" d="M2.006,24.277a12.119,12.119,0,0,0,0,13.354.633.633,0,1,0,1.048-.709,10.852,10.852,0,0,1,0-11.935.632.632,0,1,0-1.047-.709Z" transform="translate(-0.001 -8.826)" fill="#707070"/>
          <path id="Shape-9" data-name="Shape" d="M49.319,36.235a.632.632,0,0,0,.862-.24,6.006,6.006,0,0,0,0-5.678.632.632,0,1,0-1.1.621,4.742,4.742,0,0,1,0,4.436A.632.632,0,0,0,49.319,36.235Z" transform="translate(-18.018 -11.027)" fill="#707070"/>
          <path id="Shape-10" data-name="Shape" d="M52.289,37.013a.632.632,0,0,0,.874-.19,9.008,9.008,0,0,0,0-9.535.632.632,0,1,0-1.063.684,7.746,7.746,0,0,1,0,8.167A.632.632,0,0,0,52.289,37.013Z" transform="translate(-19.122 -9.928)" fill="#707070"/>
          <path id="Shape-11" data-name="Shape" d="M55.278,24.109a.632.632,0,0,0-.169.878,10.852,10.852,0,0,1,0,11.935.633.633,0,1,0,1.048.709,12.119,12.119,0,0,0,0-13.354.632.632,0,0,0-.878-.169Z" transform="translate(-20.227 -8.826)" fill="#707070"/>
        </g>
      </g>
    </g>
  </g>
</svg>
