<svg xmlns="http://www.w3.org/2000/svg" xmlns:xlink="http://www.w3.org/1999/xlink" width="1232.5" height="357.115" viewBox="0 0 1232.5 357.115">
  <defs>
    <linearGradient id="linear-gradient" x1="0.5" y1="1" x2="0.5" gradientUnits="objectBoundingBox">
      <stop offset="0" stop-color="gray" stop-opacity="0.251"/>
      <stop offset="0.54" stop-color="gray" stop-opacity="0.122"/>
      <stop offset="1" stop-color="gray" stop-opacity="0.102"/>
    </linearGradient>
  </defs>
  <g id="Group_2638" data-name="Group 2638" transform="translate(-315 -4068.468)">
    <text id="Technician" transform="translate(830 4084)" fill="#21232a" font-size="20" font-family="HelveticaNeue-Bold, Helvetica Neue" font-weight="700"><tspan x="0.09" y="20">Technician</tspan></text>
    <text id="Main_Purpose" data-name="Main
Purpose" transform="translate(677 4174)" fill="#21232a" font-size="20" font-family="HelveticaNeue-Bold, Helvetica Neue" font-weight="700"><tspan x="21.18" y="20">Main</tspan><tspan x="4.68" y="45">Purpose</tspan></text>
    <text id="Example_Use_Case" data-name="Example
Use Case" transform="translate(670 4301)" fill="#21232a" font-size="20" font-family="HelveticaNeue-Bold, Helvetica Neue" font-weight="700"><tspan x="10.42" y="20">Example</tspan><tspan x="5.94" y="45">Use Case</tspan></text>
    <text id="CSA" transform="translate(981 4084)" fill="#21232a" font-size="20" font-family="HelveticaNeue-Bold, Helvetica Neue" font-weight="700"><tspan x="64.25" y="20">CSA</tspan></text>
    <line id="Line_89" data-name="Line 89" y2="357.115" transform="translate(788.5 4068.468)" fill="none" stroke="#707070" stroke-width="1" opacity="0.2"/>
    <line id="Line_90" data-name="Line 90" x1="895.5" transform="translate(652 4269.5)" fill="none" stroke="#707070" stroke-width="1" opacity="0.2"/>
    <text id="To_execute_requested_changes_to_customer_status" data-name="To execute requested changes to customer status" transform="translate(808 4174)" fill="#707070" font-size="14" font-family="HelveticaNeue, Helvetica Neue"><tspan x="5.209" y="13">To execute requested </tspan><tspan x="6.371" y="29">changes to customer </tspan><tspan x="53.439" y="45">status</tspan></text>
    <text id="Same_as_Technician" data-name="Same as
Technician" transform="translate(1026 4174)" fill="#707070" font-size="14" font-family="HelveticaNeue, Helvetica Neue"><tspan x="13.27" y="13">Same as</tspan><tspan x="7.439" y="29">Technician</tspan></text>
    <text id="Reviewing_which_customers_need_to_be_de-_re-activated_and_making_the_necessary_changes_to_their_connection" data-name="Reviewing which customers need to be de-/re-activated, and making the necessary changes to their connection" transform="translate(808 4301)" fill="#707070" font-size="14" font-family="HelveticaNeue, Helvetica Neue"><tspan x="20.014" y="13">Reviewing which </tspan><tspan x="4.033" y="29">customers need to be </tspan><tspan x="6.504" y="45">de-/re-activated, and </tspan><tspan x="4.166" y="61">making the necessary </tspan><tspan x="22.065" y="77">changes to their </tspan><tspan x="37.752" y="93">connection</tspan></text>
    <text id="Same_as_Technician-2" data-name="Same as
Technician" transform="translate(1001 4301)" fill="#707070" font-size="14" font-family="HelveticaNeue, Helvetica Neue"><tspan x="37.77" y="13">Same as</tspan><tspan x="31.939" y="29">Technician</tspan></text>
    <line id="Line_91" data-name="Line 91" y2="357.115" transform="translate(973.5 4068.468)" fill="none" stroke="#707070" stroke-width="1" opacity="0.2"/>
    <line id="Line_92" data-name="Line 92" y2="357.115" transform="translate(1157.5 4068.468)" fill="none" stroke="#707070" stroke-width="1" opacity="0.2"/>
    <text id="Cluster_In-charge" data-name="Cluster
In-charge" transform="translate(1200 4084)" fill="#21232a" font-size="20" font-family="HelveticaNeue-Bold, Helvetica Neue" font-weight="700"><tspan x="16.56" y="20">Cluster</tspan><tspan x="5.18" y="45">In-charge</tspan></text>
    <text id="State_In-carge" data-name="State
In-carge" transform="translate(1368 4084)" fill="#21232a" font-size="20" font-family="HelveticaNeue-Bold, Helvetica Neue" font-weight="700"><tspan x="42.49" y="20">State</tspan><tspan x="27.61" y="45">In-carge</tspan></text>
    <text id="To_register_a_change_to_customer_status_and_assign_to_field_personnel" data-name="To register a change to customer status and assign to field personnel" transform="translate(1185 4174)" fill="#707070" font-size="14" font-family="HelveticaNeue, Helvetica Neue"><tspan x="2.734" y="13">To register a change </tspan><tspan x="7.389" y="29">to customer status </tspan><tspan x="8.824" y="45">and assign to field </tspan><tspan x="35.144" y="61">personnel</tspan></text>
    <text id="Approve_customer_status_requests_at_plants_in_the_state" data-name="Approve customer status requests at plants in the state" transform="translate(1372 4174)" fill="#707070" font-size="14" font-family="HelveticaNeue, Helvetica Neue"><tspan x="5.799" y="13">Approve customer </tspan><tspan x="7.612" y="29">status requests at </tspan><tspan x="7.871" y="45">plants in the state</tspan></text>
    <text id="Using_the_app_to_check_with_a_field_agent_whether_they_are_available_for_executing_the_change" data-name="Using the app to check with a field agent whether they are available for executing the change" transform="translate(1184 4301)" fill="#707070" font-size="14" font-family="HelveticaNeue, Helvetica Neue"><tspan x="14.504" y="13">Using the app to </tspan><tspan x="12.054" y="29">check with a field </tspan><tspan x="6.475" y="45">agent whether they </tspan><tspan x="17.115" y="61">are available for </tspan><tspan x="24.234" y="77">executing the </tspan><tspan x="43.421" y="93">change</tspan></text>
    <text id="Checking_how_many_status_change_requests_are_pending_and_at_which_plants" data-name="Checking how many status change requests are pending and at which plants" transform="translate(1370 4301)" fill="#707070" font-size="14" font-family="HelveticaNeue, Helvetica Neue"><tspan x="2.209" y="13">Checking how many </tspan><tspan x="21.914" y="29">status change </tspan><tspan x="27.36" y="45">requests are </tspan><tspan x="18.925" y="61">pending and at </tspan><tspan x="26.59" y="77">which plants</tspan></text>
    <line id="Line_93" data-name="Line 93" y2="357.115" transform="translate(1341.5 4068.468)" fill="none" stroke="#707070" stroke-width="1" opacity="0.2"/>
    <g id="undraw_dashboard_nklg" transform="translate(315 4136.724)">
      <path id="Path_2543" data-name="Path 2543" d="M422.895,73.884A67.727,67.727,0,0,0,409.763,56.2L227.607,54.68,377.583,36.874a98.828,98.828,0,0,0-30.429-5.1C332.716,21.914,314.16,16,293.919,16a95.667,95.667,0,0,0-48.645,12.868,97.69,97.69,0,0,0-38.991-7.941c-40.473,0-74.2,23.7-81.763,55.125Z" transform="translate(-98.298 -15.95)" fill="#00b0ff" opacity="0.1"/>
      <path id="Path_2544" data-name="Path 2544" d="M366,243.545a57.705,57.705,0,0,0-5.677-24.875l-315.7,28.015a61.378,61.378,0,0,0-7.4,15.791l97.762,12.32L35,283.777c3.008,35.578,39.084,63.669,83.154,63.669,22.183,0,42.339-7.118,57.275-18.726,14.983,11.828,35.332,19.1,57.755,19.1,33.267,0,61.982-16.014,75.354-39.166,26.826-7.2,47.664-25.273,54.8-47.884L239.7,244.561H366Z" transform="translate(-35 -159.254)" fill="#00b0ff" opacity="0.1"/>
      <ellipse id="Ellipse_176" data-name="Ellipse 176" cx="84.941" cy="3.79" rx="84.941" ry="3.79" transform="translate(61.513 246.736)" fill="#00b0ff" opacity="0.1"/>
      <path id="Path_2545" data-name="Path 2545" d="M543.578,750.127v2.291H475.84v-1.86a22.262,22.262,0,0,0,1.532-41.117h65.746a22.262,22.262,0,0,0,.46,40.687Z" transform="translate(-346.709 -506.267)" fill="#c8cad7"/>
      <path id="Path_2546" data-name="Path 2546" d="M546.823,709.44a22.294,22.294,0,0,0-12.3,14.76H493.383a22.3,22.3,0,0,0-12.3-14.76Z" transform="translate(-350.414 -506.267)" opacity="0.1"/>
      <path id="Path_2547" data-name="Path 2547" d="M211,669.6v12.859c0,7.1,5.2,12.856,11.608,12.856H421.917c6.412,0,11.608-5.756,11.608-12.856V669.6Z" transform="translate(-159.446 -478.097)" fill="#c8cad7"/>
      <path id="Path_2548" data-name="Path 2548" d="M543.578,842.662v2.291H475.84v-1.86a22.26,22.26,0,0,0,5.223-2.783h58.361A22.376,22.376,0,0,0,543.578,842.662Z" transform="translate(-346.709 -598.803)" opacity="0.1"/>
      <rect id="Rectangle_433" data-name="Rectangle 433" width="112.508" height="6.787" rx="3.393" transform="translate(106.746 242.222)" fill="#c8cad7"/>
      <path id="Path_2549" data-name="Path 2549" d="M433.526,160.591A11.606,11.606,0,0,0,421.917,149h-199.3A11.606,11.606,0,0,0,211,160.591V304H433.526Z" transform="translate(-159.446 -109.992)" fill="#474157"/>
      <path id="Path_2550" data-name="Path 2550" d="M442.147,192.455V315.678a5.712,5.712,0,0,1-5.715,5.715H237.475a5.712,5.712,0,0,1-5.715-5.715V192.455a5.715,5.715,0,0,1,5.715-5.715H436.418a5.715,5.715,0,0,1,5.73,5.715Z" transform="translate(-174.125 -136.677)" fill="#4c4c78"/>
      <circle id="Ellipse_177" data-name="Ellipse 177" cx="2.68" cy="2.68" r="2.68" transform="translate(160.14 41.847)" fill="#fff"/>
      <circle id="Ellipse_178" data-name="Ellipse 178" cx="6.608" cy="6.608" r="6.608" transform="translate(156.211 198.29)" fill="#fff"/>
      <path id="Path_2551" data-name="Path 2551" d="M276.217,196.5V328.294H237.475a5.712,5.712,0,0,1-5.715-5.715V199.356l.208-.776.557-2.08Z" transform="translate(-174.125 -143.578)" fill="#fff"/>
      <path id="Path_2552" data-name="Path 2552" d="M246.187,187.65v11.863H196.76V188.426l.208-.776Z" transform="translate(-139.125 -132.648)" fill="#4c4c78"/>
      <path id="Path_2553" data-name="Path 2553" d="M442.147,192.462H231.76a5.712,5.712,0,0,1,5.715-5.712H436.418a5.712,5.712,0,0,1,5.73,5.712Z" transform="translate(-174.125 -136.684)" fill="#c8cad7"/>
      <circle id="Ellipse_179" data-name="Ellipse 179" cx="1.429" cy="1.429" r="1.429" transform="translate(61.92 51.493)" fill="#ededf4"/>
      <circle id="Ellipse_180" data-name="Ellipse 180" cx="1.429" cy="1.429" r="1.429" transform="translate(66.206 51.493)" fill="#ededf4"/>
      <circle id="Ellipse_181" data-name="Ellipse 181" cx="1.429" cy="1.429" r="1.429" transform="translate(70.491 51.493)" fill="#ededf4"/>
      <rect id="Rectangle_434" data-name="Rectangle 434" width="29.682" height="2.733" transform="translate(65.022 60.225)" fill="#00b0ff"/>
      <rect id="Rectangle_435" data-name="Rectangle 435" width="29.682" height="2.733" transform="translate(65.022 73.553)" fill="#00b0ff" opacity="0.5"/>
      <rect id="Rectangle_436" data-name="Rectangle 436" width="29.682" height="2.733" transform="translate(65.022 82.976)" fill="#00b0ff" opacity="0.5"/>
      <rect id="Rectangle_437" data-name="Rectangle 437" width="29.682" height="2.733" transform="translate(65.022 92.399)" fill="#00b0ff" opacity="0.5"/>
      <rect id="Rectangle_438" data-name="Rectangle 438" width="29.682" height="2.733" transform="translate(65.022 101.819)" fill="#00b0ff" opacity="0.5"/>
      <rect id="Rectangle_439" data-name="Rectangle 439" width="29.682" height="2.733" transform="translate(65.022 111.243)" fill="#00b0ff" opacity="0.5"/>
      <rect id="Rectangle_440" data-name="Rectangle 440" width="29.682" height="2.733" transform="translate(65.022 120.666)" fill="#00b0ff" opacity="0.5"/>
      <rect id="Rectangle_441" data-name="Rectangle 441" width="29.682" height="2.733" transform="translate(65.022 130.086)" fill="#00b0ff" opacity="0.5"/>
      <rect id="Rectangle_442" data-name="Rectangle 442" width="131.524" height="0.439" transform="translate(126.392 70.275)" fill="#dce0ed" opacity="0.5"/>
      <rect id="Rectangle_443" data-name="Rectangle 443" width="131.524" height="0.439" transform="translate(126.392 80.477)" fill="#dce0ed" opacity="0.5"/>
      <rect id="Rectangle_444" data-name="Rectangle 444" width="131.524" height="0.439" transform="translate(126.392 90.682)" fill="#dce0ed" opacity="0.5"/>
      <rect id="Rectangle_445" data-name="Rectangle 445" width="131.524" height="0.439" transform="translate(126.392 100.885)" fill="#dce0ed" opacity="0.5"/>
      <rect id="Rectangle_446" data-name="Rectangle 446" width="131.524" height="0.439" transform="translate(126.392 111.087)" fill="#dce0ed" opacity="0.5"/>
      <path id="Path_2554" data-name="Path 2554" d="M562.628,296.05H430.94V275.985l12.077,5.952,12.5,1.693,10.967-3.307,13.231-10.261,6.655-3.843,4.865-.937,4.655.249,7.657,3.782,10.4,6.629,8.167,1.052,6.476-2.232,13.723-11.242,7.007-2.5,7.332,1.134,5.973,3.448Z" transform="translate(-304.709 -184.527)" fill="#00b0ff" opacity="0.5"/>
      <path id="Path_2555" data-name="Path 2555" d="M488.893,299.431c-11.857,0-22.818-7.253-22.953-7.346l.325-.486c.17.114,17.036,11.274,31.369,5.683,5.232-2.036,8.946-5.208,12.555-8.272,3.758-3.2,7.308-6.227,12.145-7.54a18.168,18.168,0,0,1,16.222,3.644c3.937,3.237,11.781,8.436,20.068,6.881,4.224-.791,7.786-3.878,11.556-7.144,7.218-6.269,14.7-12.739,27.619-3.448l-.343.475c-12.552-9.019-19.848-2.7-26.9,3.415-3.831,3.322-7.452,6.444-11.831,7.279-8.524,1.6-16.532-3.7-20.548-7a17.588,17.588,0,0,0-15.695-3.53c-4.713,1.277-8.2,4.259-11.919,7.417-3.635,3.1-7.4,6.3-12.713,8.375A24.571,24.571,0,0,1,488.893,299.431Z" transform="translate(-339.709 -200.322)" fill="#00b0ff"/>
      <circle id="Ellipse_182" data-name="Ellipse 182" cx="3.26" cy="3.26" r="3.26" transform="translate(186.42 77.437)" fill="#00b0ff"/>
      <path id="Path_2556" data-name="Path 2556" d="M306.264,476.066a51.748,51.748,0,0,0-6.151-3.2l-.091-.064a3.709,3.709,0,0,1-1.125-1.421v-.264a6.732,6.732,0,0,1,1.954-3.67l2.343-2.756a2.692,2.692,0,0,0,.6-.978,2.194,2.194,0,0,0,.064-.586v-.24c0-.685-.032-1.371-.056-2.05-.023-.6-.176-1.353-.776-1.465-.311-.064-.721.047-.879-.22a.492.492,0,0,1-.041-.354v.026a.156.156,0,0,1,0-.032,8.1,8.1,0,0,0,.223-1.409,2.021,2.021,0,0,0-.1-.712c-.349-.993-1.541-1.4-2.6-1.588a4.562,4.562,0,0,1-2.9-1.172,9.592,9.592,0,0,0-.586-.794,2.308,2.308,0,0,0-1.081-.533,6.069,6.069,0,0,0-3.919.343,3.531,3.531,0,0,1-1.582.5c-.559-.032-1.078-.439-1.652-.536a2.359,2.359,0,0,0-2.27,1.33,3.223,3.223,0,0,0-.419,1.567v.091h0a2.3,2.3,0,0,0,.6,1.6c.4.416.993.7,1.172,1.245.067.223.053.463.111.685a.316.316,0,0,0,.026.085l-.032.038a6.963,6.963,0,0,0-1.465,4.283,7.106,7.106,0,0,0,4.98,6.737v.211a3.029,3.029,0,0,1-.967,2.358l-6.321,2.537s-3.808-.451-5.179,5.111a9.42,9.42,0,0,0-.234,2.821,8.281,8.281,0,0,1-1.043,4.227c-1.561,3.058-1.207,10.074,1.986,10.768,3.014.656,4.195.384,4.318.351v.123c-.05,1.318-.527,12.672-2.264,14.06-.483.378-.392.636,0,.808v.205c-.053.832-.322,3.992-1.485,5.794-1.336,2.077-1.183,14.087-1.183,14.087l-.92,7.086s.565,4.376,0,5.141c-.507.682-1.172,16.875-1.324,20.384h-.059a1.708,1.708,0,0,0-1.365.832,24.156,24.156,0,0,1-3.363,3.448c-.565.806-2.663,1.576-3.77,1.939a2.418,2.418,0,0,0-.428.185,2.25,2.25,0,0,0-.952,1,1.072,1.072,0,0,0-.1.835c.293.694,6.172,1.172,7.66.486,1.172-.545,5.812-1.265,7.739-1.547a1.588,1.588,0,0,0,1.377-1.377.908.908,0,0,0-.176-.688h0a6.225,6.225,0,0,1-.644-2.519,1.712,1.712,0,0,0,.434-.258,18.48,18.48,0,0,1,1.063-7.434c1.418-3.749,1.845-10.7,1.491-15.214,0,0,4.326-18.621,7.733-20.358h0c.053.064,1.7,2.185,1.916,8.752a26.541,26.541,0,0,0,2.622,11.046s-1.063,11.324,0,15.563l-1.4,6.676a2.167,2.167,0,0,1-.167-.152s.041.188.1.483l-.029.141.059.015a12.919,12.919,0,0,1,.293,3.146c-.056.489-.19,1.154-.293,1.81-.146,1.028-.187,2.027.354,2.244.879.357,6.1.847,6.989-.293a1.643,1.643,0,0,0,.258-1.717,1.76,1.76,0,0,0-.258-.436s-1.386-2.264-.993-3.861a1.172,1.172,0,0,0-.167-.914,47.186,47.186,0,0,1,1.216-7.5c.879-3.342,2.759-10.671,1.383-15.493h0c-.053-.187-.111-.375-.176-.557a20.8,20.8,0,0,1-.782-8.128,16.525,16.525,0,0,1,0-7.086c.844-3.887,1.438-7.695,1.438-7.695a48.818,48.818,0,0,0,.059-8.293l-.026-.2.223-.05s-1.2-5.349-1.632-8.753c-.1-.805-.231-1.822-.375-2.909a7.683,7.683,0,0,0,1.157-.293c3.831-1.321,5.035-13.272,5.035-13.272v-3.79S310.734,478.647,306.264,476.066Zm-28.539,92.27-.187-.1h0Z" transform="translate(-198.288 -324.521)" fill="url(#linear-gradient)"/>
      <path id="Path_2557" data-name="Path 2557" d="M328.876,686.627c1.661,4.778-.293,12.531-1.172,15.993a48.533,48.533,0,0,0-1.172,7.616,16.11,16.11,0,0,1-6.093-.141l1.465-7.13c-1.037-4.224,0-15.51,0-15.51a27.107,27.107,0,0,1-2.56-11.011c-.205-6.541-1.816-8.656-1.869-8.723h0c-3.348,1.74-7.56,20.291-7.56,20.291.346,4.5-.07,11.424-1.465,15.164a18.761,18.761,0,0,0-1.04,7.408,2.286,2.286,0,0,1-1.883.36,12.9,12.9,0,0,1-4.347-2.024s.762-20.211,1.315-20.979,0-5.123,0-5.123l.9-7.062s-.138-11.978,1.172-14.06c1.137-1.8,1.4-4.947,1.45-5.773v-.205l2-2.4s19.388-1.465,20.841,0a4.091,4.091,0,0,1,.709,2.191,49.824,49.824,0,0,1-.059,8.263s-.586,3.808-1.412,7.683a16.813,16.813,0,0,0,0,7.062A21.09,21.09,0,0,0,328.876,686.627Z" transform="translate(-223.21 -466.125)" fill="#65617d"/>
      <path id="Path_2558" data-name="Path 2558" d="M373.962,851.562c-.864,1.142-5.952.659-6.819.293-.53-.22-.489-1.213-.346-2.238.091-.653.223-1.318.275-1.8a16.5,16.5,0,0,0-.413-3.776s1.142,1.213,1.418,0a1.318,1.318,0,0,1,.987-.937,2.589,2.589,0,0,1,1.8.111c.9.39,2.4,1.221,2.13,2.343-.381,1.591.97,3.846.97,3.846a1.737,1.737,0,0,1,.252.436,1.661,1.661,0,0,1-.252,1.722Z" transform="translate(-269.51 -600.699)" fill="#a27772"/>
      <path id="Path_2559" data-name="Path 2559" d="M374.069,867.555c-.864,1.142-5.952.659-6.819.293-.53-.22-.489-1.213-.346-2.238a5.868,5.868,0,0,0,3.023.325,8.457,8.457,0,0,1,1.09-.035,24.917,24.917,0,0,0,3.3-.064,1.661,1.661,0,0,1-.252,1.719Z" transform="translate(-269.617 -616.692)" opacity="0.1"/>
      <path id="Path_2560" data-name="Path 2560" d="M320.408,721.14c.346,4.5-.07,11.424-1.465,15.164a18.762,18.762,0,0,0-1.04,7.408,2.285,2.285,0,0,1-1.883.36c.419-2.929,2.2-15.5,3.339-25.443a41.6,41.6,0,0,1,7.373-19.11l1.213,1.333C324.62,702.59,320.408,721.14,320.408,721.14Z" transform="translate(-233.704 -499.253)" opacity="0.1"/>
      <path id="Path_2561" data-name="Path 2561" d="M350.437,504.847,349.591,509l-4.139,6.96-5.106-2.182s-6.942-7.27-2.581-8.307a3.846,3.846,0,0,0,1.45-.644,3,3,0,0,0,1.131-2.5,7.7,7.7,0,0,0-.709-2.979l8.931-2.8a14.211,14.211,0,0,0-.641,3.618c-.067,2.431.835,3.632,1.576,4.2A2.655,2.655,0,0,0,350.437,504.847Z" transform="translate(-248.062 -355.73)" fill="#fbbebe"/>
      <path id="Path_2562" data-name="Path 2562" d="M356.561,496.54a14.211,14.211,0,0,0-.642,3.618,7.059,7.059,0,0,1-7.581,2.165,7.7,7.7,0,0,0-.709-2.979Z" transform="translate(-256.054 -355.73)" opacity="0.1"/>
      <path id="Path_2563" data-name="Path 2563" d="M347.515,475.592a7.045,7.045,0,1,1-2.063-5A7.062,7.062,0,0,1,347.515,475.592Z" transform="translate(-245.986 -335.925)" fill="#fbbebe"/>
      <path id="Path_2564" data-name="Path 2564" d="M350.437,523.726l-.847,4.154-4.139,6.96-5.106-2.182s-6.942-7.27-2.581-8.307a3.846,3.846,0,0,0,1.45-.644c-.788,2.165,2.463,6.667,2.463,6.667.378.557,1.248.208,1.248.208,2.091-.316,5.949-6.339,6.576-7.341A2.654,2.654,0,0,0,350.437,523.726Z" transform="translate(-248.062 -374.609)" opacity="0.1"/>
      <path id="Path_2565" data-name="Path 2565" d="M341.272,655.558c-1.23.293-8.032,1.784-10.61,1.409-2.838-.416-8.36-.691-8.36-.691s-3.515.188-4.593-.293v-.205l2-2.4s19.388-1.465,20.841,0A3.871,3.871,0,0,1,341.272,655.558Z" transform="translate(-234.898 -466.167)" opacity="0.1"/>
      <path id="Path_2566" data-name="Path 2566" d="M316.884,530.715s-3.653-5.059-2.276-7.03l-6.172,2.531s-3.714-.451-5.053,5.091a9.666,9.666,0,0,0-.231,2.815,8.375,8.375,0,0,1-1.016,4.209c-1.523,3.046-1.172,10.041,1.939,10.733s4.224.346,4.224.346-.416,12.672-2.214,14.125,4.59,1.107,4.59,1.107,5.519.293,8.357.694,10.8-1.465,10.8-1.465-1.172-5.331-1.593-8.723-1.383-10.615-1.383-10.615l7.062-9.567s1.245-5.782-3.117-8.342a50.034,50.034,0,0,0-6-3.193s-4.394,7.138-6.667,7.484C318.129,530.92,317.262,531.271,316.884,530.715Z" transform="translate(-223.266 -374.743)" fill="#ff748e"/>
      <path id="Path_2567" data-name="Path 2567" d="M324.1,555.16a10.376,10.376,0,0,0,.349,3.184c.416.9,1.936,5.885,1.936,5.885H322.93s1.869-2.007,1.731-2.976S324.1,555.16,324.1,555.16Z" transform="translate(-238.589 -397.179)" opacity="0.1"/>
      <path id="Path_2568" data-name="Path 2568" d="M335.294,590.574s-7.645-1.869-8.357-3.459-2.677-5.158-2.677-5.158l.806-1.087,3.72,2.929s4.432,3.515,6.509,3.878S335.294,590.574,335.294,590.574Z" transform="translate(-239.53 -415.358)" fill="#fbbebe"/>
      <path id="Path_2569" data-name="Path 2569" d="M335.294,590.574s-7.645-1.869-8.357-3.459-2.677-5.158-2.677-5.158l.806-1.087,3.72,2.929s4.432,3.515,6.509,3.878S335.294,590.574,335.294,590.574Z" transform="translate(-239.53 -415.358)" opacity="0.05"/>
      <path id="Path_2570" data-name="Path 2570" d="M351.154,583.184v4.148h-.668a19.4,19.4,0,0,0-9.414,2.437l-1.248.691-.337.188-2.147-4.833,2.009-1.8h.1a12.111,12.111,0,0,0,3.515-.079,5.706,5.706,0,0,1,4.435-.568c1.242.316,2.3,1.708,3.515,1.274Z" transform="translate(-248.778 -416.963)" fill="#fbbebe"/>
      <path id="Path_2571" data-name="Path 2571" d="M370.916,546.15l1.385,1.558v3.773s-1.172,11.91-4.915,13.225-10.413-.762-10.413-.762-1.725-4.57-.92-4.848,7.13-1.945,7.13-1.945-.091-6.986,1.295-9.063c0,0-.9-6.509,2.214-6.646S370.916,546.15,370.916,546.15Z" transform="translate(-261.858 -387.478)" opacity="0.1"/>
      <path id="Path_2572" data-name="Path 2572" d="M371.606,546.15l1.386,1.558v3.773s-1.172,11.91-4.918,13.225-10.41-.762-10.41-.762-1.725-4.57-.92-4.848,7.127-1.945,7.127-1.945-.088-6.986,1.3-9.063c0,0-.9-6.509,2.215-6.646S371.606,546.15,371.606,546.15Z" transform="translate(-262.346 -387.478)" fill="#ff748e"/>
      <path id="Path_2573" data-name="Path 2573" d="M349.069,478.566a2.727,2.727,0,0,0-.158-1.347,1.034,1.034,0,0,0-1.1-.633c-.586.138-.849.908-1.429,1.093a1.135,1.135,0,0,1-1.26-.647,3.311,3.311,0,0,1-.24-1.506v-1.737a2.861,2.861,0,0,0-.41-1.8,3.2,3.2,0,0,0-2.373-.858,2.012,2.012,0,0,0-1.356.545,1.757,1.757,0,0,1-1.427.51,1.233,1.233,0,0,1-.993-.861.071.071,0,0,1,0-.023,7.062,7.062,0,1,1,10.5,9.373,19.549,19.549,0,0,0,.237-2.1Z" transform="translate(-249.476 -335.899)" opacity="0.1"/>
      <path id="Path_2574" data-name="Path 2574" d="M334.893,461.6a1.242,1.242,0,0,1-1-.861c-.056-.223-.041-.463-.108-.682-.161-.545-.741-.829-1.131-1.242a2.785,2.785,0,0,1-.179-3.184A2.3,2.3,0,0,1,334.7,454.3c.559.1,1.043.5,1.611.533a3.269,3.269,0,0,0,1.544-.5,5.812,5.812,0,0,1,3.826-.34,2.214,2.214,0,0,1,1.055.53,8.967,8.967,0,0,1,.562.791,4.394,4.394,0,0,0,2.83,1.172c1.028.187,2.194.586,2.531,1.585a4.157,4.157,0,0,1-.12,2.05.586.586,0,0,0,.026.425c.161.267.562.155.879.217.586.123.732.879.753,1.465q.041,1.019.056,2.05a2.635,2.635,0,0,1-.059.759,2.686,2.686,0,0,1-.586.952l-2.288,2.748c-1.013,1.219-2.089,2.636-1.886,4.209a.977.977,0,0,1-1.207-.7,3.1,3.1,0,0,1,.076-1.558,19.149,19.149,0,0,0,.36-2.7,2.736,2.736,0,0,0-.158-1.35,1.037,1.037,0,0,0-1.1-.633c-.586.138-.847.908-1.427,1.093a1.131,1.131,0,0,1-1.26-.647,3.349,3.349,0,0,1-.24-1.506v-1.737a2.861,2.861,0,0,0-.41-1.8,3.2,3.2,0,0,0-2.373-.858,2.012,2.012,0,0,0-1.356.545A1.757,1.757,0,0,1,334.893,461.6Z" transform="translate(-245.051 -325.525)" fill="#7c5c5c"/>
      <path id="Path_2575" data-name="Path 2575" d="M347.15,554.57l2.171,8.9S351.028,563.466,347.15,554.57Z" transform="translate(-255.715 -396.762)" opacity="0.1"/>
      <path id="Path_2576" data-name="Path 2576" d="M367.65,549.48s-2.841,4.652-1.731,9.458l.527.038S365.5,556.75,367.65,549.48Z" transform="translate(-268.804 -393.163)" opacity="0.1"/>
      <path id="Path_2577" data-name="Path 2577" d="M378.59,638.713s3.486-1.154,3.741,1.523C382.331,640.236,381.672,638.4,378.59,638.713Z" transform="translate(-277.945 -456.083)" opacity="0.1"/>
      <path id="Path_2578" data-name="Path 2578" d="M329.825,586.83s-.691,4.848.554,6.787a15.215,15.215,0,0,1-6.093.829l-.416-7.616Z" transform="translate(-239.254 -419.572)" opacity="0.1"/>
      <path id="Path_2579" data-name="Path 2579" d="M339.824,592.567l-.337.187-2.147-4.833,2.009-1.8h.1C339.42,586.354,338.86,590.517,339.824,592.567Z" transform="translate(-248.778 -419.07)" opacity="0.1"/>
      <path id="Path_2580" data-name="Path 2580" d="M324.982,586.12s-.691,4.848.554,6.787a15.214,15.214,0,0,1-6.093.829l-2.422-7.616Z" transform="translate(-234.411 -419.07)" fill="#ff748e"/>
      <path id="Path_2581" data-name="Path 2581" d="M284.125,848.249a1.564,1.564,0,0,1-1.345,1.371c-1.878.293-6.409,1-7.551,1.541-1.465.694-7.2.208-7.478-.483a1.1,1.1,0,0,1,.1-.835,2.282,2.282,0,0,1,1.344-1.172c1.084-.363,3.128-1.128,3.679-1.93a23.55,23.55,0,0,0,3.275-3.436,1.658,1.658,0,0,1,1.333-.829c.606-.029,1.28.278,1.558,1.605,0,0,3.322,1.9,4.221.234,0,0,.138,2.551.688,3.251h0A.917.917,0,0,1,284.125,848.249Z" transform="translate(-199.545 -600.333)" fill="#a27772"/>
      <path id="Path_2582" data-name="Path 2582" d="M284.125,860.521a1.564,1.564,0,0,1-1.345,1.371c-1.878.293-6.409,1-7.551,1.541-1.465.694-7.2.208-7.478-.483a1.1,1.1,0,0,1,.1-.835,2.217,2.217,0,0,1,.929-1c.937.621,3.017,1.23,7.592.516a33.58,33.58,0,0,0,7.578-1.8h0A.917.917,0,0,1,284.125,860.521Z" transform="translate(-199.545 -612.605)" opacity="0.1"/>
      <g id="Group_715" data-name="Group 715" transform="translate(87.015 131.577)" opacity="0.1">
        <path id="Path_2583" data-name="Path 2583" d="M388.2,471.8a.147.147,0,0,0,0-.035,6.313,6.313,0,0,0,.214-1.57,9.928,9.928,0,0,1-.214,1.26A.768.768,0,0,0,388.2,471.8Z" transform="translate(-371.743 -468.676)"/>
        <path id="Path_2584" data-name="Path 2584" d="M344.48,474.619a2.051,2.051,0,0,1,.17.791,2.376,2.376,0,0,0-.17-1.1,1.04,1.04,0,0,0-1.1-.636c-.586.138-.847.911-1.427,1.1a1.137,1.137,0,0,1-1.26-.65,3.272,3.272,0,0,1-.24-1.506v-1.734a2.861,2.861,0,0,0-.41-1.8,3.207,3.207,0,0,0-2.376-.861,2,2,0,0,0-1.353.548,1.757,1.757,0,0,1-1.427.507,1.227,1.227,0,0,1-1-.861c-.059-.223-.041-.46-.108-.683-.161-.545-.741-.826-1.131-1.239a2.279,2.279,0,0,1-.586-1.465,2.37,2.37,0,0,0,.586,1.775c.39.413.97.7,1.131,1.242.067.22.05.46.108.682a1.239,1.239,0,0,0,1,.861,1.757,1.757,0,0,0,1.426-.51,2.03,2.03,0,0,1,1.35-.542,3.2,3.2,0,0,1,2.376.861,2.876,2.876,0,0,1,.41,1.8v1.734a3.277,3.277,0,0,0,.24,1.509,1.135,1.135,0,0,0,1.26.647c.586-.185.835-.955,1.426-1.1A1.046,1.046,0,0,1,344.48,474.619Z" transform="translate(-332.06 -465.02)"/>
        <path id="Path_2585" data-name="Path 2585" d="M382.341,490.2a2.725,2.725,0,0,1-.586.955q-1.148,1.371-2.288,2.745c-.961,1.157-1.98,2.5-1.907,3.972a6.766,6.766,0,0,1,1.907-3.659l2.288-2.748a2.713,2.713,0,0,0,.586-.952,2.638,2.638,0,0,0,.059-.762,1.9,1.9,0,0,1-.059.448Z" transform="translate(-364.23 -482.506)"/>
        <path id="Path_2586" data-name="Path 2586" d="M373.325,514.992a1.636,1.636,0,0,1-.07-.372,1.855,1.855,0,0,0,.07.682.976.976,0,0,0,1.207.7c0-.1-.021-.205-.023-.293A.988.988,0,0,1,373.325,514.992Z" transform="translate(-361.183 -500.091)"/>
      </g>
      <path id="Path_2587" data-name="Path 2587" d="M295,847.42s.724,1.271,3.348.149" transform="translate(-218.841 -603.83)" opacity="0.1"/>
      <path id="Path_2588" data-name="Path 2588" d="M370.65,848.46s2.264,2.663,5.114.879" transform="translate(-272.331 -604.565)" opacity="0.1"/>
      <path id="Path_2589" data-name="Path 2589" d="M389.137,740.94s-1.6,1-1.652,1.57.826-.416.826-.416Z" transform="translate(-284.233 -528.54)" opacity="0.1"/>
      <path id="Path_2590" data-name="Path 2590" d="M388.355,767.08a3.318,3.318,0,0,1-1.968.767c-1.2.053-1.1,1.611-.313,1.142A19.666,19.666,0,0,0,388.355,767.08Z" transform="translate(-282.822 -547.023)" opacity="0.1"/>
      <path id="Path_2591" data-name="Path 2591" d="M392.961,770.49s-.767,3.767-1.391,3.041" transform="translate(-287.123 -549.435)" opacity="0.1"/>
      <g id="Group_716" data-name="Group 716" transform="translate(138.015 134.383)" opacity="0.5">
        <rect id="Rectangle_447" data-name="Rectangle 447" width="19.333" height="4.101" fill="#dce0ed"/>
        <rect id="Rectangle_448" data-name="Rectangle 448" width="19.333" height="4.101" transform="translate(44.392)" fill="#dce0ed"/>
        <rect id="Rectangle_449" data-name="Rectangle 449" width="19.333" height="4.101" transform="translate(88.784)" fill="#dce0ed"/>
      </g>
      <ellipse id="Ellipse_183" data-name="Ellipse 183" cx="7.888" cy="1.333" rx="7.888" ry="1.333" transform="translate(271.186 233.417)" fill="#00b0ff" opacity="0.1"/>
      <ellipse id="Ellipse_184" data-name="Ellipse 184" cx="7.888" cy="1.333" rx="7.888" ry="1.333" transform="translate(25.862 250.245)" fill="#00b0ff" opacity="0.1"/>
      <ellipse id="Ellipse_185" data-name="Ellipse 185" cx="11.778" cy="1.992" rx="11.778" ry="1.992" transform="translate(250.031 247.04)" fill="#00b0ff"/>
      <path id="Path_2592" data-name="Path 2592" d="M919.117,841.785a3.41,3.41,0,0,0,1.122-1.7,1.5,1.5,0,0,0-.782-1.725,2.207,2.207,0,0,0-2.077.729,2.768,2.768,0,0,1-2.015.972,3.076,3.076,0,0,0,.949-2.874,1.2,1.2,0,0,0-.264-.586c-.4-.428-1.125-.246-1.605.091-1.523,1.072-1.948,3.14-1.957,5a9.406,9.406,0,0,1-.026-2.05,2.118,2.118,0,0,0-.773-1.825,2.343,2.343,0,0,0-1.172-.275,2.435,2.435,0,0,0-1.916.542,1.888,1.888,0,0,0,.073,2.343,7.623,7.623,0,0,0,1.983,1.588,4.432,4.432,0,0,1,1.418,1.35,1.415,1.415,0,0,1,.1.243h4.294A12.044,12.044,0,0,0,919.117,841.785Z" transform="translate(-652.439 -596.007)" fill="#00b0ff"/>
      <path id="Path_2593" data-name="Path 2593" d="M140.756,807.19s1.611,2.106-.741,5.273-4.291,5.858-3.515,7.841c0,0,3.55-5.9,6.444-5.984S143.935,810.74,140.756,807.19Z" transform="translate(-106.646 -575.384)" fill="#00b0ff"/>
      <path id="Path_2594" data-name="Path 2594" d="M140.985,807.19a2.634,2.634,0,0,1,.331.662c2.818,3.31,4.318,6.4,1.608,6.476-2.522.073-5.548,4.584-6.274,5.724a2.723,2.723,0,0,0,.085.261s3.55-5.9,6.444-5.984S144.163,810.74,140.985,807.19Z" transform="translate(-106.875 -575.384)" opacity="0.1"/>
      <path id="Path_2595" data-name="Path 2595" d="M160.769,815.192c0,.741-.082,1.342-.185,1.342s-.185-.586-.185-1.342.1-.393.205-.393S160.769,814.451,160.769,815.192Z" transform="translate(-123.668 -580.703)" fill="#ffd037"/>
      <path id="Path_2596" data-name="Path 2596" d="M162.108,818.14c-.65.354-1.219.568-1.265.478s.436-.451,1.087-.806.4-.1.442,0S162.758,817.786,162.108,818.14Z" transform="translate(-123.978 -582.767)" fill="#ffd037"/>
      <path id="Path_2597" data-name="Path 2597" d="M113.711,807.19s-1.611,2.106.741,5.273,4.291,5.858,3.515,7.841c0,0-3.547-5.9-6.444-5.984S110.533,810.74,113.711,807.19Z" transform="translate(-88.098 -575.384)" fill="#00b0ff"/>
      <path id="Path_2598" data-name="Path 2598" d="M113.7,807.19a2.635,2.635,0,0,0-.331.662c-2.818,3.31-4.318,6.4-1.608,6.476,2.522.073,5.548,4.584,6.274,5.724a2.1,2.1,0,0,1-.088.261s-3.547-5.9-6.444-5.984S110.517,810.74,113.7,807.19Z" transform="translate(-88.083 -575.384)" opacity="0.1"/>
      <path id="Path_2599" data-name="Path 2599" d="M112.22,815.192c0,.741.085,1.342.187,1.342s.185-.586.185-1.342-.1-.393-.205-.393S112.22,814.451,112.22,815.192Z" transform="translate(-89.601 -580.703)" fill="#ffd037"/>
      <path id="Path_2600" data-name="Path 2600" d="M107.763,818.14c.65.354,1.216.568,1.265.478s-.436-.451-1.087-.806-.4-.1-.445,0S107.113,817.786,107.763,818.14Z" transform="translate(-86.169 -582.767)" fill="#ffd037"/>
      <path id="Path_2601" data-name="Path 2601" d="M114,845.179s4.5-.141,5.858-1.1,6.922-2.121,7.259-.571,6.761,7.7,1.681,7.742-11.8-.791-13.155-1.614S114,845.179,114,845.179Z" transform="translate(-90.859 -600.526)" fill="#a8a8a8"/>
      <path id="Path_2602" data-name="Path 2602" d="M128.856,856.563c-5.079.041-11.8-.791-13.158-1.614-1.028-.63-1.441-2.882-1.576-3.919h-.152s.293,3.626,1.64,4.452,8.076,1.655,13.155,1.614c1.465,0,1.971-.533,1.945-1.306C130.505,856.264,129.946,856.554,128.856,856.563Z" transform="translate(-90.838 -606.383)" opacity="0.2"/>
      <path id="Path_2603" data-name="Path 2603" d="M494.924,540.24a10.642,10.642,0,0,1,10.862-10.586h.085V526.93h-.085A13.368,13.368,0,0,0,492.2,540.24a13.551,13.551,0,0,0,4.656,10.224l1.929-1.931A10.838,10.838,0,0,1,494.924,540.24Z" transform="translate(-358.277 -377.218)" fill="#00b0ff"/>
      <path id="Path_2604" data-name="Path 2604" d="M518.022,526.94v2.724a10.859,10.859,0,1,1-7.086,19.148L509,550.743a13.58,13.58,0,1,0,9.016-23.8Z" transform="translate(-370.156 -377.225)" fill="#00b0ff" opacity="0.5"/>
      <path id="Path_2605" data-name="Path 2605" d="M819.123,529.184a10.642,10.642,0,0,1,10.586,10.862v.085h2.724v-.085a13.37,13.37,0,0,0-13.31-13.586,13.545,13.545,0,0,0-10.223,4.654l1.93,1.93a10.838,10.838,0,0,1,8.293-3.861Z" transform="translate(-582.209 -376.886)" fill="#00b0ff" opacity="0.5"/>
      <path id="Path_2606" data-name="Path 2606" d="M823.691,552.3h-2.724a10.859,10.859,0,1,1-19.148-7.086l-1.922-1.93a13.58,13.58,0,1,0,23.8,9.016Z" transform="translate(-573.47 -388.779)" fill="#00b0ff"/>
      <path id="Path_2607" data-name="Path 2607" d="M664.505,529.66l-.542,2.712a10.634,10.634,0,0,1,6.535,10.071,10.859,10.859,0,1,1-15.211-9.945l-1.207-2.446a13.58,13.58,0,1,0,19.154,12.391A13.361,13.361,0,0,0,664.505,529.66Z" transform="translate(-467.077 -379.149)" fill="#00b0ff" opacity="0.5"/>
      <path id="Path_2608" data-name="Path 2608" d="M680.155,529.114a9.485,9.485,0,0,1,3.782.785l.542-2.71a11.98,11.98,0,0,0-4.323-.8,13.525,13.525,0,0,0-5.566,1.2l1.219,2.44A10.747,10.747,0,0,1,680.155,529.114Z" transform="translate(-487.24 -376.836)" fill="#00b0ff"/>
    </g>
  </g>
</svg>
