<svg xmlns="http://www.w3.org/2000/svg" xmlns:xlink="http://www.w3.org/1999/xlink" width="1920" height="381.166" viewBox="0 0 1920 381.166">
  <defs>
    <linearGradient id="linear-gradient" x1="1.052" y1="-0.348" x2="-1.598" y2="3.898" gradientUnits="objectBoundingBox">
      <stop offset="0.005" stop-color="#1384ef"/>
      <stop offset="0.652" stop-color="#073ba0"/>
      <stop offset="1" stop-color="#001376"/>
    </linearGradient>
  </defs>
  <g id="Group_2643" data-name="Group 2643" transform="translate(0 -6158.474)">
    <path id="Path_2661" data-name="Path 2661" d="M1703.259,798.362c-107.486-62.584-393.5-37.714-501.572-39.147s-194.323-27.057-194.323-27.057C854.392,687.4,697.579,704.667,697.579,704.667c-209.427,19.25-166.459,45.6-309.939,53.083S152.034,671.714,16.555,656.967s-233.3,3.225-233.3,3.225V798.362Z" transform="translate(216.741 5741.278)" opacity="0.05" fill="url(#linear-gradient)"/>
    <g id="Group_835" data-name="Group 835" transform="translate(276.497 6059.654)" opacity="0.151">
      <g id="Group_756" data-name="Group 756" transform="translate(495.121 237.24)">
        <path id="Path_2662" data-name="Path 2662" d="M292.735,196.4s4.651-2.274,5.372-2.6,2.9.046,5.36.689,5.5,2.613,5.645,3.029a2.218,2.218,0,0,1,.17,1.851,3.725,3.725,0,0,1-1.44,1.8,2.606,2.606,0,0,1-.932,2.291,2.419,2.419,0,0,1-1.358,2.158s.542,1.515-.545,1.969a17.07,17.07,0,0,0-3.03-.269c-.847.1-6.416-1.549-10.561-3.244C291.415,204.072,289.123,201.718,292.735,196.4Z" transform="translate(-290.698 -193.678)" fill="#eea886"/>
      </g>
      <g id="Group_757" data-name="Group 757" transform="translate(501.439 242.605)">
        <path id="Path_2663" data-name="Path 2663" d="M296.986,196.826a12.767,12.767,0,0,1-2.461,2.275c-.758.31,2.335,5.292,2.335,5.292S299.319,198.962,296.986,196.826Z" transform="translate(-294.405 -196.826)" fill="#cf8c6c"/>
      </g>
      <path id="Path_2664" data-name="Path 2664" d="M278.6,304.815s3.576,6.4,5.7,7.692c2.647,1.616,7.786,6.8,9.581,7.038s8.243,1.386,7,5.025c-1.021,2.984-16.407,2.557-18.142,1.062s-6.925-6.864-9.018-6.744-1.316,7.742-1.316,7.742h-2.274s-.794-7.416-.89-8.691c-.285-3.774,2.408-6.552,2.528-8.7s.242-3.762.242-3.762Z" transform="translate(189.29 121.85)" fill="#16202e"/>
      <path id="Path_2665" data-name="Path 2665" d="M292.9,319.531s-5.072,1.754-8.976-.491-11.394-5.648-14.043-5.674c0,0,1.445-4.416,1.474-4.912s.188-2.821.188-2.821l6.548-1.048s4.249,6.237,6.122,7.7A107.257,107.257,0,0,1,292.9,319.531Z" transform="translate(189.757 121.688)" fill="#eea886"/>
      <path id="Path_2666" data-name="Path 2666" d="M242.127,309.005s.632,4.426,1.324,5.635,2.586,7.361,3.45,8.51,2.759,9.775,0,10.81-9.257,2.759-11.444-.69a14.185,14.185,0,0,1-2.127-9.543c.344-2.645,2.967-14.784,2.933-15.986S242.127,309.005,242.127,309.005Z" transform="translate(163.925 123.678)" fill="#eea886"/>
      <path id="Path_2667" data-name="Path 2667" d="M245.9,315.243s.3,6.7-4.764,6.7-7.3-6.1-7.3-6.1-1.725,2.993,0,9.374,8.911,5.059,10.52,4.83S253.6,327.8,245.9,315.243Z" transform="translate(163.826 129.196)" fill="#16202e"/>
      <path id="Path_2668" data-name="Path 2668" d="M251.517,219.962s-6.542,8.336-8.851,13.85-6.155,17.6-5.642,26.966,3.59,26.93,2.693,30.906-1.795,12.185-2.756,15.006-4.81,11.029-5.2,19.494,2.737,45.594,2.482,49.057,11.2,1.345,11.2,1.345.291-33.473,1.575-39.243,2.821-25.394,3.975-26.806,4.394-16.291,4.6-18.716c.2-2.35,13.922-43.025,14.691-49.95s17.953-21.909,17.953-21.909A59.961,59.961,0,0,0,251.517,219.962Z" transform="translate(162.886 60.059)" fill="#0c3454"/>
      <path id="Path_2669" data-name="Path 2669" d="M281.484,369.332c-2.436-.383-8.964-37.9-8.193-44.566s1.539-20.888-.643-26.664c-1.43-3.8-10.37-23.1-16.385-36.645-.847-1.912-1.638-3.709-2.342-5.331-1.909-4.409-3.17-7.534-3.2-8.178-.128-2.565-8.49-46.747,24.546-27.094a39.568,39.568,0,0,0,.719,4.776c.387,1.283,9.235,33.988,10.133,46.557A248.447,248.447,0,0,0,289.7,298.1c.387,2.683-.383,11.66-1.154,13.969s5,54.428,5.389,55.713S283.921,369.716,281.484,369.332Z" transform="translate(175.529 59.167)" fill="#0c3454"/>
      <path id="Path_2670" data-name="Path 2670" d="M259.88,180.166s6.721-2.2,10.542,1.536a46.457,46.457,0,0,1,7.835,10.745c1.05,2.039,11.413,16.117,12.127,16.518s9.354-1.4,14.609-2.132c7.382-1.026,14.073-1.491,14.073-1.491l.992,9.836s-33.064,6.363-35.94,4.026c-6.347-5.159-21.927-24.239-21.927-24.239S249.28,187.78,259.88,180.166Z" transform="translate(179.77 33.59)" fill="#1d5e94"/>
      <path id="Path_2671" data-name="Path 2671" d="M270.5,177.955s6.25,2.952,8.42,3.385,10.595,11.37,12.071,15.362,0,9.985-3.034,17.019-.172,9.376-1.558,16.409-2.6,21.921-2.338,25.827-35.115,4.653-43.19-2.463c0,0,8.113-12.156,9.155-13.895s.17-11.2-.786-13.629-10.953-21.985-10.953-21.985-1.529-16.644,3.167-20.291c4.079-3.17,15.163-4.651,17.16-5.345S266.418,177.349,270.5,177.955Z" transform="translate(167.335 32.257)" fill="#eddad3"/>
      <path id="Path_2672" data-name="Path 2672" d="M258.337,192.673l3.8-4.449-3.3-11.708A77.3,77.3,0,0,0,258.337,192.673Z" transform="translate(181.497 31.473)" fill="#d6c5be"/>
      <path id="Path_2673" data-name="Path 2673" d="M264.982,177.124s-1.246,11.466-.983,15.2c0,0-6.494,6.511-13.884-7.593a19.366,19.366,0,0,0,.765-13.738C248.537,163.071,264.982,177.124,264.982,177.124Z" transform="translate(175.834 25.876)" fill="#eea886"/>
      <path id="Path_2674" data-name="Path 2674" d="M261.349,182.507l0,5.947-7.477-5.584Z" transform="translate(178.483 35.692)" fill="#eea886"/>
      <path id="Path_2675" data-name="Path 2675" d="M265.263,191.889l-3.1-3.84L251.7,177.631l-3.382,3.257Z" transform="translate(174.57 32.258)" fill="#d6c5be"/>
      <path id="Path_2676" data-name="Path 2676" d="M261.878,261.177c-2.944,14.091-24.239-1.585-24.239-1.585s13.809-23.2,8.314-41.743c-.043-.147-.087-.293-.131-.438q-.527-1.762-1.05-3.348c-5.045-15.335-8.691-19.376-8.691-19.376s5.516-13.618,11.454-14.532,11.338-1.938,11.338-1.938,8.778,13.31,9.2,19.171S264.819,247.083,261.878,261.177Z" transform="translate(165.949 32.671)" fill="#1d5e94"/>
      <path id="Path_2677" data-name="Path 2677" d="M276.535,198.419s.66,8.081-4.888,18.691c0,0,.118,14.206.293,19.154s1.352,23.658,1.352,23.658l-6.095,3.572a1.721,1.721,0,0,1-2.579-1.691c1.725-14.241,7.327-68.259-4.808-82.777l4.868,1.435S276.535,192.769,276.535,198.419Z" transform="translate(182.663 33.24)" fill="#1d5e94"/>
      <path id="Path_2678" data-name="Path 2678" d="M261.852,188.225l4.787,1.322-8.088-13.03Z" transform="translate(181.778 31.473)" fill="#fae6de"/>
      <path id="Path_2679" data-name="Path 2679" d="M261.94,188.049l-4.371,5.731-8.938-14.892,2.853-1.257Z" transform="translate(174.789 32.258)" fill="#fae6de"/>
      <path id="Path_2680" data-name="Path 2680" d="M262.19,151.9c4.575-.441,14.852,1.382,17,13.458a37.954,37.954,0,0,1-.883,5.9c-.673,2.613,1.994,10.09,1.411,10.494a16.741,16.741,0,0,1-3.049,1s-2.281,8.416-5.193,8.485-14.039-1.684-19.719-11.75S243.721,153.674,262.19,151.9Z" transform="translate(174.099 14.089)" fill="#eea886"/>
      <path id="Path_2681" data-name="Path 2681" d="M279.64,166.136s-7.2,5.427-14.539,6.8S253.8,187.08,253.8,187.08s-12.306-18.495-3.782-30.339S280.576,151.9,279.64,166.136Z" transform="translate(173.645 13.31)" fill="#d88a51"/>
      <path id="Path_2682" data-name="Path 2682" d="M257.789,164.6c-.107-1.427-1.8-3.5-4.05-1.432s1.222,8.713,3.112,7.956S257.9,166.076,257.789,164.6Z" transform="translate(177.871 21.456)" fill="#eea886"/>
      <path id="Path_2683" data-name="Path 2683" d="M262.922,176.6c-.167.89-.337,1.935-.477,3.037a31.941,31.941,0,0,1-9.383-7.982C256.623,174.586,262.922,176.6,262.922,176.6Z" transform="translate(177.911 28.052)" fill="#a77860"/>
      <path id="Path_2684" data-name="Path 2684" d="M246.544,190.7c-.319,8.331-4.314,17.924-4.314,17.924q-.527-1.762-1.05-3.348C243.428,198.981,246.544,190.7,246.544,190.7Z" transform="translate(169.541 41.461)" fill="#912b2b"/>
      <path id="Path_2685" data-name="Path 2685" d="M258.108,164.9c2.25,5.118.89,10.668-3.037,12.393s-8.935-1.026-11.184-6.144-.89-10.668,3.039-12.395S255.859,159.778,258.108,164.9Z" transform="translate(170.683 18.596)" fill="#d88a51"/>
      <path id="Path_2686" data-name="Path 2686" d="M267.874,217.7l-3.692-.147-.378,6.929A13.658,13.658,0,0,0,267.874,217.7Z" transform="translate(185.478 60.382)" fill="#eea886"/>
      <g id="Group_762" data-name="Group 762" transform="translate(94.121 160.803)">
        <g id="Group_761" data-name="Group 761">
          <g id="Group_760" data-name="Group 760">
            <g id="Group_759" data-name="Group 759">
              <g id="Group_758" data-name="Group 758">
                <path id="Path_2687" data-name="Path 2687" d="M58.519,175.927l.007.012a42.365,42.365,0,0,0,4.457,8.173c5.906,8.326,20.516,9.185,21.728-12.886a34.13,34.13,0,0,0-.854-10.383c-2.548-9.937-9.506-11.885-9.506-11.885-5.183-.522-14.333.353-17.668,6.981C54.314,160.647,55.511,168.683,58.519,175.927Z" transform="translate(-55.429 -148.832)" fill="#eea987"/>
              </g>
            </g>
          </g>
        </g>
      </g>
      <g id="Group_767" data-name="Group 767" transform="translate(94.121 158.889)">
        <g id="Group_766" data-name="Group 766">
          <g id="Group_765" data-name="Group 765">
            <g id="Group_764" data-name="Group 764">
              <g id="Group_763" data-name="Group 763">
                <path id="Path_2688" data-name="Path 2688" d="M58.519,176.718l.007.012s.74.234,3.685-5.1c.59-1.069.972-.268,1.227-.74l4.377-1.485s-3.808-5.989,1.846-7.713c5.763-1.754,14.2-.063,14.2-.063,5.291-19.114-10.438-12.991-10.438-12.991-5.514.779-13.4,1.459-16.736,8.088C54.314,161.438,55.511,169.474,58.519,176.718Z" transform="translate(-55.429 -147.709)" fill="#665249"/>
              </g>
            </g>
          </g>
        </g>
      </g>
      <g id="Group_772" data-name="Group 772" transform="translate(98.374 177.164)">
        <g id="Group_771" data-name="Group 771">
          <g id="Group_770" data-name="Group 770">
            <g id="Group_769" data-name="Group 769">
              <g id="Group_768" data-name="Group 768">
                <path id="Path_2689" data-name="Path 2689" d="M62.706,160.074c-.252-1.491-3.112-2.892-4.495.223s2.611,6.669,3.736,6.023S63.126,162.544,62.706,160.074Z" transform="translate(-57.924 -158.431)" fill="#eea987"/>
              </g>
            </g>
          </g>
        </g>
      </g>
      <g id="Group_773" data-name="Group 773" transform="translate(20.364 252.887)">
        <path id="Path_2690" data-name="Path 2690" d="M29.148,205.269s-4.921-2.042-5.683-2.33-2.973.228-5.463,1.043-5.485,3.029-5.606,3.465a2.29,2.29,0,0,0-.058,1.912,3.78,3.78,0,0,0,1.507,1.745,2.723,2.723,0,0,0,1.065,2.371,2.108,2.108,0,0,0,1.358,2.078s-.167,1.58.978,1.977a17.716,17.716,0,0,1,3.094-.469c.876.048,6.494-1.992,10.644-3.992C30.985,213.071,33.191,210.509,29.148,205.269Z" transform="translate(-12.156 -202.858)" fill="#eea886"/>
      </g>
      <g id="Group_774" data-name="Group 774" transform="translate(29.605 258.45)">
        <path id="Path_2691" data-name="Path 2691" d="M18.448,206.122a13.061,13.061,0,0,0,2.671,2.18c.8.273-2.066,5.582-2.066,5.582S16.184,208.46,18.448,206.122Z" transform="translate(-17.578 -206.122)" fill="#cf8c6c"/>
      </g>
      <g id="Group_776" data-name="Group 776" transform="translate(36.656 212.837)">
        <g id="Group_775" data-name="Group 775">
          <path id="Path_2692" data-name="Path 2692" d="M23.967,232.527s26.136-2.54,31.794-4.817c2.616-1.053,4.28-4.495,7.046-9.378.914-1.609,1.793-3.284,2.623-4.939l0-.007c3.308-6.6,5.749-12.829,5.749-12.829s10.252-16.173-.539-21.2c0,0-4.222.174-6.339,2.257-1.957,1.924-6.071,13.433-7.021,15.3-1.045,2.054-6.02,19.079-6.589,19.56s-7.164,1.769-11.45,2.831c-6.017,1.49-17.53,1.783-17.53,1.783Z" transform="translate(-21.714 -179.361)" fill="#5e5f70"/>
        </g>
      </g>
      <g id="Group_777" data-name="Group 777" transform="translate(143.822 441.843)">
        <path id="Path_2693" data-name="Path 2693" d="M95.388,313.72a26.568,26.568,0,0,0,3.1,5.325c1.393,1.5,6.647,4.1,6.8,8.655.162,4.938-8.64,3.8-12.072,3.712s-3.763-2.722-5.28-5.48-2.961-2.246-3.291-4.495.91-7.334.91-7.334Z" transform="translate(-84.589 -313.72)" fill="#202026"/>
      </g>
      <g id="Group_779" data-name="Group 779" transform="translate(68.424 443.418)">
        <g id="Group_778" data-name="Group 778">
          <path id="Path_2694" data-name="Path 2694" d="M57.948,315.782s-4.641,5.141-9.461,6.322-8.174,2.609-8.134,5.487,14.077,4.4,19.548,1.353c8.163-4.549,9.04-3.266,9.9-5.454s-1.314-7.921-1.272-8.613C68.58,314.025,57.948,315.782,57.948,315.782Z" transform="translate(-40.353 -314.644)" fill="#202026"/>
        </g>
      </g>
      <g id="Group_781" data-name="Group 781" transform="translate(73.966 288.303)">
        <g id="Group_780" data-name="Group 780">
          <path id="Path_2695" data-name="Path 2695" d="M52.371,235.082s-4.045,36.565-5.766,48.936c-2.011,14.464-2.507,26.383-2.976,33.855-.591,9.4,9.541,59.594,9.027,62.35s15.795-1.56,15.795-1.56-6.755-59.87-4.518-69.921c2.083-9.359,9.4-50.443,11.594-47.961s16.738,46.966,18.507,54.255,18.481,64.286,18.481,64.286,11.413,2.137,14.239-.237c0,0-11.307-52.471-12.676-66.19-.522-5.228-5.149-62.36-14.626-85.3C94.444,215.469,52.371,235.082,52.371,235.082Z" transform="translate(-43.604 -223.637)" fill="#3d3d47"/>
        </g>
      </g>
      <g id="Group_783" data-name="Group 783" transform="translate(80.083 203.375)">
        <g id="Group_782" data-name="Group 782">
          <path id="Path_2696" data-name="Path 2696" d="M86.325,259.674s-5.338-1.626-7.958-2.035,26.485-20.612,26.206-27.266c-.223-5.4-3.559-19.577-3.559-19.577l0,.024,0,.015,0,.026c-.266,1.076-3.859,15.977-3.808,23.09.049,7.382,1.909,35.575,1.909,35.575l-10.963,1.362L56.576,272.5l-6.61-.6s.465-12.088.605-17.83c.085-3.647.62-10.189.269-16.538,0,0-.065-6.7-.806-9.567-.409-12.729-1.517-25.316-1.517-25.316q-.872-8.639-1.324-16.18c1.372-.772,3.022-1.679,4.346-2.35,4.094-2.086,9.8-4.9,13.46-6.7,2.146-1.053,4.251-1.837,4.251-1.837s14.777-1.817,15.982-1.773a37.543,37.543,0,0,1,4.7,1.471c5.306,1.853,15.541,5.642,17.187,6.76,2.41,1.629,8.481,41.736,8.781,44.547C116.447,231.652,86.325,259.674,86.325,259.674Z" transform="translate(-47.193 -173.81)" fill="#ffa15b"/>
        </g>
      </g>
      <g id="Group_784" data-name="Group 784" transform="translate(82.856 295.317)">
        <path id="Path_2697" data-name="Path 2697" d="M49.636,228.834s21.73,1.27,40.669-1.082l.167,6.23s-28.409,4.88-41.653-.08Z" transform="translate(-48.82 -227.752)" fill="#25252b"/>
      </g>
      <g id="Group_786" data-name="Group 786" transform="translate(76.966 206.117)">
        <g id="Group_785" data-name="Group 785">
          <path id="Path_2698" data-name="Path 2698" d="M52.473,181.97a15.746,15.746,0,0,0-5.238,3.312c.3,5.113,1.594,10.569,2.185,16.438,0,0,.793,14.346,1.982,27.941a27.155,27.155,0,0,1,.424,5.979c-.135,2.669-.346,5.582-.614,8.628,0,.039-.007.078-.009.114-.065.723-.133,1.449-.2,2.183l0,.031c-1.439,15.221-4.1,32.71-5.587,38.019-.315,1.11.9,2.095,1.766,2.855l6.03,3.581s1.846-22.57,2.453-30.233c.588-7.392,2.788-17.344,3.612-27.007v0c1.045-12.258,2.609-24.28,3.436-31.421,2.154-18.589,5.461-26.968,5.461-26.968C64.045,177.291,52.473,181.97,52.473,181.97Z" transform="translate(-45.364 -175.418)" fill="#5e5f70"/>
        </g>
      </g>
      <g id="Group_787" data-name="Group 787" transform="translate(100.999 209.677)">
        <path id="Path_2699" data-name="Path 2699" d="M59.467,178.238s-.245,5.681,4.556,5.683,8.485-4.7,8.485-4.7L64.6,181.485l-4.955-3.978Z" transform="translate(-59.465 -177.507)" fill="#cac7d1"/>
      </g>
      <g id="Group_789" data-name="Group 789" transform="translate(102.225 194.397)">
        <g id="Group_788" data-name="Group 788">
          <path id="Path_2700" data-name="Path 2700" d="M74.957,179.948c-5.761,5.713-15.033,1.193-14.767-.469.256-1.549.063-8.638.063-8.638s13.9-4.1,13.593-1.348a25.4,25.4,0,0,0,.266,4.841c.037.322.073.643.119.954C74.561,177.755,74.957,179.948,74.957,179.948Z" transform="translate(-60.184 -168.542)" fill="#eea987"/>
        </g>
      </g>
      <g id="Group_790" data-name="Group 790" transform="translate(101.949 203.512)">
        <path id="Path_2701" data-name="Path 2701" d="M60.022,181.107l4.186,2.927s-3.625-7.22-3.774-10.143Z" transform="translate(-60.022 -173.89)" fill="#a09ea6"/>
      </g>
      <g id="Group_791" data-name="Group 791" transform="translate(96.917 203.512)">
        <path id="Path_2702" data-name="Path 2702" d="M62.514,173.89l-2.74,2.67-2.7,8.837,5.033-4.289Z" transform="translate(-57.07 -173.89)" fill="#eae6f2"/>
      </g>
      <g id="Group_792" data-name="Group 792" transform="translate(102.941 206.11)">
        <path id="Path_2703" data-name="Path 2703" d="M60.6,175.414A48.432,48.432,0,0,0,63.8,182.96s4.207-3.888,5.527-5.27S60.6,175.414,60.6,175.414Z" transform="translate(-60.604 -175.414)" fill="#eea987"/>
      </g>
      <g id="Group_793" data-name="Group 793" transform="translate(106.135 209.316)">
        <path id="Path_2704" data-name="Path 2704" d="M66.872,177.295l-4.394,4.339s5.318-.5,6.289-1.41Z" transform="translate(-62.478 -177.295)" fill="#a09ea6"/>
      </g>
      <g id="Group_794" data-name="Group 794" transform="translate(110.529 201.385)">
        <path id="Path_2705" data-name="Path 2705" d="M70.827,172.642s-3.448,5.957-5.771,7.931l4.176,6.533,6.1-11.819Z" transform="translate(-65.056 -172.642)" fill="#eae6f2"/>
      </g>
      <g id="Group_796" data-name="Group 796" transform="translate(105.633 204.036)">
        <g id="Group_795" data-name="Group 795">
          <path id="Path_2706" data-name="Path 2706" d="M90.495,254.982c-.394-1.519-.75-3.024-1.079-4.493.012-.012.026-.014.024-.026,8.814-9.593,17.8-19.937,17.554-21.926-.353-2.8-5.957-44.879-8.374-46.507-1.389-.949-11.607-4.264-16.62-6.088-.919-.331-3.828-1.464-4.645-1.745-1.016,1.2-9.618,22.977-10.054,39.787-.128,5.118,1.358,15.89,2.5,24.677.493,3.75,1,7.172,1.478,10.418-5.388,5.412-9.579,9.765-9.051,10.622.832,1.355,10.7,8.266,10.7,8.266s.307-.312.861-.883c1.713,13.6,2.9,23.883,2.9,23.883l15.239-7.275c2.466-1.318,5.788-6.535,4.772-9.134A187.594,187.594,0,0,1,90.495,254.982Zm-.418-42.3s.879,4.108,1.669,11.941c.136,1.36-1.278,3.7-3.564,6.562C88.623,224.519,89.332,215.557,90.077,212.683Z" transform="translate(-62.184 -174.197)" fill="#5e5f70"/>
        </g>
      </g>
      <g id="Group_797" data-name="Group 797" transform="translate(99.113 296.098)">
        <rect id="Rectangle_451" data-name="Rectangle 451" width="10.224" height="7.6" transform="translate(10.423 7.597) rotate(178.47)" fill="#3a4066"/>
      </g>
      <path id="Path_2707" data-name="Path 2707" d="M84.581,223.461,70.84,232.48l-.261.17L83.5,218.943h.024c0,.012-.012.014-.024.026C83.831,220.438,84.187,221.943,84.581,223.461Z" transform="translate(49.364 61.359)" fill="#3b3d47"/>
      <path id="Path_2708" data-name="Path 2708" d="M73.118,173.463c-5.742,4.157-11.125-2.028-11.355-2.33,6.243,4.087,11.227,1.375,11.227,1.375H73C73.036,172.831,73.072,173.151,73.118,173.463Z" transform="translate(43.153 27.68)" fill="#a77860"/>
      <g id="Group_798" data-name="Group 798" transform="translate(1181.947 300.634)">
        <path id="Path_2709" data-name="Path 2709" d="M709.429,231.247s-5.538-.348-6.385-.375-2.853,1.232-5.028,2.877-4.38,4.839-4.351,5.309a2.38,2.38,0,0,0,.59,1.9,3.926,3.926,0,0,0,2.125,1.2,2.48,2.48,0,0,0,1.757,1.785,2.232,2.232,0,0,0,2.025,1.732s.431,1.674,1.694,1.677a18.366,18.366,0,0,1,2.889-1.508c.88-.251,4.547-3.513,7.96-6.888C712.7,238.956,716.954,235.742,709.429,231.247Z" transform="translate(-693.663 -230.872)" fill="#eea987"/>
      </g>
      <g id="Group_799" data-name="Group 799" transform="translate(1285.088 436.822)">
        <path id="Path_2710" data-name="Path 2710" d="M774.842,310.876s-1.715.753-4.3,2.115a22.5,22.5,0,0,1-9.156,3.117c-3.649.249-7.467,1.561-7.2,5.052s11.963,4.563,22.916,2.644,11.135-2.17,11.214-3.015-.748-9.514-1.21-9.847S774.842,310.876,774.842,310.876Z" transform="translate(-754.176 -310.774)" fill="#1b1d2e"/>
      </g>
      <g id="Group_800" data-name="Group 800" transform="translate(1304.844 428.835)">
        <path id="Path_2711" data-name="Path 2711" d="M765.767,310.209s.8,3.92.837,4.38,13.187,2.688,12.483-.029c-.745-2.869-4.8-8.473-4.8-8.473Z" transform="translate(-765.767 -306.088)" fill="#1f2136"/>
      </g>
      <g id="Group_801" data-name="Group 801" transform="translate(1256.397 316.074)">
        <path id="Path_2712" data-name="Path 2712" d="M738.5,266.318c1.045-10.74,36.838-34.051,38.57-23.874S764.036,276,763.111,283.63s-.157,9.635,5.63,16.226,30.112,55.258,30.112,55.258c-.7,3.7-13.477,4.859-13.823,4.05s-34.8-46.35-36.65-48.087-8.674-9.483-9.715-13.3c-.661-2.427-1.8-12.981-1.1-20.462C737.561,277.313,738.357,267.192,738.5,266.318Z" transform="translate(-737.343 -239.93)" fill="#282b45"/>
      </g>
      <g id="Group_802" data-name="Group 802" transform="translate(1213.721 436.445)">
        <path id="Path_2713" data-name="Path 2713" d="M734.916,310.553a19.06,19.06,0,0,0-4.973,1.8c-2.63,1.389-6.218,3.722-9.942,3.975s-7.953,1.72-7.684,5.28,12.543,4.527,23.712,2.57,11.357-2.212,11.437-3.076-.319-7.535-.973-9.231C746.283,311.335,734.916,310.553,734.916,310.553Z" transform="translate(-712.305 -310.553)" fill="#1b1d2e"/>
      </g>
      <path id="Path_2714" data-name="Path 2714" d="M758.167,200.316s-15.469,23.168-24.3,31.714c-2.771,2.679-30.451,21.466-31.5,22.534s2.71,10.319,2.71,10.319,35.4-20.462,37.457-21.747,27.733-30.7,28.987-34.777.8-8.89-3.349-10.8C762.353,194.878,758.167,200.316,758.167,200.316Z" transform="translate(494.288 45.772)" fill="#292c47"/>
      <g id="Group_803" data-name="Group 803" transform="translate(1232.669 429.601)">
        <path id="Path_2715" data-name="Path 2715" d="M723.422,310.539s1.069,3.242.735,3.719,14.866,1.655,14.5.447c-.21-.7-2.34-5.291-3.465-7.7C734.216,304.905,723.422,310.539,723.422,310.539Z" transform="translate(-723.422 -306.537)" fill="#1f2136"/>
      </g>
      <g id="Group_804" data-name="Group 804" transform="translate(1199.13 306.806)">
        <path id="Path_2716" data-name="Path 2716" d="M751.729,241.725s-41.438,31.4-46.079,37.816.566,15.962,1.261,19.084,29.707,58.861,30.053,64.242c0,0,12.662,1.778,15.958-2.388,0,0-18.425-53.7-21.374-63.763s10.235-11.624,18.391-15.268S793.886,256.8,795.971,248.9a23.553,23.553,0,0,0,.021-12.654S785.966,229.765,751.729,241.725Z" transform="translate(-703.744 -234.493)" fill="#282b45"/>
      </g>
      <g id="Group_805" data-name="Group 805" transform="translate(1241.25 229.503)">
        <path id="Path_2717" data-name="Path 2717" d="M730.932,196.669s-3.119,13.683-2.356,21.225,8.515,26.741,9.088,30.941-3.344,24.839-3.344,24.839l46.582,7.048a261.63,261.63,0,0,0-1.781-26.388c-1.713-14.321-7.107-25.65-9-33.743-6.443-27.615-30.02-31.452-30.02-31.452Z" transform="translate(-728.456 -189.139)" fill="#cfbeb6"/>
      </g>
      <g id="Group_806" data-name="Group 806" transform="translate(1218.814 196.209)">
        <path id="Path_2718" data-name="Path 2718" d="M717.669,179.786s-3.02,7.351-1.047,8.238c1.629.731-.989,7.91-1.307,9.071s2.986,1.631,3.745,2.279,3.716,9.265,6.4,9.253,14.191-5.425,17.09-9.149,3.959-19.287,1.111-25.5S723.014,166.938,717.669,179.786Z" transform="translate(-715.293 -169.605)" fill="#eea886"/>
      </g>
      <g id="Group_807" data-name="Group 807" transform="translate(1236.745 206.158)">
        <path id="Path_2719" data-name="Path 2719" d="M725.813,201.779s.394.673.984,1.721c.245.44.527.948.827,1.495.23.419.47.864.716,1.323,1.543,2.886,3.293,6.407,3.683,8.207.733,3.361,8.384-15.493,8.384-15.493a165.626,165.626,0,0,1-9.935-21.258C726.074,166.149,725.813,201.779,725.813,201.779Z" transform="translate(-725.813 -175.442)" fill="#eea886"/>
      </g>
      <g id="Group_808" data-name="Group 808" transform="translate(1218.982 192.226)">
        <path id="Path_2720" data-name="Path 2720" d="M717.01,183.018s-4.619-7.109,1.75-13.414,20.228,2.127,21.713,2.349,9.608-.1,7.12,14.76c-2.16,12.916-2.836,12.5-2.836,12.5s-3.269-6.073-4.888-7.007c-2.528-1.457-7.636-.5-7.636-.5s1.769-6.775-2.163-7.295S720.739,181.169,717.01,183.018Z" transform="translate(-715.392 -167.268)" fill="#754836"/>
      </g>
      <g id="Group_809" data-name="Group 809" transform="translate(1238.967 209.008)">
        <path id="Path_2721" data-name="Path 2721" d="M727.666,180.6c.244-.929.934-4.885,4.467-2.976s-1.055,9.71-1.621,9.864S725.61,188.424,727.666,180.6Z" transform="translate(-727.117 -177.114)" fill="#eea886"/>
      </g>
      <g id="Group_810" data-name="Group 810" transform="translate(1241.549 228.215)">
        <path id="Path_2722" data-name="Path 2722" d="M737.57,188.383s-4.818,11.236-8.938,15.043l1.943,6.685,9.405-20.44Z" transform="translate(-728.632 -188.383)" fill="#eddad3"/>
      </g>
      <path id="Path_2723" data-name="Path 2723" d="M731.9,240.532l.791-4.344,45.673,6.686.116,4.705Z" transform="translate(515.218 73.507)" fill="#3d4169"/>
      <g id="Group_811" data-name="Group 811" transform="translate(1243.384 229.503)">
        <path id="Path_2724" data-name="Path 2724" d="M731.3,223.025c1.176,2.412,2.3,4.859,3.365,7.324v0c2.347,5.423,4.433,10.936,6.274,16.328q.987,2.884,1.878,5.718a113.7,113.7,0,0,0,21.162,38.017s18.27-3.407,22.234-6.908c0,0-3.968-26.315-12.538-51.153q-.992-2.879-2.068-5.715l0,0c-7.578-19.957-18.258-37.5-32.381-37.5C738.986,189.49,725.109,210.364,731.3,223.025Z" transform="translate(-729.709 -189.139)" fill="#323657"/>
      </g>
      <path id="Path_2725" data-name="Path 2725" d="M755.857,215.535s5.991,26.032,21.161,46.521c2.057,2.776-19.887,7.08-19.887,7.08Z" transform="translate(532.096 58.959)" fill="#323657"/>
      <path id="Path_2726" data-name="Path 2726" d="M743.681,203.67c6.185,5.42,20.148,18.447,20.148,18.447q-.992-2.879-2.068-5.715l0,0C756.919,212.473,743.884,203.8,743.681,203.67Z" transform="translate(523.518 50.6)" fill="#1d2133"/>
      <path id="Path_2727" data-name="Path 2727" d="M725.813,193.33s.394.673.984,1.721c.245.44.527.948.827,1.495,5.877-5.408,7.029-9,7.063-9.11C731.934,189.906,725.813,193.33,725.813,193.33Z" transform="translate(510.932 39.165)" fill="#a77860"/>
      <path id="Path_2728" data-name="Path 2728" d="M728.856,197.441s-.7,4.593-.2,6.289c.189.636,1.917-.375,1.917-.375Z" transform="translate(512.807 46.213)" fill="#548ad1"/>
      <rect id="Rectangle_452" data-name="Rectangle 452" width="12.565" height="70.317" transform="matrix(0.187, -0.982, 0.982, 0.187, 671.798, 169.506)" fill="#bcc0cf"/>
      <rect id="Rectangle_453" data-name="Rectangle 453" width="12.566" height="70.318" transform="matrix(-0.187, 0.982, -0.982, -0.187, 732.907, 224.549)" fill="#bcc0cf"/>
      <rect id="Rectangle_454" data-name="Rectangle 454" width="18.955" height="119.093" transform="translate(689.752 134.017) rotate(10.77)" fill="#dbdff0"/>
      <g id="Group_812" data-name="Group 812" transform="translate(830.749 220.848)">
        <path id="Path_2729" data-name="Path 2729" d="M1023.367,246.51V252.2c-19.908,14.643-43.31,30.526-68.74,39.747-14.285,5.181-27.867,7.772-40.838,7.772-19.993,0-38.554-6.168-56.059-18.561-42.253-29.879-110.089-10.874-110.771-10.668l-.239.051a117.733,117.733,0,0,1-20.47,1.737c-55.8,0-113.958-36.1-150.314-58.667-12.749-7.907-22.805-14.145-29.435-16.874-28.6-11.759-57.849-7.157-58.155-7.107l-.733-4.534c1.244-.2,30.782-4.873,60.627,7.4,6.988,2.862,17.2,9.2,30.117,17.23,40.259,24.972,107.6,66.781,167.46,56.314a196.952,196.952,0,0,1,40.395-6.119c21.1-1.021,51.082,1.178,74.16,17.487C918.919,318.831,980.143,278.519,1023.367,246.51Z" transform="translate(-487.613 -184.061)" fill="#bcc0cf"/>
      </g>
      <path id="Path_2730" data-name="Path 2730" d="M502.5,154.273l-36.814-7L445.054,255.777l36.812,7a38.194,38.194,0,0,0,44.66-30.387l6.363-33.458A38.2,38.2,0,0,0,502.5,154.273Z" transform="translate(313.156 10.871)" fill="#dbdff0"/>
      <rect id="Rectangle_455" data-name="Rectangle 455" width="9.88" height="28.468" transform="translate(845.057 241.439) rotate(-169.232)" fill="#dbdff0"/>
      <path id="Path_2731" data-name="Path 2731" d="M649.646,219.724c-.276,5.127.556,14.658-3.1,15.026a34.094,34.094,0,0,1-7.5-1.125c-.187-.039-.378-.082-.573-.126-.781-.174-1.6-.365-2.444-.562-.177-.041-.358-.082-.539-.126-12.978-3.1-32.163-8.771-32.163-8.771l7.28-8.747s19.736,5.267,27.557,6.632c.124.019.244.039.358.06-.049-.29-.1-.579-.159-.869-.112-.6-.228-1.207-.348-1.8-1.35-6.838-2.908-12.811-2.908-12.811s-11.149-27.3,2.41-25.171a18.65,18.65,0,0,1,8.539,12.562C647.587,202.622,649.922,214.594,649.646,219.724Z" transform="translate(424.653 34.78)" fill="#dbdff0"/>
      <path id="Path_2732" data-name="Path 2732" d="M625.536,224.26c-.187-.039-.378-.082-.573-.126-.781-.174-1.6-.365-2.444-.562l6.09-29.064C630.167,207.174,625.536,224.26,625.536,224.26Z" transform="translate(438.168 44.146)" fill="#b3b7c4"/>
      <g id="Group_813" data-name="Group 813" transform="translate(982.27 440.595)">
        <path id="Path_2733" data-name="Path 2733" d="M607.6,315.381s-5.865-.581-7.377-.915-2.468-2.177-3.557-1.191-5.045,7.334-8,8.289c-3.02.975-11.924,2.621-12.151,7.522s28.57,1.553,31.479,2.344S607.6,315.381,607.6,315.381Z" transform="translate(-576.511 -312.988)" fill="#4a4f80"/>
      </g>
      <g id="Group_814" data-name="Group 814" transform="translate(1022.039 436.958)">
        <path id="Path_2734" data-name="Path 2734" d="M630.933,313.249s-5.865-.581-7.377-.915-2.468-2.178-3.557-1.193-5.047,7.334-8,8.29c-3.02.973-11.923,2.62-12.151,7.52s28.57,1.554,31.479,2.345S630.933,313.249,630.933,313.249Z" transform="translate(-599.844 -310.854)" fill="#4a4f80"/>
      </g>
      <path id="Path_2735" data-name="Path 2735" d="M609.132,174.2s3.327,8.565.74,15.185c0,0,12.2-.772,12.657-2.156s-.489-14.22,1.186-18.012S609.132,174.2,609.132,174.2Z" transform="translate(428.738 25.663)" fill="#eea886"/>
      <path id="Path_2736" data-name="Path 2736" d="M616.712,179.382s-7.206,2.494-10.462,3.187-10.071,3.833-9.517,15.66,2.587,22.081,3.327,27.162.276,18.016-.924,24.3a93.755,93.755,0,0,0,37.6,0s-3.6-10.716-3.51-13.489,12.011-25.592,12.565-29.2,2.956-19.5-2.5-23-9.886-3.049-12.2-4.619S620.083,178.254,616.712,179.382Z" transform="translate(419.98 32.773)" fill="#dbdff0"/>
      <path id="Path_2737" data-name="Path 2737" d="M605.919,222.677s-3.143,7.426-3.419,9.3-10.124,26.391-10.809,33.565c-.694,7.252-2.773,26.61-3.511,29.381s1.662,15.151,2.032,17.922.186,48.044-3.141,70.4c0,0,11.817,3.015,17.731-.31,0,0,5.737-34.614,5.183-54.755s-1.474-28.017,1.65-36.149,19.785-33.144,21.633-35.732,13.424-16.882,2.461-32.371S605.919,222.677,605.919,222.677Z" transform="translate(413.197 59.787)" fill="#292c47"/>
      <path id="Path_2738" data-name="Path 2738" d="M633.6,289.3c-.972,6.47.051,14.968,2.083,38.622s-1.26,52.311-1.26,52.311c-7.021,2.4-17.4-.02-17.4-.02.186-1.662,0-57.651,0-62.641s-1.433-10.651-1.8-16.378c-.252-3.9-2.068-11.1-4.111-18.442-.612-2.2-1.244-4.413-1.859-6.555v0c-.346-1.2-.683-2.379-1.014-3.521-2.877-9.979-6.748-48.508-6.748-48.508s21.939-17.581,31.887-1.012c9.864,16.424,5.081,28.087,4.713,30.117S634.57,282.835,633.6,289.3Z" transform="translate(423.349 59.315)" fill="#292c47"/>
      <path id="Path_2739" data-name="Path 2739" d="M599.139,214.9s2.108,31.561-4.822,48.329c0,0,20.484,6.455,50-1.168,0,0-3.543-21.742-3.037-24.929s10.489-40.369,7.09-49.021S602.546,187.6,599.139,214.9Z" transform="translate(418.302 37.314)" fill="#dbdff0"/>
      <path id="Path_2740" data-name="Path 2740" d="M620.384,152.012c-5.149-.583-18.478.462-17.464,20.511s8.316,18.848,15.616,16.722,15.982-17.646,15.982-21.8S635.075,153.673,620.384,152.012Z" transform="translate(424.324 14.133)" fill="#eea886"/>
      <path id="Path_2741" data-name="Path 2741" d="M603.332,164.127s5.8,7.4,11.631,9.165c0,0,4.489,8.028,12.321,10.072,0,0,16.7-15.971,2.656-27.982S603.24,158,603.332,164.127Z" transform="translate(424.652 13.348)" fill="#fccca2"/>
      <path id="Path_2742" data-name="Path 2742" d="M609.61,163.186c.194-1.1,2.626-3.325,4.5-.83s-1.544,8.316-2.838,8.316S608.87,167.345,609.61,163.186Z" transform="translate(428.907 20.696)" fill="#eea886"/>
      <path id="Path_2743" data-name="Path 2743" d="M621.5,238.635c-.165.37-10.852,24.087-13.6,28.2-.612-2.2-1.244-4.413-1.859-6.555v0S621.139,239.157,621.5,238.635Z" transform="translate(426.557 75.231)" fill="#1b1c2e"/>
      <path id="Path_2744" data-name="Path 2744" d="M623.423,156.4c.418-.637,13.076-6.339,15.71,5.579s-10.194,25.778-12.442,31.737,1.016,19.927,1.016,19.927-7.719-7.1-10.054-14.535C615.088,190.941,614.228,170.356,623.423,156.4Z" transform="translate(433.523 15.948)" fill="#fccca2"/>
      <path id="Path_2745" data-name="Path 2745" d="M622.575,155.382a12.388,12.388,0,0,0-4.374,7.692s-.726-3.673.835-5.918A3.535,3.535,0,0,1,622.575,155.382Z" transform="translate(435.008 16.556)" fill="#e8734d"/>
      <path id="Path_2746" data-name="Path 2746" d="M556.556,202.848s-2.316,1.188-3.537,1.737-2.553,1.4-2.454,2.535-.337,4.154-.252,5.856,7.491,5.309,9,5.117,5.725-6.087,5.265-8.756-1.265-6.594-1.265-6.594Z" transform="translate(387.296 49.947)" fill="#eea886"/>
      <path id="Path_2747" data-name="Path 2747" d="M641.175,182.611s-5.848-6.421-20.361,5.335c-10.639,8.612-16.414,14.1-18.364,15.072s-9.09,5.011-14.551,5.96-30.421,9.25-30.421,9.25l1.566,8.081s32.266-4.7,36.205-6.325,29.158-14.564,33.136-17.416C631.5,200.336,647.267,190.007,641.175,182.611Z" transform="translate(392.352 34.533)" fill="#dbdff0"/>
      <path id="Path_2748" data-name="Path 2748" d="M606.333,204.73a18.639,18.639,0,0,1-5.747-10.3s-9.034,4.651-12.686,4.991-30.421,9.25-30.421,9.25l1.3,8.186s31.817-4.147,36.468-6.431S606.333,204.73,606.333,204.73Z" transform="translate(392.352 44.092)" fill="#eea886"/>
      <path id="Path_2749" data-name="Path 2749" d="M599.366,216.773s-3.238.119-4.934-5.962a7.87,7.87,0,0,1-.257-1.815,26.322,26.322,0,0,1,.368-4.962c1.227-7.99,4.989-18.693,4.989-18.693a93.067,93.067,0,0,1,3.008,13.958c.118,1,.211,1.946.274,2.845C603.695,214.316,599.366,216.773,599.366,216.773Z" transform="translate(418.191 37.69)" fill="#dbdff0"/>
      <path id="Path_2750" data-name="Path 2750" d="M608.225,191.121a76.949,76.949,0,0,1-5.412,6.952c-2.678,3.034-5.908,6.09-8.64,6.852a26.322,26.322,0,0,1,.368-4.962s4.081-2.229,8-4.735A45.764,45.764,0,0,0,608.225,191.121Z" transform="translate(418.191 41.761)" fill="#9ea1ad"/>
      <g id="Group_815" data-name="Group 815" transform="translate(1317.419 301.294)">
        <path id="Path_2751" data-name="Path 2751" d="M790.661,246.173a6.868,6.868,0,0,0-.278-2.168s-.651-1.166-1.065-2.021a6.1,6.1,0,0,1-.29-.675,12.556,12.556,0,0,0-1.5-3.709c-.99-1.478-5.018-6.34-5.018-6.34l-4.754,2.7-4.61,1.1s.419,10.794,1.183,12.277a4.5,4.5,0,0,0,.239.411,16.115,16.115,0,0,0,2.318,2.338c.176.211,2.064,2.2,2.88,2.146a2.68,2.68,0,0,0,2.276-1.268,6.4,6.4,0,0,0,3.266-1.321,3.98,3.98,0,0,0,2.974-1.87S790.344,247.376,790.661,246.173Z" transform="translate(-773.145 -231.259)" fill="#efaa88"/>
      </g>
      <path id="Path_2752" data-name="Path 2752" d="M739.364,206.759s25.872,16.059,35.527,25.4c3.029,2.93,22.778,33.141,23.985,34.245s12.95-3.985,12.95-3.985-23.637-37.934-25.113-40.136-39.468-30.8-43.971-32.019-4.818,1.06-6.755,5.659C733.27,202.38,739.364,206.759,739.364,206.759Z" transform="translate(517.607 40.928)" fill="#323657"/>
      <g id="Group_817" data-name="Group 817" transform="translate(1241.395 247.85)">
        <g id="Group_816" data-name="Group 816">
          <path id="Path_2753" data-name="Path 2753" d="M728.581,201.868s4.183,16.276,18.531,15.9c12.853-.334,32.019,4.12,38.532,8.4l8.1,5.688-2.683-8.389s-6.784-13.029-43.969-7.4c0,0-11.23,3.346-17.061-16.163C730.03,199.9,728.256,201.082,728.581,201.868Z" transform="translate(-728.542 -199.903)" fill="#548ad1"/>
        </g>
      </g>
      <g id="Group_818" data-name="Group 818" transform="translate(1181.908 305.047)">
        <path id="Path_2754" data-name="Path 2754" d="M694.235,236.781s5.618-4.033,6.378-3.209a1.756,1.756,0,0,1,.542,1.59l3.066-.612s2.258.74.791,2.984c0,0,2.182.472.506,2.47,0,0,1.3.953.688,2.016s-4.334,3.508-4.334,3.508-1.019.164-1.715-1.447a2.387,2.387,0,0,1-2.149-1.64,2.621,2.621,0,0,1-1.834-1.97s-2.91-.776-2.494-3.237C693.681,237.235,694,236.95,694.235,236.781Z" transform="translate(-693.64 -233.461)" fill="#db9c7c"/>
      </g>
      <g id="Group_819" data-name="Group 819" transform="translate(1188.79 300.743)">
        <path id="Path_2755" data-name="Path 2755" d="M700.027,230.936s-2.17,4.22-2.34,7.044c-.039.639.039,1.266.619,1.544s1.715-.21,2.746-1.991a17.35,17.35,0,0,1,3.182-3.61S704.758,231.783,700.027,230.936Z" transform="translate(-697.678 -230.936)" fill="#eea987"/>
      </g>
      <g id="Group_820" data-name="Group 820" transform="translate(0.503 169.551)">
        <path id="Path_2756" data-name="Path 2756" d="M631.16,167.371l-1.5,1.74-1.517,1.737A57.493,57.493,0,0,0,607.315,160.4c-16.789-4.534-33.185-.989-48.764,10.552-13.363,9.884-25.089,24.252-38.674,40.906-25.464,31.174-57.15,69.982-116.668,98.908C401.044,312.334,381.7,325.8,347.576,334a226.691,226.691,0,0,1-52.991,6.1c-27.8,0-61.189-4.7-98.959-18.766C126.222,295.529,60.652,264.9.5,230.181V224.9c60.558,35.113,126.673,66.083,196.708,92.143,65.194,24.252,117.043,20.213,149.035,12.562,34.685-8.285,54.218-22.5,54.423-22.652l.358-.2c58.735-28.5,90.1-66.916,115.288-97.785C530.1,192.068,542,177.5,555.824,167.268c20.947-15.527,40.31-14.675,52.872-11.23A61.684,61.684,0,0,1,631.16,167.371Z" transform="translate(-0.503 -153.965)" fill="#bcc0cf"/>
      </g>
      <path id="Path_2757" data-name="Path 2757" d="M387.426,241.024l36.814,7,20.634-108.5-36.814-7A38.2,38.2,0,0,0,363.4,162.9l-6.361,33.458A38.2,38.2,0,0,0,387.426,241.024Z" transform="translate(250.676 0)" fill="#dbdff0"/>
      <rect id="Rectangle_456" data-name="Rectangle 456" width="9.88" height="28.468" transform="translate(614.271 194.497) rotate(-169.232)" fill="#dbdff0"/>
      <g id="Group_821" data-name="Group 821" transform="translate(448.164 278.085)">
        <path id="Path_2758" data-name="Path 2758" d="M273.651,232.547a5.53,5.53,0,0,1-1.675-.574s-.818-.709-1.432-1.179a5.566,5.566,0,0,0-.487-.341,10.158,10.158,0,0,1-2.7-1.8c-1.011-1.028-4.21-5.023-4.21-5.023l2.92-3.33,2.269-2.659s7.863,1.282,8.914,2.131a3.817,3.817,0,0,1,.286.257,13.032,13.032,0,0,1,1.476,2.223c.138.174,1.408,2,1.231,2.638a2.175,2.175,0,0,1-1.379,1.6,5.2,5.2,0,0,1-1.583,2.376,3.227,3.227,0,0,1-1.972,2.056S274.656,232.493,273.651,232.547Z" transform="translate(-263.148 -217.642)" fill="#eea886"/>
      </g>
      <path id="Path_2759" data-name="Path 2759" d="M245.916,179.8s-9.3,5.833-10.116,15.572.636,13.141,1.715,17.28c1.019,3.907,2.078,14.8,2.272,15.943s.8,15.948,5.078,19.253c4.3,3.32,38.435,4.945,38.677,5.972s2.124-10.869,2.124-10.869-18.016-1.374-20.412-2.422c-3.89-1.7-10.871-2.367-11.171-6.373-.351-4.706-2.045-20.37-1.94-22.809S253.12,179.837,245.916,179.8Z" transform="translate(165.584 33.786)" fill="#1d5e94"/>
      <g id="Group_822" data-name="Group 822" transform="translate(502.844 240.051)">
        <path id="Path_2760" data-name="Path 2760" d="M305.282,196.157s-6.283-1.474-6.644-.493a1.64,1.64,0,0,0,.1,1.563l-2.862.566s-1.682,1.444.383,2.855c0,0-1.713,1.186.443,2.311,0,0-.779,1.287.126,1.984s4.987,1.479,4.987,1.479.936-.222.963-1.858a2.224,2.224,0,0,0,1.266-2.178,2.456,2.456,0,0,0,.881-2.354s2.233-1.708,1-3.68C305.921,196.353,305.546,196.22,305.282,196.157Z" transform="translate(-295.229 -195.327)" fill="#db9c7c"/>
      </g>
      <g id="Group_823" data-name="Group 823" transform="translate(499.982 237.386)">
        <path id="Path_2761" data-name="Path 2761" d="M296.3,193.764s3.375,2.865,4.529,5.241a1.333,1.333,0,0,1,.017,1.549c-.4.447-1.553.431-3.078-.738a16.233,16.233,0,0,0-4.031-1.977S292.52,196.181,296.3,193.764Z" transform="translate(-293.55 -193.764)" fill="#eea886"/>
      </g>
      <g id="Group_824" data-name="Group 824" transform="translate(97.399 289.126)">
        <path id="Path_2762" data-name="Path 2762" d="M67.612,243.136a6.279,6.279,0,0,0,1.529-1.294s.571-1.082,1.023-1.829a6.5,6.5,0,0,1,.373-.559,11.45,11.45,0,0,0,2.107-3c.643-1.5,2.374-7.022,2.374-7.022l-4.445-2.308-3.146-3s-8.094,5.7-8.855,7.033a3.467,3.467,0,0,0-.194.39,14.641,14.641,0,0,0-.644,2.945c-.075.242-.663,2.686-.213,3.288a2.455,2.455,0,0,0,2.108,1.118,5.878,5.878,0,0,0,2.644,1.853,3.646,3.646,0,0,0,2.921,1.357S66.528,243.493,67.612,243.136Z" transform="translate(-57.352 -224.12)" fill="#efaa88"/>
      </g>
      <path id="Path_2763" data-name="Path 2763" d="M73.149,239.833s-7.551-4.9-11.28-8.616l16.4-17.082,12.355,7.15Z" transform="translate(43.228 57.972)" fill="#5e5f70"/>
      <g id="Group_825" data-name="Group 825" transform="translate(20.295 256.029)">
        <path id="Path_2764" data-name="Path 2764" d="M13.069,205.909s6.359-1.911,6.792-.924a1.691,1.691,0,0,1,0,1.612l2.974.4s1.819,1.375-.213,2.956c0,0,1.832,1.11-.31,2.4,0,0,.883,1.273-.005,2.047s-5.028,1.832-5.028,1.832-.975-.169-1.106-1.848a2.292,2.292,0,0,1-1.439-2.158,2.522,2.522,0,0,1-1.052-2.362s-2.4-1.612-1.254-3.716C12.425,206.149,12.8,205.989,13.069,205.909Z" transform="translate(-12.115 -204.702)" fill="#db9c7c"/>
      </g>
      <g id="Group_826" data-name="Group 826" transform="translate(26.933 253.006)">
        <path id="Path_2765" data-name="Path 2765" d="M20.544,202.928s-3.284,3.157-4.322,5.669c-.234.568-.358,1.162.082,1.594s1.621.344,3.114-.951a16.649,16.649,0,0,1,4.016-2.286S24.578,205.174,20.544,202.928Z" transform="translate(-16.01 -202.928)" fill="#eea886"/>
      </g>
      <path id="Path_2766" data-name="Path 2766" d="M196.464,190.29a99.6,99.6,0,0,0-14.034,0c-5.805.593-13.828,5.343-18.686,6.717s-16.572,9.248-16.255,10.324a87.575,87.575,0,0,0,13.249,24.3C167.921,240.54,196.464,190.29,196.464,190.29Z" transform="translate(103.537 40.988)" fill="#dbdff0"/>
      <path id="Path_2767" data-name="Path 2767" d="M172.458,193.209s-8.87,6.569-11.958,12.586a48.707,48.707,0,0,0-4.14,13.184Z" transform="translate(109.791 43.231)" fill="#a9adba"/>
      <path id="Path_2768" data-name="Path 2768" d="M199.062,311.139a19.337,19.337,0,0,0,3.61,3.073c1.321.644,17.119,3.359,18.193,4.646s1.07,6.363-3,6.363-17.658-.072-19.944,0-11.951,2-12.945,0-.9-11.343.864-13.583S199.062,311.139,199.062,311.139Z" transform="translate(129.5 125.852)" fill="#0f1e2b"/>
      <path id="Path_2769" data-name="Path 2769" d="M199.421,309.068l.537,3.145s-4.67,2.139-14.646.554v-3.245Z" transform="translate(130.185 124.846)" fill="#944a31"/>
      <path id="Path_2770" data-name="Path 2770" d="M109.964,303.5s-2.3,2.7-2.434,4.343-2.962,8.884-1.909,10.661,9.344,2.039,13.489,1.381,13.163.724,14.084-1.053,1.449-4.367-1.249-5.374-8.885-3.641-10-6.405S109.964,303.5,109.964,303.5Z" transform="translate(73.883 120.923)" fill="#0f1e2b"/>
      <path id="Path_2771" data-name="Path 2771" d="M122.882,306.259l-1.384,3.562s-14.29-1.07-14.409-4.275l4.513-6.571Z" transform="translate(75.083 117.737)" fill="#944a31"/>
      <g id="Group_828" data-name="Group 828" transform="translate(304.736 225.275)">
        <g id="Group_827" data-name="Group 827">
          <path id="Path_2772" data-name="Path 2772" d="M189.511,186.658s-7.915,6.7-10.181,6.15,7.811,14.31,7.811,14.31,9.6-9.446,11.759-9.732S189.511,186.658,189.511,186.658Z" transform="translate(-178.998 -186.658)" fill="#eea886"/>
        </g>
      </g>
      <path id="Path_2773" data-name="Path 2773" d="M186.728,203.788c-2.712,1.636-3.169,2.163-2.85,9.923s3.535,14.014,3.774,16.151,5.937,27.314,7.125,28.5,15.069,17.946,16.443,19.318S222.3,291.089,222.3,291.089l6.968-2.429s-18.58-32.3-19.318-34.1-6.066-32.014-6.7-35.287.47-8.416-3.44-16.178C196.314,196.148,186.728,203.788,186.728,203.788Z" transform="translate(129.113 48.141)" fill="#dbdff0"/>
      <path id="Path_2774" data-name="Path 2774" d="M188.238,246.2s2.006,2.746,3.482,4.328,26.391,29.558,27.975,33.253,2.006,17.944,2.534,23.119,8.769,64.131,9.192,64.871-12.13,3.552-18.675.176c0,0-7.619-38.445-9.2-44.039s-4.435-24.7-4.118-26.92-20.058-25.756-25.759-29.241-19.633-15.834-21.217-17.418S141.9,248.52,142.74,240.5s6.809-14.356,6.809-14.356Z" transform="translate(100.157 66.43)" fill="#1d3b54"/>
      <path id="Path_2775" data-name="Path 2775" d="M189.457,264.276s-.891,2.344-2.142,5.628c-2.684,7.053-7.024,18.435-7.745,20.232-1.055,2.642-6.334,14.044-8.866,16.26s-45.75,54.866-45.858,55.287-18.508-.322-19.46-3.383c0,0,27-39.343,30.48-43.669s10.767-10.769,13.2-21.011,19.841-49.611,19.9-51.09c0,0,2.8-12.139,6.865-15.834s18.842.632,21.164,8.338S189.457,264.276,189.457,264.276Z" transform="translate(73.883 65.876)" fill="#1d3b54"/>
      <path id="Path_2776" data-name="Path 2776" d="M213.763,250.984a31.156,31.156,0,0,0,4.005,3.75c1.341.837,2.632.883,2.337,2.2s-.259,4.919-.626,6.9-9.616,5.037-11.346,4.575-5.747-8.035-4.786-11.089,2.524-7.525,2.524-7.525Z" transform="translate(142.787 83.093)" fill="#eea886"/>
      <path id="Path_2777" data-name="Path 2777" d="M205.237,231.74a31.614,31.614,0,0,0-15,4.391s10.641,12.7,14.471,17.072,13.056,15.654,13.056,15.654l6.968-2.429s-11.4-19.635-13.409-24.174A82.921,82.921,0,0,0,205.237,231.74Z" transform="translate(133.654 70.374)" fill="#eea886"/>
      <g id="Group_830" data-name="Group 830" transform="translate(315.204 202.309)">
        <g id="Group_829" data-name="Group 829">
          <path id="Path_2778" data-name="Path 2778" d="M217.183,183.136s-.663,9.625-2.848,10.893-.167,9.272-1.657,9.674-4.005.407-4.164.709-7.762,8.3-9.865,7.174-15.074-10.9-13.353-15.855,4.665-16.381,5.045-18.614S207.393,166.9,217.183,183.136Z" transform="translate(-185.14 -173.184)" fill="#eea886"/>
        </g>
      </g>
      <g id="Group_832" data-name="Group 832" transform="translate(315.94 199.701)">
        <g id="Group_831" data-name="Group 831">
          <path id="Path_2779" data-name="Path 2779" d="M201.209,171.688a17.93,17.93,0,0,0-4.507.755c-1.162-.181-8.5,1.069-9.3,4.59-1.081,4.737-1.609,16.589-1.824,17.973-.027.186.164-.078.494-.675,2.759-3.307,9.821-4.338,9.821-4.338l3.042.522a8.244,8.244,0,0,1,2.221-4.876c4.551-1.047,15.383,1.829,15.383,1.829C223.736,174.1,210.036,171.295,201.209,171.688Z" transform="translate(-185.571 -171.654)" fill="#1d3b54"/>
        </g>
      </g>
      <g id="Group_834" data-name="Group 834" transform="translate(322.2 212.574)">
        <g id="Group_833" data-name="Group 833">
          <path id="Path_2780" data-name="Path 2780" d="M194.425,181.145c.02-1.365-3.359-3.421-4.767-.305s1.1,8.067,2.812,7.413S194.406,182.6,194.425,181.145Z" transform="translate(-189.245 -179.207)" fill="#eea886"/>
        </g>
      </g>
      <path id="Path_2781" data-name="Path 2781" d="M178.77,190.773l3.366-1.329s8.5,1.953,13.405,8.762l-.423,2.035S182.162,197.433,178.77,190.773Z" transform="translate(125.577 40.579)" fill="#dbdff0"/>
      <path id="Path_2782" data-name="Path 2782" d="M159.445,252.316s-.891,2.344-2.142,5.628c-2.836-3.266-9.313-15.611-9.313-15.611.421.3,1.776,1.575,2.091,1.856S159.445,252.316,159.445,252.316Z" transform="translate(103.895 77.836)" fill="#0f1e2b"/>
      <path id="Path_2783" data-name="Path 2783" d="M214.329,239.828a13.668,13.668,0,0,1-1.587,1.938c-.24.21-.532.453-.869.724l-.007,0a133.228,133.228,0,0,1-13.8,9.407c-3.7,2.008-12.669,19.633-12.669,19.633s-31.089-2.954-38.689-20.054c0,0,5.383-12.035,10.291-19.161s15.676-32.776,21.377-36.419,10.61-6.017,21.851-5.7,17.472,9.238,17.472,9.238,8.551,9.183,9.393,14.038C227.826,217.653,218.542,233.952,214.329,239.828Z" transform="translate(102.994 41.092)" fill="#dbdff0"/>
      <path id="Path_2784" data-name="Path 2784" d="M187.533,223.48a13.668,13.668,0,0,1-1.587,1.938c-.24.21-.532.453-.869.724l-.007,0-.319-12.768s1.6,4.922,1.841,5.648S187.533,223.48,187.533,223.48Z" transform="translate(129.79 57.439)" fill="#a9adba"/>
    </g>
    <g id="Group_505" data-name="Group 505" transform="translate(154 31)">
      <text id="Technician" transform="translate(690 6154)" fill="#21232a" font-size="20" font-family="HelveticaNeue-Bold, Helvetica Neue" font-weight="700"><tspan x="0.09" y="20">Technician</tspan></text>
      <text id="Main_Purpose" data-name="Main
Purpose" transform="translate(537 6244)" fill="#21232a" font-size="20" font-family="HelveticaNeue-Bold, Helvetica Neue" font-weight="700"><tspan x="21.18" y="20">Main</tspan><tspan x="4.68" y="45">Purpose</tspan></text>
      <text id="Example_Use_Case" data-name="Example
Use Case" transform="translate(530 6371)" fill="#21232a" font-size="20" font-family="HelveticaNeue-Bold, Helvetica Neue" font-weight="700"><tspan x="10.42" y="20">Example</tspan><tspan x="5.94" y="45">Use Case</tspan></text>
      <line id="Line_103" data-name="Line 103" y2="381.054" transform="translate(648.5 6127.474)" fill="none" stroke="#707070" stroke-width="1" opacity="0.2"/>
      <line id="Line_104" data-name="Line 104" x1="512.5" transform="translate(512 6339.5)" fill="none" stroke="#707070" stroke-width="1" opacity="0.2"/>
      <text id="Disconnecting_specific_customers_at_a_plant" data-name="Disconnecting specific customers at a plant" transform="translate(668 6244)" fill="#707070" font-size="14" font-family="HelveticaNeue, Helvetica Neue"><tspan x="1.716" y="13">Disconnecting specific </tspan><tspan x="8.443" y="28">customers at a plant</tspan></text>
      <text id="Disconnecting_all_customers_at_a_plant_" data-name="Disconnecting all customers at a plant " transform="translate(879 6244)" fill="#707070" font-size="14" font-family="HelveticaNeue, Helvetica Neue"><tspan x="2.77" y="13">Disconnecting </tspan><tspan x="5.752" y="28">all customers </tspan><tspan x="18.324" y="43">at a plant </tspan></text>
      <text id="Disconnecting_high-load_customers_when_a_demand_surge_causes_the_plant_to_trip_until_system_stability_is_restored" data-name="Disconnecting high-load customers when a demand surge causes the plant to trip, until system stability is restored" transform="translate(668 6371)" fill="#707070" font-size="14" font-family="HelveticaNeue, Helvetica Neue"><tspan x="9.745" y="13">Disconnecting high-</tspan><tspan x="5.342" y="28">load customers when </tspan><tspan x="21.862" y="43">a demand surge </tspan><tspan x="12.853" y="58">causes the plant to </tspan><tspan x="20.889" y="73">trip, until system </tspan><tspan x="13.77" y="88">stability is restored</tspan></text>
      <text id="Disconnecting_all_customers_for_safety_during_network_maintenance" data-name="Disconnecting all customers for safety during network maintenance" transform="translate(861 6371)" fill="#707070" font-size="14" font-family="HelveticaNeue, Helvetica Neue"><tspan x="11.457" y="13">Disconnecting all </tspan><tspan x="0.957" y="28">customers for safety </tspan><tspan x="18.072" y="43">during network </tspan><tspan x="24.799" y="58">maintenance</tspan></text>
      <line id="Line_105" data-name="Line 105" y2="381.054" transform="translate(833.5 6127.474)" fill="none" stroke="#707070" stroke-width="1" opacity="0.2"/>
      <text id="Cluster_In-charge" data-name="Cluster
In-charge" transform="translate(875 6154)" fill="#21232a" font-size="20" font-family="HelveticaNeue-Bold, Helvetica Neue" font-weight="700"><tspan x="16.56" y="20">Cluster</tspan><tspan x="5.18" y="45">In-charge</tspan></text>
    </g>
  </g>
</svg>
