<svg xmlns="http://www.w3.org/2000/svg" xmlns:xlink="http://www.w3.org/1999/xlink" width="1078.5" height="339.872" viewBox="0 0 1078.5 339.872">
  <defs>
    <clipPath id="clip-path">
      <rect x="15" y="-7.739" width="271.646" height="300.18" fill="none"/>
    </clipPath>
  </defs>
  <g id="Group_2661" data-name="Group 2661" transform="translate(-421 -2003.468)">
    <text id="State_In-carge" data-name="State
In-carge" transform="translate(1303 2019)" fill="#21232a" font-size="20" font-family="HelveticaNeue-Bold, Helvetica Neue" font-weight="700"><tspan x="59.99" y="20">State</tspan><tspan x="45.11" y="45">In-carge</tspan></text>
    <text id="Same_as_Cluster_In-charge" data-name="Same as Cluster In-charge" transform="translate(1306 2109)" fill="#707070" font-size="14" font-family="HelveticaNeue, Helvetica Neue"><tspan x="20.155" y="13">Same as Cluster In-</tspan><tspan x="60.678" y="29">charge</tspan></text>
    <text id="Same_as_Cluster_In-charge-2" data-name="Same as Cluster In-charge" transform="translate(1306 2236)" fill="#707070" font-size="14" font-family="HelveticaNeue, Helvetica Neue"><tspan x="20.155" y="13">Same as Cluster In-</tspan><tspan x="60.678" y="29">charge</tspan></text>
    <line id="Line_160" data-name="Line 160" y2="339.872" transform="translate(1294.5 2003.468)" fill="none" stroke="#707070" stroke-width="1" opacity="0.2"/>
    <text id="Checking_how_reliance_of_different_plants_on_backup_generators_changes_over_time" data-name="Checking how reliance of different plants on backup generators changes over time" transform="translate(1121 2236)" fill="#707070" font-size="14" font-family="HelveticaNeue, Helvetica Neue"><tspan x="3.054" y="13">Checking how reliance of </tspan><tspan x="0.282" y="29">different plants on backup </tspan><tspan x="4.349" y="45">generators changes over </tspan><tspan x="68.511" y="61">time</tspan></text>
    <text id="To_view_generator_usage_at_different_plants" data-name="To view generator usage at different plants" transform="translate(1137 2109)" fill="#707070" font-size="14" font-family="HelveticaNeue, Helvetica Neue"><tspan x="10.658" y="13">To view generator </tspan><tspan x="11.652" y="29">usage at different </tspan><tspan x="46.939" y="45">plants</tspan></text>
    <text id="Cluster_In-charge" data-name="Cluster
In-charge" transform="translate(1152 2019)" fill="#21232a" font-size="20" font-family="HelveticaNeue-Bold, Helvetica Neue" font-weight="700"><tspan x="16.56" y="20">Cluster</tspan><tspan x="5.18" y="45">In-charge</tspan></text>
    <line id="Line_161" data-name="Line 161" y2="339.872" transform="translate(1110.5 2003.468)" fill="none" stroke="#707070" stroke-width="1" opacity="0.2"/>
    <text id="CSA" transform="translate(934 2019)" fill="#21232a" font-size="20" font-family="HelveticaNeue-Bold, Helvetica Neue" font-weight="700"><tspan x="64.25" y="20">CSA</tspan></text>
    <text id="Same_as_Operator" data-name="Same as
Operator" transform="translate(947 2109)" fill="#707070" font-size="14" font-family="HelveticaNeue, Helvetica Neue"><tspan x="45.27" y="13">Same as</tspan><tspan x="44.626" y="29">Operator</tspan></text>
    <text id="Same_as_Operator-2" data-name="Same as
Operator" transform="translate(941 2236)" fill="#707070" font-size="14" font-family="HelveticaNeue, Helvetica Neue"><tspan x="50.77" y="13">Same as</tspan><tspan x="50.126" y="29">Operator</tspan></text>
    <line id="Line_162" data-name="Line 162" y2="339.872" transform="translate(926.5 2003.468)" fill="none" stroke="#707070" stroke-width="1" opacity="0.2"/>
    <text id="Same_as_Operator-3" data-name="Same as
Operator" transform="translate(761 2109)" fill="#707070" font-size="14" font-family="HelveticaNeue, Helvetica Neue"><tspan x="45.27" y="13">Same as</tspan><tspan x="44.626" y="29">Operator</tspan></text>
    <text id="Same_as_Operator-4" data-name="Same as
Operator" transform="translate(761 2236)" fill="#707070" font-size="14" font-family="HelveticaNeue, Helvetica Neue"><tspan x="45.27" y="13">Same as</tspan><tspan x="44.626" y="29">Operator</tspan></text>
    <text id="Technician" transform="translate(783 2019)" fill="#21232a" font-size="20" font-family="HelveticaNeue-Bold, Helvetica Neue" font-weight="700"><tspan x="0.09" y="20">Technician</tspan></text>
    <line id="Line_163" data-name="Line 163" x1="1078.5" transform="translate(421 2204.5)" fill="none" stroke="#707070" stroke-width="1" opacity="0.2"/>
    <line id="Line_164" data-name="Line 164" y2="339.872" transform="translate(741.5 2003.468)" fill="none" stroke="#707070" stroke-width="1" opacity="0.2"/>
    <text id="To_log_diesel_generator_runtime_and_units_output" data-name="To log diesel generator runtime and units output" transform="translate(577 2109)" fill="#707070" font-size="14" font-family="HelveticaNeue, Helvetica Neue"><tspan x="2.464" y="13">To log diesel generator </tspan><tspan x="19.159" y="29">runtime and units </tspan><tspan x="53.137" y="45">output</tspan></text>
    <text id="Recording_each_time_the_DG_is_switched_on_and_off" data-name="Recording each time the DG is switched on and off" transform="translate(573 2236)" fill="#707070" font-size="14" font-family="HelveticaNeue, Helvetica Neue"><tspan x="0.497" y="13">Recording each time the </tspan><tspan x="6.083" y="29">DG is switched on and </tspan><tspan x="68.943" y="45">off</tspan></text>
    <text id="Operator" transform="translate(600 2019)" fill="#21232a" font-size="20" font-family="HelveticaNeue-Bold, Helvetica Neue" font-weight="700"><tspan x="7.22" y="20">Operator</tspan></text>
    <line id="Line_165" data-name="Line 165" y2="339.872" transform="translate(557.5 2003.468)" fill="none" stroke="#707070" stroke-width="1" opacity="0.2"/>
    <text id="Example_Use_Case" data-name="Example
Use Case" transform="translate(441 2236)" fill="#21232a" font-size="20" font-family="HelveticaNeue-Bold, Helvetica Neue" font-weight="700"><tspan x="10.42" y="20">Example</tspan><tspan x="5.94" y="45">Use Case</tspan></text>
    <text id="Main_Purpose" data-name="Main
Purpose" transform="translate(440.5 2109)" fill="#21232a" font-size="20" font-family="HelveticaNeue-Bold, Helvetica Neue" font-weight="700"><tspan x="21.18" y="20">Main</tspan><tspan x="4.68" y="45">Purpose</tspan></text>
    <g id="Group_2615" data-name="Group 2615" transform="matrix(0.819, -0.574, 0.574, 0.819, -1983.38, 908.73)" opacity="0.195">
      <g id="Group_2032" data-name="Group 2032" transform="translate(1857.812 2847.445)">
        <g id="Group_2024" data-name="Group 2024" transform="translate(58.123)">
          <path id="Path_4092" data-name="Path 4092" d="M569.589,53.816a18.551,18.551,0,0,1,3.456-3.529l-.823-4.5,6.967-2.973,2.682,3.71a18.54,18.54,0,0,1,4.939-.055l2.6-3.765,7.028,2.824-.725,4.518a18.545,18.545,0,0,1,3.527,3.456l4.505-.821,2.973,6.966-3.71,2.684a18.535,18.535,0,0,1,.053,4.938l3.765,2.6L604.006,76.9l-4.518-.727a18.547,18.547,0,0,1-3.456,3.529l.823,4.5-6.968,2.973-2.684-3.71a18.581,18.581,0,0,1-4.936.055l-2.6,3.765-7.029-2.824.725-4.518a18.49,18.49,0,0,1-3.527-3.456l-4.505.823-2.973-6.967,3.71-2.684a18.53,18.53,0,0,1-.053-4.938l-3.765-2.6,2.824-7.029,4.518.727Zm7.537,7.828a8.126,8.126,0,1,0,10.57-4.511A8.125,8.125,0,0,0,577.126,61.644Z" transform="translate(-562.246 -42.701)" fill="#f5f5f5" fill-rule="evenodd"/>
        </g>
        <g id="Group_2025" data-name="Group 2025" transform="translate(88.587 19.593)">
          <path id="Path_4093" data-name="Path 4093" d="M608.633,94.959a65.059,65.059,0,0,1,12.122-12.376l-2.885-15.8,24.443-10.43,9.413,13.014a65.107,65.107,0,0,1,17.325-.191l9.13-13.208,24.658,9.91-2.546,15.85A65.088,65.088,0,0,1,712.67,93.851l15.8-2.885,10.43,24.443-13.014,9.413a65.151,65.151,0,0,1,.189,17.323l13.208,9.131-9.907,24.658-15.853-2.545A65.111,65.111,0,0,1,701.4,185.766l2.885,15.8L679.842,212l-9.415-13.016a65.145,65.145,0,0,1-17.322.191l-9.131,13.208-24.658-9.908,2.547-15.852A65.033,65.033,0,0,1,609.485,174.5l-15.8,2.885-10.43-24.443,13.016-9.415a65.145,65.145,0,0,1-.19-17.322l-13.208-9.131,9.907-24.658,15.855,2.546Zm26.442,27.465A28.508,28.508,0,1,0,672.157,106.6,28.508,28.508,0,0,0,635.075,122.424Z" transform="translate(-582.871 -55.966)" fill="#ebebeb" fill-rule="evenodd"/>
        </g>
        <g id="Group_2031" data-name="Group 2031" transform="translate(0 86.676)">
          <g id="Group_2026" data-name="Group 2026" transform="translate(0.251 0.378)">
            <path id="Path_4094" data-name="Path 4094" d="M535.747,120.831a32.044,32.044,0,0,1,5.967-6.091l-1.421-7.78,12.032-5.134,4.634,6.408a32.047,32.047,0,0,1,8.529-.095l4.493-6.5,12.139,4.877-1.254,7.8a32.019,32.019,0,0,1,6.093,5.969l7.778-1.419,5.134,12.031-6.408,4.634a31.98,31.98,0,0,1,.093,8.527l6.5,4.495-4.876,12.139-7.8-1.254a32.063,32.063,0,0,1-5.969,6.093l1.421,7.778L570.8,178.443l-4.634-6.408a31.975,31.975,0,0,1-8.527.093l-4.495,6.5L541,173.753l1.254-7.8a32.063,32.063,0,0,1-6.093-5.969l-7.778,1.421-5.134-12.032,6.407-4.635a32.026,32.026,0,0,1-.093-8.526l-6.5-4.495,4.876-12.139,7.8,1.254Zm13.016,13.52a14.033,14.033,0,1,0,18.254-7.79A14.034,14.034,0,0,0,548.763,134.351Z" transform="translate(-523.066 -101.638)" fill="#e0e0e0"/>
          </g>
          <g id="Group_2028" data-name="Group 2028" transform="translate(24.751 23.979)">
            <g id="Group_2027" data-name="Group 2027">
              <path id="Path_4095" data-name="Path 4095" d="M540.85,126.728a10.605,10.605,0,0,1,1.558-3.108,13.975,13.975,0,0,1,7.667-5.45,14.137,14.137,0,0,1,6.6-.292,14.36,14.36,0,0,1,6.8,3.359,14.382,14.382,0,0,1,4.363,7.142,14.324,14.324,0,0,1-6.357,15.827,14.4,14.4,0,0,1-8.094,2.137,14.359,14.359,0,0,1-7.23-2.276,14.139,14.139,0,0,1-4.56-4.777,13.971,13.971,0,0,1-1.765-9.239,10.616,10.616,0,0,1,1.025-3.322c.094.031-.439,1.171-.715,3.363A13.986,13.986,0,0,0,542.077,139a13.714,13.714,0,0,0,11.328,6.6,13.72,13.72,0,0,0,7.654-2.068,13.6,13.6,0,0,0,6.009-14.96,13.7,13.7,0,0,0-4.095-6.786,13.706,13.706,0,0,0-12.745-3.071,13.992,13.992,0,0,0-7.567,5.087C541.344,125.579,540.94,126.771,540.85,126.728Z" transform="translate(-539.653 -117.616)" fill="#e0e0e0"/>
            </g>
          </g>
          <g id="Group_2030" data-name="Group 2030">
            <g id="Group_2029" data-name="Group 2029">
              <path id="Path_4096" data-name="Path 4096" d="M535.828,120.953a3.006,3.006,0,0,1-.49-.049l-1.483-.207L528,119.826l.139-.078c-1.23,3.115-2.849,7.211-4.807,12.167l-.074-.244,6.52,4.467.118.081-.018.142a32,32,0,0,0,.121,8.461l.024.158-.13.095c-1.994,1.449-4.151,3.019-6.394,4.651l.1-.344c1.625,3.786,3.35,7.8,5.161,12.019l-.347-.186c2.406-.445,5.057-.935,7.775-1.436l.2-.037.126.16a31.871,31.871,0,0,0,6.037,5.894l.168.126-.033.208c-.385,2.419-.809,5.087-1.242,7.8l-.22-.39,12.143,4.863-.446.134,4.487-6.507.131-.191.23.03a31.846,31.846,0,0,0,8.424-.1l.232-.035.139.192,4.638,6.4-.474-.131,12.029-5.14-.236.44c-.449-2.458-.933-5.108-1.421-7.778l-.044-.239.192-.149a31.77,31.77,0,0,0,5.888-6.01l0-.006.149-.195.238.038,7.8,1.254-.437.247q2.475-6.153,4.88-12.137l.143.476-6.5-4.5-.2-.136.029-.236a31.634,31.634,0,0,0-.087-8.424l-.032-.233.19-.137,6.41-4.629-.128.461-5.123-12.037.408.219-7.78,1.411-.216.04-.134-.173a31.709,31.709,0,0,0-6.016-5.911l-.168-.127.034-.207c.434-2.675.855-5.269,1.266-7.8l.205.363-12.128-4.9.369-.111c-1.586,2.284-3.075,4.425-4.511,6.49l-.1.145-.174-.022a31.921,31.921,0,0,0-8.453.069l-.16.022-.093-.129-4.611-6.422.285.08-12.054,5.08.106-.2c.548,3.111,1,5.663,1.371,7.789l.015.077-.062.049a33.16,33.16,0,0,0-4.676,4.381c-.44.521-.778.919-1.026,1.211a3.236,3.236,0,0,1-.344.4,3.9,3.9,0,0,1,.292-.44c.207-.282.523-.708.978-1.254a31.051,31.051,0,0,1,4.617-4.5l-.047.126c-.4-2.12-.883-4.666-1.471-7.769l-.027-.14.135-.058,12.009-5.187.174-.075.112.155,4.654,6.391-.251-.106a32.305,32.305,0,0,1,8.6-.12l-.272.123,4.479-6.512.139-.2.229.092,12.147,4.854.248.1-.043.264-1.239,7.8-.136-.334a32.4,32.4,0,0,1,6.168,6.025l-.349-.133,7.777-1.43.291-.053.115.273q2.51,5.865,5.148,12.025l.12.282-.248.179-6.4,4.639.157-.371a32.442,32.442,0,0,1,.1,8.631l-.168-.372q3.222,2.222,6.5,4.49l.263.182-.12.3q-2.4,5.984-4.873,12.139l-.12.3-.318-.052-7.8-1.253.385-.157-.006.007a32.4,32.4,0,0,1-6.038,6.161l.148-.388c.487,2.671.972,5.322,1.419,7.778l.058.315-.294.126-12.034,5.128-.291.124-.183-.255-4.631-6.409.371.157a32.562,32.562,0,0,1-8.629.087l.362-.161c-1.56,2.251-3.1,4.473-4.5,6.5l-.171.245-.278-.111-12.131-4.892-.267-.108.047-.282c.44-2.716.873-5.382,1.264-7.8l.134.332a32.448,32.448,0,0,1-6.146-6.041l.321.121-7.78,1.4-.25.046-.1-.232c-1.792-4.226-3.5-8.251-5.106-12.044l-.09-.211.186-.133,6.419-4.616-.106.251a32.343,32.343,0,0,1-.067-8.594l.1.223c-2.337-1.628-4.52-3.151-6.484-4.52l-.134-.095.062-.149c2.013-4.932,3.679-9.01,4.947-12.11l.039-.1.1.018,5.778,1,1.492.272A4.055,4.055,0,0,1,535.828,120.953Z" transform="translate(-522.896 -101.382)" fill="#e0e0e0"/>
            </g>
          </g>
        </g>
      </g>
    </g>
    <g id="Scroll_Group_2" data-name="Scroll Group 2" transform="translate(420.677 2036.097)" opacity="0.612" clip-path="url(#clip-path)" style="isolation: isolate">
      <g id="Group_2616" data-name="Group 2616" transform="translate(-1401.194 3325.076) rotate(-120)" opacity="0.321">
        <g id="Group_2032-2" data-name="Group 2032" transform="translate(1857.812 2847.445)">
          <g id="Group_2024-2" data-name="Group 2024" transform="translate(58.123)">
            <path id="Path_4092-2" data-name="Path 4092" d="M569.589,53.816a18.551,18.551,0,0,1,3.456-3.529l-.823-4.5,6.967-2.973,2.682,3.71a18.54,18.54,0,0,1,4.939-.055l2.6-3.765,7.028,2.824-.725,4.518a18.545,18.545,0,0,1,3.527,3.456l4.505-.821,2.973,6.966-3.71,2.684a18.535,18.535,0,0,1,.053,4.938l3.765,2.6L604.006,76.9l-4.518-.727a18.547,18.547,0,0,1-3.456,3.529l.823,4.5-6.968,2.973-2.684-3.71a18.581,18.581,0,0,1-4.936.055l-2.6,3.765-7.029-2.824.725-4.518a18.49,18.49,0,0,1-3.527-3.456l-4.505.823-2.973-6.967,3.71-2.684a18.53,18.53,0,0,1-.053-4.938l-3.765-2.6,2.824-7.029,4.518.727Zm7.537,7.828a8.126,8.126,0,1,0,10.57-4.511A8.125,8.125,0,0,0,577.126,61.644Z" transform="translate(-562.246 -42.701)" fill="#f5f5f5" fill-rule="evenodd"/>
          </g>
          <g id="Group_2025-2" data-name="Group 2025" transform="translate(88.587 19.593)">
            <path id="Path_4093-2" data-name="Path 4093" d="M608.633,94.959a65.059,65.059,0,0,1,12.122-12.376l-2.885-15.8,24.443-10.43,9.413,13.014a65.107,65.107,0,0,1,17.325-.191l9.13-13.208,24.658,9.91-2.546,15.85A65.088,65.088,0,0,1,712.67,93.851l15.8-2.885,10.43,24.443-13.014,9.413a65.151,65.151,0,0,1,.189,17.323l13.208,9.131-9.907,24.658-15.853-2.545A65.111,65.111,0,0,1,701.4,185.766l2.885,15.8L679.842,212l-9.415-13.016a65.145,65.145,0,0,1-17.322.191l-9.131,13.208-24.658-9.908,2.547-15.852A65.033,65.033,0,0,1,609.485,174.5l-15.8,2.885-10.43-24.443,13.016-9.415a65.145,65.145,0,0,1-.19-17.322l-13.208-9.131,9.907-24.658,15.855,2.546Zm26.442,27.465A28.508,28.508,0,1,0,672.157,106.6,28.508,28.508,0,0,0,635.075,122.424Z" transform="translate(-582.871 -55.966)" fill="#ebebeb" fill-rule="evenodd"/>
          </g>
          <g id="Group_2031-2" data-name="Group 2031" transform="translate(0 86.676)">
            <g id="Group_2026-2" data-name="Group 2026" transform="translate(0.251 0.378)">
              <path id="Path_4094-2" data-name="Path 4094" d="M535.747,120.831a32.044,32.044,0,0,1,5.967-6.091l-1.421-7.78,12.032-5.134,4.634,6.408a32.047,32.047,0,0,1,8.529-.095l4.493-6.5,12.139,4.877-1.254,7.8a32.019,32.019,0,0,1,6.093,5.969l7.778-1.419,5.134,12.031-6.408,4.634a31.98,31.98,0,0,1,.093,8.527l6.5,4.495-4.876,12.139-7.8-1.254a32.063,32.063,0,0,1-5.969,6.093l1.421,7.778L570.8,178.443l-4.634-6.408a31.975,31.975,0,0,1-8.527.093l-4.495,6.5L541,173.753l1.254-7.8a32.063,32.063,0,0,1-6.093-5.969l-7.778,1.421-5.134-12.032,6.407-4.635a32.026,32.026,0,0,1-.093-8.526l-6.5-4.495,4.876-12.139,7.8,1.254Zm13.016,13.52a14.033,14.033,0,1,0,18.254-7.79A14.034,14.034,0,0,0,548.763,134.351Z" transform="translate(-523.066 -101.638)" fill="#e0e0e0"/>
            </g>
            <g id="Group_2028-2" data-name="Group 2028" transform="translate(24.751 23.979)">
              <g id="Group_2027-2" data-name="Group 2027">
                <path id="Path_4095-2" data-name="Path 4095" d="M540.85,126.728a10.605,10.605,0,0,1,1.558-3.108,13.975,13.975,0,0,1,7.667-5.45,14.137,14.137,0,0,1,6.6-.292,14.36,14.36,0,0,1,6.8,3.359,14.382,14.382,0,0,1,4.363,7.142,14.324,14.324,0,0,1-6.357,15.827,14.4,14.4,0,0,1-8.094,2.137,14.359,14.359,0,0,1-7.23-2.276,14.139,14.139,0,0,1-4.56-4.777,13.971,13.971,0,0,1-1.765-9.239,10.616,10.616,0,0,1,1.025-3.322c.094.031-.439,1.171-.715,3.363A13.986,13.986,0,0,0,542.077,139a13.714,13.714,0,0,0,11.328,6.6,13.72,13.72,0,0,0,7.654-2.068,13.6,13.6,0,0,0,6.009-14.96,13.7,13.7,0,0,0-4.095-6.786,13.706,13.706,0,0,0-12.745-3.071,13.992,13.992,0,0,0-7.567,5.087C541.344,125.579,540.94,126.771,540.85,126.728Z" transform="translate(-539.653 -117.616)" fill="#e0e0e0"/>
              </g>
            </g>
            <g id="Group_2030-2" data-name="Group 2030">
              <g id="Group_2029-2" data-name="Group 2029">
                <path id="Path_4096-2" data-name="Path 4096" d="M535.828,120.953a3.006,3.006,0,0,1-.49-.049l-1.483-.207L528,119.826l.139-.078c-1.23,3.115-2.849,7.211-4.807,12.167l-.074-.244,6.52,4.467.118.081-.018.142a32,32,0,0,0,.121,8.461l.024.158-.13.095c-1.994,1.449-4.151,3.019-6.394,4.651l.1-.344c1.625,3.786,3.35,7.8,5.161,12.019l-.347-.186c2.406-.445,5.057-.935,7.775-1.436l.2-.037.126.16a31.871,31.871,0,0,0,6.037,5.894l.168.126-.033.208c-.385,2.419-.809,5.087-1.242,7.8l-.22-.39,12.143,4.863-.446.134,4.487-6.507.131-.191.23.03a31.846,31.846,0,0,0,8.424-.1l.232-.035.139.192,4.638,6.4-.474-.131,12.029-5.14-.236.44c-.449-2.458-.933-5.108-1.421-7.778l-.044-.239.192-.149a31.77,31.77,0,0,0,5.888-6.01l0-.006.149-.195.238.038,7.8,1.254-.437.247q2.475-6.153,4.88-12.137l.143.476-6.5-4.5-.2-.136.029-.236a31.634,31.634,0,0,0-.087-8.424l-.032-.233.19-.137,6.41-4.629-.128.461-5.123-12.037.408.219-7.78,1.411-.216.04-.134-.173a31.709,31.709,0,0,0-6.016-5.911l-.168-.127.034-.207c.434-2.675.855-5.269,1.266-7.8l.205.363-12.128-4.9.369-.111c-1.586,2.284-3.075,4.425-4.511,6.49l-.1.145-.174-.022a31.921,31.921,0,0,0-8.453.069l-.16.022-.093-.129-4.611-6.422.285.08-12.054,5.08.106-.2c.548,3.111,1,5.663,1.371,7.789l.015.077-.062.049a33.16,33.16,0,0,0-4.676,4.381c-.44.521-.778.919-1.026,1.211a3.236,3.236,0,0,1-.344.4,3.9,3.9,0,0,1,.292-.44c.207-.282.523-.708.978-1.254a31.051,31.051,0,0,1,4.617-4.5l-.047.126c-.4-2.12-.883-4.666-1.471-7.769l-.027-.14.135-.058,12.009-5.187.174-.075.112.155,4.654,6.391-.251-.106a32.305,32.305,0,0,1,8.6-.12l-.272.123,4.479-6.512.139-.2.229.092,12.147,4.854.248.1-.043.264-1.239,7.8-.136-.334a32.4,32.4,0,0,1,6.168,6.025l-.349-.133,7.777-1.43.291-.053.115.273q2.51,5.865,5.148,12.025l.12.282-.248.179-6.4,4.639.157-.371a32.442,32.442,0,0,1,.1,8.631l-.168-.372q3.222,2.222,6.5,4.49l.263.182-.12.3q-2.4,5.984-4.873,12.139l-.12.3-.318-.052-7.8-1.253.385-.157-.006.007a32.4,32.4,0,0,1-6.038,6.161l.148-.388c.487,2.671.972,5.322,1.419,7.778l.058.315-.294.126-12.034,5.128-.291.124-.183-.255-4.631-6.409.371.157a32.562,32.562,0,0,1-8.629.087l.362-.161c-1.56,2.251-3.1,4.473-4.5,6.5l-.171.245-.278-.111-12.131-4.892-.267-.108.047-.282c.44-2.716.873-5.382,1.264-7.8l.134.332a32.448,32.448,0,0,1-6.146-6.041l.321.121-7.78,1.4-.25.046-.1-.232c-1.792-4.226-3.5-8.251-5.106-12.044l-.09-.211.186-.133,6.419-4.616-.106.251a32.343,32.343,0,0,1-.067-8.594l.1.223c-2.337-1.628-4.52-3.151-6.484-4.52l-.134-.095.062-.149c2.013-4.932,3.679-9.01,4.947-12.11l.039-.1.1.018,5.778,1,1.492.272A4.055,4.055,0,0,1,535.828,120.953Z" transform="translate(-522.896 -101.382)" fill="#e0e0e0"/>
              </g>
            </g>
          </g>
        </g>
      </g>
    </g>
    <g id="electric-generator" transform="translate(821 2005)" opacity="0.054">
      <path id="Path_4505" data-name="Path 4505" d="M250.274,281.457a11.125,11.125,0,0,1,7.99-5.414l7.581-18.955,10.361,4.138-7.59,18.955a13.266,13.266,0,0,1,.86,1.266h17.716a27.875,27.875,0,1,0-54.635,0Zm0,0" transform="translate(-70.323 -75.179)" fill="#707070"/>
      <path id="Path_4506" data-name="Path 4506" d="M163.15,253.575a5.575,5.575,0,0,0-11.15,0v5.575h11.15Zm0,0" transform="translate(-46.074 -75.173)" fill="#707070"/>
      <path id="Path_4507" data-name="Path 4507" d="M262.363,317.575a11.111,11.111,0,0,1-9.6-5.575H240.207a27.588,27.588,0,0,0,44.312,0H271.964A11.111,11.111,0,0,1,262.363,317.575Zm0,0" transform="translate(-72.81 -94.572)" fill="#707070"/>
      <path id="Path_4508" data-name="Path 4508" d="M152,280h11.15v11.15H152Zm0,0" transform="translate(-46.074 -84.872)" fill="#707070"/>
      <path id="Path_4509" data-name="Path 4509" d="M255.9,104H22.858A22.9,22.9,0,0,0,0,126.858V148.6H278.754V126.858A22.9,22.9,0,0,0,255.9,104Zm0,0" transform="translate(0 -31.524)" fill="#707070"/>
      <path id="Path_4510" data-name="Path 4510" d="M157.575,323.15a5.575,5.575,0,0,0,5.575-5.575V312H152v5.575A5.575,5.575,0,0,0,157.575,323.15Zm0,0" transform="translate(-46.074 -94.572)" fill="#707070"/>
      <path id="Path_4511" data-name="Path 4511" d="M63.026,216v11.15H51.875V216H46.3v11.15H35.15V216H24v66.9H74.176a5.575,5.575,0,0,1,5.575,5.575v33.45H269.3V216ZM135.5,288.476a16.725,16.725,0,1,1-33.45,0v-44.6a16.725,16.725,0,0,1,33.45,0ZM196.827,305.2a39.026,39.026,0,1,1,39.026-39.026A39.024,39.024,0,0,1,196.827,305.2Zm0,0" transform="translate(-7.275 -65.473)" fill="#707070"/>
      <path id="Path_4512" data-name="Path 4512" d="M326.3,384a22.3,22.3,0,1,0,22.3,22.3A22.3,22.3,0,0,0,326.3,384Zm0,33.45a11.15,11.15,0,1,1,11.15-11.15A11.151,11.151,0,0,1,326.3,417.45Zm0,0" transform="translate(-92.147 -116.396)" fill="#707070"/>
      <path id="Path_4513" data-name="Path 4513" d="M365.848,0H344V16.725h8.474Zm0,0" transform="translate(-104.272)" fill="#707070"/>
      <path id="Path_4514" data-name="Path 4514" d="M272,72h50.176V83.15H272Zm0,0" transform="translate(-82.447 -21.824)" fill="#707070"/>
      <path id="Path_4515" data-name="Path 4515" d="M100.6,78.691A6.689,6.689,0,0,0,93.909,72H62.691A6.689,6.689,0,0,0,56,78.691V83.15h44.6Zm0,0" transform="translate(-16.974 -21.824)" fill="#707070"/>
      <path id="Path_4516" data-name="Path 4516" d="M318.3,0h-5.575A16.726,16.726,0,0,0,296,16.725h22.3Zm0,0" transform="translate(-89.722)" fill="#707070"/>
      <path id="Path_4517" data-name="Path 4517" d="M24,184H269.3v11.15H24Zm0,0" transform="translate(-7.275 -55.773)" fill="#707070"/>
      <path id="Path_4518" data-name="Path 4518" d="M296,40h16.725V51.15H296Zm0,0" transform="translate(-89.722 -12.125)" fill="#707070"/>
      <path id="Path_4519" data-name="Path 4519" d="M46.3,355.875V339.15H57.45v16.725H68.6V328H24v27.875h5.575V339.15h11.15v16.725Zm0,0" transform="translate(-7.275 -99.422)" fill="#707070"/>
      <path id="Path_4520" data-name="Path 4520" d="M226.263,384a33.4,33.4,0,0,0-8.085,16.725H56V384Zm0,0" transform="translate(-16.974 -116.396)" fill="#707070"/>
      <path id="Path_4521" data-name="Path 4521" d="M100.6,427.15V438.3H56V427.15H72.725V416h11.15v11.15Zm0,0" transform="translate(-16.974 -126.096)" fill="#707070"/>
    </g>
  </g>
</svg>
