<svg xmlns="http://www.w3.org/2000/svg" width="1297.036" height="339.873" viewBox="0 0 1297.036 339.873">
  <g id="Group_2723" data-name="Group 2723" transform="translate(-300.75 -4012.468)">
    <text id="State_In-carge" data-name="State
In-carge" transform="translate(1183 4028)" fill="#21232a" font-size="20" font-family="HelveticaNeue-Bold, Helvetica Neue" font-weight="700"><tspan x="59.99" y="20">State</tspan><tspan x="45.11" y="45">In-carge</tspan></text>
    <text id="Calculating_the_utilisation_of_the_plant_to_inform_whether_more_customers_should_be_connected" data-name="Calculating the utilisation of the plant to inform whether more customers should be connected" transform="translate(1186 4245)" fill="#707070" font-size="14" font-family="HelveticaNeue, Helvetica Neue"><tspan x="3.565" y="13">Calculating the utilisation </tspan><tspan x="16.648" y="29">of the plant to inform </tspan><tspan x="4.076" y="45">whether more customers </tspan><tspan x="15.997" y="61">should be connected</tspan></text>
    <line id="Line_133" data-name="Line 133" y2="339.872" transform="translate(1174.25 4012.468)" fill="none" stroke="#707070" stroke-width="1" opacity="0.2"/>
    <text id="Same_as_Technician" data-name="Same as Technician" transform="translate(1001 4245)" fill="#707070" font-size="14" font-family="HelveticaNeue, Helvetica Neue"><tspan x="19.763" y="13">Same as Technician</tspan></text>
    <text id="Cluster_In-charge" data-name="Cluster
In-charge" transform="translate(1032 4028)" fill="#21232a" font-size="20" font-family="HelveticaNeue-Bold, Helvetica Neue" font-weight="700"><tspan x="16.56" y="20">Cluster</tspan><tspan x="5.18" y="45">In-charge</tspan></text>
    <line id="Line_134" data-name="Line 134" y2="339.872" transform="translate(990.25 4012.468)" fill="none" stroke="#707070" stroke-width="1" opacity="0.2"/>
    <text id="CSA" transform="translate(813.75 4028)" fill="#21232a" font-size="20" font-family="HelveticaNeue-Bold, Helvetica Neue" font-weight="700"><tspan x="64.25" y="20">CSA</tspan></text>
    <text id="To_check_units_sold_in_a_particular_timeframe" data-name="To check units sold in a particular timeframe" transform="translate(826.75 4118)" fill="#707070" font-size="14" font-family="HelveticaNeue, Helvetica Neue"><tspan x="4.943" y="13">To check units sold in </tspan><tspan x="4.173" y="29">a particular timeframe</tspan></text>
    <text id="To_compare_technical_performance_of_multiple_plants" data-name="To compare technical performance of multiple plants" transform="translate(1011 4118)" fill="#707070" font-size="14" font-family="HelveticaNeue, Helvetica Neue"><tspan x="5.594" y="13">To compare technical </tspan><tspan x="24.662" y="29">performance of </tspan><tspan x="26.853" y="45">multiple plants</tspan></text>
    <text id="Same_as_Operator_" data-name="Same as
Operator
" transform="translate(1196 4118)" fill="#707070" font-size="14" font-family="HelveticaNeue, Helvetica Neue"><tspan x="45.27" y="13">Same as</tspan><tspan x="44.626" y="29">Operator</tspan><tspan x="72.5" y="45"></tspan></text>
    <text id="Comparing_units_sold_in_one_month_with_the_previous_month" data-name="Comparing units sold in one month with the previous month" transform="translate(820.75 4245)" fill="#707070" font-size="14" font-family="HelveticaNeue, Helvetica Neue"><tspan x="3.702" y="13">Comparing units sold in </tspan><tspan x="17.702" y="29">one month with the </tspan><tspan x="29.497" y="45">previous month</tspan></text>
    <line id="Line_135" data-name="Line 135" y2="339.872" transform="translate(806.25 4012.468)" fill="none" stroke="#707070" stroke-width="1" opacity="0.2"/>
    <text id="To_assess_the_performance_of_the_equipment_at_the_plant" data-name="To assess the performance of the equipment at the plant" transform="translate(640.75 4118)" fill="#707070" font-size="14" font-family="HelveticaNeue, Helvetica Neue"><tspan x="29.975" y="13">To assess the </tspan><tspan x="12.86" y="29">performance of the </tspan><tspan x="1.947" y="45">equipment at the plant</tspan></text>
    <text id="Calculating_in-plant_and_distribution_efficiency" data-name="Calculating in-plant and distribution efficiency" transform="translate(640.75 4245)" fill="#707070" font-size="14" font-family="HelveticaNeue, Helvetica Neue"><tspan x="11.824" y="13">Calculating in-plant </tspan><tspan x="23.745" y="29">and distribution </tspan><tspan x="42.925" y="45">efficiency</tspan></text>
    <text id="Technician" transform="translate(662.75 4028)" fill="#21232a" font-size="20" font-family="HelveticaNeue-Bold, Helvetica Neue" font-weight="700"><tspan x="0.09" y="20">Technician</tspan></text>
    <line id="Line_136" data-name="Line 136" x1="1078.5" transform="translate(300.75 4213.5)" fill="none" stroke="#707070" stroke-width="1" opacity="0.2"/>
    <line id="Line_137" data-name="Line 137" y2="339.872" transform="translate(621.25 4012.468)" fill="none" stroke="#707070" stroke-width="1" opacity="0.2"/>
    <text id="To_check_data_logs_for_a_particular_plant" data-name="To check data logs for a particular plant" transform="translate(456.75 4118)" fill="#707070" font-size="14" font-family="HelveticaNeue, Helvetica Neue"><tspan x="4.27" y="13">To check data logs for </tspan><tspan x="20.993" y="29">a particular plant</tspan></text>
    <text id="Ensuring_that_the_database_agrees_with_ground_measurements" data-name="Ensuring that the database agrees with ground measurements" transform="translate(452.75 4245)" fill="#707070" font-size="14" font-family="HelveticaNeue, Helvetica Neue"><tspan x="23.835" y="13">Ensuring that the </tspan><tspan x="10.108" y="29">database agrees with </tspan><tspan x="6.706" y="45">ground measurements</tspan></text>
    <text id="Operator" transform="translate(479.75 4028)" fill="#21232a" font-size="20" font-family="HelveticaNeue-Bold, Helvetica Neue" font-weight="700"><tspan x="7.22" y="20">Operator</tspan></text>
    <line id="Line_138" data-name="Line 138" y2="339.872" transform="translate(437.25 4012.468)" fill="none" stroke="#707070" stroke-width="1" opacity="0.2"/>
    <text id="Example_Use_Case" data-name="Example
Use Case" transform="translate(320.75 4245)" fill="#21232a" font-size="20" font-family="HelveticaNeue-Bold, Helvetica Neue" font-weight="700"><tspan x="10.42" y="20">Example</tspan><tspan x="5.94" y="45">Use Case</tspan></text>
    <text id="Main_Purpose" data-name="Main
Purpose" transform="translate(320.25 4118)" fill="#21232a" font-size="20" font-family="HelveticaNeue-Bold, Helvetica Neue" font-weight="700"><tspan x="21.18" y="20">Main</tspan><tspan x="4.68" y="45">Purpose</tspan></text>
    <g id="Group_2722" data-name="Group 2722" transform="translate(-30)">
      <g id="Group_2701" data-name="Group 2701" transform="translate(1575.591 4062.203)" opacity="0.5">
        <path id="Path_4698" data-name="Path 4698" d="M768.9,67.954a3.549,3.549,0,0,0-3.373,1.829c-1.681,3.023,1.024,6-.371,9.217a5.363,5.363,0,0,1-1.809,2.183,18.52,18.52,0,0,1-4.085,1.841,7.487,7.487,0,0,0-3.825,3.414,8.934,8.934,0,0,0-.805,5.418,21.466,21.466,0,0,0,1.424,4.266,26.762,26.762,0,0,1,1.368,5.27,9.736,9.736,0,0,1,.134,2.544,16.023,16.023,0,0,1-.785,3.177l-3,9.392a21.936,21.936,0,0,0-.963,3.764,15.818,15.818,0,0,0,.117,4.012c.327,2.749.692,5.608,1.993,7.327s3.854,1.829,5.722-.607c1.777-2.334,2.235-5.865,3.863-8.4,2.565-4,6.667-3.656,9.416-7.405,2.626-3.595,2.585-8.783,4.234-13.206,1.167-3.169,3.21-5.836,4.587-8.914A23.782,23.782,0,0,0,784.5,79.718a19.821,19.821,0,0,0-4.42-9.363,6.477,6.477,0,0,0-2.962-2.334c-1.258-.373-2.512.584-3.808.671C771.81,68.768,770.413,67.977,768.9,67.954Z" transform="translate(-752.739 -67.935)" fill="#bdbdbd"/>
        <path id="Path_4699" data-name="Path 4699" d="M785.557,68.1s-7.236,41.914-19.258,64.8" transform="translate(-762.343 -68.052)" fill="none" stroke="#535461" stroke-miterlimit="10" stroke-width="2"/>
        <path id="Path_4700" data-name="Path 4700" d="M796.3,74.93s8.829,9.045,5.45,21.545" transform="translate(-783.59 -72.889)" fill="none" stroke="#535461" stroke-miterlimit="10" stroke-width="2"/>
        <path id="Path_4701" data-name="Path 4701" d="M760.63,134.52s15.537,6.192,13.483,13.229" transform="translate(-758.328 -115.092)" fill="none" stroke="#535461" stroke-miterlimit="10" stroke-width="2"/>
        <path id="Path_4702" data-name="Path 4702" d="M827.5,108s-6.927,2.822-14.1,13.746" transform="translate(-795.7 -96.31)" fill="none" stroke="#535461" stroke-miterlimit="10" stroke-width="2"/>
        <path id="Path_4703" data-name="Path 4703" d="M807.8,209.512s-4.689,1.628-7.084-8.462" transform="translate(-786.72 -162.21)" fill="none" stroke="#535461" stroke-miterlimit="10" stroke-width="2"/>
        <path id="Path_4704" data-name="Path 4704" d="M758.15,226.258s9.022,1.2,10.364-2.918" transform="translate(-756.571 -177.996)" fill="none" stroke="#535461" stroke-miterlimit="10" stroke-width="2"/>
      </g>
      <g id="Group_2702" data-name="Group 2702" transform="translate(1418.054 4105.909)" opacity="0.5">
        <path id="Path_4705" data-name="Path 4705" d="M213.566,225.915a3.543,3.543,0,0,0-.321,3.822c1.6,3.064,5.573,2.433,7.5,5.366a5.363,5.363,0,0,1,.832,2.711,18.4,18.4,0,0,1-.706,4.429,7.487,7.487,0,0,0,.756,5.062,8.934,8.934,0,0,0,4.085,3.644,21.734,21.734,0,0,0,4.348,1.15,26.76,26.76,0,0,1,5.156,1.751,9.733,9.733,0,0,1,2.2,1.284,16.023,16.023,0,0,1,2.226,2.4l6.206,7.662a21.937,21.937,0,0,0,2.626,2.871,15.818,15.818,0,0,0,3.42,2.1c2.477,1.234,5.068,2.5,7.219,2.355s3.644-2.218,2.626-5.118c-.963-2.76-3.676-5.086-4.908-7.84-1.94-4.342.6-7.586-1.024-11.934-1.558-4.178-5.926-6.979-8.715-10.8-2-2.725-3.116-5.882-4.934-8.727a23.872,23.872,0,0,0-10.212-8.791,19.82,19.82,0,0,0-10.256-1.441,6.573,6.573,0,0,0-3.586,1.19c-1,.846-.875,2.428-1.529,3.551C215.845,223.931,214.415,224.666,213.566,225.915Z" transform="translate(-212.823 -217.722)" fill="#bdbdbd"/>
        <path id="Path_4706" data-name="Path 4706" d="M228.72,225.66s31.069,29.047,43.6,51.663" transform="translate(-224.082 -223.344)" fill="none" stroke="#535461" stroke-miterlimit="10" stroke-width="2"/>
        <path id="Path_4707" data-name="Path 4707" d="M214.68,258.852s12.415-2.413,21.008,7.265" transform="translate(-214.138 -246.662)" fill="none" stroke="#535461" stroke-miterlimit="10" stroke-width="2"/>
        <path id="Path_4708" data-name="Path 4708" d="M244.92,308.029s13.714-9.591,18.458-4.012" transform="translate(-235.555 -277.603)" fill="none" stroke="#535461" stroke-miterlimit="10" stroke-width="2"/>
        <path id="Path_4709" data-name="Path 4709" d="M277.793,223s-1.444,7.341,3.752,19.333" transform="translate(-258.705 -221.46)" fill="none" stroke="#535461" stroke-miterlimit="10" stroke-width="2"/>
        <path id="Path_4710" data-name="Path 4710" d="M333.481,320.61s-1.214,4.814-10.971,1.275" transform="translate(-290.505 -290.589)" fill="none" stroke="#535461" stroke-miterlimit="10" stroke-width="2"/>
        <path id="Path_4711" data-name="Path 4711" d="M326.17,353.412s5.955-6.883,3.248-10.262" transform="translate(-293.098 -306.553)" fill="none" stroke="#535461" stroke-miterlimit="10" stroke-width="2"/>
      </g>
      <path id="Path_4712" data-name="Path 4712" d="M190.177,88.06c-1.459,1.724-2.824,4.111-1.751,6.466,2.083,4.613,9.725,2.363,12.453,6.664a6.356,6.356,0,0,1,.738,4.263c-.368,2.746-1.727,5.077-2.667,7.586s-1.427,5.544-.1,8.193a9.926,9.926,0,0,0,6.565,4.829,36.725,36.725,0,0,0,7.811.584,43.241,43.241,0,0,1,9.147,1.348,12.637,12.637,0,0,1,3.741,1.459,16.586,16.586,0,0,1,3.452,3.32l9.337,10.881a22.252,22.252,0,0,0,4.044,3.989,19.969,19.969,0,0,0,5.78,2.466c4.275,1.307,8.753,2.626,12.838,1.73s7.513-4.8,6.492-9.319c-.972-4.3-5.354-7.356-6.831-11.572-2.334-6.644,3.428-12.806,1.7-19.567-1.657-6.483-9-9.827-13.089-15.316-2.918-3.933-4.067-8.853-6.618-13.037a26.645,26.645,0,0,0-16.486-11.546c-6.4-1.517-12.844-.785-18.837.727a18.376,18.376,0,0,0-7.09,3.07c-2.139,1.713-2.387,4.31-3.945,6.378C195.053,84.065,192.144,85.723,190.177,88.06Z" transform="translate(1222.781 3992.349)" fill="#bdbdbd"/>
      <path id="Path_4713" data-name="Path 4713" d="M226.51,92.73s49.506,38.953,66.164,72.817" transform="translate(1195.537 3976.708)" fill="none" stroke="#535461" stroke-miterlimit="10" stroke-width="2"/>
      <path id="Path_4714" data-name="Path 4714" d="M189.9,147.945s24.034-7.785,37.217,5.731" transform="translate(1221.465 3939.183)" fill="none" stroke="#535461" stroke-miterlimit="10" stroke-width="2"/>
      <path id="Path_4715" data-name="Path 4715" d="M227.7,214.08s28.627-20.133,35.863-12.281" transform="translate(1194.694 3900.75)" fill="none" stroke="#535461" stroke-miterlimit="10" stroke-width="2"/>
      <path id="Path_4716" data-name="Path 4716" d="M315.717,73.21s-4.934,12.66,1.167,31.063" transform="translate(1133.693 3990.532)" fill="none" stroke="#535461" stroke-miterlimit="10" stroke-width="2"/>
      <path id="Path_4717" data-name="Path 4717" d="M393.419,211s-3.738,8.383-20.979,5.45" transform="translate(1092.187 3892.947)" fill="none" stroke="#535461" stroke-miterlimit="10" stroke-width="2"/>
      <path id="Path_4718" data-name="Path 4718" d="M363.13,273.52s13.267-13.27,9.212-18.09" transform="translate(1098.78 3861.481)" fill="none" stroke="#535461" stroke-miterlimit="10" stroke-width="2"/>
      <ellipse id="Ellipse_403" data-name="Ellipse 403" cx="99.762" cy="11.986" rx="99.762" ry="11.986" transform="translate(1428.263 4261.202)" fill="#bdbdbd" opacity="0.1"/>
      <path id="Path_4744" data-name="Path 4744" d="M340.74,756.142l-1.15,6.521s5.882-.257,15.855,2.813c0,0,3.837-1.663.639-3.709a6.839,6.839,0,0,1-6.011-3.709c-2.3-3.965-3.709-3.452-3.709-3.452Z" transform="translate(1115.452 3507.969)" fill="#4f4d59"/>
      <path id="Path_4748" data-name="Path 4748" d="M380.687,493.035l-2.512.166-1.325.088v-3.21l1.751-.315,1.077-.2s3.323-9.845,6.521-8.056S380.687,493.035,380.687,493.035Z" transform="translate(1089.063 3701.519)" fill="#714b4f"/>
      <path id="Path_4753" data-name="Path 4753" d="M378.155,513.767l-1.325.088v-3.21l1.751-.315A4.977,4.977,0,0,0,378.155,513.767Z" transform="translate(1089.078 3680.956)" opacity="0.1"/>
      <rect id="Rectangle_859" data-name="Rectangle 859" width="150.778" height="180.321" transform="translate(1455.302 4093.659)" fill="#fafbfc"/>
      <rect id="Rectangle_860" data-name="Rectangle 860" width="150.778" height="6.113" transform="translate(1455.302 4093.659)" fill="#7983a6"/>
      <line id="Line_232" data-name="Line 232" x2="110.028" transform="translate(1475.677 4167.138)" fill="none" stroke="#7983a6" stroke-miterlimit="10" stroke-width="1"/>
      <g id="Group_2706" data-name="Group 2706" transform="translate(1475.677 4155.166)" opacity="0.5">
        <line id="Line_233" data-name="Line 233" x2="1.751" fill="none" stroke="#7983a6" stroke-miterlimit="10" stroke-width="1"/>
        <line id="Line_234" data-name="Line 234" x2="101.37" transform="translate(5.188)" fill="none" stroke="#7983a6" stroke-miterlimit="10" stroke-width="1" stroke-dasharray="11.78 11.78"/>
        <line id="Line_235" data-name="Line 235" x2="1.751" transform="translate(108.277)" fill="none" stroke="#7983a6" stroke-miterlimit="10" stroke-width="1"/>
      </g>
      <g id="Group_2707" data-name="Group 2707" transform="translate(1475.677 4143.197)" opacity="0.5">
        <line id="Line_236" data-name="Line 236" x2="1.751" fill="none" stroke="#7983a6" stroke-miterlimit="10" stroke-width="1"/>
        <line id="Line_237" data-name="Line 237" x2="101.37" transform="translate(5.188)" fill="none" stroke="#7983a6" stroke-miterlimit="10" stroke-width="1" stroke-dasharray="11.78 11.78"/>
        <line id="Line_238" data-name="Line 238" x2="1.751" transform="translate(108.277)" fill="none" stroke="#7983a6" stroke-miterlimit="10" stroke-width="1"/>
      </g>
      <g id="Group_2708" data-name="Group 2708" transform="translate(1475.677 4131.226)" opacity="0.5">
        <line id="Line_239" data-name="Line 239" x2="1.751" fill="none" stroke="#7983a6" stroke-miterlimit="10" stroke-width="1"/>
        <line id="Line_240" data-name="Line 240" x2="101.37" transform="translate(5.188)" fill="none" stroke="#7983a6" stroke-miterlimit="10" stroke-width="1" stroke-dasharray="11.78 11.78"/>
        <line id="Line_241" data-name="Line 241" x2="1.751" transform="translate(108.277)" fill="none" stroke="#7983a6" stroke-miterlimit="10" stroke-width="1"/>
      </g>
      <g id="Group_2709" data-name="Group 2709" transform="translate(1475.677 4119.257)" opacity="0.5">
        <line id="Line_242" data-name="Line 242" x2="1.751" fill="none" stroke="#7983a6" stroke-miterlimit="10" stroke-width="1"/>
        <line id="Line_243" data-name="Line 243" x2="101.37" transform="translate(5.188)" fill="none" stroke="#7983a6" stroke-miterlimit="10" stroke-width="1" stroke-dasharray="11.78 11.78"/>
        <line id="Line_244" data-name="Line 244" x2="1.751" transform="translate(108.277)" fill="none" stroke="#7983a6" stroke-miterlimit="10" stroke-width="1"/>
      </g>
      <g id="Group_2710" data-name="Group 2710" transform="translate(1481.153 4143.197)" opacity="0.3">
        <rect id="Rectangle_861" data-name="Rectangle 861" width="7.896" height="23.941" fill="#bdbdbd"/>
      </g>
      <rect id="Rectangle_862" data-name="Rectangle 862" width="7.896" height="36.166" transform="translate(1503.183 4131.097)" fill="#bdbdbd"/>
      <g id="Group_2711" data-name="Group 2711" transform="translate(1525.215 4155.038)" opacity="0.3">
        <rect id="Rectangle_863" data-name="Rectangle 863" width="7.896" height="12.351" fill="#bdbdbd"/>
      </g>
      <rect id="Rectangle_864" data-name="Rectangle 864" width="7.896" height="48.392" transform="translate(1547.244 4118.875)" fill="#bdbdbd"/>
      <g id="Group_2712" data-name="Group 2712" transform="translate(1569.273 4130.589)" opacity="0.3">
        <rect id="Rectangle_865" data-name="Rectangle 865" width="7.896" height="36.548" fill="#bdbdbd"/>
      </g>
      <circle id="Ellipse_408" data-name="Ellipse 408" cx="2.037" cy="2.037" r="2.037" transform="translate(1483.064 4170.575)" fill="#bdbdbd"/>
      <circle id="Ellipse_409" data-name="Ellipse 409" cx="2.037" cy="2.037" r="2.037" transform="translate(1505.223 4170.575)" fill="#bdbdbd"/>
      <circle id="Ellipse_410" data-name="Ellipse 410" cx="2.037" cy="2.037" r="2.037" transform="translate(1527.38 4170.575)" fill="#bdbdbd"/>
      <circle id="Ellipse_411" data-name="Ellipse 411" cx="2.037" cy="2.037" r="2.037" transform="translate(1549.538 4170.575)" fill="#bdbdbd"/>
      <circle id="Ellipse_412" data-name="Ellipse 412" cx="2.037" cy="2.037" r="2.037" transform="translate(1571.695 4170.575)" fill="#bdbdbd"/>
      <line id="Line_245" data-name="Line 245" x2="110.028" transform="translate(1475.677 4244.054)" fill="none" stroke="#7983a6" stroke-miterlimit="10" stroke-width="1"/>
      <g id="Group_2713" data-name="Group 2713" transform="translate(1475.677 4232.083)" opacity="0.5">
        <line id="Line_246" data-name="Line 246" x2="1.751" fill="none" stroke="#7983a6" stroke-miterlimit="10" stroke-width="1"/>
        <line id="Line_247" data-name="Line 247" x2="101.37" transform="translate(5.188)" fill="none" stroke="#7983a6" stroke-miterlimit="10" stroke-width="1" stroke-dasharray="11.78 11.78"/>
        <line id="Line_248" data-name="Line 248" x2="1.751" transform="translate(108.277)" fill="none" stroke="#7983a6" stroke-miterlimit="10" stroke-width="1"/>
      </g>
      <g id="Group_2714" data-name="Group 2714" transform="translate(1475.677 4220.114)" opacity="0.5">
        <line id="Line_249" data-name="Line 249" x2="1.751" fill="none" stroke="#7983a6" stroke-miterlimit="10" stroke-width="1"/>
        <line id="Line_250" data-name="Line 250" x2="101.37" transform="translate(5.188)" fill="none" stroke="#7983a6" stroke-miterlimit="10" stroke-width="1" stroke-dasharray="11.78 11.78"/>
        <line id="Line_251" data-name="Line 251" x2="1.751" transform="translate(108.277)" fill="none" stroke="#7983a6" stroke-miterlimit="10" stroke-width="1"/>
      </g>
      <g id="Group_2715" data-name="Group 2715" transform="translate(1475.677 4208.142)" opacity="0.5">
        <line id="Line_252" data-name="Line 252" x2="1.751" fill="none" stroke="#7983a6" stroke-miterlimit="10" stroke-width="1"/>
        <line id="Line_253" data-name="Line 253" x2="101.37" transform="translate(5.188)" fill="none" stroke="#7983a6" stroke-miterlimit="10" stroke-width="1" stroke-dasharray="11.78 11.78"/>
        <line id="Line_254" data-name="Line 254" x2="1.751" transform="translate(108.277)" fill="none" stroke="#7983a6" stroke-miterlimit="10" stroke-width="1"/>
      </g>
      <g id="Group_2716" data-name="Group 2716" transform="translate(1475.677 4196.173)" opacity="0.5">
        <line id="Line_255" data-name="Line 255" x2="1.751" fill="none" stroke="#7983a6" stroke-miterlimit="10" stroke-width="1"/>
        <line id="Line_256" data-name="Line 256" x2="101.37" transform="translate(5.188)" fill="none" stroke="#7983a6" stroke-miterlimit="10" stroke-width="1" stroke-dasharray="11.78 11.78"/>
        <line id="Line_257" data-name="Line 257" x2="1.751" transform="translate(108.277)" fill="none" stroke="#7983a6" stroke-miterlimit="10" stroke-width="1"/>
      </g>
      <rect id="Rectangle_866" data-name="Rectangle 866" width="7.896" height="23.941" transform="translate(1481.153 4220.114)" fill="#bdbdbd"/>
      <rect id="Rectangle_867" data-name="Rectangle 867" width="7.896" height="24.194" transform="translate(1503.183 4219.985)" fill="#bdbdbd"/>
      <rect id="Rectangle_868" data-name="Rectangle 868" width="7.896" height="12.351" transform="translate(1525.215 4231.957)" fill="#bdbdbd"/>
      <rect id="Rectangle_869" data-name="Rectangle 869" width="7.896" height="48.392" transform="translate(1547.244 4195.791)" fill="#bdbdbd"/>
      <rect id="Rectangle_870" data-name="Rectangle 870" width="7.896" height="36.548" transform="translate(1599.327 4167.24)" fill="#bdbdbd"/>
      <g id="Group_2717" data-name="Group 2717" transform="translate(1483.064 4247.492)" opacity="0.7">
        <circle id="Ellipse_413" data-name="Ellipse 413" cx="2.037" cy="2.037" r="2.037" fill="#bdbdbd"/>
      </g>
      <g id="Group_2718" data-name="Group 2718" transform="translate(1505.223 4247.492)" opacity="0.7">
        <circle id="Ellipse_414" data-name="Ellipse 414" cx="2.037" cy="2.037" r="2.037" fill="#bdbdbd"/>
      </g>
      <g id="Group_2719" data-name="Group 2719" transform="translate(1527.38 4247.492)" opacity="0.7">
        <circle id="Ellipse_415" data-name="Ellipse 415" cx="2.037" cy="2.037" r="2.037" fill="#bdbdbd"/>
      </g>
      <g id="Group_2720" data-name="Group 2720" transform="translate(1549.538 4247.492)" opacity="0.7">
        <circle id="Ellipse_416" data-name="Ellipse 416" cx="2.037" cy="2.037" r="2.037" fill="#bdbdbd"/>
      </g>
      <g id="Group_2721" data-name="Group 2721" transform="translate(1571.695 4247.492)" opacity="0.7">
        <circle id="Ellipse_417" data-name="Ellipse 417" cx="2.037" cy="2.037" r="2.037" fill="#bdbdbd"/>
      </g>
    </g>
  </g>
</svg>
