<svg xmlns="http://www.w3.org/2000/svg" width="804.939" height="381.054" viewBox="0 0 804.939 381.054">
  <g id="Group_2664" data-name="Group 2664" transform="translate(-455.561 -831.474)">
    <g id="Group_513" data-name="Group 513" transform="translate(4 -50)">
      <text id="Main_Purpose" data-name="Main
Purpose" transform="translate(680 998)" fill="#21232a" font-size="20" font-family="HelveticaNeue-Bold, Helvetica Neue" font-weight="700"><tspan x="21.18" y="20">Main</tspan><tspan x="4.68" y="45">Purpose</tspan></text>
      <text id="Example_Use_Case" data-name="Example
Use Case" transform="translate(673 1135)" fill="#21232a" font-size="20" font-family="HelveticaNeue-Bold, Helvetica Neue" font-weight="700"><tspan x="10.42" y="20">Example</tspan><tspan x="5.94" y="45">Use Case</tspan></text>
      <line id="Line_158" data-name="Line 158" y2="381.054" transform="translate(791.5 881.474)" fill="none" stroke="#707070" stroke-width="1" opacity="0.2"/>
      <line id="Line_159" data-name="Line 159" x1="601.5" transform="translate(655 1083.5)" fill="none" stroke="#707070" stroke-width="1" opacity="0.2"/>
      <text id="To_temporarily_shut_down_electricity_supply" data-name="To temporarily shut down electricity supply" transform="translate(832 998)" fill="#707070" font-size="14" font-family="HelveticaNeue, Helvetica Neue"><tspan x="12.727" y="13">To temporarily shut </tspan><tspan x="0.554" y="28">down electricity supply</tspan></text>
      <text id="Same_as_Cluster_In-charge" data-name="Same as Cluster
In-charge" transform="translate(1052 998)" fill="#707070" font-size="14" font-family="HelveticaNeue, Helvetica Neue"><tspan x="26.529" y="13">Same as Cluster</tspan><tspan x="48.25" y="28">In-charge</tspan></text>
      <text id="Shutting_a_feeder_down_for_maintenance_for_a_specified_time_duration" data-name="Shutting a feeder down for maintenance, for a specified time duration" transform="translate(832 1135)" fill="#707070" font-size="14" font-family="HelveticaNeue, Helvetica Neue"><tspan x="18.824" y="13">Shutting a feeder </tspan><tspan x="0.673" y="28">down for maintenance, </tspan><tspan x="12.734" y="43">for a specified time </tspan><tspan x="46.698" y="58">duration</tspan></text>
      <text id="Same_as_Cluster_In-charge-2" data-name="Same as Cluster
In-charge" transform="translate(1043 1135)" fill="#707070" font-size="14" font-family="HelveticaNeue, Helvetica Neue"><tspan x="35.529" y="13">Same as Cluster</tspan><tspan x="57.25" y="28">In-charge</tspan></text>
      <line id="Line_157" data-name="Line 157" y2="381.054" transform="translate(1016.5 881.474)" fill="none" stroke="#707070" stroke-width="1" opacity="0.2"/>
      <text id="State_In-charge" data-name="State In-charge" transform="translate(1038 908)" fill="#21232a" font-size="20" font-family="HelveticaNeue-Bold, Helvetica Neue" font-weight="700"><tspan x="18.39" y="20">State In-charge</tspan></text>
      <text id="Cluster_In-charge" data-name="Cluster In-charge" transform="translate(812 908)" fill="#21232a" font-size="20" font-family="HelveticaNeue-Bold, Helvetica Neue" font-weight="700"><tspan x="8.96" y="20">Cluster In-charge</tspan></text>
    </g>
    <g id="city" transform="translate(454.561 903.546)">
      <path id="Path_4545" data-name="Path 4545" d="M41,23v77.167H58.538a3.5,3.5,0,0,1,3.508,3.508v52.614h42.091V23ZM55.03,93.151H48.015V86.136H55.03Zm0-14.03H48.015V72.106H55.03Zm0-14.03H48.015V58.076H55.03Zm0-14.03H48.015V44.045H55.03Zm0-14.03H48.015V30.015H55.03Zm21.045-7.015h7.015V37.03H76.076Zm0,14.03h7.015v7.015H76.076Zm0,14.03h7.015v7.015H76.076Zm0,14.03h7.015v7.015H76.076Zm0,14.03h7.015v7.015H76.076Zm0,14.03h7.015v7.015H76.076Zm0,14.03h7.015v7.015H76.076Zm0,14.03h7.015v7.015H76.076ZM69.061,93.151H62.045V86.136h7.015Zm0-14.03H62.045V72.106h7.015Zm0-14.03H62.045V58.076h7.015Zm0-14.03H62.045V44.045h7.015Zm0-14.03H62.045V30.015h7.015ZM97.121,145.765a3.5,3.5,0,0,1-3.508,3.508H76.076v-7.015h14.03V30.015h7.015Z" transform="translate(100.303 55.167)" fill="#bebebe"/>
      <path id="Path_4546" data-name="Path 4546" d="M43,18.185v9.874H63.155A40.088,40.088,0,0,0,43,18.185Z" transform="translate(105.318 43.093)" fill="#bebebe"/>
      <path id="Path_4547" data-name="Path 4547" d="M72.706,35.98H88.086A67.1,67.1,0,0,0,43,15.026v3.95l.814.137A47.041,47.041,0,0,1,72.706,35.98Z" transform="translate(105.318 35.171)" fill="#bebebe"/>
      <path id="Path_4548" data-name="Path 4548" d="M23,96.106h77.167V47H23ZM72.106,54.015h7.015V61.03H72.106Zm0,14.03h7.015v7.015H72.106Zm0,14.03h14.03V54.015h7.015V85.583a3.5,3.5,0,0,1-3.508,3.508H72.106ZM58.076,54.015h7.015V61.03H58.076Zm0,14.03h7.015v7.015H58.076Zm0,14.03h7.015v7.015H58.076ZM44.045,54.015h7.015V61.03H44.045Zm0,14.03h7.015v7.015H44.045Zm0,14.03h7.015v7.015H44.045ZM30.015,54.015H37.03V61.03H30.015Zm0,14.03H37.03v7.015H30.015Zm0,14.03H37.03v7.015H30.015Z" transform="translate(55.167 115.348)" fill="#bebebe"/>
      <path id="Path_4549" data-name="Path 4549" d="M60.076,27.868,25,51.253V87.96H60.076ZM39.03,80.945H32.015V73.929H39.03Zm0-14.03H32.015V59.9H39.03Zm14.03,14.03H46.045V73.929h7.015Zm0-14.03H46.045V59.9h7.015Zm0-14.03H46.045V45.869h7.015Z" transform="translate(60.182 67.373)" fill="#bebebe"/>
      <path id="Path_4550" data-name="Path 4550" d="M79.631,11.026a67.006,67.006,0,0,0-31.656,10A74.23,74.23,0,0,1,79.631,40.107Z" transform="translate(117.793 25.141)" fill="#bebebe"/>
      <path id="Path_4551" data-name="Path 4551" d="M38.076,73.151A35.076,35.076,0,1,0,3,38.076,35.116,35.116,0,0,0,38.076,73.151ZM34.568,6.508h7.015V24.045H34.568Zm-8.52,6.212,3.006,6.338a21.043,21.043,0,1,0,18.039,0L50.1,12.716a28.063,28.063,0,1,1-24.051,0Z" transform="translate(5.015 5.015)" fill="#bebebe"/>
      <path id="Path_4552" data-name="Path 4552" d="M18,44h7.015v7.015H18Z" transform="translate(42.629 107.826)" fill="#bebebe"/>
      <path id="Path_4553" data-name="Path 4553" d="M20,50h7.015v7.015H20Z" transform="translate(47.644 122.871)" fill="#bebebe"/>
      <path id="Path_4554" data-name="Path 4554" d="M29.061,74.106V66.737a17.4,17.4,0,0,0,6.149-2.568L40.436,69.4l4.96-4.96-5.226-5.226a17.4,17.4,0,0,0,2.568-6.149h7.369V46.045H42.737A17.4,17.4,0,0,0,40.169,39.9L45.4,34.67l-4.96-4.96-5.226,5.226a17.4,17.4,0,0,0-6.149-2.568V25H22.045v7.369A17.4,17.4,0,0,0,15.9,34.937L10.67,29.711l-4.96,4.96L10.937,39.9a17.4,17.4,0,0,0-2.568,6.149H1v7.015H8.369a17.4,17.4,0,0,0,2.568,6.149L5.711,64.436l4.96,4.96L15.9,64.169a17.4,17.4,0,0,0,6.149,2.568v7.369ZM15.03,49.553A10.523,10.523,0,1,1,25.553,60.076,10.536,10.536,0,0,1,15.03,49.553Z" transform="translate(0 60.182)" fill="#bebebe"/>
      <path id="Path_4555" data-name="Path 4555" d="M7,31h7.015v7.015H7Z" transform="translate(15.045 75.227)" fill="#bebebe"/>
      <path id="Path_4556" data-name="Path 4556" d="M50.015,4H43V35.719c2.357.119,4.7.333,7.015.677Z" transform="translate(105.318 7.523)" fill="#bebebe"/>
      <path id="Path_4557" data-name="Path 4557" d="M62.015,1H55V29.874c2.322-.34,4.662-.554,7.015-.666Z" transform="translate(135.409)" fill="#bebebe"/>
      <path id="Path_4558" data-name="Path 4558" d="M45.437,95.373A3.507,3.507,0,0,0,42.9,92.49a17.556,17.556,0,0,1-9.67-6.892l3.336.477.993-6.945-21.54-3.08v-.933l21.544-3.076L36.566,65.1l-3.336.477A17.556,17.556,0,0,1,42.9,58.68,3.511,3.511,0,0,0,45.44,55.8l1.677-11.782h.933l1.68,11.778a3.505,3.505,0,0,0,2.543,2.883,17.537,17.537,0,0,1,5.833,2.9V53.507c-.582-.277-1.133-.624-1.736-.856L54.563,40.01A3.506,3.506,0,0,0,51.091,37H44.076A3.506,3.506,0,0,0,40.6,40.01L38.8,52.651c-.477.182-.93.41-1.393.621L23.03,47.523,19.523,51.03l5.763,14.409c-.2.449-.424.891-.6,1.35L12.01,68.6A3.506,3.506,0,0,0,9,72.076v7.015a3.506,3.506,0,0,0,3.009,3.473l12.673,1.81c.179.463.4.9.6,1.35l-5.763,14.413,3.508,3.508L37.4,97.895c.463.21.915.438,1.393.621L40.6,111.157a3.506,3.506,0,0,0,3.472,3.009h7.015v-7.015H47.117Z" transform="translate(20.061 90.273)" fill="#bebebe"/>
    </g>
  </g>
</svg>
