<svg xmlns="http://www.w3.org/2000/svg" xmlns:xlink="http://www.w3.org/1999/xlink" width="1399.499" height="290.751" viewBox="0 0 1399.499 290.751">
  <defs>
    <linearGradient id="linear-gradient" x1="0.5" y1="1" x2="0.5" gradientUnits="objectBoundingBox">
      <stop offset="0" stop-color="gray" stop-opacity="0.251"/>
      <stop offset="0.54" stop-color="gray" stop-opacity="0.122"/>
      <stop offset="1" stop-color="gray" stop-opacity="0.102"/>
    </linearGradient>
  </defs>
  <g id="Group_2656" data-name="Group 2656" transform="translate(-283 -4829.5)">
    <text id="Cluster_In-charge" data-name="Cluster In-charge" transform="translate(923 4838)" fill="#21232a" font-size="20" font-family="HelveticaNeue-Bold, Helvetica Neue" font-weight="700"><tspan x="1.96" y="20">Cluster In-charge</tspan></text>
    <text id="Main_Purpose" data-name="Main Purpose" transform="translate(351.5 4933)" fill="#21232a" font-size="20" font-family="HelveticaNeue-Bold, Helvetica Neue" font-weight="700"><tspan x="14.16" y="20">Main Purpose</tspan></text>
    <text id="Example_Use_Case" data-name="Example Use Case" transform="translate(304.5 5044)" fill="#21232a" font-size="20" font-family="HelveticaNeue-Bold, Helvetica Neue" font-weight="700"><tspan x="14.16" y="20">Example Use Case</tspan></text>
    <text id="State_In-carge" data-name="State In-carge" transform="translate(1104.5 4838)" fill="#21232a" font-size="20" font-family="HelveticaNeue-Bold, Helvetica Neue" font-weight="700"><tspan x="17.32" y="20">State In-carge</tspan></text>
    <line id="Line_167" data-name="Line 167" y2="290.751" transform="translate(910.5 4829.5)" fill="none" stroke="#707070" stroke-width="1" opacity="0.2"/>
    <line id="Line_168" data-name="Line 168" y2="290.751" transform="translate(716.5 4829.5)" fill="none" stroke="#707070" stroke-width="1" opacity="0.2"/>
    <line id="Line_170" data-name="Line 170" y2="290.751" transform="translate(522.5 4829.5)" fill="none" stroke="#707070" stroke-width="1" opacity="0.2"/>
    <line id="Line_169" data-name="Line 169" x1="1038.5" transform="translate(283 5002.5)" fill="none" stroke="#707070" stroke-width="1" opacity="0.2"/>
    <text id="To_view_which_customer_meters_need_to_be_read" data-name="To view which customer meters need to be read" transform="translate(524 4924)" fill="#707070" font-size="14" font-family="HelveticaNeue, Helvetica Neue"><tspan x="19.946" y="13">To view which customer </tspan><tspan x="22.123" y="29">meters need to be read</tspan></text>
    <text id="Same_as_Technician" data-name="Same as
Technician" transform="translate(778 4924)" fill="#707070" font-size="14" font-family="HelveticaNeue, Helvetica Neue"><tspan x="9.27" y="13">Same as</tspan><tspan x="3.439" y="29">Technician</tspan></text>
    <text id="To_check_the_number_of_pending_meter_readings" data-name="To check the number of pending meter readings" transform="translate(924 4924)" fill="#707070" font-size="14" font-family="HelveticaNeue, Helvetica Neue"><tspan x="9.713" y="13">To check the number of </tspan><tspan x="9.328" y="29">pending meter readings</tspan></text>
    <text id="Planning_which_customers_to_visit_for_metering_before_the_end_of_the_month" data-name="Planning which customers to visit for metering before the end of the month" transform="translate(520 5033)" fill="#707070" font-size="14" font-family="HelveticaNeue, Helvetica Neue"><tspan x="9.004" y="13">Planning which customers to </tspan><tspan x="13.673" y="29">visit for metering before the </tspan><tspan x="45.936" y="45">end of the month</tspan></text>
    <text id="Same_as_Technician-2" data-name="Same as
Technician" transform="translate(780 5033)" fill="#707070" font-size="14" font-family="HelveticaNeue, Helvetica Neue"><tspan x="6.77" y="13">Same as</tspan><tspan x="0.939" y="29">Technician</tspan></text>
    <text id="Contacting_field_agents_to_remind_them_about_incomplete_meter_readings" data-name="Contacting field agents to remind them about incomplete meter readings" transform="translate(923 5033)" fill="#707070" font-size="14" font-family="HelveticaNeue, Helvetica Neue"><tspan x="4.36" y="13">Contacting field agents to </tspan><tspan x="25.724" y="29">remind them about </tspan><tspan x="1.623" y="45">incomplete meter readings</tspan></text>
    <line id="Line_166" data-name="Line 166" y2="290.751" transform="translate(1104.5 4829.5)" fill="none" stroke="#707070" stroke-width="1" opacity="0.2"/>
    <text id="Same_as_Cluster_In-charge" data-name="Same as Cluster In-charge" transform="translate(1131.5 4924)" fill="#707070" font-size="14" font-family="HelveticaNeue, Helvetica Neue"><tspan x="7.029" y="13">Same as Cluster </tspan><tspan x="28.75" y="29">In-charge</tspan></text>
    <text id="Same_as_Cluster_In-charge-2" data-name="Same as Cluster In-charge" transform="translate(1138.5 5033)" fill="#707070" font-size="14" font-family="HelveticaNeue, Helvetica Neue"><tspan x="0.029" y="13">Same as Cluster </tspan><tspan x="21.75" y="29">In-charge</tspan></text>
    <text id="CSA" transform="translate(743 4838)" fill="#21232a" font-size="20" font-family="HelveticaNeue-Bold, Helvetica Neue" font-weight="700"><tspan x="50.75" y="20">CSA</tspan></text>
    <text id="Technician" transform="translate(548 4838)" fill="#21232a" font-size="20" font-family="HelveticaNeue-Bold, Helvetica Neue" font-weight="700"><tspan x="20.59" y="20">Technician</tspan></text>
    <path id="Path_3924" data-name="Path 3924" d="M137.7,31.846c-11.592-.427-23.7-.727-34.182,4.242S84.928,53.1,88.443,64.164c1.147,3.608,3.382,6.753,5.266,10.038a57.881,57.881,0,0,1,1.124,54.465C88.11,141.6,76.715,151.447,68.511,163.5s-12.866,28.756-4.8,40.9c5.526,8.314,15.78,12.359,25.715,13.339s19.926-.564,29.9-.96a128.808,128.808,0,0,1,56.552,10.695c24.508,10.745,45.621,29.127,71.426,36.22,3.1.85,6.336,1.537,9.5.96,5.619-1.024,9.7-5.669,14.1-9.338,14.043-11.629,33.485-13.8,51.713-14.34s37.213-.123,53.691-7.95c14.387-6.833,25.461-19.545,32.348-33.905s9.878-30.317,11-46.208c.667-9.458.644-19.222-2.741-28.076-3.805-9.954-11.522-17.881-19.616-24.811-8.457-7.243-17.675-13.806-28.116-17.715-12.472-4.669-26.012-5.336-39.291-6.443a539.743,539.743,0,0,1-80.823-12.979c-25.221-6.029-52.914-12.616-75.884-24.9C161.676,31.823,150.691,32.313,137.7,31.846Z" transform="translate(1262.48 4810.078)" fill="#a2a2a2" opacity="0.1"/>
    <g id="Group_1902" data-name="Group 1902" transform="translate(1553.964 4993.879)" opacity="0.1">
      <path id="Path_3925" data-name="Path 3925" d="M773.4,566.715s1.181-16.544,10.491-25.565a25.122,25.122,0,0,0,7.423-14.056,42.475,42.475,0,0,0,.5-7.713" transform="translate(-767.296 -508.894)" fill="#a2a2a2"/>
      <path id="Path_3926" data-name="Path 3926" d="M832.5,492.7c-.684,1.828-5.969,5.889-5.969,5.889s-1.334-6.533-.644-8.36A3.53,3.53,0,1,1,832.5,492.7Z" transform="translate(-802.145 -487.937)" fill="#a2a2a2"/>
      <path id="Path_3927" data-name="Path 3927" d="M834.76,526.083c-1.567,1.161-8.21,1.7-8.21,1.7s2.434-6.206,4-7.37a3.532,3.532,0,0,1,4.209,5.669Z" transform="translate(-802.721 -509.154)" fill="#a2a2a2"/>
      <path id="Path_3928" data-name="Path 3928" d="M815.2,576.262c-1.941.213-7.947-2.668-7.947-2.668s5.236-4.129,7.173-4.335a3.528,3.528,0,0,1,.774,7Z" transform="translate(-789.858 -542.136)" fill="#a2a2a2"/>
      <path id="Path_3929" data-name="Path 3929" d="M790.534,611.974c-1.874.537-8.284-1.3-8.284-1.3s4.462-4.952,6.336-5.489a3.532,3.532,0,1,1,1.948,6.786Z" transform="translate(-773.195 -565.976)" fill="#a2a2a2"/>
      <path id="Path_3930" data-name="Path 3930" d="M804.732,527.171c.834,1.761,6.443,5.359,6.443,5.359s.774-6.62-.063-8.384a3.532,3.532,0,0,0-6.38,3.025Z" transform="translate(-787.98 -510.786)" fill="#a2a2a2"/>
      <path id="Path_3931" data-name="Path 3931" d="M775.924,567.209c1.334,1.431,7.754,3.188,7.754,3.188s-1.244-6.55-2.568-7.984a3.532,3.532,0,1,0-5.186,4.8Z" transform="translate(-768.353 -536.821)" fill="#a2a2a2"/>
      <path id="Path_3932" data-name="Path 3932" d="M755.615,612.8c1.06,1.634,7.1,4.452,7.1,4.452s-.12-6.67-1.184-8.3a3.532,3.532,0,0,0-5.919,3.848Z" transform="translate(-755.097 -567.581)" fill="#a2a2a2"/>
      <path id="Path_3933" data-name="Path 3933" d="M832.5,492.7c-.684,1.828-5.969,5.889-5.969,5.889s-1.334-6.533-.644-8.36A3.53,3.53,0,1,1,832.5,492.7Z" transform="translate(-802.145 -487.937)" fill="#a2a2a2"/>
      <path id="Path_3934" data-name="Path 3934" d="M834.76,526.083c-1.567,1.161-8.21,1.7-8.21,1.7s2.434-6.206,4-7.37a3.532,3.532,0,0,1,4.209,5.669Z" transform="translate(-802.721 -509.154)" fill="#a2a2a2"/>
      <path id="Path_3935" data-name="Path 3935" d="M815.2,576.262c-1.941.213-7.947-2.668-7.947-2.668s5.236-4.129,7.173-4.335a3.528,3.528,0,0,1,.774,7Z" transform="translate(-789.858 -542.136)" fill="#a2a2a2"/>
      <path id="Path_3936" data-name="Path 3936" d="M790.534,611.974c-1.874.537-8.284-1.3-8.284-1.3s4.462-4.952,6.336-5.489a3.532,3.532,0,1,1,1.948,6.786Z" transform="translate(-773.195 -565.976)" fill="#a2a2a2"/>
      <path id="Path_3937" data-name="Path 3937" d="M804.732,527.171c.834,1.761,6.443,5.359,6.443,5.359s.774-6.62-.063-8.384a3.532,3.532,0,0,0-6.38,3.025Z" transform="translate(-787.98 -510.786)" fill="#a2a2a2"/>
      <path id="Path_3938" data-name="Path 3938" d="M775.924,567.209c1.334,1.431,7.754,3.188,7.754,3.188s-1.244-6.55-2.568-7.984a3.532,3.532,0,1,0-5.186,4.8Z" transform="translate(-768.353 -536.821)" fill="#a2a2a2"/>
      <path id="Path_3939" data-name="Path 3939" d="M755.615,612.8c1.06,1.634,7.1,4.452,7.1,4.452s-.12-6.67-1.184-8.3a3.532,3.532,0,0,0-5.919,3.848Z" transform="translate(-755.097 -567.581)" fill="#a2a2a2"/>
    </g>
    <g id="Group_1903" data-name="Group 1903" transform="translate(1557.124 4931.257)" opacity="0.1">
      <path id="Path_3940" data-name="Path 3940" d="M783.2,378.935s1.181-16.544,10.491-25.565a25.144,25.144,0,0,0,7.423-14.056,41.9,41.9,0,0,0,.5-7.713" transform="translate(-776.988 -321.114)" fill="#a2a2a2"/>
      <path id="Path_3941" data-name="Path 3941" d="M842.3,304.924c-.667,1.824-5.966,5.886-5.966,5.886s-1.334-6.533-.647-8.357a3.53,3.53,0,0,1,6.613,2.471Z" transform="translate(-811.84 -300.158)" fill="#a2a2a2"/>
      <path id="Path_3942" data-name="Path 3942" d="M844.59,338.072c-1.564,1.164-8.21,1.7-8.21,1.7s2.434-6.2,4-7.367a3.532,3.532,0,1,1,4.208,5.669Z" transform="translate(-812.433 -321.147)" fill="#a2a2a2"/>
      <path id="Path_3943" data-name="Path 3943" d="M825,388.45c-1.938.213-7.944-2.668-7.944-2.668s5.236-4.125,7.173-4.335a3.531,3.531,0,1,1,.77,7.02Z" transform="translate(-799.556 -354.324)" fill="#a2a2a2"/>
      <path id="Path_3944" data-name="Path 3944" d="M800.334,424.245c-1.874.537-8.284-1.3-8.284-1.3s4.465-4.952,6.336-5.492a3.531,3.531,0,1,1,1.944,6.79Z" transform="translate(-782.886 -378.247)" fill="#a2a2a2"/>
      <path id="Path_3945" data-name="Path 3945" d="M814.448,339.2c.834,1.764,6.446,5.362,6.446,5.362s.77-6.623-.063-8.384a3.531,3.531,0,1,0-6.384,3.022Z" transform="translate(-797.588 -322.819)" fill="#a2a2a2"/>
      <path id="Path_3946" data-name="Path 3946" d="M785.847,379.556c1.334,1.434,7.757,3.188,7.757,3.188s-1.247-6.55-2.571-7.98a3.532,3.532,0,0,0-5.186,4.792Z" transform="translate(-778.167 -349.171)" fill="#a2a2a2"/>
      <path id="Path_3947" data-name="Path 3947" d="M765.2,424.688c1.064,1.634,7.1,4.452,7.1,4.452s-.12-6.67-1.184-8.3a3.532,3.532,0,1,0-5.919,3.848Z" transform="translate(-764.572 -379.467)" fill="#a2a2a2"/>
      <path id="Path_3948" data-name="Path 3948" d="M842.3,304.924c-.667,1.824-5.966,5.886-5.966,5.886s-1.334-6.533-.647-8.357a3.53,3.53,0,0,1,6.613,2.471Z" transform="translate(-811.84 -300.158)" fill="#a2a2a2"/>
      <path id="Path_3949" data-name="Path 3949" d="M844.59,338.072c-1.564,1.164-8.21,1.7-8.21,1.7s2.434-6.2,4-7.367a3.532,3.532,0,1,1,4.208,5.669Z" transform="translate(-812.433 -321.147)" fill="#a2a2a2"/>
      <path id="Path_3950" data-name="Path 3950" d="M825,388.45c-1.938.213-7.944-2.668-7.944-2.668s5.236-4.125,7.173-4.335a3.531,3.531,0,1,1,.77,7.02Z" transform="translate(-799.556 -354.324)" fill="#a2a2a2"/>
      <path id="Path_3951" data-name="Path 3951" d="M800.334,424.245c-1.874.537-8.284-1.3-8.284-1.3s4.465-4.952,6.336-5.492a3.531,3.531,0,1,1,1.944,6.79Z" transform="translate(-782.886 -378.247)" fill="#a2a2a2"/>
      <path id="Path_3952" data-name="Path 3952" d="M814.448,339.2c.834,1.764,6.446,5.362,6.446,5.362s.77-6.623-.063-8.384a3.531,3.531,0,1,0-6.384,3.022Z" transform="translate(-797.588 -322.819)" fill="#a2a2a2"/>
      <path id="Path_3953" data-name="Path 3953" d="M785.847,379.556c1.334,1.434,7.757,3.188,7.757,3.188s-1.247-6.55-2.571-7.98a3.532,3.532,0,0,0-5.186,4.792Z" transform="translate(-778.167 -349.171)" fill="#a2a2a2"/>
      <path id="Path_3954" data-name="Path 3954" d="M765.2,424.688c1.064,1.634,7.1,4.452,7.1,4.452s-.12-6.67-1.184-8.3a3.532,3.532,0,1,0-5.919,3.848Z" transform="translate(-764.572 -379.467)" fill="#a2a2a2"/>
    </g>
    <g id="Group_1904" data-name="Group 1904" transform="translate(1343.878 4964.183)" opacity="0.1">
      <path id="Path_3955" data-name="Path 3955" d="M184.739,463.15s-14.243-8.49-18.122-20.856a25.1,25.1,0,0,0-9.217-12.949,42.045,42.045,0,0,0-6.67-3.915" transform="translate(-142.19 -416.579)" fill="#a2a2a2"/>
      <path id="Path_3956" data-name="Path 3956" d="M131.178,399.95c1.334,1.431,2.578,7.98,2.578,7.98s-6.433-1.751-7.757-3.181a3.532,3.532,0,0,1,5.179-4.8Z" transform="translate(-125.123 -398.889)" fill="#a2a2a2"/>
      <path id="Path_3957" data-name="Path 3957" d="M164.09,407.979c.333,1.921-2.174,8.1-2.174,8.1s-4.449-4.966-4.782-6.886a3.532,3.532,0,1,1,6.956-1.211Z" transform="translate(-146.413 -402.939)" fill="#a2a2a2"/>
      <path id="Path_3958" data-name="Path 3958" d="M201.557,445.372c-.667,1.827-5.966,5.893-5.966,5.893s-1.334-6.533-.65-8.357a3.532,3.532,0,1,1,6.616,2.464Z" transform="translate(-171.527 -426.634)" fill="#a2a2a2"/>
      <path id="Path_3959" data-name="Path 3959" d="M222.242,484.178c-.36,1.918-4.882,6.833-4.882,6.833s-2.418-6.213-2.054-8.127a3.53,3.53,0,0,1,6.936,1.311Z" transform="translate(-185.206 -452.957)" fill="#a2a2a2"/>
      <path id="Path_3960" data-name="Path 3960" d="M149.178,440.068c1.948.047,7.687-3.335,7.687-3.335s-5.569-3.668-7.52-3.715a3.531,3.531,0,1,0-.167,7.061Z" transform="translate(-138.858 -421.636)" fill="#a2a2a2"/>
      <path id="Path_3961" data-name="Path 3961" d="M172.356,483.867c1.874-.54,6.336-5.5,6.336-5.5s-6.41-1.831-8.284-1.291a3.532,3.532,0,0,0,1.951,6.786Z" transform="translate(-153.656 -450.938)" fill="#a2a2a2"/>
      <path id="Path_3962" data-name="Path 3962" d="M203.208,522.5c1.941-.213,7.173-4.335,7.173-4.335s-6-2.888-7.947-2.668a3.528,3.528,0,1,0,.774,7Z" transform="translate(-174.429 -476.601)" fill="#a2a2a2"/>
      <path id="Path_3963" data-name="Path 3963" d="M131.178,399.95c1.334,1.431,2.578,7.98,2.578,7.98s-6.433-1.751-7.757-3.181a3.532,3.532,0,0,1,5.179-4.8Z" transform="translate(-125.123 -398.889)" fill="#a2a2a2"/>
      <path id="Path_3964" data-name="Path 3964" d="M164.09,407.979c.333,1.921-2.174,8.1-2.174,8.1s-4.449-4.966-4.782-6.886a3.532,3.532,0,1,1,6.956-1.211Z" transform="translate(-146.413 -402.939)" fill="#a2a2a2"/>
      <path id="Path_3965" data-name="Path 3965" d="M201.557,445.372c-.667,1.827-5.966,5.893-5.966,5.893s-1.334-6.533-.65-8.357a3.532,3.532,0,1,1,6.616,2.464Z" transform="translate(-171.527 -426.634)" fill="#a2a2a2"/>
      <path id="Path_3966" data-name="Path 3966" d="M222.242,484.178c-.36,1.918-4.882,6.833-4.882,6.833s-2.418-6.213-2.054-8.127a3.53,3.53,0,0,1,6.936,1.311Z" transform="translate(-185.206 -452.957)" fill="#a2a2a2"/>
      <path id="Path_3967" data-name="Path 3967" d="M149.178,440.068c1.948.047,7.687-3.335,7.687-3.335s-5.569-3.668-7.52-3.715a3.531,3.531,0,1,0-.167,7.061Z" transform="translate(-138.858 -421.636)" fill="#a2a2a2"/>
      <path id="Path_3968" data-name="Path 3968" d="M172.356,483.867c1.874-.54,6.336-5.5,6.336-5.5s-6.41-1.831-8.284-1.291a3.532,3.532,0,0,0,1.951,6.786Z" transform="translate(-153.656 -450.938)" fill="#a2a2a2"/>
      <path id="Path_3969" data-name="Path 3969" d="M203.208,522.5c1.941-.213,7.173-4.335,7.173-4.335s-6-2.888-7.947-2.668a3.528,3.528,0,1,0,.774,7Z" transform="translate(-174.429 -476.601)" fill="#a2a2a2"/>
    </g>
    <path id="Path_3971" data-name="Path 3971" d="M232.93,770.859c16.341,4.705,36.283,1.841,54.825,2.174a21.674,21.674,0,0,1,7.263,1c2.038.817,3.038,2.134,4.435,3.261,5.2,4.2,15.844,5.549,25.148,4.836s17.841-3.071,26.625-4.866c15.18-3.1,32.535-4.519,47.508-1.134a14.2,14.2,0,0,0,4.3.544c3.281-.277,4.259-2.528,6.556-3.815,4.145-2.334,13.146-1.691,14.967-4.752,1.067-1.794-1.387-3.635-4.062-4.859-10.231-4.685-24.871-5.459-38.267-4.735s-26.562,2.715-40.018,2.725c-16.774,0-32.982-3.058-49.592-4.315-11.505-.867-24.061-.76-34.849,1.8C246.069,761.488,243.491,767.7,232.93,770.859Z" transform="translate(1146.899 4326.984)" fill="#a2a2a2" opacity="0.1"/>
    <path id="Path_3973" data-name="Path 3973" d="M416.916,67.32H261.973A14.19,14.19,0,0,0,247.76,81.49V296.163a14.19,14.19,0,0,0,14.213,14.16H416.916a14.19,14.19,0,0,0,14.213-14.17V81.49A14.19,14.19,0,0,0,416.916,67.32Z" transform="translate(1137.016 4786.29)" fill="url(#linear-gradient)"/>
    <rect id="Rectangle_633" data-name="Rectangle 633" width="178.987" height="237.921" rx="20" transform="translate(1386.96 4856.521)" fill="#535461"/>
    <rect id="Rectangle_634" data-name="Rectangle 634" width="160.799" height="192.91" transform="translate(1396.054 4879.024)" fill="#f6f7f9"/>
    <circle id="Ellipse_344" data-name="Ellipse 344" cx="2.184" cy="2.184" r="2.184" transform="translate(1473.542 4865.248)" fill="#f6f7f9"/>
    <circle id="Ellipse_345" data-name="Ellipse 345" cx="6.55" cy="6.55" r="6.55" transform="translate(1469.177 5076.25)" fill="#f6f7f9"/>
    <g id="Group_1905" data-name="Group 1905" transform="translate(1396.054 4879.024)" opacity="0.2">
      <rect id="Rectangle_635" data-name="Rectangle 635" width="160.799" height="9.614" fill="#a2a2a2"/>
    </g>
    <circle id="Ellipse_346" data-name="Ellipse 346" cx="2.051" cy="2.051" r="2.051" transform="translate(1399.031 4881.782)" fill="#f6f7f9"/>
    <circle id="Ellipse_347" data-name="Ellipse 347" cx="2.051" cy="2.051" r="2.051" transform="translate(1404.258 4881.782)" fill="#f6f7f9"/>
    <circle id="Ellipse_348" data-name="Ellipse 348" cx="2.051" cy="2.051" r="2.051" transform="translate(1409.479 4881.782)" fill="#f6f7f9"/>
    <rect id="Rectangle_636" data-name="Rectangle 636" width="149.738" height="0.5" transform="translate(1400.855 4935.733)" fill="#dce0ed"/>
    <rect id="Rectangle_637" data-name="Rectangle 637" width="149.738" height="0.5" transform="translate(1400.855 4947.349)" fill="#dce0ed"/>
    <rect id="Rectangle_638" data-name="Rectangle 638" width="149.738" height="0.5" transform="translate(1400.855 4958.967)" fill="#dce0ed"/>
    <rect id="Rectangle_639" data-name="Rectangle 639" width="149.738" height="0.5" transform="translate(1400.855 4970.583)" fill="#dce0ed"/>
    <rect id="Rectangle_640" data-name="Rectangle 640" width="149.738" height="0.5" transform="translate(1400.855 4982.198)" fill="#dce0ed"/>
    <g id="Group_1906" data-name="Group 1906" transform="translate(1400.673 4942.82)" opacity="0.2">
      <path id="Path_3974" data-name="Path 3974" d="M385.831,343.058H235.91V320.214l13.75,6.776,14.23,1.931,12.486-3.765,15.063-11.682,7.577-4.375,5.539-1.067,5.3.283,8.714,4.305,11.849,7.547,9.3,1.194,7.37-2.541,15.627-12.8,7.977-2.845,8.347,1.291,6.8,3.925Z" transform="translate(-235.91 -303.18)" fill="#a2a2a2"/>
    </g>
    <path id="Path_3975" data-name="Path 3975" d="M321.555,360.4c-13.5,0-25.978-8.257-26.135-8.364l.374-.554c.193.13,19.4,12.832,35.713,6.47,5.949-2.334,10.185-5.929,14.283-9.421,4.279-3.645,8.317-7.087,13.826-8.581a20.681,20.681,0,0,1,18.465,4.149c4.485,3.685,13.416,9.6,22.85,7.833,4.809-.9,8.861-4.415,13.153-8.134,8.227-7.13,16.738-14.5,31.458-3.925l-.39.54c-14.293-10.271-22.6-3.071-30.63,3.888-4.362,3.778-8.48,7.337-13.466,8.284-9.7,1.821-18.822-4.215-23.4-7.974a20.031,20.031,0,0,0-17.868-4.018c-5.362,1.454-9.338,4.849-13.569,8.444-4.139,3.528-8.417,7.173-14.47,9.534a27.919,27.919,0,0,1-10.195,1.827Z" transform="translate(1105.249 4608.159)" fill="#a2a2a2"/>
    <circle id="Ellipse_349" data-name="Ellipse 349" cx="3.712" cy="3.712" r="3.712" transform="translate(1469.197 4943.927)" fill="#a2a2a2"/>
    <g id="Group_1907" data-name="Group 1907" transform="translate(1473.742 4898.523)" opacity="0.2">
      <path id="Path_3976" data-name="Path 3976" d="M562.121,202H515.3a.76.76,0,0,0-.76.76v31.664a.76.76,0,0,0,1.314.52l8.114-8.654a.757.757,0,0,1,.554-.24h37.6a.76.76,0,0,0,.76-.76V202.754A.76.76,0,0,0,562.121,202Z" transform="translate(-514.54 -202)" fill="#a2a2a2"/>
    </g>
    <rect id="Rectangle_641" data-name="Rectangle 641" width="26.662" height="3.335" transform="translate(1484.58 4904.386)" fill="#f6f7f9"/>
    <rect id="Rectangle_642" data-name="Rectangle 642" width="7.32" height="3.335" transform="translate(1484.58 4911.776)" fill="#f6f7f9"/>
    <g id="Group_1908" data-name="Group 1908" transform="translate(1413.502 5006.562)" opacity="0.2">
      <rect id="Rectangle_643" data-name="Rectangle 643" width="7.32" height="3.335" fill="#a2a2a2"/>
    </g>
    <g id="Group_1909" data-name="Group 1909" transform="translate(1413.502 5013.008)" opacity="0.2">
      <rect id="Rectangle_644" data-name="Rectangle 644" width="7.32" height="3.335" fill="#a2a2a2"/>
    </g>
    <g id="Group_1910" data-name="Group 1910" transform="translate(1413.502 5019.455)" opacity="0.2">
      <rect id="Rectangle_645" data-name="Rectangle 645" width="7.32" height="3.335" fill="#a2a2a2"/>
    </g>
    <g id="Group_1911" data-name="Group 1911" transform="translate(1413.502 5025.904)" opacity="0.2">
      <rect id="Rectangle_646" data-name="Rectangle 646" width="7.32" height="3.335" fill="#a2a2a2"/>
    </g>
    <g id="Group_1912" data-name="Group 1912" transform="translate(1413.502 5032.351)" opacity="0.2">
      <rect id="Rectangle_647" data-name="Rectangle 647" width="7.32" height="3.335" fill="#a2a2a2"/>
    </g>
    <g id="Group_1913" data-name="Group 1913" transform="translate(1413.502 5038.796)" opacity="0.2">
      <rect id="Rectangle_648" data-name="Rectangle 648" width="7.32" height="3.335" fill="#a2a2a2"/>
    </g>
    <g id="Group_1914" data-name="Group 1914" transform="translate(1413.502 5045.246)" opacity="0.2">
      <rect id="Rectangle_649" data-name="Rectangle 649" width="7.32" height="3.335" fill="#a2a2a2"/>
    </g>
    <g id="Group_1915" data-name="Group 1915" transform="translate(1413.502 5051.692)" opacity="0.2">
      <rect id="Rectangle_650" data-name="Rectangle 650" width="7.32" height="3.335" fill="#a2a2a2"/>
    </g>
    <g id="Group_1916" data-name="Group 1916" transform="translate(1427.284 5055.027)" opacity="0.2">
      <rect id="Rectangle_651" data-name="Rectangle 651" width="7.32" height="3.335" fill="#a2a2a2"/>
    </g>
    <g id="Group_1917" data-name="Group 1917" transform="translate(1440.181 5055.027)" opacity="0.2">
      <rect id="Rectangle_652" data-name="Rectangle 652" width="7.32" height="3.335" fill="#a2a2a2"/>
    </g>
    <g id="Group_1918" data-name="Group 1918" transform="translate(1453.076 5055.027)" opacity="0.2">
      <rect id="Rectangle_653" data-name="Rectangle 653" width="7.32" height="3.335" fill="#a2a2a2"/>
    </g>
    <g id="Group_1919" data-name="Group 1919" transform="translate(1465.969 5055.027)" opacity="0.2">
      <rect id="Rectangle_654" data-name="Rectangle 654" width="7.32" height="3.335" fill="#a2a2a2"/>
    </g>
    <g id="Group_1920" data-name="Group 1920" transform="translate(1478.864 5055.027)" opacity="0.2">
      <rect id="Rectangle_655" data-name="Rectangle 655" width="7.32" height="3.335" fill="#a2a2a2"/>
    </g>
    <g id="Group_1921" data-name="Group 1921" transform="translate(1491.76 5055.027)" opacity="0.2">
      <rect id="Rectangle_656" data-name="Rectangle 656" width="7.32" height="3.335" fill="#a2a2a2"/>
    </g>
    <g id="Group_1922" data-name="Group 1922" transform="translate(1504.652 5055.027)" opacity="0.2">
      <rect id="Rectangle_657" data-name="Rectangle 657" width="7.32" height="3.335" fill="#a2a2a2"/>
    </g>
    <g id="Group_1923" data-name="Group 1923" transform="translate(1517.549 5055.027)" opacity="0.2">
      <rect id="Rectangle_658" data-name="Rectangle 658" width="7.32" height="3.335" fill="#a2a2a2"/>
    </g>
    <g id="Group_1924" data-name="Group 1924" transform="translate(1530.444 5055.027)" opacity="0.2">
      <rect id="Rectangle_659" data-name="Rectangle 659" width="7.32" height="3.335" fill="#a2a2a2"/>
    </g>
    <rect id="Rectangle_660" data-name="Rectangle 660" width="11.115" height="3.335" transform="translate(1500.127 4911.776)" fill="#f6f7f9"/>
    <rect id="Rectangle_661" data-name="Rectangle 661" width="7.32" height="20.899" transform="translate(1427.284 5030.793)" fill="#a2a2a2"/>
    <rect id="Rectangle_662" data-name="Rectangle 662" width="7.32" height="30.57" transform="translate(1440.181 5021.122)" fill="#a2a2a2"/>
    <rect id="Rectangle_663" data-name="Rectangle 663" width="7.32" height="38.684" transform="translate(1453.076 5013.008)" fill="#a2a2a2"/>
    <rect id="Rectangle_664" data-name="Rectangle 664" width="7.32" height="34.476" transform="translate(1465.969 5017.213)" fill="#a2a2a2"/>
    <rect id="Rectangle_665" data-name="Rectangle 665" width="7.32" height="41.796" transform="translate(1478.864 5009.897)" fill="#a2a2a2"/>
    <g id="Group_1925" data-name="Group 1925" transform="translate(1491.76 5025.904)" opacity="0.2">
      <rect id="Rectangle_666" data-name="Rectangle 666" width="7.32" height="25.788" fill="#a2a2a2"/>
    </g>
    <g id="Group_1926" data-name="Group 1926" transform="translate(1504.652 5025.904)" opacity="0.2">
      <rect id="Rectangle_667" data-name="Rectangle 667" width="7.32" height="25.788" fill="#a2a2a2"/>
    </g>
    <g id="Group_1927" data-name="Group 1927" transform="translate(1517.549 5025.904)" opacity="0.2">
      <rect id="Rectangle_668" data-name="Rectangle 668" width="7.32" height="25.788" fill="#a2a2a2"/>
    </g>
    <g id="Group_1928" data-name="Group 1928" transform="translate(1530.444 5025.904)" opacity="0.2">
      <rect id="Rectangle_669" data-name="Rectangle 669" width="7.32" height="25.788" fill="#a2a2a2"/>
    </g>
    <path id="Path_4008" data-name="Path 4008" d="M879.26,795s1.287,2.264,5.949.27" transform="translate(716.11 4301.279)" opacity="0.1"/>
    <path id="Path_4015" data-name="Path 4015" d="M205.644,776.434c0,.844-.093,1.527-.21,1.527s-.213-.684-.213-1.527.12-.444.237-.444S205.644,775.6,205.644,776.434Z" transform="translate(1165.369 4314.013)" fill="#ffd037"/>
    <path id="Path_4016" data-name="Path 4016" d="M207.106,779.378c-.74.4-1.387.647-1.444.547s.5-.514,1.241-.917.447-.11.5,0S207.846,778.974,207.106,779.378Z" transform="translate(1165.077 4312.076)" fill="#ffd037"/>
  </g>
</svg>
