<svg xmlns="http://www.w3.org/2000/svg" width="1087.66" height="948.542" viewBox="0 0 1087.66 948.542">
  <g id="Group_2853" data-name="Group 2853" transform="translate(-468.34 -1583)">
    <g id="Background_Complete" data-name="Background Complete" transform="translate(468.34 1721)">
      <g id="Group_223" data-name="Group 223">
        <rect id="Rectangle_98" data-name="Rectangle 98" width="1087.66" height="0.544" transform="translate(0 712.299)" fill="#ebebeb"/>
        <rect id="Rectangle_99" data-name="Rectangle 99" width="72.051" height="0.544" transform="translate(906.628 747.313)" fill="#ebebeb"/>
        <rect id="Rectangle_100" data-name="Rectangle 100" width="18.911" height="0.544" transform="translate(701.599 753.216)" fill="#ebebeb"/>
        <rect id="Rectangle_101" data-name="Rectangle 101" width="41.75" height="0.544" transform="translate(862.701 727.112)" fill="#ebebeb"/>
        <rect id="Rectangle_102" data-name="Rectangle 102" width="93.959" height="0.544" transform="translate(114.115 730.767)" fill="#ebebeb"/>
        <rect id="Rectangle_103" data-name="Rectangle 103" width="13.776" height="0.544" transform="translate(227.442 730.767)" fill="#ebebeb"/>
        <rect id="Rectangle_104" data-name="Rectangle 104" width="203.775" height="0.544" transform="translate(285.992 739.952)" fill="#ebebeb"/>
        <path id="Path_703" data-name="Path 703" d="M470.676,670.236H50.624a12.432,12.432,0,0,1-12.417-12.417V67.368A12.43,12.43,0,0,1,50.624,54.953H470.676A12.43,12.43,0,0,1,483.09,67.368V657.819A12.431,12.431,0,0,1,470.676,670.236ZM50.624,55.5A11.885,11.885,0,0,0,38.751,67.368V657.819a11.885,11.885,0,0,0,11.873,11.873H470.676a11.885,11.885,0,0,0,11.871-11.873V67.368A11.884,11.884,0,0,0,470.676,55.5Z" transform="translate(44.905 -54.953)" fill="#ebebeb"/>
        <path id="Path_704" data-name="Path 704" d="M686.97,670.236H266.92a12.43,12.43,0,0,1-12.415-12.417V67.368A12.428,12.428,0,0,1,266.92,54.953H686.97a12.43,12.43,0,0,1,12.419,12.415V657.819A12.432,12.432,0,0,1,686.97,670.236ZM266.92,55.5a11.884,11.884,0,0,0-11.871,11.871V657.819a11.885,11.885,0,0,0,11.871,11.873H686.97a11.887,11.887,0,0,0,11.875-11.873V67.368A11.887,11.887,0,0,0,686.97,55.5Z" transform="translate(299.125 -54.953)" fill="#ebebeb"/>
      </g>
    </g>
    <g id="Shadow" transform="translate(590.399 2482.279)">
      <ellipse id="_Path_" data-name="&lt;Path&gt;" cx="421.771" cy="24.632" rx="421.771" ry="24.632" fill="#f5f5f5"/>
    </g>
    <g id="Graphics" transform="translate(605.694 1855.042)">
      <g id="Group_259" data-name="Group 259" transform="translate(0 0)">
        <g id="Group_248" data-name="Group 248" transform="translate(0 49.313)">
          <g id="Group_246" data-name="Group 246" transform="translate(0 0)">
            <circle id="Ellipse_71" data-name="Ellipse 71" cx="102.083" cy="102.083" r="102.083" transform="matrix(0.16, -0.987, 0.987, 0.16, 0, 201.529)" fill="#bebebe"/>
          </g>
          <g id="Group_247" data-name="Group 247" transform="translate(61.924 80.746)">
            <path id="Path_728" data-name="Path 728" d="M91.609,211.023q0-19.265,6.937-26.963t21.133-7.7a31.591,31.591,0,0,1,11.2,1.684,20.7,20.7,0,0,1,7.144,4.379,23.339,23.339,0,0,1,4.357,5.669,29.522,29.522,0,0,1,2.556,6.935,64.688,64.688,0,0,1,1.89,15.765q0,18.39-6.221,26.915t-21.431,8.527q-8.529,0-13.783-2.719a22.31,22.31,0,0,1-8.619-7.973,30.053,30.053,0,0,1-3.8-10.211A69.7,69.7,0,0,1,91.609,211.023Zm18.621.046q0,12.905,2.282,17.629t6.613,4.725a6.928,6.928,0,0,0,4.955-2.006,12.41,12.41,0,0,0,3.087-6.337,66.3,66.3,0,0,0,.992-13.5q0-13.457-2.282-18.09t-6.844-4.633q-4.656,0-6.73,4.725T110.23,211.068Z" transform="translate(-91.609 -176.361)" fill="#fafafa"/>
            <path id="Path_729" data-name="Path 729" d="M161.026,176.361v68.721H142.038V200.052a57.686,57.686,0,0,1-8.919,5.669,69.561,69.561,0,0,1-10.809,4.148V194.475q9.587-3.087,14.888-7.42a30.3,30.3,0,0,0,8.3-10.694Z" transform="translate(-55.526 -176.361)" fill="#fafafa"/>
          </g>
        </g>
        <g id="Group_251" data-name="Group 251" transform="translate(198.484 43.631)">
          <g id="Group_249" data-name="Group 249" transform="translate(0 0)">
            <circle id="Ellipse_73" data-name="Ellipse 73" cx="102.083" cy="102.083" r="102.083" transform="translate(0 198.704) rotate(-76.717)" fill="#bebebe"/>
          </g>
          <g id="Group_250" data-name="Group 250" transform="translate(63.394 86.428)">
            <path id="Path_730" data-name="Path 730" d="M183.528,211.023q0-19.265,6.937-26.963t21.131-7.7a31.582,31.582,0,0,1,11.2,1.684,20.731,20.731,0,0,1,7.146,4.379,23.328,23.328,0,0,1,4.355,5.669,29.619,29.619,0,0,1,2.558,6.935,64.8,64.8,0,0,1,1.888,15.765q0,18.39-6.221,26.915t-21.431,8.527q-8.529,0-13.781-2.719a22.279,22.279,0,0,1-8.619-7.973,30.008,30.008,0,0,1-3.8-10.211A69.7,69.7,0,0,1,183.528,211.023Zm18.621.046q0,12.905,2.28,17.629t6.613,4.725A6.928,6.928,0,0,0,216,231.416a12.428,12.428,0,0,0,3.089-6.337,66.493,66.493,0,0,0,.99-13.5q0-13.457-2.282-18.09t-6.841-4.633q-4.66,0-6.73,4.725T202.149,211.068Z" transform="translate(-183.528 -176.361)" fill="#fafafa"/>
            <path id="Path_731" data-name="Path 731" d="M268.156,245.082H211.835a35.291,35.291,0,0,1,5.876-15.693q4.911-7.352,18.414-17.353,8.249-6.131,10.555-9.31a10.433,10.433,0,0,0,2.3-6.039,7.051,7.051,0,0,0-2.28-5.277,8.7,8.7,0,0,0-11.616.07q-2.281,2.258-3.065,7.973l-18.806-1.521q1.106-7.926,4.057-12.375a18.806,18.806,0,0,1,8.318-6.82q5.371-2.375,14.864-2.375,9.91,0,15.419,2.26a18.778,18.778,0,0,1,8.664,6.935,18.337,18.337,0,0,1,3.156,10.487,21.466,21.466,0,0,1-3.618,11.8q-3.619,5.622-13.158,12.351-5.668,3.919-7.581,5.484t-4.494,4.1h29.312Z" transform="translate(-150.258 -176.361)" fill="#fafafa"/>
          </g>
        </g>
        <g id="Group_254" data-name="Group 254" transform="translate(411.281)">
          <g id="Group_252" data-name="Group 252" transform="translate(0)">
            <circle id="Ellipse_75" data-name="Ellipse 75" cx="102.083" cy="102.083" r="102.083" transform="translate(0 10.245) rotate(-2.876)" fill="#bebebe"/>
            <path id="Path_5060" data-name="Path 5060" d="M0,102.083Z" transform="translate(0 10.245) rotate(-2.876)" fill="#bebebe" opacity="0.7"/>
          </g>
          <g id="Group_253" data-name="Group 253" transform="translate(49.979 57.01)">
            <path id="Path_732" data-name="Path 732" d="M280.167,199.386q-7.342-17.809-3.863-27.572t16.6-15.169a31.629,31.629,0,0,1,11-2.715,20.742,20.742,0,0,1,8.273,1.327,23.259,23.259,0,0,1,6.187,3.581,29.542,29.542,0,0,1,5.01,5.438,64.788,64.788,0,0,1,7.755,13.852q7.009,17,4.505,27.257T319.07,221.437q-7.887,3.25-13.779,2.739a22.308,22.308,0,0,1-11.007-4.087,30.046,30.046,0,0,1-7.407-7.99A69.706,69.706,0,0,1,280.167,199.386Zm17.233-7.055q4.917,11.933,8.827,15.43t7.916,1.847a6.92,6.92,0,0,0,3.815-3.742,12.419,12.419,0,0,0,.439-7.035,66.191,66.191,0,0,0-4.231-12.863q-5.126-12.442-9-15.856t-8.092-1.675q-4.3,1.775-4.42,6.933T297.4,192.331Z" transform="translate(-275.185 -129.685)" fill="#fafafa"/>
            <path id="Path_733" data-name="Path 733" d="M319.187,168.636l-17.618,3.824a22.276,22.276,0,0,1,2.908-15.258q4.1-6.575,14.746-10.966,12.23-5.041,19.565-2.73a15.484,15.484,0,0,1,10.178,9.215,13.849,13.849,0,0,1,.807,8.242,20.372,20.372,0,0,1-4.32,8.51,21.38,21.38,0,0,1,6.4-.2,14.628,14.628,0,0,1,6.917,3.056,16.533,16.533,0,0,1,4.808,6.767,22.49,22.49,0,0,1,1.457,11.638,20.678,20.678,0,0,1-5.045,11.1q-4.252,4.917-12.989,8.519-8.523,3.514-14.27,3.541a21.693,21.693,0,0,1-10.511-2.523,29.094,29.094,0,0,1-8.875-7.681l16.4-9.452q3.181,4.819,6.169,5.956a8.3,8.3,0,0,0,6.311-.233,8.145,8.145,0,0,0,4.762-4.953,10.552,10.552,0,0,0-.487-7.777q-1.791-4.346-5.012-5.81a8.581,8.581,0,0,0-7.057.117,23.7,23.7,0,0,0-5.2,3.341l-4.218-12.769a17.565,17.565,0,0,0,2.347-.718,8.566,8.566,0,0,0,4.792-4.518,7.448,7.448,0,0,0,.155-6.1,6.66,6.66,0,0,0-3.585-3.857,6.846,6.846,0,0,0-5.388.228,7.432,7.432,0,0,0-4.222,3.909Q317.955,163.711,319.187,168.636Z" transform="translate(-244.488 -142.78)" fill="#fafafa"/>
          </g>
        </g>
        <g id="Group_257" data-name="Group 257" transform="translate(606.823 43.632)">
          <g id="Group_255" data-name="Group 255" transform="translate(0 0)">
            <path id="Path_5061" data-name="Path 5061" d="M102.083,0A102.083,102.083,0,1,1,0,102.083,102.083,102.083,0,0,1,102.083,0Z" transform="translate(0 198.704) rotate(-76.717)" fill="#bebebe"/>
          </g>
          <g id="Group_256" data-name="Group 256" transform="translate(61.426 86.428)">
            <path id="Path_734" data-name="Path 734" d="M370.338,211.023q0-19.265,6.937-26.963t21.131-7.7a31.6,31.6,0,0,1,11.2,1.684,20.7,20.7,0,0,1,7.144,4.379,23.275,23.275,0,0,1,4.355,5.669,29.427,29.427,0,0,1,2.558,6.935,64.8,64.8,0,0,1,1.89,15.765q0,18.39-6.224,26.915T397.9,246.234q-8.526,0-13.781-2.719a22.309,22.309,0,0,1-8.619-7.973,30.054,30.054,0,0,1-3.8-10.211A69.7,69.7,0,0,1,370.338,211.023Zm18.621.046q0,12.905,2.28,17.629t6.615,4.725a6.929,6.929,0,0,0,4.955-2.006,12.427,12.427,0,0,0,3.087-6.337,66.3,66.3,0,0,0,.992-13.5q0-13.457-2.282-18.09t-6.844-4.633q-4.656,0-6.73,4.725T388.959,211.068Z" transform="translate(-370.338 -176.361)" fill="#fafafa"/>
            <path id="Path_735" data-name="Path 735" d="M432.59,232.454h-34.2v-15.44l34.2-40.652h16.361V217.89h8.482v14.564h-8.482v12.628H432.59Zm0-14.564V196.624L414.52,217.89Z" transform="translate(-337.368 -176.361)" fill="#fafafa"/>
          </g>
        </g>
        <path id="Path_736" data-name="Path 736" d="M790.524,366.419a10.877,10.877,0,0,1,0-21.753,91.206,91.206,0,1,0-91.2-91.207,112.963,112.963,0,0,1-225.927,0v0a91.207,91.207,0,0,0-182.414,0A112.963,112.963,0,1,1,178.013,140.492a10.877,10.877,0,0,1,0,21.753,91.207,91.207,0,1,0,91.213,91.213,112.96,112.96,0,0,1,225.92-.009v0a91.21,91.21,0,0,0,182.42.007,112.959,112.959,0,1,1,112.958,112.96Z" transform="translate(-60.896 -88.459)" fill="#707070"/>
        <g id="Group_258" data-name="Group 258" transform="translate(569.192 219.733)">
          <path id="Path_737" data-name="Path 737" d="M348.687,238.648l-1.69-1.37a119.185,119.185,0,0,0,12.956-19.693l1.927,1.009A121.383,121.383,0,0,1,348.687,238.648Z" transform="translate(-298.714 -217.584)" fill="#407bff"/>
          <path id="Path_738" data-name="Path 738" d="M325.606,257.7l-.8-2.019a118.182,118.182,0,0,0,36.97-23.472l1.486,1.59A120.3,120.3,0,0,1,325.606,257.7Z" transform="translate(-324.801 -200.393)" fill="#407bff"/>
        </g>
      </g>
    </g>
    <path id="Path_4551" data-name="Path 4551" d="M65.35,127.7A62.35,62.35,0,1,0,3,65.35,62.421,62.421,0,0,0,65.35,127.7ZM59.115,9.235h12.47V40.41H59.115ZM43.971,20.277l5.343,11.267a37.407,37.407,0,1,0,32.067-.006l5.343-11.267a49.884,49.884,0,1,1-42.754.006Z" transform="translate(697.654 2173.367)" fill="#efefef"/>
    <text id="Scheduled_manual_Collection_of_Key_data_points" data-name="Scheduled manual
Collection of
Key data points" transform="translate(640 1685)" fill="#707070" font-size="18" font-family="HelveticaNeue, Helvetica Neue"><tspan x="0" y="0">Scheduled manual</tspan><tspan x="0" y="22">Collection of</tspan><tspan x="0" y="44">Key data points</tspan></text>
    <text id="Automated_High_Frequency_Data_Gathering_and_Communication" data-name="Automated High
Frequency Data
Gathering and
Communication" transform="translate(859 1685)" fill="#707070" font-size="18" font-family="HelveticaNeue, Helvetica Neue"><tspan x="0" y="0">Automated High</tspan><tspan x="0" y="22">Frequency Data</tspan><tspan x="0" y="44">Gathering and</tspan><tspan x="0" y="66">Communication</tspan></text>
    <g id="Group_273" data-name="Group 273" transform="translate(2039 2206.804) rotate(180)" style="isolation: isolate">
      <line id="Line_26" data-name="Line 26" y2="87" transform="translate(918 348.804)" fill="none" stroke="#bebebe" stroke-linecap="round" stroke-width="1" stroke-dasharray="4"/>
    </g>
    <text id="Remote_Control_of_Plant_Equipment" data-name="Remote Control
of Plant
Equipment" transform="translate(1059 1685)" fill="#707070" font-size="18" font-family="HelveticaNeue, Helvetica Neue"><tspan x="0" y="0">Remote Control</tspan><tspan x="0" y="22">of Plant</tspan><tspan x="0" y="44">Equipment</tspan></text>
    <text id="Energy_Management_System_to_Optimise_Plant_Technical_Operations" data-name="Energy Management
System to Optimise
Plant Technical
Operations" transform="translate(1255 1685)" fill="#707070" font-size="18" font-family="HelveticaNeue, Helvetica Neue"><tspan x="0" y="0">Energy Management</tspan><tspan x="0" y="22">System to Optimise</tspan><tspan x="0" y="44">Plant Technical</tspan><tspan x="0" y="66">Operations</tspan></text>
    <g id="Group_271" data-name="Group 271" transform="translate(1624 2267.7) rotate(180)" style="isolation: isolate">
      <line id="Line_26-2" data-name="Line 26" y2="148" transform="translate(918 348.7)" fill="none" stroke="#bebebe" stroke-linecap="round" stroke-width="1" stroke-dasharray="4"/>
    </g>
    <g id="Group_272" data-name="Group 272" transform="translate(1839 2267.7) rotate(180)" style="isolation: isolate">
      <line id="Line_26-3" data-name="Line 26" y2="148" transform="translate(918 348.7)" fill="none" stroke="#bebebe" stroke-linecap="round" stroke-width="1" stroke-dasharray="4"/>
    </g>
    <g id="Group_274" data-name="Group 274" transform="translate(2239 2264.7) rotate(180)" style="isolation: isolate">
      <line id="Line_26-4" data-name="Line 26" y2="148" transform="translate(918 348.7)" fill="none" stroke="#bebebe" stroke-linecap="round" stroke-width="1" stroke-dasharray="4"/>
    </g>
    <path id="Path_4545" data-name="Path 4545" d="M41,23V160.171H72.175a6.229,6.229,0,0,1,6.235,6.235v93.526h74.821V23ZM65.94,147.7H53.47v-12.47H65.94Zm0-24.94H53.47v-12.47H65.94Zm0-24.94H53.47V85.35H65.94Zm0-24.94H53.47V60.41H65.94Zm0-24.94H53.47V35.47H65.94Zm37.41-12.47h12.47V47.94H103.35Zm0,24.94h12.47V72.88H103.35Zm0,24.94h12.47v12.47H103.35Zm0,24.94h12.47v12.47H103.35Zm0,24.94h12.47V147.7H103.35Zm0,24.94h12.47v12.47H103.35Zm0,24.94h12.47v12.47H103.35Zm0,24.94h12.47v12.47H103.35ZM90.88,147.7H78.41v-12.47H90.88Zm0-24.94H78.41v-12.47H90.88Zm0-24.94H78.41V85.35H90.88Zm0-24.94H78.41V60.41H90.88Zm0-24.94H78.41V35.47H90.88Zm49.88,193.286a6.229,6.229,0,0,1-6.235,6.235H103.35v-12.47h24.94V35.47h12.47Z" transform="translate(987.586 2255.068)" fill="#efefef"/>
    <path id="Path_4546" data-name="Path 4546" d="M43,18.185V35.737H78.827A71.261,71.261,0,0,0,43,18.185Z" transform="translate(998.056 2229.861)" fill="#efefef"/>
    <path id="Path_4547" data-name="Path 4547" d="M95.8,52.274h27.341A119.272,119.272,0,0,0,43,15.026v7.021l1.447.243A83.62,83.62,0,0,1,95.8,52.274Z" transform="translate(998.056 2213.324)" fill="#efefef"/>
    <path id="Path_4548" data-name="Path 4548" d="M23,134.291H160.171V47H23ZM110.291,59.47h12.47V71.94h-12.47Zm0,24.94h12.47V96.88h-12.47Zm0,24.94h24.94V59.47H147.7v56.115a6.229,6.229,0,0,1-6.235,6.235H110.291ZM85.35,59.47h12.47V71.94H85.35Zm0,24.94h12.47V96.88H85.35Zm0,24.94h12.47v12.47H85.35ZM60.41,59.47H72.88V71.94H60.41Zm0,24.94H72.88V96.88H60.41Zm0,24.94H72.88v12.47H60.41ZM35.47,59.47H47.94V71.94H35.47Zm0,24.94H47.94V96.88H35.47Zm0,24.94H47.94v12.47H35.47Z" transform="translate(893.355 2380.709)" fill="#efefef"/>
    <path id="Path_4549" data-name="Path 4549" d="M87.35,27.868,25,69.437v65.25H87.35ZM49.94,122.217H37.47v-12.47H49.94Zm0-24.94H37.47V84.806H49.94Zm24.94,24.94H62.41v-12.47H74.88Zm0-24.94H62.41V84.806H74.88Zm0-24.94H62.41V59.866H74.88Z" transform="translate(903.825 2280.552)" fill="#efefef"/>
    <path id="Path_4550" data-name="Path 4550" d="M104.246,11.026A119.109,119.109,0,0,0,47.975,28.808a131.95,131.95,0,0,1,56.271,33.912Z" transform="translate(1024.1 2192.384)" fill="#efefef"/>
    <g id="Group_2850" data-name="Group 2850" transform="translate(39 -16)">
      <path id="Path_4554" data-name="Path 4554" d="M50.88,112.291v-13.1a30.934,30.934,0,0,0,10.93-4.564l9.29,9.29L79.917,95.1l-9.29-9.29a30.935,30.935,0,0,0,4.564-10.93h13.1V62.41h-13.1a30.935,30.935,0,0,0-4.564-10.93l9.29-9.29L71.1,33.374l-9.29,9.29A30.935,30.935,0,0,0,50.88,38.1V25H38.41V38.1a30.935,30.935,0,0,0-10.93,4.564l-9.29-9.29L9.374,42.19l9.29,9.29A30.935,30.935,0,0,0,14.1,62.41H1V74.88H14.1a30.934,30.934,0,0,0,4.564,10.93L9.374,95.1l8.816,8.816,9.29-9.29a30.934,30.934,0,0,0,10.93,4.564v13.1ZM25.94,68.645A18.705,18.705,0,1,1,44.645,87.35,18.728,18.728,0,0,1,25.94,68.645Z" transform="translate(778.184 2265.538)" fill="#efefef"/>
      <path id="Path_4555" data-name="Path 4555" d="M7,31H19.47V43.47H7Z" transform="translate(809.594 2296.948)" fill="#efefef"/>
    </g>
    <path id="Path_4556" data-name="Path 4556" d="M55.47,4H43V60.384c4.19.212,8.349.592,12.47,1.2Z" transform="translate(998.056 2155.602)" fill="#efefef"/>
    <path id="Path_4557" data-name="Path 4557" d="M67.47,1H55V52.327c4.128-.6,8.286-.985,12.47-1.185Z" transform="translate(1060.876 2139.897)" fill="#e8f0f0"/>
    <g id="Group_2851" data-name="Group 2851">
      <path id="Path_4552" data-name="Path 4552" d="M18,44H30.47V56.47H18Z" transform="translate(867.18 2365.004)" fill="#efefef"/>
      <path id="Path_4553" data-name="Path 4553" d="M20,50H32.47V62.47H20Z" transform="translate(877.65 2396.414)" fill="#efefef"/>
      <path id="Path_4558" data-name="Path 4558" d="M73.77,140.764a6.233,6.233,0,0,0-4.514-5.125,31.208,31.208,0,0,1-17.19-12.252l5.93.848,1.765-12.345L21.47,106.415v-1.659l38.3-5.468L58,86.943l-5.93.848a31.208,31.208,0,0,1,17.19-12.252,6.241,6.241,0,0,0,4.514-5.125l2.98-20.944h1.659L81.4,70.407a6.231,6.231,0,0,0,4.52,5.125A31.173,31.173,0,0,1,96.291,80.7V66.342c-1.035-.493-2.014-1.11-3.086-1.521L89.993,42.35A6.232,6.232,0,0,0,83.821,37H71.35a6.232,6.232,0,0,0-6.173,5.35L61.967,64.821c-.848.324-1.652.729-2.475,1.1L33.94,55.705,27.705,61.94,37.949,87.554c-.362.8-.754,1.584-1.072,2.4L14.35,93.178A6.232,6.232,0,0,0,9,99.35v12.47a6.232,6.232,0,0,0,5.35,6.173l22.527,3.217c.318.823.711,1.6,1.072,2.4l-10.244,25.62,6.235,6.235,25.551-10.219c.823.374,1.627.779,2.475,1.1l3.211,22.471a6.232,6.232,0,0,0,6.173,5.35h12.47V161.7H76.756Z" transform="translate(820.064 2328.359)" fill="#efefef"/>
    </g>
    <g id="Data_analysis-research-analysis-report-presentation" data-name="Data analysis-research-analysis-report-presentation" transform="translate(681.794 1585)">
      <path id="Path_5062" data-name="Path 5062" d="M33.753,11.041h7.534a.753.753,0,0,0,.753-.753A8.3,8.3,0,0,0,33.753,2,.753.753,0,0,0,33,2.753v7.534A.753.753,0,0,0,33.753,11.041Zm.753-7.493a6.8,6.8,0,0,1,5.986,5.986H34.507Z" transform="translate(-7.644 0)" fill="#707070"/>
      <path id="Path_5063" data-name="Path 5063" d="M48.4,3.507H53.36V2H48.086a.753.753,0,0,0-.533.221l-2.26,2.26,1.065,1.065Z" transform="translate(-10.675 0)" fill="#707070"/>
      <path id="Path_5064" data-name="Path 5064" d="M58,2h3.014V3.507H58Z" transform="translate(-13.808 0)" fill="#707070"/>
      <path id="Path_5065" data-name="Path 5065" d="M15,5.546l1.065-1.065-2.26-2.26A.753.753,0,0,0,13.274,2H8V3.507h4.962Z" transform="translate(-1.479)" fill="#707070"/>
      <path id="Path_5066" data-name="Path 5066" d="M2,2H5.014V3.507H2Z" transform="translate(0 0)" fill="#707070"/>
      <path id="Path_5067" data-name="Path 5067" d="M50,8h6.027V9.507H50Z" transform="translate(-11.835 -1.479)" fill="#707070"/>
      <path id="Path_5068" data-name="Path 5068" d="M60,8h1.507V9.507H60Z" transform="translate(-14.301 -1.479)" fill="#707070"/>
      <path id="Path_5069" data-name="Path 5069" d="M2,8h9.041V9.507H2Z" transform="translate(0 -1.479)" fill="#707070"/>
      <path id="Path_5070" data-name="Path 5070" d="M23.962,35.333H19v1.507h5.274a.753.753,0,0,0,.533-.221l2.26-2.26L26,33.293Z" transform="translate(-4.192 -7.716)" fill="#707070"/>
      <path id="Path_5071" data-name="Path 5071" d="M13,36h3.014v1.507H13Z" transform="translate(-2.712 -8.383)" fill="#707070"/>
      <path id="Path_5072" data-name="Path 5072" d="M13,30h9.041v1.507H13Z" transform="translate(-2.712 -6.904)" fill="#707070"/>
      <path id="Path_5073" data-name="Path 5073" d="M48.932,23.329a9.785,9.785,0,0,0-15.958-7.6,8.244,8.244,0,0,0,.136-1.439.753.753,0,0,0-.753-.753H25.575V6.753A.753.753,0,0,0,24.822,6a8.3,8.3,0,0,0-7.964,6.027H12.767A3.767,3.767,0,0,0,9,15.795V35.384a3.767,3.767,0,0,0,3.767,3.767H23.315v4.521h-2.26a2.267,2.267,0,0,0-2.26,2.26v1.507a.753.753,0,0,0,.753.753H33.11a.753.753,0,0,0,.753-.753V45.932a2.267,2.267,0,0,0-2.26-2.26h-2.26V39.151H35.37v5.274a3.767,3.767,0,1,0,7.534,0V35.384a.753.753,0,0,0-.753-.753H41.4V32.852a9.813,9.813,0,0,0,7.534-9.523ZM24.069,7.552v6.736a.753.753,0,0,0,.753.753h6.736a6.781,6.781,0,1,1-7.489-7.489ZM31.6,45.178a.753.753,0,0,1,.753.753v.753H20.3v-.753a.753.753,0,0,1,.753-.753Zm-6.781-1.507V39.151h3.014v4.521Zm11.3-9.041a.753.753,0,0,0-.753.753v2.26h-22.6a2.267,2.267,0,0,1-2.26-2.26V34.63H33.863V33.123H10.507V15.795a2.267,2.267,0,0,1,2.26-2.26h3.8c-.023.249-.038.5-.038.753a8.279,8.279,0,0,0,13.095,6.743,9.644,9.644,0,0,0-.286,2.3,9.813,9.813,0,0,0,7.534,9.523V34.63ZM41.4,44.425a2.26,2.26,0,0,1-4.521,0V36.137H41.4ZM38.384,34.63V33.086c.249.015.5.038.753.038s.5-.023.753-.038V34.63Zm.753-3.014a8.288,8.288,0,1,1,8.288-8.288A8.288,8.288,0,0,1,39.137,31.617Z" transform="translate(-1.726 -0.986)" fill="#707070"/>
      <path id="Path_5074" data-name="Path 5074" d="M46.781,20a6.781,6.781,0,1,0,6.781,6.781A6.781,6.781,0,0,0,46.781,20Zm0,12.055a5.274,5.274,0,1,1,5.274-5.274,5.274,5.274,0,0,1-5.274,5.274Z" transform="translate(-9.37 -4.438)" fill="#707070"/>
      <path id="Path_5075" data-name="Path 5075" d="M44,27.767h1.507a2.26,2.26,0,0,1,2.26-2.26V24A3.772,3.772,0,0,0,44,27.767Z" transform="translate(-10.356 -5.425)" fill="#707070"/>
      <path id="Path_5076" data-name="Path 5076" d="M48,48h1.507v1.507H48Z" transform="translate(-11.342 -11.342)" fill="#707070"/>
      <path id="Path_5077" data-name="Path 5077" d="M48,52h1.507v4.521H48Z" transform="translate(-11.342 -12.329)" fill="#707070"/>
    </g>
    <g id="green-energy" transform="translate(1282.113 1570.007)">
      <path id="Path_5078" data-name="Path 5078" d="M328,256h1.566v1.566H328Z" transform="translate(-281.559 -216.512)" fill="#707070"/>
      <path id="Path_5079" data-name="Path 5079" d="M328,288h1.566v1.566H328Z" transform="translate(-281.559 -245.379)" fill="#707070"/>
      <path id="Path_5080" data-name="Path 5080" d="M328,320h1.566v1.566H328Z" transform="translate(-281.559 -274.247)" fill="#707070"/>
      <path id="Path_5081" data-name="Path 5081" d="M168,256h1.566v1.566H168Z" transform="translate(-137.222 -216.512)" fill="#707070"/>
      <path id="Path_5082" data-name="Path 5082" d="M168,288h1.566v1.566H168Z" transform="translate(-137.222 -245.379)" fill="#707070"/>
      <path id="Path_5083" data-name="Path 5083" d="M168,320h1.566v1.566H168Z" transform="translate(-137.222 -274.247)" fill="#707070"/>
      <path id="Path_5084" data-name="Path 5084" d="M232,192h1.566v1.566H232Z" transform="translate(-194.957 -158.777)" fill="#707070"/>
      <path id="Path_5085" data-name="Path 5085" d="M248,160h1.566v1.566H248Z" transform="translate(-209.391 -129.91)" fill="#707070"/>
      <path id="Path_5086" data-name="Path 5086" d="M264,192h1.566v1.566H264Z" transform="translate(-223.824 -158.777)" fill="#707070"/>
      <path id="Path_5087" data-name="Path 5087" d="M232,224h1.566v1.566H232Z" transform="translate(-194.957 -187.644)" fill="#707070"/>
      <path id="Path_5088" data-name="Path 5088" d="M264,224h1.566v1.566H264Z" transform="translate(-223.824 -187.644)" fill="#707070"/>
      <path id="Path_5089" data-name="Path 5089" d="M232,256h1.566v1.566H232Z" transform="translate(-194.957 -216.512)" fill="#707070"/>
      <path id="Path_5090" data-name="Path 5090" d="M264,256h1.566v1.566H264Z" transform="translate(-223.824 -216.512)" fill="#707070"/>
      <path id="Path_5091" data-name="Path 5091" d="M232,288h1.566v1.566H232Z" transform="translate(-194.957 -245.379)" fill="#707070"/>
      <path id="Path_5092" data-name="Path 5092" d="M264,288h1.566v1.566H264Z" transform="translate(-223.824 -245.379)" fill="#707070"/>
      <path id="Path_5093" data-name="Path 5093" d="M232,320h1.566v1.566H232Z" transform="translate(-194.957 -274.247)" fill="#707070"/>
      <path id="Path_5094" data-name="Path 5094" d="M264,320h1.566v1.566H264Z" transform="translate(-223.824 -274.247)" fill="#707070"/>
      <path id="Path_5095" data-name="Path 5095" d="M196.047,41.566a19.566,19.566,0,0,1,6.024.944l.481-1.49a21.257,21.257,0,0,0-13.012,0l.481,1.49A19.566,19.566,0,0,1,196.047,41.566Z" transform="translate(-156.654 -21.657)" fill="#707070"/>
      <path id="Path_5096" data-name="Path 5096" d="M41.02,189.541a21.259,21.259,0,0,0,0,13.012l1.491-.481a19.692,19.692,0,0,1,0-12.049Z" transform="translate(-21.752 -156.559)" fill="#707070"/>
      <path id="Path_5097" data-name="Path 5097" d="M196.047,447.3a19.565,19.565,0,0,1-6.024-.944l-.481,1.49a21.257,21.257,0,0,0,13.012,0l-.481-1.49a19.565,19.565,0,0,1-6.024.944Z" transform="translate(-156.654 -388.232)" fill="#707070"/>
      <path id="Path_5098" data-name="Path 5098" d="M447.845,202.553a21.259,21.259,0,0,0,0-13.012l-1.491.481a19.692,19.692,0,0,1,0,12.049Z" transform="translate(-388.328 -156.559)" fill="#707070"/>
      <path id="Path_5099" data-name="Path 5099" d="M24.614,33.223a8.615,8.615,0,1,0-6.892-13.785l1.253.941a7.016,7.016,0,1,1-.7,1.154l-1.41-.685A8.534,8.534,0,0,0,16,24.608a8.624,8.624,0,0,0,8.615,8.615Z" transform="translate(-0.102)" fill="#707070"/>
      <path id="Path_5100" data-name="Path 5100" d="M328.615,33.229A8.615,8.615,0,1,0,320,24.615,8.615,8.615,0,0,0,328.615,33.229Zm0-15.663a7.048,7.048,0,1,1-7.048,7.048A7.048,7.048,0,0,1,328.615,17.566Z" transform="translate(-274.342 -0.006)" fill="#707070"/>
      <path id="Path_5101" data-name="Path 5101" d="M54.272,132.361a8.573,8.573,0,0,0-3.133.589V124.53a.783.783,0,0,0-.368-.664l-5.9-3.686V116.7a.783.783,0,0,0-.282-.6l-4.7-3.916a.783.783,0,0,0-1,0l-4.7,3.916a.783.783,0,0,0-.282.6v3.482l-5.9,3.686a.783.783,0,0,0-.368.664v8.421a8.62,8.62,0,1,0,4.54,4.109H46.6a8.615,8.615,0,0,0,15.134,8.224l-1.356-.784a7.011,7.011,0,1,1,.62-1.409l1.494.47a8.621,8.621,0,0,0-8.22-11.2Zm-29.76,15.663a7.048,7.048,0,1,1,7.048-7.048A7.048,7.048,0,0,1,24.513,148.024Zm4.7-14.266v-8.795l4.7-2.937v13.467H31.153A8.684,8.684,0,0,0,29.212,133.758Zm6.265-16.693,3.916-3.263,3.916,3.263v18.429H35.477Zm12.155,18.429H44.874V122.027l4.7,2.937v8.795A8.684,8.684,0,0,0,47.632,135.494Z" transform="translate(0 -86.608)" fill="#707070"/>
      <path id="Path_5102" data-name="Path 5102" d="M74.461,59.884,72.112,63.8a.783.783,0,0,0,.672,1.186h2.533l-1.638,2.73,1.343.806,2.349-3.916A.783.783,0,0,0,76.7,63.42H74.166L75.8,60.69Z" transform="translate(-50.62 -39.594)" fill="#707070"/>
      <path id="Path_5103" data-name="Path 5103" d="M371.451,71.6l1.468-1.469a4.7,4.7,0,0,0,5.809-4.567,4.772,4.772,0,0,0-.035-.562.783.783,0,0,0-.47-.627A4.7,4.7,0,0,0,371.68,68.7c0,.142.007.288.021.437l-1.358,1.358Zm4.928-6.036a3.127,3.127,0,0,1,.782.1,3.136,3.136,0,0,1-3.913,2.937A3.136,3.136,0,0,1,376.379,65.566Z" transform="translate(-319.757 -43.307)" fill="#707070"/>
      <path id="Path_5104" data-name="Path 5104" d="M96,432h1.566v1.566H96Z" transform="translate(-72.27 -375.283)" fill="#707070"/>
      <path id="Path_5105" data-name="Path 5105" d="M75.353,400.894l.91,1.275a3.281,3.281,0,0,1,3.789,0l.909-1.275A4.847,4.847,0,0,0,75.353,400.894Z" transform="translate(-53.645 -346.415)" fill="#707070"/>
      <path id="Path_5106" data-name="Path 5106" d="M50.7,369.973l1.038,1.173a6.319,6.319,0,0,1,8.36,0l1.038-1.173A7.885,7.885,0,0,0,50.7,369.973Z" transform="translate(-31.405 -317.548)" fill="#707070"/>
      <path id="Path_5107" data-name="Path 5107" d="M419.8,408.317a.783.783,0,0,0,.034-.762l-1.566-3.133-1.4.7,1,2H416v1.566h3.133A.783.783,0,0,0,419.8,408.317Z" transform="translate(-360.945 -350.404)" fill="#707070"/>
      <path id="Path_5108" data-name="Path 5108" d="M361.649,404.422l-1.566,3.133a.783.783,0,0,0,.7,1.133h3.133v-1.566h-1.865l1-2Z" transform="translate(-310.427 -350.404)" fill="#707070"/>
      <path id="Path_5109" data-name="Path 5109" d="M387.978,356.267a.783.783,0,0,0,1.254.2L390.8,354.9,389.69,353.8l-.8.8-1.08-2.161a.783.783,0,0,0-1.4,0l-1.566,3.133,1.4.7.866-1.732Z" transform="translate(-332.84 -303.115)" fill="#707070"/>
    </g>
    <g id="outline" transform="translate(1095 1584)">
      <path id="Path_5110" data-name="Path 5110" d="M2.8,55.908H23.517a.8.8,0,0,0,.8-.8V36.782a.8.8,0,0,0-.511-.744l-10.36-3.985a.813.813,0,0,0-.572,0L2.511,36.037A.8.8,0,0,0,2,36.782v18.33A.8.8,0,0,0,2.8,55.908Zm.8-18.579,9.563-3.679,9.563,3.679V40.4l-9.277-3.569a.8.8,0,0,0-.572,0L3.594,40.4Zm0,4.782,9.563-3.679,9.563,3.679v12.2H3.594Z" transform="translate(0 -6.092)" fill="#707070"/>
      <path id="Path_5111" data-name="Path 5111" d="M24.376,47.188a3.188,3.188,0,1,0-3.188,3.188A3.188,3.188,0,0,0,24.376,47.188Zm-3.188,1.594a1.594,1.594,0,1,1,1.594-1.594A1.594,1.594,0,0,1,21.188,48.782Z" transform="translate(-3.249 -8.528)" fill="#707070"/>
      <path id="Path_5112" data-name="Path 5112" d="M18,53.594v2.391a.8.8,0,0,0,.8.8h4.782a.8.8,0,0,0,.8-.8V53.594A1.594,1.594,0,0,0,22.782,52H19.594A1.594,1.594,0,0,0,18,53.594Zm4.782,0v1.594H19.594V53.594Z" transform="translate(-3.249 -10.153)" fill="#707070"/>
      <path id="Path_5113" data-name="Path 5113" d="M13.172,46H6.8a.8.8,0,0,0-.8.8v4.782a.8.8,0,0,0,.8.8H8.168l-.55,2.2a.8.8,0,0,0,.773.99h3.188a.8.8,0,0,0,.773-.99l-.55-2.2h1.371a.8.8,0,0,0,.8-.8V46.8A.8.8,0,0,0,13.172,46ZM9.412,53.969l.4-1.594h.349l.4,1.594Zm2.964-3.188H7.594V47.594h4.782Z" transform="translate(-0.812 -8.934)" fill="#707070"/>
      <path id="Path_5114" data-name="Path 5114" d="M53.173,46H46.8a.8.8,0,0,0-.8.8v4.782a.8.8,0,0,0,.8.8h1.371l-.55,2.2a.8.8,0,0,0,.773.99h3.188a.8.8,0,0,0,.773-.99l-.55-2.2h1.371a.8.8,0,0,0,.8-.8V46.8A.8.8,0,0,0,53.173,46Zm-3.761,7.969.4-1.594h.349l.4,1.594Zm2.964-3.188H47.594V47.594h4.782Z" transform="translate(-8.934 -8.934)" fill="#707070"/>
      <path id="Path_5115" data-name="Path 5115" d="M21,10.766A8.766,8.766,0,1,0,29.766,2,8.766,8.766,0,0,0,21,10.766ZM27.69,3.9a13.819,13.819,0,0,0-2.1,3.677H23.343A7.205,7.205,0,0,1,27.69,3.9Zm-5.1,6.865a7.149,7.149,0,0,1,.186-1.594h2.365a8.169,8.169,0,0,0,0,3.188H22.78a7.15,7.15,0,0,1-.186-1.594Zm.749,3.188h2.243a13.819,13.819,0,0,0,2.1,3.677,7.205,7.205,0,0,1-4.347-3.677Zm5.626,2.716a12.891,12.891,0,0,1-1.658-2.716h1.658Zm0-4.31h-2.2a6.656,6.656,0,0,1,0-3.188h2.2Zm0-4.782H27.311a12.891,12.891,0,0,1,1.658-2.716Zm2.874,10.053a13.819,13.819,0,0,0,2.1-3.677H36.19a7.205,7.205,0,0,1-4.347,3.677Zm5.1-6.865a7.149,7.149,0,0,1-.186,1.594H34.389a8.17,8.17,0,0,0,0-3.188h2.362A7.149,7.149,0,0,1,36.939,10.766ZM36.19,7.579H33.946a13.819,13.819,0,0,0-2.1-3.677A7.205,7.205,0,0,1,36.19,7.579ZM30.563,4.863a12.891,12.891,0,0,1,1.658,2.716H30.563Zm0,4.31h2.2a6.656,6.656,0,0,1,0,3.188h-2.2Zm0,4.782h1.658a12.891,12.891,0,0,1-1.658,2.716Z" transform="translate(-3.858)" fill="#707070"/>
      <path id="Path_5116" data-name="Path 5116" d="M55.111,26H39.173a.8.8,0,0,0-.8.8V40.345H32.8a.8.8,0,0,0-.8.8V53.893a.8.8,0,0,0,.8.8H55.111a.8.8,0,0,0,.8-.8V26.8A.8.8,0,0,0,55.111,26ZM38.376,53.1H33.594V41.939h4.782Zm15.939,0H39.969v-25.5H54.314Z" transform="translate(-6.092 -4.873)" fill="#707070"/>
      <rect id="Rectangle_920" data-name="Rectangle 920" width="2" height="1" transform="translate(29 38.817)" fill="#707070"/>
      <rect id="Rectangle_921" data-name="Rectangle 921" width="2" height="2" transform="translate(29 41.817)" fill="#707070"/>
      <rect id="Rectangle_922" data-name="Rectangle 922" width="2" height="2" transform="translate(29 44.817)" fill="#707070"/>
      <path id="Path_5117" data-name="Path 5117" d="M44.8,34.782h3.188a.8.8,0,0,0,.8-.8V30.8a.8.8,0,0,0-.8-.8H44.8a.8.8,0,0,0-.8.8v3.188A.8.8,0,0,0,44.8,34.782Zm.8-3.188h1.594v1.594H45.594Z" transform="translate(-8.528 -5.686)" fill="#707070"/>
      <path id="Path_5118" data-name="Path 5118" d="M52.8,34.782h3.188a.8.8,0,0,0,.8-.8V30.8a.8.8,0,0,0-.8-.8H52.8a.8.8,0,0,0-.8.8v3.188A.8.8,0,0,0,52.8,34.782Zm.8-3.188h1.594v1.594H53.594Z" transform="translate(-10.153 -5.686)" fill="#707070"/>
      <path id="Path_5119" data-name="Path 5119" d="M44.8,42.782h3.188a.8.8,0,0,0,.8-.8V38.8a.8.8,0,0,0-.8-.8H44.8a.8.8,0,0,0-.8.8v3.188A.8.8,0,0,0,44.8,42.782Zm.8-3.188h1.594v1.594H45.594Z" transform="translate(-8.528 -7.31)" fill="#707070"/>
      <path id="Path_5120" data-name="Path 5120" d="M52.8,42.782h3.188a.8.8,0,0,0,.8-.8V38.8a.8.8,0,0,0-.8-.8H52.8a.8.8,0,0,0-.8.8v3.188A.8.8,0,0,0,52.8,42.782Zm.8-3.188h1.594v1.594H53.594Z" transform="translate(-10.153 -7.31)" fill="#707070"/>
      <path id="Path_5121" data-name="Path 5121" d="M49.782,12H45v1.594h3.985v5.249l-1.031-1.031-1.127,1.127,2.391,2.391a.8.8,0,0,0,1.127,0l2.391-2.391-1.127-1.127-1.03,1.031V12.8A.8.8,0,0,0,49.782,12Z" transform="translate(-8.731 -2.031)" fill="#707070"/>
      <path id="Path_5122" data-name="Path 5122" d="M15,12.8V26.345h1.594V13.594h1.594V12H15.8A.8.8,0,0,0,15,12.8Z" transform="translate(-2.64 -2.031)" fill="#707070"/>
    </g>
    <g id="Group_2852" data-name="Group 2852" transform="translate(3.994 -11.878)">
      <path id="Path_5124" data-name="Path 5124" d="M144,438h33.387v1.669H144Z" transform="translate(762.072 1202.577)" fill="#dce1e7"/>
      <path id="Path_5125" data-name="Path 5125" d="M384,86h8.347v1.669H384Z" transform="translate(547.112 1517.851)" fill="#dce1e7"/>
      <path id="Path_5126" data-name="Path 5126" d="M392.347,14.347H384V6" transform="translate(547.112 1589.504)" fill="#bebebe"/>
      <path id="Path_5127" data-name="Path 5127" d="M192,150h3.339v3.339H192Z" transform="translate(719.08 1460.528)" fill="#bebebe"/>
      <path id="Path_5128" data-name="Path 5128" d="M192,230h3.339v3.339H192Z" transform="translate(719.08 1388.875)" fill="#bebebe"/>
      <ellipse id="Ellipse_428" data-name="Ellipse 428" cx="10.5" cy="10" rx="10.5" ry="10" transform="translate(896.006 1627.634)" fill="#bebebe"/>
      <path id="Path_5129" data-name="Path 5129" d="M58.017,411.181A10.016,10.016,0,0,1,48.036,402c-.023.275-.035.553-.035.835a10.016,10.016,0,1,0,20.032,0c0-.281-.012-.559-.035-.835A10.017,10.017,0,0,1,58.017,411.181Z" transform="translate(848.055 1234.821)" fill="#95a4b6"/>
      <circle id="Ellipse_429" data-name="Ellipse 429" cx="3.5" cy="3.5" r="3.5" transform="translate(903.006 1633.634)" fill="#fff"/>
      <path id="Path_5130" data-name="Path 5130" d="M89.954,442a6.679,6.679,0,0,0-6.3,4.451,10.015,10.015,0,0,0,12.591,0A6.679,6.679,0,0,0,89.954,442Z" transform="translate(816.118 1198.994)" fill="#fff"/>
      <path id="Path_5131" data-name="Path 5131" d="M90.422,476.31q.193-.009.383-.025l.071-.006c.129-.012.257-.026.384-.042l.042-.006q.193-.026.384-.059l.022,0c.129-.023.258-.049.386-.077l.054-.012q.188-.042.374-.091l.046-.012q.393-.106.773-.242l.016-.006q.188-.068.373-.143l.031-.013q.186-.076.368-.16l.009,0q.377-.174.737-.377l0,0q.179-.1.354-.21l.007,0a10.052,10.052,0,0,0,1.012-.72,6.649,6.649,0,0,0-.584-1.231,10.017,10.017,0,0,1-11.423,0,6.648,6.648,0,0,0-.584,1.231,10.061,10.061,0,0,0,1.012.72l.007,0q.175.109.354.21l0,0q.36.2.737.377l.009,0q.182.084.368.16l.031.013q.185.075.373.143l.016.006q.38.136.773.242l.046.012q.186.049.374.091l.054.012c.128.028.256.054.386.077l.022,0q.19.033.384.059l.042.006c.127.017.255.03.384.042l.071.006q.191.016.383.025l.063,0c.134.005.269.009.405.009s.271,0,.405-.009Z" transform="translate(816.118 1171.35)" fill="#dce1e7"/>
      <path id="Path_5132" data-name="Path 5132" d="M77.942,0H52.016V32.154a10.642,10.642,0,1,0,9.9,15.84h24.74V8.713Zm.367,2.137,6.209,6.209H78.308ZM52.642,52.167A9.339,9.339,0,0,1,47.1,50.354a6.053,6.053,0,0,1,11.079,0A9.339,9.339,0,0,1,52.642,52.167Zm-2.713-9.39a2.713,2.713,0,1,1,2.713,2.713A2.716,2.716,0,0,1,49.929,42.777Zm9.242,6.741a7.282,7.282,0,0,0-4.1-3.613,3.965,3.965,0,1,0-4.864,0,7.281,7.281,0,0,0-4.1,3.613,9.39,9.39,0,1,1,13.059,0ZM85.4,46.742H62.518a10.641,10.641,0,0,0-9.25-14.588V1.252H77.056V9.6H85.4Z" transform="translate(853.43 1594.878)" fill="#707070"/>
      <path id="Path_5133" data-name="Path 5133" d="M192,64h16.693v1.252H192Z" transform="translate(719.08 1537.556)" fill="#707070"/>
      <path id="Path_5134" data-name="Path 5134" d="M192,96h13.355v1.252H192Z" transform="translate(719.08 1508.894)" fill="#707070"/>
      <path id="Path_5135" data-name="Path 5135" d="M186,148.591h4.591V144H186Zm1.252-3.339h2.087v2.087h-2.087Z" transform="translate(724.454 1465.902)" fill="#707070"/>
      <path id="Path_5136" data-name="Path 5136" d="M256,176h13.355v1.252H256Z" transform="translate(661.757 1437.241)" fill="#707070"/>
      <path id="Path_5137" data-name="Path 5137" d="M256,144h16.693v1.252H256Z" transform="translate(661.757 1465.902)" fill="#707070"/>
      <path id="Path_5138" data-name="Path 5138" d="M186,228.591h4.591V224H186Zm1.252-3.339h2.087v2.087h-2.087Z" transform="translate(724.454 1394.249)" fill="#707070"/>
      <path id="Path_5139" data-name="Path 5139" d="M256,256h13.355v1.252H256Z" transform="translate(661.757 1365.588)" fill="#707070"/>
      <path id="Path_5140" data-name="Path 5140" d="M256,224h16.693v1.252H256Z" transform="translate(661.757 1394.249)" fill="#707070"/>
      <path id="Path_5141" data-name="Path 5141" d="M256,336h13.355v1.252H256Z" transform="translate(661.757 1293.934)" fill="#707070"/>
      <path id="Path_5142" data-name="Path 5142" d="M256,304h16.693v1.252H256Z" transform="translate(661.757 1322.596)" fill="#707070"/>
    </g>
  </g>
</svg>
