<svg xmlns="http://www.w3.org/2000/svg" xmlns:xlink="http://www.w3.org/1999/xlink" width="472.634" height="315.279" viewBox="0 0 472.634 315.279">
  <defs>
    <linearGradient id="linear-gradient" x1="0.5" y1="1" x2="0.5" gradientUnits="objectBoundingBox">
      <stop offset="0" stop-color="gray" stop-opacity="0.251"/>
      <stop offset="0.54" stop-color="gray" stop-opacity="0.122"/>
      <stop offset="1" stop-color="gray" stop-opacity="0.102"/>
    </linearGradient>
  </defs>
  <g id="Group_4" data-name="Group 4" transform="translate(-49 -150)">
    <path id="Path_1" data-name="Path 1" d="M557.181,406.68a54.1,54.1,0,0,1-17.495,9.255q-1.418.485-2.876.906c-2.51.748-5.078,1.4-7.669,1.961-1.277.285-2.564.548-3.85.793-2.188.421-4.385.8-6.568,1.142-8.1,1.273-16.262,2.215-24.461,2.931q-3.791.335-7.587.6l-1.01.072-1.812.122-1.114.072q-2.541.17-5.078.308c-6.772.381-13.553.657-20.335.906-4.983.172-9.916.317-14.872.453l-10.079.295-2.6.077-1.142.032q-4.476.136-8.96.258l-.843.023-2.627.077-4.983.136-1.486.041-1.359.036c-31.632.852-63.287,1.472-94.9,1.2q-3.8-.027-7.588-.082c-23.474-.3-46.921-1.123-70.326-2.718-8.226-.562-16.507-1.241-24.742-2.179q-3.805-.43-7.588-.938c-20.23-2.718-39.963-7.3-57.638-15.855-13.313-6.455-25.6-15.637-30.758-27.854-5.2-12.33-2.451-26.178,3.493-38.264s14.885-22.917,22.6-34.273c2.65-3.909,5.155-7.982,7.424-12.167.136-.254.276-.512.408-.766q1.744-3.275,3.289-6.632h0q1.468-3.2,2.718-6.46.376-.974.72-1.943c.027-.073.054-.145.077-.217s.059-.163.086-.245a83.86,83.86,0,0,0,3.416-12.625l.109-.6c.05-.285.1-.566.145-.852s.086-.53.127-.8h0a62.512,62.512,0,0,0,.7-12.163V250.3a51.612,51.612,0,0,0-.679-6.219h0c-.027-.177-.054-.349-.091-.521a48.7,48.7,0,0,0-2.387-8.652c-.045-.122-.1-.249-.145-.376a.51.51,0,0,0-.063-.168c-.34-.865-.7-1.721-1.1-2.578h0c-.063-.145-.136-.294-.2-.453h0c-.131-.276-.263-.553-.4-.824h0q-.956-1.952-2.129-3.855c-.906-1.508-1.934-2.985-2.99-4.435l-.149-.2-.122-.172c-1.386-1.889-2.836-3.746-4.249-5.622-1.11-1.463-2.2-2.935-3.216-4.435l-.181-.272a45.183,45.183,0,0,1-3.3-5.676c-.19-.4-.376-.806-.548-1.214-.308-.716-.593-1.436-.847-2.161-3.479-9.83-2.424-20.566-.752-30.8,2.478-15.211,7.089-31.6,21.363-41.1,12.462-8.294,29.326-9.264,45.3-7.248,2.559.317,5.092.711,7.588,1.164l1.359.258c20.2,3.873,39.31,10.731,58.182,18.074,4.408,1.717,8.806,3.461,13.2,5.2q5.15,2.034,10.305,4.045,5.957,2.319,12,4.53,3.778,1.386,7.587,2.718,6.111,2.125,12.3,4.036,4.385,1.359,8.815,2.559a189.371,189.371,0,0,0,43.192,6.985,131.946,131.946,0,0,0,33.435-3.1c2.559-.58,5.1-1.246,7.587-2a98.757,98.757,0,0,0,10.238-3.71,68.77,68.77,0,0,0,22.006-14.5l.05-.05c8.883-9.01,21.906-13.59,35.551-14.355a74.343,74.343,0,0,1,7.588-.041,75.314,75.314,0,0,1,27.487,6.432c21.58,9.785,35.537,30.5,34.486,51.188-1.527,30.115-30.559,53.231-47.881,79.576-1.223,1.857-2.387,3.773-3.47,5.73-.4.716-.779,1.436-1.151,2.161-4.267,8.335-6.831,17.336-5.436,25.983a27.744,27.744,0,0,0,1.105,4.489c.213.639.453,1.277.72,1.912a35.556,35.556,0,0,0,9.01,12.33,61.591,61.591,0,0,0,5.54,4.5c16.162,11.751,39.573,19.161,49.915,35.215C573.212,377.97,570.014,396.022,557.181,406.68Z" transform="translate(-47.777 36.833)" fill="#f2f2f2" opacity="0.801"/>
    <path id="Path_2" data-name="Path 2" d="M521.955,351V281.2h9.472c.371-.725.752-1.445,1.151-2.161H521.955V205.657H559.1c-.081-.72-.172-1.45-.263-2.161H521.955V136.114a74.349,74.349,0,0,0-7.588.041v67.328H446.523v-34.7c-2.491.752-5.028,1.418-7.588,2v32.706H342.091l-.231-.412,20.448-36.18q-4.43-1.2-8.815-2.559L341.19,186.1v-25.82q-3.81-1.323-7.588-2.718v30.93l-22.31-39.473c-4.394-1.735-8.793-3.479-13.2-5.2l33.521,59.273-.236.412H238.534V125.464c-2.5-.453-5.028-.847-7.588-1.164v79.182H165.018c.254.725.539,1.445.847,2.161h65.081v73.384H183.265c-.023.072-.05.145-.077.217q-.344.969-.72,1.943h48.47V351H162.69q.317,1.078.657,2.161h67.6V424.59q3.805,1.006,7.588,2.1V353.163h95.073v76.174q3.791.054,7.588.082V353.163h97.741v74.956l4.983-.136,2.627-.077V353.163h67.8v72.143q3.8-.272,7.588-.6v-71.54h29.671c-.081-.72-.159-1.441-.236-2.161ZM333.6,351H238.534V281.2h95.073Zm0-71.962H238.534V205.657h93.714l1.359,1.961ZM438.936,351H341.19V281.2h97.746Zm0-71.962H341.19V205.657h97.746ZM514.349,351H446.523V281.2h67.826Zm0-71.962H446.523V205.657h67.826Z" transform="translate(-75.462 35.806)" fill="#202021" opacity="0.1"/>
    <path id="Path_3" data-name="Path 3" d="M839.366,189.513a2.618,2.618,0,0,1-2.509,2.718h-5.064a2.682,2.682,0,0,1,1.921,2.627,2.618,2.618,0,0,1-2.51,2.718H813.61a2.4,2.4,0,0,1-1.739-.761,68.77,68.77,0,0,0,22.006-14.5l.05-.05h.553a2.414,2.414,0,0,1,1.771.793,2.836,2.836,0,0,1,0,3.8h.594a2.618,2.618,0,0,1,2.523,2.654Z" transform="translate(-430.572 4.096)" fill="#008023" opacity="0.1"/>
    <path id="Path_4" data-name="Path 4" d="M415.139,243.542h-.584a2.8,2.8,0,0,0,.716-1.884h0a2.618,2.618,0,0,0-2.51-2.718H395.167a2.618,2.618,0,0,0-2.51,2.718h0a2.618,2.618,0,0,0,2.51,2.718h.589a2.8,2.8,0,0,0-.72,1.884,2.686,2.686,0,0,0,1.921,2.627h-5.064a2.718,2.718,0,0,0,0,5.4h17.594a2.618,2.618,0,0,0,2.51-2.718,2.677,2.677,0,0,0-1.9-2.641h5.064a2.718,2.718,0,0,0,0-5.409Z" transform="translate(-199.512 -26.903)" fill="#008023" opacity="0.1"/>
    <path id="Path_5" data-name="Path 5" d="M895.573,486.692h-.589a2.782,2.782,0,0,0,.715-1.885h0a2.618,2.618,0,0,0-2.509-2.718H875.6a2.623,2.623,0,0,0-2.509,2.718h0a2.623,2.623,0,0,0,2.509,2.718h.589a2.8,2.8,0,0,0-.716,1.884,2.673,2.673,0,0,0,1.921,2.623h-5.064a2.718,2.718,0,0,0,0,5.409H889.92a2.623,2.623,0,0,0,2.509-2.718,2.677,2.677,0,0,0-1.921-2.623h5.065a2.718,2.718,0,0,0,0-5.409Z" transform="translate(-462.303 -159.909)" fill="#6c63ff" opacity="0.1"/>
    <ellipse id="Ellipse_1" data-name="Ellipse 1" cx="36.194" cy="47.976" rx="36.194" ry="47.976" transform="matrix(0.99, -0.143, 0.143, 0.99, 73.037, 246.785)" opacity="0.1"/>
    <ellipse id="Ellipse_2" data-name="Ellipse 2" cx="36.194" cy="47.976" rx="36.194" ry="47.976" transform="matrix(0.99, -0.143, 0.143, 0.99, 73.974, 246.398)" fill="#202021"/>
    <path id="Path_6" data-name="Path 6" d="M225.69,361.077a51.664,51.664,0,0,1-2.473,13.06,38.745,38.745,0,0,1-7.465,13.422,24.88,24.88,0,0,1-15.139,8.607,22.881,22.881,0,0,1-2.931.226c-15.9.217-30.749-16.308-33.951-38.536-3.384-23.583,7.6-44.714,24.57-47.138a24.154,24.154,0,0,1,14.69,2.677c6.672,3.443,12.575,9.775,16.706,17.956h0a57.421,57.421,0,0,1,5.486,17.667A58.614,58.614,0,0,1,225.69,361.077Z" transform="translate(-75.697 -66.039)" fill="gray"/>
    <path id="Path_7" data-name="Path 7" d="M245.532,409l-2.192,19.972s7.012-.657,9.06-4.163l-6.464-16.145Z" transform="translate(-119.579 -119.742)" fill="#008023"/>
    <path id="Path_9" data-name="Path 9" d="M180.061,407.033l11.03-.743s1.146,8.38,4.63,13.1l-7.832,8.516S179.766,414.96,180.061,407.033Z" transform="translate(-84.96 -118.446)" opacity="0.2"/>
    <rect id="Rectangle_1" data-name="Rectangle 1" width="38.151" height="0.453" transform="translate(97.014 315.45) rotate(-47)" fill="#fff" opacity="0.3"/>
    <path id="Path_10" data-name="Path 10" d="M85.446,303.929l-.036-.453,36.185-2.636.036.449Z" transform="translate(2.28 -14.563)" fill="#fff" opacity="0.3"/>
    <path id="Path_11" data-name="Path 11" d="M267.071,334.821h0l-3.13,3.8c-7.742-14.817-14.2-15.651-14.2-15.651l.625-6.106C257.047,320.307,262.949,326.64,267.071,334.821Z" transform="translate(-123.08 -69.527)" opacity="0.2"/>
    <path id="Path_12" data-name="Path 12" d="M208.389,366.9l14.287,14.949-1,.421-16.616-6.532A42.773,42.773,0,0,1,208.389,366.9Z" transform="translate(-98.639 -96.899)" opacity="0.2"/>
    <rect id="Rectangle_2" data-name="Rectangle 2" width="0.453" height="37.036" transform="translate(88.565 271.825) rotate(-68.55)" fill="#fff" opacity="0.3"/>
    <path id="Path_13" data-name="Path 13" d="M250.79,400.649,262.441,399s.82,4.82.385,6.229a1.055,1.055,0,0,1-.05.127Z" transform="translate(-123.654 -114.458)" opacity="0.2"/>
    <path id="Path_14" data-name="Path 14" d="M192.14,335.591s4.87-7.035,10.935-8.9l5.363,12.824s-5.227,1.934-7.058,5.794Z" transform="translate(-91.572 -74.904)" opacity="0.2"/>
    <path id="Path_15" data-name="Path 15" d="M226.382,351.045l-.39-.05c-.086,0-.181-.027-.245-.3L209.78,312.917l.417-.177,15.451,36.565c0-2.034.245-6.564,1.092-16.661.747-8.915,1.617-17.929,1.626-18.02l.453.045c-1.3,13.413-3.026,33.521-2.682,35.786Z" transform="translate(-101.221 -67.273)" fill="#fff" opacity="0.3"/>
    <rect id="Rectangle_3" data-name="Rectangle 3" width="0.453" height="40.076" transform="translate(95.411 255.783) rotate(-44.18)" fill="#fff" opacity="0.3"/>
    <path id="Path_16" data-name="Path 16" d="M269.87,370l4.879-5.527s4.634,11.429,4.113,14.826l-5.794.815S270.984,370.3,269.87,370Z" transform="translate(-134.091 -95.57)" opacity="0.2"/>
    <rect id="Rectangle_4" data-name="Rectangle 4" width="25.807" height="0.453" transform="translate(126.687 284.452) rotate(-48.39)" fill="#fff" opacity="0.3"/>
    <path id="Path_17" data-name="Path 17" d="M236.87,373.887l-.027-.24a.468.468,0,0,0-.032-.208c-.032-.068,0-.186-.036-.281a29.956,29.956,0,0,0-3-9.49c-.05-.1-.1-.19-.154-.285a1,1,0,0,0-.072-.136,20.508,20.508,0,0,0-9.834-9.513c-.145-.063-.29-.118-.453-.172a12.792,12.792,0,0,0-6.342-.72,12.065,12.065,0,0,0-2.337.575,1.1,1.1,0,0,0-.172.059l-.258.1a14.845,14.845,0,0,0-6.7,5.49l-.05.072-.131.195h0a1,1,0,0,0-.077.113c-.19.285-.376.575-.553.879s-.335.58-.494.906a24.082,24.082,0,0,0-2.22,6.224c-.036.15-.068.3-.1.453a29.725,29.725,0,0,0-.353,8.842l.027.267a.5.5,0,0,0,.023.181c.032.249.063.5.1.747a29.176,29.176,0,0,0,4.575,12.149c.027.045.059.086.091.131s.113.168.177.249c.154.227.313.453.48.661,3.171,4.217,7.415,6.9,11.864,7.221.195,0,.394.023.593.027h.453a11.861,11.861,0,0,0,1.595-.122,13.173,13.173,0,0,0,7.2-3.624c.118-.109.236-.222.349-.34a19.669,19.669,0,0,0,4.235-6.677c.063-.154.122-.308.181-.453a26.928,26.928,0,0,0,1.513-6.741l.041-.476A30.675,30.675,0,0,0,236.87,373.887ZM235.1,386.82c-.054.158-.113.317-.172.453a19.378,19.378,0,0,1-4.077,6.573c-.113.118-.227.236-.344.344a12.751,12.751,0,0,1-7.076,3.6,11.034,11.034,0,0,1-1.49.118h-.453c-4.652-.1-9.11-2.9-12.385-7.393l-.281-.394c-.091-.127-.177-.254-.258-.385a28.67,28.67,0,0,1-4.444-11.877c-.036-.24-.068-.48-.1-.716,0-.154-.036-.3-.05-.453a29.276,29.276,0,0,1,.331-8.639c.027-.154.054-.3.091-.453a23.587,23.587,0,0,1,2.2-6.183l.3-.548c.213-.376.453-.743.666-1.092.068-.1.136-.208.208-.308a.731.731,0,0,1,.05-.077,14.454,14.454,0,0,1,6.55-5.4l.426-.159h0a12.027,12.027,0,0,1,4.779-.63,13,13,0,0,1,3.674.824l.453.177a20.2,20.2,0,0,1,9.554,9.4c.077.14.15.285.222.43a29.671,29.671,0,0,1,2.854,9.2l.041.276h0v.168c0,.054.023.186.032.281a29.9,29.9,0,0,1,.14,5.812v.145l-.027.331h0A26.231,26.231,0,0,1,235.1,386.82Z" transform="translate(-97.68 -89.141)" fill="#fff" opacity="0.3"/>
    <path id="Path_18" data-name="Path 18" d="M292.646,420a51.669,51.669,0,0,1-2.473,13.06l-4.652-4.707c1.268-1.912,2.048-10.147,2.048-10.147l.267.186C288.07,418.9,290.643,419.555,292.646,420Z" transform="translate(-142.652 -124.966)" opacity="0.2"/>
    <rect id="Rectangle_5" data-name="Rectangle 5" width="0.453" height="28.43" transform="matrix(0.705, -0.709, 0.709, 0.705, 127.222, 288.154)" fill="#fff" opacity="0.3"/>
    <path id="Path_19" data-name="Path 19" d="M194.648,305.864l-23.238-9.395,22.8-3.429.068.448-21.164,3.18,21.7,8.774Z" transform="translate(-44.763 -10.296)" fill="#fff" opacity="0.3"/>
    <path id="Path_20" data-name="Path 20" d="M257.49,471.518a24.88,24.88,0,0,1-15.139,8.607,22.885,22.885,0,0,1-2.931.227l.951-9.513s8.711.131,13.757-6.9Z" transform="translate(-117.435 -149.981)" opacity="0.2"/>
    <rect id="Rectangle_6" data-name="Rectangle 6" width="0.453" height="34.885" transform="matrix(0.922, -0.386, 0.386, 0.922, 126.318, 289.513)" fill="#fff" opacity="0.3"/>
    <rect id="Rectangle_7" data-name="Rectangle 7" width="40.814" height="0.453" transform="translate(121.923 330.335) rotate(-85.04)" fill="#fff" opacity="0.3"/>
    <path id="Path_21" data-name="Path 21" d="M229.286,357.317a3.169,3.169,0,0,0-.054-.453c-.041-.371-.091-.743-.145-1.114a48.067,48.067,0,0,0-3.873-13.259v-.041l-.19-.4c-3.32-7-8.176-12.462-13.7-15.461-.109-.063-.222-.122-.335-.181l-.1-.05a19.405,19.405,0,0,0-11.778-2.152,18.114,18.114,0,0,0-3.311.8l-.426.154h0a21.454,21.454,0,0,0-9.227,6.953q-.679.856-1.3,1.785c-.086.127-.172.254-.254.385a36.431,36.431,0,0,0-5.069,13.137c-.032.149-.059.3-.082.453a47.509,47.509,0,0,0-.322,13.961,3.189,3.189,0,0,0,.059.453c.023.154.054.43.086.648.05.349.1.7.163,1.046v.032c.222,1.359.5,2.677.824,3.973a.13.13,0,0,0,0,.041,43.94,43.94,0,0,0,6.677,14.808c.086.127.172.249.267.376a35.072,35.072,0,0,0,2.9,3.493c.607.643,1.232,1.246,1.866,1.812a22.508,22.508,0,0,0,13.35,6.106c.544.036,1.092.05,1.635.036h.19a2.568,2.568,0,0,0,.267,0,17.458,17.458,0,0,0,1.812-.163,19.645,19.645,0,0,0,11.778-6.5c.041-.041.077-.086.113-.127l.222-.245a28.989,28.989,0,0,0,4.018-5.989,34.952,34.952,0,0,0,1.848-4.317,830.368,830.368,0,0,0,.163-.48,41.486,41.486,0,0,0,2.011-9.717.682.682,0,0,1,.023-.213c.023-.072,0-.172.023-.258q.14-1.848.145-3.737A49.58,49.58,0,0,0,229.286,357.317Zm-.313,9.612a40.972,40.972,0,0,1-1.93,9.54q-.077.235-.163.453a34.677,34.677,0,0,1-1.893,4.466,28.5,28.5,0,0,1-3.814,5.726c-.1.127-.217.254-.331.376a19.314,19.314,0,0,1-11.669,6.518q-.856.122-1.712.163h-.453c-5.16.109-10.315-2.025-14.863-6.156-.575-.521-1.142-1.078-1.7-1.662a35.639,35.639,0,0,1-2.917-3.515l-.131-.19-.136-.19a45.244,45.244,0,0,1-7.542-19.628c-.032-.2-.059-.408-.086-.612a.616.616,0,0,0-.032-.236c-.032-.082,0-.14-.023-.213a47.111,47.111,0,0,1,.294-13.762l.082-.453a35.963,35.963,0,0,1,4.983-12.974q.068-.113.15-.231c.032-.054.068-.109.1-.159.4-.6.82-1.182,1.255-1.735a21.055,21.055,0,0,1,9.132-6.913l.3-.109.127-.045a17.613,17.613,0,0,1,3.2-.77,17.919,17.919,0,0,1,3.778-.136,19.86,19.86,0,0,1,7.873,2.324l.091.045.34.186a28.868,28.868,0,0,1,8.154,6.917,39.408,39.408,0,0,1,5.282,8.426c.023.041.041.086.059.127l.15.317h0a47.856,47.856,0,0,1,3.751,12.956c.054.371.1.738.15,1.11a.773.773,0,0,0,.032.267c.032.091,0,.122,0,.186a47.983,47.983,0,0,1,.177,9.06Q229,366.689,228.973,366.929Z" transform="translate(-84.252 -73.45)" fill="#fff" opacity="0.3"/>
    <ellipse id="Ellipse_3" data-name="Ellipse 3" cx="2.279" cy="3.135" rx="2.279" ry="3.135" transform="matrix(0.99, -0.143, 0.143, 0.99, 122.552, 283.817)" fill="#008023"/>
    <circle id="Ellipse_5" data-name="Ellipse 5" cx="6.133" cy="6.133" r="6.133" transform="translate(346.572 164.641)" fill="#008023" opacity="0.1"/>
    <circle id="Ellipse_6" data-name="Ellipse 6" cx="6.133" cy="6.133" r="6.133" transform="translate(64.334 230.297)" fill="#008023" opacity="0.1"/>
    <circle id="Ellipse_7" data-name="Ellipse 7" cx="6.133" cy="6.133" r="6.133" transform="translate(495.488 273.861)" fill="#008023" opacity="0.1"/>
    <circle id="Ellipse_8" data-name="Ellipse 8" cx="6.133" cy="6.133" r="6.133" transform="translate(470.673 310.874)" fill="#008023" opacity="0.1"/>
    <circle id="Ellipse_9" data-name="Ellipse 9" cx="2.827" cy="2.827" r="2.827" transform="translate(367.931 158.679)" fill="#008023" opacity="0.1"/>
    <circle id="Ellipse_10" data-name="Ellipse 10" cx="2.827" cy="2.827" r="2.827" transform="translate(49 219.362)" fill="#008023" opacity="0.1"/>
    <circle id="Ellipse_11" data-name="Ellipse 11" cx="2.827" cy="2.827" r="2.827" transform="translate(495.488 349.084)" fill="#008023" opacity="0.1"/>
    <circle id="Ellipse_12" data-name="Ellipse 12" cx="1.998" cy="1.998" r="1.998" transform="translate(384.152 150)" fill="#6c63ff" opacity="0.1"/>
    <circle id="Ellipse_13" data-name="Ellipse 13" cx="1.998" cy="1.998" r="1.998" transform="translate(62.336 262.622)" fill="#008023" opacity="0.1"/>
    <path id="Path_22" data-name="Path 22" d="M764.391,474.295s-3.388-14.573-5.644-32.289S739,394.85,739,394.85c-.077-.15-.159-.3-.24-.453a80.41,80.41,0,0,0-9.73-14.428c-7.7-9.091-14.686-13.177-15.035-13.377h0c-.552-.843-1.146-1.771-1.771-2.763-2.346-3.71-5.137-8.376-7.8-13.413a1.9,1.9,0,0,0-.063-.349h0c-1.187-7.175-1.232-14.722,2.337-20.919,1.762-3.058,4.3-5.576,6.242-8.521,3.171-4.8,4.612-10.532,5.776-16.185a47.47,47.47,0,0,0,1.318-12.013v-.181h0c0-.281-.036-.562-.064-.843-.666-7.3-4.494-13.861-8.226-20.144-1.966-3.307-4.032-6.718-7.2-8.856-6.586-4.444-14.659-1.663-21.7-4.208-7.479-2.718-14.314-5.25-22.455-6.084-2.886-.294-6.056-.367-8.394,1.359-2.455,1.812-3.271,5.119-4.9,7.733-3.112,4.983-8.983,7.248-13.938,10.382-3.764,2.36-7.375,6.133-8.154,10.287v-.036a9.134,9.134,0,0,0-.145,1.359c0,.027,0,.059,0,.086v.136a8.23,8.23,0,0,0,.335,2.478c.281.145.566.272.856.4-.181.294-.362.589-.535.906l-.381.675a44.1,44.1,0,0,0,22.02,62.259h0c.267.652.544,1.327.815,2.025a102.579,102.579,0,0,1,7.248,36.955h0v1.735h0c-4.077,5.164-8.3,11.569-8.154,16,.245,7.42-9.649,24.683-12.317,29.2l-.534.906h0c-2.664-1.93-5.83-3.665-7.366-2.446l-1.286-.824c-6.5-4.177-18.12-11.914-22.5-16.539-6.206-6.573-18.337-12.575-18.337-12.575s-9.59-11.433-9.024-15.719c.281-2.134-3.569-19.166-8.339-31.664,3.483.367,7.062.806,8.154.942l.267.236.376.059c13.187,11.587,16.072,6.423,16.072,6.423,1.078-.729,1.445-2.926,1.549-3.769v-.2h.068v-.168a1.239,1.239,0,0,0,.072-.154l.032-.059.023-.045a.367.367,0,0,1,.05-.118,2.1,2.1,0,0,0,.177-.453h-.036a16.973,16.973,0,0,0,.276-2.872,3.262,3.262,0,0,0-2.555-3.2.1.1,0,0,0-.023-.072c-1.712-5.092-14.165,2.46-15.542,3.316l-.335.036c-2.5-.5-6.342-1.409-9.6-2.2-4.417-10.745-9.427-16.761-12.638-3.538l-2.953-.507a2.718,2.718,0,0,0-2.111.5,3.584,3.584,0,0,0-1.01,1.151l-12.815-2.029-3.021.1,2.559,1.237.19.091,12.815,2.088a2.777,2.777,0,0,0,2.378,2.4l2.877.417C547.523,386.782,559,396.567,559,396.567s13.821,13.553,13.821,16.761c0,2.718,26.98,35,35.179,44.746,1.468,1.749,2.337,2.772,2.337,2.772,3.221,3.7,18.708,16.344,25.916,22.169h0c.707,5.889,1.359,11.778,1.735,15.008l1.359-.036,6.446-.177,3.47-.1q4.485-.122,8.96-.258l1.142-.032,2.6-.082q5.042-.145,10.079-.3,7.433-.224,14.871-.453c6.795-.24,13.563-.516,20.335-.906,1.69-.1,3.384-.195,5.078-.308l1.114-.077,1.812-.122c11.08-.784,22.115-1.912,33.068-3.651,2.183-.349,4.38-.729,6.568-1.16,1.287-.245,2.573-.512,3.851-.8,2.591-.575,5.159-1.232,7.669-1.989C765.346,479.912,764.391,474.295,764.391,474.295Z" transform="translate(-277.392 -34.02)" fill="url(#linear-gradient)"/>
    <path id="Path_23" data-name="Path 23" d="M611.175,484.837l-1.685-.059s-11.429-1.418-15.089-1.5a2.527,2.527,0,0,0-1.1.086l.811-3.271.992.245c3.484.861,15.03,3.687,16.888,3.751C614.187,484.158,611.175,484.837,611.175,484.837Z" transform="translate(-311.011 -158.815)" fill="#e56d84"/>
    <path id="Path_24" data-name="Path 24" d="M629.83,482.041s13.861-8.67,15.673-3.348-2.913,6.106-2.913,6.106Z" transform="translate(-330.994 -157.106)" fill="#904150"/>
    <path id="Path_26" data-name="Path 26" d="M645.376,491.513s-2.922,5.173-16.376-6.6l.186-.24.557-.72s17.413-8,17.866-.186a15.1,15.1,0,0,1-.326,3.026,1.568,1.568,0,0,1-.276.6l-.063.059a2.141,2.141,0,0,1-.036.331C646.821,488.618,646.454,490.783,645.376,491.513Z" transform="translate(-330.54 -158.954)" fill="#e56d84"/>
    <path id="Path_27" data-name="Path 27" d="M645.376,496.357s-2.922,5.173-16.376-6.6l.186-.24.313-.322,17.508,3.04-.063.059a2.14,2.14,0,0,1-.036.331C646.821,493.463,646.454,495.628,645.376,496.357Z" transform="translate(-330.54 -163.799)" opacity="0.1"/>
    <path id="Path_28" data-name="Path 28" d="M646.047,491.721l-17.911-2.881-.906-.77,1.64-.19,17.535,2.84a1.3,1.3,0,0,1-.335.657A2.321,2.321,0,0,1,646.047,491.721Z" transform="translate(-329.571 -163.076)" opacity="0.1"/>
    <path id="Path_29" data-name="Path 29" d="M645.657,492.558l-17.911-2.867-.906-.766,1.635-.195,17.553,2.84a1.264,1.264,0,0,1-.34.657S645.684,492.354,645.657,492.558Z" transform="translate(-329.358 -163.541)" opacity="0.1"/>
    <path id="Path_30" data-name="Path 30" d="M645.831,492.148l-17.925-2.867-.906-.766,1.635-.195,17.54,2.84a1.359,1.359,0,0,1-.34.657A1.169,1.169,0,0,1,645.831,492.148Z" transform="translate(-329.445 -163.317)" fill="#4c4c56"/>
    <path id="Path_31" data-name="Path 31" d="M594.4,483.275a2.529,2.529,0,0,0-1.1.086l.811-3.271.992.245A12.229,12.229,0,0,1,594.4,483.275Z" transform="translate(-311.011 -158.815)" opacity="0.1"/>
    <path id="Path_32" data-name="Path 32" d="M579.73,476.132l-10.061-1.7a2.74,2.74,0,0,0-2.111.494,2.849,2.849,0,0,0-1.3,2.492,2.754,2.754,0,0,0,2.4,2.478l10.088,1.431S580.563,476.879,579.73,476.132Z" transform="translate(-296.218 -155.695)" fill="#e5f2e8"/>
    <path id="Path_33" data-name="Path 33" d="M532.33,473.949l3.026-.109,13.042,2.043a.72.72,0,0,1,.6.847h0a.72.72,0,0,1-.82.571L534.9,475.167Z" transform="translate(-277.66 -155.396)" opacity="0.1"/>
    <path id="Path_34" data-name="Path 34" d="M531.92,473.754l3.022-.1,13.046,2.038a.72.72,0,0,1,.593.838h0a.72.72,0,0,1-.815.575l-13.282-2.138Z" transform="translate(-277.436 -155.293)" fill="#e5f2e8"/>
    <path id="Path_35" data-name="Path 35" d="M653.7,550.682l-19.746,23.977s-.87-1.01-2.337-2.741c-8.2-9.617-35.179-41.467-35.179-44.166,0-3.171-13.821-16.561-13.821-16.561S570.2,500.771,576.971,468.3s22.849,31.039,22.287,35.27,9.023,15.515,9.023,15.515,12.131,5.925,18.337,12.412c4.367,4.566,15.995,12.2,22.5,16.307C651.864,549.563,653.7,550.682,653.7,550.682Z" transform="translate(-300.975 -147.33)" fill="#fdc2cc"/>
    <path id="Path_36" data-name="Path 36" d="M722.123,657.828l-19.746,23.977s-.87-1.01-2.337-2.741c.317-6.713,14.5-21.526,17.005-23.777a1.814,1.814,0,0,1,.5-.317C720.289,656.71,722.123,657.828,722.123,657.828Z" transform="translate(-369.399 -254.477)" opacity="0.1"/>
    <path id="Path_37" data-name="Path 37" d="M732.625,662.276s-9.028-8.462-11.846-5.921-20.593,21.155-16.362,25.952,29.616,24.815,29.616,24.815Z" transform="translate(-371.44 -254.974)" fill="#535353"/>
    <path id="Path_39" data-name="Path 39" d="M848.419,449.447s-8.811,8.5-19.846,17.725l-.417.344-.643.535h0c-17.6,14.559-40.289,30.269-42.626,16.824a18.694,18.694,0,0,1-.032-5.3c.027-.258.063-.525.1-.8s.073-.525.1-.784a88.894,88.894,0,0,0,.729-10.215v-1.712a100.11,100.11,0,0,0-7.248-36.479c-.272-.689-.548-1.359-.815-2h0a79.262,79.262,0,0,0-7.171-13.689s5.241-3.171,12.507-7.248c2.668-1.486,5.6-3.085,8.656-4.688,16.761-8.788,36.914-17.576,34.124-7.248-1.318,4.888-.1,11.374,2.333,18.165.136.376.272.743.412,1.114a111.632,111.632,0,0,0,5.436,12l.136.263c2.913,5.581,6.052,10.795,8.652,14.849.625.978,1.218,1.893,1.771,2.718C846.856,447.318,848.419,449.447,848.419,449.447Z" transform="translate(-407.969 -109.564)" fill="#fdc2cc"/>
    <path id="Path_40" data-name="Path 40" d="M828.651,414c-.132.195-.272.39-.412.58a29.487,29.487,0,0,1-14.949,11.107,48.731,48.731,0,0,1-13.485,2.165c-1.246.045-2.519.068-3.832.068a76.631,76.631,0,0,1-9.06-.521c-1.581-.249-3.234.815-4.833,1.595a4.485,4.485,0,0,1-3.443.6c-.272-.689-.548-1.359-.815-2h0a79.257,79.257,0,0,0-7.171-13.689s5.241-3.171,12.507-7.248c2.668-1.486,5.6-3.085,8.657-4.688,16.761-8.788,36.914-17.576,34.124-7.248-1.318,4.888-.095,11.374,2.333,18.165C828.374,413.263,828.51,413.63,828.651,414Z" transform="translate(-408.024 -109.564)" opacity="0.1"/>
    <path id="Path_41" data-name="Path 41" d="M811.945,331.82c0,.661,0,1.314-.045,1.966a43.192,43.192,0,0,1-50.01,40.7,41.414,41.414,0,0,1-4.53-.969,42.543,42.543,0,0,1-4.258-1.4h0a43.242,43.242,0,0,1-22.065-61.425l.38-.666a43.215,43.215,0,0,1,80.528,21.793Z" transform="translate(-383.341 -54.073)" fill="#fdc2cc"/>
    <path id="Path_42" data-name="Path 42" d="M865.484,510.12s-68.546,66.286-63.468,29.336a91.56,91.56,0,0,0,.843-12.711,111.84,111.84,0,0,1,7.569-8.444l9.631-6.962a53.933,53.933,0,0,1,34.318-10.31,24.911,24.911,0,0,1,5.49.756C863.1,506.845,865.484,510.12,865.484,510.12Z" transform="translate(-425.034 -170.237)" opacity="0.1"/>
    <path id="Path_43" data-name="Path 43" d="M889.241,625.988c-2.509.748-5.078,1.4-7.669,1.961-1.277.285-2.564.548-3.85.793-2.188.421-4.385.8-6.568,1.142-10.935,1.717-21.97,2.831-33.068,3.624l-1.812.122-1.114.072c-1.694.113-3.388.213-5.078.308-6.772.381-13.553.657-20.335.906-4.983.172-9.916.317-14.872.453l-10.079.294-2.6.077-1.141.032q-4.476.136-8.96.258l-3.47.1-6.446.177-1.359.036c-.362-3.2-1.028-9.01-1.735-14.813h0l-.163-1.359c-.779-6.4-1.586-12.548-2.052-14.876-1.128-5.64,0-29.055,0-29.055l.122-.195h0l.535-.906c2.668-4.453,12.561-21.494,12.317-28.819-.145-4.371,4.077-10.7,8.154-15.791.534-.661,1.065-1.3,1.585-1.916,3.248-3.819,6.029-6.536,6.029-6.536l9.626-6.967a54,54,0,0,1,34.323-10.3c3.624.186,6.514.693,7.248,1.785h0c.313.177,7.334,4.208,15.035,13.2a79.416,79.416,0,0,1,9.73,14.242c.082.145.163.294.24.453,0,0,17.49,29.055,19.746,46.545S887.2,612.91,887.2,612.91,888.163,618.432,889.241,625.988Z" transform="translate(-400.209 -172.305)" fill="#676767"/>
    <path id="Path_44" data-name="Path 44" d="M844.777,636.839c-1.536,2.5-.063,15.216,1.572,23.333-1.694.113-3.388.213-5.078.308-6.772.381-13.554.657-20.335.906-4.983.172-9.916.317-14.872.453l-10.079.294-2.6.077-1.142.032c.53-1.916.634-3.918-.775-4.811-3.1-1.975-9.028-14.672-9.028-14.672s-5.074,1.133-5.64-40.316a59.891,59.891,0,0,1,2.523-18.776,46.308,46.308,0,0,1,2.134-5.59h0a43.678,43.678,0,0,1,7-10.822h0a44.925,44.925,0,0,1,21.9-13.59,36.387,36.387,0,0,1,6.419-.489h.054A33.269,33.269,0,0,1,831.55,556.8a38.341,38.341,0,0,1,5.576,3.4,44.685,44.685,0,0,1,4.675,4c15.818,15.4,19.56,39.451,9.789,59.26C848.473,629.8,845.651,635.417,844.777,636.839Z" transform="translate(-411.376 -198.793)" opacity="0.1"/>
    <path id="Path_45" data-name="Path 45" d="M852.256,641.783c-1.391,2.265-.317,12.869,1.11,20.883l-1.812.122-1.115.072q-2.541.17-5.078.308c-6.772.381-13.554.657-20.335.906-4.983.172-9.916.317-14.872.453l-10.079.294a2.706,2.706,0,0,0-1.137-2.446,7.023,7.023,0,0,1-1.5-1.472c-.131-.159-.267-.331-.4-.507-3.139-4.167-7.116-12.684-7.116-12.684s-5.078,1.128-5.644-40.316c-.181-13.508,3.316-23.392,8.113-30.581A44.99,44.99,0,0,1,817.838,558.6a34.332,34.332,0,0,1,17.168,1.4,34.881,34.881,0,0,1,6.215,2.895,43.072,43.072,0,0,1,7.352,5.576l.725.693c15.818,15.4,19.556,39.451,9.785,59.26C855.953,634.749,853.13,640.361,852.256,641.783Z" transform="translate(-415.471 -201.481)" opacity="0.1"/>
    <path id="Path_46" data-name="Path 46" d="M847.282,636.805c-1.531,2.491-.072,15.143,1.558,23.261l-1.114.073q-2.541.17-5.078.308c-6.772.381-13.553.657-20.335.906-4.983.172-9.916.317-14.871.453l-10.079.295-2.6.077a5.544,5.544,0,0,0-.036-4,2.189,2.189,0,0,0-.4-.507,1.776,1.776,0,0,0-.349-.276c-3.1-1.975-9.028-14.672-9.028-14.672s-5.074,1.132-5.64-40.316c-.208-15.519,4.439-26.273,10.337-33.621a45,45,0,0,1,23.229-15.18,36.829,36.829,0,0,1,5.291-.489h.054a33.349,33.349,0,0,1,15.139,3.261,41.157,41.157,0,0,1,10.967,7.8c.525.512,1.042,1.033,1.535,1.563a51.279,51.279,0,0,1,8.254,57.7C850.978,629.77,848.156,635.383,847.282,636.805Z" transform="translate(-412.753 -198.759)" fill="#676767"/>
    <path id="Path_47" data-name="Path 47" d="M821.429,676.39s-27.836,19.755-25.463,22.473S821.429,676.39,821.429,676.39Z" transform="translate(-421.794 -266.194)" opacity="0.1"/>
    <path id="Path_48" data-name="Path 48" d="M928.8,685.537s-8.7-7.746-8.068-4.743S928.8,685.537,928.8,685.537Z" transform="translate(-490.102 -268.225)" opacity="0.1"/>
    <path id="Path_49" data-name="Path 49" d="M866,786.5c-6.772.381-13.553.657-20.335.906-11.61-1.359-23.682-3.357-23.682-3.357C823.026,783.439,860.067,782.7,866,786.5Z" transform="translate(-436.102 -324.814)" opacity="0.1"/>
    <path id="Path_50" data-name="Path 50" d="M1027.272,759.462c-1.277.285-2.564.548-3.85.793-.5-8.1-.7-15.085-.7-15.085a143.855,143.855,0,0,1,4.553,14.292Z" transform="translate(-545.909 -303.817)" opacity="0.1"/>
    <path id="Path_51" data-name="Path 51" d="M779.019,767.886l-3.47.1c-2.763-7.547-5.137-16.5-6.106-20.3-.3-1.173-.453-1.857-.453-1.857l.43.906C770.847,749.712,775.576,759.642,779.019,767.886Z" transform="translate(-407.116 -304.178)" opacity="0.1"/>
    <path id="Path_52" data-name="Path 52" d="M816.226,347.275a42.918,42.918,0,0,1-5.545,10.142c.136.376.272.743.412,1.114a111.63,111.63,0,0,0,5.436,12l.136.263c.236,1.812.562,3.624.938,5.39q-10.328.544-20.679.476a29.646,29.646,0,0,1-8.9-.983,15.4,15.4,0,0,1-3.37-1.531,16.92,16.92,0,0,1-2.4-1.762,20.385,20.385,0,0,1-6.6-12.983c-.412-3.891.177-7.923-.951-11.669a12.725,12.725,0,0,0-.453-1.228,13.535,13.535,0,0,0-10.564-8.036,2.894,2.894,0,0,0-1.966.267,3.283,3.283,0,0,0-1.065,1.649l-4.67,12.181c-3.325.833-5.672-3.511-5.4-6.926s1.812-6.913.675-10.147c-.349-1-.942-1.912-1.2-2.935-1.01-4.036,3.329-7.619,3.366-11.778.027-3.42-2.9-6.183-6.007-7.606-2.849-1.3-6-1.866-8.851-3.139a43.215,43.215,0,0,1,80.51,21.807c0,.661,0,1.314-.045,1.966a42.944,42.944,0,0,1-2.808,13.467Z" transform="translate(-390.476 -54.094)" opacity="0.1"/>
    <path id="Path_53" data-name="Path 53" d="M772.644,259.2c-2.885-.29-6.056-.362-8.394,1.359-2.455,1.812-3.271,5.055-4.9,7.633-3.112,4.929-8.983,7.18-13.938,10.247s-9.649,8.543-7.991,14.133c3.053,1.54,6.518,2.079,9.626,3.5s6.034,4.186,6.007,7.606c-.036,4.158-4.376,7.742-3.366,11.778.254,1.024.847,1.934,1.2,2.935,1.128,3.234-.4,6.731-.675,10.147s2.07,7.76,5.4,6.926l4.7-12.181a3.283,3.283,0,0,1,1.064-1.649,2.9,2.9,0,0,1,1.966-.267,13.485,13.485,0,0,1,10.98,9.264c1.128,3.746.539,7.778.951,11.669.757,7.175,5.5,14.115,12.385,16.276a29.889,29.889,0,0,0,8.9.983q10.342.077,20.679-.476c-1.7-7.991-2.392-16.819,1.726-23.868,1.762-3.017,4.3-5.5,6.242-8.412,3.171-4.738,4.611-10.4,5.776-15.972a42.781,42.781,0,0,0,1.246-12.847c-.666-7.207-4.494-13.685-8.226-19.882-1.966-3.266-4.032-6.636-7.2-8.747-6.586-4.385-14.659-1.635-21.7-4.154C787.62,262.531,780.784,260.021,772.644,259.2Z" transform="translate(-389.661 -37.897)" fill="#865a61"/>
    <g id="Group_1" data-name="Group 1" transform="translate(347.42 250.658)" opacity="0.1">
      <path id="Path_54" data-name="Path 54" d="M766.214,384a9.333,9.333,0,0,0-.295-4.317c-.317-.906-.829-1.744-1.114-2.659a5.692,5.692,0,0,0-.077,2.895c.254,1.024.847,1.934,1.191,2.935A7.012,7.012,0,0,1,766.214,384Z" transform="translate(-752.123 -353.093)"/>
      <path id="Path_55" data-name="Path 55" d="M752.841,337.658a6.919,6.919,0,0,0,.208-1.585c.027-3.416-2.895-6.183-6-7.606s-6.573-1.961-9.626-3.5q-.112-.378-.186-.766a8.312,8.312,0,0,0,.186,3.936c3.053,1.54,6.518,2.079,9.626,3.5C749.661,332.834,752.13,334.981,752.841,337.658Z" transform="translate(-737.082 -324.2)"/>
      <path id="Path_56" data-name="Path 56" d="M812.39,427.571a29.635,29.635,0,0,1-8.9-.983c-6.885-2.161-11.628-9.1-12.385-16.276-.412-3.891.177-7.918-.951-11.669a13.485,13.485,0,0,0-11-9.264,2.9,2.9,0,0,0-1.966.267,3.252,3.252,0,0,0-1.064,1.649l-4.67,12.181c-2.673.67-4.711-2-5.268-4.852-.05.367-.1.734-.127,1.1-.281,3.416,2.07,7.76,5.4,6.926l4.7-12.181a3.253,3.253,0,0,1,1.064-1.649,2.9,2.9,0,0,1,1.966-.267,13.486,13.486,0,0,1,10.98,9.264c1.128,3.751.539,7.778.951,11.669.757,7.175,5.5,14.115,12.385,16.276a29.874,29.874,0,0,0,8.9.983q10.351.077,20.683-.453c-.217-1.037-.421-2.088-.6-3.144Q822.441,427.639,812.39,427.571Z" transform="translate(-752.922 -359.818)"/>
      <path id="Path_57" data-name="Path 57" d="M926.153,355.582c-1.169,5.576-2.614,11.234-5.775,15.972-1.939,2.908-4.48,5.4-6.242,8.412-2.519,4.308-3.234,9.282-3.026,14.323a23.866,23.866,0,0,1,3.026-11.153c1.762-3.017,4.3-5.5,6.242-8.412,3.171-4.738,4.607-10.4,5.775-15.972a46.071,46.071,0,0,0,1.314-11.964,58.545,58.545,0,0,1-1.314,8.793Z" transform="translate(-832.258 -336.557)"/>
    </g>
  </g>
</svg>
