<svg xmlns="http://www.w3.org/2000/svg" width="840.711" height="381.085" viewBox="0 0 840.711 381.085">
  <g id="Group_2650" data-name="Group 2650" transform="translate(-659 -1400.443)">
    <g id="Group_839" data-name="Group 839" transform="translate(4 519)">
      <text id="Main_Purpose" data-name="Main
Purpose" transform="translate(680 998)" fill="#21232a" font-size="20" font-family="HelveticaNeue-Bold, Helvetica Neue" font-weight="700"><tspan x="21.18" y="20">Main</tspan><tspan x="4.68" y="45">Purpose</tspan></text>
      <text id="Example_Use_Case" data-name="Example
Use Case" transform="translate(673 1135)" fill="#21232a" font-size="20" font-family="HelveticaNeue-Bold, Helvetica Neue" font-weight="700"><tspan x="10.42" y="20">Example</tspan><tspan x="5.94" y="45">Use Case</tspan></text>
      <line id="Line_158" data-name="Line 158" y2="381.054" transform="translate(791.5 881.474)" fill="none" stroke="#707070" stroke-width="1" opacity="0.2"/>
      <line id="Line_159" data-name="Line 159" x1="601.5" transform="translate(655 1083.5)" fill="none" stroke="#707070" stroke-width="1" opacity="0.2"/>
      <text id="To_add_pictures_onto_the_application_data_base" data-name="To add pictures onto the application data base" transform="translate(832 998)" fill="#707070" font-size="14" font-family="HelveticaNeue, Helvetica Neue"><tspan x="8.184" y="13">To add pictures onto </tspan><tspan x="10.522" y="28">the application data </tspan><tspan x="57.331" y="43">base</tspan></text>
      <text id="Same_as_state_In-charge" data-name="Same as state
In-charge" transform="translate(1052 998)" fill="#707070" font-size="14" font-family="HelveticaNeue, Helvetica Neue"><tspan x="33.396" y="13">Same as state</tspan><tspan x="48.25" y="28">In-charge</tspan></text>
      <text id="To_add_pictures_based_on_a_particular_type_of_an_activity" data-name="To add pictures based on a particular type of an activity" transform="translate(832 1135)" fill="#707070" font-size="14" font-family="HelveticaNeue, Helvetica Neue"><tspan x="2.997" y="13">To add pictures based </tspan><tspan x="4.047" y="28">on a particular type of </tspan><tspan x="40.867" y="43">an activity</tspan></text>
      <text id="To_add_pictures_from_a_visit_that_had_taken_place_to_a_plant_in_the_state" data-name="To add pictures from a visit that had taken place to a plant in the state" transform="translate(1043 1135)" fill="#707070" font-size="14" font-family="HelveticaNeue, Helvetica Neue"><tspan x="2.587" y="13">To add pictures from a visit </tspan><tspan x="9.195" y="28">that had taken place to a </tspan><tspan x="34.871" y="43">plant in the state</tspan></text>
      <line id="Line_157" data-name="Line 157" y2="381.054" transform="translate(1016.5 881.474)" fill="none" stroke="#707070" stroke-width="1" opacity="0.2"/>
      <text id="State_In-charge" data-name="State In-charge" transform="translate(1038 908)" fill="#21232a" font-size="20" font-family="HelveticaNeue-Bold, Helvetica Neue" font-weight="700"><tspan x="18.39" y="20">State In-charge</tspan></text>
      <text id="Cluster_In-charge" data-name="Cluster In-charge" transform="translate(812 908)" fill="#21232a" font-size="20" font-family="HelveticaNeue-Bold, Helvetica Neue" font-weight="700"><tspan x="8.96" y="20">Cluster In-charge</tspan></text>
    </g>
    <g id="Group_2609" data-name="Group 2609">
      <path id="Path_3751" data-name="Path 3751" d="M169.859,383.408V153.919a3.77,3.77,0,0,1,3.766-3.766H384.032a3.77,3.77,0,0,1,3.766,3.766V383.408a3.77,3.77,0,0,1-3.766,3.766H173.625a3.77,3.77,0,0,1-3.766-3.766Zm3.766-231.749a2.262,2.262,0,0,0-2.26,2.26V383.408a2.262,2.262,0,0,0,2.26,2.26H384.032a2.262,2.262,0,0,0,2.26-2.26V153.919a2.262,2.262,0,0,0-2.26-2.26Z" transform="translate(1098.142 1264.241)" fill="#e6e6e6"/>
      <path id="Path_40" data-name="Path 40" d="M400.186,202.121a2.986,2.986,0,1,1,0,5.972H325.321a2.986,2.986,0,1,1-.1-5.972h74.964Z" transform="translate(1014.2 1235.622)" fill="#3f3d56"/>
      <path id="Path_3752" data-name="Path 3752" d="M285.7,200.06a.588.588,0,0,1,0,.831l-2.522,2.522h6.22a.588.588,0,0,1,0,1.175h-6.22l2.522,2.522a.588.588,0,0,1-.831.831l-3.525-3.525a.588.588,0,0,1,0-.831l3.525-3.525a.588.588,0,0,1,.831,0Z" transform="translate(1036.84 1236.852)" fill="#e6e6e6"/>
      <path id="Path_3753" data-name="Path 3753" d="M528.272,200.06a.588.588,0,0,0,0,.831l2.522,2.522h-6.22a.588.588,0,1,0,0,1.175h6.22l-2.522,2.522a.588.588,0,0,0,.831.831l3.525-3.525a.588.588,0,0,0,0-.831L529.1,200.06a.588.588,0,0,0-.831,0Z" transform="translate(903.124 1236.852)" fill="#e6e6e6"/>
      <path id="Path_3754" data-name="Path 3754" d="M306.67,588.1a10.709,10.709,0,1,0,0,21.419h83.2a10.709,10.709,0,1,0,0-21.419Z" transform="translate(1028.697 1023.064)" fill="#e6e6e6"/>
      <path id="Path_3755" data-name="Path 3755" d="M608.962,136.314a17.21,17.21,0,1,1,17.21,17.21A17.21,17.21,0,0,1,608.962,136.314Z" transform="translate(856.328 1281.339)" fill="#a2a2a2"/>
      <path id="Path_3756" data-name="Path 3756" d="M630.072,145.307h5.093v-5.093a1.7,1.7,0,1,1,3.4,0v5.093h5.093a1.7,1.7,0,0,1,0,3.4h-5.093V153.8a1.7,1.7,0,1,1-3.4,0V148.7h-5.093a1.7,1.7,0,1,1,0-3.4Z" transform="translate(845.639 1270.649)" fill="#fff"/>
      <rect id="Rectangle_570" data-name="Rectangle 570" width="158.805" height="1.004" transform="matrix(0.773, -0.634, 0.634, 0.773, 1325.186, 1574.195)" fill="#e6e6e6"/>
      <rect id="Rectangle_571" data-name="Rectangle 571" width="1.004" height="159.124" transform="matrix(0.636, -0.772, 0.772, 0.636, 1325.201, 1474.299)" fill="#e6e6e6"/>
      <path id="Path_3757" data-name="Path 3757" d="M293.359,379.115V282.2a3.519,3.519,0,0,1,3.515-3.515H416.389A3.519,3.519,0,0,1,419.9,282.2v96.918a3.519,3.519,0,0,1-3.515,3.515H296.874A3.519,3.519,0,0,1,293.359,379.115Zm3.515-99.428a2.514,2.514,0,0,0-2.511,2.511v96.918a2.514,2.514,0,0,0,2.511,2.511H416.389a2.514,2.514,0,0,0,2.511-2.511V282.2a2.514,2.514,0,0,0-2.511-2.511Z" transform="translate(1030.13 1193.46)" fill="#3f3d56"/>
      <path id="Path_3758" data-name="Path 3758" d="M249.771,418.233V321.315a3.519,3.519,0,0,1,3.515-3.515H372.8a3.519,3.519,0,0,1,3.515,3.515v96.918a3.519,3.519,0,0,1-3.515,3.515H253.286A3.519,3.519,0,0,1,249.771,418.233Z" transform="translate(1054.134 1171.918)" fill="#a2a2a2"/>
      <path id="Path_3759" data-name="Path 3759" d="M360.247,433.521h61.016a1.247,1.247,0,0,0,.228-.018l-28.858-49.986a2.021,2.021,0,0,0-3.517,0l-19.367,33.544-.928,1.605Z" transform="translate(993.295 1136.293)" fill="#fff"/>
      <path id="Path_3760" data-name="Path 3760" d="M190.389,356.787h20.832l-10.227-14.854-.736-1.07-.368-.535-.928,1.605Z" transform="translate(1163.153 1213.026)" opacity="0.2" style="isolation: isolate"/>
      <path id="Path_3761" data-name="Path 3761" d="M284.634,451.577h52.774l-10.227-14.854-.736-1.07-13.326-19.358a2.7,2.7,0,0,0-4-.239,2.4,2.4,0,0,0-.192.239Z" transform="translate(1034.935 1118.236)" fill="#fff"/>
      <circle id="Ellipse_284" data-name="Ellipse 284" cx="9.039" cy="9.039" r="9.039" transform="translate(1350.305 1513.571)" fill="#fff"/>
      <rect id="Rectangle_572" data-name="Rectangle 572" width="11.048" height="11.048" transform="translate(1423.922 1507.796) rotate(180)" fill="#3f3d56"/>
    </g>
  </g>
</svg>
