<svg xmlns="http://www.w3.org/2000/svg" width="1319.926" height="336.672" viewBox="0 0 1319.926 336.672">
  <g id="Group_2632" data-name="Group 2632" transform="translate(-303 -677.402)">
    <text id="Cluster_In-charge" data-name="Cluster
In-charge" transform="translate(927 695)" fill="#21232a" font-size="20" font-family="HelveticaNeue-Bold, Helvetica Neue" font-weight="700"><tspan x="50.56" y="20">Cluster</tspan><tspan x="39.18" y="45">In-charge</tspan></text>
    <text id="Main_Purpose" data-name="Main
Purpose" transform="translate(327 771)" fill="#21232a" font-size="20" font-family="HelveticaNeue-Bold, Helvetica Neue" font-weight="700"><tspan x="44.36" y="20">Main</tspan><tspan x="11.36" y="45">Purpose</tspan></text>
    <text id="Example_Use_Case" data-name="Example
Use Case" transform="translate(312 911)" fill="#21232a" font-size="20" font-family="HelveticaNeue-Bold, Helvetica Neue" font-weight="700"><tspan x="23.84" y="20">Example</tspan><tspan x="14.88" y="45">Use Case</tspan></text>
    <text id="State_In-carge" data-name="State
In-carge" transform="translate(1157 695)" fill="#21232a" font-size="20" font-family="HelveticaNeue-Bold, Helvetica Neue" font-weight="700"><tspan x="59.99" y="20">State</tspan><tspan x="45.11" y="45">In-carge</tspan></text>
    <line id="Line_72" data-name="Line 72" y2="336.672" transform="translate(900.5 677.402)" fill="none" stroke="#707070" stroke-width="1" opacity="0.2"/>
    <line id="Line_73" data-name="Line 73" y2="336.672" transform="translate(676.5 677.402)" fill="none" stroke="#707070" stroke-width="1" opacity="0.2"/>
    <text id="CSA" transform="translate(750 695)" fill="#21232a" font-size="20" font-family="HelveticaNeue-Bold, Helvetica Neue" font-weight="700"><tspan x="15.25" y="20">CSA</tspan></text>
    <line id="Line_74" data-name="Line 74" y2="336.672" transform="translate(452.5 677.402)" fill="none" stroke="#707070" stroke-width="1" opacity="0.2"/>
    <line id="Line_75" data-name="Line 75" x1="1122.5" transform="translate(303 869.5)" fill="none" stroke="#707070" stroke-width="1" opacity="0.2"/>
    <text id="Validate_whether_a_customer_is_active" data-name="Validate whether a customer is active" transform="translate(497 771)" fill="#707070" font-size="14" font-family="HelveticaNeue, Helvetica Neue"><tspan x="10.572" y="13">Validate whether a </tspan><tspan x="11.083" y="29">customer is active</tspan></text>
    <text id="View_the_expected_revenue_and_outstanding_from_each_customer_at_the_plant" data-name="View the expected revenue and outstanding from each customer at the plant" transform="translate(716 771)" fill="#707070" font-size="14" font-family="HelveticaNeue, Helvetica Neue"><tspan x="12.313" y="13">View the expected </tspan><tspan x="31.486" y="29">revenue and </tspan><tspan x="16.702" y="45">outstanding from </tspan><tspan x="3.738" y="61">each customer at the </tspan><tspan x="54.439" y="77">plant</tspan></text>
    <text id="Summary_of_collections_in_a_given_time_interval" data-name="Summary of collections in a given time interval" transform="translate(944 771)" fill="#707070" font-size="14" font-family="HelveticaNeue, Helvetica Neue"><tspan x="30.504" y="13">Summary of </tspan><tspan x="3.162" y="29">collections in a given </tspan><tspan x="30.511" y="45">time interval</tspan></text>
    <text id="Checking_the_cause_when_a_customer_comes_to_the_plant_to_complain_of_a_connection_issue" data-name="Checking the cause when a customer comes to the plant to complain of a connection issue" transform="translate(487 901)" fill="#707070" font-size="14" font-family="HelveticaNeue, Helvetica Neue"><tspan x="16.022" y="13">Checking the cause </tspan><tspan x="1.112" y="29">when a customer comes </tspan><tspan x="3.695" y="45">to the plant to complain </tspan><tspan x="11.36" y="61">of a connection issue</tspan></text>
    <text id="Prioritising_which_customers_or_ex-customers_the_sales_team_should_approach_for_settling_arrears" data-name="Prioritising which customers (or ex-customers) the sales team should approach for settling arrears" transform="translate(717 893)" fill="#707070" font-size="14" font-family="HelveticaNeue, Helvetica Neue"><tspan x="15.604" y="13">Prioritising which </tspan><tspan x="13.903" y="29">customers (or ex-</tspan><tspan x="4.432" y="45">customers) the sales </tspan><tspan x="30.353" y="61">team should </tspan><tspan x="4.306" y="77">approach for settling </tspan><tspan x="47.356" y="93">arrears</tspan></text>
    <text id="Comparing_different_plants_collection_performance_for_the_current_month_" data-name="Comparing different plants’ collection performance for the current month " transform="translate(941 902)" fill="#707070" font-size="14" font-family="HelveticaNeue, Helvetica Neue"><tspan x="9.242" y="13">Comparing different </tspan><tspan x="18.475" y="29">plants’ collection </tspan><tspan x="9.529" y="45">performance for the </tspan><tspan x="27.533" y="61">current month </tspan></text>
    <line id="Line_76" data-name="Line 76" y2="336.672" transform="translate(1124.5 677.402)" fill="none" stroke="#707070" stroke-width="1" opacity="0.2"/>
    <text id="Technician" transform="translate(494 695)" fill="#21232a" font-size="20" font-family="HelveticaNeue-Bold, Helvetica Neue" font-weight="700"><tspan x="20.59" y="20">Technician</tspan></text>
    <text id="View_customers_with_high_outstanding_accounts" data-name="View customers with high outstanding accounts" transform="translate(1175 771)" fill="#707070" font-size="14" font-family="HelveticaNeue, Helvetica Neue"><tspan x="2.946" y="13">View customers with </tspan><tspan x="15.112" y="29">high outstanding </tspan><tspan x="38.716" y="45">accounts</tspan></text>
    <text id="Reviewing_customer_payment_history_when_deciding_whether_to_deactivate_or_reactivate_an_account" data-name="Reviewing customer payment history when deciding whether to deactivate or reactivate an account" transform="translate(1172 900)" fill="#707070" font-size="14" font-family="HelveticaNeue, Helvetica Neue"><tspan x="6.982" y="13">Reviewing customer </tspan><tspan x="1.522" y="29">payment history when </tspan><tspan x="8.403" y="45">deciding whether to </tspan><tspan x="29.795" y="61">deactivate or </tspan><tspan x="3.209" y="77">reactivate an account</tspan></text>
    <path id="Path_2113" data-name="Path 2113" d="M525.566,657.47H347.385v-.677h178.3Z" transform="translate(1097.238 315.504)" fill="#3f3d56"/>
    <g id="Group_540" data-name="Group 540" transform="translate(40 -40)">
      <path id="Path_2114" data-name="Path 2114" d="M140.529,120.513a1.461,1.461,0,0,0-1.459,1.459v84.042a1.461,1.461,0,0,0,1.459,1.459H307.153a1.461,1.461,0,0,0,1.459-1.459V121.972a1.461,1.461,0,0,0-1.459-1.459Z" transform="translate(1197.733 647.932)" fill="#e6e6e6"/>
      <path id="Path_2115" data-name="Path 2115" d="M148.05,128.034a1.461,1.461,0,0,0-1.459,1.459v79.373a1.461,1.461,0,0,0,1.459,1.459H310.006a1.461,1.461,0,0,0,1.459-1.459V129.493a1.461,1.461,0,0,0-1.459-1.459Z" transform="translate(1192.546 642.745)" fill="#fff"/>
      <path id="Path_2116" data-name="Path 2116" d="M226.786,206.982H192.353a2.045,2.045,0,0,1-2.043-2.043V170.505a2.045,2.045,0,0,1,2.043-2.043h34.434a2.045,2.045,0,0,1,2.043,2.043v34.434A2.045,2.045,0,0,1,226.786,206.982Zm-34.434-37.936a1.461,1.461,0,0,0-1.459,1.459v34.434a1.461,1.461,0,0,0,1.459,1.459h34.434a1.461,1.461,0,0,0,1.459-1.459V170.505a1.461,1.461,0,0,0-1.459-1.459Z" transform="translate(1162.397 614.865)" fill="#3f3d56"/>
      <path id="Path_2117" data-name="Path 2117" d="M386.619,206.982H352.185a2.045,2.045,0,0,1-2.043-2.043V170.505a2.045,2.045,0,0,1,2.043-2.043h34.434a2.045,2.045,0,0,1,2.043,2.043v34.434A2.045,2.045,0,0,1,386.619,206.982Zm-34.434-37.936a1.461,1.461,0,0,0-1.459,1.459v34.434a1.461,1.461,0,0,0,1.459,1.459h34.434a1.461,1.461,0,0,0,1.459-1.459V170.505a1.461,1.461,0,0,0-1.459-1.459Z" transform="translate(1052.173 614.865)" fill="#e6e6e6"/>
      <path id="Path_2118" data-name="Path 2118" d="M361.943,178.8a1.461,1.461,0,0,0-1.459,1.459v29.181a1.461,1.461,0,0,0,1.459,1.459h29.181a1.461,1.461,0,0,0,1.459-1.459V180.264a1.461,1.461,0,0,0-1.459-1.459Z" transform="translate(1045.041 607.733)" fill="#e6e6e6"/>
      <path id="Path_2119" data-name="Path 2119" d="M202.581,178.8a1.461,1.461,0,0,0-1.459,1.459v29.181a1.461,1.461,0,0,0,1.459,1.459h29.181a1.461,1.461,0,0,0,1.459-1.459V180.264a1.461,1.461,0,0,0-1.459-1.459Z" transform="translate(1154.94 607.733)" fill="#3f3d56"/>
      <path id="Path_2120" data-name="Path 2120" d="M521.305,178.8a1.461,1.461,0,0,0-1.459,1.459v29.181a1.461,1.461,0,0,0,1.459,1.459h29.181a1.461,1.461,0,0,0,1.459-1.459V180.264a1.461,1.461,0,0,0-1.459-1.459Z" transform="translate(935.141 607.733)" fill="#00b0ff"/>
      <path id="Path_2121" data-name="Path 2121" d="M546.451,206.982H512.017a2.045,2.045,0,0,1-2.043-2.043V170.505a2.045,2.045,0,0,1,2.043-2.043h34.434a2.045,2.045,0,0,1,2.043,2.043v34.434A2.045,2.045,0,0,1,546.451,206.982Zm-34.434-37.936a1.461,1.461,0,0,0-1.459,1.459v34.434a1.461,1.461,0,0,0,1.459,1.459h34.434a1.461,1.461,0,0,0,1.459-1.459V170.505a1.461,1.461,0,0,0-1.459-1.459Z" transform="translate(941.949 614.865)" fill="#00b0ff"/>
      <circle id="Ellipse_104" data-name="Ellipse 104" cx="4.961" cy="4.961" r="4.961" transform="translate(1402.753 827.974)" fill="#e6e6e6" opacity="0.8"/>
      <circle id="Ellipse_105" data-name="Ellipse 105" cx="4.961" cy="4.961" r="4.961" transform="translate(1430.767 827.974)" fill="#e6e6e6" opacity="0.4"/>
      <circle id="Ellipse_106" data-name="Ellipse 106" cx="4.961" cy="4.961" r="4.961" transform="translate(1416.76 827.974)" fill="#e6e6e6" opacity="0.6"/>
      <circle id="Ellipse_107" data-name="Ellipse 107" cx="4.961" cy="4.961" r="4.961" transform="translate(1353.145 827.974)" fill="#3f3d56" opacity="0.8"/>
      <circle id="Ellipse_108" data-name="Ellipse 108" cx="4.961" cy="4.961" r="4.961" transform="translate(1381.159 827.974)" fill="#3f3d56" opacity="0.4"/>
      <circle id="Ellipse_109" data-name="Ellipse 109" cx="4.961" cy="4.961" r="4.961" transform="translate(1367.151 827.974)" fill="#3f3d56" opacity="0.6"/>
      <circle id="Ellipse_110" data-name="Ellipse 110" cx="4.961" cy="4.961" r="4.961" transform="translate(1452.36 827.974)" fill="#00b0ff" opacity="0.8"/>
      <circle id="Ellipse_111" data-name="Ellipse 111" cx="4.961" cy="4.961" r="4.961" transform="translate(1480.375 827.974)" fill="#00b0ff" opacity="0.4"/>
      <circle id="Ellipse_112" data-name="Ellipse 112" cx="4.961" cy="4.961" r="4.961" transform="translate(1466.368 827.974)" fill="#00b0ff" opacity="0.6"/>
      <path id="Path_2122" data-name="Path 2122" d="M407.363,96.551l-7-8.995,4.068-3.165,3.313,4.259,11.191-11.813,3.742,3.545Z" transform="translate(1060.7 715.455)" fill="#fff"/>
    </g>
    <g id="Group_541" data-name="Group 541" transform="translate(0 -48.818)">
      <path id="Path_2123" data-name="Path 2123" d="M755.754,437.1a1.263,1.263,0,0,0-1.581-.156l-9.655,6.289a1.27,1.27,0,0,0-.2,1.964l24.554,24.448a1.27,1.27,0,0,0,1.81-.017l8.047-8.328a1.273,1.273,0,0,0-.026-1.791Z" transform="translate(780.6 448.71)" fill="#3f3d56"/>
      <path id="Path_2124" data-name="Path 2124" d="M749.927,445.814l1-.637a.952.952,0,0,0,1.37,1.25l6.466-4.445a.952.952,0,0,0-.252-1.692l.515-.328a.346.346,0,0,1,.433.049l21.752,21.377a.346.346,0,0,1-.009.5l-7.9,7.7a.346.346,0,0,1-.482-.007l-22.951-23.222a.346.346,0,0,1,.058-.537Z" transform="translate(777.093 446.801)" fill="#fff"/>
      <path id="Path_2125" data-name="Path 2125" d="M640.078,339.37l-6.673,6.292L617.533,329.98l8.055-5.243Z" transform="translate(912.047 564.097)" fill="#00b0ff"/>
      <path id="Path_2126" data-name="Path 2126" d="M755.457,465.455a.231.231,0,0,0,0-.327l-1.388-1.388a.237.237,0,0,0-.327,0,.231.231,0,0,0,0,.327l1.388,1.388A.236.236,0,0,0,755.457,465.455Z" transform="translate(774.739 432.492)" fill="#e6e6e6"/>
      <path id="Path_2127" data-name="Path 2127" d="M761.332,471l-1.388-1.388a.231.231,0,0,0-.327.327l1.388,1.388a.231.231,0,1,0,.327-.327Z" transform="translate(771.203 428.959)" fill="#e6e6e6"/>
      <circle id="Ellipse_113" data-name="Ellipse 113" cx="1.559" cy="1.559" r="1.559" transform="translate(1550.412 907.309)" fill="#00b0ff"/>
      <path id="Path_2128" data-name="Path 2128" d="M924.408,438.918l-1.2,5.857a4.848,4.848,0,0,0,6.363,5.546h0a4.848,4.848,0,0,0,3.035-5.949l-1.616-5.454,14.622-42.77H933.181Z" transform="translate(672.742 473.143)" fill="#ffb8b8"/>
      <circle id="Ellipse_114" data-name="Ellipse 114" cx="11.332" cy="11.332" r="11.332" transform="translate(1572.658 804.222)" fill="#ffb8b8"/>
      <path id="Path_2129" data-name="Path 2129" d="M885.4,288.427l14.988-1.828c-3.438-4.311-4.739-8.812-3.656-13.526l-13.526,1.462Z" transform="translate(696.762 547.233)" fill="#ffb8b8"/>
      <path id="Path_2130" data-name="Path 2130" d="M841.6,366.6l35.459-8.042c7.579-5.895,12.5-17.587,16.306-31.725a21.626,21.626,0,0,0-12-25.521q-.351-.152-.709-.293l-7.988-3.143-13.16,1.1-4.7,1.28a5.325,5.325,0,0,0-3.864,4.343C844.64,327.754,840.479,349.237,841.6,366.6Z" transform="translate(721.919 532.305)" fill="#00b0ff"/>
      <path id="Path_2131" data-name="Path 2131" d="M804.756,246.642h15.719l-5.118-30.707-10.6,1.1Z" transform="translate(799.34 629.595)" fill="#00b0ff"/>
      <path id="Path_2132" data-name="Path 2132" d="M810.648,477.056h9.5l19.923-70,7.688,70H858.9l4.387-112.225c-1.674-8.61-1.638-18.872-.731-29.975,7.839-5.488,4.968-18.515,5.836-31.6a.5.5,0,0,0-.113-.351l-5.052-2.626a.494.494,0,0,0-.866.362c-.129,9.152,2.339,20.035-1.633,27.273-4.315-14.749-9.938-27.134-20.886-29.9a1.212,1.212,0,0,0-.629.012l-2.039.582a1.211,1.211,0,0,0-.291,2.2c10.015,6.187,16.488,16.547,16.9,34.05-7.793,11.028-15.381,17.556-29.042,25.585a5.093,5.093,0,0,0-2.479,3.872Z" transform="translate(740.442 532.242)" fill="#2f2e41"/>
      <path id="Path_2133" data-name="Path 2133" d="M875.207,247.627l8.036-1.522,4.781-8.167a10.858,10.858,0,0,0-1.271-12.716h0a10.858,10.858,0,0,0-9.635-3.517L866.7,223.192a6.877,6.877,0,0,0-5.828,7.828l7.015,1.194Z" transform="translate(710.252 578.223)" fill="#2f2e41"/>
      <path id="Path_2134" data-name="Path 2134" d="M777.127,757.407h16.741a5.507,5.507,0,0,0,5.45-6.3l-1.051-7.206-7.6-.563-15.1,7.063a3.677,3.677,0,0,0-2.1,3.68h0A3.677,3.677,0,0,0,777.127,757.407Z" transform="translate(762.835 264.138)" fill="#2f2e41"/>
      <path id="Path_2135" data-name="Path 2135" d="M872.648,757.407h16.741a5.507,5.507,0,0,0,5.45-6.3l-1.051-7.206-7.6-.563-15.1,7.063a3.677,3.677,0,0,0-2.1,3.68h0A3.677,3.677,0,0,0,872.648,757.407Z" transform="translate(705.332 264.138)" fill="#2f2e41"/>
      <path id="Path_2136" data-name="Path 2136" d="M782.111,377.786l-7.242,2.518a5.122,5.122,0,0,0-1.483,8.865h0a5.121,5.121,0,0,0,5.936.28l6.6-4.249,22.54-22.911,3.493-26.929a20.506,20.506,0,0,0-7.233-18.412h0l-7.35,41.021Z" transform="translate(764.052 520.821)" fill="#ffb9b9"/>
      <path id="Path_2137" data-name="Path 2137" d="M837.284,341.766h16.084L853,303.383h0A18.539,18.539,0,0,0,839,320.211Z" transform="translate(724.408 528.987)" fill="#00b0ff"/>
      <ellipse id="Ellipse_115" data-name="Ellipse 115" cx="1.99" cy="2.388" rx="1.99" ry="2.388" transform="translate(1578.692 814.706)" fill="#ffb8b8"/>
    </g>
  </g>
</svg>
