<svg xmlns="http://www.w3.org/2000/svg" width="582" height="275.872" viewBox="0 0 582 275.872">
  <g id="Group_2863" data-name="Group 2863" transform="translate(-701 -5667)">
    <text id="Report" transform="translate(741 5667)" fill="#21232a" font-size="20" font-family="HelveticaNeue-Bold, Helvetica Neue" font-weight="700"><tspan x="7.91" y="20">Report</tspan></text>
    <text id="Request" transform="translate(942 5667)" fill="#21232a" font-size="20" font-family="HelveticaNeue-Bold, Helvetica Neue" font-weight="700"><tspan x="12.87" y="20">Request</tspan></text>
    <text id="Completed" transform="translate(1150.75 5667)" fill="#21232a" font-size="20" font-family="HelveticaNeue-Bold, Helvetica Neue" font-weight="700"><tspan x="4.62" y="20">Completed</tspan></text>
    <text id="Overview_statistics_on_completed_and_pending_service_requests" data-name="Overview statistics on completed and pending service requests" transform="translate(739 5806)" fill="#707070" font-size="14" font-family="HelveticaNeue, Helvetica Neue"><tspan x="13.471" y="13">Overview </tspan><tspan x="4.903" y="28">statistics on </tspan><tspan x="9.173" y="43">completed </tspan><tspan x="3.335" y="58">and pending </tspan><tspan x="20.338" y="73">service </tspan><tspan x="15.529" y="88">requests</tspan></text>
    <text id="Detailed_list_of_pending_requests_and_personnel_assignments" data-name="Detailed list of pending requests and personnel assignments" transform="translate(952 5806)" fill="#707070" font-size="14" font-family="HelveticaNeue, Helvetica Neue"><tspan x="6.072" y="13">Detailed list </tspan><tspan x="9.047" y="28">of pending </tspan><tspan x="1.781" y="43">requests and </tspan><tspan x="11.644" y="58">personnel </tspan><tspan x="2.95" y="73">assignments</tspan></text>
    <text id="Record_of_all_completed_requests" data-name="Record of all completed requests" transform="translate(1165 5806)" fill="#707070" font-size="14" font-family="HelveticaNeue, Helvetica Neue"><tspan x="2.964" y="13">Record of all </tspan><tspan x="9.173" y="28">completed </tspan><tspan x="15.529" y="43">requests</tspan></text>
    <g id="Group_2641" data-name="Group 2641" transform="translate(32 340)">
      <path id="Path_2879" data-name="Path 2879" d="M-701.719-745.744c17.865,0,18.954,14.805,18.954,24.271q.112,95.463.011,190.926c-.013,13.419-10.5,23.777-24.436,23.836q-55.478.231-110.957-.007c-13.857-.062-24.276-10.637-24.52-24.474-.2-11.159-.093-22.324-.015-33.486.014-1.979-.687-4.968,2.647-4.851,2.9.1,2.27,2.858,2.283,4.708.077,10.662-.017,21.325.065,31.988.1,13.095,8.179,21.119,21.335,21.134q53.979.062,107.958,0c12.494-.013,20.711-8.135,20.721-20.641q.074-93.714.006-187.428c0-17.823-4.585-20.864-20.107-20.864-36.485,0-72.971-.2-109.456-.012-11.979.062-20.308,8.769-20.433,20.752-.148,14.16-.091,28.322-.011,42.483a16.444,16.444,0,0,1-2.478,8.958c-17.325,28.651-34.522,57.381-51.868,86.02a18.019,18.019,0,0,0-2.689,9.9c.1,12.994.074,25.99.027,38.984-.061,16.716-10.082,26.86-26.714,26.887-35.319.057-70.64-.093-105.959.083-11.875.059-27.354,0-27.354-15.336v-47.84c3.849-.731,5.01,1.147,4.978,4.721-.1,10.823-.009,21.648-.009,32.472,0,19.2,3.443,20.861,21,20.861q53.7,0,107.409,0c13.719-.013,21.57-7.965,21.623-21.837.049-12.989.164-25.98-.065-38.965a23.463,23.463,0,0,1,3.62-13.16c16.862-27.746,33.519-55.617,50.364-83.373a20.423,20.423,0,0,0,3.112-11.3c-.148-12.654.01-25.311-.068-37.967-.077-12.474,5.06-21.452,16.98-26.086a11.315,11.315,0,0,0,2.049-1.359Z" transform="translate(1933.708 6109.438)" fill="#6c7474"/>
      <path id="Path_2880" data-name="Path 2880" d="M-701.719-745.744c17.865,0,18.954,14.805,18.954,24.271q.112,95.463.011,190.926c-.013,13.419-10.5,23.777-24.436,23.836q-55.478.231-110.957-.007c-13.857-.062-24.276-10.637-24.52-24.474-.2-11.159-.093-22.324-.015-33.486.014-1.979-.687-4.968,2.647-4.851,2.9.1,2.27,2.858,2.283,4.708.077,10.662-.017,21.325.065,31.988.1,13.095,8.179,21.119,21.335,21.134q53.979.062,107.958,0c12.494-.013,20.711-8.135,20.721-20.641q.074-93.714.006-187.428c0-17.823-4.585-20.864-20.107-20.864-36.485,0-72.971-.2-109.456-.012-11.979.062-20.308,8.769-20.433,20.752-.148,14.16-.091,28.322-.011,42.483a16.444,16.444,0,0,1-2.478,8.958c-17.325,28.651-34.522,57.381-51.868,86.02a18.019,18.019,0,0,0-2.689,9.9c.1,12.994.074,25.99.027,38.984-.061,16.716-10.082,26.86-26.714,26.887-35.319.057-70.64-.093-105.959.083-11.875.059-27.354,0-27.354-15.336v-47.84c3.849-.731,5.01,1.147,4.978,4.721-.1,10.823-.009,21.648-.009,32.472,0,19.2,3.443,20.861,21,20.861q53.7,0,107.409,0c13.719-.013,21.57-7.965,21.623-21.837.049-12.989.164-25.98-.065-38.965a23.463,23.463,0,0,1,3.62-13.16c16.862-27.746,33.519-55.617,50.364-83.373a20.423,20.423,0,0,0,3.112-11.3c-.148-12.654.01-25.311-.068-37.967-.077-12.474,5.06-21.452,16.98-26.086a11.315,11.315,0,0,0,2.049-1.359Z" transform="translate(-13.708 4857.128) rotate(180)" fill="#6c7474"/>
      <g id="Group_501" data-name="Group 501" transform="translate(667.092 5365.29)">
        <path id="Path_2100" data-name="Path 2100" d="M223.564,175.84a9.13,9.13,0,1,0-9.129,9.13A9.13,9.13,0,0,0,223.564,175.84Z" fill="#707070"/>
      </g>
      <g id="Group_500" data-name="Group 500" transform="translate(668.092 5365.29)">
        <path id="Path_2099" data-name="Path 2099" d="M417.311,175.84a9.13,9.13,0,1,1,9.129,9.13A9.131,9.131,0,0,1,417.311,175.84Z" fill="#707070"/>
      </g>
      <g id="Group_862" data-name="Group 862" transform="translate(612.092 5250.29)">
        <path id="Path_2099-2" data-name="Path 2099" d="M417.311,175.84a9.13,9.13,0,1,1,9.129,9.13A9.131,9.131,0,0,1,417.311,175.84Z" fill="#707070"/>
      </g>
      <g id="Group_863" data-name="Group 863" transform="translate(400.092 5250.29)">
        <path id="Path_2099-3" data-name="Path 2099" d="M417.311,175.84a9.13,9.13,0,1,1,9.129,9.13A9.131,9.131,0,0,1,417.311,175.84Z" fill="#707070"/>
      </g>
    </g>
    <path id="check_1_" data-name="check (1)" d="M10.785,19.926a.973.973,0,0,0,.368.776,2.06,2.06,0,0,0,.606.342c.408.067,5.084.624,8.15.985l-.221,2.33c-2.388-.281-7.979-.943-8.3-1.009a3.864,3.864,0,0,1-1.417-.712,3.113,3.113,0,0,1-.695-.741l-.01.011L4.221,16.389a.976.976,0,0,0-1.486.015,1.269,1.269,0,0,0,.014,1.657l7.8,8.535a3.128,3.128,0,0,0,2.321,1.058H27.237V30H12.87a5.114,5.114,0,0,1-3.793-1.729l-7.8-8.535a3.807,3.807,0,0,1-.042-4.971A2.985,2.985,0,0,1,3.456,13.71a2.976,2.976,0,0,1,2.238,1.006l3.341,3.656a3.16,3.16,0,0,1,1.181-1.325A9.888,9.888,0,0,1,6.848,9.492C6.848,4.258,10.667,0,15.361,0a7.849,7.849,0,0,1,4.631,1.532L18.518,3.273a5.87,5.87,0,0,0-3.157-.929c-3.535,0-6.411,3.207-6.411,7.148s2.876,7.148,6.411,7.148c3.48,0,6.321-3.108,6.409-6.965l1.9-2.245a10.536,10.536,0,0,1,.2,2.062A9.935,9.935,0,0,1,20.786,16.8a11.72,11.72,0,0,1,5.365,2.436l1.086.866v2.882l-2.309-1.842a9.612,9.612,0,0,0-5.9-2.156H18.9l-7.271,0A.894.894,0,0,0,10.785,19.926ZM12.459,7l-1.448,1.7L15.6,13.553l8.517-10.06L22.584,1.885l-7.069,8.349Zm0,0" transform="translate(1193.513 5742.155)" fill="#707070"/>
    <g id="interview" transform="translate(971.1 5736.37)">
      <path id="Path_5172" data-name="Path 5172" d="M11.7,252.531a6.445,6.445,0,1,0-7.9,0A7.743,7.743,0,0,0,0,259.2v2.613a1.22,1.22,0,0,0,1.22,1.22H14.283a1.22,1.22,0,0,0,1.22-1.22V259.2A7.743,7.743,0,0,0,11.7,252.531Zm-7.958-5.086a4.006,4.006,0,1,1,4.006,4.006A4.01,4.01,0,0,1,3.746,247.445Zm9.318,13.15H2.439V259.2a5.312,5.312,0,1,1,10.624,0V260.6Zm0,0" transform="translate(0 -221.405)" fill="#707070"/>
      <path id="Path_5173" data-name="Path 5173" d="M213.616,0H197.939A5.136,5.136,0,0,0,192.8,5.139V28.653a1.221,1.221,0,0,0,1.951.976l4.9-3.675h13.963a5.136,5.136,0,0,0,5.139-5.139V5.139A5.136,5.136,0,0,0,213.616,0Zm2.7,20.815a2.7,2.7,0,0,1-2.7,2.7h-14.37a1.221,1.221,0,0,0-.732.244l-3.274,2.455V5.139a2.7,2.7,0,0,1,2.7-2.7h15.676a2.7,2.7,0,0,1,2.7,2.7Zm0,0" transform="translate(-177.124 0)" fill="#707070"/>
      <path id="Path_5174" data-name="Path 5174" d="M271.35,80.332H258.286a1.22,1.22,0,0,0,0,2.439H271.35a1.22,1.22,0,1,0,0-2.439Zm0,0" transform="translate(-236.165 -73.8)" fill="#707070"/>
      <path id="Path_5175" data-name="Path 5175" d="M271.35,144.6H258.286a1.22,1.22,0,0,0,0,2.439H271.35a1.22,1.22,0,1,0,0-2.439Zm0,0" transform="translate(-236.165 -132.844)" fill="#707070"/>
      <path id="Path_5176" data-name="Path 5176" d="M264.818,208.867h-6.532a1.22,1.22,0,0,0,0,2.439h6.532a1.22,1.22,0,1,0,0-2.439Zm0,0" transform="translate(-236.165 -191.885)" fill="#707070"/>
    </g>
    <g id="seo-report_2_" data-name="seo-report (2)" transform="translate(763.403 5731.906)">
      <path id="Path_5177" data-name="Path 5177" d="M259.343,109.45h7.622a.548.548,0,1,0,0-1.1h-7.622a.548.548,0,1,0,0,1.1Z" transform="translate(-243.421 -99.836)" fill="#707070"/>
      <path id="Path_5178" data-name="Path 5178" d="M258.8,141.536a.548.548,0,0,0,.548.548h7.622a.548.548,0,0,0,0-1.1h-7.622A.548.548,0,0,0,258.8,141.536Z" transform="translate(-243.421 -129.905)" fill="#707070"/>
      <path id="Path_5179" data-name="Path 5179" d="M259.343,174.72h7.622a.548.548,0,1,0,0-1.1h-7.622a.548.548,0,1,0,0,1.1Z" transform="translate(-243.421 -159.975)" fill="#707070"/>
      <path id="Path_5180" data-name="Path 5180" d="M273.8,356.3a.548.548,0,0,0-.548-.548h-7.086a.548.548,0,0,0,0,1.1h7.086A.548.548,0,0,0,273.8,356.3Z" transform="translate(-249.71 -327.788)" fill="#707070"/>
      <path id="Path_5181" data-name="Path 5181" d="M116.3,288.227a.548.548,0,0,0-.548-.548h-7.622a.548.548,0,0,0,0,1.1h7.622A.548.548,0,0,0,116.3,288.227Z" transform="translate(-104.091 -265.065)" fill="#707070"/>
      <path id="Path_5182" data-name="Path 5182" d="M108.126,256.142h7.622a.548.548,0,1,0,0-1.1h-7.622a.548.548,0,1,0,0,1.1Z" transform="translate(-104.091 -234.996)" fill="#707070"/>
      <path id="Path_5183" data-name="Path 5183" d="M105.764,72.694a5.683,5.683,0,1,0,5.683,5.683,5.69,5.69,0,0,0-5.683-5.683Zm0,10.188a4.5,4.5,0,0,1-.59-8.97v4.466a.59.59,0,0,0,.59.59h4.466A4.511,4.511,0,0,1,105.764,82.882Zm.59-5.094V73.912a4.514,4.514,0,0,1,3.876,3.876Z" transform="translate(-97.183 -66.98)" fill="#707070"/>
      <path id="Path_5184" data-name="Path 5184" d="M236.417,233.657v5.265a.956.956,0,0,0,.955.955h9.158a.956.956,0,0,0,.955-.955v-5.265a.956.956,0,0,0-.955-.955h-9.158a.956.956,0,0,0-.955.955Zm1.179.224h8.71V238.7H237.6Z" transform="translate(-222.802 -214.41)" fill="#707070"/>
      <path id="Path_5185" data-name="Path 5185" d="M100.078,345.034a.956.956,0,0,0,.955.955h1.6a.956.956,0,0,0,.955-.955v-8a.956.956,0,0,0-.955-.955h-1.6a.956.956,0,0,0-.955.955Zm1.179-7.773h1.154v7.549h-1.154Z" transform="translate(-97.18 -309.663)" fill="#707070"/>
      <path id="Path_5186" data-name="Path 5186" d="M156.4,362.775a.956.956,0,0,0-.955.955v5.9a.956.956,0,0,0,.955.955h1.6a.956.956,0,0,0,.955-.955v-5.9a.956.956,0,0,0-.955-.955Zm1.378,6.63h-1.154v-5.451h1.154Z" transform="translate(-148.198 -334.258)" fill="#707070"/>
      <path id="Path_5187" data-name="Path 5187" d="M211.773,401.226h1.6a.956.956,0,0,0,.955-.955v-3.285a.956.956,0,0,0-.955-.955h-1.6a.956.956,0,0,0-.955.955v3.285A.956.956,0,0,0,211.773,401.226ZM212,397.21h1.154v2.837H212Z" transform="translate(-199.215 -364.9)" fill="#707070"/>
      <path id="Path_5188" data-name="Path 5188" d="M273.254,390.03h-7.086a.548.548,0,1,0,0,1.1h7.086a.548.548,0,1,0,0-1.1Z" transform="translate(-249.709 -359.37)" fill="#707070"/>
      <path id="Path_5189" data-name="Path 5189" d="M273.254,424.307h-7.086a.548.548,0,1,0,0,1.1h7.086a.548.548,0,0,0,0-1.1Z" transform="translate(-249.709 -390.953)" fill="#707070"/>
      <path id="Path_5190" data-name="Path 5190" d="M92.935,7.31a.59.59,0,0,0,.59-.59V1.976A1.978,1.978,0,0,0,91.548,0H67.919a1.978,1.978,0,0,0-1.976,1.976v.752h-.752A1.978,1.978,0,0,0,63.215,4.7V29.963a.59.59,0,1,0,1.179,0V4.7a.8.8,0,0,1,.8-.8H88.82a.8.8,0,0,1,.8.8V38.271a.8.8,0,0,1-.8.8H65.191a.8.8,0,0,1-.8-.8V32.714a.59.59,0,1,0-1.179,0v5.557a1.978,1.978,0,0,0,1.976,1.976H88.82A1.978,1.978,0,0,0,90.8,38.271v-.752h.752a1.978,1.978,0,0,0,1.976-1.976V9.471a.59.59,0,0,0-1.179,0V35.543a.8.8,0,0,1-.8.8H90.8V4.7A1.978,1.978,0,0,0,88.82,2.728h-21.7V1.976a.8.8,0,0,1,.8-.8H91.548a.8.8,0,0,1,.8.8V6.72a.59.59,0,0,0,.59.59Z" transform="translate(-63.215 0)" fill="#707070"/>
    </g>
  </g>
</svg>
