<svg xmlns="http://www.w3.org/2000/svg" width="1283.885" height="293.113" viewBox="0 0 1283.885 293.113">
  <g id="Group_2667" data-name="Group 2667" transform="translate(-291 -6664.9)">
    <text id="Cluster_In-charge" data-name="Cluster In-charge" transform="translate(767 6674)" fill="#21232a" font-size="20" font-family="HelveticaNeue-Bold, Helvetica Neue" font-weight="700"><tspan x="1.96" y="20">Cluster In-charge</tspan></text>
    <text id="State_In-carge" data-name="State In-carge" transform="translate(1016 6674)" fill="#21232a" font-size="20" font-family="HelveticaNeue-Bold, Helvetica Neue" font-weight="700"><tspan x="17.32" y="20">State In-carge</tspan></text>
    <line id="Line_153" data-name="Line 153" y2="293.113" transform="translate(973.5 6664.9)" fill="none" stroke="#707070" stroke-width="1" opacity="0.2"/>
    <line id="Line_154" data-name="Line 154" y2="293.113" transform="translate(732.5 6664.9)" fill="none" stroke="#707070" stroke-width="1" opacity="0.2"/>
    <text id="To_register_new_deposits_" data-name="To register new deposits " transform="translate(542 6755)" fill="#707070" font-size="14" font-family="HelveticaNeue, Helvetica Neue"><tspan x="23.061" y="13">To register new </tspan><tspan x="43.662" y="29">deposits </tspan></text>
    <text id="To_view_the_cash_flow_for_plants_in_the_cluster" data-name="To view the cash flow for plants in the cluster" transform="translate(772 6755)" fill="#707070" font-size="14" font-family="HelveticaNeue, Helvetica Neue"><tspan x="3.255" y="13">To view the cash flow for </tspan><tspan x="19.299" y="29">plants in the cluster</tspan></text>
    <text id="To_view_the_cash_flow_for_plants_in_the_state" data-name="To view the cash flow for plants in the state" transform="translate(1019 6755)" fill="#707070" font-size="14" font-family="HelveticaNeue, Helvetica Neue"><tspan x="4.755" y="13">To view the cash flow for </tspan><tspan x="26.371" y="29">plants in the state</tspan></text>
    <text id="Depositing_cash_collected_from_customers_into_the_company_bank_account" data-name="Depositing cash collected from customers into the company bank account" transform="translate(539 6867)" fill="#707070" font-size="14" font-family="HelveticaNeue, Helvetica Neue"><tspan x="22.565" y="13">Depositing cash </tspan><tspan x="28.27" y="29">collected from </tspan><tspan x="14.648" y="45">customers into the </tspan><tspan x="26.569" y="61">company bank </tspan><tspan x="47.716" y="77">account</tspan></text>
    <text id="Checking_the_amount_of_collected_cash_is_still_with_filed_agents_and_is_yet_to_be_deposited" data-name="Checking the amount of collected cash is still with filed agents and is yet to be deposited" transform="translate(771 6867)" fill="#707070" font-size="14" font-family="HelveticaNeue, Helvetica Neue"><tspan x="5.918" y="13">Checking the amount of </tspan><tspan x="1.41" y="29">collected cash is still with </tspan><tspan x="4.504" y="45">filed agents and is yet to </tspan><tspan x="39.896" y="61">be deposited</tspan></text>
    <text id="Ensuring_bank_deposits_are_going_through_correctly_and_are_happening_on_schedule" data-name="Ensuring bank deposits are going through correctly, and are happening on schedule" transform="translate(1019 6867)" fill="#707070" font-size="14" font-family="HelveticaNeue, Helvetica Neue"><tspan x="8.979" y="13">Ensuring bank deposits </tspan><tspan x="27.263" y="29">are going through </tspan><tspan x="28.565" y="45">correctly, and are </tspan><tspan x="9.364" y="61">happening on schedule</tspan></text>
    <text id="Main_Purpose" data-name="Main
Purpose" transform="translate(321 6753)" fill="#21232a" font-size="20" font-family="HelveticaNeue-Bold, Helvetica Neue" font-weight="700"><tspan x="27.18" y="20">Main</tspan><tspan x="10.68" y="45">Purpose</tspan></text>
    <text id="Example_Use_Case" data-name="Example
Use Case" transform="translate(302 6885)" fill="#21232a" font-size="20" font-family="HelveticaNeue-Bold, Helvetica Neue" font-weight="700"><tspan x="27.92" y="20">Example</tspan><tspan x="23.44" y="45">Use Case</tspan></text>
    <line id="Line_155" data-name="Line 155" x1="934.5" transform="translate(291 6842.5)" fill="none" stroke="#707070" stroke-width="1" opacity="0.2"/>
    <text id="CSA" transform="translate(555 6674)" fill="#21232a" font-size="20" font-family="HelveticaNeue-Bold, Helvetica Neue" font-weight="700"><tspan x="36.75" y="20">CSA</tspan></text>
    <line id="Line_156" data-name="Line 156" y2="293.113" transform="translate(491.5 6664.9)" fill="none" stroke="#707070" stroke-width="1" opacity="0.2"/>
    <g id="Group_2666" data-name="Group 2666" transform="translate(15 37.634)">
      <path id="Path_4373" data-name="Path 4373" d="M1159.937,695.423s-40.48-43.463-6.846-90.518c29.843-41.75,64.637-38.9,90.164-21.954,10.872,7.216,42.219.889,68.9-41.593,36.385-57.935,162.506-22.8,139.51,66.337-11.128,43.135,33.868,44.7,10.941,87.82Z" transform="translate(73.604 6157.366)" fill="#bebebe" opacity="0.448"/>
      <g id="Group_2589" data-name="Group 2589" transform="translate(1359.211 6791.416)">
        <g id="Group_2585" data-name="Group 2585" transform="translate(4.682 55.264)">
          <path id="Path_4374" data-name="Path 4374" d="M2269.986,1784.052l-.005,3.147a1.326,1.326,0,0,1-.183.677,1.106,1.106,0,0,1-.5.452.9.9,0,0,1-.195.062.926.926,0,0,1-.187.019l-43.882-.1a1.141,1.141,0,0,1-1.058-1.153c0-.021,0-.042,0-.062l.006-3.147c0-.021,0-.042,0-.062a1.139,1.139,0,0,1,1.063-1.148l43.882.1a.945.945,0,0,1,.381.083,1.107,1.107,0,0,1,.5.455A1.319,1.319,0,0,1,2269.986,1784.052Z" transform="translate(-2223.975 -1782.733)" fill="#707070"/>
          <path id="Path_4375" data-name="Path 4375" d="M2248.43,1788.359l-23.509-.056a1.094,1.094,0,0,1-.945-1.152c0-.021,0-.042,0-.063l.006-3.147c0-.021,0-.041,0-.062a1.093,1.093,0,0,1,.949-1.148l20.623.049A10.386,10.386,0,0,0,2248.43,1788.359Z" transform="translate(-2223.975 -1782.731)" fill="#707070"/>
          <g id="Group_2584" data-name="Group 2584" transform="translate(16.118 0.036)">
            <rect id="Rectangle_715" data-name="Rectangle 715" width="5.572" height="0.499" transform="matrix(0.002, -1, 1, 0.002, 24.045, 5.629)" fill="#707070"/>
            <rect id="Rectangle_716" data-name="Rectangle 716" width="5.572" height="0.499" transform="translate(22.357 5.625) rotate(-89.86)" fill="#707070"/>
            <rect id="Rectangle_717" data-name="Rectangle 717" width="5.572" height="0.499" transform="matrix(0.003, -1, 1, 0.003, 20.331, 5.62)" fill="#707070"/>
            <rect id="Rectangle_718" data-name="Rectangle 718" width="5.572" height="0.499" transform="translate(17.229 5.613) rotate(-89.86)" fill="#707070"/>
            <rect id="Rectangle_719" data-name="Rectangle 719" width="5.572" height="0.499" transform="matrix(0.002, -1, 1, 0.002, 13.948, 5.605)" fill="#707070"/>
            <rect id="Rectangle_720" data-name="Rectangle 720" width="5.572" height="0.499" transform="matrix(0.002, -1, 1, 0.002, 8.917, 5.593)" fill="#707070"/>
            <rect id="Rectangle_721" data-name="Rectangle 721" width="5.572" height="0.499" transform="translate(4.207 5.582) rotate(-89.876)" fill="#707070"/>
            <rect id="Rectangle_722" data-name="Rectangle 722" width="5.572" height="0.499" transform="translate(0 5.572) rotate(-89.844)" fill="#707070"/>
            <rect id="Rectangle_723" data-name="Rectangle 723" width="5.572" height="0.499" transform="matrix(0.002, -1, 1, 0.002, 25.652, 5.633)" fill="#707070"/>
            <rect id="Rectangle_724" data-name="Rectangle 724" width="5.572" height="0.499" transform="translate(26.715 5.636) rotate(-89.89)" fill="#707070"/>
            <rect id="Rectangle_725" data-name="Rectangle 725" width="5.572" height="0.499" transform="matrix(0.002, -1, 1, 0.002, 27.738, 5.638)" fill="#707070"/>
            <path id="Path_4376" data-name="Path 4376" d="M2545.389,1783.478l-.01,5.572h.312a.918.918,0,0,0,.187-.019l.01-5.533a.914.914,0,0,0-.187-.02Z" transform="translate(-2516.867 -1783.41)" fill="#707070"/>
            <path id="Path_4377" data-name="Path 4377" d="M2550.382,1784.079l-.01,5.409a1.107,1.107,0,0,0,.5-.453l.008-4.5A1.108,1.108,0,0,0,2550.382,1784.079Z" transform="translate(-2521.167 -1783.928)" fill="#707070"/>
          </g>
        </g>
        <g id="Group_2587" data-name="Group 2587" transform="translate(0 49.681)">
          <path id="Path_4378" data-name="Path 4378" d="M2236.271,1743.843l-.006,3.147a1.328,1.328,0,0,1-.183.677,1.108,1.108,0,0,1-.5.453.9.9,0,0,1-.194.062.926.926,0,0,1-.187.019l-43.882-.1a1.14,1.14,0,0,1-1.058-1.153c0-.021,0-.042,0-.063l.006-3.147c0-.021,0-.042,0-.062a1.139,1.139,0,0,1,1.063-1.148l43.882.1a.833.833,0,0,1,.084,0l.036,0,.039.006.028.005a.913.913,0,0,1,.194.063l.027.013.027.014.054.03.03.02.027.018.05.036c.019.015.037.03.055.047s.027.025.041.038l0,0,.027.027c.027.028.053.059.077.091l.021.028c.007.009.013.019.02.03s.027.041.039.062A1.322,1.322,0,0,1,2236.271,1743.843Z" transform="translate(-2190.26 -1742.524)" fill="#707070"/>
          <path id="Path_4379" data-name="Path 4379" d="M2214.715,1748.15l-23.509-.056a1.093,1.093,0,0,1-.944-1.153c0-.021,0-.041,0-.062l.006-3.147c0-.021,0-.041,0-.062a1.092,1.092,0,0,1,.949-1.148l20.622.049c.01.045.019.091.029.137A10.308,10.308,0,0,0,2214.715,1748.15Z" transform="translate(-2190.26 -1742.522)" fill="#707070"/>
          <g id="Group_2586" data-name="Group 2586" transform="translate(16.12 0.036)">
            <rect id="Rectangle_726" data-name="Rectangle 726" width="5.572" height="0.499" transform="translate(24.043 5.629) rotate(-89.86)" fill="#707070"/>
            <rect id="Rectangle_727" data-name="Rectangle 727" width="5.572" height="0.499" transform="translate(22.356 5.625) rotate(-89.876)" fill="#707070"/>
            <rect id="Rectangle_728" data-name="Rectangle 728" width="5.572" height="0.499" transform="matrix(0.002, -1, 1, 0.002, 20.331, 5.62)" fill="#707070"/>
            <rect id="Rectangle_729" data-name="Rectangle 729" width="5.572" height="0.499" transform="matrix(0.002, -1, 1, 0.002, 17.227, 5.613)" fill="#707070"/>
            <rect id="Rectangle_730" data-name="Rectangle 730" width="5.572" height="0.499" transform="translate(13.947 5.605) rotate(-89.876)" fill="#707070"/>
            <rect id="Rectangle_731" data-name="Rectangle 731" width="5.572" height="0.499" transform="matrix(0.002, -1, 1, 0.002, 8.915, 5.593)" fill="#707070"/>
            <rect id="Rectangle_732" data-name="Rectangle 732" width="5.572" height="0.499" transform="translate(4.206 5.582) rotate(-89.876)" fill="#707070"/>
            <rect id="Rectangle_733" data-name="Rectangle 733" width="5.572" height="0.499" transform="translate(0 5.572) rotate(-89.876)" fill="#707070"/>
            <rect id="Rectangle_734" data-name="Rectangle 734" width="5.572" height="0.499" transform="matrix(0.002, -1, 1, 0.002, 25.65, 5.633)" fill="#707070"/>
            <rect id="Rectangle_735" data-name="Rectangle 735" width="5.572" height="0.499" transform="translate(26.712 5.636) rotate(-89.86)" fill="#707070"/>
            <rect id="Rectangle_736" data-name="Rectangle 736" width="5.572" height="0.499" transform="matrix(0.002, -1, 1, 0.002, 27.737, 5.638)" fill="#707070"/>
            <path id="Path_4380" data-name="Path 4380" d="M2511.673,1743.268l-.01,5.573h.312a.915.915,0,0,0,.187-.019l.01-5.533a.9.9,0,0,0-.187-.02Z" transform="translate(-2483.153 -1743.2)" fill="#707070"/>
            <path id="Path_4381" data-name="Path 4381" d="M2516.667,1743.87l-.01,5.408a1.107,1.107,0,0,0,.5-.453l.008-4.5A1.108,1.108,0,0,0,2516.667,1743.87Z" transform="translate(-2487.454 -1743.719)" fill="#707070"/>
          </g>
        </g>
        <path id="Path_4382" data-name="Path 4382" d="M2252.67,1704.743l-.006,3.147a1.322,1.322,0,0,1-.183.677,1.109,1.109,0,0,1-.5.453.9.9,0,0,1-.195.062.923.923,0,0,1-.187.019l-43.882-.1a.946.946,0,0,1-.489-.139,1.234,1.234,0,0,1-.566-.96c0-.018,0-.036,0-.054s0-.041,0-.062l.005-3.147c0-.021,0-.042,0-.062a1.139,1.139,0,0,1,1.063-1.148l43.882.1a.929.929,0,0,1,.188.02.873.873,0,0,1,.194.063,1.107,1.107,0,0,1,.5.455A1.324,1.324,0,0,1,2252.67,1704.743Z" transform="translate(-2204.382 -1659.172)" fill="#707070"/>
        <path id="Path_4383" data-name="Path 4383" d="M2231.114,1709.05l-23.509-.056a.781.781,0,0,1-.437-.138,1.261,1.261,0,0,1-.5-.96c0-.018,0-.036,0-.054s0-.042,0-.062l.005-3.147c0-.021,0-.042,0-.062a1.093,1.093,0,0,1,.949-1.148l20.622.049a10.487,10.487,0,0,0,2.733,5.441Z" transform="translate(-2204.382 -1659.171)" fill="#707070"/>
        <path id="Path_4384" data-name="Path 4384" d="M2260.313,1664.633l-.005,3.147a1.326,1.326,0,0,1-.183.677,1.1,1.1,0,0,1-.5.453.91.91,0,0,1-.194.062.9.9,0,0,1-.187.019l-43.882-.1a1.14,1.14,0,0,1-1.059-1.152c0-.021,0-.042,0-.062l.006-3.147c0-.021,0-.042,0-.062a1.161,1.161,0,0,1,.937-1.139.857.857,0,0,1,.126-.008l43.882.1a.905.905,0,0,1,.187.02.9.9,0,0,1,.194.063,1.107,1.107,0,0,1,.5.455A1.323,1.323,0,0,1,2260.313,1664.633Z" transform="translate(-2210.964 -1624.632)" fill="#707070"/>
        <path id="Path_4385" data-name="Path 4385" d="M2238.758,1668.938l-23.509-.056a1.094,1.094,0,0,1-.945-1.153c0-.021,0-.042,0-.062l.006-3.147c0-.021,0-.042,0-.062a1.134,1.134,0,0,1,.837-1.14.688.688,0,0,1,.112-.009l20.622.049s0,.006,0,.009A10.382,10.382,0,0,0,2238.758,1668.938Z" transform="translate(-2210.964 -1624.629)" fill="#707070"/>
        <path id="Path_4386" data-name="Path 4386" d="M2237.152,1624.51l-.006,3.147a1.322,1.322,0,0,1-.183.677,1.107,1.107,0,0,1-.5.453.888.888,0,0,1-.194.062l-.062.011-.035,0-.034,0-.056,0-43.882-.1a1.14,1.14,0,0,1-1.058-1.153c0-.021,0-.042,0-.062l.006-3.147c0-.021,0-.042,0-.062s0-.034,0-.051a1.183,1.183,0,0,1,.8-1.06l.032-.009a.933.933,0,0,1,.23-.029l43.882.1c.032,0,.064,0,.1.005l.042.005h0l.05.01a.9.9,0,0,1,.194.063,1.107,1.107,0,0,1,.5.455A1.316,1.316,0,0,1,2237.152,1624.51Z" transform="translate(-2191.019 -1590.08)" fill="#707070"/>
        <path id="Path_4387" data-name="Path 4387" d="M2215.6,1628.818l-23.509-.056a1.094,1.094,0,0,1-.945-1.153c0-.021,0-.042,0-.062l.006-3.147c0-.021,0-.042,0-.062s0-.034,0-.051a1.16,1.16,0,0,1,.737-1.068.313.313,0,0,1,.041-.01.735.735,0,0,1,.168-.019l20.622.049c0,.013.005.026.008.04a10.37,10.37,0,0,0,2.859,5.531Z" transform="translate(-2191.019 -1590.08)" fill="#707070"/>
        <path id="Path_4388" data-name="Path 4388" d="M2236.562,1584.666l-.006,3.147a1.325,1.325,0,0,1-.183.677,1.11,1.11,0,0,1-.5.453.875.875,0,0,1-.152.052h0l-.042.01a.9.9,0,0,1-.187.019l-43.882-.1a.87.87,0,0,1-.137-.011.51.51,0,0,1-.052-.01,1.176,1.176,0,0,1-.869-1.132c0-.021,0-.042,0-.062l.005-3.147c0-.021,0-.042,0-.062a1.138,1.138,0,0,1,1.063-1.148l43.882.1c.028,0,.056,0,.084,0l.036,0,.039.006.028.005a.9.9,0,0,1,.194.063l.028.013.027.013.053.03.057.037.05.036c.019.015.037.03.055.047s.028.025.041.038l0,0,.027.028a1.171,1.171,0,0,1,.077.091l.021.028.02.03c.013.02.027.041.039.062A1.324,1.324,0,0,1,2236.562,1584.666Z" transform="translate(-2190.51 -1555.769)" fill="#707070"/>
        <path id="Path_4389" data-name="Path 4389" d="M2215.005,1588.973l-23.509-.056-.056,0c-.021,0-.04,0-.06-.008a1.136,1.136,0,0,1-.829-1.143c0-.021,0-.042,0-.062l.005-3.147c0-.021,0-.042,0-.063a1.092,1.092,0,0,1,.949-1.148l20.621.049c.009.045.019.091.029.137a10.341,10.341,0,0,0,2.807,5.4Z" transform="translate(-2190.51 -1555.768)" fill="#707070"/>
        <path id="Path_4390" data-name="Path 4390" d="M2252.96,1545.565l-.006,3.147a1.32,1.32,0,0,1-.183.677,1.106,1.106,0,0,1-.5.453.954.954,0,0,1-.381.081l-43.882-.1a.952.952,0,0,1-.489-.139,1.234,1.234,0,0,1-.566-.96c0-.018,0-.036,0-.054s0-.041,0-.062l.006-3.147c0-.021,0-.042,0-.062a1.139,1.139,0,0,1,1.063-1.148l43.882.1a.905.905,0,0,1,.187.02.89.89,0,0,1,.194.063,1.107,1.107,0,0,1,.5.455A1.326,1.326,0,0,1,2252.96,1545.565Z" transform="translate(-2204.632 -1522.098)" fill="#707070"/>
        <path id="Path_4391" data-name="Path 4391" d="M2231.4,1549.872l-23.509-.056a.78.78,0,0,1-.437-.139,1.262,1.262,0,0,1-.5-.96c0-.018,0-.036,0-.054s0-.041,0-.062l.006-3.147c0-.021,0-.042,0-.062a1.093,1.093,0,0,1,.949-1.148l20.622.049a10.492,10.492,0,0,0,2.733,5.442Q2231.331,1549.8,2231.4,1549.872Z" transform="translate(-2204.632 -1522.096)" fill="#707070"/>
        <path id="Path_4392" data-name="Path 4392" d="M2278.859,1505.5l-.006,3.147a1.332,1.332,0,0,1-.183.677,1.107,1.107,0,0,1-.5.453.952.952,0,0,1-.382.081l-43.882-.1a1.14,1.14,0,0,1-1.059-1.153c0-.021,0-.042,0-.062l.006-3.147c0-.021,0-.042,0-.062a1.162,1.162,0,0,1,.937-1.14.909.909,0,0,1,.125-.008l43.882.1a.888.888,0,0,1,.188.02.914.914,0,0,1,.194.063,1.11,1.11,0,0,1,.5.455A1.325,1.325,0,0,1,2278.859,1505.5Z" transform="translate(-2226.934 -1487.594)" fill="#707070"/>
        <path id="Path_4393" data-name="Path 4393" d="M2257.3,1509.8l-23.509-.056a1.094,1.094,0,0,1-.945-1.153c0-.021,0-.042,0-.062l.006-3.147c0-.021,0-.042,0-.062a1.135,1.135,0,0,1,.837-1.14.7.7,0,0,1,.112-.008l20.622.049,0,.009A10.382,10.382,0,0,0,2257.3,1509.8Z" transform="translate(-2226.934 -1487.592)" fill="#707070"/>
        <path id="Path_4394" data-name="Path 4394" d="M2237.442,1465.333l-.005,3.147a1.328,1.328,0,0,1-.183.677,1.106,1.106,0,0,1-.5.453.892.892,0,0,1-.194.062l-.062.011c-.017,0-.033,0-.049.005l-.025,0h-.052l-43.882-.1a1.14,1.14,0,0,1-1.058-1.153c0-.021,0-.041,0-.062l.005-3.147c0-.021,0-.042,0-.062a1.139,1.139,0,0,1,1.063-1.148l43.882.1.057,0a.924.924,0,0,1,.131.018.953.953,0,0,1,.286.11c.019.011.037.021.055.034l.006,0,.053.038.009.007a.555.555,0,0,1,.047.039.993.993,0,0,1,.106.106c.01.012.02.023.03.036l.005.007.018.023,0,0,.031.044c.014.022.028.043.042.066A1.319,1.319,0,0,1,2237.442,1465.333Z" transform="translate(-2191.269 -1453.007)" fill="#707070"/>
        <path id="Path_4395" data-name="Path 4395" d="M2215.886,1469.64l-23.509-.056a1.094,1.094,0,0,1-.945-1.153c0-.021,0-.042,0-.062l.005-3.147c0-.021,0-.042,0-.062a1.093,1.093,0,0,1,.949-1.148l20.622.049c.008.042.017.085.027.129a10.315,10.315,0,0,0,2.841,5.441Z" transform="translate(-2191.269 -1453.005)" fill="#707070"/>
        <path id="Path_4396" data-name="Path 4396" d="M2260.747,1426.186l-.006,3.147a1.324,1.324,0,0,1-.183.677,1.108,1.108,0,0,1-.5.453.9.9,0,0,1-.194.062.917.917,0,0,1-.187.019l-43.882-.1a.947.947,0,0,1-.474-.13,1.229,1.229,0,0,1-.581-.974c0-.016,0-.033,0-.05s0-.041,0-.062l.006-3.147c0-.021,0-.042,0-.062a1.161,1.161,0,0,1,.937-1.139.825.825,0,0,1,.126-.009l43.882.1a.937.937,0,0,1,.381.083,1.108,1.108,0,0,1,.5.455A1.324,1.324,0,0,1,2260.747,1426.186Z" transform="translate(-2211.337 -1419.296)" fill="#707070"/>
        <path id="Path_4397" data-name="Path 4397" d="M2239.191,1430.493l-23.509-.056a.776.776,0,0,1-.423-.13,1.256,1.256,0,0,1-.519-.973c0-.016,0-.033,0-.05s0-.042,0-.062l.006-3.147c0-.021,0-.042,0-.062a1.135,1.135,0,0,1,.837-1.14.69.69,0,0,1,.112-.008l20.622.049a.06.06,0,0,0,0,.009,10.473,10.473,0,0,0,2.74,5.441C2239.1,1430.408,2239.145,1430.451,2239.191,1430.493Z" transform="translate(-2211.337 -1419.294)" fill="#707070"/>
        <path id="Path_4398" data-name="Path 4398" d="M2237.586,1386.065l-.006,3.147a1.323,1.323,0,0,1-.184.677,1.1,1.1,0,0,1-.5.453.881.881,0,0,1-.194.062l-.062.011-.034,0-.035,0-.056,0-43.882-.1a1.14,1.14,0,0,1-1.058-1.153c0-.021,0-.041,0-.062l.006-3.147c0-.021,0-.042,0-.062a1.139,1.139,0,0,1,1.063-1.148l43.882.1a.914.914,0,0,1,.187.02.879.879,0,0,1,.194.063,1.105,1.105,0,0,1,.5.455A1.319,1.319,0,0,1,2237.586,1386.065Z" transform="translate(-2191.392 -1384.746)" fill="#707070"/>
        <path id="Path_4399" data-name="Path 4399" d="M2216.03,1390.372l-23.509-.056a1.094,1.094,0,0,1-.945-1.153c0-.021,0-.042,0-.062l.006-3.147c0-.021,0-.042,0-.062a1.093,1.093,0,0,1,.949-1.148l20.622.049a10.393,10.393,0,0,0,2.867,5.571Z" transform="translate(-2191.392 -1384.744)" fill="#707070"/>
        <g id="Group_2588" data-name="Group 2588" transform="translate(16.161 0.036)">
          <rect id="Rectangle_737" data-name="Rectangle 737" width="5.572" height="0.499" transform="translate(26.28 49.881) rotate(-89.876)" fill="#707070"/>
          <rect id="Rectangle_738" data-name="Rectangle 738" width="5.572" height="0.499" transform="translate(24.593 49.877) rotate(-89.891)" fill="#707070"/>
          <rect id="Rectangle_739" data-name="Rectangle 739" width="5.572" height="0.499" transform="translate(22.568 49.872) rotate(-89.892)" fill="#707070"/>
          <rect id="Rectangle_740" data-name="Rectangle 740" width="5.572" height="0.499" transform="translate(19.464 49.864) rotate(-89.876)" fill="#707070"/>
          <rect id="Rectangle_741" data-name="Rectangle 741" width="5.572" height="0.499" transform="matrix(0.002, -1, 1, 0.002, 16.182, 49.856)" fill="#707070"/>
          <rect id="Rectangle_742" data-name="Rectangle 742" width="5.572" height="0.499" transform="translate(11.151 49.845) rotate(-89.86)" fill="#707070"/>
          <rect id="Rectangle_743" data-name="Rectangle 743" width="5.572" height="0.499" transform="translate(6.442 49.833) rotate(-89.876)" fill="#707070"/>
          <rect id="Rectangle_744" data-name="Rectangle 744" width="5.572" height="0.499" transform="translate(2.236 49.823) rotate(-89.874)" fill="#707070"/>
          <rect id="Rectangle_745" data-name="Rectangle 745" width="5.572" height="0.499" transform="translate(27.887 49.884) rotate(-89.876)" fill="#707070"/>
          <rect id="Rectangle_746" data-name="Rectangle 746" width="5.572" height="0.499" transform="translate(28.949 49.887) rotate(-89.876)" fill="#707070"/>
          <rect id="Rectangle_747" data-name="Rectangle 747" width="5.572" height="0.499" transform="matrix(0.002, -1, 1, 0.002, 29.973, 49.889)" fill="#707070"/>
          <path id="Path_4400" data-name="Path 4400" d="M2528.074,1704.168l-.01,5.572h.312a.929.929,0,0,0,.187-.019l.01-5.534a.91.91,0,0,0-.187-.02Z" transform="translate(-2497.318 -1659.849)" fill="#707070"/>
          <path id="Path_4401" data-name="Path 4401" d="M2533.066,1704.769l-.01,5.408a1.108,1.108,0,0,0,.5-.452l.008-4.5A1.107,1.107,0,0,0,2533.066,1704.769Z" transform="translate(-2501.617 -1660.367)" fill="#707070"/>
          <rect id="Rectangle_748" data-name="Rectangle 748" width="5.572" height="0.499" transform="translate(12.213 44.275) rotate(-89.86)" fill="#707070"/>
          <rect id="Rectangle_749" data-name="Rectangle 749" width="5.572" height="0.499" transform="translate(7.503 44.263) rotate(-89.876)" fill="#707070"/>
          <rect id="Rectangle_750" data-name="Rectangle 750" width="5.572" height="0.499" transform="matrix(0.002, -1, 1, 0.002, 3.297, 44.254)" fill="#707070"/>
          <path id="Path_4402" data-name="Path 4402" d="M2512.892,1567.066l.01-5.572h-.437c.023,0,.046-.006.069-.011l.01-5.533a.9.9,0,0,0-.092-.015l.01-5.4h.194l-.01,5.353a1.105,1.105,0,0,0,.5-.453l.008-4.5a1.127,1.127,0,0,0-.4-.4h.174l.01-5.572h-.5l-.01,5.45a.907.907,0,0,0-.159-.015h-.312l-.01,5.572h.092l-.01,5.532h.312l.057,0-.01,5.567Z" transform="translate(-2483.444 -1522.75)" fill="#707070"/>
          <rect id="Rectangle_751" data-name="Rectangle 751" width="5.572" height="0.499" transform="matrix(0.002, -1, 1, 0.002, 30.009, 44.317)" fill="#707070"/>
          <rect id="Rectangle_752" data-name="Rectangle 752" width="5.572" height="0.499" transform="matrix(0.002, -1, 1, 0.002, 31.034, 44.319)" fill="#707070"/>
          <path id="Path_4403" data-name="Path 4403" d="M2535.716,1664.056l-.01,5.572h.312a.922.922,0,0,0,.188-.019l.01-5.533a.9.9,0,0,0-.187-.02Z" transform="translate(-2503.899 -1625.307)" fill="#707070"/>
          <path id="Path_4404" data-name="Path 4404" d="M2540.708,1664.657l-.01,5.409a1.107,1.107,0,0,0,.5-.453l.008-4.5A1.107,1.107,0,0,0,2540.708,1664.657Z" transform="translate(-2508.198 -1625.825)" fill="#707070"/>
          <path id="Path_4405" data-name="Path 4405" d="M2477.809,1595.123l.01-5.572h-.092l.01-5.533h-.5l-.01,5.572h.092l-.01,5.523h-.486l-.01,5.572h.5l.01-5.563Z" transform="translate(-2453.184 -1556.382)" fill="#707070"/>
          <path id="Path_4406" data-name="Path 4406" d="M2453.652,1589.487h-.092l.01-5.532h-.5l-.01,5.572h.092l-.01,5.532h.123l-.01,5.563h.5l.01-5.572h-.123Z" transform="translate(-2432.73 -1556.327)" fill="#707070"/>
          <path id="Path_4407" data-name="Path 4407" d="M2517.547,1624.535l-.01,5.409a1.106,1.106,0,0,0,.5-.453l.008-4.5A1.107,1.107,0,0,0,2517.547,1624.535Z" transform="translate(-2488.253 -1591.274)" fill="#707070"/>
          <path id="Path_4408" data-name="Path 4408" d="M2431.223,1583.9h-.5l-.01,5.572h.092l-.01,5.524h-.055l-.01,5.572h.5l.01-5.564h.055l.01-5.572h-.092Z" transform="translate(-2413.486 -1556.282)" fill="#707070"/>
          <path id="Path_4409" data-name="Path 4409" d="M2407.591,1583.845h-.5l-.01,5.572h.092l-.01,5.532h.5l.01-5.572h-.092Z" transform="translate(-2393.135 -1556.233)" fill="#707070"/>
          <path id="Path_4410" data-name="Path 4410" d="M2371.363,1583.76h-.5l-.01,5.572h.092l-.01,5.532h.5l.01-5.572h-.093Z" transform="translate(-2361.938 -1556.16)" fill="#707070"/>
          <path id="Path_4411" data-name="Path 4411" d="M2337.442,1583.679h-.5l-.01,5.572h.092l-.01,5.532h.5l.01-5.572h-.092Z" transform="translate(-2332.728 -1556.09)" fill="#707070"/>
          <path id="Path_4412" data-name="Path 4412" d="M2307.152,1583.606h-.5l-.01,5.572h.092l-.01,5.533h.5l.01-5.572h-.092Z" transform="translate(-2306.644 -1556.028)" fill="#707070"/>
          <path id="Path_4413" data-name="Path 4413" d="M2491.88,1584.046h-.5l-.01,5.572h.092l-.01,5.524h-.069l-.01,5.572h.5l.01-5.564h.069l.01-5.572h-.093Z" transform="translate(-2465.72 -1556.406)" fill="#707070"/>
          <path id="Path_4414" data-name="Path 4414" d="M2497.1,1550.353h-.4l.01-5.435h-.5l-.01,5.572h.4l-.01,5.435h.092l-.01,5.532h.5l.01-5.572h-.092Z" transform="translate(-2469.877 -1522.711)" fill="#707070"/>
          <rect id="Rectangle_753" data-name="Rectangle 753" width="5.572" height="0.499" transform="matrix(0.002, -1, 1, 0.002, 24.631, 27.773)" fill="#707070"/>
          <path id="Path_4415" data-name="Path 4415" d="M2467.893,1550.288h-.243l-.01,5.572h.092l-.01,5.532h.5l.01-5.572h-.092l.01-5.4h.243l.01-5.572h-.5Z" transform="translate(-2445.285 -1522.657)" fill="#707070"/>
          <rect id="Rectangle_754" data-name="Rectangle 754" width="5.572" height="0.499" transform="translate(19.503 27.761) rotate(-89.844)" fill="#707070"/>
          <rect id="Rectangle_755" data-name="Rectangle 755" width="5.572" height="0.499" transform="translate(16.222 27.753) rotate(-89.86)" fill="#707070"/>
          <rect id="Rectangle_756" data-name="Rectangle 756" width="5.572" height="0.499" transform="matrix(0.002, -1, 1, 0.002, 11.192, 27.741)" fill="#707070"/>
          <rect id="Rectangle_757" data-name="Rectangle 757" width="5.572" height="0.499" transform="translate(6.482 27.73) rotate(-89.876)" fill="#707070"/>
          <rect id="Rectangle_758" data-name="Rectangle 758" width="5.572" height="0.499" transform="translate(2.276 27.72) rotate(-89.876)" fill="#707070"/>
          <path id="Path_4416" data-name="Path 4416" d="M2504.137,1550.378h-.18l-.01,5.572h.093l-.01,5.524h-.468l-.01,5.572h.5l.01-5.563h.467l.01-5.572h-.092l.01-5.4h.18l.01-5.572h-.5Z" transform="translate(-2476.208 -1522.734)" fill="#707070"/>
          <rect id="Rectangle_759" data-name="Rectangle 759" width="5.572" height="0.499" transform="matrix(0.002, -1, 1, 0.002, 30.013, 27.786)" fill="#707070"/>
          <path id="Path_4417" data-name="Path 4417" d="M2528.852,1550.545l.011-5.533a.92.92,0,0,0-.187-.02h-.312l-.01,5.572h.312A.91.91,0,0,0,2528.852,1550.545Z" transform="translate(-2497.567 -1522.775)" fill="#707070"/>
          <path id="Path_4418" data-name="Path 4418" d="M2533.845,1550.548l.008-4.5a1.108,1.108,0,0,0-.5-.455l-.01,5.409A1.1,1.1,0,0,0,2533.845,1550.548Z" transform="translate(-2501.866 -1523.293)" fill="#707070"/>
          <rect id="Rectangle_760" data-name="Rectangle 760" width="5.572" height="0.499" transform="matrix(0.002, -1, 1, 0.002, 29.916, 22.214)" fill="#707070"/>
          <rect id="Rectangle_761" data-name="Rectangle 761" width="5.572" height="0.499" transform="matrix(0.002, -1, 1, 0.002, 23.1, 22.197)" fill="#707070"/>
          <rect id="Rectangle_762" data-name="Rectangle 762" width="5.572" height="0.499" transform="translate(19.819 22.19) rotate(-89.86)" fill="#707070"/>
          <rect id="Rectangle_763" data-name="Rectangle 763" width="5.572" height="0.499" transform="translate(14.788 22.178) rotate(-89.86)" fill="#707070"/>
          <rect id="Rectangle_764" data-name="Rectangle 764" width="5.572" height="0.499" transform="matrix(0.002, -1, 1, 0.002, 10.078, 22.167)" fill="#707070"/>
          <rect id="Rectangle_765" data-name="Rectangle 765" width="5.572" height="0.499" transform="translate(5.873 22.157) rotate(-89.892)" fill="#707070"/>
          <rect id="Rectangle_766" data-name="Rectangle 766" width="5.572" height="0.499" transform="translate(31.523 22.217) rotate(-89.86)" fill="#707070"/>
          <rect id="Rectangle_767" data-name="Rectangle 767" width="5.572" height="0.499" transform="translate(32.585 22.22) rotate(-89.86)" fill="#707070"/>
          <rect id="Rectangle_768" data-name="Rectangle 768" width="5.572" height="0.499" transform="translate(33.61 22.222) rotate(-89.86)" fill="#707070"/>
          <path id="Path_4419" data-name="Path 4419" d="M2554.262,1504.924l-.01,5.572h.312a.908.908,0,0,0,.187-.019l.01-5.533a.927.927,0,0,0-.187-.02Z" transform="translate(-2519.869 -1488.272)" fill="#707070"/>
          <path id="Path_4420" data-name="Path 4420" d="M2559.255,1505.523l-.01,5.409a1.11,1.11,0,0,0,.5-.453l.008-4.5A1.109,1.109,0,0,0,2559.255,1505.523Z" transform="translate(-2524.169 -1488.788)" fill="#707070"/>
          <path id="Path_4421" data-name="Path 4421" d="M2477.724,1402h.5l.01-5.572h-.487l.01-5.435h.486l.01-5.572h-.5l-.01,5.563h-.486l-.01,5.573h.486Z" transform="translate(-2453.558 -1385.359)" fill="#707070"/>
          <rect id="Rectangle_769" data-name="Rectangle 769" width="5.572" height="0.499" transform="matrix(0.003, -1, 1, 0.003, 22.476, 16.632)" fill="#707070"/>
          <rect id="Rectangle_770" data-name="Rectangle 770" width="5.572" height="0.499" transform="translate(14.068 16.613) rotate(-89.876)" fill="#707070"/>
          <rect id="Rectangle_771" data-name="Rectangle 771" width="5.572" height="0.499" transform="translate(9.038 16.601) rotate(-89.876)" fill="#707070"/>
          <rect id="Rectangle_772" data-name="Rectangle 772" width="5.572" height="0.499" transform="matrix(0.002, -1, 1, 0.002, 4.327, 16.589)" fill="#707070"/>
          <rect id="Rectangle_773" data-name="Rectangle 773" width="5.572" height="0.499" transform="translate(0.121 16.579) rotate(-89.876)" fill="#707070"/>
          <path id="Path_4422" data-name="Path 4422" d="M2491.885,1402.023h.441l-.01,5.564h.5l.01-5.572h-.442l.01-5.563h-.069l.01-5.435h.069l.01-5.572h-.5l-.01,5.563h-.069l-.01,5.572h.069Z" transform="translate(-2466.112 -1385.382)" fill="#707070"/>
          <rect id="Rectangle_774" data-name="Rectangle 774" width="5.572" height="0.499" transform="translate(26.835 16.643) rotate(-89.895)" fill="#707070"/>
          <path id="Path_4423" data-name="Path 4423" d="M2506,1396.617h.088l.01-5.572h-.437c.023,0,.046-.006.069-.011l.01-5.533a.9.9,0,0,0-.187-.02h-.312l-.01,5.572h.312c.019,0,.038,0,.057,0l-.01,5.441-.056,0h-.312l-.01,5.563h-.272l.01-5.563h-.468l.01-5.435h.468l.01-5.572h-.5l-.01,5.564h-.468l-.01,5.572h.468l-.01,5.444h.379l-.01,5.563h.5l.01-5.564h.2a.925.925,0,0,0,.187-.019l.01-5.424h.194l-.01,5.362a1.106,1.106,0,0,0,.5-.453l.008-4.5A1.123,1.123,0,0,0,2506,1396.617Z" transform="translate(-2476.582 -1385.412)" fill="#707070"/>
          <rect id="Rectangle_775" data-name="Rectangle 775" width="5.572" height="0.499" transform="translate(12.274 11.165) rotate(-89.891)" fill="#707070"/>
          <rect id="Rectangle_776" data-name="Rectangle 776" width="5.572" height="0.499" transform="translate(7.563 11.153) rotate(-89.876)" fill="#707070"/>
          <rect id="Rectangle_777" data-name="Rectangle 777" width="5.572" height="0.499" transform="translate(3.357 11.143) rotate(-89.86)" fill="#707070"/>
          <rect id="Rectangle_778" data-name="Rectangle 778" width="5.572" height="0.499" transform="matrix(0.002, -1, 1, 0.002, 30.069, 11.207)" fill="#707070"/>
          <rect id="Rectangle_779" data-name="Rectangle 779" width="5.572" height="0.499" transform="translate(31.095 11.209) rotate(-89.876)" fill="#707070"/>
          <path id="Path_4424" data-name="Path 4424" d="M2536.15,1425.61l-.01,5.572h.312a.9.9,0,0,0,.187-.019l.01-5.533a.927.927,0,0,0-.187-.02Z" transform="translate(-2504.272 -1419.971)" fill="#707070"/>
          <path id="Path_4425" data-name="Path 4425" d="M2541.632,1431.168l.008-4.5a1.11,1.11,0,0,0-.5-.455l-.01,5.409A1.1,1.1,0,0,0,2541.632,1431.168Z" transform="translate(-2508.572 -1420.49)" fill="#707070"/>
          <rect id="Rectangle_780" data-name="Rectangle 780" width="5.572" height="0.499" transform="translate(22.497 5.625) rotate(-89.876)" fill="#707070"/>
          <path id="Path_4426" data-name="Path 4426" d="M2454.472,1385.354h-.5l-.01,5.572h.124l-.01,5.435h-.123l-.01,5.572h.5l.01-5.444h.123l.01-5.572h-.123Z" transform="translate(-2433.49 -1385.304)" fill="#707070"/>
          <path id="Path_4427" data-name="Path 4427" d="M2431.334,1390.862h-.055l-.01,5.572h.055l-.01,5.444h.5l.01-5.572h-.055l.01-5.435h.055l.01-5.572h-.5Z" transform="translate(-2413.963 -1385.258)" fill="#707070"/>
          <rect id="Rectangle_781" data-name="Rectangle 781" width="5.572" height="0.499" transform="matrix(0.002, -1, 1, 0.002, 14.087, 5.605)" fill="#707070"/>
          <rect id="Rectangle_782" data-name="Rectangle 782" width="5.572" height="0.499" transform="translate(9.057 5.593) rotate(-89.86)" fill="#707070"/>
          <rect id="Rectangle_783" data-name="Rectangle 783" width="5.572" height="0.499" transform="matrix(0.003, -1, 1, 0.003, 4.346, 5.582)" fill="#707070"/>
          <rect id="Rectangle_784" data-name="Rectangle 784" width="5.572" height="0.499" transform="translate(0.142 5.572) rotate(-89.876)" fill="#707070"/>
          <rect id="Rectangle_785" data-name="Rectangle 785" width="5.572" height="0.499" transform="matrix(0.003, -1, 1, 0.003, 26.853, 5.635)" fill="#707070"/>
          <path id="Path_4428" data-name="Path 4428" d="M2517.982,1386.091l-.01,5.409a1.108,1.108,0,0,0,.5-.453l.008-4.5A1.105,1.105,0,0,0,2517.982,1386.091Z" transform="translate(-2488.628 -1385.94)" fill="#707070"/>
        </g>
      </g>
      <g id="Group_2591" data-name="Group 2591" transform="translate(1416.329 6806.415)">
        <path id="Path_4429" data-name="Path 4429" d="M2610.242,1492.784l3.105.51a1.323,1.323,0,0,1,.638.289,1.1,1.1,0,0,1,.367.565.882.882,0,0,1,.03.2.9.9,0,0,1-.011.188l-7.144,43.3a1.14,1.14,0,0,1-1.308.859l-.062-.009-3.1-.51-.062-.011a1.139,1.139,0,0,1-.962-1.233l7.144-43.3a.943.943,0,0,1,.049-.181.925.925,0,0,1,.094-.182,1.11,1.11,0,0,1,.529-.418A1.326,1.326,0,0,1,2610.242,1492.784Z" transform="translate(-2601.7 -1492.765)" fill="#bebebe"/>
        <path id="Path_4430" data-name="Path 4430" d="M2610.936,1651.1l-3.827,23.2a1.094,1.094,0,0,1-1.29.747l-.061-.009-3.105-.51-.062-.011a1.092,1.092,0,0,1-.981-1.121l3.357-20.347A10.382,10.382,0,0,0,2610.936,1651.1Z" transform="translate(-2601.6 -1629.116)" fill="#bebebe"/>
        <g id="Group_2590" data-name="Group 2590" transform="translate(2.481 0.088)">
          <rect id="Rectangle_786" data-name="Rectangle 786" width="0.499" height="5.572" transform="matrix(0.163, -0.987, 0.987, 0.163, 3.914, 5.492)" fill="#bebebe"/>
          <rect id="Rectangle_787" data-name="Rectangle 787" width="0.499" height="5.572" transform="translate(3.639 7.159) rotate(-80.645)" fill="#bebebe"/>
          <rect id="Rectangle_788" data-name="Rectangle 788" width="0.499" height="5.572" transform="translate(3.31 9.156) rotate(-80.626)" fill="#bebebe"/>
          <rect id="Rectangle_789" data-name="Rectangle 789" width="0.499" height="5.572" transform="translate(2.805 12.217) rotate(-80.627)" fill="#bebebe"/>
          <rect id="Rectangle_790" data-name="Rectangle 790" width="0.499" height="5.572" transform="translate(2.271 15.455) rotate(-80.627)" fill="#bebebe"/>
          <rect id="Rectangle_791" data-name="Rectangle 791" width="0.499" height="5.572" transform="translate(1.451 20.42) rotate(-80.657)" fill="#bebebe"/>
          <rect id="Rectangle_792" data-name="Rectangle 792" width="0.499" height="5.572" transform="matrix(0.163, -0.987, 0.987, 0.163, 0.685, 25.065)" fill="#bebebe"/>
          <rect id="Rectangle_793" data-name="Rectangle 793" width="0.499" height="5.572" transform="translate(0 29.216) rotate(-80.627)" fill="#bebebe"/>
          <rect id="Rectangle_794" data-name="Rectangle 794" width="0.499" height="5.572" transform="translate(4.176 3.908) rotate(-80.642)" fill="#bebebe"/>
          <rect id="Rectangle_795" data-name="Rectangle 795" width="0.499" height="5.572" transform="translate(4.349 2.86) rotate(-80.645)" fill="#bebebe"/>
          <rect id="Rectangle_796" data-name="Rectangle 796" width="0.499" height="5.572" transform="translate(4.516 1.849) rotate(-80.643)" fill="#bebebe"/>
          <path id="Path_4431" data-name="Path 4431" d="M2652.887,1498.206l5.5.9.051-.307a.9.9,0,0,0,.011-.188l-5.46-.9a.908.908,0,0,0-.049.182Z" transform="translate(-2648.246 -1497.117)" fill="#bebebe"/>
          <path id="Path_4432" data-name="Path 4432" d="M2654.279,1493.816l5.337.877a1.11,1.11,0,0,0-.367-.565l-4.441-.73A1.11,1.11,0,0,0,2654.279,1493.816Z" transform="translate(-2649.445 -1493.398)" fill="#bebebe"/>
        </g>
      </g>
      <g id="Group_2593" data-name="Group 2593" transform="translate(1421.962 6806.415)">
        <path id="Path_4433" data-name="Path 4433" d="M2650.808,1492.784l3.1.51a1.327,1.327,0,0,1,.639.289,1.107,1.107,0,0,1,.366.565.953.953,0,0,1,.019.39l-7.144,43.3a1.14,1.14,0,0,1-1.308.859l-.062-.009-3.105-.51-.061-.011a1.139,1.139,0,0,1-.962-1.233l7.144-43.3a.926.926,0,0,1,.05-.181.911.911,0,0,1,.093-.182,1.111,1.111,0,0,1,.529-.418A1.325,1.325,0,0,1,2650.808,1492.784Z" transform="translate(-2642.266 -1492.765)" fill="#bebebe"/>
        <path id="Path_4434" data-name="Path 4434" d="M2651.5,1651.1l-3.827,23.2a1.094,1.094,0,0,1-1.289.747l-.062-.009-3.105-.51-.061-.011a1.093,1.093,0,0,1-.981-1.121l3.357-20.347A10.382,10.382,0,0,0,2651.5,1651.1Z" transform="translate(-2642.167 -1629.116)" fill="#bebebe"/>
        <g id="Group_2592" data-name="Group 2592" transform="translate(2.481 0.088)">
          <rect id="Rectangle_797" data-name="Rectangle 797" width="0.499" height="5.572" transform="matrix(0.163, -0.987, 0.987, 0.163, 3.914, 5.492)" fill="#bebebe"/>
          <rect id="Rectangle_798" data-name="Rectangle 798" width="0.499" height="5.572" transform="translate(3.639 7.159) rotate(-80.645)" fill="#bebebe"/>
          <rect id="Rectangle_799" data-name="Rectangle 799" width="0.499" height="5.572" transform="translate(3.31 9.156) rotate(-80.624)" fill="#bebebe"/>
          <rect id="Rectangle_800" data-name="Rectangle 800" width="0.499" height="5.572" transform="translate(2.805 12.217) rotate(-80.627)" fill="#bebebe"/>
          <rect id="Rectangle_801" data-name="Rectangle 801" width="0.499" height="5.572" transform="translate(2.27 15.455) rotate(-80.627)" fill="#bebebe"/>
          <rect id="Rectangle_802" data-name="Rectangle 802" width="0.499" height="5.572" transform="translate(1.451 20.419) rotate(-80.628)" fill="#bebebe"/>
          <rect id="Rectangle_803" data-name="Rectangle 803" width="0.499" height="5.572" transform="translate(0.685 25.066) rotate(-80.627)" fill="#bebebe"/>
          <rect id="Rectangle_804" data-name="Rectangle 804" width="0.499" height="5.572" transform="translate(0 29.216) rotate(-80.628)" fill="#bebebe"/>
          <rect id="Rectangle_805" data-name="Rectangle 805" width="0.499" height="5.572" transform="translate(4.176 3.907) rotate(-80.627)" fill="#bebebe"/>
          <rect id="Rectangle_806" data-name="Rectangle 806" width="0.499" height="5.572" transform="translate(4.349 2.86) rotate(-80.645)" fill="#bebebe"/>
          <rect id="Rectangle_807" data-name="Rectangle 807" width="0.499" height="5.572" transform="translate(4.515 1.849) rotate(-80.643)" fill="#bebebe"/>
          <path id="Path_4435" data-name="Path 4435" d="M2693.453,1498.206l5.5.9.051-.307a.9.9,0,0,0,.011-.188l-5.46-.9a.909.909,0,0,0-.05.182Z" transform="translate(-2688.812 -1497.117)" fill="#bebebe"/>
          <path id="Path_4436" data-name="Path 4436" d="M2694.846,1493.816l5.337.877a1.11,1.11,0,0,0-.367-.565l-4.441-.73A1.11,1.11,0,0,0,2694.846,1493.816Z" transform="translate(-2690.012 -1493.398)" fill="#bebebe"/>
        </g>
      </g>
      <g id="Group_2595" data-name="Group 2595" transform="translate(1410.238 6806.437)">
        <path id="Path_4437" data-name="Path 4437" d="M2566.951,1492.944l3.1.55a1.322,1.322,0,0,1,.635.3,1.113,1.113,0,0,1,.36.57.96.96,0,0,1,.013.39l-7.7,43.2a1.14,1.14,0,0,1-1.318.843l-.062-.01-3.1-.55-.061-.012a1.139,1.139,0,0,1-.947-1.245l7.7-43.2c0-.028.011-.055.019-.082s.006-.023.01-.035.008-.025.013-.038l.01-.027a.9.9,0,0,1,.1-.18l.018-.025c0-.008.012-.016.018-.024l.039-.047.024-.027.022-.023.044-.043c.018-.016.036-.031.055-.046s.029-.023.044-.034l0,0,.032-.022a1.069,1.069,0,0,1,.1-.06l.032-.016.032-.015.068-.028A1.324,1.324,0,0,1,2566.951,1492.944Z" transform="translate(-2557.842 -1492.923)" fill="#bebebe"/>
        <path id="Path_4438" data-name="Path 4438" d="M2567.358,1651.343l-4.124,23.145a1.094,1.094,0,0,1-1.3.731l-.062-.01-3.1-.55-.061-.012a1.093,1.093,0,0,1-.967-1.134l3.617-20.3.14,0A10.31,10.31,0,0,0,2567.358,1651.343Z" transform="translate(-2557.736 -1629.345)" fill="#bebebe"/>
        <g id="Group_2594" data-name="Group 2594" transform="translate(2.674 0.082)">
          <rect id="Rectangle_808" data-name="Rectangle 808" width="0.499" height="5.572" transform="translate(4.218 5.472) rotate(-79.87)" fill="#bebebe"/>
          <rect id="Rectangle_809" data-name="Rectangle 809" width="0.499" height="5.572" transform="matrix(0.175, -0.985, 0.985, 0.175, 3.921, 7.137)" fill="#bebebe"/>
          <rect id="Rectangle_810" data-name="Rectangle 810" width="0.499" height="5.572" transform="translate(3.566 9.128) rotate(-79.884)" fill="#bebebe"/>
          <rect id="Rectangle_811" data-name="Rectangle 811" width="0.499" height="5.572" transform="translate(3.022 12.184) rotate(-79.9)" fill="#bebebe"/>
          <rect id="Rectangle_812" data-name="Rectangle 812" width="0.499" height="5.572" transform="translate(2.446 15.414) rotate(-79.9)" fill="#bebebe"/>
          <rect id="Rectangle_813" data-name="Rectangle 813" width="0.499" height="5.572" transform="translate(1.564 20.368) rotate(-79.913)" fill="#bebebe"/>
          <rect id="Rectangle_814" data-name="Rectangle 814" width="0.499" height="5.572" transform="matrix(0.175, -0.984, 0.984, 0.175, 0.738, 25.004)" fill="#bebebe"/>
          <rect id="Rectangle_815" data-name="Rectangle 815" width="0.499" height="5.572" transform="translate(0 29.144) rotate(-79.887)" fill="#bebebe"/>
          <rect id="Rectangle_816" data-name="Rectangle 816" width="0.499" height="5.572" transform="translate(4.499 3.891) rotate(-79.9)" fill="#bebebe"/>
          <rect id="Rectangle_817" data-name="Rectangle 817" width="0.499" height="5.572" transform="translate(4.686 2.846) rotate(-79.901)" fill="#bebebe"/>
          <rect id="Rectangle_818" data-name="Rectangle 818" width="0.499" height="5.572" transform="translate(4.865 1.836) rotate(-79.886)" fill="#bebebe"/>
          <path id="Path_4439" data-name="Path 4439" d="M2613,1498.262l5.486.974.054-.307a.9.9,0,0,0,.014-.188l-5.448-.968a.908.908,0,0,0-.052.181Z" transform="translate(-2608.001 -1497.182)" fill="#bebebe"/>
          <path id="Path_4440" data-name="Path 4440" d="M2614.456,1493.926l5.325.946a1.1,1.1,0,0,0-.36-.57l-4.432-.787A1.108,1.108,0,0,0,2614.456,1493.926Z" transform="translate(-2609.254 -1493.515)" fill="#bebebe"/>
        </g>
      </g>
      <g id="Group_2598" data-name="Group 2598" transform="translate(1372.172 6728.082)">
        <path id="Path_4559" data-name="Path 4559" d="M19.315,0A19.315,19.315,0,1,1,0,19.315,19.315,19.315,0,0,1,19.315,0Z" transform="translate(0 35.709) rotate(-67.575)" fill="#707070"/>
        <path id="Path_4443" data-name="Path 4443" d="M2351.728,987.013a19.315,19.315,0,1,0-7.59,26.24A19.315,19.315,0,0,0,2351.728,987.013Z" transform="translate(-2311.066 -970.302)" fill="#bebebe"/>
        <g id="Group_2596" data-name="Group 2596" transform="translate(6.251 8.63)">
          <path id="Path_4444" data-name="Path 4444" d="M2346.256,1025.992a17.594,17.594,0,1,1,8.466-2.184A17.612,17.612,0,0,1,2346.256,1025.992Zm-.053-34.151a16.6,16.6,0,1,0,4.622.659A16.629,16.629,0,0,0,2346.2,991.841Z" transform="translate(-2328.62 -990.791)" fill="#707070"/>
        </g>
        <g id="Group_2597" data-name="Group 2597" transform="translate(15.747 13.535)">
          <path id="Path_4445" data-name="Path 4445" d="M2409.7,1042.118a2.9,2.9,0,0,0-.53-.875,2.125,2.125,0,0,0-.788-.534,4.009,4.009,0,0,0-1.125-.251,10.565,10.565,0,0,0-1.534-.01,27.8,27.8,0,0,1-2.822,0,8.763,8.763,0,0,1-2.345-.425,5.157,5.157,0,0,1-1.842-1.079,5.814,5.814,0,0,1-1.711-4.078,4.891,4.891,0,0,1,.463-1.985,6.093,6.093,0,0,1,1.261-1.757,8.143,8.143,0,0,1,2-1.423l-1.1-2.707,2.178-.884,1.114,2.744a7.308,7.308,0,0,1,2.375-.243,5.52,5.52,0,0,1,3.857,1.9,7.342,7.342,0,0,1,1.288,2.136l-3.935,1.6a3.577,3.577,0,0,0-1.6-2,2.485,2.485,0,0,0-2.109-.02,3.157,3.157,0,0,0-.986.6,2.144,2.144,0,0,0-.539.763,2,2,0,0,0-.137.874,2.941,2.941,0,0,0,.218.928,2.685,2.685,0,0,0,.48.792,1.985,1.985,0,0,0,.755.511,4.014,4.014,0,0,0,1.131.247,13.555,13.555,0,0,0,1.607.033q1.52-.043,2.814.036a8.857,8.857,0,0,1,2.343.441,4.974,4.974,0,0,1,3.136,3.036,5.307,5.307,0,0,1,.423,2.156,4.829,4.829,0,0,1-.475,1.975,5.9,5.9,0,0,1-1.287,1.731,8.8,8.8,0,0,1-2.021,1.41l1.022,2.516-2.165.879-1.017-2.5a9.866,9.866,0,0,1-2.385.394,6.251,6.251,0,0,1-2.316-.334,5.6,5.6,0,0,1-2.039-1.271,6.812,6.812,0,0,1-1.548-2.406l3.935-1.6a4.189,4.189,0,0,0,.86,1.4,2.712,2.712,0,0,0,1.064.688,2.633,2.633,0,0,0,1.165.116,4.518,4.518,0,0,0,1.155-.3,3.773,3.773,0,0,0,1.056-.62,2.516,2.516,0,0,0,.625-.784,2,2,0,0,0,.21-.888A2.433,2.433,0,0,0,2409.7,1042.118Z" transform="translate(-2397.006 -1026.113)" fill="#707070"/>
        </g>
      </g>
      <path id="Path_4446" data-name="Path 4446" d="M2537.854,1025.589c-.808-.571-2.64-1.826-2.735-1.546a1.23,1.23,0,0,0,.249.9c-1.108-.414-2.233-.686-4.9-.175a2,2,0,0,0-1.309.862.88.88,0,0,0,.306,1.373c1.358.844.965.338,2.852,1.568s4.2,1.544,5.579.681l1.853-.309.23-3.047S2538.926,1025.768,2537.854,1025.589Z" transform="translate(-1122.713 5717.321)" fill="#fc9290"/>
      <path id="Path_4447" data-name="Path 4447" d="M2872.839,790.862s-4.368,5.182-9.931,3.014a16.847,16.847,0,0,1-1.214-5.028c0-.263-.005-.517-.009-.759-.03-2.4-.111-3.75-.111-3.75h.005c.253-.106,8.5-3.493,8.5-3.211C2869.936,787.625,2872.839,790.862,2872.839,790.862Z" transform="translate(-1409.146 5926.485)" fill="#fc9290"/>
      <path id="Path_4448" data-name="Path 4448" d="M2869.249,792.01a12.906,12.906,0,0,1-7.563,5.414c-.03-2.4-.111-3.751-.111-3.751h.005C2861.809,793.611,2869.485,791.575,2869.249,792.01Z" transform="translate(-1409.146 5917.151)" fill="#ea8888"/>
      <path id="Path_4449" data-name="Path 4449" d="M2840.18,707.733s9.279,2.181,10.548-3.618,3.322-9.423-2.549-11.061-7.51.322-8.4,2.155S2837.8,707.016,2840.18,707.733Z" transform="translate(-1389.479 6002.842)" fill="#fc9290"/>
      <path id="Path_4450" data-name="Path 4450" d="M2831.159,677.5c.127.081,2.123.694,5.9-6.838a6.56,6.56,0,0,0-.385-6c-1.384-2.26-6.289-4.037-10.365-4.81s-5.054,1.52-6.014,3.825a12.446,12.446,0,0,1-3.918,4.411c3.515,1.963,7.748-.845,9.214-.383s1.985,2.773,2.095,3.514.279,1.357,2.124.695.834,2.613.538,3.24C2830.352,675.152,2830.1,676.82,2831.159,677.5Z" transform="translate(-1370.228 6031.04)" fill="#9e332e"/>
      <g id="Group_2599" data-name="Group 2599" transform="translate(1445.722 6761.971)">
        <path id="Path_4451" data-name="Path 4451" d="M3093.836,1743.3h5.618c1.178,0,2.487-1.179,2.814-3.338s2.749-3.338,3.272-5.105-2.16-4.256-2.16-4.256l-.449-.576-.467-.6-4.45,1.047s-.11,1.06-.179,2.409a30.877,30.877,0,0,0-.018,3.089c.131,2.357-.66,4.895-2.753,5.353S3093.836,1743.3,3093.836,1743.3Z" transform="translate(-3054.724 -1652.115)" fill="#26253b"/>
        <path id="Path_4452" data-name="Path 4452" d="M2813.271,1779.072h14.892a1.325,1.325,0,0,0,.316-.092c.994-.5.683-4.3.563-5.481-.023-.218-.04-.346-.04-.346s-5.236-4.188-5.957-.981q-.035.15-.077.295v0c-.909,3-4.973,4.364-7.32,4.744A2.555,2.555,0,0,0,2813.271,1779.072Z" transform="translate(-2813.271 -1687.89)" fill="#26253b"/>
        <path id="Path_4453" data-name="Path 4453" d="M2834.888,1202.359s.8,9.922,1.73,21.85c1.271,16.2,2.8,36.1,2.949,39.875.261,6.547,1.31,17.02,1.31,17.02s2.486,2.488,7.462,1.439a171.372,171.372,0,0,0,5.7-30.767c.019-.259.039-.52.059-.781,1.178-16.1,3.01-50.01,3.01-50.01Z" transform="translate(-2831.886 -1197.057)" fill="#26253b"/>
        <path id="Path_4454" data-name="Path 4454" d="M2834.888,1202.359s.8,9.922,1.73,21.85l17.422,27.567c.019-.259.039-.52.059-.781,1.178-16.1,3.01-50.01,3.01-50.01Z" transform="translate(-2831.886 -1197.057)" fill="#26253b"/>
        <path id="Path_4455" data-name="Path 4455" d="M2861.043,1179.181s14.335,35.936,23.761,52.824,12.371,21.6,12.371,21.6,5.4-2.16,5.892-3.633c0,0-3.6-32.6-9.917-40.551-3.566-4.491-7.757-17.968-7.953-22.681s-1.277-14.041-1.277-14.041Z" transform="translate(-2854.409 -1172.701)" fill="#26253b"/>
      </g>
      <g id="Group_2600" data-name="Group 2600" transform="translate(1459.972 6717.922)">
        <path id="Path_4456" data-name="Path 4456" d="M3095.773,1167.1l.151,2.311a4.98,4.98,0,0,0,2.747,6.212s1.828.737,1.9-.686-.16-.888-.011-2.892-.639-3.9-1.965-4.536l-1.088-1.255Z" transform="translate(-3070.698 -1123.104)" fill="#fc9290"/>
        <path id="Path_4457" data-name="Path 4457" d="M2942.639,901.158c-1.586.509-1.841.394-1.841.394s-7.723-14.06-8.5-15.347-16.4-15.767-16.4-15.767l4.013-14.963s17.76,23,19.677,26.3c3.169,5.453,5.026,18.118,5.026,18.118A4.647,4.647,0,0,1,2942.639,901.158Z" transform="translate(-2915.897 -855.475)" fill="#060632"/>
      </g>
      <path id="Path_4458" data-name="Path 4458" d="M2812.98,855.564c.056,3.073.234,6.527.475,10.036q.023.312.044.624c.154,2.174.321,4.352.513,6.477.077.852.159,1.694.244,2.521l.013.111c.007.31.044.646.079.952.783,7.957,1.6,14.244,1.756,14.341a.892.892,0,0,0,.611.156c2.087-.262,8.313.211,13.41-.9a38.653,38.653,0,0,0,11.929-4.947c.521-.308,1.708-1.124,1.612-1.733-.095-.67-.27-1.638-.493-2.855a154.624,154.624,0,0,1-2.563-20.034q-.132-2.381-.385-4.7a71.238,71.238,0,0,0-2.078-11.216c-1.748-6.293-4.316-11.112-7.538-13-.421-.236-2.687,1.205-4.766,2.54a9.186,9.186,0,0,1-5.912,1.4l-1.732,1.915a19.336,19.336,0,0,0-4.938,10.295q-.069.511-.118,1.088A67.778,67.778,0,0,0,2812.98,855.564Z" transform="translate(-1367.283 5883.196)" fill="#26253b"/>
      <path id="Path_4459" data-name="Path 4459" d="M2812.98,940.715c.056,3.073.234,6.527.475,10.036q.023.312.044.624c11.92-7.461,13.756-21.114,13.756-21.114a32.606,32.606,0,0,0-14.113,3.533A67.781,67.781,0,0,0,2812.98,940.715Z" transform="translate(-1367.283 5798.045)" fill="#060632"/>
      <path id="Path_4460" data-name="Path 4460" d="M2596.135,896.24c-.123-1.768.792-2.062.792-2.062s17.972-3.257,19.5-3.738,14.592-14.07,14.592-14.07,5.007-5.647,9.107-4.4a7.7,7.7,0,0,1,5.43,6.51,7.8,7.8,0,0,1-3.622,8.006c-6.133,3.762-18.412,11.174-21.3,12.021-6.436,1.887-23.729.151-23.729.151A5.579,5.579,0,0,1,2596.135,896.24Z" transform="translate(-1180.554 5848.397)" fill="#26253b"/>
      <path id="Path_4461" data-name="Path 4461" d="M2233.806,1174.6v66.8a7.106,7.106,0,0,1-7.084,7.086h-68.667a7.212,7.212,0,0,1-4.876-1.9,7.294,7.294,0,0,1-1.552-2.016c-.022-.041-.042-.081-.062-.123a7.143,7.143,0,0,1-.735-2.706c-.012-.165-.018-.331-.018-.5v-66.217a10.963,10.963,0,0,1,5.095-9.229l.008,0a9.494,9.494,0,0,0,3.937-10.844h64.913a9.492,9.492,0,0,0,3.616,10.629h0c.164.114.331.224.5.326h0A10.188,10.188,0,0,1,2233.806,1174.6Z" transform="translate(-797.08 5604.558)" fill="#a8a7a7" opacity="0.2"/>
      <path id="Path_4462" data-name="Path 4462" d="M2472.139,1174.6v66.8a7.108,7.108,0,0,1-6.584,7.068c-.165.012-.332.018-.5.018H2434.82a7.263,7.263,0,0,1-7.242-7.243v-66.217a10.963,10.963,0,0,1,5.095-9.229,9.492,9.492,0,0,0,3.946-10.849H2463.1a9.492,9.492,0,0,0,4.12,10.957A10.188,10.188,0,0,1,2472.139,1174.6Z" transform="translate(-1036.25 5605.395)" fill="#f4ecec" opacity="0.2"/>
      <path id="Path_4463" data-name="Path 4463" d="M2260.026,1165.577c-2.121-1.269-11.306-5.77-34.665-5.579-26.755.219-37.473,5.626-37.8,5.795a9.494,9.494,0,0,0,3.937-10.844h64.913a9.492,9.492,0,0,0,3.616,10.629Z" transform="translate(-828.724 5604.558)" fill="#bababa" opacity="0.6"/>
      <path id="Path_4464" data-name="Path 4464" d="M2273.178,1148.218v3.03a.543.543,0,0,1-.542.543h-66.77a.544.544,0,0,1-.543-.543v-3.03a.545.545,0,0,1,.543-.543h66.77A.544.544,0,0,1,2273.178,1148.218Z" transform="translate(-844.021 5610.821)" fill="#21232a"/>
      <path id="Path_4465" data-name="Path 4465" d="M2530.518,1148.218v3.03a.543.543,0,0,1-.542.543H2504.7a.544.544,0,0,1-.542-.543v-3.03a.545.545,0,0,1,.542-.543h25.274A.544.544,0,0,1,2530.518,1148.218Z" transform="translate(-1101.361 5610.821)" fill="#060632"/>
      <g id="Group_2602" data-name="Group 2602" transform="translate(1362.173 6770.761)">
        <path id="Path_4466" data-name="Path 4466" d="M2323.031,1239.28s-1.721,2.423-3.3,2.457a11.525,11.525,0,0,1-3.978-1.123s-1.449-3.229-.466-4.492a2.109,2.109,0,0,1,2.016.331,3.1,3.1,0,0,1,.533.511,1.692,1.692,0,0,0,.828.562c1.126.343,2.462-.463,2.962.315a5.282,5.282,0,0,0,.87,1.03A4,4,0,0,0,2323.031,1239.28Z" transform="translate(-2300.595 -1236)" fill="#fff"/>
        <path id="Path_4467" data-name="Path 4467" d="M2211.594,1292.334s6.083-14.739,17.032-15.019c0,0,10.106,1.123,10.668,15.019Z" transform="translate(-2211.594 -1271.578)" fill="#fff"/>
        <path id="Path_4468" data-name="Path 4468" d="M2312.514,1268.725s4.388.976,5.743.4a1.356,1.356,0,0,0-1.644-1.578,3.879,3.879,0,0,1-2.573-.678C2313.354,1266.522,2312.332,1267.957,2312.514,1268.725Z" transform="translate(-2298.482 -1262.538)" fill="#707070"/>
        <path id="Path_4469" data-name="Path 4469" d="M2333.067,1242.231c-.281.211-1.143-2.967-1.143-2.967a3.11,3.11,0,0,1,.533.511,1.692,1.692,0,0,0,.828.561C2333.288,1240.429,2333.339,1242.026,2333.067,1242.231Z" transform="translate(-2315.215 -1238.811)" fill="#bed2fa"/>
        <path id="Path_4470" data-name="Path 4470" d="M2354.463,1250.282a18.112,18.112,0,0,1-2.367,1.252c-.281,0,1.5-2.282,1.5-2.282A5.271,5.271,0,0,0,2354.463,1250.282Z" transform="translate(-2332.561 -1247.412)" fill="#bed2fa"/>
        <path id="Path_4471" data-name="Path 4471" d="M2254.376,1315.195c-.113-.1,4.3-6.5,5.521-6.551s3.95,1.4,5.929,1.591,3.9-.374,4.271.8,1.4,5.317.772,5.981S2256.8,1317.27,2254.376,1315.195Z" transform="translate(-2248.433 -1298.556)" fill="#bebebe"/>
      </g>
      <path id="Path_4472" data-name="Path 4472" d="M2160.277,1489.267c-.352.185-.706.36-1.063.529-.34.2-.685.389-1.037.573a28.283,28.283,0,0,1-5,2.046,7.292,7.292,0,0,1-1.552-2.016c-.271.144-.542.283-.815.419v-50.4a28.69,28.69,0,0,1,3.7.745,27.2,27.2,0,0,1,16.561,12.545C2178.4,1466.366,2173.567,1482.287,2160.277,1489.267Z" transform="translate(-797.079 5358.729)" fill="#707070" opacity="0.5"/>
      <g id="Group_2605" data-name="Group 2605" transform="translate(1304.877 6784.855)">
        <circle id="Ellipse_374" data-name="Ellipse 374" cx="27.478" cy="27.478" r="27.478" transform="translate(0 38.86) rotate(-45)" fill="#21232a"/>
        <path id="Path_4473" data-name="Path 4473" d="M1907.566,1478.714q-.508.309-1.033.6-.178.1-.355.192c-.271.145-.542.283-.815.419A27.479,27.479,0,0,1,1880,1431.184q.528-.292,1.064-.556.519-.259,1.047-.493a27.451,27.451,0,0,1,8.248-2.218,27.483,27.483,0,0,1,17.2,50.8Z" transform="translate(-1856.507 -1415.231)" fill="#bebebe"/>
        <g id="Group_2603" data-name="Group 2603" transform="translate(11.87 15.255)">
          <path id="Path_4474" data-name="Path 4474" d="M1909.542,1497.453a25.146,25.146,0,0,1-6.993-1,24.887,24.887,0,1,1,6.993,1Zm-20.653-13.682a23.542,23.542,0,1,0-2-17.907A23.388,23.388,0,0,0,1888.89,1483.771Z" transform="translate(-1884.459 -1447.359)" fill="#707070"/>
        </g>
        <g id="Group_2604" data-name="Group 2604" transform="translate(25.38 22.233)">
          <path id="Path_4475" data-name="Path 4475" d="M2005.393,1518.072c-.054-.136-.112-.266-.17-.4a7.212,7.212,0,0,0-1.667-2.381,7.441,7.441,0,0,0-2.624-1.544,12.552,12.552,0,0,0-3.333-.626q-1.84-.113-4-.052a19.289,19.289,0,0,1-2.286-.046,5.723,5.723,0,0,1-1.609-.352,2.821,2.821,0,0,1-1.074-.728,3.837,3.837,0,0,1-.683-1.126,4.171,4.171,0,0,1-.31-1.32,2.83,2.83,0,0,1,.2-1.242,3.039,3.039,0,0,1,.766-1.086,4.475,4.475,0,0,1,1.4-.853,3.536,3.536,0,0,1,3,.028,5.093,5.093,0,0,1,2.269,2.84l5.6-2.273a10.467,10.467,0,0,0-1.833-3.039,7.855,7.855,0,0,0-5.488-2.707,10.379,10.379,0,0,0-3.379.345l-1.585-3.9-3.1,1.258,1.563,3.85a11.622,11.622,0,0,0-2.845,2.024,8.694,8.694,0,0,0-1.793,2.5,6.967,6.967,0,0,0-.659,2.824,8.274,8.274,0,0,0,2.435,5.8,7.331,7.331,0,0,0,2.62,1.534,12.4,12.4,0,0,0,3.336.6,39.417,39.417,0,0,0,4.014,0,14.825,14.825,0,0,1,2.183.015,5.688,5.688,0,0,1,1.6.355,3.026,3.026,0,0,1,1.12.76,4.128,4.128,0,0,1,.754,1.245,3.453,3.453,0,0,1,.267,1.327,2.83,2.83,0,0,1-.3,1.264,3.562,3.562,0,0,1-.889,1.116,5.365,5.365,0,0,1-1.5.883,6.469,6.469,0,0,1-1.643.427,3.756,3.756,0,0,1-1.658-.166,3.86,3.86,0,0,1-1.513-.979,5.942,5.942,0,0,1-1.224-1.986l-5.6,2.273a9.668,9.668,0,0,0,2.2,3.423,7.943,7.943,0,0,0,2.9,1.809,8.872,8.872,0,0,0,3.3.475,13.988,13.988,0,0,0,3.394-.561l1.445,3.562,3.08-1.25-1.453-3.58a12.5,12.5,0,0,0,2.874-2.006,8.484,8.484,0,0,0,1.734-2.265c.034-.065.066-.131.1-.2a6.882,6.882,0,0,0,.675-2.81A7.566,7.566,0,0,0,2005.393,1518.072Z" transform="translate(-1981.747 -1497.611)" fill="#707070"/>
        </g>
      </g>
      <path id="Path_4476" data-name="Path 4476" d="M1854.7,928.466c.084-.337-7.319,3.346-7.694,3.762-3.472,3.851-2.482,8.877-.5,8.925,1.274.031,1.027,2.149,1.027,2.149l14.194-6S1860.026,927.332,1854.7,928.466Z" transform="translate(-533.482 5799.669)" fill="#0b0b36"/>
      <path id="Path_4477" data-name="Path 4477" d="M1806.471,900.332s.507-5.529-5.671-5.529a7.256,7.256,0,0,1,2.841,1.523s-3.941-2.313-8.229,1.241-1.624,12.469-2.927,14.162-6.382,2.032-5.761,7.5,16.116,12.328,15.121,16.856c0,0,6.073-8.927,1.73-13a8.045,8.045,0,0,1,2.332,4.363s.575-4.627-2.37-6.107c-2.605-1.31-4.739-6.1-4.514-6.955S1806.471,900.332,1806.471,900.332Z" transform="translate(-483.502 5828.58)" fill="#0b0b36"/>
      <path id="Path_4478" data-name="Path 4478" d="M1822.329,1094.627a5.486,5.486,0,0,0-9.715-2.264,4.97,4.97,0,0,0-.978,2.41c-.642,5.207,7.683,26.417,8.875,28.337,2.171,3.5,14.953,15.481,14.953,15.481l2.356-1.428s-9.066-15.349-10.47-16.785C1825.727,1118.718,1824.138,1103.337,1822.329,1094.627Z" transform="translate(-504.97 5660.299)" fill="#fcb8b6"/>
      <path id="Path_4479" data-name="Path 4479" d="M1977.005,1415.2s3.438-2.257,4.74-2.112,5.069,1.229,5.115,1.783-4.2.9-4.482,1.2-3.166,2.226-4.211,1.623S1977.005,1415.2,1977.005,1415.2Z" transform="translate(-647.406 5382.268)" fill="#fcb8b6"/>
      <path id="Path_4480" data-name="Path 4480" d="M1587.341,1314.914l-3.072-.451a36.311,36.311,0,0,1-11.865-23.521,27.358,27.358,0,0,1-.073-4.735.828.828,0,0,0-.107-.522s0,0,0,0c-.331-.507-1.153-1.776-2.267-3.581-1.1-1.779-2.977-5.142-5.044-8.915-3.724-6.8-8.059-14.922-9.547-17.511-4.738-8.25-2.454-13.8-2.454-13.8s13.219-1.307,16.841-4.476l1.3,2.011s2.864,12.679,2.729,12.738l.43,1.317a220.424,220.424,0,0,1,6.278,22.8,37.7,37.7,0,0,1,.992,9.849,17.263,17.263,0,0,0,.234,3.608C1582.995,1298.818,1587.341,1314.914,1587.341,1314.914Z" transform="translate(-281.725 5533.556)" fill="#26253b"/>
      <path id="Path_4481" data-name="Path 4481" d="M1770.785,1779.392H1757.97a7.035,7.035,0,0,1,.362-3.435c.641-1.422,1.555-1.467.117-3.7.814.838,3.432,1.185,5.284.936.227.368,1.464,2.837,2.222,3.382C1766.793,1777.181,1770.527,1776.967,1770.785,1779.392Z" transform="translate(-458.726 5072.963)" fill="#060632"/>
      <path id="Path_4482" data-name="Path 4482" d="M1574.212,1253.465c-1.119,6.174-3.763,16.448-9.3,19.718-3.724-6.8-8.059-14.922-9.547-17.511-4.738-8.25-2.454-13.8-2.454-13.8s13.219-1.307,16.841-4.476l1.3,2.011s2.864,12.679,2.729,12.738Z" transform="translate(-281.725 5533.556)" fill="#1f1e31"/>
      <path id="Path_4483" data-name="Path 4483" d="M1835.545,1101.463a13.717,13.717,0,0,1,2.639,4.141s-2.89,8.3-9.645,9.341C1828.539,1114.945,1833.883,1101.46,1835.545,1101.463Z" transform="translate(-519.556 5650.616)" fill="#898888"/>
      <path id="Path_4484" data-name="Path 4484" d="M1445.545,1226.245l.043-2.4c-4.775.6-16.465-5.706-16.465-5.706s-5,3.323-5.68,12.811c-.334,4.632-2.445,24.219-2.679,30.068-.085,2.12-.114,3.633-.123,4.237a.015.015,0,0,1,0,.006.834.834,0,0,1-.2.493,27.366,27.366,0,0,0-2.587,3.966c-7.286,13.557-3.476,31.978-3.476,31.978l1.692-.43s6.161-19.1,10.188-27.357a17.294,17.294,0,0,1,1.824-3.122,37.685,37.685,0,0,0,4.684-8.72,227.876,227.876,0,0,0,7.922-23.741C1440.831,1238.358,1445.545,1226.245,1445.545,1226.245Z" transform="translate(-162.046 5550.139)" fill="#26253b"/>
      <path id="Path_4485" data-name="Path 4485" d="M1819.274,1047.212c-7.806-1.792-2.819-12.761-2.367-12.568,1.082-.22,3.457-2.12,5.582-5.828l.287.249,4.794,4.2s-1.108,1.635-2.041,3.236c-.728,1.254-1.348,2.489-1.249,2.913C1824.667,1039.72,1821.356,1047.69,1819.274,1047.212Z" transform="translate(-507.831 5713.176)" fill="#ffc8c7"/>
      <path id="Path_4486" data-name="Path 4486" d="M1875.723,1034.82s-1.109,1.633-2.041,3.236c-2.981-1.837-2.984-5.528-2.754-7.44Z" transform="translate(-555.983 5711.625)" fill="#fcb8b6"/>
      <path id="Path_4487" data-name="Path 4487" d="M1874.623,983.777s-7.238-4.028-4.66-8.5,3.379-8,8.109-5.616,4.636,4.6,4.139,6.3S1876.573,984.71,1874.623,983.777Z" transform="translate(-554.75 5764.773)" fill="#ffc8c7"/>
      <path id="Path_4488" data-name="Path 4488" d="M1878.716,969.607c-.331-1.984-1.339-2.174-2.042-2.041a5.789,5.789,0,0,0-7.04-2.7,9.855,9.855,0,0,1-5.7,3.426s.84,1.563,4.3,2.53a5.914,5.914,0,0,0,3.414-.273,19.32,19.32,0,0,1-4.912,1.852c4.56.417,8.9-3.752,9.349-4.2a6.493,6.493,0,0,1,.359,2.988c-.3,1.344-1.493,3.778-.765,4.093C1875.675,975.288,1879.213,972.582,1878.716,969.607Z" transform="translate(-550.032 5768.527)" fill="#0b0b36"/>
      <path id="Path_4489" data-name="Path 4489" d="M1414.032,1778.819h-12.814a7.038,7.038,0,0,1,.362-3.435c.641-1.421,1.646-2.068,1.405-3.788a4.615,4.615,0,0,0,3.994,1.528,14.063,14.063,0,0,0,2.223,2.882C1410.04,1776.608,1413.774,1776.394,1414.032,1778.819Z" transform="translate(-151.512 5073.537)" fill="#060632"/>
      <path id="Path_4490" data-name="Path 4490" d="M1572.041,1078.924a31.164,31.164,0,0,1-6.33,1.147c-3.37.368-6.849.62-8.671,1.347a1.956,1.956,0,0,0-1.248,1.011c-.79,2.375-4.271,6.04-4.271,6.04-22.314-1.015-24.763-10.349-24.763-10.349,15.013-17.457,40.432-22.51,40.432-22.51s1.816-.77,6.388,2.864c3.051,2.426,2.65,3.357,2.65,3.357S1576.893,1077.231,1572.041,1078.924Z" transform="translate(-259.679 5690.161)" fill="#898888"/>
      <path id="Path_4491" data-name="Path 4491" d="M1753.06,1119.613c-3.37.368-6.848.62-8.671,1.346a35.532,35.532,0,0,1,4.507-19.5S1752.322,1115.4,1753.06,1119.613Z" transform="translate(-447.029 5650.619)" fill="#817d7d"/>
      <path id="Path_4492" data-name="Path 4492" d="M1775.457,1085.954s-8.445.834-9.122,6.322,8.1,27.838,9.353,29.862c2.287,3.684,15.757,16.314,15.757,16.314l2.482-1.5s-9.554-16.174-11.033-17.688C1780.571,1116.882,1778.316,1087.855,1775.457,1085.954Z" transform="translate(-465.957 5663.972)" fill="#ffc8c7"/>
      <path id="Path_4493" data-name="Path 4493" d="M1757.337,1087.422c.022.125,7.794,2.539,12.8,0,0,0,1.07-11.54-4.9-10.914s-9.507,2.507-9.657,5.366A10.1,10.1,0,0,0,1757.337,1087.422Z" transform="translate(-456.715 5672.127)" fill="#898888"/>
      <path id="Path_4494" data-name="Path 4494" d="M1941.87,1434.76s3.029-2.782,4.337-2.848,5.2.4,5.335.936-4,1.564-4.23,1.909-2.766,2.707-3.894,2.28S1941.87,1434.76,1941.87,1434.76Z" transform="translate(-617.15 5366.059)" fill="#ffc8c7"/>
      <path id="Rectangle_819" data-name="Rectangle 819" d="M.461,0H347.424a.461.461,0,0,1,.461.461v0a.461.461,0,0,1-.461.461H.461A.461.461,0,0,1,0,.461v0A.461.461,0,0,1,.461,0Z" transform="translate(1212 6852.304)" fill="#010117"/>
    </g>
  </g>
</svg>
