<svg xmlns="http://www.w3.org/2000/svg" width="1306.621" height="339.873" viewBox="0 0 1306.621 339.873">
  <g id="Group_2654" data-name="Group 2654" transform="translate(-291 -5893.468)">
    <text id="State_In-carge" data-name="State
In-carge" transform="translate(1173 5909)" fill="#21232a" font-size="20" font-family="HelveticaNeue-Bold, Helvetica Neue" font-weight="700"><tspan x="59.99" y="20">State</tspan><tspan x="45.11" y="45">In-carge</tspan></text>
    <text id="Same_as_Technician" data-name="Same as
Technician" transform="translate(1176 5999)" fill="#707070" font-size="14" font-family="HelveticaNeue, Helvetica Neue"><tspan x="54.77" y="13">Same as</tspan><tspan x="48.939" y="29">Technician</tspan></text>
    <text id="Same_as_Technician-2" data-name="Same as
Technician" transform="translate(1176 6126)" fill="#707070" font-size="14" font-family="HelveticaNeue, Helvetica Neue"><tspan x="54.77" y="13">Same as</tspan><tspan x="48.939" y="29">Technician</tspan></text>
    <line id="Line_175" data-name="Line 175" y2="339.872" transform="translate(1164.5 5893.468)" fill="none" stroke="#707070" stroke-width="1" opacity="0.2"/>
    <text id="Same_as_Technician-3" data-name="Same as
Technician" transform="translate(991 6126)" fill="#707070" font-size="14" font-family="HelveticaNeue, Helvetica Neue"><tspan x="54.77" y="13">Same as</tspan><tspan x="48.939" y="29">Technician</tspan></text>
    <text id="Same_as_Technician-4" data-name="Same as
Technician" transform="translate(1007 5999)" fill="#707070" font-size="14" font-family="HelveticaNeue, Helvetica Neue"><tspan x="38.77" y="13">Same as</tspan><tspan x="32.939" y="29">Technician</tspan></text>
    <text id="Cluster_In-charge" data-name="Cluster
In-charge" transform="translate(1022 5909)" fill="#21232a" font-size="20" font-family="HelveticaNeue-Bold, Helvetica Neue" font-weight="700"><tspan x="16.56" y="20">Cluster</tspan><tspan x="5.18" y="45">In-charge</tspan></text>
    <line id="Line_176" data-name="Line 176" y2="339.872" transform="translate(980.5 5893.468)" fill="none" stroke="#707070" stroke-width="1" opacity="0.2"/>
    <text id="CSA" transform="translate(804 5909)" fill="#21232a" font-size="20" font-family="HelveticaNeue-Bold, Helvetica Neue" font-weight="700"><tspan x="64.25" y="20">CSA</tspan></text>
    <text id="Same_as_Operator" data-name="Same as
Operator" transform="translate(817 5999)" fill="#707070" font-size="14" font-family="HelveticaNeue, Helvetica Neue"><tspan x="45.27" y="13">Same as</tspan><tspan x="44.626" y="29">Operator</tspan></text>
    <text id="Same_as_Technician-5" data-name="Same as
Technician" transform="translate(811 6126)" fill="#707070" font-size="14" font-family="HelveticaNeue, Helvetica Neue"><tspan x="50.77" y="13">Same as</tspan><tspan x="44.939" y="29">Technician</tspan></text>
    <line id="Line_177" data-name="Line 177" y2="339.872" transform="translate(796.5 5893.468)" fill="none" stroke="#707070" stroke-width="1" opacity="0.2"/>
    <text id="Same_as_Operator-2" data-name="Same as
Operator" transform="translate(631 5999)" fill="#707070" font-size="14" font-family="HelveticaNeue, Helvetica Neue"><tspan x="45.27" y="13">Same as</tspan><tspan x="44.626" y="29">Operator</tspan></text>
    <text id="Switching_a_meter_on_or_off" data-name="Switching a meter
on or off" transform="translate(631 6126)" fill="#707070" font-size="14" font-family="HelveticaNeue, Helvetica Neue"><tspan x="16.108" y="13">Switching a meter</tspan><tspan x="46.292" y="29">on or off</tspan></text>
    <text id="Technician" transform="translate(653 5909)" fill="#21232a" font-size="20" font-family="HelveticaNeue-Bold, Helvetica Neue" font-weight="700"><tspan x="0.09" y="20">Technician</tspan></text>
    <line id="Line_179" data-name="Line 179" x1="1078.5" transform="translate(291 6094.5)" fill="none" stroke="#707070" stroke-width="1" opacity="0.2"/>
    <line id="Line_178" data-name="Line 178" y2="339.872" transform="translate(611.5 5893.468)" fill="none" stroke="#707070" stroke-width="1" opacity="0.2"/>
    <text id="To_access_information_about_and_control_of_a_customer_s_meter" data-name="To access information about and control of a customer’s meter" transform="translate(447 5999)" fill="#707070" font-size="14" font-family="HelveticaNeue, Helvetica Neue"><tspan x="5.047" y="13">To access information </tspan><tspan x="4.389" y="29">about and control of a </tspan><tspan x="19.166" y="45">customer’s meter</tspan></text>
    <text id="Investigating_why_a_customer_meter_may_have_tripped_off_e.g._they_are_deactivated" data-name="Investigating why a customer meter may have tripped off – e.g. they are deactivated" transform="translate(443 6126)" fill="#707070" font-size="14" font-family="HelveticaNeue, Helvetica Neue"><tspan x="16.982" y="13">Investigating why a </tspan><tspan x="12.418" y="29">customer meter may </tspan><tspan x="8.778" y="45">have tripped off – e.g. </tspan><tspan x="13.468" y="61">they are deactivated</tspan></text>
    <text id="Operator" transform="translate(470 5909)" fill="#21232a" font-size="20" font-family="HelveticaNeue-Bold, Helvetica Neue" font-weight="700"><tspan x="7.22" y="20">Operator</tspan></text>
    <line id="Line_180" data-name="Line 180" y2="339.872" transform="translate(427.5 5893.468)" fill="none" stroke="#707070" stroke-width="1" opacity="0.2"/>
    <text id="Example_Use_Case" data-name="Example
Use Case" transform="translate(311 6126)" fill="#21232a" font-size="20" font-family="HelveticaNeue-Bold, Helvetica Neue" font-weight="700"><tspan x="10.42" y="20">Example</tspan><tspan x="5.94" y="45">Use Case</tspan></text>
    <text id="Main_Purpose" data-name="Main
Purpose" transform="translate(310.5 5999)" fill="#21232a" font-size="20" font-family="HelveticaNeue-Bold, Helvetica Neue" font-weight="700"><tspan x="21.18" y="20">Main</tspan><tspan x="4.68" y="45">Purpose</tspan></text>
    <g id="Group_1900" data-name="Group 1900" transform="translate(-8717 -1659.597)">
      <path id="Path_3866" data-name="Path 3866" d="M231.117,249.137l-45.809,37.99a20.746,20.746,0,1,1-31.9,26.458l-41.07,34.06,65.834,79.385,118.783-98.508Z" transform="translate(10017.67 7364.992)" fill="#f2f2f2"/>
      <path id="Path_3886" data-name="Path 3886" d="M255.846,594.779a87.089,87.089,0,1,0-149.515,0Z" transform="translate(10029 7232.818)" fill="#535353"/>
      <circle id="Ellipse_310" data-name="Ellipse 310" cx="8" cy="8" r="8" transform="translate(10202 7769.597)" fill="#a2a2a2"/>
      <circle id="Ellipse_311" data-name="Ellipse 311" cx="4" cy="4" r="4" transform="translate(10139 7786.597)" fill="#a2a2a2"/>
      <ellipse id="Ellipse_312" data-name="Ellipse 312" cx="4.202" cy="4.202" rx="4.202" ry="4.202" transform="translate(10141.508 7750.335)" fill="#a2a2a2"/>
      <ellipse id="Ellipse_313" data-name="Ellipse 313" cx="4.202" cy="4.202" rx="4.202" ry="4.202" transform="translate(10162.364 7720.411)" fill="#a2a2a2"/>
      <ellipse id="Ellipse_314" data-name="Ellipse 314" cx="4.202" cy="4.202" rx="4.202" ry="4.202" transform="translate(10195.653 7705.503)" fill="#a2a2a2"/>
      <ellipse id="Ellipse_315" data-name="Ellipse 315" cx="4.202" cy="4.202" rx="4.202" ry="4.202" transform="translate(10231.866 7709.87)" fill="#a2a2a2"/>
      <ellipse id="Ellipse_316" data-name="Ellipse 316" cx="4.202" cy="4.202" rx="4.202" ry="4.202" transform="translate(10260.657 7732.263)" fill="#a2a2a2"/>
      <ellipse id="Ellipse_318" data-name="Ellipse 318" cx="4.202" cy="4.202" rx="4.202" ry="4.202" transform="translate(10267.547 7802.222)" fill="#a2a2a2"/>
      <line id="Line_203" data-name="Line 203" y1="32" x2="44" transform="translate(10210 7744.597)" fill="none" stroke="#a2a2a2" stroke-miterlimit="10" stroke-width="4"/>
      <ellipse id="Ellipse_319" data-name="Ellipse 319" cx="5.636" cy="5.636" rx="5.636" ry="5.636" transform="translate(10244.384 7609.339)" fill="none" stroke="#3f3d56" stroke-miterlimit="10" stroke-width="2"/>
      <ellipse id="Ellipse_321" data-name="Ellipse 321" cx="16.339" cy="16.339" rx="16.339" ry="16.339" transform="translate(10170.917 7649.366)" fill="#f2f2f2"/>
    </g>
  </g>
</svg>
