<svg xmlns="http://www.w3.org/2000/svg" width="1263.605" height="236" viewBox="0 0 1263.605 236">
  <g id="Group_2814" data-name="Group 2814" transform="translate(-306 -6422.5)">
    <text id="Cluster_In-charge" data-name="Cluster In-charge" transform="translate(749 6431)" fill="#21232a" font-size="20" font-family="HelveticaNeue-Bold, Helvetica Neue" font-weight="700"><tspan x="3.92" y="20">Cluster In-charge</tspan></text>
    <text id="Main_Purpose" data-name="Main
Purpose" transform="translate(306 6487)" fill="#21232a" font-size="20" font-family="HelveticaNeue-Bold, Helvetica Neue" font-weight="700"><tspan x="99.36" y="20">Main</tspan><tspan x="66.36" y="45">Purpose</tspan></text>
    <text id="Example_Use_Case" data-name="Example
Use Case" transform="translate(346 6594)" fill="#21232a" font-size="20" font-family="HelveticaNeue-Bold, Helvetica Neue" font-weight="700"><tspan x="23.84" y="20">Example</tspan><tspan x="14.88" y="45">Use Case</tspan></text>
    <text id="State_In-carge" data-name="State In-carge" transform="translate(1004 6431)" fill="#21232a" font-size="20" font-family="HelveticaNeue-Bold, Helvetica Neue" font-weight="700"><tspan x="17.32" y="20">State In-carge</tspan></text>
    <line id="Line_68" data-name="Line 68" y2="236" transform="translate(958.5 6422.5)" fill="none" stroke="#707070" stroke-width="1" opacity="0.2"/>
    <line id="Line_69" data-name="Line 69" y2="236" transform="translate(717.5 6422.5)" fill="none" stroke="#707070" stroke-width="1" opacity="0.2"/>
    <text id="CSA" transform="translate(558 6431)" fill="#21232a" font-size="20" font-family="HelveticaNeue-Bold, Helvetica Neue" font-weight="700"><tspan x="15.25" y="20">CSA</tspan></text>
    <line id="Line_70" data-name="Line 70" y2="236" transform="translate(476.5 6422.5)" fill="none" stroke="#707070" stroke-width="1" opacity="0.2"/>
    <line id="Line_71" data-name="Line 71" x1="909" transform="translate(331.5 6561.5)" fill="none" stroke="#707070" stroke-width="1" opacity="0.2"/>
    <text id="Reviewing_the_plant-wide_collections_that_need_to_made" data-name="Reviewing the plant-wide collections that need to made" transform="translate(499 6498)" fill="#707070" font-size="14" font-family="HelveticaNeue, Helvetica Neue"><tspan x="16.061" y="13">Reviewing the plant-wide </tspan><tspan x="2.159" y="29">collections that need to made</tspan></text>
    <text id="Summary_of_billing_and_collections_in_a_specified_time_interval" data-name="Summary of billing and collections in a specified time interval" transform="translate(730 6493)" fill="#707070" font-size="14" font-family="HelveticaNeue, Helvetica Neue"><tspan x="32.033" y="13">Summary of billing and </tspan><tspan x="11.691" y="29">collections in a specified time </tspan><tspan x="81.446" y="45">interval</tspan></text>
    <text id="View_current_billing_and_collection_for_the_portfolio" data-name="View current billing and collection for the portfolio" transform="translate(1007 6499)" fill="#707070" font-size="14" font-family="HelveticaNeue, Helvetica Neue"><tspan x="9.27" y="13">View current billing and </tspan><tspan x="1.892" y="29">collection for the portfolio</tspan></text>
    <text id="Assessing_the_percentage_of_billed_revenue_which_is_still_outstanding" data-name="Assessing the percentage of billed revenue which is still outstanding" transform="translate(494 6594)" fill="#707070" font-size="14" font-family="HelveticaNeue, Helvetica Neue"><tspan x="10.691" y="13">Assessing the percentage of </tspan><tspan x="16.403" y="29">billed revenue which is still </tspan><tspan x="62.414" y="45">outstanding</tspan></text>
    <text id="Tracking_amount_collected_for_different_services_energy_connection_water_etc._in_the_cluster" data-name="Tracking amount collected for different services (energy, connection, water, etc.) in the cluster" transform="translate(723 6587)" fill="#707070" font-size="14" font-family="HelveticaNeue, Helvetica Neue"><tspan x="18.166" y="13">Tracking amount collected for </tspan><tspan x="31.578" y="29">different services (energy, </tspan><tspan x="19.076" y="45">connection, water, etc.) in the </tspan><tspan x="90" y="61">cluster</tspan></text>
    <text id="Tracking_total_revenue_and_the_expected_cash-flow_from_collections_at_each_plant_in_the_State" data-name="Tracking total revenue, and the expected cash-flow from collections at each plant in the State" transform="translate(975 6588)" fill="#707070" font-size="14" font-family="HelveticaNeue, Helvetica Neue"><tspan x="17.285" y="13">Tracking total revenue, and the </tspan><tspan x="0.072" y="29">expected cash-flow from collections </tspan><tspan x="35.31" y="45">at each plant in the State</tspan></text>
    <g id="Group_2813" data-name="Group 2813" transform="translate(-1006 -797.698)">
      <path id="Path_4998" data-name="Path 4998" d="M190.78,659.531a13.048,13.048,0,0,0,4.682-11.248,10.548,10.548,0,0,0-7.842-8.955c-4.137-.892-8.854,1.577-10.11,5.619-.692-7.792-1.489-15.91-5.631-22.546a23.877,23.877,0,0,0-17.289-11.077,21.423,21.423,0,0,0-18.846,7.693,19.443,19.443,0,0,0-2.391,20.018c2.266,4.7,6.44,8.2,10.813,11.044A69.789,69.789,0,0,0,191.9,660.522Z" transform="translate(2166.516 6785.913)" fill="#f2f2f2"/>
      <path id="Path_4999" data-name="Path 4999" d="M160.421,617.645a114.187,114.187,0,0,1,15.913,15.8A114.522,114.522,0,0,1,194.257,663.4c.323.791-.962,1.135-1.281.353a113.876,113.876,0,0,0-33.494-45.167C158.819,618.044,159.763,617.109,160.421,617.645Z" transform="translate(2148.801 6781.889)" fill="#fff"/>
      <path id="Path_5000" data-name="Path 5000" d="M516.447,149.129H341.371a2.519,2.519,0,0,0-2.516,2.516V270.281a2.519,2.519,0,0,0,2.516,2.516H516.447a2.519,2.519,0,0,0,2.516-2.516V151.646a2.519,2.519,0,0,0-2.517-2.516Zm1.8,121.151a1.8,1.8,0,0,1-1.8,1.8H341.371a1.8,1.8,0,0,1-1.8-1.8V151.646a1.8,1.8,0,0,1,1.8-1.8H516.447a1.8,1.8,0,0,1,1.8,1.8Z" transform="translate(2033.768 7081.871)" fill="#3f3d56"/>
      <rect id="Rectangle_919" data-name="Rectangle 919" width="179.39" height="0.719" transform="translate(2372.982 7241.081)" fill="#3f3d56"/>
      <circle id="Ellipse_424" data-name="Ellipse 424" cx="2.157" cy="2.157" r="2.157" transform="translate(2376.936 7234.236)" fill="#3f3d56"/>
      <circle id="Ellipse_425" data-name="Ellipse 425" cx="2.157" cy="2.157" r="2.157" transform="translate(2383.138 7234.236)" fill="#3f3d56"/>
      <circle id="Ellipse_426" data-name="Ellipse 426" cx="2.157" cy="2.157" r="2.157" transform="translate(2389.339 7234.236)" fill="#3f3d56"/>
      <path id="Path_5001" data-name="Path 5001" d="M573.069,214.662h-30.2a2.517,2.517,0,0,1,0-5.033h30.2a2.517,2.517,0,1,1,0,5.033Z" transform="translate(1904.707 7043.12)" fill="#ccc"/>
      <path id="Path_5002" data-name="Path 5002" d="M556.911,248.662h-71.54a2.516,2.516,0,0,1,0-5.033h71.54a2.516,2.516,0,0,1,0,5.033Z" transform="translate(1941.536 7021.343)" fill="#ccc"/>
      <path id="Path_5003" data-name="Path 5003" d="M724.108,417.725a13.711,13.711,0,1,1,13.711-13.711A13.711,13.711,0,0,1,724.108,417.725Zm0-26.476a12.765,12.765,0,1,0,12.765,12.765A12.765,12.765,0,0,0,724.108,391.25Z" transform="translate(1795.794 6927.398)" fill="#3f3d56"/>
      <path id="Path_5004" data-name="Path 5004" d="M404.372,315.583a13.711,13.711,0,1,1,13.711-13.711A13.711,13.711,0,0,1,404.372,315.583Zm0-26.476a12.765,12.765,0,1,0,12.765,12.765A12.765,12.765,0,0,0,404.372,289.107Z" transform="translate(2000.586 6992.82)" fill="#3f3d56"/>
      <path id="Path_5005" data-name="Path 5005" d="M422.226,320.618a1.355,1.355,0,0,1-1.355-1.353v-7.693a1.354,1.354,0,0,1,1.353-1.353h0a1.354,1.354,0,0,1,1.353,1.353v7.693A1.354,1.354,0,0,1,422.226,320.618Zm-3.532,0a1.359,1.359,0,0,1-1.372-1.353v-4.144a1.354,1.354,0,0,1,1.353-1.353h.019a1.354,1.354,0,0,1,1.353,1.353v4.144A1.354,1.354,0,0,1,418.695,320.618Zm-3.566,0a1.355,1.355,0,0,1-1.355-1.353V307.435a1.354,1.354,0,0,1,1.353-1.353h0a1.354,1.354,0,0,1,1.353,1.353v11.831A1.354,1.354,0,0,1,415.129,320.618Zm-3.552,0a1.353,1.353,0,0,1-1.354-1.354v-1.777a1.353,1.353,0,1,1,2.705,0v1.777A1.354,1.354,0,0,1,411.576,320.618Z" transform="translate(1988.057 6981.342)" fill="#bdbdbd"/>
      <g id="Group_2812" data-name="Group 2812" transform="translate(2501.089 7280.982)">
        <path id="Path_5006" data-name="Path 5006" d="M982.915,699.583a13.711,13.711,0,1,1,13.711-13.711A13.711,13.711,0,0,1,982.915,699.583Zm0-26.476a12.765,12.765,0,1,0,12.765,12.765A12.765,12.765,0,0,0,982.915,673.107Z" transform="translate(-969.204 -672.161)" fill="#3f3d56"/>
        <path id="Path_5007" data-name="Path 5007" d="M998.892,703.218l-2.673,4.087a1.449,1.449,0,0,1,.33.926,1.471,1.471,0,0,1-2.941,0,1.723,1.723,0,0,1,.025-.282l-1.764-1.027a1.465,1.465,0,0,1-1.744.22l-1.877,1.759v1.753a1.312,1.312,0,0,0,1.307,1.31h11.113a1.315,1.315,0,0,0,1.31-1.31v-6.5l-1.8-1.194a1.476,1.476,0,0,1-1.29.26Z" transform="translate(-981.401 -691.887)" fill="#bdbdbd"/>
        <path id="Path_5008" data-name="Path 5008" d="M990.85,697.765a1.471,1.471,0,0,1,1.471,1.471h0v.189l1.84,1.03a1.468,1.468,0,0,1,.931-.333,1.613,1.613,0,0,1,.319.034l2.679-4.146a1.465,1.465,0,1,1,2.659-.847,1.553,1.553,0,0,1-.04.347l1.267.847V693.9a1.315,1.315,0,0,0-1.31-1.31H989.554a1.312,1.312,0,0,0-1.307,1.31v7.026l1.225-1.174a1.468,1.468,0,0,1,1.377-1.976Z" transform="translate(-981.401 -685.249)" fill="#bdbdbd"/>
      </g>
      <path id="Path_5009" data-name="Path 5009" d="M566.439,315.583a13.711,13.711,0,1,1,13.711-13.711A13.711,13.711,0,0,1,566.439,315.583Zm0-26.476A12.765,12.765,0,1,0,579.2,301.872a12.765,12.765,0,0,0-12.765-12.765Z" transform="translate(1896.781 6992.82)" fill="#3f3d56"/>
      <path id="Path_5010" data-name="Path 5010" d="M568.829,322.415a1,1,0,0,1-.706-1.7l5.066-5.08a.846.846,0,0,1,.6-.25h0a.846.846,0,0,1,.6.249l2.349,2.35a.507.507,0,0,0,.361.15h0a.507.507,0,0,0,.361-.15l3.317-3.323a.17.17,0,0,0,0-.241l-1.073-1.071a.511.511,0,0,1,.361-.872h3.812a.511.511,0,0,1,.511.511v3.81a.511.511,0,0,1-.872.361l-1.075-1.075a.17.17,0,0,0-.241,0l-4.492,4.489a.845.845,0,0,1-.6.249h0a.846.846,0,0,1-.6-.249l-2.351-2.351a.523.523,0,0,0-.723,0l-3.9,3.9A.99.99,0,0,1,568.829,322.415Z" transform="translate(1887.108 6977.248)" fill="#bdbdbd"/>
      <path id="Path_5011" data-name="Path 5011" d="M566.439,415.583a13.711,13.711,0,1,1,13.711-13.711A13.711,13.711,0,0,1,566.439,415.583Z" transform="translate(1900.017 6928.411)" fill="#e6e6e6"/>
      <path id="Path_5013" data-name="Path 5013" d="M416.829,388.161a13.762,13.762,0,0,0-6.719,1.762,12.768,12.768,0,0,1,2.445,24.978,13.163,13.163,0,0,0,1.636.428,13.568,13.568,0,0,0,2.639.255,13.711,13.711,0,0,0,0-27.423Z" transform="translate(1988.129 6928.771)" fill="#e6e6e6"/>
      <path id="Path_5014" data-name="Path 5014" d="M385.149,390.56a13.3,13.3,0,0,0-2.639-.259,13.726,13.726,0,1,0,2.639.259Zm.928,25.711a12.766,12.766,0,1,1-3.566-25.025c.378,0,.751.018,1.122.047a12.768,12.768,0,0,1,2.445,24.978Z" transform="translate(2014.607 6927.4)" fill="#3f3d56"/>
      <path id="Path_5015" data-name="Path 5015" d="M411.793,411.071a7.69,7.69,0,0,0-9.2-5.79c-.194.044-.4.1-.572.153l1.832,8.051,8.051-1.829C411.875,411.469,411.838,411.265,411.793,411.071Z" transform="translate(1993.307 6917.928)" fill="#bdbdbd"/>
      <path id="Path_5016" data-name="Path 5016" d="M399.767,416.2l-8.055,1.829-1.829-8.051a7.687,7.687,0,1,0,9.877,6.222Z" transform="translate(2004.553 6914.795)" fill="#bdbdbd"/>
      <g id="Group_2811" data-name="Group 2811" transform="translate(2449.104 7316.983)">
        <path id="Path_5017" data-name="Path 5017" d="M796.309,557.725a13.711,13.711,0,1,1,13.711-13.711A13.711,13.711,0,0,1,796.309,557.725Zm0-26.476a12.765,12.765,0,1,0,12.765,12.765A12.765,12.765,0,0,0,796.309,531.25Z" transform="translate(-782.598 -530.304)" fill="#3f3d56"/>
        <path id="Path_5018" data-name="Path 5018" d="M811.595,564.148a2.537,2.537,0,1,1,2.536-2.539,2.537,2.537,0,0,1-2.536,2.539Zm-5.916,0a2.539,2.539,0,0,1-2.536-2.536V555.7a2.536,2.536,0,0,1,5.071,0v5.916a2.539,2.539,0,0,1-2.536,2.536Zm-5.914,0a2.54,2.54,0,0,1-2.537-2.537v-2.364a2.537,2.537,0,0,1,5.075,0v2.364a2.54,2.54,0,0,1-2.537,2.537Z" transform="translate(-791.968 -544.944)" fill="#bdbdbd"/>
      </g>
      <path id="Path_5019" data-name="Path 5019" d="M205.371,560.452l4.179-.474.16-16.345-6.168.7Z" transform="translate(2166.631 6882.803)" fill="#a0616a"/>
      <path id="Path_5020" data-name="Path 5020" d="M0,0H13.218V5.107H5.107A5.107,5.107,0,0,1,0,0Z" transform="translate(2384.683 7445.747) rotate(173.526)" fill="#2f2e41"/>
      <path id="Path_5021" data-name="Path 5021" d="M89.08,560.788h4.206l2-16.222H89.079Z" transform="translate(2239.945 6882.206)" fill="#a0616a"/>
      <path id="Path_5022" data-name="Path 5022" d="M0,0H13.218V5.107H5.107A5.107,5.107,0,0,1,0,0H0Z" transform="translate(2341.34 7446.899) rotate(179.997)" fill="#2f2e41"/>
      <path id="Path_5023" data-name="Path 5023" d="M245.9,532.406l2.4,7.811,13.036,28.21,3.431,26.758-7.89.343-4.8-24.7-16.467-17.839L221.2,599.645l-6.518-.686s5.489-60.378,13.036-66.553C227.717,532.406,240.067,526.574,245.9,532.406Z" transform="translate(2113.301 6838.042)" fill="#2f2e41"/>
      <circle id="Ellipse_427" data-name="Ellipse 427" cx="8.426" cy="8.426" r="8.426" transform="translate(2340.122 7319.892)" fill="#a0616a"/>
      <path id="Path_5024" data-name="Path 5024" d="M262.883,483.043s1.029-34.992-13.379-32.59-8.4,36.193-8.4,36.193,3.088,6.175,10.635-.686S262.883,483.043,262.883,483.043Z" transform="translate(2097.175 6888.949)" fill="#bdbdbd"/>
      <path id="Path_5025" data-name="Path 5025" d="M358.306,450.774a3.45,3.45,0,0,1-5.244.691l-10.792,5.814.565-6.345L353,446.385a3.468,3.468,0,0,1,5.31,4.388Z" transform="translate(2031.581 6892.092)" fill="#a0616a"/>
      <path id="Path_5026" data-name="Path 5026" d="M261.813,454.619l17.519,2.961,15.7-7.411,2.384,5.1-17.186,10.947s-18.2,1.235-22.4-3.563a4.908,4.908,0,0,1-1.367-4.781A4.727,4.727,0,0,1,261.813,454.619Z" transform="translate(2086.655 6889.055)" fill="#bdbdbd"/>
      <path id="Path_5027" data-name="Path 5027" d="M207.215,405.336a.348.348,0,0,0-.049-.555,4.9,4.9,0,0,1,.472-8.589c2.477-1.181,5.834-.262,7.665-2.532a4.257,4.257,0,0,0,.79-3.457,7.5,7.5,0,0,0-3.811-4.827A13.869,13.869,0,0,0,191.325,398.8c.233,2.063.87,4.377-.357,6.052-1.08,1.474-3.118,1.751-4.908,2.117a18.478,18.478,0,0,0-10.15,5.526,12.865,12.865,0,0,0-3.21,10.875,9.921,9.921,0,0,0,7.812,7.81,10.675,10.675,0,0,0,8.725-3.049,18.559,18.559,0,0,0,4.7-8.212c1.1-3.625,1.528-7.53,3.506-10.759,1.936-3.159,6.108-5.424,9.377-3.779a.351.351,0,0,0,.393-.047Z" transform="translate(2140.331 6931.835)" fill="#2f2e41"/>
      <path id="Path_5039" data-name="Path 5039" d="M406.81,749.462H128.8a.3.3,0,0,1,0-.591H406.81a.3.3,0,0,1,0,.591Z" transform="translate(2168.5 6697.8)" fill="#3f3d56"/>
      <path id="Path_5040" data-name="Path 5040" d="M742.68,440.6H732.614a1.078,1.078,0,1,1,0-2.157H742.68a1.078,1.078,0,1,1,0,2.157Z" transform="translate(1782.255 6896.566)" fill="#bdbdbd"/>
      <path id="Path_5041" data-name="Path 5041" d="M742.68,427.6H732.614a1.078,1.078,0,1,1,0-2.157H742.68a1.078,1.078,0,1,1,0,2.157Z" transform="translate(1782.255 6904.892)" fill="#bdbdbd"/>
      <path id="Path_5042" data-name="Path 5042" d="M742.68,414.6H732.614a1.078,1.078,0,1,1,0-2.157H742.68a1.078,1.078,0,1,1,0,2.157Z" transform="translate(1782.255 6913.219)" fill="#bdbdbd"/>
    </g>
  </g>
</svg>
