<svg xmlns="http://www.w3.org/2000/svg" width="815.188" height="275.723" viewBox="0 0 815.188 275.723">
  <g id="Group_2862" data-name="Group 2862" transform="translate(-552 -4642)">
    <g id="Group_429" data-name="Group 429" transform="translate(552 4695.387)">
      <path id="Path_1214" data-name="Path 1214" d="M233.068,192.886v3.639l-2.9,2.9-67.106,67.121v18.242h.279V304.9a19.387,19.387,0,0,1-19.363,19.37h-95.8A19.39,19.39,0,0,1,28.812,304.9V121.3a19.39,19.39,0,0,1,19.367-19.37h95.8a19.387,19.387,0,0,1,19.363,19.37v20.846h-.161v14.235h69.168v2.574H160.612V142.146h-.161V121.3a16.49,16.49,0,0,0-16.469-16.475h-95.8A16.492,16.492,0,0,0,31.706,121.3V304.9A16.492,16.492,0,0,0,48.179,321.37h95.8A16.49,16.49,0,0,0,160.451,304.9V284.783h.041v-19.31l.377-.376,69.3-69.316Z" transform="translate(-28.812 -101.93)" fill="#707070"/>
      <path id="Path_1215" data-name="Path 1215" d="M404.019,192.886v3.639l-2.894,2.9-67.107,67.121v18.242h.28V304.9a19.388,19.388,0,0,1-19.363,19.37H219.13a19.391,19.391,0,0,1-19.367-19.37V121.3a19.391,19.391,0,0,1,19.367-19.37h95.805A19.388,19.388,0,0,1,334.3,121.3v20.846h-.161v14.235h69.168v2.574H331.564V142.146H331.4V121.3a16.49,16.49,0,0,0-16.468-16.475H219.13A16.491,16.491,0,0,0,202.658,121.3V304.9A16.491,16.491,0,0,0,219.13,321.37h95.805A16.49,16.49,0,0,0,331.4,304.9V284.783h.043v-19.31l.376-.376,69.3-69.316Z" transform="translate(2.26 -101.93)" fill="#707070"/>
      <path id="Path_1216" data-name="Path 1216" d="M574.971,192.886v3.639l-2.9,2.9L504.97,266.542v18.242h.28V304.9a19.388,19.388,0,0,1-19.364,19.37h-95.8a19.391,19.391,0,0,1-19.367-19.37V121.3a19.391,19.391,0,0,1,19.367-19.37h95.8A19.388,19.388,0,0,1,505.25,121.3v20.846h-.161v14.235h69.168v2.574H502.515V142.146h-.161V121.3a16.49,16.49,0,0,0-16.469-16.475h-95.8A16.491,16.491,0,0,0,373.61,121.3V304.9a16.491,16.491,0,0,0,16.471,16.475h95.8A16.49,16.49,0,0,0,502.354,304.9V284.783h.041v-19.31l.377-.376,69.3-69.316Z" transform="translate(33.331 -101.93)" fill="#707070"/>
      <path id="Path_1217" data-name="Path 1217" d="M745.28,156.463v-.082H676.114V142.146h.161V121.3a19.389,19.389,0,0,0-19.365-19.369H561.1A19.389,19.389,0,0,0,541.74,121.3V304.9A19.389,19.389,0,0,0,561.1,324.266h95.805A19.389,19.389,0,0,0,676.275,304.9V284.782h-.282V266.54l74.4-74.415.377-.377V156.463Zm2.918,34.219L673.8,265.1l-.377.377v19.308h-.039V304.9a16.491,16.491,0,0,1-16.47,16.474H561.1a16.491,16.491,0,0,1-16.47-16.474V121.3a16.491,16.491,0,0,1,16.47-16.474h95.805a16.491,16.491,0,0,1,16.47,16.474v20.847h.161v16.809h70.52v.082H748.2Z" transform="translate(64.416 -101.93)" fill="#707070"/>
    </g>
    <g id="Group_434" data-name="Group 434" transform="translate(673.306 4764.97)">
      <g id="Group_432" data-name="Group 432" transform="translate(0 12.782)">
        <g id="Group_430" data-name="Group 430">
          <path id="Path_1218" data-name="Path 1218" d="M141.095,210.941a9.247,9.247,0,0,1-5.352-1.506,8.34,8.34,0,0,1-3.219-4,15.073,15.073,0,0,1-1.064-5.917V183.035c0-3.541.793-6.328,2.414-8.341,1.6-2.06,4.013-3.067,7.221-3.067,3.185,0,5.586,1.051,7.2,3.067q2.418,3.047,2.414,8.341v16.478a13.044,13.044,0,0,1-2.458,8.31A8.593,8.593,0,0,1,141.095,210.941Zm0-4.534q4.111,0,4.114-6.893V183.035c0-.768-.035-1.47-.079-2.067a9.164,9.164,0,0,0-.357-1.847,5.376,5.376,0,0,0-.715-1.574,3.389,3.389,0,0,0-1.191-1.013,3.907,3.907,0,0,0-1.771-.372,4.048,4.048,0,0,0-1.8.372,3.286,3.286,0,0,0-1.163,1.013,5.579,5.579,0,0,0-.74,1.574,12.462,12.462,0,0,0-.339,1.847c-.056.6-.1,1.3-.1,2.067v16.478a15.532,15.532,0,0,0,.195,2.525,9.107,9.107,0,0,0,.63,2.157,3.663,3.663,0,0,0,1.263,1.627A3.524,3.524,0,0,0,141.095,206.406Z" transform="translate(-131.46 -171.627)" fill="#707070"/>
        </g>
        <g id="Group_431" data-name="Group 431" transform="translate(22.693 0.397)">
          <path id="Path_1219" data-name="Path 1219" d="M154.77,210.466V180.227h-4.107V176.1c2.781-.992,4.6-2.377,5.486-4.137h4.136v38.5Z" transform="translate(-150.663 -171.963)" fill="#707070"/>
        </g>
      </g>
      <g id="Group_433" data-name="Group 433" transform="translate(2.896 0)">
        <path id="Path_1220" data-name="Path 1220" d="M136.348,169.827a3.611,3.611,0,0,1-1.144-.182,1.846,1.846,0,0,1-.743-.609,2.592,2.592,0,0,1-.421-.909,5.218,5.218,0,0,1-.129-1.217v-3.2a5.164,5.164,0,0,1,.129-1.233,2.454,2.454,0,0,1,.421-.909,1.8,1.8,0,0,1,.743-.55,2.976,2.976,0,0,1,1.144-.207,2.131,2.131,0,0,1,1.846.749,3.421,3.421,0,0,1,.587,2.148v3.2a5.52,5.52,0,0,1-.129,1.185,3.36,3.36,0,0,1-.411.941,1.979,1.979,0,0,1-.759.59A3.169,3.169,0,0,1,136.348,169.827Zm-.922-1.424a1.044,1.044,0,0,0,.922.386,1.057,1.057,0,0,0,.922-.386,2.275,2.275,0,0,0,.247-1.2v-3.831a2.137,2.137,0,0,0-.247-1.158,1.068,1.068,0,0,0-.922-.366,1.054,1.054,0,0,0-.922.366,2.153,2.153,0,0,0-.269,1.158V167.2A2.29,2.29,0,0,0,135.426,168.4Z" transform="translate(-133.911 -160.811)" fill="#707070"/>
        <path id="Path_1221" data-name="Path 1221" d="M138.957,169.733v-8.845h2.223c1.468,0,2.192.853,2.192,2.524a2.171,2.171,0,0,1-.552,1.627,2.238,2.238,0,0,1-1.64.577h-.949v4.117Zm1.274-5.054h.31a3.848,3.848,0,0,0,.719-.063,1.245,1.245,0,0,0,.467-.178.679.679,0,0,0,.3-.373,1.844,1.844,0,0,0,.095-.652,3.124,3.124,0,0,0-.074-.762.871.871,0,0,0-.255-.482,1.06,1.06,0,0,0-.479-.267,2.777,2.777,0,0,0-.775-.066h-.31Z" transform="translate(-132.994 -160.797)" fill="#707070"/>
        <path id="Path_1222" data-name="Path 1222" d="M144.345,169.733v-7.726H142.78v-1.119h4.4v1.119H145.6v7.726Z" transform="translate(-132.299 -160.797)" fill="#707070"/>
        <path id="Path_1223" data-name="Path 1223" d="M147.079,169.733v-8.845h1.269v8.845Z" transform="translate(-131.518 -160.797)" fill="#707070"/>
        <path id="Path_1224" data-name="Path 1224" d="M151.6,169.827a3.568,3.568,0,0,1-1.145-.182,1.912,1.912,0,0,1-.761-.609,2.465,2.465,0,0,1-.408-.909,4.854,4.854,0,0,1-.131-1.217v-3.2a4.812,4.812,0,0,1,.131-1.233,2.342,2.342,0,0,1,.408-.909,1.874,1.874,0,0,1,.761-.55,2.944,2.944,0,0,1,1.145-.207,2.153,2.153,0,0,1,1.853.749,3.417,3.417,0,0,1,.561,2.148v3.2a4.047,4.047,0,0,1-.125,1.185,3.05,3.05,0,0,1-.411.941,1.787,1.787,0,0,1-.759.59A3.136,3.136,0,0,1,151.6,169.827Zm-.925-1.424a1.025,1.025,0,0,0,.925.386,1.007,1.007,0,0,0,.909-.386,2.36,2.36,0,0,0,.258-1.2v-3.831a2.218,2.218,0,0,0-.258-1.158,1.017,1.017,0,0,0-.909-.366,1.036,1.036,0,0,0-.925.366,2.137,2.137,0,0,0-.247,1.158V167.2A2.274,2.274,0,0,0,150.679,168.4Z" transform="translate(-131.14 -160.811)" fill="#707070"/>
        <path id="Path_1225" data-name="Path 1225" d="M154.22,169.733v-8.845h.944l2.208,5.45v-5.45h1.273v8.845h-.912l-2.264-5.892v5.892Z" transform="translate(-130.22 -160.797)" fill="#707070"/>
      </g>
    </g>
    <g id="Group_439" data-name="Group 439" transform="translate(874.617 4764.97)">
      <g id="Group_437" data-name="Group 437" transform="translate(0 14.354)">
        <g id="Group_435" data-name="Group 435">
          <path id="Path_1226" data-name="Path 1226" d="M310.741,209.322a8.9,8.9,0,0,1-4.957-1.374,8.307,8.307,0,0,1-3.011-3.723,14.42,14.42,0,0,1-.963-5.463V183.476a12.17,12.17,0,0,1,2.236-7.709c1.474-1.877,3.719-2.81,6.7-2.81,2.947,0,5.18.934,6.66,2.81a12.072,12.072,0,0,1,2.244,7.709v15.286a11.885,11.885,0,0,1-2.28,7.657A7.919,7.919,0,0,1,310.741,209.322Zm0-4.2c2.52,0,3.776-2.13,3.776-6.365V183.476c0-.678,0-1.359-.032-1.906a8.415,8.415,0,0,0-.339-1.709,4.232,4.232,0,0,0-.652-1.429,2.912,2.912,0,0,0-1.121-.941,3.356,3.356,0,0,0-1.631-.36,3.412,3.412,0,0,0-1.659.36,2.738,2.738,0,0,0-1.1.941,4.084,4.084,0,0,0-.659,1.429A7.642,7.642,0,0,0,307,181.57a16.641,16.641,0,0,0-.08,1.906v15.286a19.2,19.2,0,0,0,.163,2.309,8.328,8.328,0,0,0,.576,2.015,3.89,3.89,0,0,0,1.2,1.516A3.21,3.21,0,0,0,310.741,205.127Z" transform="translate(-301.809 -172.957)" fill="#707070"/>
        </g>
        <g id="Group_436" data-name="Group 436" transform="translate(21.171)">
          <path id="Path_1227" data-name="Path 1227" d="M319.724,208.952v-5.1l8.915-12.717c.079-.147.329-.473.694-.965.345-.5.594-.838.713-1.036.1-.165.33-.48.624-.941a10.978,10.978,0,0,0,.613-1.048c.11-.246.266-.589.445-1.052a7.287,7.287,0,0,0,.412-1.2c.067-.345.16-.758.214-1.241a10.087,10.087,0,0,0,.09-1.423,6.431,6.431,0,0,0-.973-3.608,3.2,3.2,0,0,0-2.833-1.483,3.42,3.42,0,0,0-1.871.531,3.726,3.726,0,0,0-1.186,1.484,8.63,8.63,0,0,0-.591,2.03,14.418,14.418,0,0,0-.183,2.3v1.3h-5.077v-1.3c0-3.314.688-5.9,2.135-7.763s3.681-2.756,6.773-2.756c2.91,0,5.087.8,6.625,2.437a9.59,9.59,0,0,1,2.277,6.828,15.408,15.408,0,0,1-.288,3.057,11.567,11.567,0,0,1-.9,2.753,19.8,19.8,0,0,1-1.17,2.171c-.346.576-.841,1.306-1.458,2.169l-8.919,11.476h12.733v5.1Z" transform="translate(-319.724 -172.957)" fill="#707070"/>
        </g>
      </g>
      <g id="Group_438" data-name="Group 438" transform="translate(2.092 0)">
        <path id="Path_1228" data-name="Path 1228" d="M306.156,170.335a3.373,3.373,0,0,1-1.2-.194,2.071,2.071,0,0,1-.8-.633,2.68,2.68,0,0,1-.428-.967,4.764,4.764,0,0,1-.144-1.282v-3.39a4.746,4.746,0,0,1,.144-1.3,2.454,2.454,0,0,1,.428-.947,1.62,1.62,0,0,1,.8-.594,2.846,2.846,0,0,1,1.2-.215,2.258,2.258,0,0,1,1.953.8,3.438,3.438,0,0,1,.615,2.261v3.39a5.321,5.321,0,0,1-.144,1.254,3.3,3.3,0,0,1-.42,1,1.921,1.921,0,0,1-.815.594A2.686,2.686,0,0,1,306.156,170.335Zm-.982-1.5a1.072,1.072,0,0,0,.982.407,1.084,1.084,0,0,0,.971-.407,2.324,2.324,0,0,0,.241-1.26v-4.049a2.124,2.124,0,0,0-.241-1.209,1.084,1.084,0,0,0-.971-.406,1.072,1.072,0,0,0-.982.406,2.284,2.284,0,0,0-.261,1.209v4.049A2.5,2.5,0,0,0,305.174,168.832Z" transform="translate(-303.579 -160.811)" fill="#707070"/>
        <path id="Path_1229" data-name="Path 1229" d="M308.92,170.243v-9.351h2.332c1.569,0,2.343.884,2.343,2.667a2.448,2.448,0,0,1-.6,1.743,2.476,2.476,0,0,1-1.745.6h-1v4.339Zm1.331-5.356h.345a3.85,3.85,0,0,0,.748-.043,1.476,1.476,0,0,0,.506-.2,1.054,1.054,0,0,0,.323-.412,2.472,2.472,0,0,0,.08-.672,3.246,3.246,0,0,0-.071-.808.825.825,0,0,0-.281-.5.878.878,0,0,0-.493-.287,3.164,3.164,0,0,0-.812-.071h-.345Z" transform="translate(-302.608 -160.796)" fill="#707070"/>
        <path id="Path_1230" data-name="Path 1230" d="M314.61,170.243v-8.161h-1.669v-1.19h4.681v1.19h-1.685v8.161Z" transform="translate(-301.877 -160.796)" fill="#707070"/>
        <path id="Path_1231" data-name="Path 1231" d="M317.5,170.243v-9.351h1.331v9.351Z" transform="translate(-301.048 -160.796)" fill="#707070"/>
        <path id="Path_1232" data-name="Path 1232" d="M322.258,170.335a3.335,3.335,0,0,1-1.185-.194,2.02,2.02,0,0,1-.793-.633,2.984,2.984,0,0,1-.457-.967,6.336,6.336,0,0,1-.129-1.282v-3.39a6.274,6.274,0,0,1,.129-1.3,2.712,2.712,0,0,1,.457-.947,1.584,1.584,0,0,1,.793-.594,2.811,2.811,0,0,1,1.185-.215,2.305,2.305,0,0,1,1.987.8,3.506,3.506,0,0,1,.581,2.261v3.39a5.2,5.2,0,0,1-.122,1.254,2.613,2.613,0,0,1-.431,1,1.807,1.807,0,0,1-.8.594A2.825,2.825,0,0,1,322.258,170.335Zm-.968-1.5a1.07,1.07,0,0,0,.968.407,1.047,1.047,0,0,0,.98-.407,2.284,2.284,0,0,0,.274-1.26v-4.049a2.088,2.088,0,0,0-.274-1.209,1.047,1.047,0,0,0-.98-.406,1.07,1.07,0,0,0-.968.406,2.265,2.265,0,0,0-.247,1.209v4.049A2.48,2.48,0,0,0,321.291,168.832Z" transform="translate(-300.65 -160.811)" fill="#707070"/>
        <path id="Path_1233" data-name="Path 1233" d="M325.047,170.243v-9.351h1l2.321,5.789v-5.789h1.346v9.351h-.956l-2.385-6.233v6.233Z" transform="translate(-299.677 -160.796)" fill="#707070"/>
      </g>
    </g>
    <g id="Group_444" data-name="Group 444" transform="translate(1076.732 4764.97)">
      <g id="Group_442" data-name="Group 442" transform="translate(0 15.254)">
        <g id="Group_440" data-name="Group 440">
          <path id="Path_1234" data-name="Path 1234" d="M481.926,210.748a8.721,8.721,0,0,1-5.052-1.418,8.416,8.416,0,0,1-3.069-3.763,14.948,14.948,0,0,1-.966-5.572V184.429a12.452,12.452,0,0,1,2.239-7.833c1.548-1.918,3.808-2.878,6.847-2.878,2.993,0,5.262.96,6.768,2.878A12.188,12.188,0,0,1,491,184.429V200a12.187,12.187,0,0,1-2.339,7.8A8.067,8.067,0,0,1,481.926,210.748Zm0-4.246c2.577,0,3.879-2.169,3.879-6.507V184.429c0-.733-.037-1.355-.071-1.918a10.826,10.826,0,0,0-.342-1.766,4.993,4.993,0,0,0-.69-1.461,3.1,3.1,0,0,0-1.1-.965,3.7,3.7,0,0,0-1.673-.342,3.757,3.757,0,0,0-1.7.342,3.12,3.12,0,0,0-1.118.965,4.618,4.618,0,0,0-.665,1.461,8.506,8.506,0,0,0-.351,1.766c-.05.563-.056,1.185-.056,1.918V200a14.107,14.107,0,0,0,.16,2.359,9.246,9.246,0,0,0,.577,2.016A3.255,3.255,0,0,0,480,205.928,3.17,3.17,0,0,0,481.926,206.5Z" transform="translate(-472.839 -173.719)" fill="#707070"/>
        </g>
        <g id="Group_441" data-name="Group 441" transform="translate(21.666)">
          <path id="Path_1235" data-name="Path 1235" d="M500.252,210.748c-2.953,0-5.18-.831-6.761-2.505-1.546-1.637-2.319-3.946-2.319-6.958V200h5.195c0,.806.009,1.51.071,2.089a10.954,10.954,0,0,0,.3,1.741,4.091,4.091,0,0,0,.617,1.436,3.235,3.235,0,0,0,1.139.869,3.816,3.816,0,0,0,1.756.372,3.646,3.646,0,0,0,1.729-.372,3.188,3.188,0,0,0,1.151-.869,4.242,4.242,0,0,0,.636-1.436,11.081,11.081,0,0,0,.3-1.741c.056-.579.073-1.283.073-2.089a8.411,8.411,0,0,0-1.2-4.8,4.606,4.606,0,0,0-3.982-1.662V188.34c1.881,0,3.219-.379,4.01-1.168.788-.769,1.176-2.126,1.176-4.032a7.008,7.008,0,0,0-.864-3.855,3.29,3.29,0,0,0-3.024-1.307,4.073,4.073,0,0,0-1.756.342,3.235,3.235,0,0,0-1.139.869,4.291,4.291,0,0,0-.617,1.459,10.207,10.207,0,0,0-.3,1.723,20.25,20.25,0,0,0-.071,2.059h-5.195V183.14a9.71,9.71,0,0,1,2.352-6.933q2.322-2.492,6.728-2.488c2.947,0,5.189.826,6.748,2.476a9.78,9.78,0,0,1,2.308,6.945,8.673,8.673,0,0,1-1.365,5.053,6.9,6.9,0,0,1-3.8,2.761,6.83,6.83,0,0,1,3.873,3.159,11.985,11.985,0,0,1,1.3,5.883c0,3.421-.709,6.042-2.159,7.924C505.665,209.832,503.377,210.748,500.252,210.748Z" transform="translate(-491.173 -173.719)" fill="#707070"/>
        </g>
      </g>
      <g id="Group_443" data-name="Group 443" transform="translate(2.957 0)">
        <path id="Path_1236" data-name="Path 1236" d="M477.98,170.487a2.932,2.932,0,0,1-1.253-.219,1.882,1.882,0,0,1-.821-.617,2.4,2.4,0,0,1-.415-1,4.674,4.674,0,0,1-.15-1.289v-3.44a4.944,4.944,0,0,1,.15-1.332,2.348,2.348,0,0,1,.415-.958,1.756,1.756,0,0,1,.821-.605,3.024,3.024,0,0,1,1.253-.22,2.305,2.305,0,0,1,1.976.806,3.634,3.634,0,0,1,.626,2.309v3.44a4.944,4.944,0,0,1-.147,1.289,2.676,2.676,0,0,1-.447,1,1.738,1.738,0,0,1-.791.617A3.017,3.017,0,0,1,477.98,170.487Zm-1.014-1.527a1.4,1.4,0,0,0,1.991,0,2.47,2.47,0,0,0,.274-1.264v-4.148a2.323,2.323,0,0,0-.274-1.216,1.388,1.388,0,0,0-1.991,0,2.226,2.226,0,0,0-.287,1.216V167.7A2.367,2.367,0,0,0,476.966,168.96Z" transform="translate(-475.341 -160.811)" fill="#707070"/>
        <path id="Path_1237" data-name="Path 1237" d="M480.787,170.388v-9.5h2.364c1.581,0,2.391.88,2.391,2.725a2.366,2.366,0,0,1-.617,1.754,2.415,2.415,0,0,1-1.774.605H482.13v4.416Zm1.343-5.443h.36a2.723,2.723,0,0,0,.752-.061.862.862,0,0,0,.489-.183.628.628,0,0,0,.345-.4,2.014,2.014,0,0,0,.1-.684,3.036,3.036,0,0,0-.083-.831.955.955,0,0,0-.262-.5.935.935,0,0,0-.532-.306,3.535,3.535,0,0,0-.81-.078h-.36Z" transform="translate(-474.351 -160.797)" fill="#707070"/>
        <path id="Path_1238" data-name="Path 1238" d="M486.57,170.388V162.1h-1.695v-1.21h4.761v1.21h-1.7v8.29Z" transform="translate(-473.608 -160.797)" fill="#707070"/>
        <path id="Path_1239" data-name="Path 1239" d="M489.516,170.388v-9.5h1.366v9.5Z" transform="translate(-472.765 -160.797)" fill="#707070"/>
        <path id="Path_1240" data-name="Path 1240" d="M494.371,170.487a2.95,2.95,0,0,1-1.23-.219,1.747,1.747,0,0,1-.807-.617,2.486,2.486,0,0,1-.432-1,4.557,4.557,0,0,1-.144-1.289v-3.44a4.822,4.822,0,0,1,.144-1.332,2.437,2.437,0,0,1,.432-.958,1.637,1.637,0,0,1,.807-.605,3.047,3.047,0,0,1,1.23-.22,2.352,2.352,0,0,1,2.013.806,3.557,3.557,0,0,1,.615,2.309v3.44a5.87,5.87,0,0,1-.141,1.289,3.13,3.13,0,0,1-.453,1,1.617,1.617,0,0,1-.808.617A2.882,2.882,0,0,1,494.371,170.487Zm-.986-1.527a1.088,1.088,0,0,0,.986.416,1.115,1.115,0,0,0,1-.416,2.505,2.505,0,0,0,.275-1.264v-4.148a2.356,2.356,0,0,0-.275-1.216,1.134,1.134,0,0,0-1-.421,1.071,1.071,0,0,0-.986.421,2.3,2.3,0,0,0-.264,1.216V167.7A2.444,2.444,0,0,0,493.385,168.96Z" transform="translate(-472.357 -160.811)" fill="#707070"/>
        <path id="Path_1241" data-name="Path 1241" d="M497.192,170.388v-9.5h1.029l2.364,5.884v-5.884h1.372v9.5h-.971l-2.431-6.311v6.311Z" transform="translate(-471.369 -160.797)" fill="#707070"/>
      </g>
    </g>
    <g id="Group_449" data-name="Group 449" transform="translate(1277.367 4764.97)">
      <g id="Group_447" data-name="Group 447" transform="translate(0 14.533)">
        <g id="Group_445" data-name="Group 445">
          <path id="Path_1242" data-name="Path 1242" d="M651.91,210.958a9.087,9.087,0,0,1-5.147-1.389,8.472,8.472,0,0,1-3.128-3.875,14.248,14.248,0,0,1-1.02-5.693v-15.93c0-3.42.786-6.107,2.336-8.049s3.862-2.914,6.958-2.914c3.063,0,5.386.967,6.937,2.94,1.558,1.955,2.344,4.642,2.344,8.023V200a12.439,12.439,0,0,1-2.381,7.991A8.294,8.294,0,0,1,651.91,210.958Zm0-4.336c2.647,0,3.978-2.219,3.978-6.62v-15.93a17.564,17.564,0,0,0-.091-1.959,8.35,8.35,0,0,0-.338-1.8,5.026,5.026,0,0,0-.681-1.5,3.193,3.193,0,0,0-1.13-.968,4.383,4.383,0,0,0-3.465,0,2.859,2.859,0,0,0-1.136.968,4.562,4.562,0,0,0-.708,1.5,7.594,7.594,0,0,0-.3,1.8,13.671,13.671,0,0,0-.116,1.959V200a13.794,13.794,0,0,0,.2,2.414,8.123,8.123,0,0,0,.571,2.078,3.75,3.75,0,0,0,1.246,1.552A3.279,3.279,0,0,0,651.91,206.622Z" transform="translate(-642.615 -173.109)" fill="#707070"/>
        </g>
        <g id="Group_446" data-name="Group 446" transform="translate(22.287 0.344)">
          <path id="Path_1243" data-name="Path 1243" d="M672.085,210.562v-9.547H661.474v-5.889l9.267-21.725h6.62V196h4.108v5.012h-4.108v9.547ZM666.764,196h5.321V180.027Z" transform="translate(-661.474 -173.4)" fill="#707070"/>
        </g>
      </g>
      <g id="Group_448" data-name="Group 448" transform="translate(4.258 0)">
        <path id="Path_1244" data-name="Path 1244" d="M648.917,170.742a2.976,2.976,0,0,1-1.239-.214,2.048,2.048,0,0,1-.857-.662,2.891,2.891,0,0,1-.448-.994,5.283,5.283,0,0,1-.156-1.35v-3.532a5,5,0,0,1,.156-1.337,2.784,2.784,0,0,1,.448-.994,1.709,1.709,0,0,1,.857-.623,2.962,2.962,0,0,1,1.239-.227,2.346,2.346,0,0,1,2.033.824,3.759,3.759,0,0,1,.622,2.356v3.532a7.3,7.3,0,0,1-.11,1.324,2.97,2.97,0,0,1-.487,1.02,1.839,1.839,0,0,1-.8.636A2.737,2.737,0,0,1,648.917,170.742Zm-1.019-1.578a1.118,1.118,0,0,0,1.019.422,1.142,1.142,0,0,0,1.013-.422,2.6,2.6,0,0,0,.266-1.3v-4.233a2.5,2.5,0,0,0-.266-1.259,1.111,1.111,0,0,0-1.013-.422,1.089,1.089,0,0,0-1.019.422,2.253,2.253,0,0,0-.285,1.259v4.233A2.34,2.34,0,0,0,647.9,169.165Z" transform="translate(-646.218 -160.811)" fill="#707070"/>
        <path id="Path_1245" data-name="Path 1245" d="M651.8,170.637v-9.749h2.414c1.643,0,2.44.928,2.44,2.8a2.393,2.393,0,0,1-.624,1.8,2.488,2.488,0,0,1-1.816.61h-1.026v4.538Zm1.389-5.57h.338a4.58,4.58,0,0,0,.779-.051,1.377,1.377,0,0,0,.526-.2,1.1,1.1,0,0,0,.35-.409,3.587,3.587,0,0,0,.078-.72,3.3,3.3,0,0,0-.078-.852.837.837,0,0,0-.279-.512.759.759,0,0,0-.526-.279,2.512,2.512,0,0,0-.85-.1h-.338Z" transform="translate(-645.203 -160.797)" fill="#707070"/>
        <path id="Path_1246" data-name="Path 1246" d="M657.729,170.637v-8.5h-1.747v-1.247h4.875v1.247H659.1v8.5Z" transform="translate(-644.443 -160.797)" fill="#707070"/>
        <path id="Path_1247" data-name="Path 1247" d="M660.722,170.637v-9.749h1.4v9.749Z" transform="translate(-643.582 -160.797)" fill="#707070"/>
        <path id="Path_1248" data-name="Path 1248" d="M665.7,170.742a3.115,3.115,0,0,1-1.238-.214,2.161,2.161,0,0,1-.838-.662,2.6,2.6,0,0,1-.455-.994,5.677,5.677,0,0,1-.136-1.35v-3.532a5.386,5.386,0,0,1,.136-1.337,2.517,2.517,0,0,1,.455-.994,1.776,1.776,0,0,1,.838-.623,3.107,3.107,0,0,1,1.238-.227,2.485,2.485,0,0,1,2.078.824,3.719,3.719,0,0,1,.6,2.356v3.532a6.708,6.708,0,0,1-.129,1.324,3.26,3.26,0,0,1-.474,1.02,1.7,1.7,0,0,1-.824.636A2.82,2.82,0,0,1,665.7,170.742Zm-1.006-1.578a1.106,1.106,0,0,0,1.006.422,1.185,1.185,0,0,0,1.026-.422,2.537,2.537,0,0,0,.266-1.3v-4.233a2.442,2.442,0,0,0-.266-1.259,1.152,1.152,0,0,0-1.026-.422,1.077,1.077,0,0,0-1.006.422,2.251,2.251,0,0,0-.272,1.259v4.233A2.34,2.34,0,0,0,664.69,169.165Z" transform="translate(-643.163 -160.811)" fill="#707070"/>
        <path id="Path_1249" data-name="Path 1249" d="M668.58,170.637v-9.749h1.072l2.4,6.023v-6.023h1.4v9.749h-.98l-2.492-6.471v6.471Z" transform="translate(-642.154 -160.797)" fill="#707070"/>
      </g>
    </g>
    <text id="Request" transform="translate(584 4642)" fill="#21232a" font-size="20" font-family="HelveticaNeue-Bold, Helvetica Neue" font-weight="700"><tspan x="0.87" y="20">Request</tspan></text>
    <text id="In-Process" transform="translate(768 4642)" fill="#21232a" font-size="20" font-family="HelveticaNeue-Bold, Helvetica Neue" font-weight="700"><tspan x="0.84" y="20">In-Process</tspan></text>
    <text id="Review" transform="translate(988 4642)" fill="#21232a" font-size="20" font-family="HelveticaNeue-Bold, Helvetica Neue" font-weight="700"><tspan x="0.88" y="20">Review</tspan></text>
    <text id="Completed" transform="translate(1168 4643)" fill="#21232a" font-size="20" font-family="HelveticaNeue-Bold, Helvetica Neue" font-weight="700"><tspan x="4.62" y="20">Completed</tspan></text>
    <text id="Register_a_customer_for_de-_re-activation" data-name="Register a customer for de-/re-activation" transform="translate(573 4762)" fill="#707070" font-size="14" font-family="HelveticaNeue, Helvetica Neue"><tspan x="0" y="13">Register a </tspan><tspan x="0" y="28">customer for </tspan><tspan x="0" y="43">de-/re-</tspan><tspan x="0" y="58">activation</tspan></text>
    <text id="List_of_customers_whose_connections_require_attention" data-name="List of customers whose connections require attention" transform="translate(778 4756)" fill="#707070" font-size="14" font-family="HelveticaNeue, Helvetica Neue"><tspan x="0" y="13">List of </tspan><tspan x="0" y="28">customers </tspan><tspan x="0" y="43">whose </tspan><tspan x="0" y="58">connections </tspan><tspan x="0" y="73">require </tspan><tspan x="0" y="88">attention</tspan></text>
    <text id="Confirming_the_action_has_been_completed" data-name="Confirming the action has been completed" transform="translate(978 4756)" fill="#707070" font-size="14" font-family="HelveticaNeue, Helvetica Neue"><tspan x="0" y="13">Confirming </tspan><tspan x="0" y="28">the action </tspan><tspan x="0" y="43">has been </tspan><tspan x="0" y="58">completed</tspan></text>
    <text id="Historical_list_of_all_customer_de-_re-activation_details" data-name="Historical list of all customer de-/re-activation details" transform="translate(1182 4756)" fill="#707070" font-size="14" font-family="HelveticaNeue, Helvetica Neue"><tspan x="0" y="13">Historical list </tspan><tspan x="0" y="28">of all </tspan><tspan x="0" y="43">customer </tspan><tspan x="0" y="58">de-/re-</tspan><tspan x="0" y="73">activation </tspan><tspan x="0" y="88">details</tspan></text>
    <g id="review-2" data-name="review" transform="translate(1002 4793.524)">
      <path id="Path_4059" data-name="Path 4059" d="M35.2,73.537H11.159a.743.743,0,0,0,0,1.485H35.2a.743.743,0,0,1,.742.742V93.307a.743.743,0,0,1-.742.742h-13a.742.742,0,0,0-.583.282l-2.994,3.794-3.176-3.809a.743.743,0,0,0-.57-.267H2.227a.743.743,0,0,1-.742-.742V75.764a.743.743,0,0,1,.742-.742H5.052a.743.743,0,0,0,0-1.485H2.227A2.23,2.23,0,0,0,0,75.764V93.307a2.23,2.23,0,0,0,2.227,2.227h12.3l3.539,4.245a.747.747,0,0,0,1.153-.016l3.338-4.229H35.2a2.23,2.23,0,0,0,2.227-2.227V75.764A2.23,2.23,0,0,0,35.2,73.537Z" fill="#707070"/>
      <path id="Path_4060" data-name="Path 4060" d="M54.924,161.022a.742.742,0,0,0,.134.7L56.5,163.47l-.144,2.262c-.113,1.772,2.547-.11,3.121-.1s3.232,1.85,3.121.1l-.144-2.262,1.446-1.745a.753.753,0,0,0-.388-1.193l-2.2-.562-1.213-1.914a.753.753,0,0,0-1.254,0l-1.213,1.914-2.2.562A.742.742,0,0,0,54.924,161.022Zm3.371.313c.549-.14.91-1.059,1.186-1.5.272.429.643,1.356,1.186,1.5l1.346.345-.886,1.07a.742.742,0,0,0-.169.521l.088,1.386-1.291-.512a.743.743,0,0,0-.547,0l-1.291.512L58,163.27a.742.742,0,0,0-.169-.521l-.886-1.07Z" transform="translate(-50.813 -77.933)" fill="#707070"/>
      <path id="Path_4061" data-name="Path 4061" d="M198.341,161.021a.742.742,0,0,0-.522-.49l-2.2-.562-1.213-1.914a.753.753,0,0,0-1.254,0l-1.213,1.914-2.2.562a.742.742,0,0,0-.388,1.193l1.446,1.745-.144,2.262c-.113,1.772,2.547-.11,3.121-.1s3.232,1.85,3.121.1l-.144-2.262,1.446-1.745A.742.742,0,0,0,198.341,161.021Zm-2.911,1.728a.742.742,0,0,0-.169.521l.088,1.386a2.451,2.451,0,0,0-3.13,0l.088-1.386a.742.742,0,0,0-.169-.521l-.886-1.07,1.346-.345c.549-.14.91-1.059,1.186-1.5.272.429.643,1.356,1.186,1.5l1.346.345Z" transform="translate(-175.146 -77.932)" fill="#707070"/>
      <path id="Path_4062" data-name="Path 4062" d="M332.721,161.021a.742.742,0,0,0-.522-.49l-2.2-.562-1.213-1.914a.753.753,0,0,0-1.254,0l-1.213,1.914-2.2.562a.753.753,0,0,0-.388,1.193l1.445,1.745-.144,2.262c-.113,1.771,2.546-.11,3.121-.1s3.232,1.85,3.121.1l-.144-2.262,1.445-1.745A.742.742,0,0,0,332.721,161.021Zm-2.911,1.728a.742.742,0,0,0-.169.521l.088,1.386-1.291-.512a.743.743,0,0,0-.548,0l-1.291.512.088-1.386a.742.742,0,0,0-.169-.521l-.886-1.07,1.346-.345c.549-.14.91-1.059,1.186-1.5.272.429.643,1.356,1.186,1.5l1.346.345Z" transform="translate(-299.556 -77.932)" fill="#707070"/>
      <path id="Path_4063" data-name="Path 4063" d="M99.756,74.9a.742.742,0,1,0-.281-.884A.747.747,0,0,0,99.756,74.9Z" transform="translate(-92.046 -0.004)" fill="#707070"/>
    </g>
    <path id="check_1_" data-name="check (1)" d="M10.785,19.926a.973.973,0,0,0,.368.776,2.06,2.06,0,0,0,.606.342c.408.067,5.084.624,8.15.985l-.221,2.33c-2.388-.281-7.979-.943-8.3-1.009a3.864,3.864,0,0,1-1.417-.712,3.113,3.113,0,0,1-.695-.741l-.01.011L4.221,16.389a.976.976,0,0,0-1.486.015,1.269,1.269,0,0,0,.014,1.657l7.8,8.535a3.128,3.128,0,0,0,2.321,1.058H27.237V30H12.87a5.114,5.114,0,0,1-3.793-1.729l-7.8-8.535a3.807,3.807,0,0,1-.042-4.971A2.985,2.985,0,0,1,3.456,13.71a2.976,2.976,0,0,1,2.238,1.006l3.341,3.656a3.16,3.16,0,0,1,1.181-1.325A9.888,9.888,0,0,1,6.848,9.492C6.848,4.258,10.667,0,15.361,0a7.849,7.849,0,0,1,4.631,1.532L18.518,3.273a5.87,5.87,0,0,0-3.157-.929c-3.535,0-6.411,3.207-6.411,7.148s2.876,7.148,6.411,7.148c3.48,0,6.321-3.108,6.409-6.965l1.9-2.245a10.536,10.536,0,0,1,.2,2.062A9.935,9.935,0,0,1,20.786,16.8a11.72,11.72,0,0,1,5.365,2.436l1.086.866v2.882l-2.309-1.842a9.612,9.612,0,0,0-5.9-2.156H18.9l-7.271,0A.894.894,0,0,0,10.785,19.926ZM12.459,7l-1.448,1.7L15.6,13.553l8.517-10.06L22.584,1.885l-7.069,8.349Zm0,0" transform="translate(1210.513 4867.155)" fill="#707070"/>
    <g id="Group_2861" data-name="Group 2861" transform="translate(-658 1999)">
      <g id="execution" transform="translate(1461 2868)">
        <g id="Group_2729" data-name="Group 2729" transform="translate(0 0)">
          <g id="Group_2728" data-name="Group 2728" transform="translate(0 0)">
            <path id="Path_4788" data-name="Path 4788" d="M14.881,6.275l-1.021-.45c-.046-.171-.1-.334-.152-.49l.567-.977a.585.585,0,0,0,0-.579,7.764,7.764,0,0,0-.995-1.391.581.581,0,0,0-.567-.18l-1.074.246q-.188-.15-.392-.289l-.1-1.137a.585.585,0,0,0-.337-.477A7.425,7.425,0,0,0,9.21.014.582.582,0,0,0,8.647.2l-.749.87h-.45L6.7.2A.581.581,0,0,0,6.135.014a7.433,7.433,0,0,0-1.6.538.585.585,0,0,0-.337.477l-.1,1.136c-.135.093-.267.189-.392.289L2.626,2.209a.58.58,0,0,0-.567.18,7.751,7.751,0,0,0-.995,1.391.585.585,0,0,0,0,.579l.567.977c-.056.157-.106.319-.152.49l-1.021.45a.585.585,0,0,0-.348.535V8.4a.585.585,0,0,0,.348.535l1.021.45c.046.171.1.334.152.49l-.567.977a.585.585,0,0,0,0,.579,7.764,7.764,0,0,0,.995,1.391.582.582,0,0,0,.567.18L3.7,12.754q.188.15.392.289l.1,1.137a.585.585,0,0,0,.337.477,7.425,7.425,0,0,0,1.6.538A.583.583,0,0,0,6.7,15l.749-.87H7.9l.749.87a.584.584,0,0,0,.443.2.571.571,0,0,0,.12-.013,7.433,7.433,0,0,0,1.6-.538.585.585,0,0,0,.337-.477l.1-1.136c.135-.093.267-.189.392-.289L12.718,13a.582.582,0,0,0,.567-.18,7.751,7.751,0,0,0,.995-1.391.585.585,0,0,0,0-.579l-.567-.977c.056-.157.106-.319.152-.49l1.021-.45a.585.585,0,0,0,.348-.535V6.81A.584.584,0,0,0,14.881,6.275ZM14.06,8.018l-.934.412a.586.586,0,0,0-.334.4,5.375,5.375,0,0,1-.271.868.585.585,0,0,0,.034.517l.535.922a6.631,6.631,0,0,1-.457.639l-1.011-.231a.58.58,0,0,0-.518.131,5.337,5.337,0,0,1-.717.531.584.584,0,0,0-.274.444l-.1,1.073a6.469,6.469,0,0,1-.715.243l-.692-.8a.585.585,0,0,0-.443-.2H7.179a.585.585,0,0,0-.443.2l-.692.8a6.478,6.478,0,0,1-.716-.243l-.1-1.074a.585.585,0,0,0-.274-.443,5.271,5.271,0,0,1-.717-.53.58.58,0,0,0-.518-.131l-1.011.231a6.644,6.644,0,0,1-.457-.639l.535-.922A.586.586,0,0,0,2.823,9.7a5.375,5.375,0,0,1-.271-.868.586.586,0,0,0-.334-.4l-.934-.412V7.191l.934-.412a.586.586,0,0,0,.334-.4,5.375,5.375,0,0,1,.271-.868.585.585,0,0,0-.034-.517l-.535-.922a6.63,6.63,0,0,1,.457-.639l1.011.231a.582.582,0,0,0,.518-.131A5.337,5.337,0,0,1,4.957,3a.584.584,0,0,0,.274-.444l.1-1.073a6.469,6.469,0,0,1,.715-.243l.692.8a.585.585,0,0,0,.443.2h.986a.586.586,0,0,0,.443-.2l.692-.8a6.478,6.478,0,0,1,.716.243l.1,1.074A.585.585,0,0,0,10.388,3a5.272,5.272,0,0,1,.717.53.582.582,0,0,0,.518.131l1.011-.231a6.631,6.631,0,0,1,.457.639l-.535.922a.586.586,0,0,0-.034.517,5.375,5.375,0,0,1,.271.868.586.586,0,0,0,.334.4l.934.412v.827Z" transform="translate(-0.115 -0.001)" fill="#707070"/>
          </g>
        </g>
        <g id="Group_2731" data-name="Group 2731" transform="translate(3.463 3.509)">
          <g id="Group_2730" data-name="Group 2730">
            <path id="Path_4789" data-name="Path 4789" d="M51.585,48.005A4.094,4.094,0,1,0,55.679,52.1,4.094,4.094,0,0,0,51.585,48.005Zm0,7.018A2.924,2.924,0,1,1,54.509,52.1,2.924,2.924,0,0,1,51.585,55.023Z" transform="translate(-47.491 -48.005)" fill="#707070"/>
          </g>
        </g>
        <g id="Group_2733" data-name="Group 2733" transform="translate(22.215 0)">
          <g id="Group_2732" data-name="Group 2732" transform="translate(0 0)">
            <path id="Path_4790" data-name="Path 4790" d="M316.449,5.236l-.808-.356c-.031-.113-.066-.222-.1-.327l.45-.776a.587.587,0,0,0,0-.579,6.606,6.606,0,0,0-.842-1.176.581.581,0,0,0-.566-.18l-.85.194q-.125-.1-.257-.19l-.082-.9a.584.584,0,0,0-.337-.477A6.331,6.331,0,0,0,311.7.012.581.581,0,0,0,311.14.2l-.6.691h-.286l-.6-.691A.58.58,0,0,0,309.1.012a6.33,6.33,0,0,0-1.356.455.584.584,0,0,0-.337.477l-.082.9q-.132.092-.257.19l-.85-.194a.582.582,0,0,0-.566.18,6.567,6.567,0,0,0-.841,1.177.585.585,0,0,0,0,.579l.45.775q-.055.158-.1.328l-.808.356a.584.584,0,0,0-.349.535V7.095a.584.584,0,0,0,.349.535l.808.356c.031.113.066.222.1.327l-.45.776a.587.587,0,0,0,0,.579,6.608,6.608,0,0,0,.842,1.176.582.582,0,0,0,.567.18l.849-.195c.083.066.17.129.258.19l.082.9a.584.584,0,0,0,.337.477,6.331,6.331,0,0,0,1.356.455.583.583,0,0,0,.563-.191l.6-.691h.286l.6.691a.584.584,0,0,0,.443.2.571.571,0,0,0,.12-.013,6.327,6.327,0,0,0,1.356-.455.584.584,0,0,0,.337-.477l.082-.9q.132-.092.257-.19l.85.194a.582.582,0,0,0,.566-.18,6.609,6.609,0,0,0,.842-1.176.587.587,0,0,0,0-.579l-.45-.776c.037-.106.071-.214.1-.327l.808-.356a.584.584,0,0,0,.349-.535V5.771A.584.584,0,0,0,316.449,5.236Zm-.821,1.478-.72.318a.583.583,0,0,0-.334.406,4.368,4.368,0,0,1-.22.705.586.586,0,0,0,.034.518l.416.717q-.141.219-.3.427l-.784-.179a.579.579,0,0,0-.517.131,4.33,4.33,0,0,1-.584.431.586.586,0,0,0-.275.444l-.076.835c-.157.062-.315.115-.472.16l-.536-.622a.585.585,0,0,0-.443-.2h-.821a.585.585,0,0,0-.443.2l-.536.622c-.157-.045-.315-.1-.472-.16l-.076-.835a.585.585,0,0,0-.275-.444,4.291,4.291,0,0,1-.583-.431.588.588,0,0,0-.518-.132l-.783.179c-.109-.138-.211-.28-.3-.427l.416-.717a.587.587,0,0,0,.034-.518,4.368,4.368,0,0,1-.22-.705.583.583,0,0,0-.334-.406l-.72-.318V6.152l.72-.318a.583.583,0,0,0,.334-.406,4.4,4.4,0,0,1,.22-.706.586.586,0,0,0-.034-.517L306,3.487c.094-.146.2-.288.3-.427l.784.179a.582.582,0,0,0,.517-.131,4.329,4.329,0,0,1,.584-.431.586.586,0,0,0,.275-.444l.076-.835c.157-.062.315-.115.472-.16l.536.622a.585.585,0,0,0,.443.2h.821a.585.585,0,0,0,.443-.2l.536-.622c.157.045.315.1.472.16l.076.835a.585.585,0,0,0,.275.444,4.332,4.332,0,0,1,.584.431.58.58,0,0,0,.517.131l.784-.179q.164.207.3.427l-.416.717a.587.587,0,0,0-.034.518,4.371,4.371,0,0,1,.22.705.583.583,0,0,0,.334.406l.72.318Z" transform="translate(-304.007 0.001)" fill="#707070"/>
          </g>
        </g>
        <g id="Group_2735" data-name="Group 2735" transform="translate(25.687 3.509)">
          <g id="Group_2734" data-name="Group 2734">
            <path id="Path_4791" data-name="Path 4791" d="M354.415,48.005a2.924,2.924,0,1,0,2.924,2.924A2.924,2.924,0,0,0,354.415,48.005Zm0,4.679a1.754,1.754,0,1,1,1.754-1.754A1.754,1.754,0,0,1,354.415,52.684Z" transform="translate(-351.491 -48.005)" fill="#707070"/>
          </g>
        </g>
        <g id="Group_2737" data-name="Group 2737" transform="translate(17.566 17.612)">
          <g id="Group_2736" data-name="Group 2736">
            <path id="Path_4792" data-name="Path 4792" d="M257.349,248.052l-.848-.178c-.035-.147-.074-.294-.118-.439l.65-.583a.584.584,0,0,0,.148-.665,8.789,8.789,0,0,0-1.074-1.84.587.587,0,0,0-.65-.2l-.817.268c-.1-.11-.212-.218-.322-.322l.268-.817a.585.585,0,0,0-.2-.649,8.752,8.752,0,0,0-1.841-1.075.588.588,0,0,0-.665.148l-.583.65c-.146-.045-.292-.084-.439-.119l-.178-.848a.585.585,0,0,0-.572-.464h-1.994a.585.585,0,0,0-.572.464l-.178.848c-.147.035-.294.074-.439.118l-.583-.65a.587.587,0,0,0-.665-.148,8.788,8.788,0,0,0-1.84,1.074.585.585,0,0,0-.2.65l.268.817c-.11.1-.218.212-.322.322l-.817-.268a.588.588,0,0,0-.649.2,8.753,8.753,0,0,0-1.075,1.841.584.584,0,0,0,.148.665l.65.583c-.045.146-.084.292-.119.439l-.848.178a.585.585,0,0,0-.464.572v1.994a.585.585,0,0,0,.464.572l.848.178c.035.147.074.294.118.439l-.65.583a.585.585,0,0,0-.148.665,8.788,8.788,0,0,0,1.074,1.84.587.587,0,0,0,.65.2l.817-.268c.1.11.212.218.322.322l-.268.817a.585.585,0,0,0,.2.649,8.753,8.753,0,0,0,1.841,1.075.583.583,0,0,0,.665-.148l.583-.65c.146.044.292.084.439.119l.178.848a.585.585,0,0,0,.572.464H250.1a.585.585,0,0,0,.572-.464l.178-.848c.147-.035.294-.074.439-.118l.583.65a.583.583,0,0,0,.665.148,8.788,8.788,0,0,0,1.84-1.074.585.585,0,0,0,.2-.65l-.268-.817c.11-.1.218-.212.322-.322l.817.268a.587.587,0,0,0,.649-.2,8.752,8.752,0,0,0,1.075-1.841.584.584,0,0,0-.148-.665l-.65-.583c.045-.146.084-.292.119-.439l.848-.178a.585.585,0,0,0,.464-.572v-1.994A.585.585,0,0,0,257.349,248.052Zm-.705,2.092-.757.159a.585.585,0,0,0-.455.468,6.363,6.363,0,0,1-.275,1.019.584.584,0,0,0,.16.633l.613.549a7.682,7.682,0,0,1-.517.881l-.773-.254a.587.587,0,0,0-.629.178,6.389,6.389,0,0,1-.748.749.586.586,0,0,0-.177.629l.254.772a7.634,7.634,0,0,1-.881.517l-.55-.613a.588.588,0,0,0-.634-.16,6.3,6.3,0,0,1-1.018.275.585.585,0,0,0-.468.455l-.159.757h-1.045l-.159-.757a.585.585,0,0,0-.468-.455,6.362,6.362,0,0,1-1.019-.275h0a.589.589,0,0,0-.633.16l-.549.613a7.689,7.689,0,0,1-.881-.517l.254-.773a.586.586,0,0,0-.178-.629,6.388,6.388,0,0,1-.749-.748.587.587,0,0,0-.629-.177l-.772.254a7.633,7.633,0,0,1-.517-.881l.613-.55a.585.585,0,0,0,.16-.634,6.3,6.3,0,0,1-.275-1.018.585.585,0,0,0-.455-.468l-.757-.159V249.1l.757-.159a.585.585,0,0,0,.455-.468,6.36,6.36,0,0,1,.275-1.019.584.584,0,0,0-.16-.633l-.613-.549a7.681,7.681,0,0,1,.517-.881l.773.254a.587.587,0,0,0,.629-.178,6.388,6.388,0,0,1,.748-.749.586.586,0,0,0,.177-.629l-.254-.772a7.636,7.636,0,0,1,.881-.517l.55.613a.587.587,0,0,0,.634.16,6.3,6.3,0,0,1,1.018-.275.585.585,0,0,0,.468-.455l.159-.757h1.045l.159.757a.585.585,0,0,0,.468.455,6.36,6.36,0,0,1,1.019.275.585.585,0,0,0,.633-.16l.549-.613a7.68,7.68,0,0,1,.881.517l-.254.773a.586.586,0,0,0,.178.629,6.387,6.387,0,0,1,.749.748.59.59,0,0,0,.629.177l.772-.254a7.638,7.638,0,0,1,.517.881l-.613.55a.585.585,0,0,0-.16.634,6.3,6.3,0,0,1,.275,1.018.585.585,0,0,0,.455.468l.757.159Z" transform="translate(-240.402 -240.916)" fill="#707070"/>
          </g>
        </g>
        <g id="Group_2739" data-name="Group 2739" transform="translate(21.008 21.054)">
          <g id="Group_2738" data-name="Group 2738">
            <path id="Path_4793" data-name="Path 4793" d="M292.754,288.005a5.263,5.263,0,1,0,5.263,5.263A5.263,5.263,0,0,0,292.754,288.005Zm0,9.357a4.094,4.094,0,1,1,4.094-4.094A4.1,4.1,0,0,1,292.754,297.362Z" transform="translate(-287.491 -288.005)" fill="#707070"/>
          </g>
        </g>
        <g id="Group_2741" data-name="Group 2741" transform="translate(16.329 6.433)">
          <g id="Group_2740" data-name="Group 2740">
            <rect id="Rectangle_871" data-name="Rectangle 871" width="4.679" height="1.17" fill="#707070"/>
          </g>
        </g>
        <g id="Group_2743" data-name="Group 2743" transform="translate(2.879 15.791)">
          <g id="Group_2742" data-name="Group 2742">
            <path id="Path_4794" data-name="Path 4794" d="M52.895,225.716a.584.584,0,0,0-.308-.308h0l-4.094-1.754a.584.584,0,0,0-.815.537v1.17H40.661V216h-1.17v9.942a.584.584,0,0,0,.584.585h7.6v1.17a.584.584,0,0,0,.584.585h0a.576.576,0,0,0,.23-.047l4.094-1.754A.584.584,0,0,0,52.895,225.716Zm-4.047,1.1v-1.735l2.024.867Z" transform="translate(-39.491 -216.004)" fill="#707070"/>
          </g>
        </g>
        <g id="Group_2745" data-name="Group 2745" transform="translate(23.519 24.188)">
          <g id="Group_2744" data-name="Group 2744">
            <path id="Path_4795" data-name="Path 4795" d="M326.477,330.88l-2.514,3.017-1.3-1.3-.827.827,1.754,1.754a.583.583,0,0,0,.413.171h.026a.586.586,0,0,0,.423-.21l2.924-3.509Z" transform="translate(-321.834 -330.88)" fill="#707070"/>
          </g>
        </g>
      </g>
    </g>
    <g id="customer_1_" data-name="customer (1)" transform="translate(594 4862.155)">
      <path id="Path_5159" data-name="Path 5159" d="M15.6,20.2V19a.6.6,0,1,0,0,1.2Z" transform="translate(-4.791 -6.388)" fill="#707070"/>
      <path id="Path_5160" data-name="Path 5160" d="M21.6,19.809v-1.2h-.459a6.33,6.33,0,0,1-2.66-.59.6.6,0,0,0-.486.59v1.2a1.8,1.8,0,0,0,3.6,0Z" transform="translate(-5.988 -5.996)" fill="#707070"/>
      <path id="Path_5161" data-name="Path 5161" d="M26,19v1.2A.6.6,0,1,0,26,19Z" transform="translate(-9.182 -6.388)" fill="#707070"/>
      <path id="Path_5162" data-name="Path 5162" d="M16.069,14.6A1.792,1.792,0,0,1,17.4,14h.142l.127.063a5.116,5.116,0,0,0,2.276.538h1.661a1.777,1.777,0,0,1,.455.065A2.781,2.781,0,0,0,19.411,11H17.8a2.781,2.781,0,0,0-2.651,3.67A1.777,1.777,0,0,1,15.6,14.6Z" transform="translate(-4.791 -3.194)" fill="#707070"/>
      <path id="Path_5163" data-name="Path 5163" d="M13.814,24.628a10.932,10.932,0,0,0,1.471-.11,11.712,11.712,0,0,1,.351-1.271,9.644,9.644,0,1,1,7.611-7.611,12,12,0,0,1,1.272-.351,10.809,10.809,0,1,0-10.7,9.344Z" fill="#707070"/>
      <path id="Path_5164" data-name="Path 5164" d="M19.389,25.732q-.05.088-.108.171l1.033,1.387L21.348,25.9c-.038-.055-.074-.112-.109-.171a2.737,2.737,0,0,1-1.85,0Z" transform="translate(-6.5 -9.075)" fill="#707070"/>
      <path id="Path_5165" data-name="Path 5165" d="M12.465,27.925a1.785,1.785,0,0,0-1.417,1.5,8.382,8.382,0,0,0,8.357,2.159,12.051,12.051,0,0,1,2.56-3.535,1.779,1.779,0,0,0-.377-.126l-2.172-.439a2.607,2.607,0,0,1-.438-.174l-1.952,2.62-1.948-2.615a2.361,2.361,0,0,1-.4.157Z" transform="translate(-3.213 -9.706)" fill="#707070"/>
      <path id="Path_5166" data-name="Path 5166" d="M35.814,25A10.814,10.814,0,1,0,46.628,35.814,10.826,10.826,0,0,0,35.814,25Zm7.179,7.546a1.89,1.89,0,0,1-.544.983l-8.365,8.365a1.8,1.8,0,0,1-2.548,0l-3.558-3.558a1.89,1.89,0,0,1-.544-.983,1.805,1.805,0,0,1,2.109-2.109,1.89,1.89,0,0,1,.983.544l2.284,2.284,7.09-7.09a1.89,1.89,0,0,1,.983-.544,1.805,1.805,0,0,1,2.109,2.109Z" transform="translate(-8.783 -8.783)" fill="#707070"/>
      <path id="Path_5167" data-name="Path 5167" d="M23.474,17.79A8.411,8.411,0,1,0,8.531,20.234a2.975,2.975,0,0,1,2.079-1.6l2.172-.439a1.157,1.157,0,0,0,.658-.539,3,3,0,0,1-.779-1.048h-.255a1.8,1.8,0,0,1-1.474-2.834A3.991,3.991,0,0,1,14.6,8.2h1.614a3.991,3.991,0,0,1,3.67,5.577,1.8,1.8,0,0,1-1.474,2.834H18.16a3.009,3.009,0,0,1-.779,1.047,1.2,1.2,0,0,0,.7.551l2.127.428a2.987,2.987,0,0,1,1.107.476,12.029,12.029,0,0,1,2.157-1.323Z" transform="translate(-1.597 -1.597)" fill="#707070"/>
      <path id="Path_5168" data-name="Path 5168" d="M57.385,26.232l1.182-.219c-.079-.426-.176-.854-.288-1.272l-1.161.311C57.222,25.44,57.311,25.837,57.385,26.232Z" transform="translate(-21.605 -8.68)" fill="#707070"/>
      <path id="Path_5169" data-name="Path 5169" d="M40.8,7.6a1.792,1.792,0,0,0,1.316-.579,15.763,15.763,0,0,1,7.408,8.589l1.133-.4a16.973,16.973,0,0,0-8.066-9.3c0-.039.011-.077.011-.117a1.8,1.8,0,1,0-1.8,1.8Z" transform="translate(-14.372 -0.399)" fill="#707070"/>
      <path id="Path_5170" data-name="Path 5170" d="M5.653,36.777,4.471,37c.079.426.176.854.288,1.272l1.161-.311c-.1-.387-.193-.785-.267-1.18Z" transform="translate(-0.587 -13.485)" fill="#707070"/>
      <path id="Path_5171" data-name="Path 5171" d="M15.45,48.677a1.792,1.792,0,0,0-1.316.579,15.768,15.768,0,0,1-7.408-8.589l-1.133.4a16.973,16.973,0,0,0,8.066,9.3c0,.039-.011.077-.011.117a1.8,1.8,0,1,0,1.8-1.8Z" transform="translate(-1.035 -15.038)" fill="#707070"/>
    </g>
  </g>
</svg>
