<svg xmlns="http://www.w3.org/2000/svg" width="952" height="333.98" viewBox="0 0 952 333.98">
  <g id="Group_2865" data-name="Group 2865" transform="translate(-493 -2438)">
    <g id="Group_2864" data-name="Group 2864">
      <text id="Profile" transform="translate(493 2438)" fill="#21232a" font-size="20" font-family="HelveticaNeue-Bold, Helvetica Neue" font-weight="700"><tspan x="19.08" y="20">Profile</tspan></text>
      <text id="Transaction" transform="translate(629 2438)" fill="#21232a" font-size="20" font-family="HelveticaNeue-Bold, Helvetica Neue" font-weight="700"><tspan x="5.26" y="20">Transaction</tspan></text>
      <text id="Cash_Ledger" data-name="Cash
Ledger" transform="translate(816 2438)" fill="#21232a" font-size="20" font-family="HelveticaNeue-Bold, Helvetica Neue" font-weight="700"><tspan x="17.55" y="20">Cash</tspan><tspan x="8.48" y="45">Ledger</tspan></text>
      <text id="Security" transform="translate(985 2438)" fill="#21232a" font-size="20" font-family="HelveticaNeue-Bold, Helvetica Neue" font-weight="700"><tspan x="10.92" y="20">Security</tspan></text>
      <text id="Meter_Reading" data-name="Meter
Reading" transform="translate(1164 2438)" fill="#21232a" font-size="20" font-family="HelveticaNeue-Bold, Helvetica Neue" font-weight="700"><tspan x="17.04" y="20">Meter</tspan><tspan x="5.57" y="45">Reading</tspan></text>
      <text id="Service" transform="translate(1316 2438)" fill="#21232a" font-size="20" font-family="HelveticaNeue-Bold, Helvetica Neue" font-weight="700"><tspan x="14.62" y="20">Service</tspan></text>
      <text id="Detailed_account_information" data-name="Detailed
account
information" transform="translate(505 2541)" fill="#707070" font-size="14" font-family="HelveticaNeue, Helvetica Neue"><tspan x="0" y="13">Detailed</tspan><tspan x="0" y="29">account</tspan><tspan x="0" y="45">information</tspan></text>
      <text id="Chronological_list_of_individual_payments" data-name="Chronological list
of individual payments" transform="translate(633 2541)" fill="#707070" font-size="14" font-family="HelveticaNeue, Helvetica Neue"><tspan x="0" y="13">Chronological list</tspan><tspan x="0" y="29">of individual </tspan><tspan x="0" y="45">payments</tspan></text>
      <text id="Running_record_of_bills_payments_and_balance" data-name="Running record of bills, payments, and balance" transform="translate(802 2541)" fill="#707070" font-size="14" font-family="HelveticaNeue, Helvetica Neue"><tspan x="0" y="13">Running record of </tspan><tspan x="0" y="29">bills, payments, and </tspan><tspan x="0" y="45">balance</tspan></text>
      <text id="Running_record_of_security_charges_and_payments" data-name="Running record of security charges and payments" transform="translate(981 2541)" fill="#707070" font-size="14" font-family="HelveticaNeue, Helvetica Neue"><tspan x="0" y="13">Running record of </tspan><tspan x="0" y="29">security charges </tspan><tspan x="0" y="45">and payments</tspan></text>
      <text id="Energy_consumption_data_from_meter_readings" data-name="Energy consumption data from meter readings" transform="translate(1147 2541)" fill="#707070" font-size="14" font-family="HelveticaNeue, Helvetica Neue"><tspan x="0" y="13">Energy consumption </tspan><tspan x="0" y="29">data from meter </tspan><tspan x="0" y="45">readings</tspan></text>
      <text id="Service_request_history_completion_information" data-name="Service request history &amp; completion information" transform="translate(1316 2541)" fill="#707070" font-size="14" font-family="HelveticaNeue, Helvetica Neue"><tspan x="0" y="13">Service request </tspan><tspan x="0" y="29">history &amp; completion </tspan><tspan x="0" y="45">information</tspan></text>
      <path id="Path_1169" data-name="Path 1169" d="M135.282,753.517a54.013,54.013,0,0,1,0-108.027,49.041,49.041,0,1,1,0,98.082,43.976,43.976,0,0,1,0-87.951v.031A37.8,37.8,0,0,1,173.035,693.4h2.652a40.45,40.45,0,0,0-40.4-40.4v-.031a46.627,46.627,0,1,0,0,93.255,51.693,51.693,0,1,0,0-103.385,56.659,56.659,0,0,0-.671,113.314v.017h95.538v-2.652Z" transform="translate(414.384 2012.171)" fill="#707070"/>
      <path id="Path_1184" data-name="Path 1184" d="M877.846,753l-9.608-4.966v3.64H767.733a54.013,54.013,0,1,1,0-108.026,49.041,49.041,0,0,1,0,98.082,43.976,43.976,0,1,1,0-87.951v.031a37.8,37.8,0,0,1,37.752,37.752h2.652a40.45,40.45,0,0,0-40.4-40.4v-.032a46.627,46.627,0,1,0,0,93.255,51.693,51.693,0,0,0,0-103.385H669.379v-3.641l-9.607,4.967,9.607,4.966v-3.64H750.6a56.664,56.664,0,0,0,17.128,110.679H868.238v3.64Z" transform="translate(267.228 2014.014)" fill="#707070"/>
      <path id="Path_1193" data-name="Path 1193" d="M993.05,642.9v-.076H895.188v2.652h79.1a51.686,51.686,0,0,0,16.275,100.745,46.627,46.627,0,1,0,0-93.255V653a40.451,40.451,0,0,0-40.406,40.405h2.652a37.8,37.8,0,0,1,37.753-37.753v-.032a43.975,43.975,0,0,1,0,87.951,49.04,49.04,0,1,1,0-98.081,54.014,54.014,0,0,1,0,108.028v2.651A56.661,56.661,0,0,0,993.05,642.9Z" transform="translate(378.812 2012.175)" fill="#707070"/>
      <path id="Path_1171" data-name="Path 1171" d="M651.526,753l-9.608-4.966v3.64H547.145a54.013,54.013,0,1,1,0-108.026,49.041,49.041,0,1,1,0,98.082,43.976,43.976,0,0,1,0-87.951v.031A37.8,37.8,0,0,1,584.9,691.562h2.652a40.45,40.45,0,0,0-40.4-40.4v-.032a46.627,46.627,0,1,0,0,93.255,51.693,51.693,0,0,0,0-103.385H451.658v-3.641l-9.607,4.967,9.607,4.966v-3.64h78.359a56.664,56.664,0,0,0,17.128,110.679h94.773v3.64Z" transform="translate(318.949 2014.014)" fill="#707070"/>
      <path id="Path_1170" data-name="Path 1170" d="M432.526,753l-9.607-4.966v3.64H322.413a54.013,54.013,0,1,1,0-108.026,49.041,49.041,0,0,1,0,98.082,43.976,43.976,0,1,1,0-87.951v.031a37.8,37.8,0,0,1,37.753,37.752h2.652a40.45,40.45,0,0,0-40.4-40.4v-.032a46.627,46.627,0,1,0,0,93.255,51.693,51.693,0,1,0,0-103.385H236.482v-3.641l-9.608,4.967,9.608,4.966v-3.64h68.8a56.664,56.664,0,0,0,17.128,110.679H422.919v3.64Z" transform="translate(373.126 2014.014)" fill="#707070"/>
      <path id="Path_1213" data-name="Path 1213" d="M877.846,753l-9.608-4.966v3.64H767.733a54.013,54.013,0,1,1,0-108.026,49.041,49.041,0,0,1,0,98.082,43.976,43.976,0,1,1,0-87.951v.031a37.8,37.8,0,0,1,37.752,37.752h2.652a40.45,40.45,0,0,0-40.4-40.4v-.032a46.627,46.627,0,1,0,0,93.255,51.693,51.693,0,0,0,0-103.385H669.379v-3.641l-9.607,4.967,9.607,4.966v-3.64H750.6a56.664,56.664,0,0,0,17.128,110.679H868.238v3.64Z" transform="translate(440.228 2014.014)" fill="#707070"/>
      <g id="meter" transform="translate(1189.999 2693)">
        <path id="Path_893" data-name="Path 893" d="M32.436,5.565a19,19,0,0,0-26.87,26.87,19,19,0,0,0,26.87-26.87Zm-1.05,25.821A17.51,17.51,0,0,1,2.4,24.574H15.667a.742.742,0,1,0,0-1.484H1.974a17.512,17.512,0,1,1,34.053,0H22.332a.742.742,0,1,0,0,1.484H35.6A17.408,17.408,0,0,1,31.386,31.385Z" transform="translate(0 0)" fill="#707070"/>
        <path id="Path_894" data-name="Path 894" d="M67.85,53.416a.742.742,0,0,0,1.484,0V50.082a13.455,13.455,0,0,1,3.746.745l-.491,1.187a.742.742,0,1,0,1.372.568l.491-1.186a13.587,13.587,0,0,1,3.079,2.045l-2.349,2.347a.742.742,0,0,0,1.049,1.05l2.359-2.357A13.6,13.6,0,0,1,80.8,57.743l-1.186.491a.742.742,0,1,0,.568,1.372l1.187-.491a13.453,13.453,0,0,1,.745,3.746H78.779a.742.742,0,1,0,0,1.484h4.1a.528.528,0,0,0,.055,0,.742.742,0,0,0,.687-.739,15.024,15.024,0,1,0-30.048,0,.742.742,0,0,0,.742.742h4.1a.742.742,0,0,0,0-1.484H55.074a13.453,13.453,0,0,1,.745-3.747l1.187.491a.742.742,0,0,0,.568-1.372l-1.186-.491A13.591,13.591,0,0,1,58.6,54.48l2.357,2.357A.742.742,0,0,0,62,55.788L59.655,53.44A13.585,13.585,0,0,1,62.733,51.4l.492,1.187a.742.742,0,0,0,1.371-.569L64.1,50.827a13.45,13.45,0,0,1,3.746-.745v3.333Z" transform="translate(-49.592 -44.972)" fill="#707070"/>
        <path id="Path_895" data-name="Path 895" d="M222.131,166.823l-.006-.015-1.9-4.45a.742.742,0,0,0-.683-.451h0a.742.742,0,0,0-.682.451l-1.9,4.45-.008.019a3.421,3.421,0,0,0-.332,1.341,2.923,2.923,0,1,0,5.846,0A3.434,3.434,0,0,0,222.131,166.823Zm-2.59,2.785a1.44,1.44,0,0,1-1.437-1.439,2.153,2.153,0,0,1,.223-.785l1.214-2.845,1.216,2.845a2.153,2.153,0,0,1,.223.784A1.441,1.441,0,0,1,219.541,169.608Z" transform="translate(-200.541 -149.891)" fill="#707070"/>
        <path id="Path_896" data-name="Path 896" d="M232.516,353.8h-1.287l1.011-2.033a.742.742,0,1,0-1.329-.661l-1.544,3.105a.75.75,0,0,0,.667,1.073h1.285l-1.011,2.033a.742.742,0,1,0,1.329.661l1.544-3.105a.745.745,0,0,0-.665-1.073Z" transform="translate(-212.273 -324.668)" fill="#707070"/>
        <path id="Path_897" data-name="Path 897" d="M153.21,385.451h-2.634a.742.742,0,0,0,0,1.484h2.634a.742.742,0,1,0,0-1.484Z" transform="translate(-138.713 -356.843)" fill="#707070"/>
        <path id="Path_898" data-name="Path 898" d="M310.024,385.451H307.39a.742.742,0,0,0,0,1.484h2.634a.742.742,0,0,0,0-1.484Z" transform="translate(-283.888 -356.843)" fill="#707070"/>
        <path id="Path_899" data-name="Path 899" d="M246.732,312.582a.742.742,0,1,0-.746-.742.74.74,0,0,0,.746.742Z" transform="translate(-227.728 -288.009)" fill="#707070"/>
      </g>
      <g id="Smart_phone_shopping" data-name="Smart phone shopping" transform="translate(680.5 2689)">
        <path id="Path_959" data-name="Path 959" d="M38.413,35.783l-3.867,2.235a2,2,0,0,0-1.879-1.351H29.648a.679.679,0,0,1-.3-.067l-.771-.386A2.009,2.009,0,0,0,27.685,36H24.219a2.009,2.009,0,0,0-.633.1l-1.693.564h-.559V35.333a.667.667,0,0,0-.667-.667h-4a.667.667,0,0,0-.667.667V36H13.333V34H12V46h1.333V44H16v.667a.667.667,0,0,0,.667.667h4a.667.667,0,0,0,.667-.667v-1.34l.506.005.915.457a2.009,2.009,0,0,0,.894.211h7.995a2,2,0,0,0,1-.267l7.767-4.486a2.005,2.005,0,0,0,1.01-1.741,1.985,1.985,0,0,0-.271-1A2.007,2.007,0,0,0,38.413,35.783ZM13.333,42.667V37.333H16v5.333ZM20,44H17.333V36H20Zm19.747-5.911-7.771,4.488a.667.667,0,0,1-.333.089H23.648a.679.679,0,0,1-.3-.067L22.161,42l-.827-.007V38H22a.667.667,0,0,0,.211-.034l1.794-.6a.675.675,0,0,1,.212-.033h3.467a.679.679,0,0,1,.3.067l.771.386a2.009,2.009,0,0,0,.9.214h3.019a.667.667,0,0,1,0,1.333H30a.667.667,0,1,0,0,1.333h2.667A1.994,1.994,0,0,0,34.4,39.645l4.683-2.711a.663.663,0,0,1,.917.248.644.644,0,0,1,.09.325.667.667,0,0,1-.343.583Z" transform="translate(-3.333 -10.667)" fill="#707070"/>
        <path id="Path_960" data-name="Path 960" d="M24,34.667a.667.667,0,0,0-.667.667v1.333h-20V7.333h20V8a.667.667,0,1,0,1.333,0V6.667A4.672,4.672,0,0,0,20,2H6.667A4.672,4.672,0,0,0,2,6.667V37.333A4.672,4.672,0,0,0,6.667,42H20a4.672,4.672,0,0,0,4.667-4.667v-2A.667.667,0,0,0,24,34.667ZM6.667,3.333H20A3.339,3.339,0,0,1,23.267,6H3.4A3.339,3.339,0,0,1,6.667,3.333ZM20,40.667H6.667A3.339,3.339,0,0,1,3.4,38H23.267A3.339,3.339,0,0,1,20,40.667Z" fill="#707070"/>
        <path id="Path_961" data-name="Path 961" d="M16,5h1.333V6.333H16Z" transform="translate(-4.667 -1)" fill="#707070"/>
        <path id="Path_962" data-name="Path 962" d="M20,5h1.333V6.333H20Z" transform="translate(-6 -1)" fill="#707070"/>
        <path id="Path_963" data-name="Path 963" d="M16,57h4v1.333H16Z" transform="translate(-4.667 -18.333)" fill="#707070"/>
        <path id="Path_964" data-name="Path 964" d="M50.667,13h-16a.667.667,0,0,0-.667.667V15H32.667a.667.667,0,0,0-.667.667V17H30.667a.667.667,0,0,0-.667.667V27a.667.667,0,0,0,.667.667h16A.667.667,0,0,0,47.333,27V25.667h1.333A.667.667,0,0,0,49.333,25V23.667h1.333A.667.667,0,0,0,51.333,23V13.667A.667.667,0,0,0,50.667,13ZM46,26.333H31.333v-8H46Zm2-2h-.667V17.667A.667.667,0,0,0,46.667,17H33.333v-.667H48Zm2-2h-.667V15.667A.667.667,0,0,0,48.667,15H35.333v-.667H50Z" transform="translate(-9.333 -3.667)" fill="#707070"/>
        <path id="Path_965" data-name="Path 965" d="M41.667,23a2.667,2.667,0,1,0,2.667,2.667A2.667,2.667,0,0,0,41.667,23Zm0,4A1.333,1.333,0,1,1,43,25.667,1.333,1.333,0,0,1,41.667,27Z" transform="translate(-12.333 -7)" fill="#707070"/>
        <path id="Path_966" data-name="Path 966" d="M50.333,26h-.667a.667.667,0,1,0,0,1.333h.667a.667.667,0,1,0,0-1.333Z" transform="translate(-15.667 -8)" fill="#707070"/>
        <path id="Path_967" data-name="Path 967" d="M35.333,26h-.667a.667.667,0,1,0,0,1.333h.667a.667.667,0,1,0,0-1.333Z" transform="translate(-10.667 -8)" fill="#707070"/>
        <path id="Path_968" data-name="Path 968" d="M12,14.667A.667.667,0,0,0,11.333,14H8.667A.667.667,0,0,0,8,14.667v2.667A.667.667,0,0,0,8.667,18h2.667A.667.667,0,0,0,12,17.333Zm-1.333,2H9.333V15.333h1.333Z" transform="translate(-2 -4)" fill="#707070"/>
        <path id="Path_969" data-name="Path 969" d="M20,14.667A.667.667,0,0,0,19.333,14H16.667a.667.667,0,0,0-.667.667v2.667a.667.667,0,0,0,.667.667h2.667A.667.667,0,0,0,20,17.333Zm-1.333,2H17.333V15.333h1.333Z" transform="translate(-4.667 -4)" fill="#707070"/>
        <path id="Path_970" data-name="Path 970" d="M11.333,24H8.667A.667.667,0,0,0,8,24.667v2.667A.667.667,0,0,0,8.667,28h2.667A.667.667,0,0,0,12,27.333V24.667A.667.667,0,0,0,11.333,24Zm-.667,2.667H9.333V25.333h1.333Z" transform="translate(-2 -7.333)" fill="#707070"/>
        <path id="Path_971" data-name="Path 971" d="M19.333,24H16.667a.667.667,0,0,0-.667.667v2.667a.667.667,0,0,0,.667.667h2.667A.667.667,0,0,0,20,27.333V24.667A.667.667,0,0,0,19.333,24Zm-.667,2.667H17.333V25.333h1.333Z" transform="translate(-4.667 -7.333)" fill="#707070"/>
        <path id="Path_972" data-name="Path 972" d="M27.333,15.333a.667.667,0,1,0,0-1.333H24.667a.667.667,0,0,0-.667.667v2.667a.667.667,0,0,0,.667.667H26a.667.667,0,1,0,0-1.333h-.667V15.333Z" transform="translate(-7.333 -4)" fill="#707070"/>
        <path id="Path_973" data-name="Path 973" d="M26,25.333A.667.667,0,1,0,26,24H24.667a.667.667,0,0,0-.667.667v2.667a.667.667,0,0,0,.667.667H26a.667.667,0,1,0,0-1.333h-.667V25.333Z" transform="translate(-7.333 -7.333)" fill="#707070"/>
      </g>
      <g id="invoice" transform="translate(750.291 2693)">
        <g id="Group_2816" data-name="Group 2816" transform="translate(120.245 5.939)">
          <g id="Group_2815" data-name="Group 2815" transform="translate(0)">
            <path id="Path_5043" data-name="Path 5043" d="M322.686,80.161H321.2a.556.556,0,0,0,0,1.111h1.485a.556.556,0,1,0,0-1.111Z" transform="translate(-320.645 -80.161)" fill="#707070"/>
          </g>
        </g>
        <g id="Group_2818" data-name="Group 2818" transform="translate(120.245 8.909)">
          <g id="Group_2817" data-name="Group 2817" transform="translate(0)">
            <path id="Path_5044" data-name="Path 5044" d="M322.686,120.242H321.2a.556.556,0,0,0,0,1.111h1.485a.556.556,0,1,0,0-1.111Z" transform="translate(-320.645 -120.242)" fill="#707070"/>
          </g>
        </g>
        <g id="Group_2820" data-name="Group 2820" transform="translate(120.245 11.879)">
          <g id="Group_2819" data-name="Group 2819" transform="translate(0)">
            <path id="Path_5045" data-name="Path 5045" d="M322.686,160.322H321.2a.556.556,0,0,0,0,1.111h1.485a.556.556,0,1,0,0-1.111Z" transform="translate(-320.645 -160.322)" fill="#707070"/>
          </g>
        </g>
        <g id="Group_2822" data-name="Group 2822" transform="translate(120.245 14.848)">
          <g id="Group_2821" data-name="Group 2821" transform="translate(0)">
            <path id="Path_5046" data-name="Path 5046" d="M322.686,200.4H321.2a.556.556,0,0,0,0,1.111h1.485a.556.556,0,1,0,0-1.111Z" transform="translate(-320.645 -200.404)" fill="#707070"/>
          </g>
        </g>
        <g id="Group_2824" data-name="Group 2824" transform="translate(120.245 17.818)">
          <g id="Group_2823" data-name="Group 2823" transform="translate(0)">
            <path id="Path_5047" data-name="Path 5047" d="M322.686,240.484H321.2a.556.556,0,0,0,0,1.111h1.485a.556.556,0,1,0,0-1.111Z" transform="translate(-320.645 -240.484)" fill="#707070"/>
          </g>
        </g>
        <g id="Group_2826" data-name="Group 2826" transform="translate(120.245 20.787)">
          <g id="Group_2825" data-name="Group 2825" transform="translate(0)">
            <path id="Path_5048" data-name="Path 5048" d="M322.686,280.565H321.2a.556.556,0,0,0,0,1.111h1.485a.556.556,0,1,0,0-1.111Z" transform="translate(-320.645 -280.565)" fill="#707070"/>
          </g>
        </g>
        <g id="Group_2828" data-name="Group 2828" transform="translate(120.245 23.757)">
          <g id="Group_2827" data-name="Group 2827" transform="translate(0)">
            <path id="Path_5049" data-name="Path 5049" d="M322.686,320.646H321.2a.556.556,0,0,0,0,1.111h1.485a.556.556,0,1,0,0-1.111Z" transform="translate(-320.645 -320.646)" fill="#707070"/>
          </g>
        </g>
        <g id="Group_2830" data-name="Group 2830" transform="translate(107.773 5.939)">
          <g id="Group_2829" data-name="Group 2829" transform="translate(0)">
            <path id="Path_5050" data-name="Path 5050" d="M159.4,80.161h-6.533a.556.556,0,1,0,0,1.111H159.4a.556.556,0,1,0,0-1.111Z" transform="translate(-152.307 -80.161)" fill="#707070"/>
          </g>
        </g>
        <g id="Group_2832" data-name="Group 2832" transform="translate(107.773 8.909)">
          <g id="Group_2831" data-name="Group 2831" transform="translate(0)">
            <path id="Path_5051" data-name="Path 5051" d="M161.484,120.242h-8.621a.556.556,0,0,0,0,1.111h8.621a.556.556,0,0,0,0-1.111Z" transform="translate(-152.307 -120.242)" fill="#707070"/>
          </g>
        </g>
        <g id="Group_2834" data-name="Group 2834" transform="translate(107.773 11.879)">
          <g id="Group_2833" data-name="Group 2833" transform="translate(0)">
            <path id="Path_5052" data-name="Path 5052" d="M157.614,160.322h-4.751a.556.556,0,0,0,0,1.111h4.751a.556.556,0,1,0,0-1.111Z" transform="translate(-152.307 -160.322)" fill="#707070"/>
          </g>
        </g>
        <g id="Group_2836" data-name="Group 2836" transform="translate(107.773 14.848)">
          <g id="Group_2835" data-name="Group 2835" transform="translate(0)">
            <path id="Path_5053" data-name="Path 5053" d="M159.4,200.4h-6.533a.556.556,0,1,0,0,1.111H159.4a.556.556,0,1,0,0-1.111Z" transform="translate(-152.307 -200.404)" fill="#707070"/>
          </g>
        </g>
        <g id="Group_2838" data-name="Group 2838" transform="translate(107.773 17.818)">
          <g id="Group_2837" data-name="Group 2837" transform="translate(0)">
            <path id="Path_5054" data-name="Path 5054" d="M161.771,240.484h-8.909a.556.556,0,0,0,0,1.111h8.909a.556.556,0,1,0,0-1.111Z" transform="translate(-152.307 -240.484)" fill="#707070"/>
          </g>
        </g>
        <g id="Group_2840" data-name="Group 2840" transform="translate(107.773 20.787)">
          <g id="Group_2839" data-name="Group 2839" transform="translate(0)">
            <path id="Path_5055" data-name="Path 5055" d="M157.614,280.565h-4.751a.556.556,0,0,0,0,1.111h4.751a.556.556,0,1,0,0-1.111Z" transform="translate(-152.307 -280.565)" fill="#707070"/>
          </g>
        </g>
        <g id="Group_2842" data-name="Group 2842" transform="translate(107.773 23.757)">
          <g id="Group_2841" data-name="Group 2841" transform="translate(0)">
            <path id="Path_5056" data-name="Path 5056" d="M159.4,320.646h-6.533a.556.556,0,1,0,0,1.111H159.4a.556.556,0,1,0,0-1.111Z" transform="translate(-152.307 -320.646)" fill="#707070"/>
          </g>
        </g>
        <g id="Group_2844" data-name="Group 2844" transform="translate(110.742 27.914)">
          <g id="Group_2843" data-name="Group 2843" transform="translate(0)">
            <path id="Path_5057" data-name="Path 5057" d="M201.258,376.758h-8.315a.556.556,0,0,0,0,1.111h8.315a.556.556,0,1,0,0-1.111Z" transform="translate(-192.387 -376.758)" fill="#707070"/>
          </g>
        </g>
        <g id="Group_2846" data-name="Group 2846" transform="translate(112.524 30.884)">
          <g id="Group_2845" data-name="Group 2845" transform="translate(0)">
            <path id="Path_5058" data-name="Path 5058" d="M221.743,416.839h-4.751a.556.556,0,1,0,0,1.111h4.751a.556.556,0,1,0,0-1.111Z" transform="translate(-216.436 -416.839)" fill="#707070"/>
          </g>
        </g>
        <g id="Group_2848" data-name="Group 2848" transform="translate(104.209 0)">
          <g id="Group_2847" data-name="Group 2847" transform="translate(0 0)">
            <path id="Path_5059" data-name="Path 5059" d="M126.42.072a.556.556,0,0,0-.56.007L124.153,1.1l-1.9-1.036a.556.556,0,0,0-.532,0l-1.912,1.043L117.9.068a.556.556,0,0,0-.532,0l-1.912,1.043L113.544.068a.556.556,0,0,0-.532,0L111.1,1.111,109.188.068a.556.556,0,0,0-.532,0l-1.9,1.036L105.051.079a.556.556,0,0,0-.842.476V37.379a.556.556,0,0,0,.842.476l1.707-1.024,1.9,1.036a.556.556,0,0,0,.532,0l1.912-1.043,1.912,1.043a.556.556,0,0,0,.532,0l1.912-1.043,1.912,1.043a.556.556,0,0,0,.532,0l1.912-1.043,1.912,1.043a.556.556,0,0,0,.532,0l1.9-1.036,1.707,1.024a.556.556,0,0,0,.842-.477V.556A.556.556,0,0,0,126.42.072ZM125.59,36.4h0l-1.138-.683a.556.556,0,0,0-.552-.011l-1.912,1.043L120.077,35.7a.556.556,0,0,0-.532,0l-1.912,1.043L115.721,35.7a.555.555,0,0,0-.532,0l-1.912,1.043L111.366,35.7a.555.555,0,0,0-.532,0l-1.912,1.043L107.011,35.7a.556.556,0,0,0-.552.011l-1.138.683V1.537l1.138.683a.556.556,0,0,0,.552.011l1.912-1.043,1.912,1.043a.556.556,0,0,0,.532,0l1.912-1.043,1.912,1.043a.556.556,0,0,0,.532,0l1.912-1.043,1.912,1.043a.556.556,0,0,0,.532,0l1.912-1.043L123.9,2.231a.556.556,0,0,0,.552-.011l1.138-.683Z" transform="translate(-104.209 0)" fill="#707070"/>
          </g>
        </g>
      </g>
      <g id="personal-information" transform="translate(531 2692.336)">
        <path id="Path_5191" data-name="Path 5191" d="M51.414,37.664H32.655A1.657,1.657,0,0,1,31,36.009V8.4a1.657,1.657,0,0,1,1.655-1.655h3.171a.552.552,0,1,1,0,1.1H32.655A.552.552,0,0,0,32.1,8.4V36.009a.552.552,0,0,0,.552.552H51.414a.552.552,0,0,0,.552-.552V23.172H39.276a1.657,1.657,0,0,1-1.655-1.655V1.655A1.657,1.657,0,0,1,39.276,0H55.828a1.657,1.657,0,0,1,1.655,1.655V7.172a.552.552,0,0,1-1.1,0V1.655a.552.552,0,0,0-.552-.552H39.276a.552.552,0,0,0-.552.552V21.517a.552.552,0,0,0,.552.552H55.828a.552.552,0,0,0,.552-.552V9.379a.552.552,0,0,1,.552-.552h3.31a.552.552,0,0,1,0,1.1H57.483v2.207h2.759a.552.552,0,0,1,0,1.1H57.483v2.207h2.759a.552.552,0,0,1,0,1.1H57.483v2.207h2.759a.552.552,0,0,1,0,1.1H57.483v1.655a1.648,1.648,0,0,1-.095.552h2.853a.552.552,0,0,1,0,1.1H53.069v2.207h7.172a.552.552,0,0,1,0,1.1H53.069V29.94h9.379A.552.552,0,0,0,63,29.389V5.091a.552.552,0,0,0-.552-.552h-3.31a.552.552,0,1,1,0-1.1h3.31A1.657,1.657,0,0,1,64.1,5.091v24.3a1.657,1.657,0,0,1-1.655,1.655H53.069v3.31h6.069a.552.552,0,0,0,.552-.552V32.7a.552.552,0,1,1,1.1,0v1.1a1.657,1.657,0,0,1-1.655,1.655H53.069v.552A1.657,1.657,0,0,1,51.414,37.664Zm3.31-16.7H40.379a.552.552,0,0,1-.552-.552V18.5c0-2.835,1.874-3.484,3.243-3.957,1.13-.391,1.771-.654,1.884-1.5a4.614,4.614,0,0,1-2.018-3.814V6.947a4.615,4.615,0,0,1,9.231,0V9.222a4.614,4.614,0,0,1-2.018,3.814c.113.85.754,1.113,1.884,1.5,1.369.474,3.243,1.122,3.243,3.957v1.917A.552.552,0,0,1,54.724,20.966Zm-13.793-1.1H54.172V18.5c0-2.049-1.159-2.45-2.5-2.915-.991-.343-2.185-.756-2.54-2.023a4.62,4.62,0,0,1-3.16,0c-.355,1.267-1.55,1.68-2.54,2.023-1.342.464-2.5.865-2.5,2.915ZM47.552,3.435A3.516,3.516,0,0,0,44.04,6.947V9.222a3.512,3.512,0,0,0,7.024,0V6.947a3.516,3.516,0,0,0-3.512-3.512Z" transform="translate(-31)" fill="#707070"/>
      </g>
      <g id="surface1" transform="translate(1018.053 2695.333)">
        <path id="Path_5192" data-name="Path 5192" d="M32.89,10.491v-.03c-.017-.371-.028-.764-.035-1.2a4.1,4.1,0,0,0-3.859-4.015A15.9,15.9,0,0,1,18.171.682L18.146.658a2.475,2.475,0,0,0-3.363,0l-.025.024A15.9,15.9,0,0,1,3.934,5.244,4.1,4.1,0,0,0,.075,9.259c-.006.434-.018.827-.035,1.2l0,.07c-.086,4.533-.194,10.176,1.694,15.3A19.472,19.472,0,0,0,6.4,33.1a24.438,24.438,0,0,0,9.142,5.407,2.827,2.827,0,0,0,.375.1,2.768,2.768,0,0,0,1.088,0,2.83,2.83,0,0,0,.376-.1,24.453,24.453,0,0,0,9.132-5.41,19.5,19.5,0,0,0,4.672-7.278C33.083,20.685,32.976,15.033,32.89,10.491ZM29.06,25.037c-1.991,5.4-6.055,9.1-12.424,11.332a.583.583,0,0,1-.072.019.51.51,0,0,1-.2,0,.573.573,0,0,1-.071-.019C9.917,34.145,5.851,30.441,3.862,25.043c-1.74-4.721-1.641-9.9-1.554-14.469v-.025c.018-.393.03-.8.036-1.256A1.821,1.821,0,0,1,4.061,7.51a19.908,19.908,0,0,0,6.757-1.486,17.678,17.678,0,0,0,5.506-3.7.209.209,0,0,1,.281,0,17.684,17.684,0,0,0,5.506,3.7A19.908,19.908,0,0,0,28.869,7.51a1.821,1.821,0,0,1,1.716,1.783c.007.454.019.866.036,1.256C30.708,15.123,30.8,20.306,29.06,25.037Zm0,0" transform="translate(0 0.001)" fill="#707070"/>
        <path id="Path_5193" data-name="Path 5193" d="M100.035,128.41a9.637,9.637,0,1,0,9.637,9.637A9.648,9.648,0,0,0,100.035,128.41Zm0,17a7.368,7.368,0,1,1,7.367-7.368A7.376,7.376,0,0,1,100.035,145.414Zm0,0" transform="translate(-83.571 -118.712)" fill="#707070"/>
        <path id="Path_5194" data-name="Path 5194" d="M161.3,212.324l-4.476,4.476-1.215-1.215a1.135,1.135,0,0,0-1.6,1.6l2.017,2.017a1.135,1.135,0,0,0,1.6,0l5.278-5.278a1.135,1.135,0,0,0-1.6-1.6Zm0,0" transform="translate(-142.067 -195.981)" fill="#707070"/>
      </g>
      <g id="customer-support" transform="translate(1354.727 2697)">
        <path id="Path_5195" data-name="Path 5195" d="M.378,2.825l2,3.5a.5.5,0,0,0,.312.237l1.865.466,6.4,6.4.707-.707-6.5-6.5a.5.5,0,0,0-.232-.132l-1.792-.45-1.7-2.98L2.895,1.2,5.876,2.9,6.326,4.7a.5.5,0,0,0,.131.232l6.5,6.5.707-.707-6.4-6.4L6.8,2.456a.5.5,0,0,0-.237-.313l-3.5-2a.5.5,0,0,0-.6.08l-2,2a.5.5,0,0,0-.086.6Zm0,0" transform="translate(-0.039 -0.075)" fill="#707070"/>
        <path id="Path_5196" data-name="Path 5196" d="M185.683,174.425l-11,11-.707-.707,11-11Zm0,0" transform="translate(-164.564 -164.575)" fill="#707070"/>
        <path id="Path_5197" data-name="Path 5197" d="M53.179,399.078a.5.5,0,0,0-.428-.242h-3a.5.5,0,0,0-.428.242l-1.5,2.5a.5.5,0,0,0,0,.515l1.5,2.5a.5.5,0,0,0,.428.242h3a.5.5,0,0,0,.428-.242l1.5-2.5a.5.5,0,0,0,0-.515Zm-.711,4.755H50.035l-1.2-2,1.2-2h2.433l1.2,2Zm0,0" transform="translate(-44.98 -377.844)" fill="#707070"/>
        <path id="Path_5198" data-name="Path 5198" d="M24.263,12a5.977,5.977,0,0,0,5.814-7.447.5.5,0,0,0-.838-.233L26.128,7.425,23.659,6.6l-.823-2.468,3.111-3.112a.5.5,0,0,0-.234-.839A5.979,5.979,0,0,0,18.266,6a5.866,5.866,0,0,0,.122,1.171L7.442,18.115a5.9,5.9,0,0,0-1.171-.122,6,6,0,1,0,6,6,5.881,5.881,0,0,0-.122-1.171l2.62-2.62,1.146,1.146a.5.5,0,0,0,.707,0l.25-.25a.561.561,0,0,1,.794.792h0l-.25.25a.5.5,0,0,0,0,.707l5.962,5.962a4.034,4.034,0,1,0,5.73-5.679l-.026-.026L23.117,17.14a.5.5,0,0,0-.707,0l-.25.25a.561.561,0,0,1-.794-.792h0l.25-.25a.5.5,0,0,0,0-.707l-1.146-1.146,2.62-2.62A5.881,5.881,0,0,0,24.263,12Zm1.964,16.993a3.037,3.037,0,0,1-1.063-.194l3.9-3.9a3.031,3.031,0,0,1-2.84,4.1ZM20.565,16a1.56,1.56,0,0,0,2.2,2.2l5.609,5.614c.061.061.118.125.173.191l-4.273,4.273c-.066-.055-.13-.112-.191-.173l-5.613-5.613a1.56,1.56,0,0,0-2.2-2.2l-.8-.8,4.3-4.289Zm2.018-5.027L11.245,22.308a.5.5,0,0,0-.132.475,5.031,5.031,0,1,1-3.634-3.635.5.5,0,0,0,.475-.132L19.289,7.681a.5.5,0,0,0,.131-.475,4.974,4.974,0,0,1,5.127-6.2L21.911,3.646a.5.5,0,0,0-.121.511l1,3a.5.5,0,0,0,.316.316l3,1a.5.5,0,0,0,.511-.12l2.636-2.636c.006.1.009.19.009.284a4.972,4.972,0,0,1-6.206,4.842.5.5,0,0,0-.475.131h0Zm0,0" fill="#707070"/>
        <path id="Path_5199" data-name="Path 5199" d="M388.6,387.623l-.707.707-5-5,.707-.707Zm0,0" transform="translate(-362.479 -362.486)" fill="#707070"/>
      </g>
    </g>
  </g>
</svg>
